<?xml version="1.0" encoding="UTF-8" standalone="no"?><svg xmlns="http://www.w3.org/2000/svg" xmlns:xlink="http://www.w3.org/1999/xlink" contentScriptType="application/ecmascript" contentStyleType="text/css" height="273.9583px" preserveAspectRatio="none" style="width:639px;height:273px;background:#333333;" version="1.1" viewBox="0 0 639 273" width="639.5833px" zoomAndPan="magnify"><defs/><g><rect fill="#48494B" height="41.2028" rx="8.3333" ry="8.3333" style="stroke:#545454;stroke-width:1.0416666666666667;" width="627.0833" x="2.0833" y="2.0833"/><text fill="#C0C0C0" font-family="Open Sans,Avenir,Nunito,Arial,Helvetica,SansSerif" font-size="20.8333" lengthAdjust="spacing" textLength="604.1667" x="13.5417" y="30.5583">com.telenav.kivakit.core.kernel.language.matching.matchers</text><!--MD5=[c249847c086044a14a4ecd1d09905030]
class Matcher--><rect codeLine="6" fill="#282828" height="48.055" id="Matcher" rx="8.3333" ry="8.3333" style="stroke:#5E5E5E;stroke-width:1.0416666666666667;" width="88.5417" x="208.8542" y="53.7028"/><rect fill="#1B1B1A" height="31.3883" rx="8.3333" ry="8.3333" style="stroke:#1B1B1A;stroke-width:1.0416666666666667;" width="88.5417" x="208.8542" y="53.7028"/><rect fill="#1B1B1A" height="8.3333" style="stroke:#1B1B1A;stroke-width:1.0416666666666667;" width="88.5417" x="208.8542" y="76.7578"/><rect codeLine="6" fill="none" height="48.055" id="Matcher" rx="8.3333" ry="8.3333" style="stroke:#5E5E5E;stroke-width:1.0416666666666667;" width="88.5417" x="208.8542" y="53.7028"/><ellipse cx="223.4375" cy="69.397" fill="#008400" rx="10.4167" ry="10.4167" style="stroke:#239C23;stroke-width:1.0416666666666667;"/><path d="M220.3206,66.5588 L220.3206,64.9719 L225.7467,64.9719 L225.7467,66.5588 L223.9339,66.5588 L223.9339,72.4976 L225.7467,72.4976 L225.7467,74.0845 L220.3206,74.0845 L220.3206,72.4976 L222.1334,72.4976 L222.1334,66.5588 Z " fill="#000000"/><text fill="#D8BC00" font-family="Open Sans,Avenir,Nunito,Arial,Helvetica,SansSerif" font-size="12.5" font-style="italic" font-weight="bold" lengthAdjust="spacing" textLength="51.0417" x="240.1042" y="74.1211">Matcher</text><line style="stroke:#5E5E5E;stroke-width:1.0416666666666667;" x1="209.8958" x2="296.3542" y1="85.0911" y2="85.0911"/><line style="stroke:#5E5E5E;stroke-width:1.0416666666666667;" x1="209.8958" x2="296.3542" y1="93.4245" y2="93.4245"/><!--MD5=[c4ad16297ce8289e7db10494c550b400]
class All--><rect codeLine="9" fill="#282828" height="48.055" id="All" rx="8.3333" ry="8.3333" style="stroke:#5E5E5E;stroke-width:1.0416666666666667;" width="73.9583" x="23.4375" y="191.7236"/><rect fill="#1B1B1A" height="31.3883" rx="8.3333" ry="8.3333" style="stroke:#1B1B1A;stroke-width:1.0416666666666667;" width="73.9583" x="23.4375" y="191.7236"/><rect fill="#1B1B1A" height="8.3333" style="stroke:#1B1B1A;stroke-width:1.0416666666666667;" width="73.9583" x="23.4375" y="214.7786"/><rect codeLine="9" fill="none" height="48.055" id="All" rx="8.3333" ry="8.3333" style="stroke:#5E5E5E;stroke-width:1.0416666666666667;" width="73.9583" x="23.4375" y="191.7236"/><ellipse cx="38.0208" cy="207.4178" fill="#0066CF" rx="10.4167" ry="10.4167" style="stroke:#0086EF;stroke-width:1.0416666666666667;"/><path d="M39.9312,211.8429 Q39.504,212.0626 39.034,212.1724 Q38.564,212.2823 38.0452,212.2823 Q36.202,212.2823 35.2315,211.0677 Q34.2611,209.8531 34.2611,207.5582 Q34.2611,205.2572 35.2315,204.0426 Q36.202,202.828 38.0452,202.828 Q38.564,202.828 39.0401,202.9378 Q39.5162,203.0477 39.9312,203.2674 L39.9312,205.2694 Q39.4674,204.8421 39.031,204.6438 Q38.5946,204.4454 38.1307,204.4454 Q37.1419,204.4454 36.6384,205.2297 Q36.1348,206.014 36.1348,207.5582 Q36.1348,209.0963 36.6384,209.8806 Q37.1419,210.6649 38.1307,210.6649 Q38.5946,210.6649 39.031,210.4665 Q39.4674,210.2681 39.9312,209.8409 Z " fill="#000000"/><text fill="#D8BC00" font-family="Open Sans,Avenir,Nunito,Arial,Helvetica,SansSerif" font-size="12.5" font-weight="bold" lengthAdjust="spacing" textLength="17.7083" x="54.6875" y="212.1419">All</text><rect fill="#333333" height="23.055" style="stroke:#A0A0A0;stroke-width:1.0416666666666667;stroke-dasharray:2.0,2.0;" width="16.6667" x="83.8542" y="188.5986"/><text fill="#A0A0A0" font-family="Open Sans,Avenir,Nunito,Arial,Helvetica,SansSerif" font-size="12.5" font-weight="bold" lengthAdjust="spacing" textLength="8.3333" x="88.0208" y="204.8503">T</text><line style="stroke:#5E5E5E;stroke-width:1.0416666666666667;" x1="24.4792" x2="96.3542" y1="223.112" y2="223.112"/><line style="stroke:#5E5E5E;stroke-width:1.0416666666666667;" x1="24.4792" x2="96.3542" y1="231.4453" y2="231.4453"/><!--MD5=[23b93222029f5e808ee3d66414f1a838]
class None--><rect codeLine="14" fill="#282828" height="48.055" id="None" rx="8.3333" ry="8.3333" style="stroke:#5E5E5E;stroke-width:1.0416666666666667;" width="89.5833" x="134.375" y="191.7236"/><rect fill="#1B1B1A" height="31.3883" rx="8.3333" ry="8.3333" style="stroke:#1B1B1A;stroke-width:1.0416666666666667;" width="89.5833" x="134.375" y="191.7236"/><rect fill="#1B1B1A" height="8.3333" style="stroke:#1B1B1A;stroke-width:1.0416666666666667;" width="89.5833" x="134.375" y="214.7786"/><rect codeLine="14" fill="none" height="48.055" id="None" rx="8.3333" ry="8.3333" style="stroke:#5E5E5E;stroke-width:1.0416666666666667;" width="89.5833" x="134.375" y="191.7236"/><ellipse cx="148.9583" cy="207.4178" fill="#0066CF" rx="10.4167" ry="10.4167" style="stroke:#0086EF;stroke-width:1.0416666666666667;"/><path d="M150.8687,211.8429 Q150.4415,212.0626 149.9715,212.1724 Q149.5015,212.2823 148.9827,212.2823 Q147.1395,212.2823 146.169,211.0677 Q145.1986,209.8531 145.1986,207.5582 Q145.1986,205.2572 146.169,204.0426 Q147.1395,202.828 148.9827,202.828 Q149.5015,202.828 149.9776,202.9378 Q150.4537,203.0477 150.8687,203.2674 L150.8687,205.2694 Q150.4049,204.8421 149.9685,204.6438 Q149.5321,204.4454 149.0682,204.4454 Q148.0794,204.4454 147.5759,205.2297 Q147.0723,206.014 147.0723,207.5582 Q147.0723,209.0963 147.5759,209.8806 Q148.0794,210.6649 149.0682,210.6649 Q149.5321,210.6649 149.9685,210.4665 Q150.4049,210.2681 150.8687,209.8409 Z " fill="#000000"/><text fill="#D8BC00" font-family="Open Sans,Avenir,Nunito,Arial,Helvetica,SansSerif" font-size="12.5" font-weight="bold" lengthAdjust="spacing" textLength="33.3333" x="165.625" y="212.1419">None</text><rect fill="#333333" height="23.055" style="stroke:#A0A0A0;stroke-width:1.0416666666666667;stroke-dasharray:2.0,2.0;" width="16.6667" x="210.4167" y="188.5986"/><text fill="#A0A0A0" font-family="Open Sans,Avenir,Nunito,Arial,Helvetica,SansSerif" font-size="12.5" font-weight="bold" lengthAdjust="spacing" textLength="8.3333" x="214.5833" y="204.8503">T</text><line style="stroke:#5E5E5E;stroke-width:1.0416666666666667;" x1="135.4167" x2="222.9167" y1="223.112" y2="223.112"/><line style="stroke:#5E5E5E;stroke-width:1.0416666666666667;" x1="135.4167" x2="222.9167" y1="231.4453" y2="231.4453"/><!--MD5=[b8e621df06fbdab0ec6b31f800b11415]
class WithName--><rect codeLine="19" fill="#282828" height="103.123" id="WithName" rx="8.3333" ry="8.3333" style="stroke:#5E5E5E;stroke-width:1.0416666666666667;" width="134.375" x="260.9375" y="164.1195"/><rect fill="#1B1B1A" height="31.3883" rx="8.3333" ry="8.3333" style="stroke:#1B1B1A;stroke-width:1.0416666666666667;" width="134.375" x="260.9375" y="164.1195"/><rect fill="#1B1B1A" height="8.3333" style="stroke:#1B1B1A;stroke-width:1.0416666666666667;" width="134.375" x="260.9375" y="187.1745"/><rect codeLine="19" fill="none" height="103.123" id="WithName" rx="8.3333" ry="8.3333" style="stroke:#5E5E5E;stroke-width:1.0416666666666667;" width="134.375" x="260.9375" y="164.1195"/><ellipse cx="281.1458" cy="179.8136" fill="#0066CF" rx="10.4167" ry="10.4167" style="stroke:#0086EF;stroke-width:1.0416666666666667;"/><path d="M283.0562,184.2387 Q282.629,184.4584 282.159,184.5683 Q281.689,184.6781 281.1702,184.6781 Q279.327,184.6781 278.3565,183.4635 Q277.3861,182.2489 277.3861,179.954 Q277.3861,177.653 278.3565,176.4384 Q279.327,175.2238 281.1702,175.2238 Q281.689,175.2238 282.1651,175.3337 Q282.6412,175.4435 283.0562,175.6632 L283.0562,177.6652 Q282.5924,177.238 282.156,177.0396 Q281.7196,176.8412 281.2557,176.8412 Q280.2669,176.8412 279.7634,177.6255 Q279.2598,178.4098 279.2598,179.954 Q279.2598,181.4921 279.7634,182.2764 Q280.2669,183.0607 281.2557,183.0607 Q281.7196,183.0607 282.156,182.8623 Q282.5924,182.664 283.0562,182.2367 Z " fill="#000000"/><text fill="#D8BC00" font-family="Open Sans,Avenir,Nunito,Arial,Helvetica,SansSerif" font-size="12.5" font-weight="bold" lengthAdjust="spacing" textLength="65.625" x="299.0625" y="184.5378">WithName</text><rect fill="#333333" height="23.055" style="stroke:#A0A0A0;stroke-width:1.0416666666666667;stroke-dasharray:2.0,2.0;" width="16.6667" x="381.7708" y="160.9945"/><text fill="#A0A0A0" font-family="Open Sans,Avenir,Nunito,Arial,Helvetica,SansSerif" font-size="12.5" font-weight="bold" lengthAdjust="spacing" textLength="8.3333" x="385.9375" y="177.2461">T</text><line style="stroke:#5E5E5E;stroke-width:1.5625;" x1="261.9792" x2="394.2708" y1="195.5078" y2="195.5078"/><ellipse cx="272.3958" cy="230.8777" fill="#84BE84" rx="3.125" ry="3.125" style="stroke:#038048;stroke-width:1.0416666666666667;"/><text fill="#D8BC00" font-family="Open Sans,Avenir,Nunito,Arial,Helvetica,SansSerif" font-size="11.4583" lengthAdjust="spacing" textLength="102.0833" x="283.8542" y="237.7889">WithName(Named)</text><ellipse cx="272.3958" cy="250.6226" fill="#84BE84" rx="3.125" ry="3.125" style="stroke:#038048;stroke-width:1.0416666666666667;"/><text fill="#D8BC00" font-family="Open Sans,Avenir,Nunito,Arial,Helvetica,SansSerif" font-size="11.4583" lengthAdjust="spacing" textLength="96.875" x="283.8542" y="257.5338">WithName(String)</text><line style="stroke:#5E5E5E;stroke-width:1.0416666666666667;" x1="261.9792" x2="284.375" y1="213.7136" y2="213.7136"/><text fill="#D8BC00" font-family="Open Sans,Avenir,Nunito,Arial,Helvetica,SansSerif" font-size="11.4583" lengthAdjust="spacing" textLength="81.25" x="287.5" y="217.5232">(constructors)</text><line style="stroke:#5E5E5E;stroke-width:1.0416666666666667;" x1="371.875" x2="394.2708" y1="213.7136" y2="213.7136"/><!--MD5=[bc51708e43843168d5fa5271a1d239c4]
class WithNameMatching--><rect codeLine="27" fill="#282828" height="83.3781" id="WithNameMatching" rx="8.3333" ry="8.3333" style="stroke:#5E5E5E;stroke-width:1.0416666666666667;" width="186.4583" x="431.7708" y="174.0153"/><rect fill="#1B1B1A" height="31.3883" rx="8.3333" ry="8.3333" style="stroke:#1B1B1A;stroke-width:1.0416666666666667;" width="186.4583" x="431.7708" y="174.0153"/><rect fill="#1B1B1A" height="8.3333" style="stroke:#1B1B1A;stroke-width:1.0416666666666667;" width="186.4583" x="431.7708" y="197.0703"/><rect codeLine="27" fill="none" height="83.3781" id="WithNameMatching" rx="8.3333" ry="8.3333" style="stroke:#5E5E5E;stroke-width:1.0416666666666667;" width="186.4583" x="431.7708" y="174.0153"/><ellipse cx="448.6979" cy="189.7095" fill="#0066CF" rx="10.4167" ry="10.4167" style="stroke:#0086EF;stroke-width:1.0416666666666667;"/><path d="M450.6083,194.1345 Q450.1811,194.3542 449.7111,194.4641 Q449.2411,194.574 448.7223,194.574 Q446.8791,194.574 445.9086,193.3594 Q444.9382,192.1448 444.9382,189.8499 Q444.9382,187.5488 445.9086,186.3342 Q446.8791,185.1196 448.7223,185.1196 Q449.2411,185.1196 449.7172,185.2295 Q450.1933,185.3394 450.6083,185.5591 L450.6083,187.561 Q450.1444,187.1338 449.708,186.9354 Q449.2716,186.7371 448.8078,186.7371 Q447.819,186.7371 447.3155,187.5214 Q446.8119,188.3057 446.8119,189.8499 Q446.8119,191.3879 447.3155,192.1722 Q447.819,192.9565 448.8078,192.9565 Q449.2716,192.9565 449.708,192.7582 Q450.1444,192.5598 450.6083,192.1326 Z " fill="#000000"/><text fill="#D8BC00" font-family="Open Sans,Avenir,Nunito,Arial,Helvetica,SansSerif" font-size="12.5" font-weight="bold" lengthAdjust="spacing" textLength="125" x="465.8854" y="194.4336">WithNameMatching</text><rect fill="#333333" height="23.055" style="stroke:#A0A0A0;stroke-width:1.0416666666666667;stroke-dasharray:2.0,2.0;" width="16.6667" x="604.6875" y="170.8903"/><text fill="#A0A0A0" font-family="Open Sans,Avenir,Nunito,Arial,Helvetica,SansSerif" font-size="12.5" font-weight="bold" lengthAdjust="spacing" textLength="8.3333" x="608.8542" y="187.1419">T</text><line style="stroke:#5E5E5E;stroke-width:1.5625;" x1="432.8125" x2="617.1875" y1="205.4036" y2="205.4036"/><ellipse cx="443.2292" cy="240.7735" fill="#84BE84" rx="3.125" ry="3.125" style="stroke:#038048;stroke-width:1.0416666666666667;"/><text fill="#D8BC00" font-family="Open Sans,Avenir,Nunito,Arial,Helvetica,SansSerif" font-size="11.4583" lengthAdjust="spacing" textLength="154.1667" x="454.6875" y="247.6847">WithNameMatching(Pattern)</text><line style="stroke:#5E5E5E;stroke-width:1.0416666666666667;" x1="432.8125" x2="481.25" y1="223.6094" y2="223.6094"/><text fill="#D8BC00" font-family="Open Sans,Avenir,Nunito,Arial,Helvetica,SansSerif" font-size="11.4583" lengthAdjust="spacing" textLength="81.25" x="484.375" y="227.419">(constructors)</text><line style="stroke:#5E5E5E;stroke-width:1.0416666666666667;" x1="568.75" x2="617.1875" y1="223.6094" y2="223.6094"/><!--MD5=[70ea007b94ae3059cde65572544a39c8]
reverse link Matcher to All--><path codeLine="8" d="M193.7188,112.3174 C168.8854,127.1924 140.1667,145.5257 115.625,164.1195 C104.6458,172.4424 93.3021,182.5257 83.7604,191.4945 " fill="none" id="Matcher-backto-All" style="stroke:#545454;stroke-width:1.5625;"/><polygon fill="none" points="190.1563,105.9528,211.8125,101.6611,197.5625,118.5153,190.1563,105.9528" style="stroke:#545454;stroke-width:1.5625;"/><!--MD5=[97f44cfedd2650693ddbdacbed774180]
reverse link Matcher to None--><path codeLine="13" d="M230.4792,120.3174 C217.7604,143.7028 202.3646,172.0049 191.7708,191.4632 " fill="none" id="Matcher-backto-None" style="stroke:#545454;stroke-width:1.5625;"/><polygon fill="none" points="224.2188,116.5778,240.5833,101.7653,237.0313,123.5465,224.2188,116.5778" style="stroke:#545454;stroke-width:1.5625;"/><!--MD5=[311b0a7d69805b3ca7d11a33c8aa75c4]
reverse link Matcher to WithName--><path codeLine="18" d="M276.1354,120.4111 C283.7396,134.2028 292.2917,149.6924 300.2188,164.0674 " fill="none" id="Matcher-backto-WithName" style="stroke:#545454;stroke-width:1.5625;"/><polygon fill="none" points="269.5313,123.5257,265.8438,101.7653,282.2917,116.484,269.5313,123.5257" style="stroke:#545454;stroke-width:1.5625;"/><!--MD5=[ebd883058e01ce0505d4edc659d7d951]
reverse link Matcher to WithNameMatching--><path codeLine="26" d="M316.1771,110.234 C354.1354,129.2028 402.8438,153.5674 443.6771,173.9736 " fill="none" id="Matcher-backto-WithNameMatching" style="stroke:#545454;stroke-width:1.5625;"/><polygon fill="none" points="312.7813,116.682,297.4167,100.8486,319.3021,103.6403,312.7813,116.682" style="stroke:#545454;stroke-width:1.5625;"/><!--MD5=[4c50cd6b8b1a0b12a461a934e6f354cb]
@startuml

    !include ../lexakai.theme
    
    title "com.telenav.kivakit.core.kernel.language.matching.matchers"
    
    interface Matcher
    
    Matcher <|- - All
    class All<T>
    {
    }
    
    Matcher <|- - None
    class None<T>
    {
    }
    
    Matcher <|- - WithName
    class WithName<T>
    {
        - -(constructors)- -
        +WithName(Named)
        +WithName(String)
    }
    
    Matcher <|- - WithNameMatching
    class WithNameMatching<T>
    {
        - -(constructors)- -
        +WithNameMatching(Pattern)
    }
    
@enduml

@startuml









skinparam backgroundColor #333333






skinparam  {
    defaultFontName   "Open Sans,Avenir,Nunito,Arial,Helvetica,SansSerif"
    defaultFontSize   12
    defaultTextAlignment left
    shadowing false
    RoundCorner 10
    TitleFontSize 18
}

skinparam defaultFontName       "Open Sans,Avenir,Nunito,Arial,Helvetica,SansSerif"
skinparam defaultFontSize       12
skinparam dpi                   100
skinparam shadowing             false
skinparam roundcorner           16
skinparam ParticipantPadding    40
skinparam BoxPadding            40
skinparam Padding               3
skinparam ArrowColor            #545454
skinparam stereotype {
    CBackgroundColor #0066cf
    CBorderColor #0086ef
    ABackgroundColor #C8Ac00
    ABorderColor #D8Bc00
    IBackgroundColor #008400
    IBorderColor #239c23
    EBackgroundColor #cf6300
    EBorderColor #ef8300
    NBackgroundColor #3380b9
    NBorderColor #004d86
}
skinparam title {
	FontColor	                 #c0c0c0
 	BorderColor                  #545454
	FontSize	    	         20
	BorderRoundCorner            16
	BorderThickness 	         1
	BackgroundColor              #48494b
}


skinparam legend {
	BackgroundColor #303030
	BorderColor #404040
	FontColor #a0a0a0
}

	skinparam swimlane {
	BorderColor #5e5e5e
	BorderThickness 2
	TitleBackgroundColor  #6d6d6d-#484848
	TitleFontColor #303030
}

skinparam activity {
		FontColor #C8Ac00
	BorderColor #333333
	BackgroundColor #333333-#333333
	BarColor #00FF00
	StartColor #0060a8
	EndColor #0060a8
	DiamondBackgroundColor #6d6d6d-#3a3a3a
  	DiamondBorderColor #3a3a3a
  	DiamondFontColor #fefefe
}


skinparam participant {
		FontColor #C8Ac00
	BorderColor #333333
	BackgroundColor #333333-#333333
	ParticipantBorderThickness 2
}


skinparam actor {
		FontColor #C8Ac00
	BorderColor #333333
	BackgroundColor #333333-#333333
}


skinparam arrow {
	Thickness 1.5
	Color #545454
	FontColor #a0a0a0
    FontStyle bold
    MessageAlignment center
}



skinparam sequence {
	BorderColor #303030
	TitleFontColor #303030
	BackgroundColor #333333
	StartColor #303030
	EndColor #303030
	BoxBackgroundColor #333333
	BoxBorderColor #484848
	BoxFontColor #484848
	LifeLineBorderColor #484848
	LifeLineBorderThickness 2
	LifeLineBackgroundColor #3a3a3a
	GroupBorderColor #484848
	GroupFontColor #484848
	GroupHeaderFontColor #0060a8
	GroupBackgroundColor #484848
	GroupHeaderBackgroundColor #333333
	DividerBackgroundColor #484848
    DividerBorderColor #484848
    DividerBorderThickness 2
    DividerFontColor #D8Bc00
	ReferenceBackgroundColor #333333
	ReferenceBorderColor #484848
	ReferenceFontColor #fefefe
	ReferenceHeaderBackgroundColor #484848
}


skinparam partition {
	BorderColor #303030
	FontColor #333333
	BackgroundColor #333333
}


skinparam collections {
		FontColor #C8Ac00
	BorderColor #333333
	BackgroundColor #333333-#333333
}


skinparam control {
		FontColor #C8Ac00
	BorderColor #333333
	BackgroundColor #333333-#333333
}


skinparam entity {
		FontColor #C8Ac00
	BorderColor #333333
	BackgroundColor #333333-#333333
}


skinparam boundary {
		FontColor #C8Ac00
	BorderColor #333333
	BackgroundColor #333333-#333333
}


skinparam agent {
	BackgroundColor #ff8000
	BorderColor #ff9933
	FontColor #484848
}


skinparam note {
	BorderThickness 1
	BackgroundColor #1b1b1a
	BorderColor #5e5e5e
	FontSize 11
	FontColor #a0a0a0
}


skinparam artifact {
	BorderThickness 10
	BorderColor #5e5e5e
	BackgroundColor #1b1b1a
	FontColor #D8Bc00
}


skinparam component {
		FontColor #C8Ac00
	BorderColor #333333
	BackgroundColor #333333-#333333
}


skinparam interface {
	BackgroundColor  #008400
	BorderColor  #007F00
	FontColor #484848
}


skinparam storage {
	BackgroundColor #ff8000
  	BorderColor #cc6600
	FontColor #222222
}


skinparam node {
	BackgroundColor #333333
	BorderColor #333333
	FontColor #C8Ac00
}


skinparam cloud {
	BackgroundColor #484848-black
	BorderColor #484848
	FontColor #D8Bc00
}


skinparam database {
		FontColor #C8Ac00
	BorderColor #333333
	BackgroundColor #333333-#333333
	BackgroundColor  #333333
}


skinparam class {
		FontColor #C8Ac00
	BorderColor #333333
	BackgroundColor #333333-#333333
	HeaderBackgroundColor #1b1b1a
    BackgroundColor #282828
    BorderColor #5e5e5e
 	StereotypeFontColor #a0a0a0
    StereotypeFontStyle bold
	BorderThickness 1
	AttributeFontColor #D8Bc00
	AttributeFontSize 11
    FontColor #D8Bc00
    FontStyle bold
}


skinparam object {
		FontColor #C8Ac00
	BorderColor #333333
	BackgroundColor #333333-#333333
	StereotypeFontColor #484848
	BorderThickness 1
	AttributeFontColor #fefefe
	AttributeFontSize 11
}


skinparam usecase {
		FontColor #C8Ac00
	BorderColor #333333
	BackgroundColor #333333-#333333
	BorderThickness 2
	StereotypeFontColor #303030
}


skinparam rectangle {
		FontColor #C8Ac00
	BorderColor #333333
	BackgroundColor #333333-#333333
	BackgroundColor #333333
	BorderThickness 2
	StereotypeFontColor #303030
}


skinparam package {
		FontColor #C8Ac00
	BorderColor #333333
	BackgroundColor #333333-#333333
	BackgroundColor #333333
	BorderThickness 2
}


skinparam folder {
	BackgroundColor #6d6d6d
  	BorderColor #ff8000
	FontColor #ff8000
	BorderThickness 2
}


skinparam frame {
	BackgroundColor #6d6d6d
  	BorderColor #0060a8
	FontColor #0060a8
	BorderThickness 2
}


skinparam state {
		FontColor #C8Ac00
	BorderColor #333333
	BackgroundColor #333333-#333333
	StartColor #0060a8
	EndColor #0060a8
	AttributeFontColor #fefefe
	AttributeFontSize 11
}


skinparam queue {
		FontColor #C8Ac00
	BorderColor #333333
	BackgroundColor #333333-#333333
}


skinparam card {
	BackgroundColor #0060a8
	BorderColor #004d86
	FontColor $INFO_TEXT
}


skinparam file {
	BackgroundColor #6d6d6d-#484848
	BorderColor #0060a8
	FontColor #fefefe
}


skinparam stack {
		FontColor #C8Ac00
	BorderColor #333333
	BackgroundColor #333333-#333333
}

    
    title "com.telenav.kivakit.core.kernel.language.matching.matchers"
    
    interface Matcher
    
    Matcher <|- - All
    class All<T>
    {
    }
    
    Matcher <|- - None
    class None<T>
    {
    }
    
    Matcher <|- - WithName
    class WithName<T>
    {
        - -(constructors)- -
        +WithName(Named)
        +WithName(String)
    }
    
    Matcher <|- - WithNameMatching
    class WithNameMatching<T>
    {
        - -(constructors)- -
        +WithNameMatching(Pattern)
    }
    
@enduml

PlantUML version 1.2021.01(Tue Feb 02 00:55:08 MST 2021)
(GPL source distribution)
Java Runtime: Java(TM) SE Runtime Environment
JVM: Java HotSpot(TM) 64-Bit Server VM
Default Encoding: UTF-8
Language: en
Country: US
--></g></svg>