<?xml version="1.0" encoding="UTF-8" standalone="no"?><svg xmlns="http://www.w3.org/2000/svg" xmlns:xlink="http://www.w3.org/1999/xlink" contentScriptType="application/ecmascript" contentStyleType="text/css" height="282.2917px" preserveAspectRatio="none" style="width:646px;height:282px;background:#333333;" version="1.1" viewBox="0 0 646 282" width="646.875px" zoomAndPan="magnify"><defs/><g><rect fill="#48494B" height="41.2028" rx="8.3333" ry="8.3333" style="stroke:#545454;stroke-width:1.0416666666666667;" width="634.375" x="2.0833" y="2.0833"/><text fill="#C0C0C0" font-family="Open Sans,Avenir,Nunito,Arial,Helvetica,SansSerif" font-size="20.8333" lengthAdjust="spacing" textLength="611.4583" x="13.5417" y="30.5583">com.telenav.kivakit.core.kernel.language.reflection.populator</text><!--MD5=[6c396e6253fb519361827a1b125510f1]
class KivaKitPropertyConverter--><rect codeLine="6" fill="#282828" height="48.055" id="KivaKitPropertyConverter" rx="8.3333" ry="8.3333" style="stroke:#5E5E5E;stroke-width:1.0416666666666667;" width="202.0833" x="154.4271" y="53.7028"/><rect fill="#1B1B1A" height="31.3883" rx="8.3333" ry="8.3333" style="stroke:#1B1B1A;stroke-width:1.0416666666666667;" width="202.0833" x="154.4271" y="53.7028"/><rect fill="#1B1B1A" height="8.3333" style="stroke:#1B1B1A;stroke-width:1.0416666666666667;" width="202.0833" x="154.4271" y="76.7578"/><rect codeLine="6" fill="none" height="48.055" id="KivaKitPropertyConverter" rx="8.3333" ry="8.3333" style="stroke:#5E5E5E;stroke-width:1.0416666666666667;" width="202.0833" x="154.4271" y="53.7028"/><ellipse cx="169.0104" cy="69.397" fill="#3380B9" rx="10.4167" ry="10.4167" style="stroke:#004D86;stroke-width:1.0416666666666667;"/><path d="M170.2616,69.7164 Q170.2616,69.0267 169.9504,68.6361 Q169.6391,68.2454 169.0959,68.2454 Q168.5527,68.2454 168.2444,68.6361 Q167.9362,69.0267 167.9362,69.7164 Q167.9362,70.4122 168.2444,70.8028 Q168.5527,71.1934 169.0959,71.1934 Q169.6391,71.1934 169.9504,70.8028 Q170.2616,70.4122 170.2616,69.7164 Z M171.3969,72.2188 L170.2006,72.2188 L170.2006,71.7183 Q169.9687,72.0418 169.6543,72.1914 Q169.34,72.3409 168.9006,72.3409 Q167.8996,72.3409 167.2862,71.6207 Q166.6728,70.9005 166.6728,69.7164 Q166.6728,68.5384 167.2831,67.8212 Q167.8935,67.1041 168.9006,67.1041 Q169.3339,67.1041 169.6635,67.2536 Q169.9931,67.4032 170.2006,67.69 L170.2006,67.4398 Q170.2006,66.6097 169.7459,66.158 Q169.2912,65.7064 168.4489,65.7064 Q167.1794,65.7064 166.3767,66.8233 Q165.5741,67.9403 165.5741,69.7286 Q165.5741,71.6024 166.5019,72.7102 Q167.4296,73.818 168.9738,73.818 Q169.4621,73.818 169.9198,73.6745 Q170.3776,73.5311 170.7987,73.2442 L171.3603,74.3184 Q170.8659,74.6541 170.283,74.822 Q169.7001,74.9898 169.0348,74.9898 Q166.8986,74.9898 165.6291,73.5677 Q164.3595,72.1456 164.3595,69.7286 Q164.3595,67.3665 165.5009,65.9475 Q166.6423,64.5284 168.5221,64.5284 Q169.8527,64.5284 170.6248,65.331 Q171.3969,66.1336 171.3969,67.5191 Z " fill="#000000"/><text fill="#D8BC00" font-family="Open Sans,Avenir,Nunito,Arial,Helvetica,SansSerif" font-size="12.5" font-weight="bold" lengthAdjust="spacing" textLength="164.5833" x="185.6771" y="74.1211">KivaKitPropertyConverter</text><line style="stroke:#5E5E5E;stroke-width:1.0416666666666667;" x1="155.4688" x2="355.4688" y1="85.0911" y2="85.0911"/><line style="stroke:#5E5E5E;stroke-width:1.0416666666666667;" x1="155.4688" x2="355.4688" y1="93.4245" y2="93.4245"/><!--MD5=[6aa1f0c430d64a96818afa260443fb91]
class KivaKitPropertyOptional--><rect codeLine="8" fill="#282828" height="48.055" id="KivaKitPropertyOptional" rx="8.3333" ry="8.3333" style="stroke:#5E5E5E;stroke-width:1.0416666666666667;" width="194.7917" x="393.4896" y="53.7028"/><rect fill="#1B1B1A" height="31.3883" rx="8.3333" ry="8.3333" style="stroke:#1B1B1A;stroke-width:1.0416666666666667;" width="194.7917" x="393.4896" y="53.7028"/><rect fill="#1B1B1A" height="8.3333" style="stroke:#1B1B1A;stroke-width:1.0416666666666667;" width="194.7917" x="393.4896" y="76.7578"/><rect codeLine="8" fill="none" height="48.055" id="KivaKitPropertyOptional" rx="8.3333" ry="8.3333" style="stroke:#5E5E5E;stroke-width:1.0416666666666667;" width="194.7917" x="393.4896" y="53.7028"/><ellipse cx="408.0729" cy="69.397" fill="#3380B9" rx="10.4167" ry="10.4167" style="stroke:#004D86;stroke-width:1.0416666666666667;"/><path d="M409.3241,69.7164 Q409.3241,69.0267 409.0129,68.6361 Q408.7016,68.2454 408.1584,68.2454 Q407.6152,68.2454 407.3069,68.6361 Q406.9987,69.0267 406.9987,69.7164 Q406.9987,70.4122 407.3069,70.8028 Q407.6152,71.1934 408.1584,71.1934 Q408.7016,71.1934 409.0129,70.8028 Q409.3241,70.4122 409.3241,69.7164 Z M410.4594,72.2188 L409.2631,72.2188 L409.2631,71.7183 Q409.0312,72.0418 408.7168,72.1914 Q408.4025,72.3409 407.9631,72.3409 Q406.9621,72.3409 406.3487,71.6207 Q405.7353,70.9005 405.7353,69.7164 Q405.7353,68.5384 406.3456,67.8212 Q406.956,67.1041 407.9631,67.1041 Q408.3964,67.1041 408.726,67.2536 Q409.0556,67.4032 409.2631,67.69 L409.2631,67.4398 Q409.2631,66.6097 408.8084,66.158 Q408.3537,65.7064 407.5114,65.7064 Q406.2419,65.7064 405.4392,66.8233 Q404.6366,67.9403 404.6366,69.7286 Q404.6366,71.6024 405.5644,72.7102 Q406.4921,73.818 408.0363,73.818 Q408.5246,73.818 408.9823,73.6745 Q409.4401,73.5311 409.8612,73.2442 L410.4228,74.3184 Q409.9284,74.6541 409.3455,74.822 Q408.7626,74.9898 408.0973,74.9898 Q405.9611,74.9898 404.6916,73.5677 Q403.422,72.1456 403.422,69.7286 Q403.422,67.3665 404.5634,65.9475 Q405.7048,64.5284 407.5846,64.5284 Q408.9152,64.5284 409.6873,65.331 Q410.4594,66.1336 410.4594,67.5191 Z " fill="#000000"/><text fill="#D8BC00" font-family="Open Sans,Avenir,Nunito,Arial,Helvetica,SansSerif" font-size="12.5" font-weight="bold" lengthAdjust="spacing" textLength="157.2917" x="424.7396" y="74.1211">KivaKitPropertyOptional</text><line style="stroke:#5E5E5E;stroke-width:1.0416666666666667;" x1="394.5313" x2="587.2396" y1="85.0911" y2="85.0911"/><line style="stroke:#5E5E5E;stroke-width:1.0416666666666667;" x1="394.5313" x2="587.2396" y1="93.4245" y2="93.4245"/><!--MD5=[a41c7a71ec1e77d6e5dd041281c68324]
class ObjectPopulator--><rect codeLine="10" fill="#282828" height="111.4563" id="ObjectPopulator" rx="8.3333" ry="8.3333" style="stroke:#5E5E5E;stroke-width:1.0416666666666667;" width="381.25" x="64.8438" y="164.1195"/><rect fill="#1B1B1A" height="31.3883" rx="8.3333" ry="8.3333" style="stroke:#1B1B1A;stroke-width:1.0416666666666667;" width="381.25" x="64.8438" y="164.1195"/><rect fill="#1B1B1A" height="8.3333" style="stroke:#1B1B1A;stroke-width:1.0416666666666667;" width="381.25" x="64.8438" y="187.1745"/><rect codeLine="10" fill="none" height="111.4563" id="ObjectPopulator" rx="8.3333" ry="8.3333" style="stroke:#5E5E5E;stroke-width:1.0416666666666667;" width="381.25" x="64.8438" y="164.1195"/><ellipse cx="196.0938" cy="179.8136" fill="#0066CF" rx="10.4167" ry="10.4167" style="stroke:#0086EF;stroke-width:1.0416666666666667;"/><path d="M198.0042,184.2387 Q197.5769,184.4584 197.1069,184.5683 Q196.637,184.6781 196.1182,184.6781 Q194.2749,184.6781 193.3044,183.4635 Q192.334,182.2489 192.334,179.954 Q192.334,177.653 193.3044,176.4384 Q194.2749,175.2238 196.1182,175.2238 Q196.637,175.2238 197.113,175.3337 Q197.5891,175.4435 198.0042,175.6632 L198.0042,177.6652 Q197.5403,177.238 197.1039,177.0396 Q196.6675,176.8412 196.2036,176.8412 Q195.2148,176.8412 194.7113,177.6255 Q194.2078,178.4098 194.2078,179.954 Q194.2078,181.4921 194.7113,182.2764 Q195.2148,183.0607 196.2036,183.0607 Q196.6675,183.0607 197.1039,182.8623 Q197.5403,182.664 198.0042,182.2367 Z " fill="#000000"/><text fill="#D8BC00" font-family="Open Sans,Avenir,Nunito,Arial,Helvetica,SansSerif" font-size="12.5" font-weight="bold" lengthAdjust="spacing" textLength="104.1667" x="219.0104" y="184.5378">ObjectPopulator</text><line style="stroke:#5E5E5E;stroke-width:1.5625;" x1="65.8854" x2="445.0521" y1="195.5078" y2="195.5078"/><ellipse cx="76.3021" cy="230.8777" fill="#84BE84" rx="3.125" ry="3.125" style="stroke:#038048;stroke-width:1.0416666666666667;"/><text fill="#D8BC00" font-family="Open Sans,Avenir,Nunito,Arial,Helvetica,SansSerif" font-size="11.4583" lengthAdjust="spacing" textLength="348.9583" x="87.7604" y="237.7889">ObjectPopulator(Listener, PropertyFilter, PropertyValueSource)</text><line style="stroke:#5E5E5E;stroke-width:1.0416666666666667;" x1="65.8854" x2="211.7188" y1="213.7136" y2="213.7136"/><text fill="#D8BC00" font-family="Open Sans,Avenir,Nunito,Arial,Helvetica,SansSerif" font-size="11.4583" lengthAdjust="spacing" textLength="81.25" x="214.8438" y="217.5232">(constructors)</text><line style="stroke:#5E5E5E;stroke-width:1.0416666666666667;" x1="299.2188" x2="445.0521" y1="213.7136" y2="213.7136"/><line style="stroke:#5E5E5E;stroke-width:1.0416666666666667;" x1="65.8854" x2="445.0521" y1="247.4976" y2="247.4976"/><ellipse cx="76.3021" cy="258.9559" fill="#84BE84" rx="3.125" ry="3.125" style="stroke:#038048;stroke-width:1.0416666666666667;"/><text fill="#D8BC00" font-family="Open Sans,Avenir,Nunito,Arial,Helvetica,SansSerif" font-size="11.4583" lengthAdjust="spacing" textLength="112.5" x="87.7604" y="265.8671">T populate(T object)</text><!--MD5=[13baef925f5b5cdd56786c4855134697]
link KivaKitPropertyConverter to KivaKitPropertyOptional--><!--MD5=[11496ab7bb443ba54ca59f90fb3f7b68]
link KivaKitPropertyConverter to ObjectPopulator--><!--MD5=[b64c1c0d18ed293dbf532d38a9d83cc5]
@startuml

    !include ../lexakai/lexakai.theme
    
    title "com.telenav.kivakit.core.kernel.language.reflection.populator"
    
    annotation KivaKitPropertyConverter
    
    annotation KivaKitPropertyOptional
    
    class ObjectPopulator
    {
        - -(constructors)- -
        +ObjectPopulator(Listener, PropertyFilter, PropertyValueSource)
        - -
        +T populate(T object)
    }
    
@enduml

@startuml









skinparam backgroundColor #333333






skinparam  {
    defaultFontName   "Open Sans,Avenir,Nunito,Arial,Helvetica,SansSerif"
    defaultFontSize   12
    defaultTextAlignment left
    shadowing false
    RoundCorner 10
    TitleFontSize 18
}

skinparam defaultFontName       "Open Sans,Avenir,Nunito,Arial,Helvetica,SansSerif"
skinparam defaultFontSize       12
skinparam dpi                   100
skinparam shadowing             false
skinparam roundcorner           16
skinparam ParticipantPadding    40
skinparam BoxPadding            40
skinparam Padding               3
skinparam ArrowColor            #545454
skinparam stereotype {
    CBackgroundColor #0066cf
    CBorderColor #0086ef
    ABackgroundColor #C8Ac00
    ABorderColor #D8Bc00
    IBackgroundColor #008400
    IBorderColor #239c23
    EBackgroundColor #cf6300
    EBorderColor #ef8300
    NBackgroundColor #3380b9
    NBorderColor #004d86
}
skinparam title {
	FontColor	                 #c0c0c0
 	BorderColor                  #545454
	FontSize	    	         20
	BorderRoundCorner            16
	BorderThickness 	         1
	BackgroundColor              #48494b
}


skinparam legend {
	BackgroundColor #303030
	BorderColor #404040
	FontColor #a0a0a0
}

	skinparam swimlane {
	BorderColor #5e5e5e
	BorderThickness 2
	TitleBackgroundColor  #6d6d6d-#484848
	TitleFontColor #303030
}

skinparam activity {
		FontColor #C8Ac00
	BorderColor #333333
	BackgroundColor #333333-#333333
	BarColor #00FF00
	StartColor #0060a8
	EndColor #0060a8
	DiamondBackgroundColor #6d6d6d-#3a3a3a
  	DiamondBorderColor #3a3a3a
  	DiamondFontColor #fefefe
}


skinparam participant {
		FontColor #C8Ac00
	BorderColor #333333
	BackgroundColor #333333-#333333
	ParticipantBorderThickness 2
}


skinparam actor {
		FontColor #C8Ac00
	BorderColor #333333
	BackgroundColor #333333-#333333
}


skinparam arrow {
	Thickness 1.5
	Color #545454
	FontColor #a0a0a0
    FontStyle bold
    MessageAlignment center
}



skinparam sequence {
	BorderColor #303030
	TitleFontColor #303030
	BackgroundColor #333333
	StartColor #303030
	EndColor #303030
	BoxBackgroundColor #333333
	BoxBorderColor #484848
	BoxFontColor #484848
	LifeLineBorderColor #484848
	LifeLineBorderThickness 2
	LifeLineBackgroundColor #3a3a3a
	GroupBorderColor #484848
	GroupFontColor #484848
	GroupHeaderFontColor #0060a8
	GroupBackgroundColor #484848
	GroupHeaderBackgroundColor #333333
	DividerBackgroundColor #484848
    DividerBorderColor #484848
    DividerBorderThickness 2
    DividerFontColor #D8Bc00
	ReferenceBackgroundColor #333333
	ReferenceBorderColor #484848
	ReferenceFontColor #fefefe
	ReferenceHeaderBackgroundColor #484848
}


skinparam partition {
	BorderColor #303030
	FontColor #333333
	BackgroundColor #333333
}


skinparam collections {
		FontColor #C8Ac00
	BorderColor #333333
	BackgroundColor #333333-#333333
}


skinparam control {
		FontColor #C8Ac00
	BorderColor #333333
	BackgroundColor #333333-#333333
}


skinparam entity {
		FontColor #C8Ac00
	BorderColor #333333
	BackgroundColor #333333-#333333
}


skinparam boundary {
		FontColor #C8Ac00
	BorderColor #333333
	BackgroundColor #333333-#333333
}


skinparam agent {
	BackgroundColor #ff8000
	BorderColor #ff9933
	FontColor #484848
}


skinparam note {
	BorderThickness 1
	BackgroundColor #1b1b1a
	BorderColor #5e5e5e
	FontSize 11
	FontColor #a0a0a0
}


skinparam artifact {
	BorderThickness 10
	BorderColor #5e5e5e
	BackgroundColor #1b1b1a
	FontColor #D8Bc00
}


skinparam component {
		FontColor #C8Ac00
	BorderColor #333333
	BackgroundColor #333333-#333333
}


skinparam interface {
	BackgroundColor  #008400
	BorderColor  #007F00
	FontColor #484848
}


skinparam storage {
	BackgroundColor #ff8000
  	BorderColor #cc6600
	FontColor #222222
}


skinparam node {
	BackgroundColor #333333
	BorderColor #333333
	FontColor #C8Ac00
}


skinparam cloud {
	BackgroundColor #484848-black
	BorderColor #484848
	FontColor #D8Bc00
}


skinparam database {
		FontColor #C8Ac00
	BorderColor #333333
	BackgroundColor #333333-#333333
	BackgroundColor  #333333
}


skinparam class {
		FontColor #C8Ac00
	BorderColor #333333
	BackgroundColor #333333-#333333
	HeaderBackgroundColor #1b1b1a
    BackgroundColor #282828
    BorderColor #5e5e5e
 	StereotypeFontColor #a0a0a0
    StereotypeFontStyle bold
	BorderThickness 1
	AttributeFontColor #D8Bc00
	AttributeFontSize 11
    FontColor #D8Bc00
    FontStyle bold
}


skinparam object {
		FontColor #C8Ac00
	BorderColor #333333
	BackgroundColor #333333-#333333
	StereotypeFontColor #484848
	BorderThickness 1
	AttributeFontColor #fefefe
	AttributeFontSize 11
}


skinparam usecase {
		FontColor #C8Ac00
	BorderColor #333333
	BackgroundColor #333333-#333333
	BorderThickness 2
	StereotypeFontColor #303030
}


skinparam rectangle {
		FontColor #C8Ac00
	BorderColor #333333
	BackgroundColor #333333-#333333
	BackgroundColor #333333
	BorderThickness 2
	StereotypeFontColor #303030
}


skinparam package {
		FontColor #C8Ac00
	BorderColor #333333
	BackgroundColor #333333-#333333
	BackgroundColor #333333
	BorderThickness 2
}


skinparam folder {
	BackgroundColor #6d6d6d
  	BorderColor #ff8000
	FontColor #ff8000
	BorderThickness 2
}


skinparam frame {
	BackgroundColor #6d6d6d
  	BorderColor #0060a8
	FontColor #0060a8
	BorderThickness 2
}


skinparam state {
		FontColor #C8Ac00
	BorderColor #333333
	BackgroundColor #333333-#333333
	StartColor #0060a8
	EndColor #0060a8
	AttributeFontColor #fefefe
	AttributeFontSize 11
}


skinparam queue {
		FontColor #C8Ac00
	BorderColor #333333
	BackgroundColor #333333-#333333
}


skinparam card {
	BackgroundColor #0060a8
	BorderColor #004d86
	FontColor $INFO_TEXT
}


skinparam file {
	BackgroundColor #6d6d6d-#484848
	BorderColor #0060a8
	FontColor #fefefe
}


skinparam stack {
		FontColor #C8Ac00
	BorderColor #333333
	BackgroundColor #333333-#333333
}

    
    title "com.telenav.kivakit.core.kernel.language.reflection.populator"
    
    annotation KivaKitPropertyConverter
    
    annotation KivaKitPropertyOptional
    
    class ObjectPopulator
    {
        - -(constructors)- -
        +ObjectPopulator(Listener, PropertyFilter, PropertyValueSource)
        - -
        +T populate(T object)
    }
    
@enduml

PlantUML version 1.2021.01(Tue Feb 02 00:55:08 MST 2021)
(GPL source distribution)
Java Runtime: Java(TM) SE Runtime Environment
JVM: Java HotSpot(TM) 64-Bit Server VM
Default Encoding: UTF-8
Language: en
Country: US
--></g></svg>