<?xml version="1.0" encoding="UTF-8" standalone="no"?><svg xmlns="http://www.w3.org/2000/svg" xmlns:xlink="http://www.w3.org/1999/xlink" contentScriptType="application/ecmascript" contentStyleType="text/css" height="760.4167px" preserveAspectRatio="none" style="width:507px;height:760px;background:#333333;" version="1.1" viewBox="0 0 507 760" width="507.2917px" zoomAndPan="magnify"><defs/><g><rect fill="#48494B" height="41.2028" rx="8.3333" ry="8.3333" style="stroke:#545454;stroke-width:1.0416666666666667;" width="494.7917" x="2.0833" y="2.0833"/><text fill="#C0C0C0" font-family="Open Sans,Avenir,Nunito,Arial,Helvetica,SansSerif" font-size="20.8333" lengthAdjust="spacing" textLength="471.875" x="13.5417" y="30.5583">com.telenav.kivakit.core.kernel.logging.loggers</text><!--MD5=[2652a7063cf2b975f2bcd35ff108e6d3]
class BaseLogger--><rect codeLine="11" fill="#282828" height="146.7794" id="BaseLogger" rx="8.3333" ry="8.3333" style="stroke:#5E5E5E;stroke-width:1.0416666666666667;" width="218.75" x="47.9167" y="165.1611"/><rect fill="#1B1B1A" height="31.3883" rx="8.3333" ry="8.3333" style="stroke:#1B1B1A;stroke-width:1.0416666666666667;" width="218.75" x="47.9167" y="165.1611"/><rect fill="#1B1B1A" height="8.3333" style="stroke:#1B1B1A;stroke-width:1.0416666666666667;" width="218.75" x="47.9167" y="188.2161"/><rect codeLine="11" fill="none" height="146.7794" id="BaseLogger" rx="8.3333" ry="8.3333" style="stroke:#5E5E5E;stroke-width:1.0416666666666667;" width="218.75" x="47.9167" y="165.1611"/><ellipse cx="112.5" cy="180.8553" fill="#C8AC00" rx="10.4167" ry="10.4167" style="stroke:#D8BC00;stroke-width:1.0416666666666667;"/><path d="M112.6139,177.5574 L111.7655,181.2866 L113.4684,181.2866 Z M111.5153,175.9094 L113.7187,175.9094 L116.1784,185.022 L114.3778,185.022 L113.8163,182.7698 L111.4054,182.7698 L110.8561,185.022 L109.0556,185.022 Z " fill="#000000"/><text fill="#D8BC00" font-family="Open Sans,Avenir,Nunito,Arial,Helvetica,SansSerif" font-size="12.5" font-style="italic" font-weight="bold" lengthAdjust="spacing" textLength="75" x="135.4167" y="185.5794">BaseLogger</text><line style="stroke:#5E5E5E;stroke-width:1.5625;" x1="48.9583" x2="265.625" y1="196.5495" y2="196.5495"/><polygon fill="#FFFF44" points="59.375,226.711,63.5417,230.8777,59.375,235.0444,55.2083,230.8777" style="stroke:#B38D22;stroke-width:1.0416666666666667;"/><text fill="#D8BC00" font-family="Open Sans,Avenir,Nunito,Arial,Helvetica,SansSerif" font-size="11.4583" lengthAdjust="spacing" textLength="72.9167" x="70.8333" y="238.8306">BaseLogger()</text><polygon fill="#FFFF44" points="59.375,246.4559,63.5417,250.6226,59.375,254.7892,55.2083,250.6226" style="stroke:#B38D22;stroke-width:1.0416666666666667;"/><text fill="#D8BC00" font-family="Open Sans,Avenir,Nunito,Arial,Helvetica,SansSerif" font-size="11.4583" lengthAdjust="spacing" textLength="186.4583" x="70.8333" y="258.5754">BaseLogger(LoggerCodeContext)</text><line style="stroke:#5E5E5E;stroke-width:1.0416666666666667;" x1="48.9583" x2="113.5417" y1="214.7552" y2="214.7552"/><text fill="#D8BC00" font-family="Open Sans,Avenir,Nunito,Arial,Helvetica,SansSerif" font-size="11.4583" lengthAdjust="spacing" textLength="81.25" x="116.6667" y="218.5649">(constructors)</text><line style="stroke:#5E5E5E;stroke-width:1.0416666666666667;" x1="201.0417" x2="265.625" y1="214.7552" y2="214.7552"/><polygon fill="#FFFF44" points="59.375,290.1123,63.5417,294.279,59.375,298.4456,55.2083,294.279" style="stroke:#B38D22;stroke-width:1.0416666666666667;"/><text fill="#D8BC00" font-family="Open Sans,Avenir,Nunito,Arial,Helvetica,SansSerif" font-size="11.4583" lengthAdjust="spacing" textLength="142.7083" x="70.8333" y="302.2319">boolean accept(LogEntry)</text><line style="stroke:#5E5E5E;stroke-width:1.0416666666666667;" x1="48.9583" x2="128.125" y1="278.1565" y2="278.1565"/><text fill="#D8BC00" font-family="Open Sans,Avenir,Nunito,Arial,Helvetica,SansSerif" font-size="11.4583" lengthAdjust="spacing" textLength="52.0833" x="131.25" y="281.9661">(filtering)</text><line style="stroke:#5E5E5E;stroke-width:1.0416666666666667;" x1="186.4583" x2="265.625" y1="278.1565" y2="278.1565"/><!--MD5=[248f897e4bb16c2722904b15df30346f]
class Logger--><rect codeLine="8" fill="#282828" height="48.055" id="Logger" rx="8.3333" ry="8.3333" style="stroke:#5E5E5E;stroke-width:1.0416666666666667;" width="82.2917" x="216.1458" y="53.7028"/><rect fill="#1B1B1A" height="31.3883" rx="8.3333" ry="8.3333" style="stroke:#1B1B1A;stroke-width:1.0416666666666667;" width="82.2917" x="216.1458" y="53.7028"/><rect fill="#1B1B1A" height="8.3333" style="stroke:#1B1B1A;stroke-width:1.0416666666666667;" width="82.2917" x="216.1458" y="76.7578"/><rect codeLine="8" fill="none" height="48.055" id="Logger" rx="8.3333" ry="8.3333" style="stroke:#5E5E5E;stroke-width:1.0416666666666667;" width="82.2917" x="216.1458" y="53.7028"/><ellipse cx="230.7292" cy="69.397" fill="#008400" rx="10.4167" ry="10.4167" style="stroke:#239C23;stroke-width:1.0416666666666667;"/><path d="M227.6123,66.5588 L227.6123,64.9719 L233.0383,64.9719 L233.0383,66.5588 L231.2256,66.5588 L231.2256,72.4976 L233.0383,72.4976 L233.0383,74.0845 L227.6123,74.0845 L227.6123,72.4976 L229.425,72.4976 L229.425,66.5588 Z " fill="#000000"/><text fill="#D8BC00" font-family="Open Sans,Avenir,Nunito,Arial,Helvetica,SansSerif" font-size="12.5" font-style="italic" font-weight="bold" lengthAdjust="spacing" textLength="44.7917" x="247.3958" y="74.1211">Logger</text><line style="stroke:#5E5E5E;stroke-width:1.0416666666666667;" x1="217.1875" x2="297.3958" y1="85.0911" y2="85.0911"/><line style="stroke:#5E5E5E;stroke-width:1.0416666666666667;" x1="217.1875" x2="297.3958" y1="93.4245" y2="93.4245"/><!--MD5=[ef6e0fb57396685d3eab884a2ccd12ec]
class ConsoleLogger--><rect codeLine="21" fill="#282828" height="48.055" id="ConsoleLogger" rx="8.3333" ry="8.3333" style="stroke:#5E5E5E;stroke-width:1.0416666666666667;" width="135.4167" x="68.75" y="375.5778"/><rect fill="#1B1B1A" height="31.3883" rx="8.3333" ry="8.3333" style="stroke:#1B1B1A;stroke-width:1.0416666666666667;" width="135.4167" x="68.75" y="375.5778"/><rect fill="#1B1B1A" height="8.3333" style="stroke:#1B1B1A;stroke-width:1.0416666666666667;" width="135.4167" x="68.75" y="398.6328"/><rect codeLine="21" fill="none" height="48.055" id="ConsoleLogger" rx="8.3333" ry="8.3333" style="stroke:#5E5E5E;stroke-width:1.0416666666666667;" width="135.4167" x="68.75" y="375.5778"/><ellipse cx="83.3333" cy="391.272" fill="#0066CF" rx="10.4167" ry="10.4167" style="stroke:#0086EF;stroke-width:1.0416666666666667;"/><path d="M85.2437,395.697 Q84.8165,395.9167 84.3465,396.0266 Q83.8765,396.1365 83.3577,396.1365 Q81.5145,396.1365 80.544,394.9219 Q79.5736,393.7073 79.5736,391.4124 Q79.5736,389.1113 80.544,387.8967 Q81.5145,386.6821 83.3577,386.6821 Q83.8765,386.6821 84.3526,386.792 Q84.8287,386.9019 85.2437,387.1216 L85.2437,389.1235 Q84.7799,388.6963 84.3435,388.4979 Q83.9071,388.2996 83.4432,388.2996 Q82.4544,388.2996 81.9509,389.0839 Q81.4473,389.8682 81.4473,391.4124 Q81.4473,392.9504 81.9509,393.7347 Q82.4544,394.519 83.4432,394.519 Q83.9071,394.519 84.3435,394.3207 Q84.7799,394.1223 85.2437,393.6951 Z " fill="#000000"/><text fill="#D8BC00" font-family="Open Sans,Avenir,Nunito,Arial,Helvetica,SansSerif" font-size="12.5" font-weight="bold" lengthAdjust="spacing" textLength="97.9167" x="100" y="395.9961">ConsoleLogger</text><line style="stroke:#5E5E5E;stroke-width:1.0416666666666667;" x1="69.7917" x2="203.125" y1="406.9661" y2="406.9661"/><line style="stroke:#5E5E5E;stroke-width:1.0416666666666667;" x1="69.7917" x2="203.125" y1="415.2995" y2="415.2995"/><!--MD5=[7c4d51c624b98e3e16e743b59576832b]
class LogServiceLoader--><rect codeLine="26" fill="#282828" height="111.4563" id="LogServiceLoader" rx="8.3333" ry="8.3333" style="stroke:#5E5E5E;stroke-width:1.0416666666666667;" width="150" x="77.0833" y="508.9111"/><rect fill="#1B1B1A" height="31.3883" rx="8.3333" ry="8.3333" style="stroke:#1B1B1A;stroke-width:1.0416666666666667;" width="150" x="77.0833" y="508.9111"/><rect fill="#1B1B1A" height="8.3333" style="stroke:#1B1B1A;stroke-width:1.0416666666666667;" width="150" x="77.0833" y="531.9661"/><rect codeLine="26" fill="none" height="111.4563" id="LogServiceLoader" rx="8.3333" ry="8.3333" style="stroke:#5E5E5E;stroke-width:1.0416666666666667;" width="150" x="77.0833" y="508.9111"/><ellipse cx="91.6667" cy="524.6053" fill="#0066CF" rx="10.4167" ry="10.4167" style="stroke:#0086EF;stroke-width:1.0416666666666667;"/><path d="M93.5771,529.0304 Q93.1498,529.2501 92.6799,529.3599 Q92.2099,529.4698 91.6911,529.4698 Q89.8478,529.4698 88.8774,528.2552 Q87.9069,527.0406 87.9069,524.7457 Q87.9069,522.4447 88.8774,521.2301 Q89.8478,520.0155 91.6911,520.0155 Q92.2099,520.0155 92.686,520.1253 Q93.162,520.2352 93.5771,520.4549 L93.5771,522.4569 Q93.1132,522.0296 92.6768,521.8313 Q92.2404,521.6329 91.7765,521.6329 Q90.7878,521.6329 90.2842,522.4172 Q89.7807,523.2015 89.7807,524.7457 Q89.7807,526.2838 90.2842,527.0681 Q90.7878,527.8524 91.7765,527.8524 Q92.2404,527.8524 92.6768,527.654 Q93.1132,527.4556 93.5771,527.0284 Z " fill="#000000"/><text fill="#D8BC00" font-family="Open Sans,Avenir,Nunito,Arial,Helvetica,SansSerif" font-size="12.5" font-weight="bold" lengthAdjust="spacing" textLength="112.5" x="108.3333" y="529.3294">LogServiceLoader</text><line style="stroke:#5E5E5E;stroke-width:1.5625;" x1="78.125" x2="226.0417" y1="540.2995" y2="540.2995"/><line style="stroke:#5E5E5E;stroke-width:1.0416666666666667;" x1="78.125" x2="226.0417" y1="548.6328" y2="548.6328"/><ellipse cx="88.5417" cy="560.0911" fill="#84BE84" rx="3.125" ry="3.125" style="stroke:#038048;stroke-width:1.0416666666666667;"/><text fill="#D8BC00" font-family="Open Sans,Avenir,Nunito,Arial,Helvetica,SansSerif" font-size="11.4583" lengthAdjust="spacing" textLength="116.6667" x="100" y="567.0024">Log log(String name)</text><ellipse cx="88.5417" cy="603.7476" fill="#84BE84" rx="3.125" ry="3.125" style="stroke:#038048;stroke-width:1.0416666666666667;"/><text fill="#D8BC00" font-family="Open Sans,Avenir,Nunito,Arial,Helvetica,SansSerif" font-size="11.4583" lengthAdjust="spacing" textLength="94.7917" x="100" y="610.6588">List&lt;Log&gt; logs()</text><line style="stroke:#5E5E5E;stroke-width:1.0416666666666667;" x1="78.125" x2="117.7083" y1="586.5835" y2="586.5835"/><text fill="#D8BC00" font-family="Open Sans,Avenir,Nunito,Arial,Helvetica,SansSerif" font-size="11.4583" lengthAdjust="spacing" textLength="62.5" x="120.8333" y="590.3931">(collection)</text><line style="stroke:#5E5E5E;stroke-width:1.0416666666666667;" x1="186.4583" x2="226.0417" y1="586.5835" y2="586.5835"/><!--MD5=[063d74e43144aaa0d0cf3aecd3794497]
class Log--><rect fill="#282828" height="48.055" id="Log" rx="8.3333" ry="8.3333" style="stroke:#5E5E5E;stroke-width:1.0416666666666667;" width="61.4583" x="285.9375" y="705.7861"/><rect fill="#1B1B1A" height="31.3883" rx="8.3333" ry="8.3333" style="stroke:#1B1B1A;stroke-width:1.0416666666666667;" width="61.4583" x="285.9375" y="705.7861"/><rect fill="#1B1B1A" height="8.3333" style="stroke:#1B1B1A;stroke-width:1.0416666666666667;" width="61.4583" x="285.9375" y="728.8411"/><rect fill="none" height="48.055" id="Log" rx="8.3333" ry="8.3333" style="stroke:#5E5E5E;stroke-width:1.0416666666666667;" width="61.4583" x="285.9375" y="705.7861"/><ellipse cx="300.5208" cy="721.4803" fill="#0066CF" rx="10.4167" ry="10.4167" style="stroke:#0086EF;stroke-width:1.0416666666666667;"/><path d="M302.4312,725.9054 Q302.004,726.1251 301.534,726.2349 Q301.064,726.3448 300.5452,726.3448 Q298.702,726.3448 297.7315,725.1302 Q296.7611,723.9156 296.7611,721.6207 Q296.7611,719.3197 297.7315,718.1051 Q298.702,716.8905 300.5452,716.8905 Q301.064,716.8905 301.5401,717.0003 Q302.0162,717.1102 302.4312,717.3299 L302.4312,719.3319 Q301.9674,718.9046 301.531,718.7063 Q301.0946,718.5079 300.6307,718.5079 Q299.6419,718.5079 299.1384,719.2922 Q298.6348,720.0765 298.6348,721.6207 Q298.6348,723.1588 299.1384,723.9431 Q299.6419,724.7274 300.6307,724.7274 Q301.0946,724.7274 301.531,724.529 Q301.9674,724.3306 302.4312,723.9034 Z " fill="#000000"/><text fill="#D8BC00" font-family="Open Sans,Avenir,Nunito,Arial,Helvetica,SansSerif" font-size="12.5" font-weight="bold" lengthAdjust="spacing" textLength="23.9583" x="317.1875" y="726.2044">Log</text><line style="stroke:#5E5E5E;stroke-width:1.0416666666666667;" x1="286.9792" x2="346.3542" y1="737.1745" y2="737.1745"/><line style="stroke:#5E5E5E;stroke-width:1.0416666666666667;" x1="286.9792" x2="346.3542" y1="745.5078" y2="745.5078"/><!--MD5=[6086e4cf6e4856eade5e7aa4cc298946]
class LogServiceLogger--><rect codeLine="38" fill="#282828" height="48.055" id="LogServiceLogger" rx="8.3333" ry="8.3333" style="stroke:#5E5E5E;stroke-width:1.0416666666666667;" width="151.0417" x="241.1458" y="375.5778"/><rect fill="#1B1B1A" height="31.3883" rx="8.3333" ry="8.3333" style="stroke:#1B1B1A;stroke-width:1.0416666666666667;" width="151.0417" x="241.1458" y="375.5778"/><rect fill="#1B1B1A" height="8.3333" style="stroke:#1B1B1A;stroke-width:1.0416666666666667;" width="151.0417" x="241.1458" y="398.6328"/><rect codeLine="38" fill="none" height="48.055" id="LogServiceLogger" rx="8.3333" ry="8.3333" style="stroke:#5E5E5E;stroke-width:1.0416666666666667;" width="151.0417" x="241.1458" y="375.5778"/><ellipse cx="255.7292" cy="391.272" fill="#0066CF" rx="10.4167" ry="10.4167" style="stroke:#0086EF;stroke-width:1.0416666666666667;"/><path d="M257.6396,395.697 Q257.2123,395.9167 256.7424,396.0266 Q256.2724,396.1365 255.7536,396.1365 Q253.9103,396.1365 252.9399,394.9219 Q251.9694,393.7073 251.9694,391.4124 Q251.9694,389.1113 252.9399,387.8967 Q253.9103,386.6821 255.7536,386.6821 Q256.2724,386.6821 256.7485,386.792 Q257.2245,386.9019 257.6396,387.1216 L257.6396,389.1235 Q257.1757,388.6963 256.7393,388.4979 Q256.3029,388.2996 255.839,388.2996 Q254.8503,388.2996 254.3467,389.0839 Q253.8432,389.8682 253.8432,391.4124 Q253.8432,392.9504 254.3467,393.7347 Q254.8503,394.519 255.839,394.519 Q256.3029,394.519 256.7393,394.3207 Q257.1757,394.1223 257.6396,393.6951 Z " fill="#000000"/><text fill="#D8BC00" font-family="Open Sans,Avenir,Nunito,Arial,Helvetica,SansSerif" font-size="12.5" font-weight="bold" lengthAdjust="spacing" textLength="113.5417" x="272.3958" y="395.9961">LogServiceLogger</text><line style="stroke:#5E5E5E;stroke-width:1.0416666666666667;" x1="242.1875" x2="391.1458" y1="406.9661" y2="406.9661"/><line style="stroke:#5E5E5E;stroke-width:1.0416666666666667;" x1="242.1875" x2="391.1458" y1="415.2995" y2="415.2995"/><!--MD5=[6d091dd268f348c4587d9b05d81b1e7f]
class NullLogger--><rect codeLine="43" fill="#282828" height="48.055" id="NullLogger" rx="8.3333" ry="8.3333" style="stroke:#5E5E5E;stroke-width:1.0416666666666667;" width="108.3333" x="303.125" y="214.6403"/><rect fill="#1B1B1A" height="31.3883" rx="8.3333" ry="8.3333" style="stroke:#1B1B1A;stroke-width:1.0416666666666667;" width="108.3333" x="303.125" y="214.6403"/><rect fill="#1B1B1A" height="8.3333" style="stroke:#1B1B1A;stroke-width:1.0416666666666667;" width="108.3333" x="303.125" y="237.6953"/><rect codeLine="43" fill="none" height="48.055" id="NullLogger" rx="8.3333" ry="8.3333" style="stroke:#5E5E5E;stroke-width:1.0416666666666667;" width="108.3333" x="303.125" y="214.6403"/><ellipse cx="317.7083" cy="230.3345" fill="#0066CF" rx="10.4167" ry="10.4167" style="stroke:#0086EF;stroke-width:1.0416666666666667;"/><path d="M319.6187,234.7595 Q319.1915,234.9792 318.7215,235.0891 Q318.2515,235.199 317.7327,235.199 Q315.8895,235.199 314.919,233.9844 Q313.9486,232.7698 313.9486,230.4749 Q313.9486,228.1738 314.919,226.9592 Q315.8895,225.7446 317.7327,225.7446 Q318.2515,225.7446 318.7276,225.8545 Q319.2037,225.9644 319.6187,226.1841 L319.6187,228.186 Q319.1549,227.7588 318.7185,227.5604 Q318.2821,227.3621 317.8182,227.3621 Q316.8294,227.3621 316.3259,228.1464 Q315.8223,228.9307 315.8223,230.4749 Q315.8223,232.0129 316.3259,232.7972 Q316.8294,233.5815 317.8182,233.5815 Q318.2821,233.5815 318.7185,233.3832 Q319.1549,233.1848 319.6187,232.7576 Z " fill="#000000"/><text fill="#D8BC00" font-family="Open Sans,Avenir,Nunito,Arial,Helvetica,SansSerif" font-size="12.5" font-weight="bold" lengthAdjust="spacing" textLength="70.8333" x="334.375" y="235.0586">NullLogger</text><line style="stroke:#5E5E5E;stroke-width:1.0416666666666667;" x1="304.1667" x2="410.4167" y1="246.0286" y2="246.0286"/><line style="stroke:#5E5E5E;stroke-width:1.0416666666666667;" x1="304.1667" x2="410.4167" y1="254.362" y2="254.362"/><!--MD5=[621480f11f0b21c82c5c9d8a79fcdb28]
reverse link Logger to BaseLogger--><path codeLine="10" d="M231.4792,119.7028 C222.8021,133.4945 212.8333,149.3278 203.0833,164.8174 " fill="none" id="Logger-backto-BaseLogger" style="stroke:#545454;stroke-width:1.5625;"/><polygon fill="none" points="225.4792,115.5465,242.75,101.7965,237.8229,123.3174,225.4792,115.5465" style="stroke:#545454;stroke-width:1.5625;"/><!--MD5=[032a905d65e65ebf6e88a415be6a229f]
reverse link BaseLogger to ConsoleLogger--><path codeLine="20" d="M145.0729,332.7757 C143,348.6299 141.0208,363.7445 139.4792,375.4632 " fill="none" id="BaseLogger-backto-ConsoleLogger" style="stroke:#545454;stroke-width:1.5625;"/><polygon fill="none" points="137.8542,331.807,147.7917,312.0986,152.3125,333.7028,137.8542,331.807" style="stroke:#545454;stroke-width:1.5625;"/><!--MD5=[7c387c765ccb71d9653a3656cf8ee728]
reverse link LogServiceLoader to Log--><path codeLine="25" d="M204.6771,631.2132 C217.5833,646.0049 231.75,661.2445 245.8333,674.5361 C258.2188,686.2236 273.0417,697.8695 285.9167,707.3486 " fill="none" id="LogServiceLoader-backto-Log" style="stroke:#545454;stroke-width:1.5625;"/><polygon fill="#333333" points="195.5208,620.557,196.4292,628.0134,203.6614,630.0428,202.7531,622.5864,195.5208,620.557" style="stroke:#545454;stroke-width:1.5625;"/><text fill="#A0A0A0" font-family="Open Sans,Avenir,Nunito,Arial,Helvetica,SansSerif" font-size="12.5" font-weight="bold" lengthAdjust="spacing" textLength="35.4167" x="250" y="667.8711">loads</text><text fill="#A0A0A0" font-family="Open Sans,Avenir,Nunito,Arial,Helvetica,SansSerif" font-size="12.5" font-weight="bold" lengthAdjust="spacing" textLength="8.3333" x="188.4678" y="643.8599">1</text><text fill="#A0A0A0" font-family="Open Sans,Avenir,Nunito,Arial,Helvetica,SansSerif" font-size="12.5" font-weight="bold" lengthAdjust="spacing" textLength="6.25" x="268.4479" y="694.5475">*</text><!--MD5=[a28ba319d556455dbdaf0337143ad0e8]
reverse link BaseLogger to LogServiceLogger--><path codeLine="34" d="M244.8333,326.8903 C262.8646,344.8695 280.3542,362.2965 293.5625,375.4632 " fill="none" id="BaseLogger-backto-LogServiceLogger" style="stroke:#545454;stroke-width:1.5625;"/><polygon fill="none" points="239.5938,331.9632,229.9792,312.0986,249.8854,321.6403,239.5938,331.9632" style="stroke:#545454;stroke-width:1.5625;"/><!--MD5=[223d5134cc0576df8b16b0cc5d0bd53a]
link LogServiceLogger to Log--><path codeLine="35" d="M316.6667,423.6507 C316.6667,482.1299 316.6667,636.057 316.6667,700.109 " fill="none" id="LogServiceLogger-to-Log" style="stroke:#545454;stroke-width:1.5625;"/><polygon fill="#545454" points="316.6667,705.6507,320.8333,696.2757,316.6667,700.4424,312.5,696.2757,316.6667,705.6507" style="stroke:#545454;stroke-width:1.5625;"/><text fill="#A0A0A0" font-family="Open Sans,Avenir,Nunito,Arial,Helvetica,SansSerif" font-size="12.5" font-weight="bold" lengthAdjust="spacing" textLength="68.75" x="320.8333" y="569.4336">configures</text><!--MD5=[1b511bc8ae1bc324b3643e1b2cd0db08]
reverse link LogServiceLogger to Log--><path codeLine="37" d="M352.3333,433.5465 C371.0521,453.3382 392.125,480.2028 402.0833,508.9111 C418.3125,555.7132 418.3125,573.5674 402.0833,620.3695 C390.3854,654.0882 363.375,685.2549 342.8333,705.4215 " fill="none" id="LogServiceLogger-backto-Log" style="stroke:#545454;stroke-width:1.5625;"/><polygon fill="#333333" points="342.8333,423.859,344.2435,431.2371,351.5963,432.7731,350.1862,425.3951,342.8333,423.859" style="stroke:#545454;stroke-width:1.5625;"/><text fill="#A0A0A0" font-family="Open Sans,Avenir,Nunito,Arial,Helvetica,SansSerif" font-size="12.5" font-weight="bold" lengthAdjust="spacing" textLength="45.8333" x="417.7083" y="569.4336">logs to</text><text fill="#A0A0A0" font-family="Open Sans,Avenir,Nunito,Arial,Helvetica,SansSerif" font-size="12.5" font-weight="bold" lengthAdjust="spacing" textLength="8.3333" x="335.7398" y="447.1025">1</text><text fill="#A0A0A0" font-family="Open Sans,Avenir,Nunito,Arial,Helvetica,SansSerif" font-size="12.5" font-weight="bold" lengthAdjust="spacing" textLength="6.25" x="338.0641" y="691.7646">*</text><!--MD5=[97fd443045d490326039b2d0cbea011a]
link LogServiceLogger to LogServiceLoader--><path codeLine="36" d="M241.1354,420.557 C191.7813,433.9736 135.8229,450.0153 132.2917,454.7445 C121.8646,468.682 121.2917,486.3903 124.9167,503.4528 " fill="none" id="LogServiceLogger-to-LogServiceLoader" style="stroke:#545454;stroke-width:1.5625;"/><polygon fill="#545454" points="126.1667,508.7236,128.0819,498.6448,124.9771,503.653,119.9689,500.5481,126.1667,508.7236" style="stroke:#545454;stroke-width:1.5625;"/><text fill="#A0A0A0" font-family="Open Sans,Avenir,Nunito,Arial,Helvetica,SansSerif" font-size="12.5" font-weight="bold" lengthAdjust="spacing" textLength="148.9583" x="136.4583" y="470.9961">loads log services with</text><!--MD5=[75b41164bae3d87f099cdcab2e938d9c]
reverse link Logger to NullLogger--><path codeLine="42" d="M282.9792,119.5049 C301.9479,149.6507 327.1042,189.5986 342.7292,214.432 " fill="none" id="Logger-backto-NullLogger" style="stroke:#545454;stroke-width:1.5625;"/><polygon fill="none" points="276.7604,123.3174,271.8333,101.7965,289.1042,115.5465,276.7604,123.3174" style="stroke:#545454;stroke-width:1.5625;"/><!--MD5=[b29b3653db0ca504fe3c9b668e99ce83]
@startuml

    !include ../lexakai/lexakai.theme
    
    title "com.telenav.kivakit.core.kernel.logging.loggers"
    
    abstract BaseLogger
    
    interface Logger
    
    Logger <|- - BaseLogger
    abstract class BaseLogger
    {
        - -(constructors)- -
        #BaseLogger()
        #BaseLogger(LoggerCodeContext)
        - -(filtering)- -
        #boolean accept(LogEntry)
    }
    
    BaseLogger <|- - ConsoleLogger
    class ConsoleLogger
    {
    }
    
    LogServiceLoader "1" o- - "*" Log : "loads"
    class LogServiceLoader
    {
        - -
        +Log log(String name)
        - -(collection)- -
        +List<Log> logs()
    }
    
    BaseLogger <|- - LogServiceLogger
    LogServiceLogger - -> Log : "configures"
    LogServiceLogger - -> LogServiceLoader : "loads log services with"
    LogServiceLogger "1" o- - "*" Log : "logs to"
    class LogServiceLogger
    {
    }
    
    Logger <|- - NullLogger
    class NullLogger
    {
    }
    
@enduml

@startuml









skinparam backgroundColor #333333






skinparam  {
    defaultFontName   "Open Sans,Avenir,Nunito,Arial,Helvetica,SansSerif"
    defaultFontSize   12
    defaultTextAlignment left
    shadowing false
    RoundCorner 10
    TitleFontSize 18
}

skinparam defaultFontName       "Open Sans,Avenir,Nunito,Arial,Helvetica,SansSerif"
skinparam defaultFontSize       12
skinparam dpi                   100
skinparam shadowing             false
skinparam roundcorner           16
skinparam ParticipantPadding    40
skinparam BoxPadding            40
skinparam Padding               3
skinparam ArrowColor            #545454
skinparam stereotype {
    CBackgroundColor #0066cf
    CBorderColor #0086ef
    ABackgroundColor #C8Ac00
    ABorderColor #D8Bc00
    IBackgroundColor #008400
    IBorderColor #239c23
    EBackgroundColor #cf6300
    EBorderColor #ef8300
    NBackgroundColor #3380b9
    NBorderColor #004d86
}
skinparam title {
	FontColor	                 #c0c0c0
 	BorderColor                  #545454
	FontSize	    	         20
	BorderRoundCorner            16
	BorderThickness 	         1
	BackgroundColor              #48494b
}


skinparam legend {
	BackgroundColor #303030
	BorderColor #404040
	FontColor #a0a0a0
}

	skinparam swimlane {
	BorderColor #5e5e5e
	BorderThickness 2
	TitleBackgroundColor  #6d6d6d-#484848
	TitleFontColor #303030
}

skinparam activity {
		FontColor #C8Ac00
	BorderColor #333333
	BackgroundColor #333333-#333333
	BarColor #00FF00
	StartColor #0060a8
	EndColor #0060a8
	DiamondBackgroundColor #6d6d6d-#3a3a3a
  	DiamondBorderColor #3a3a3a
  	DiamondFontColor #fefefe
}


skinparam participant {
		FontColor #C8Ac00
	BorderColor #333333
	BackgroundColor #333333-#333333
	ParticipantBorderThickness 2
}


skinparam actor {
		FontColor #C8Ac00
	BorderColor #333333
	BackgroundColor #333333-#333333
}


skinparam arrow {
	Thickness 1.5
	Color #545454
	FontColor #a0a0a0
    FontStyle bold
    MessageAlignment center
}



skinparam sequence {
	BorderColor #303030
	TitleFontColor #303030
	BackgroundColor #333333
	StartColor #303030
	EndColor #303030
	BoxBackgroundColor #333333
	BoxBorderColor #484848
	BoxFontColor #484848
	LifeLineBorderColor #484848
	LifeLineBorderThickness 2
	LifeLineBackgroundColor #3a3a3a
	GroupBorderColor #484848
	GroupFontColor #484848
	GroupHeaderFontColor #0060a8
	GroupBackgroundColor #484848
	GroupHeaderBackgroundColor #333333
	DividerBackgroundColor #484848
    DividerBorderColor #484848
    DividerBorderThickness 2
    DividerFontColor #D8Bc00
	ReferenceBackgroundColor #333333
	ReferenceBorderColor #484848
	ReferenceFontColor #fefefe
	ReferenceHeaderBackgroundColor #484848
}


skinparam partition {
	BorderColor #303030
	FontColor #333333
	BackgroundColor #333333
}


skinparam collections {
		FontColor #C8Ac00
	BorderColor #333333
	BackgroundColor #333333-#333333
}


skinparam control {
		FontColor #C8Ac00
	BorderColor #333333
	BackgroundColor #333333-#333333
}


skinparam entity {
		FontColor #C8Ac00
	BorderColor #333333
	BackgroundColor #333333-#333333
}


skinparam boundary {
		FontColor #C8Ac00
	BorderColor #333333
	BackgroundColor #333333-#333333
}


skinparam agent {
	BackgroundColor #ff8000
	BorderColor #ff9933
	FontColor #484848
}


skinparam note {
	BorderThickness 1
	BackgroundColor #1b1b1a
	BorderColor #5e5e5e
	FontSize 11
	FontColor #a0a0a0
}


skinparam artifact {
	BorderThickness 10
	BorderColor #5e5e5e
	BackgroundColor #1b1b1a
	FontColor #D8Bc00
}


skinparam component {
		FontColor #C8Ac00
	BorderColor #333333
	BackgroundColor #333333-#333333
}


skinparam interface {
	BackgroundColor  #008400
	BorderColor  #007F00
	FontColor #484848
}


skinparam storage {
	BackgroundColor #ff8000
  	BorderColor #cc6600
	FontColor #222222
}


skinparam node {
	BackgroundColor #333333
	BorderColor #333333
	FontColor #C8Ac00
}


skinparam cloud {
	BackgroundColor #484848-black
	BorderColor #484848
	FontColor #D8Bc00
}


skinparam database {
		FontColor #C8Ac00
	BorderColor #333333
	BackgroundColor #333333-#333333
	BackgroundColor  #333333
}


skinparam class {
		FontColor #C8Ac00
	BorderColor #333333
	BackgroundColor #333333-#333333
	HeaderBackgroundColor #1b1b1a
    BackgroundColor #282828
    BorderColor #5e5e5e
 	StereotypeFontColor #a0a0a0
    StereotypeFontStyle bold
	BorderThickness 1
	AttributeFontColor #D8Bc00
	AttributeFontSize 11
    FontColor #D8Bc00
    FontStyle bold
}


skinparam object {
		FontColor #C8Ac00
	BorderColor #333333
	BackgroundColor #333333-#333333
	StereotypeFontColor #484848
	BorderThickness 1
	AttributeFontColor #fefefe
	AttributeFontSize 11
}


skinparam usecase {
		FontColor #C8Ac00
	BorderColor #333333
	BackgroundColor #333333-#333333
	BorderThickness 2
	StereotypeFontColor #303030
}


skinparam rectangle {
		FontColor #C8Ac00
	BorderColor #333333
	BackgroundColor #333333-#333333
	BackgroundColor #333333
	BorderThickness 2
	StereotypeFontColor #303030
}


skinparam package {
		FontColor #C8Ac00
	BorderColor #333333
	BackgroundColor #333333-#333333
	BackgroundColor #333333
	BorderThickness 2
}


skinparam folder {
	BackgroundColor #6d6d6d
  	BorderColor #ff8000
	FontColor #ff8000
	BorderThickness 2
}


skinparam frame {
	BackgroundColor #6d6d6d
  	BorderColor #0060a8
	FontColor #0060a8
	BorderThickness 2
}


skinparam state {
		FontColor #C8Ac00
	BorderColor #333333
	BackgroundColor #333333-#333333
	StartColor #0060a8
	EndColor #0060a8
	AttributeFontColor #fefefe
	AttributeFontSize 11
}


skinparam queue {
		FontColor #C8Ac00
	BorderColor #333333
	BackgroundColor #333333-#333333
}


skinparam card {
	BackgroundColor #0060a8
	BorderColor #004d86
	FontColor $INFO_TEXT
}


skinparam file {
	BackgroundColor #6d6d6d-#484848
	BorderColor #0060a8
	FontColor #fefefe
}


skinparam stack {
		FontColor #C8Ac00
	BorderColor #333333
	BackgroundColor #333333-#333333
}

    
    title "com.telenav.kivakit.core.kernel.logging.loggers"
    
    abstract BaseLogger
    
    interface Logger
    
    Logger <|- - BaseLogger
    abstract class BaseLogger
    {
        - -(constructors)- -
        #BaseLogger()
        #BaseLogger(LoggerCodeContext)
        - -(filtering)- -
        #boolean accept(LogEntry)
    }
    
    BaseLogger <|- - ConsoleLogger
    class ConsoleLogger
    {
    }
    
    LogServiceLoader "1" o- - "*" Log : "loads"
    class LogServiceLoader
    {
        - -
        +Log log(String name)
        - -(collection)- -
        +List<Log> logs()
    }
    
    BaseLogger <|- - LogServiceLogger
    LogServiceLogger - -> Log : "configures"
    LogServiceLogger - -> LogServiceLoader : "loads log services with"
    LogServiceLogger "1" o- - "*" Log : "logs to"
    class LogServiceLogger
    {
    }
    
    Logger <|- - NullLogger
    class NullLogger
    {
    }
    
@enduml

PlantUML version 1.2021.01(Tue Feb 02 00:55:08 MST 2021)
(GPL source distribution)
Java Runtime: Java(TM) SE Runtime Environment
JVM: Java HotSpot(TM) 64-Bit Server VM
Default Encoding: UTF-8
Language: en
Country: US
--></g></svg>