<?xml version="1.0" encoding="UTF-8" standalone="no"?><svg xmlns="http://www.w3.org/2000/svg" xmlns:xlink="http://www.w3.org/1999/xlink" contentScriptType="application/ecmascript" contentStyleType="text/css" height="297.9167px" preserveAspectRatio="none" style="width:814px;height:297px;background:#333333;" version="1.1" viewBox="0 0 814 297" width="814.5833px" zoomAndPan="magnify"><defs/><g><rect fill="#48494B" height="41.2028" rx="8.3333" ry="8.3333" style="stroke:#545454;stroke-width:1.0416666666666667;" width="234.375" x="283.0729" y="2.0833"/><text fill="#C0C0C0" font-family="Open Sans,Avenir,Nunito,Arial,Helvetica,SansSerif" font-size="20.8333" lengthAdjust="spacing" textLength="211.4583" x="294.5313" y="30.5583">Language - Matching</text><!--MD5=[9683906a80b916206b1aa3ef00ddbc12]
class BaseIterable--><rect codeLine="6" fill="#282828" height="48.055" id="BaseIterable" rx="8.3333" ry="8.3333" style="stroke:#5E5E5E;stroke-width:1.0416666666666667;" width="116.6667" x="32.2917" y="53.7028"/><rect fill="#1B1B1A" height="31.3883" rx="8.3333" ry="8.3333" style="stroke:#1B1B1A;stroke-width:1.0416666666666667;" width="116.6667" x="32.2917" y="53.7028"/><rect fill="#1B1B1A" height="8.3333" style="stroke:#1B1B1A;stroke-width:1.0416666666666667;" width="116.6667" x="32.2917" y="76.7578"/><rect codeLine="6" fill="none" height="48.055" id="BaseIterable" rx="8.3333" ry="8.3333" style="stroke:#5E5E5E;stroke-width:1.0416666666666667;" width="116.6667" x="32.2917" y="53.7028"/><ellipse cx="46.875" cy="69.397" fill="#C8AC00" rx="10.4167" ry="10.4167" style="stroke:#D8BC00;stroke-width:1.0416666666666667;"/><path d="M46.9889,66.099 L46.1405,69.8283 L47.8434,69.8283 Z M45.8903,64.4511 L48.0937,64.4511 L50.5534,73.5636 L48.7528,73.5636 L48.1913,71.3114 L45.7804,71.3114 L45.2311,73.5636 L43.4306,73.5636 Z " fill="#000000"/><text fill="#D8BC00" font-family="Open Sans,Avenir,Nunito,Arial,Helvetica,SansSerif" font-size="12.5" font-style="italic" font-weight="bold" lengthAdjust="spacing" textLength="79.1667" x="63.5417" y="74.1211">BaseIterable</text><line style="stroke:#5E5E5E;stroke-width:1.0416666666666667;" x1="33.3333" x2="147.9167" y1="85.0911" y2="85.0911"/><line style="stroke:#5E5E5E;stroke-width:1.0416666666666667;" x1="33.3333" x2="147.9167" y1="93.4245" y2="93.4245"/><!--MD5=[c249847c086044a14a4ecd1d09905030]
class Matcher--><rect codeLine="8" fill="#282828" height="48.055" id="Matcher" rx="8.3333" ry="8.3333" style="stroke:#5E5E5E;stroke-width:1.0416666666666667;" width="88.5417" x="394.2708" y="53.7028"/><rect fill="#1B1B1A" height="31.3883" rx="8.3333" ry="8.3333" style="stroke:#1B1B1A;stroke-width:1.0416666666666667;" width="88.5417" x="394.2708" y="53.7028"/><rect fill="#1B1B1A" height="8.3333" style="stroke:#1B1B1A;stroke-width:1.0416666666666667;" width="88.5417" x="394.2708" y="76.7578"/><rect codeLine="8" fill="none" height="48.055" id="Matcher" rx="8.3333" ry="8.3333" style="stroke:#5E5E5E;stroke-width:1.0416666666666667;" width="88.5417" x="394.2708" y="53.7028"/><ellipse cx="408.8542" cy="69.397" fill="#008400" rx="10.4167" ry="10.4167" style="stroke:#239C23;stroke-width:1.0416666666666667;"/><path d="M405.7373,66.5588 L405.7373,64.9719 L411.1633,64.9719 L411.1633,66.5588 L409.3506,66.5588 L409.3506,72.4976 L411.1633,72.4976 L411.1633,74.0845 L405.7373,74.0845 L405.7373,72.4976 L407.55,72.4976 L407.55,66.5588 Z " fill="#000000"/><text fill="#D8BC00" font-family="Open Sans,Avenir,Nunito,Arial,Helvetica,SansSerif" font-size="12.5" font-style="italic" font-weight="bold" lengthAdjust="spacing" textLength="51.0417" x="425.5208" y="74.1211">Matcher</text><line style="stroke:#5E5E5E;stroke-width:1.0416666666666667;" x1="395.3125" x2="481.7708" y1="85.0911" y2="85.0911"/><line style="stroke:#5E5E5E;stroke-width:1.0416666666666667;" x1="395.3125" x2="481.7708" y1="93.4245" y2="93.4245"/><!--MD5=[c4ad16297ce8289e7db10494c550b400]
class All--><rect codeLine="11" fill="#282828" height="48.055" id="All" rx="8.3333" ry="8.3333" style="stroke:#5E5E5E;stroke-width:1.0416666666666667;" width="73.9583" x="208.8542" y="203.7028"/><rect fill="#1B1B1A" height="31.3883" rx="8.3333" ry="8.3333" style="stroke:#1B1B1A;stroke-width:1.0416666666666667;" width="73.9583" x="208.8542" y="203.7028"/><rect fill="#1B1B1A" height="8.3333" style="stroke:#1B1B1A;stroke-width:1.0416666666666667;" width="73.9583" x="208.8542" y="226.7578"/><rect codeLine="11" fill="none" height="48.055" id="All" rx="8.3333" ry="8.3333" style="stroke:#5E5E5E;stroke-width:1.0416666666666667;" width="73.9583" x="208.8542" y="203.7028"/><ellipse cx="223.4375" cy="219.397" fill="#0066CF" rx="10.4167" ry="10.4167" style="stroke:#0086EF;stroke-width:1.0416666666666667;"/><path d="M225.3479,223.822 Q224.9207,224.0417 224.4507,224.1516 Q223.9807,224.2615 223.4619,224.2615 Q221.6187,224.2615 220.6482,223.0469 Q219.6777,221.8323 219.6777,219.5374 Q219.6777,217.2363 220.6482,216.0217 Q221.6187,214.8071 223.4619,214.8071 Q223.9807,214.8071 224.4568,214.917 Q224.9329,215.0269 225.3479,215.2466 L225.3479,217.2485 Q224.884,216.8213 224.4476,216.6229 Q224.0112,216.4246 223.5474,216.4246 Q222.5586,216.4246 222.0551,217.2089 Q221.5515,217.9932 221.5515,219.5374 Q221.5515,221.0754 222.0551,221.8597 Q222.5586,222.644 223.5474,222.644 Q224.0112,222.644 224.4476,222.4457 Q224.884,222.2473 225.3479,221.8201 Z " fill="#000000"/><text fill="#D8BC00" font-family="Open Sans,Avenir,Nunito,Arial,Helvetica,SansSerif" font-size="12.5" font-weight="bold" lengthAdjust="spacing" textLength="17.7083" x="240.1042" y="224.1211">All</text><rect fill="#333333" height="23.055" style="stroke:#A0A0A0;stroke-width:1.0416666666666667;stroke-dasharray:2.0,2.0;" width="16.6667" x="269.2708" y="200.5778"/><text fill="#A0A0A0" font-family="Open Sans,Avenir,Nunito,Arial,Helvetica,SansSerif" font-size="12.5" font-weight="bold" lengthAdjust="spacing" textLength="8.3333" x="273.4375" y="216.8294">T</text><line style="stroke:#5E5E5E;stroke-width:1.0416666666666667;" x1="209.8958" x2="281.7708" y1="235.0911" y2="235.0911"/><line style="stroke:#5E5E5E;stroke-width:1.0416666666666667;" x1="209.8958" x2="281.7708" y1="243.4245" y2="243.4245"/><!--MD5=[2184976f08065c351186e002aedbbc07]
class Matching--><rect codeLine="16" fill="#282828" height="127.0345" id="Matching" rx="8.3333" ry="8.3333" style="stroke:#5E5E5E;stroke-width:1.0416666666666667;" width="162.5" x="9.375" y="164.1195"/><rect fill="#1B1B1A" height="31.3883" rx="8.3333" ry="8.3333" style="stroke:#1B1B1A;stroke-width:1.0416666666666667;" width="162.5" x="9.375" y="164.1195"/><rect fill="#1B1B1A" height="8.3333" style="stroke:#1B1B1A;stroke-width:1.0416666666666667;" width="162.5" x="9.375" y="187.1745"/><rect codeLine="16" fill="none" height="127.0345" id="Matching" rx="8.3333" ry="8.3333" style="stroke:#5E5E5E;stroke-width:1.0416666666666667;" width="162.5" x="9.375" y="164.1195"/><ellipse cx="45.0521" cy="179.8136" fill="#C8AC00" rx="10.4167" ry="10.4167" style="stroke:#D8BC00;stroke-width:1.0416666666666667;"/><path d="M45.166,176.5157 L44.3176,180.245 L46.0205,180.245 Z M44.0674,174.8678 L46.2708,174.8678 L48.7305,183.9803 L46.9299,183.9803 L46.3684,181.7281 L43.9575,181.7281 L43.4082,183.9803 L41.6077,183.9803 Z " fill="#000000"/><text fill="#D8BC00" font-family="Open Sans,Avenir,Nunito,Arial,Helvetica,SansSerif" font-size="12.5" font-style="italic" font-weight="bold" lengthAdjust="spacing" textLength="59.375" x="66.4063" y="184.5378">Matching</text><rect fill="#333333" height="23.055" style="stroke:#A0A0A0;stroke-width:1.0416666666666667;stroke-dasharray:2.0,2.0;" width="16.6667" x="158.3333" y="160.9945"/><text fill="#A0A0A0" font-family="Open Sans,Avenir,Nunito,Arial,Helvetica,SansSerif" font-size="12.5" font-weight="bold" lengthAdjust="spacing" textLength="8.3333" x="162.5" y="177.2461">T</text><line style="stroke:#5E5E5E;stroke-width:1.5625;" x1="10.4167" x2="170.8333" y1="195.5078" y2="195.5078"/><polygon fill="#FFFF44" points="20.8333,225.6694,25,229.836,20.8333,234.0027,16.6667,229.836" style="stroke:#B38D22;stroke-width:1.0416666666666667;"/><text fill="#D8BC00" font-family="Open Sans,Avenir,Nunito,Arial,Helvetica,SansSerif" font-size="11.4583" lengthAdjust="spacing" textLength="130.2083" x="32.2917" y="237.7889">Matching(Matcher&lt;T&gt;)</text><line style="stroke:#5E5E5E;stroke-width:1.0416666666666667;" x1="10.4167" x2="46.875" y1="213.7136" y2="213.7136"/><text fill="#D8BC00" font-family="Open Sans,Avenir,Nunito,Arial,Helvetica,SansSerif" font-size="11.4583" lengthAdjust="spacing" textLength="81.25" x="50" y="217.5232">(constructors)</text><line style="stroke:#5E5E5E;stroke-width:1.0416666666666667;" x1="134.375" x2="170.8333" y1="213.7136" y2="213.7136"/><polygon fill="#FFFF44" points="20.8333,269.3258,25,273.4924,20.8333,277.6591,16.6667,273.4924" style="stroke:#B38D22;stroke-width:1.0416666666666667;"/><text fill="#D8BC00" font-family="Open Sans,Avenir,Nunito,Arial,Helvetica,SansSerif" font-size="11.4583" lengthAdjust="spacing" textLength="114.5833" x="32.2917" y="281.4453">Iterator&lt;T&gt; values()</text><line style="stroke:#5E5E5E;stroke-width:1.0416666666666667;" x1="10.4167" x2="56.25" y1="257.37" y2="257.37"/><text fill="#D8BC00" font-family="Open Sans,Avenir,Nunito,Arial,Helvetica,SansSerif" font-size="11.4583" lengthAdjust="spacing" textLength="62.5" x="59.375" y="261.1796">(collection)</text><line style="stroke:#5E5E5E;stroke-width:1.0416666666666667;" x1="125" x2="170.8333" y1="257.37" y2="257.37"/><!--MD5=[23b93222029f5e808ee3d66414f1a838]
class None--><rect codeLine="25" fill="#282828" height="48.055" id="None" rx="8.3333" ry="8.3333" style="stroke:#5E5E5E;stroke-width:1.0416666666666667;" width="89.5833" x="319.7917" y="203.7028"/><rect fill="#1B1B1A" height="31.3883" rx="8.3333" ry="8.3333" style="stroke:#1B1B1A;stroke-width:1.0416666666666667;" width="89.5833" x="319.7917" y="203.7028"/><rect fill="#1B1B1A" height="8.3333" style="stroke:#1B1B1A;stroke-width:1.0416666666666667;" width="89.5833" x="319.7917" y="226.7578"/><rect codeLine="25" fill="none" height="48.055" id="None" rx="8.3333" ry="8.3333" style="stroke:#5E5E5E;stroke-width:1.0416666666666667;" width="89.5833" x="319.7917" y="203.7028"/><ellipse cx="334.375" cy="219.397" fill="#0066CF" rx="10.4167" ry="10.4167" style="stroke:#0086EF;stroke-width:1.0416666666666667;"/><path d="M336.2854,223.822 Q335.8582,224.0417 335.3882,224.1516 Q334.9182,224.2615 334.3994,224.2615 Q332.5562,224.2615 331.5857,223.0469 Q330.6152,221.8323 330.6152,219.5374 Q330.6152,217.2363 331.5857,216.0217 Q332.5562,214.8071 334.3994,214.8071 Q334.9182,214.8071 335.3943,214.917 Q335.8704,215.0269 336.2854,215.2466 L336.2854,217.2485 Q335.8215,216.8213 335.3851,216.6229 Q334.9487,216.4246 334.4849,216.4246 Q333.4961,216.4246 332.9926,217.2089 Q332.489,217.9932 332.489,219.5374 Q332.489,221.0754 332.9926,221.8597 Q333.4961,222.644 334.4849,222.644 Q334.9487,222.644 335.3851,222.4457 Q335.8215,222.2473 336.2854,221.8201 Z " fill="#000000"/><text fill="#D8BC00" font-family="Open Sans,Avenir,Nunito,Arial,Helvetica,SansSerif" font-size="12.5" font-weight="bold" lengthAdjust="spacing" textLength="33.3333" x="351.0417" y="224.1211">None</text><rect fill="#333333" height="23.055" style="stroke:#A0A0A0;stroke-width:1.0416666666666667;stroke-dasharray:2.0,2.0;" width="16.6667" x="395.8333" y="200.5778"/><text fill="#A0A0A0" font-family="Open Sans,Avenir,Nunito,Arial,Helvetica,SansSerif" font-size="12.5" font-weight="bold" lengthAdjust="spacing" textLength="8.3333" x="400" y="216.8294">T</text><line style="stroke:#5E5E5E;stroke-width:1.0416666666666667;" x1="320.8333" x2="408.3333" y1="235.0911" y2="235.0911"/><line style="stroke:#5E5E5E;stroke-width:1.0416666666666667;" x1="320.8333" x2="408.3333" y1="243.4245" y2="243.4245"/><!--MD5=[b8e621df06fbdab0ec6b31f800b11415]
class WithName--><rect codeLine="30" fill="#282828" height="103.123" id="WithName" rx="8.3333" ry="8.3333" style="stroke:#5E5E5E;stroke-width:1.0416666666666667;" width="134.375" x="446.3542" y="176.0986"/><rect fill="#1B1B1A" height="31.3883" rx="8.3333" ry="8.3333" style="stroke:#1B1B1A;stroke-width:1.0416666666666667;" width="134.375" x="446.3542" y="176.0986"/><rect fill="#1B1B1A" height="8.3333" style="stroke:#1B1B1A;stroke-width:1.0416666666666667;" width="134.375" x="446.3542" y="199.1536"/><rect codeLine="30" fill="none" height="103.123" id="WithName" rx="8.3333" ry="8.3333" style="stroke:#5E5E5E;stroke-width:1.0416666666666667;" width="134.375" x="446.3542" y="176.0986"/><ellipse cx="466.5625" cy="191.7928" fill="#0066CF" rx="10.4167" ry="10.4167" style="stroke:#0086EF;stroke-width:1.0416666666666667;"/><path d="M468.4729,196.2179 Q468.0457,196.4376 467.5757,196.5474 Q467.1057,196.6573 466.5869,196.6573 Q464.7437,196.6573 463.7732,195.4427 Q462.8027,194.2281 462.8027,191.9332 Q462.8027,189.6322 463.7732,188.4176 Q464.7437,187.203 466.5869,187.203 Q467.1057,187.203 467.5818,187.3128 Q468.0579,187.4227 468.4729,187.6424 L468.4729,189.6444 Q468.009,189.2171 467.5726,189.0188 Q467.1362,188.8204 466.6724,188.8204 Q465.6836,188.8204 465.1801,189.6047 Q464.6765,190.389 464.6765,191.9332 Q464.6765,193.4713 465.1801,194.2556 Q465.6836,195.0399 466.6724,195.0399 Q467.1362,195.0399 467.5726,194.8415 Q468.009,194.6431 468.4729,194.2159 Z " fill="#000000"/><text fill="#D8BC00" font-family="Open Sans,Avenir,Nunito,Arial,Helvetica,SansSerif" font-size="12.5" font-weight="bold" lengthAdjust="spacing" textLength="65.625" x="484.4792" y="196.5169">WithName</text><rect fill="#333333" height="23.055" style="stroke:#A0A0A0;stroke-width:1.0416666666666667;stroke-dasharray:2.0,2.0;" width="16.6667" x="567.1875" y="172.9736"/><text fill="#A0A0A0" font-family="Open Sans,Avenir,Nunito,Arial,Helvetica,SansSerif" font-size="12.5" font-weight="bold" lengthAdjust="spacing" textLength="8.3333" x="571.3542" y="189.2253">T</text><line style="stroke:#5E5E5E;stroke-width:1.5625;" x1="447.3958" x2="579.6875" y1="207.487" y2="207.487"/><ellipse cx="457.8125" cy="242.8569" fill="#84BE84" rx="3.125" ry="3.125" style="stroke:#038048;stroke-width:1.0416666666666667;"/><text fill="#D8BC00" font-family="Open Sans,Avenir,Nunito,Arial,Helvetica,SansSerif" font-size="11.4583" lengthAdjust="spacing" textLength="102.0833" x="469.2708" y="249.7681">WithName(Named)</text><ellipse cx="457.8125" cy="262.6017" fill="#84BE84" rx="3.125" ry="3.125" style="stroke:#038048;stroke-width:1.0416666666666667;"/><text fill="#D8BC00" font-family="Open Sans,Avenir,Nunito,Arial,Helvetica,SansSerif" font-size="11.4583" lengthAdjust="spacing" textLength="96.875" x="469.2708" y="269.5129">WithName(String)</text><line style="stroke:#5E5E5E;stroke-width:1.0416666666666667;" x1="447.3958" x2="469.7917" y1="225.6927" y2="225.6927"/><text fill="#D8BC00" font-family="Open Sans,Avenir,Nunito,Arial,Helvetica,SansSerif" font-size="11.4583" lengthAdjust="spacing" textLength="81.25" x="472.9167" y="229.5024">(constructors)</text><line style="stroke:#5E5E5E;stroke-width:1.0416666666666667;" x1="557.2917" x2="579.6875" y1="225.6927" y2="225.6927"/><!--MD5=[bc51708e43843168d5fa5271a1d239c4]
class WithNameMatching--><rect codeLine="38" fill="#282828" height="83.3781" id="WithNameMatching" rx="8.3333" ry="8.3333" style="stroke:#5E5E5E;stroke-width:1.0416666666666667;" width="186.4583" x="617.1875" y="185.9945"/><rect fill="#1B1B1A" height="31.3883" rx="8.3333" ry="8.3333" style="stroke:#1B1B1A;stroke-width:1.0416666666666667;" width="186.4583" x="617.1875" y="185.9945"/><rect fill="#1B1B1A" height="8.3333" style="stroke:#1B1B1A;stroke-width:1.0416666666666667;" width="186.4583" x="617.1875" y="209.0495"/><rect codeLine="38" fill="none" height="83.3781" id="WithNameMatching" rx="8.3333" ry="8.3333" style="stroke:#5E5E5E;stroke-width:1.0416666666666667;" width="186.4583" x="617.1875" y="185.9945"/><ellipse cx="634.1146" cy="201.6886" fill="#0066CF" rx="10.4167" ry="10.4167" style="stroke:#0086EF;stroke-width:1.0416666666666667;"/><path d="M636.025,206.1137 Q635.5977,206.3334 635.1278,206.4433 Q634.6578,206.5531 634.139,206.5531 Q632.2957,206.5531 631.3253,205.3385 Q630.3548,204.1239 630.3548,201.829 Q630.3548,199.528 631.3253,198.3134 Q632.2957,197.0988 634.139,197.0988 Q634.6578,197.0988 635.1339,197.2087 Q635.6099,197.3185 636.025,197.5382 L636.025,199.5402 Q635.5611,199.113 635.1247,198.9146 Q634.6883,198.7162 634.2244,198.7162 Q633.2357,198.7162 632.7321,199.5005 Q632.2286,200.2848 632.2286,201.829 Q632.2286,203.3671 632.7321,204.1514 Q633.2357,204.9357 634.2244,204.9357 Q634.6883,204.9357 635.1247,204.7373 Q635.5611,204.539 636.025,204.1117 Z " fill="#000000"/><text fill="#D8BC00" font-family="Open Sans,Avenir,Nunito,Arial,Helvetica,SansSerif" font-size="12.5" font-weight="bold" lengthAdjust="spacing" textLength="125" x="651.3021" y="206.4128">WithNameMatching</text><rect fill="#333333" height="23.055" style="stroke:#A0A0A0;stroke-width:1.0416666666666667;stroke-dasharray:2.0,2.0;" width="16.6667" x="790.1042" y="182.8695"/><text fill="#A0A0A0" font-family="Open Sans,Avenir,Nunito,Arial,Helvetica,SansSerif" font-size="12.5" font-weight="bold" lengthAdjust="spacing" textLength="8.3333" x="794.2708" y="199.1211">T</text><line style="stroke:#5E5E5E;stroke-width:1.5625;" x1="618.2292" x2="802.6042" y1="217.3828" y2="217.3828"/><ellipse cx="628.6458" cy="252.7527" fill="#84BE84" rx="3.125" ry="3.125" style="stroke:#038048;stroke-width:1.0416666666666667;"/><text fill="#D8BC00" font-family="Open Sans,Avenir,Nunito,Arial,Helvetica,SansSerif" font-size="11.4583" lengthAdjust="spacing" textLength="154.1667" x="640.1042" y="259.6639">WithNameMatching(Pattern)</text><line style="stroke:#5E5E5E;stroke-width:1.0416666666666667;" x1="618.2292" x2="666.6667" y1="235.5886" y2="235.5886"/><text fill="#D8BC00" font-family="Open Sans,Avenir,Nunito,Arial,Helvetica,SansSerif" font-size="11.4583" lengthAdjust="spacing" textLength="81.25" x="669.7917" y="239.3982">(constructors)</text><line style="stroke:#5E5E5E;stroke-width:1.0416666666666667;" x1="754.1667" x2="802.6042" y1="235.5886" y2="235.5886"/><!--MD5=[70ea007b94ae3059cde65572544a39c8]
reverse link Matcher to All--><path codeLine="10" d="M376.125,112.2445 C351.6146,126.7236 323.9375,144.7757 301.0417,164.1195 C287.2188,175.7965 273.7292,190.9736 263.5521,203.4424 " fill="none" id="Matcher-backto-All" style="stroke:#545454;stroke-width:1.5625;"/><polygon fill="none" points="372.8333,105.7236,394.5313,101.6715,380.0938,118.3695,372.8333,105.7236" style="stroke:#545454;stroke-width:1.5625;"/><!--MD5=[ad568f6ef2b38f943fac91cbaafae4c2]
reverse link BaseIterable to Matching--><path codeLine="15" d="M90.625,123.057 C90.625,135.9632 90.625,150.307 90.625,164.109 " fill="none" id="BaseIterable-backto-Matching" style="stroke:#545454;stroke-width:1.5625;"/><polygon fill="none" points="83.3333,122.6507,90.625,101.8174,97.9167,122.6507,83.3333,122.6507" style="stroke:#545454;stroke-width:1.5625;"/><!--MD5=[97f44cfedd2650693ddbdacbed774180]
reverse link Matcher to None--><path codeLine="24" d="M417.5208,120.734 C404.0625,147.6611 387.1042,181.5882 376.0625,203.6715 " fill="none" id="Matcher-backto-None" style="stroke:#545454;stroke-width:1.5625;"/><polygon fill="none" points="411.1458,117.1924,426.9896,101.8174,424.1875,123.7132,411.1458,117.1924" style="stroke:#545454;stroke-width:1.5625;"/><!--MD5=[311b0a7d69805b3ca7d11a33c8aa75c4]
reverse link Matcher to WithName--><path codeLine="29" d="M459.6875,120.4007 C468.4167,137.6195 478.625,157.7445 487.7813,175.8174 " fill="none" id="Matcher-backto-WithName" style="stroke:#545454;stroke-width:1.5625;"/><polygon fill="none" points="453.1771,123.6924,450.2604,101.8174,466.1875,117.0986,453.1771,123.6924" style="stroke:#545454;stroke-width:1.5625;"/><!--MD5=[ebd883058e01ce0505d4edc659d7d951]
reverse link Matcher to WithNameMatching--><path codeLine="37" d="M500.8125,111.4528 C530.5938,127.2236 566.7083,146.4945 598.9583,164.1195 C611.7083,171.0882 625.2292,178.5778 638.2917,185.8799 " fill="none" id="Matcher-backto-WithNameMatching" style="stroke:#545454;stroke-width:1.5625;"/><polygon fill="none" points="497.2708,117.8278,482.25,101.6507,504.0833,104.932,497.2708,117.8278" style="stroke:#545454;stroke-width:1.5625;"/><!--MD5=[b86a431f2f248aff407be01d6a3afe1d]
@startuml

    !include ../lexakai/lexakai.theme
    
    title "Language - Matching"
    
    abstract BaseIterable
    
    interface Matcher
    
    Matcher <|- - All
    class All<T>
    {
    }
    
    BaseIterable <|- - Matching
    abstract class Matching<T>
    {
        - -(constructors)- -
        #Matching(Matcher<T>)
        - -(collection)- -
        #Iterator<T> values()
    }
    
    Matcher <|- - None
    class None<T>
    {
    }
    
    Matcher <|- - WithName
    class WithName<T>
    {
        - -(constructors)- -
        +WithName(Named)
        +WithName(String)
    }
    
    Matcher <|- - WithNameMatching
    class WithNameMatching<T>
    {
        - -(constructors)- -
        +WithNameMatching(Pattern)
    }
    
@enduml

@startuml









skinparam backgroundColor #333333






skinparam  {
    defaultFontName   "Open Sans,Avenir,Nunito,Arial,Helvetica,SansSerif"
    defaultFontSize   12
    defaultTextAlignment left
    shadowing false
    RoundCorner 10
    TitleFontSize 18
}

skinparam defaultFontName       "Open Sans,Avenir,Nunito,Arial,Helvetica,SansSerif"
skinparam defaultFontSize       12
skinparam dpi                   100
skinparam shadowing             false
skinparam roundcorner           16
skinparam ParticipantPadding    40
skinparam BoxPadding            40
skinparam Padding               3
skinparam ArrowColor            #545454
skinparam stereotype {
    CBackgroundColor #0066cf
    CBorderColor #0086ef
    ABackgroundColor #C8Ac00
    ABorderColor #D8Bc00
    IBackgroundColor #008400
    IBorderColor #239c23
    EBackgroundColor #cf6300
    EBorderColor #ef8300
    NBackgroundColor #3380b9
    NBorderColor #004d86
}
skinparam title {
	FontColor	                 #c0c0c0
 	BorderColor                  #545454
	FontSize	    	         20
	BorderRoundCorner            16
	BorderThickness 	         1
	BackgroundColor              #48494b
}


skinparam legend {
	BackgroundColor #303030
	BorderColor #404040
	FontColor #a0a0a0
}

	skinparam swimlane {
	BorderColor #5e5e5e
	BorderThickness 2
	TitleBackgroundColor  #6d6d6d-#484848
	TitleFontColor #303030
}

skinparam activity {
		FontColor #C8Ac00
	BorderColor #333333
	BackgroundColor #333333-#333333
	BarColor #00FF00
	StartColor #0060a8
	EndColor #0060a8
	DiamondBackgroundColor #6d6d6d-#3a3a3a
  	DiamondBorderColor #3a3a3a
  	DiamondFontColor #fefefe
}


skinparam participant {
		FontColor #C8Ac00
	BorderColor #333333
	BackgroundColor #333333-#333333
	ParticipantBorderThickness 2
}


skinparam actor {
		FontColor #C8Ac00
	BorderColor #333333
	BackgroundColor #333333-#333333
}


skinparam arrow {
	Thickness 1.5
	Color #545454
	FontColor #a0a0a0
    FontStyle bold
    MessageAlignment center
}



skinparam sequence {
	BorderColor #303030
	TitleFontColor #303030
	BackgroundColor #333333
	StartColor #303030
	EndColor #303030
	BoxBackgroundColor #333333
	BoxBorderColor #484848
	BoxFontColor #484848
	LifeLineBorderColor #484848
	LifeLineBorderThickness 2
	LifeLineBackgroundColor #3a3a3a
	GroupBorderColor #484848
	GroupFontColor #484848
	GroupHeaderFontColor #0060a8
	GroupBackgroundColor #484848
	GroupHeaderBackgroundColor #333333
	DividerBackgroundColor #484848
    DividerBorderColor #484848
    DividerBorderThickness 2
    DividerFontColor #D8Bc00
	ReferenceBackgroundColor #333333
	ReferenceBorderColor #484848
	ReferenceFontColor #fefefe
	ReferenceHeaderBackgroundColor #484848
}


skinparam partition {
	BorderColor #303030
	FontColor #333333
	BackgroundColor #333333
}


skinparam collections {
		FontColor #C8Ac00
	BorderColor #333333
	BackgroundColor #333333-#333333
}


skinparam control {
		FontColor #C8Ac00
	BorderColor #333333
	BackgroundColor #333333-#333333
}


skinparam entity {
		FontColor #C8Ac00
	BorderColor #333333
	BackgroundColor #333333-#333333
}


skinparam boundary {
		FontColor #C8Ac00
	BorderColor #333333
	BackgroundColor #333333-#333333
}


skinparam agent {
	BackgroundColor #ff8000
	BorderColor #ff9933
	FontColor #484848
}


skinparam note {
	BorderThickness 1
	BackgroundColor #1b1b1a
	BorderColor #5e5e5e
	FontSize 11
	FontColor #a0a0a0
}


skinparam artifact {
	BorderThickness 10
	BorderColor #5e5e5e
	BackgroundColor #1b1b1a
	FontColor #D8Bc00
}


skinparam component {
		FontColor #C8Ac00
	BorderColor #333333
	BackgroundColor #333333-#333333
}


skinparam interface {
	BackgroundColor  #008400
	BorderColor  #007F00
	FontColor #484848
}


skinparam storage {
	BackgroundColor #ff8000
  	BorderColor #cc6600
	FontColor #222222
}


skinparam node {
	BackgroundColor #333333
	BorderColor #333333
	FontColor #C8Ac00
}


skinparam cloud {
	BackgroundColor #484848-black
	BorderColor #484848
	FontColor #D8Bc00
}


skinparam database {
		FontColor #C8Ac00
	BorderColor #333333
	BackgroundColor #333333-#333333
	BackgroundColor  #333333
}


skinparam class {
		FontColor #C8Ac00
	BorderColor #333333
	BackgroundColor #333333-#333333
	HeaderBackgroundColor #1b1b1a
    BackgroundColor #282828
    BorderColor #5e5e5e
 	StereotypeFontColor #a0a0a0
    StereotypeFontStyle bold
	BorderThickness 1
	AttributeFontColor #D8Bc00
	AttributeFontSize 11
    FontColor #D8Bc00
    FontStyle bold
}


skinparam object {
		FontColor #C8Ac00
	BorderColor #333333
	BackgroundColor #333333-#333333
	StereotypeFontColor #484848
	BorderThickness 1
	AttributeFontColor #fefefe
	AttributeFontSize 11
}


skinparam usecase {
		FontColor #C8Ac00
	BorderColor #333333
	BackgroundColor #333333-#333333
	BorderThickness 2
	StereotypeFontColor #303030
}


skinparam rectangle {
		FontColor #C8Ac00
	BorderColor #333333
	BackgroundColor #333333-#333333
	BackgroundColor #333333
	BorderThickness 2
	StereotypeFontColor #303030
}


skinparam package {
		FontColor #C8Ac00
	BorderColor #333333
	BackgroundColor #333333-#333333
	BackgroundColor #333333
	BorderThickness 2
}


skinparam folder {
	BackgroundColor #6d6d6d
  	BorderColor #ff8000
	FontColor #ff8000
	BorderThickness 2
}


skinparam frame {
	BackgroundColor #6d6d6d
  	BorderColor #0060a8
	FontColor #0060a8
	BorderThickness 2
}


skinparam state {
		FontColor #C8Ac00
	BorderColor #333333
	BackgroundColor #333333-#333333
	StartColor #0060a8
	EndColor #0060a8
	AttributeFontColor #fefefe
	AttributeFontSize 11
}


skinparam queue {
		FontColor #C8Ac00
	BorderColor #333333
	BackgroundColor #333333-#333333
}


skinparam card {
	BackgroundColor #0060a8
	BorderColor #004d86
	FontColor $INFO_TEXT
}


skinparam file {
	BackgroundColor #6d6d6d-#484848
	BorderColor #0060a8
	FontColor #fefefe
}


skinparam stack {
		FontColor #C8Ac00
	BorderColor #333333
	BackgroundColor #333333-#333333
}

    
    title "Language - Matching"
    
    abstract BaseIterable
    
    interface Matcher
    
    Matcher <|- - All
    class All<T>
    {
    }
    
    BaseIterable <|- - Matching
    abstract class Matching<T>
    {
        - -(constructors)- -
        #Matching(Matcher<T>)
        - -(collection)- -
        #Iterator<T> values()
    }
    
    Matcher <|- - None
    class None<T>
    {
    }
    
    Matcher <|- - WithName
    class WithName<T>
    {
        - -(constructors)- -
        +WithName(Named)
        +WithName(String)
    }
    
    Matcher <|- - WithNameMatching
    class WithNameMatching<T>
    {
        - -(constructors)- -
        +WithNameMatching(Pattern)
    }
    
@enduml

PlantUML version 1.2021.01(Tue Feb 02 00:55:08 MST 2021)
(GPL source distribution)
Java Runtime: Java(TM) SE Runtime Environment
JVM: Java HotSpot(TM) 64-Bit Server VM
Default Encoding: UTF-8
Language: en
Country: US
--></g></svg>