<?xml version="1.0" encoding="UTF-8" standalone="no"?><svg xmlns="http://www.w3.org/2000/svg" xmlns:xlink="http://www.w3.org/1999/xlink" contentScriptType="application/ecmascript" contentStyleType="text/css" height="752.0833px" preserveAspectRatio="none" style="width:1048px;height:752px;background:#333333;" version="1.1" viewBox="0 0 1048 752" width="1048.9583px" zoomAndPan="magnify"><defs/><g><rect fill="#48494B" height="41.2028" rx="8.3333" ry="8.3333" style="stroke:#545454;stroke-width:1.0416666666666667;" width="388.5417" x="322.9167" y="2.0833"/><text fill="#C0C0C0" font-family="Open Sans,Avenir,Nunito,Arial,Helvetica,SansSerif" font-size="20.8333" lengthAdjust="spacing" textLength="365.625" x="334.375" y="30.5583">diagram-language-object-reference</text><!--MD5=[762aa3d0df6a9d47bd8e105afbd066b5]
class BaseRepeater--><rect codeLine="6" fill="#282828" height="48.055" id="BaseRepeater" rx="8.3333" ry="8.3333" style="stroke:#5E5E5E;stroke-width:1.0416666666666667;" width="123.9583" x="792.7083" y="53.7028"/><rect fill="#1B1B1A" height="31.3883" rx="8.3333" ry="8.3333" style="stroke:#1B1B1A;stroke-width:1.0416666666666667;" width="123.9583" x="792.7083" y="53.7028"/><rect fill="#1B1B1A" height="8.3333" style="stroke:#1B1B1A;stroke-width:1.0416666666666667;" width="123.9583" x="792.7083" y="76.7578"/><rect codeLine="6" fill="none" height="48.055" id="BaseRepeater" rx="8.3333" ry="8.3333" style="stroke:#5E5E5E;stroke-width:1.0416666666666667;" width="123.9583" x="792.7083" y="53.7028"/><ellipse cx="807.2917" cy="69.397" fill="#C8AC00" rx="10.4167" ry="10.4167" style="stroke:#D8BC00;stroke-width:1.0416666666666667;"/><path d="M807.4056,66.099 L806.5572,69.8283 L808.2601,69.8283 Z M806.307,64.4511 L808.5103,64.4511 L810.9701,73.5636 L809.1695,73.5636 L808.608,71.3114 L806.1971,71.3114 L805.6478,73.5636 L803.8472,73.5636 Z " fill="#000000"/><text fill="#D8BC00" font-family="Open Sans,Avenir,Nunito,Arial,Helvetica,SansSerif" font-size="12.5" font-style="italic" font-weight="bold" lengthAdjust="spacing" textLength="86.4583" x="823.9583" y="74.1211">BaseRepeater</text><line style="stroke:#5E5E5E;stroke-width:1.0416666666666667;" x1="793.75" x2="915.625" y1="85.0911" y2="85.0911"/><line style="stroke:#5E5E5E;stroke-width:1.0416666666666667;" x1="793.75" x2="915.625" y1="93.4245" y2="93.4245"/><!--MD5=[75cc5f2bc57a41f800f7208d8f09ddcd]
class HardReferencedValue--><rect codeLine="8" fill="#282828" height="83.3781" id="HardReferencedValue" rx="8.3333" ry="8.3333" style="stroke:#5E5E5E;stroke-width:1.0416666666666667;" width="192.7083" x="369.7917" y="662.0361"/><rect fill="#1B1B1A" height="31.3883" rx="8.3333" ry="8.3333" style="stroke:#1B1B1A;stroke-width:1.0416666666666667;" width="192.7083" x="369.7917" y="662.0361"/><rect fill="#1B1B1A" height="8.3333" style="stroke:#1B1B1A;stroke-width:1.0416666666666667;" width="192.7083" x="369.7917" y="685.0911"/><rect codeLine="8" fill="none" height="83.3781" id="HardReferencedValue" rx="8.3333" ry="8.3333" style="stroke:#5E5E5E;stroke-width:1.0416666666666667;" width="192.7083" x="369.7917" y="662.0361"/><ellipse cx="384.375" cy="677.7303" fill="#0066CF" rx="10.4167" ry="10.4167" style="stroke:#0086EF;stroke-width:1.0416666666666667;"/><path d="M386.2854,682.1554 Q385.8582,682.3751 385.3882,682.4849 Q384.9182,682.5948 384.3994,682.5948 Q382.5562,682.5948 381.5857,681.3802 Q380.6152,680.1656 380.6152,677.8707 Q380.6152,675.5697 381.5857,674.3551 Q382.5562,673.1405 384.3994,673.1405 Q384.9182,673.1405 385.3943,673.2503 Q385.8704,673.3602 386.2854,673.5799 L386.2854,675.5819 Q385.8215,675.1546 385.3851,674.9563 Q384.9487,674.7579 384.4849,674.7579 Q383.4961,674.7579 382.9926,675.5422 Q382.489,676.3265 382.489,677.8707 Q382.489,679.4088 382.9926,680.1931 Q383.4961,680.9774 384.4849,680.9774 Q384.9487,680.9774 385.3851,680.779 Q385.8215,680.5806 386.2854,680.1534 Z " fill="#000000"/><text fill="#D8BC00" font-family="Open Sans,Avenir,Nunito,Arial,Helvetica,SansSerif" font-size="12.5" font-weight="bold" lengthAdjust="spacing" textLength="136.4583" x="401.0417" y="682.4544">HardReferencedValue</text><rect fill="#333333" height="23.055" style="stroke:#A0A0A0;stroke-width:1.0416666666666667;stroke-dasharray:2.0,2.0;" width="16.6667" x="548.9583" y="658.9111"/><text fill="#A0A0A0" font-family="Open Sans,Avenir,Nunito,Arial,Helvetica,SansSerif" font-size="12.5" font-weight="bold" lengthAdjust="spacing" textLength="8.3333" x="553.125" y="675.1628">T</text><line style="stroke:#5E5E5E;stroke-width:1.5625;" x1="370.8333" x2="561.4583" y1="693.4245" y2="693.4245"/><ellipse cx="381.25" cy="728.7944" fill="#84BE84" rx="3.125" ry="3.125" style="stroke:#038048;stroke-width:1.0416666666666667;"/><text fill="#D8BC00" font-family="Open Sans,Avenir,Nunito,Arial,Helvetica,SansSerif" font-size="11.4583" lengthAdjust="spacing" textLength="135.4167" x="392.7083" y="735.7056">HardReferencedValue(T)</text><line style="stroke:#5E5E5E;stroke-width:1.0416666666666667;" x1="370.8333" x2="422.3958" y1="711.6302" y2="711.6302"/><text fill="#D8BC00" font-family="Open Sans,Avenir,Nunito,Arial,Helvetica,SansSerif" font-size="11.4583" lengthAdjust="spacing" textLength="81.25" x="425.5208" y="715.4399">(constructors)</text><line style="stroke:#5E5E5E;stroke-width:1.0416666666666667;" x1="509.8958" x2="561.4583" y1="711.6302" y2="711.6302"/><!--MD5=[7887fcbe9ec54cbacb3997f48a704f2b]
class SoftReference--><rect fill="#282828" height="48.055" id="SoftReference" rx="8.3333" ry="8.3333" style="stroke:#5E5E5E;stroke-width:1.0416666666666667;" width="126.0417" x="107.2917" y="431.307"/><rect fill="#1B1B1A" height="31.3883" rx="8.3333" ry="8.3333" style="stroke:#1B1B1A;stroke-width:1.0416666666666667;" width="126.0417" x="107.2917" y="431.307"/><rect fill="#1B1B1A" height="8.3333" style="stroke:#1B1B1A;stroke-width:1.0416666666666667;" width="126.0417" x="107.2917" y="454.362"/><rect fill="none" height="48.055" id="SoftReference" rx="8.3333" ry="8.3333" style="stroke:#5E5E5E;stroke-width:1.0416666666666667;" width="126.0417" x="107.2917" y="431.307"/><ellipse cx="121.875" cy="447.0011" fill="#0066CF" rx="10.4167" ry="10.4167" style="stroke:#0086EF;stroke-width:1.0416666666666667;"/><path d="M123.7854,451.4262 Q123.3582,451.6459 122.8882,451.7558 Q122.4182,451.8656 121.8994,451.8656 Q120.0562,451.8656 119.0857,450.651 Q118.1152,449.4364 118.1152,447.1415 Q118.1152,444.8405 119.0857,443.6259 Q120.0562,442.4113 121.8994,442.4113 Q122.4182,442.4113 122.8943,442.5212 Q123.3704,442.631 123.7854,442.8507 L123.7854,444.8527 Q123.3215,444.4255 122.8851,444.2271 Q122.4487,444.0287 121.9849,444.0287 Q120.9961,444.0287 120.4926,444.813 Q119.989,445.5973 119.989,447.1415 Q119.989,448.6796 120.4926,449.4639 Q120.9961,450.2482 121.9849,450.2482 Q122.4487,450.2482 122.8851,450.0498 Q123.3215,449.8515 123.7854,449.4242 Z " fill="#000000"/><text fill="#D8BC00" font-family="Open Sans,Avenir,Nunito,Arial,Helvetica,SansSerif" font-size="12.5" font-weight="bold" lengthAdjust="spacing" textLength="88.5417" x="138.5417" y="451.7253">SoftReference</text><line style="stroke:#5E5E5E;stroke-width:1.0416666666666667;" x1="108.3333" x2="232.2917" y1="462.6953" y2="462.6953"/><line style="stroke:#5E5E5E;stroke-width:1.0416666666666667;" x1="108.3333" x2="232.2917" y1="471.0286" y2="471.0286"/><!--MD5=[2a1f77d545787a1974c9dbbb6524a58c]
class SoftReferencedValue--><rect codeLine="15" fill="#282828" height="83.3781" id="SoftReferencedValue" rx="8.3333" ry="8.3333" style="stroke:#5E5E5E;stroke-width:1.0416666666666667;" width="326.0417" x="7.2917" y="662.0361"/><rect fill="#1B1B1A" height="31.3883" rx="8.3333" ry="8.3333" style="stroke:#1B1B1A;stroke-width:1.0416666666666667;" width="326.0417" x="7.2917" y="662.0361"/><rect fill="#1B1B1A" height="8.3333" style="stroke:#1B1B1A;stroke-width:1.0416666666666667;" width="326.0417" x="7.2917" y="685.0911"/><rect codeLine="15" fill="none" height="83.3781" id="SoftReferencedValue" rx="8.3333" ry="8.3333" style="stroke:#5E5E5E;stroke-width:1.0416666666666667;" width="326.0417" x="7.2917" y="662.0361"/><ellipse cx="87.5" cy="677.7303" fill="#0066CF" rx="10.4167" ry="10.4167" style="stroke:#0086EF;stroke-width:1.0416666666666667;"/><path d="M89.4104,682.1554 Q88.9832,682.3751 88.5132,682.4849 Q88.0432,682.5948 87.5244,682.5948 Q85.6812,682.5948 84.7107,681.3802 Q83.7402,680.1656 83.7402,677.8707 Q83.7402,675.5697 84.7107,674.3551 Q85.6812,673.1405 87.5244,673.1405 Q88.0432,673.1405 88.5193,673.2503 Q88.9954,673.3602 89.4104,673.5799 L89.4104,675.5819 Q88.9465,675.1546 88.5101,674.9563 Q88.0737,674.7579 87.6099,674.7579 Q86.6211,674.7579 86.1176,675.5422 Q85.614,676.3265 85.614,677.8707 Q85.614,679.4088 86.1176,680.1931 Q86.6211,680.9774 87.6099,680.9774 Q88.0737,680.9774 88.5101,680.779 Q88.9465,680.5806 89.4104,680.1534 Z " fill="#000000"/><text fill="#D8BC00" font-family="Open Sans,Avenir,Nunito,Arial,Helvetica,SansSerif" font-size="12.5" font-weight="bold" lengthAdjust="spacing" textLength="132.2917" x="110.4167" y="682.4544">SoftReferencedValue</text><rect fill="#333333" height="23.055" style="stroke:#A0A0A0;stroke-width:1.0416666666666667;stroke-dasharray:2.0,2.0;" width="16.6667" x="319.7917" y="658.9111"/><text fill="#A0A0A0" font-family="Open Sans,Avenir,Nunito,Arial,Helvetica,SansSerif" font-size="12.5" font-weight="bold" lengthAdjust="spacing" textLength="8.3333" x="323.9583" y="675.1628">T</text><line style="stroke:#5E5E5E;stroke-width:1.5625;" x1="8.3333" x2="332.2917" y1="693.4245" y2="693.4245"/><ellipse cx="18.75" cy="728.7944" fill="#84BE84" rx="3.125" ry="3.125" style="stroke:#038048;stroke-width:1.0416666666666667;"/><text fill="#D8BC00" font-family="Open Sans,Avenir,Nunito,Arial,Helvetica,SansSerif" font-size="11.4583" lengthAdjust="spacing" textLength="293.75" x="30.2083" y="735.7056">SoftReferencedValue(String, T, ReferenceQueue&lt;T&gt;)</text><line style="stroke:#5E5E5E;stroke-width:1.0416666666666667;" x1="8.3333" x2="126.5625" y1="711.6302" y2="711.6302"/><text fill="#D8BC00" font-family="Open Sans,Avenir,Nunito,Arial,Helvetica,SansSerif" font-size="11.4583" lengthAdjust="spacing" textLength="81.25" x="129.6875" y="715.4399">(constructors)</text><line style="stroke:#5E5E5E;stroke-width:1.0416666666666667;" x1="214.0625" x2="332.2917" y1="711.6302" y2="711.6302"/><!--MD5=[338301c8dc2545b1523253fe4d823025]
class VirtualReference--><rect codeLine="24" fill="#282828" height="242.4255" id="VirtualReference" rx="8.3333" ry="8.3333" style="stroke:#5E5E5E;stroke-width:1.0416666666666667;" width="292.7083" x="342.7083" y="333.9111"/><rect fill="#1B1B1A" height="31.3883" rx="8.3333" ry="8.3333" style="stroke:#1B1B1A;stroke-width:1.0416666666666667;" width="292.7083" x="342.7083" y="333.9111"/><rect fill="#1B1B1A" height="8.3333" style="stroke:#1B1B1A;stroke-width:1.0416666666666667;" width="292.7083" x="342.7083" y="356.9661"/><rect codeLine="24" fill="none" height="242.4255" id="VirtualReference" rx="8.3333" ry="8.3333" style="stroke:#5E5E5E;stroke-width:1.0416666666666667;" width="292.7083" x="342.7083" y="333.9111"/><ellipse cx="419.7917" cy="349.6053" fill="#C8AC00" rx="10.4167" ry="10.4167" style="stroke:#D8BC00;stroke-width:1.0416666666666667;"/><path d="M419.9056,346.3074 L419.0572,350.0366 L420.7601,350.0366 Z M418.807,344.6594 L421.0103,344.6594 L423.4701,353.772 L421.6695,353.772 L421.108,351.5198 L418.6971,351.5198 L418.1478,353.772 L416.3472,353.772 Z " fill="#000000"/><text fill="#D8BC00" font-family="Open Sans,Avenir,Nunito,Arial,Helvetica,SansSerif" font-size="12.5" font-style="italic" font-weight="bold" lengthAdjust="spacing" textLength="105.2083" x="442.7083" y="354.3294">VirtualReference</text><rect fill="#333333" height="23.055" style="stroke:#A0A0A0;stroke-width:1.0416666666666667;stroke-dasharray:2.0,2.0;" width="16.6667" x="621.875" y="330.7861"/><text fill="#A0A0A0" font-family="Open Sans,Avenir,Nunito,Arial,Helvetica,SansSerif" font-size="12.5" font-weight="bold" lengthAdjust="spacing" textLength="8.3333" x="626.0417" y="347.0378">T</text><line style="stroke:#5E5E5E;stroke-width:1.5625;" x1="343.75" x2="634.375" y1="365.2995" y2="365.2995"/><polygon fill="#FFFF44" points="354.1667,395.461,358.3333,399.6277,354.1667,403.7944,350,399.6277" style="stroke:#B38D22;stroke-width:1.0416666666666667;"/><text fill="#D8BC00" font-family="Open Sans,Avenir,Nunito,Arial,Helvetica,SansSerif" font-size="11.4583" lengthAdjust="spacing" textLength="260.4167" x="365.625" y="407.5806">VirtualReference(VirtualReferenceTracker&lt;T&gt;)</text><line style="stroke:#5E5E5E;stroke-width:1.0416666666666667;" x1="343.75" x2="445.3125" y1="383.5052" y2="383.5052"/><text fill="#D8BC00" font-family="Open Sans,Avenir,Nunito,Arial,Helvetica,SansSerif" font-size="11.4583" lengthAdjust="spacing" textLength="81.25" x="448.4375" y="387.3149">(constructors)</text><line style="stroke:#5E5E5E;stroke-width:1.0416666666666667;" x1="532.8125" x2="634.375" y1="383.5052" y2="383.5052"/><line style="stroke:#5E5E5E;stroke-width:1.0416666666666667;" x1="343.75" x2="634.375" y1="417.2892" y2="417.2892"/><ellipse cx="354.1667" cy="428.7476" fill="#84BE84" rx="3.125" ry="3.125" style="stroke:#038048;stroke-width:1.0416666666666667;"/><text fill="#D8BC00" font-family="Open Sans,Avenir,Nunito,Arial,Helvetica,SansSerif" font-size="11.4583" lengthAdjust="spacing" textLength="36.4583" x="365.625" y="435.6588">T get()</text><polygon fill="#FFFF44" points="354.1667,467.1956,358.3333,471.3623,354.1667,475.529,350,471.3623" style="stroke:#B38D22;stroke-width:1.0416666666666667;"/><text fill="#D8BC00" font-family="Open Sans,Avenir,Nunito,Arial,Helvetica,SansSerif" font-size="11.4583" lengthAdjust="spacing" textLength="60.4167" x="365.625" y="479.3152">T onLoad()</text><line style="stroke:#5E5E5E;stroke-width:1.0416666666666667;" x1="343.75" x2="434.8958" y1="455.2399" y2="455.2399"/><text fill="#D8BC00" font-family="Open Sans,Avenir,Nunito,Arial,Helvetica,SansSerif" font-size="11.4583" lengthAdjust="spacing" textLength="102.0833" x="438.0208" y="459.0495">(extension points)</text><line style="stroke:#5E5E5E;stroke-width:1.0416666666666667;" x1="543.2292" x2="634.375" y1="455.2399" y2="455.2399"/><polygon fill="#FFFF44" points="354.1667,510.8521,358.3333,515.0187,354.1667,519.1854,350,515.0187" style="stroke:#B38D22;stroke-width:1.0416666666666667;"/><text fill="#D8BC00" font-family="Open Sans,Avenir,Nunito,Arial,Helvetica,SansSerif" font-size="11.4583" lengthAdjust="spacing" textLength="75" x="365.625" y="522.9716">String name()</text><line style="stroke:#5E5E5E;stroke-width:1.0416666666666667;" x1="343.75" x2="460.9375" y1="498.8963" y2="498.8963"/><text fill="#D8BC00" font-family="Open Sans,Avenir,Nunito,Arial,Helvetica,SansSerif" font-size="11.4583" lengthAdjust="spacing" textLength="50" x="464.0625" y="502.7059">(naming)</text><line style="stroke:#5E5E5E;stroke-width:1.0416666666666667;" x1="517.1875" x2="634.375" y1="498.8963" y2="498.8963"/><polygon fill="#FFFF44" points="354.1667,554.5085,358.3333,558.6751,354.1667,562.8418,350,558.6751" style="stroke:#B38D22;stroke-width:1.0416666666666667;"/><text fill="#D8BC00" font-family="Open Sans,Avenir,Nunito,Arial,Helvetica,SansSerif" font-size="11.4583" lengthAdjust="spacing" textLength="108.3333" x="365.625" y="566.628">Bytes memorySize()</text><line style="stroke:#5E5E5E;stroke-width:1.0416666666666667;" x1="343.75" x2="457.2917" y1="542.5527" y2="542.5527"/><text fill="#D8BC00" font-family="Open Sans,Avenir,Nunito,Arial,Helvetica,SansSerif" font-size="11.4583" lengthAdjust="spacing" textLength="57.2917" x="460.4167" y="546.3623">(primitive)</text><line style="stroke:#5E5E5E;stroke-width:1.0416666666666667;" x1="520.8333" x2="634.375" y1="542.5527" y2="542.5527"/><!--MD5=[9d1e88dabe0bea5bbe7a5a1f11fd960e]
class WeakReferencedValue--><rect codeLine="55" fill="#282828" height="83.3781" id="WeakReferencedValue" rx="8.3333" ry="8.3333" style="stroke:#5E5E5E;stroke-width:1.0416666666666667;" width="332.2917" x="598.9583" y="662.0361"/><rect fill="#1B1B1A" height="31.3883" rx="8.3333" ry="8.3333" style="stroke:#1B1B1A;stroke-width:1.0416666666666667;" width="332.2917" x="598.9583" y="662.0361"/><rect fill="#1B1B1A" height="8.3333" style="stroke:#1B1B1A;stroke-width:1.0416666666666667;" width="332.2917" x="598.9583" y="685.0911"/><rect codeLine="55" fill="none" height="83.3781" id="WeakReferencedValue" rx="8.3333" ry="8.3333" style="stroke:#5E5E5E;stroke-width:1.0416666666666667;" width="332.2917" x="598.9583" y="662.0361"/><ellipse cx="678.125" cy="677.7303" fill="#0066CF" rx="10.4167" ry="10.4167" style="stroke:#0086EF;stroke-width:1.0416666666666667;"/><path d="M680.0354,682.1554 Q679.6082,682.3751 679.1382,682.4849 Q678.6682,682.5948 678.1494,682.5948 Q676.3062,682.5948 675.3357,681.3802 Q674.3652,680.1656 674.3652,677.8707 Q674.3652,675.5697 675.3357,674.3551 Q676.3062,673.1405 678.1494,673.1405 Q678.6682,673.1405 679.1443,673.2503 Q679.6204,673.3602 680.0354,673.5799 L680.0354,675.5819 Q679.5715,675.1546 679.1351,674.9563 Q678.6987,674.7579 678.2349,674.7579 Q677.2461,674.7579 676.7426,675.5422 Q676.239,676.3265 676.239,677.8707 Q676.239,679.4088 676.7426,680.1931 Q677.2461,680.9774 678.2349,680.9774 Q678.6987,680.9774 679.1351,680.779 Q679.5715,680.5806 680.0354,680.1534 Z " fill="#000000"/><text fill="#D8BC00" font-family="Open Sans,Avenir,Nunito,Arial,Helvetica,SansSerif" font-size="12.5" font-weight="bold" lengthAdjust="spacing" textLength="140.625" x="701.0417" y="682.4544">WeakReferencedValue</text><rect fill="#333333" height="23.055" style="stroke:#A0A0A0;stroke-width:1.0416666666666667;stroke-dasharray:2.0,2.0;" width="16.6667" x="917.7083" y="658.9111"/><text fill="#A0A0A0" font-family="Open Sans,Avenir,Nunito,Arial,Helvetica,SansSerif" font-size="12.5" font-weight="bold" lengthAdjust="spacing" textLength="8.3333" x="921.875" y="675.1628">T</text><line style="stroke:#5E5E5E;stroke-width:1.5625;" x1="600" x2="930.2083" y1="693.4245" y2="693.4245"/><ellipse cx="610.4167" cy="728.7944" fill="#84BE84" rx="3.125" ry="3.125" style="stroke:#038048;stroke-width:1.0416666666666667;"/><text fill="#D8BC00" font-family="Open Sans,Avenir,Nunito,Arial,Helvetica,SansSerif" font-size="11.4583" lengthAdjust="spacing" textLength="300" x="621.875" y="735.7056">WeakReferencedValue(String, T, ReferenceQueue&lt;T&gt;)</text><line style="stroke:#5E5E5E;stroke-width:1.0416666666666667;" x1="600" x2="721.3542" y1="711.6302" y2="711.6302"/><text fill="#D8BC00" font-family="Open Sans,Avenir,Nunito,Arial,Helvetica,SansSerif" font-size="11.4583" lengthAdjust="spacing" textLength="81.25" x="724.4792" y="715.4399">(constructors)</text><line style="stroke:#5E5E5E;stroke-width:1.0416666666666667;" x1="808.8542" x2="930.2083" y1="711.6302" y2="711.6302"/><!--MD5=[6e9bf0137200c3e6112b426293d8f7ce]
class VirtualReferenceTracker--><rect codeLine="41" fill="#282828" height="83.3781" id="VirtualReferenceTracker" rx="8.3333" ry="8.3333" style="stroke:#5E5E5E;stroke-width:1.0416666666666667;" width="329.1667" x="690.1042" y="165.1611"/><rect fill="#1B1B1A" height="31.3883" rx="8.3333" ry="8.3333" style="stroke:#1B1B1A;stroke-width:1.0416666666666667;" width="329.1667" x="690.1042" y="165.1611"/><rect fill="#1B1B1A" height="8.3333" style="stroke:#1B1B1A;stroke-width:1.0416666666666667;" width="329.1667" x="690.1042" y="188.2161"/><rect codeLine="41" fill="none" height="83.3781" id="VirtualReferenceTracker" rx="8.3333" ry="8.3333" style="stroke:#5E5E5E;stroke-width:1.0416666666666667;" width="329.1667" x="690.1042" y="165.1611"/><ellipse cx="761.4583" cy="180.8553" fill="#0066CF" rx="10.4167" ry="10.4167" style="stroke:#0086EF;stroke-width:1.0416666666666667;"/><path d="M763.3687,185.2804 Q762.9415,185.5001 762.4715,185.6099 Q762.0015,185.7198 761.4827,185.7198 Q759.6395,185.7198 758.669,184.5052 Q757.6986,183.2906 757.6986,180.9957 Q757.6986,178.6947 758.669,177.4801 Q759.6395,176.2655 761.4827,176.2655 Q762.0015,176.2655 762.4776,176.3753 Q762.9537,176.4852 763.3687,176.7049 L763.3687,178.7069 Q762.9049,178.2796 762.4685,178.0813 Q762.0321,177.8829 761.5682,177.8829 Q760.5794,177.8829 760.0759,178.6672 Q759.5723,179.4515 759.5723,180.9957 Q759.5723,182.5338 760.0759,183.3181 Q760.5794,184.1024 761.5682,184.1024 Q762.0321,184.1024 762.4685,183.904 Q762.9049,183.7056 763.3687,183.2784 Z " fill="#000000"/><text fill="#D8BC00" font-family="Open Sans,Avenir,Nunito,Arial,Helvetica,SansSerif" font-size="12.5" font-weight="bold" lengthAdjust="spacing" textLength="153.125" x="784.375" y="185.5794">VirtualReferenceTracker</text><rect fill="#333333" height="23.055" style="stroke:#A0A0A0;stroke-width:1.0416666666666667;stroke-dasharray:2.0,2.0;" width="16.6667" x="1005.7292" y="162.0361"/><text fill="#A0A0A0" font-family="Open Sans,Avenir,Nunito,Arial,Helvetica,SansSerif" font-size="12.5" font-weight="bold" lengthAdjust="spacing" textLength="8.3333" x="1009.8958" y="178.2878">T</text><line style="stroke:#5E5E5E;stroke-width:1.5625;" x1="691.1458" x2="1018.2292" y1="196.5495" y2="196.5495"/><ellipse cx="701.5625" cy="231.9194" fill="#84BE84" rx="3.125" ry="3.125" style="stroke:#038048;stroke-width:1.0416666666666667;"/><text fill="#D8BC00" font-family="Open Sans,Avenir,Nunito,Arial,Helvetica,SansSerif" font-size="11.4583" lengthAdjust="spacing" textLength="296.875" x="713.0208" y="238.8306">VirtualReferenceTracker(Bytes, VirtualReferenceType)</text><line style="stroke:#5E5E5E;stroke-width:1.0416666666666667;" x1="691.1458" x2="810.9375" y1="214.7552" y2="214.7552"/><text fill="#D8BC00" font-family="Open Sans,Avenir,Nunito,Arial,Helvetica,SansSerif" font-size="11.4583" lengthAdjust="spacing" textLength="81.25" x="814.0625" y="218.5649">(constructors)</text><line style="stroke:#5E5E5E;stroke-width:1.0416666666666667;" x1="898.4375" x2="1018.2292" y1="214.7552" y2="214.7552"/><!--MD5=[6414d7470511e7679d62ffdd5da6a239]
class VirtualReferenceType--><rect codeLine="47" fill="#282828" height="107.2896" id="VirtualReferenceType" rx="8.3333" ry="8.3333" style="stroke:#5E5E5E;stroke-width:1.0416666666666667;" width="173.9583" x="867.7083" y="401.6195"/><rect fill="#1B1B1A" height="31.3883" rx="8.3333" ry="8.3333" style="stroke:#1B1B1A;stroke-width:1.0416666666666667;" width="173.9583" x="867.7083" y="401.6195"/><rect fill="#1B1B1A" height="8.3333" style="stroke:#1B1B1A;stroke-width:1.0416666666666667;" width="173.9583" x="867.7083" y="424.6745"/><rect codeLine="47" fill="none" height="107.2896" id="VirtualReferenceType" rx="8.3333" ry="8.3333" style="stroke:#5E5E5E;stroke-width:1.0416666666666667;" width="173.9583" x="867.7083" y="401.6195"/><ellipse cx="882.2917" cy="417.3136" fill="#CF6300" rx="10.4167" ry="10.4167" style="stroke:#EF8300;stroke-width:1.0416666666666667;"/><path d="M885.3475,422.0011 L879.6712,422.0011 L879.6712,412.8886 L885.3475,412.8886 L885.3475,414.4755 L881.4718,414.4755 L881.4718,416.4408 L884.9813,416.4408 L884.9813,418.0278 L881.4718,418.0278 L881.4718,420.4142 L885.3475,420.4142 Z " fill="#000000"/><text fill="#D8BC00" font-family="Open Sans,Avenir,Nunito,Arial,Helvetica,SansSerif" font-size="12.5" font-weight="bold" lengthAdjust="spacing" textLength="136.4583" x="898.9583" y="422.0378">VirtualReferenceType</text><line style="stroke:#5E5E5E;stroke-width:1.0416666666666667;" x1="868.75" x2="1040.625" y1="433.0078" y2="433.0078"/><text fill="#D8BC00" font-family="Open Sans,Avenir,Nunito,Arial,Helvetica,SansSerif" font-size="11.4583" lengthAdjust="spacing" textLength="32.2917" x="877.0833" y="451.3774">NONE</text><text fill="#D8BC00" font-family="Open Sans,Avenir,Nunito,Arial,Helvetica,SansSerif" font-size="11.4583" lengthAdjust="spacing" textLength="29.1667" x="877.0833" y="471.1222">SOFT</text><text fill="#D8BC00" font-family="Open Sans,Avenir,Nunito,Arial,Helvetica,SansSerif" font-size="11.4583" lengthAdjust="spacing" textLength="31.25" x="877.0833" y="490.8671">WEAK</text><line style="stroke:#5E5E5E;stroke-width:1.0416666666666667;" x1="868.75" x2="1040.625" y1="500.5758" y2="500.5758"/><!--MD5=[c2eae50d6b6880c7fc93ff5f00a94aa3]
class WeakReference--><rect fill="#282828" height="48.055" id="WeakReference" rx="8.3333" ry="8.3333" style="stroke:#5E5E5E;stroke-width:1.0416666666666667;" width="134.375" x="696.875" y="431.307"/><rect fill="#1B1B1A" height="31.3883" rx="8.3333" ry="8.3333" style="stroke:#1B1B1A;stroke-width:1.0416666666666667;" width="134.375" x="696.875" y="431.307"/><rect fill="#1B1B1A" height="8.3333" style="stroke:#1B1B1A;stroke-width:1.0416666666666667;" width="134.375" x="696.875" y="454.362"/><rect fill="none" height="48.055" id="WeakReference" rx="8.3333" ry="8.3333" style="stroke:#5E5E5E;stroke-width:1.0416666666666667;" width="134.375" x="696.875" y="431.307"/><ellipse cx="711.4583" cy="447.0011" fill="#0066CF" rx="10.4167" ry="10.4167" style="stroke:#0086EF;stroke-width:1.0416666666666667;"/><path d="M713.3687,451.4262 Q712.9415,451.6459 712.4715,451.7558 Q712.0015,451.8656 711.4827,451.8656 Q709.6395,451.8656 708.669,450.651 Q707.6986,449.4364 707.6986,447.1415 Q707.6986,444.8405 708.669,443.6259 Q709.6395,442.4113 711.4827,442.4113 Q712.0015,442.4113 712.4776,442.5212 Q712.9537,442.631 713.3687,442.8507 L713.3687,444.8527 Q712.9049,444.4255 712.4685,444.2271 Q712.0321,444.0287 711.5682,444.0287 Q710.5794,444.0287 710.0759,444.813 Q709.5723,445.5973 709.5723,447.1415 Q709.5723,448.6796 710.0759,449.4639 Q710.5794,450.2482 711.5682,450.2482 Q712.0321,450.2482 712.4685,450.0498 Q712.9049,449.8515 713.3687,449.4242 Z " fill="#000000"/><text fill="#D8BC00" font-family="Open Sans,Avenir,Nunito,Arial,Helvetica,SansSerif" font-size="12.5" font-weight="bold" lengthAdjust="spacing" textLength="96.875" x="728.125" y="451.7253">WeakReference</text><line style="stroke:#5E5E5E;stroke-width:1.0416666666666667;" x1="697.9167" x2="830.2083" y1="462.6953" y2="462.6953"/><line style="stroke:#5E5E5E;stroke-width:1.0416666666666667;" x1="697.9167" x2="830.2083" y1="471.0286" y2="471.0286"/><!--MD5=[6a7f215a465a38ce84a279bf332c9cc0]
reverse link SoftReference to SoftReferencedValue--><path codeLine="14" d="M170.3125,500.5986 C170.3125,546.432 170.3125,617.432 170.3125,661.9111 " fill="none" id="SoftReference-backto-SoftReferencedValue" style="stroke:#545454;stroke-width:1.5625;"/><polygon fill="none" points="163.0208,500.3174,170.3125,479.484,177.6042,500.3174,163.0208,500.3174" style="stroke:#545454;stroke-width:1.5625;"/><!--MD5=[7ef6c2c103e3c639ef2ca8b937772ca7]
link VirtualReference to HardReferencedValue--><path codeLine="21" d="M467.3542,576.8695 C466.0208,587.3278 464.8854,597.7653 464.0625,607.8695 C463.2292,618.0257 463.9167,620.5986 464.0625,630.7861 C464.1875,639.1611 464.3854,648.0778 464.6146,656.682 " fill="none" id="VirtualReference-to-HardReferencedValue" style="stroke:#545454;stroke-width:1.5625;"/><polygon fill="#545454" points="464.7604,661.9945,468.6576,652.5043,464.6117,656.7883,460.3277,652.7423,464.7604,661.9945" style="stroke:#545454;stroke-width:1.5625;"/><text fill="#A0A0A0" font-family="Open Sans,Avenir,Nunito,Arial,Helvetica,SansSerif" font-size="12.5" font-weight="bold" lengthAdjust="spacing" textLength="107.2917" x="468.2292" y="624.1211">can take form of</text><!--MD5=[771b3c432a17496d4853c0a03e38a675]
link VirtualReference to SoftReferencedValue--><path codeLine="22" d="M342.2813,569.7445 C301.4688,601.2965 259.5521,633.6924 227.3125,658.609 " fill="none" id="VirtualReference-to-SoftReferencedValue" style="stroke:#545454;stroke-width:1.5625;"/><polygon fill="#545454" points="223.0313,661.9111,232.9975,659.4769,227.1529,658.7269,227.9028,652.8823,223.0313,661.9111" style="stroke:#545454;stroke-width:1.5625;"/><text fill="#A0A0A0" font-family="Open Sans,Avenir,Nunito,Arial,Helvetica,SansSerif" font-size="12.5" font-weight="bold" lengthAdjust="spacing" textLength="107.2917" x="296.3542" y="624.1211">can take form of</text><!--MD5=[8c5b905f1ac118dc590ca6081310185d]
link VirtualReference to WeakReferencedValue--><path codeLine="23" d="M583.9583,576.9007 C601.5938,596.0049 620.625,614.7236 640.1042,630.7861 C652.4271,640.9424 666.3646,650.5049 680.3542,659.1299 " fill="none" id="VirtualReference-to-WeakReferencedValue" style="stroke:#545454;stroke-width:1.5625;"/><polygon fill="#545454" points="685.1042,662.0257,679.2831,653.5778,680.6618,659.3068,674.9328,660.6856,685.1042,662.0257" style="stroke:#545454;stroke-width:1.5625;"/><text fill="#A0A0A0" font-family="Open Sans,Avenir,Nunito,Arial,Helvetica,SansSerif" font-size="12.5" font-weight="bold" lengthAdjust="spacing" textLength="107.2917" x="644.2708" y="624.1211">can take form of</text><!--MD5=[5c332aac3c0e5dd21ab4147cf9ea8bc5]
reverse link BaseRepeater to VirtualReferenceTracker--><path codeLine="38" d="M854.6875,122.9424 C854.6875,136.5882 854.6875,151.5465 854.6875,164.9528 " fill="none" id="BaseRepeater-backto-VirtualReferenceTracker" style="stroke:#545454;stroke-width:1.5625;"/><polygon fill="none" points="847.3958,122.5465,854.6875,101.7132,861.9792,122.5465,847.3958,122.5465" style="stroke:#545454;stroke-width:1.5625;"/><!--MD5=[31e53c7fa72b9aacf9ff5c4fbcf022ec]
reverse link VirtualReferenceTracker to VirtualReferenceType--><path codeLine="39" d="M876.3229,261.1611 C893.1771,302.6924 916.4583,360.0465 933.2604,401.4424 " fill="none" id="VirtualReferenceTracker-backto-VirtualReferenceType" style="stroke:#545454;stroke-width:1.5625;"/><polygon fill="#333333" points="871.1979,248.5465,869.6865,255.9045,875.8971,260.1296,877.4085,252.7717,871.1979,248.5465" style="stroke:#545454;stroke-width:1.5625;"/><!--MD5=[6bac524e3c123689ba3c0014d6b909dd]
reverse link VirtualReferenceTracker to VirtualReference--><path codeLine="40" d="M751.9896,255.0257 C737.2292,262.7861 722.4583,271.1299 708.8542,279.7445 C683.125,296.0361 656.8646,314.7653 631.8542,333.7861 " fill="none" id="VirtualReferenceTracker-backto-VirtualReference" style="stroke:#545454;stroke-width:1.5625;"/><polygon fill="#333333" points="764.3542,248.6507,756.8897,247.8107,753.2433,254.3778,760.7078,255.2179,764.3542,248.6507" style="stroke:#545454;stroke-width:1.5625;"/><text fill="#A0A0A0" font-family="Open Sans,Avenir,Nunito,Arial,Helvetica,SansSerif" font-size="12.5" font-weight="bold" lengthAdjust="spacing" textLength="158.3333" x="713.0208" y="295.9961">loads, weakens, hardens</text><text fill="#A0A0A0" font-family="Open Sans,Avenir,Nunito,Arial,Helvetica,SansSerif" font-size="12.5" font-weight="bold" lengthAdjust="spacing" textLength="8.3333" x="737.3368" y="272.1938">1</text><text fill="#A0A0A0" font-family="Open Sans,Avenir,Nunito,Arial,Helvetica,SansSerif" font-size="12.5" font-weight="bold" lengthAdjust="spacing" textLength="6.25" x="631.2264" y="319.7267">*</text><!--MD5=[96e2822c2de6f31c1214038729e98391]
reverse link WeakReference to WeakReferencedValue--><path codeLine="54" d="M764.25,500.5986 C764.4479,546.432 764.7396,617.432 764.9271,661.9111 " fill="none" id="WeakReference-backto-WeakReferencedValue" style="stroke:#545454;stroke-width:1.5625;"/><polygon fill="none" points="756.9583,500.3486,764.1563,479.484,771.5417,500.2861,756.9583,500.3486" style="stroke:#545454;stroke-width:1.5625;"/><!--MD5=[87e46bf5c8e2468c07927f981882c323]
@startuml

    !include ../lexakai/lexakai.theme
    
    title "diagram-language-object-reference"
    
    abstract BaseRepeater
    
    class HardReferencedValue<T>
    {
        - -(constructors)- -
        +HardReferencedValue(T)
    }
    
    SoftReference <|- - SoftReferencedValue
    class SoftReferencedValue<T>
    {
        - -(constructors)- -
        +SoftReferencedValue(String, T, ReferenceQueue<T>)
    }
    
    VirtualReference - -> HardReferencedValue : "can take form of"
    VirtualReference - -> SoftReferencedValue : "can take form of"
    VirtualReference - -> WeakReferencedValue : "can take form of"
    abstract class VirtualReference<T>
    {
        - -(constructors)- -
        #VirtualReference(VirtualReferenceTracker<T>)
        - -
        +T get()
        - -(extension points)- -
        #T onLoad()
        - -(naming)- -
        #String name()
        - -(primitive)- -
        #Bytes memorySize()
    }
    
    BaseRepeater <|- - VirtualReferenceTracker
    VirtualReferenceTracker o- - VirtualReferenceType
    VirtualReferenceTracker "1" o- - "*" VirtualReference : "loads, weakens, hardens"
    class VirtualReferenceTracker<T>
    {
        - -(constructors)- -
        +VirtualReferenceTracker(Bytes, VirtualReferenceType)
    }
    
    enum VirtualReferenceType
    {
        NONE
        SOFT
        WEAK
    }
    
    WeakReference <|- - WeakReferencedValue
    class WeakReferencedValue<T>
    {
        - -(constructors)- -
        +WeakReferencedValue(String, T, ReferenceQueue<T>)
    }
    
@enduml

@startuml









skinparam backgroundColor #333333






skinparam  {
    defaultFontName   "Open Sans,Avenir,Nunito,Arial,Helvetica,SansSerif"
    defaultFontSize   12
    defaultTextAlignment left
    shadowing false
    RoundCorner 10
    TitleFontSize 18
}

skinparam defaultFontName       "Open Sans,Avenir,Nunito,Arial,Helvetica,SansSerif"
skinparam defaultFontSize       12
skinparam dpi                   100
skinparam shadowing             false
skinparam roundcorner           16
skinparam ParticipantPadding    40
skinparam BoxPadding            40
skinparam Padding               3
skinparam ArrowColor            #545454
skinparam stereotype {
    CBackgroundColor #0066cf
    CBorderColor #0086ef
    ABackgroundColor #C8Ac00
    ABorderColor #D8Bc00
    IBackgroundColor #008400
    IBorderColor #239c23
    EBackgroundColor #cf6300
    EBorderColor #ef8300
    NBackgroundColor #3380b9
    NBorderColor #004d86
}
skinparam title {
	FontColor	                 #c0c0c0
 	BorderColor                  #545454
	FontSize	    	         20
	BorderRoundCorner            16
	BorderThickness 	         1
	BackgroundColor              #48494b
}


skinparam legend {
	BackgroundColor #303030
	BorderColor #404040
	FontColor #a0a0a0
}

	skinparam swimlane {
	BorderColor #5e5e5e
	BorderThickness 2
	TitleBackgroundColor  #6d6d6d-#484848
	TitleFontColor #303030
}

skinparam activity {
		FontColor #C8Ac00
	BorderColor #333333
	BackgroundColor #333333-#333333
	BarColor #00FF00
	StartColor #0060a8
	EndColor #0060a8
	DiamondBackgroundColor #6d6d6d-#3a3a3a
  	DiamondBorderColor #3a3a3a
  	DiamondFontColor #fefefe
}


skinparam participant {
		FontColor #C8Ac00
	BorderColor #333333
	BackgroundColor #333333-#333333
	ParticipantBorderThickness 2
}


skinparam actor {
		FontColor #C8Ac00
	BorderColor #333333
	BackgroundColor #333333-#333333
}


skinparam arrow {
	Thickness 1.5
	Color #545454
	FontColor #a0a0a0
    FontStyle bold
    MessageAlignment center
}



skinparam sequence {
	BorderColor #303030
	TitleFontColor #303030
	BackgroundColor #333333
	StartColor #303030
	EndColor #303030
	BoxBackgroundColor #333333
	BoxBorderColor #484848
	BoxFontColor #484848
	LifeLineBorderColor #484848
	LifeLineBorderThickness 2
	LifeLineBackgroundColor #3a3a3a
	GroupBorderColor #484848
	GroupFontColor #484848
	GroupHeaderFontColor #0060a8
	GroupBackgroundColor #484848
	GroupHeaderBackgroundColor #333333
	DividerBackgroundColor #484848
    DividerBorderColor #484848
    DividerBorderThickness 2
    DividerFontColor #D8Bc00
	ReferenceBackgroundColor #333333
	ReferenceBorderColor #484848
	ReferenceFontColor #fefefe
	ReferenceHeaderBackgroundColor #484848
}


skinparam partition {
	BorderColor #303030
	FontColor #333333
	BackgroundColor #333333
}


skinparam collections {
		FontColor #C8Ac00
	BorderColor #333333
	BackgroundColor #333333-#333333
}


skinparam control {
		FontColor #C8Ac00
	BorderColor #333333
	BackgroundColor #333333-#333333
}


skinparam entity {
		FontColor #C8Ac00
	BorderColor #333333
	BackgroundColor #333333-#333333
}


skinparam boundary {
		FontColor #C8Ac00
	BorderColor #333333
	BackgroundColor #333333-#333333
}


skinparam agent {
	BackgroundColor #ff8000
	BorderColor #ff9933
	FontColor #484848
}


skinparam note {
	BorderThickness 1
	BackgroundColor #1b1b1a
	BorderColor #5e5e5e
	FontSize 11
	FontColor #a0a0a0
}


skinparam artifact {
	BorderThickness 10
	BorderColor #5e5e5e
	BackgroundColor #1b1b1a
	FontColor #D8Bc00
}


skinparam component {
		FontColor #C8Ac00
	BorderColor #333333
	BackgroundColor #333333-#333333
}


skinparam interface {
	BackgroundColor  #008400
	BorderColor  #007F00
	FontColor #484848
}


skinparam storage {
	BackgroundColor #ff8000
  	BorderColor #cc6600
	FontColor #222222
}


skinparam node {
	BackgroundColor #333333
	BorderColor #333333
	FontColor #C8Ac00
}


skinparam cloud {
	BackgroundColor #484848-black
	BorderColor #484848
	FontColor #D8Bc00
}


skinparam database {
		FontColor #C8Ac00
	BorderColor #333333
	BackgroundColor #333333-#333333
	BackgroundColor  #333333
}


skinparam class {
		FontColor #C8Ac00
	BorderColor #333333
	BackgroundColor #333333-#333333
	HeaderBackgroundColor #1b1b1a
    BackgroundColor #282828
    BorderColor #5e5e5e
 	StereotypeFontColor #a0a0a0
    StereotypeFontStyle bold
	BorderThickness 1
	AttributeFontColor #D8Bc00
	AttributeFontSize 11
    FontColor #D8Bc00
    FontStyle bold
}


skinparam object {
		FontColor #C8Ac00
	BorderColor #333333
	BackgroundColor #333333-#333333
	StereotypeFontColor #484848
	BorderThickness 1
	AttributeFontColor #fefefe
	AttributeFontSize 11
}


skinparam usecase {
		FontColor #C8Ac00
	BorderColor #333333
	BackgroundColor #333333-#333333
	BorderThickness 2
	StereotypeFontColor #303030
}


skinparam rectangle {
		FontColor #C8Ac00
	BorderColor #333333
	BackgroundColor #333333-#333333
	BackgroundColor #333333
	BorderThickness 2
	StereotypeFontColor #303030
}


skinparam package {
		FontColor #C8Ac00
	BorderColor #333333
	BackgroundColor #333333-#333333
	BackgroundColor #333333
	BorderThickness 2
}


skinparam folder {
	BackgroundColor #6d6d6d
  	BorderColor #ff8000
	FontColor #ff8000
	BorderThickness 2
}


skinparam frame {
	BackgroundColor #6d6d6d
  	BorderColor #0060a8
	FontColor #0060a8
	BorderThickness 2
}


skinparam state {
		FontColor #C8Ac00
	BorderColor #333333
	BackgroundColor #333333-#333333
	StartColor #0060a8
	EndColor #0060a8
	AttributeFontColor #fefefe
	AttributeFontSize 11
}


skinparam queue {
		FontColor #C8Ac00
	BorderColor #333333
	BackgroundColor #333333-#333333
}


skinparam card {
	BackgroundColor #0060a8
	BorderColor #004d86
	FontColor $INFO_TEXT
}


skinparam file {
	BackgroundColor #6d6d6d-#484848
	BorderColor #0060a8
	FontColor #fefefe
}


skinparam stack {
		FontColor #C8Ac00
	BorderColor #333333
	BackgroundColor #333333-#333333
}

    
    title "diagram-language-object-reference"
    
    abstract BaseRepeater
    
    class HardReferencedValue<T>
    {
        - -(constructors)- -
        +HardReferencedValue(T)
    }
    
    SoftReference <|- - SoftReferencedValue
    class SoftReferencedValue<T>
    {
        - -(constructors)- -
        +SoftReferencedValue(String, T, ReferenceQueue<T>)
    }
    
    VirtualReference - -> HardReferencedValue : "can take form of"
    VirtualReference - -> SoftReferencedValue : "can take form of"
    VirtualReference - -> WeakReferencedValue : "can take form of"
    abstract class VirtualReference<T>
    {
        - -(constructors)- -
        #VirtualReference(VirtualReferenceTracker<T>)
        - -
        +T get()
        - -(extension points)- -
        #T onLoad()
        - -(naming)- -
        #String name()
        - -(primitive)- -
        #Bytes memorySize()
    }
    
    BaseRepeater <|- - VirtualReferenceTracker
    VirtualReferenceTracker o- - VirtualReferenceType
    VirtualReferenceTracker "1" o- - "*" VirtualReference : "loads, weakens, hardens"
    class VirtualReferenceTracker<T>
    {
        - -(constructors)- -
        +VirtualReferenceTracker(Bytes, VirtualReferenceType)
    }
    
    enum VirtualReferenceType
    {
        NONE
        SOFT
        WEAK
    }
    
    WeakReference <|- - WeakReferencedValue
    class WeakReferencedValue<T>
    {
        - -(constructors)- -
        +WeakReferencedValue(String, T, ReferenceQueue<T>)
    }
    
@enduml

PlantUML version 1.2021.01(Tue Feb 02 00:55:08 MST 2021)
(GPL source distribution)
Java Runtime: Java(TM) SE Runtime Environment
JVM: Java HotSpot(TM) 64-Bit Server VM
Default Encoding: UTF-8
Language: en
Country: US
--></g></svg>