<?xml version="1.0" encoding="UTF-8" standalone="no"?><svg xmlns="http://www.w3.org/2000/svg" xmlns:xlink="http://www.w3.org/1999/xlink" contentScriptType="application/ecmascript" contentStyleType="text/css" height="1443.75px" preserveAspectRatio="none" style="width:765px;height:1443px;background:#333333;" version="1.1" viewBox="0 0 765 1443" width="765.625px" zoomAndPan="magnify"><defs/><g><rect fill="#48494B" height="41.2028" rx="8.3333" ry="8.3333" style="stroke:#545454;stroke-width:1.0416666666666667;" width="253.125" x="249.2188" y="2.0833"/><text fill="#C0C0C0" font-family="Open Sans,Avenir,Nunito,Arial,Helvetica,SansSerif" font-size="20.8333" lengthAdjust="spacing" textLength="230.2083" x="260.6771" y="30.5583">Messaging - Repeating</text><!--MD5=[f88cb515565b0b9054f157534f6af3e3]
class PackagePathed--><rect codeLine="6" fill="#282828" height="48.055" id="PackagePathed" rx="8.3333" ry="8.3333" style="stroke:#5E5E5E;stroke-width:1.0416666666666667;" width="133.3333" x="187.5" y="266.2028"/><rect fill="#1B1B1A" height="31.3883" rx="8.3333" ry="8.3333" style="stroke:#1B1B1A;stroke-width:1.0416666666666667;" width="133.3333" x="187.5" y="266.2028"/><rect fill="#1B1B1A" height="8.3333" style="stroke:#1B1B1A;stroke-width:1.0416666666666667;" width="133.3333" x="187.5" y="289.2578"/><rect codeLine="6" fill="none" height="48.055" id="PackagePathed" rx="8.3333" ry="8.3333" style="stroke:#5E5E5E;stroke-width:1.0416666666666667;" width="133.3333" x="187.5" y="266.2028"/><ellipse cx="202.0833" cy="281.897" fill="#008400" rx="10.4167" ry="10.4167" style="stroke:#239C23;stroke-width:1.0416666666666667;"/><path d="M198.9665,279.0588 L198.9665,277.4719 L204.3925,277.4719 L204.3925,279.0588 L202.5798,279.0588 L202.5798,284.9976 L204.3925,284.9976 L204.3925,286.5845 L198.9665,286.5845 L198.9665,284.9976 L200.7792,284.9976 L200.7792,279.0588 Z " fill="#000000"/><text fill="#D8BC00" font-family="Open Sans,Avenir,Nunito,Arial,Helvetica,SansSerif" font-size="12.5" font-style="italic" font-weight="bold" lengthAdjust="spacing" textLength="95.8333" x="218.75" y="286.6211">PackagePathed</text><line style="stroke:#5E5E5E;stroke-width:1.0416666666666667;" x1="188.5417" x2="319.7917" y1="297.5911" y2="297.5911"/><line style="stroke:#5E5E5E;stroke-width:1.0416666666666667;" x1="188.5417" x2="319.7917" y1="305.9245" y2="305.9245"/><!--MD5=[5ec8c00c13391aeaac8c08bdf7a77295]
class Repeater--><rect codeLine="84" fill="#282828" height="48.055" id="Repeater" rx="8.3333" ry="8.3333" style="stroke:#5E5E5E;stroke-width:1.0416666666666667;" width="93.75" x="393.75" y="1182.8695"/><rect fill="#1B1B1A" height="31.3883" rx="8.3333" ry="8.3333" style="stroke:#1B1B1A;stroke-width:1.0416666666666667;" width="93.75" x="393.75" y="1182.8695"/><rect fill="#1B1B1A" height="8.3333" style="stroke:#1B1B1A;stroke-width:1.0416666666666667;" width="93.75" x="393.75" y="1205.9245"/><rect codeLine="84" fill="none" height="48.055" id="Repeater" rx="8.3333" ry="8.3333" style="stroke:#5E5E5E;stroke-width:1.0416666666666667;" width="93.75" x="393.75" y="1182.8695"/><ellipse cx="408.3333" cy="1198.5636" fill="#008400" rx="10.4167" ry="10.4167" style="stroke:#239C23;stroke-width:1.0416666666666667;"/><path d="M405.2165,1195.7255 L405.2165,1194.1386 L410.6425,1194.1386 L410.6425,1195.7255 L408.8298,1195.7255 L408.8298,1201.6642 L410.6425,1201.6642 L410.6425,1203.2511 L405.2165,1203.2511 L405.2165,1201.6642 L407.0292,1201.6642 L407.0292,1195.7255 Z " fill="#000000"/><text fill="#D8BC00" font-family="Open Sans,Avenir,Nunito,Arial,Helvetica,SansSerif" font-size="12.5" font-style="italic" font-weight="bold" lengthAdjust="spacing" textLength="56.25" x="425" y="1203.2878">Repeater</text><line style="stroke:#5E5E5E;stroke-width:1.0416666666666667;" x1="394.7917" x2="486.4583" y1="1214.2578" y2="1214.2578"/><line style="stroke:#5E5E5E;stroke-width:1.0416666666666667;" x1="394.7917" x2="486.4583" y1="1222.5911" y2="1222.5911"/><!--MD5=[44642bf1951becf690e71f855555764a]
class Broadcaster--><rect codeLine="80" fill="#282828" height="249.6704" id="Broadcaster" rx="8.3333" ry="8.3333" style="stroke:#5E5E5E;stroke-width:1.0416666666666667;" width="325" x="357.2917" y="165.1611"/><rect fill="#1B1B1A" height="31.3883" rx="8.3333" ry="8.3333" style="stroke:#1B1B1A;stroke-width:1.0416666666666667;" width="325" x="357.2917" y="165.1611"/><rect fill="#1B1B1A" height="8.3333" style="stroke:#1B1B1A;stroke-width:1.0416666666666667;" width="325" x="357.2917" y="188.2161"/><rect codeLine="80" fill="none" height="249.6704" id="Broadcaster" rx="8.3333" ry="8.3333" style="stroke:#5E5E5E;stroke-width:1.0416666666666667;" width="325" x="357.2917" y="165.1611"/><ellipse cx="474.4792" cy="180.8553" fill="#008400" rx="10.4167" ry="10.4167" style="stroke:#239C23;stroke-width:1.0416666666666667;"/><path d="M471.3623,178.0172 L471.3623,176.4303 L476.7883,176.4303 L476.7883,178.0172 L474.9756,178.0172 L474.9756,183.9559 L476.7883,183.9559 L476.7883,185.5428 L471.3623,185.5428 L471.3623,183.9559 L473.175,183.9559 L473.175,178.0172 Z " fill="#000000"/><text fill="#D8BC00" font-family="Open Sans,Avenir,Nunito,Arial,Helvetica,SansSerif" font-size="12.5" font-style="italic" font-weight="bold" lengthAdjust="spacing" textLength="76.0417" x="497.3958" y="185.5794">Broadcaster</text><line style="stroke:#5E5E5E;stroke-width:1.5625;" x1="358.3333" x2="681.25" y1="196.5495" y2="196.5495"/><line style="stroke:#5E5E5E;stroke-width:1.0416666666666667;" x1="358.3333" x2="681.25" y1="204.8828" y2="204.8828"/><ellipse cx="368.75" cy="216.3411" fill="#84BE84" rx="3.125" ry="3.125" style="stroke:#038048;stroke-width:1.0416666666666667;"/><text fill="#D8BC00" font-family="Open Sans,Avenir,Nunito,Arial,Helvetica,SansSerif" font-size="11.4583" lengthAdjust="spacing" textLength="73.9583" x="380.2083" y="223.2524">void silence()</text><ellipse cx="368.75" cy="259.9976" fill="#84BE84" rx="3.125" ry="3.125" style="stroke:#038048;stroke-width:1.0416666666666667;"/><text fill="#D8BC00" font-family="Open Sans,Avenir,Nunito,Arial,Helvetica,SansSerif" font-size="11.4583" lengthAdjust="spacing" textLength="145.8333" x="380.2083" y="266.9088">void addListener(Listener)</text><ellipse cx="368.75" cy="279.7424" fill="#84BE84" rx="3.125" ry="3.125" style="stroke:#038048;stroke-width:1.0416666666666667;"/><text fill="#D8BC00" font-family="Open Sans,Avenir,Nunito,Arial,Helvetica,SansSerif" font-size="11.4583" lengthAdjust="spacing" textLength="276.0417" x="380.2083" y="286.6536">void addListener(Listener, Filter&lt;Transmittable&gt;)</text><ellipse cx="368.75" cy="299.4873" fill="#84BE84" rx="3.125" ry="3.125" style="stroke:#038048;stroke-width:1.0416666666666667;"/><text fill="#D8BC00" font-family="Open Sans,Avenir,Nunito,Arial,Helvetica,SansSerif" font-size="11.4583" lengthAdjust="spacing" textLength="113.5417" x="380.2083" y="306.3985">void clearListeners()</text><ellipse cx="368.75" cy="319.2322" fill="#84BE84" rx="3.125" ry="3.125" style="stroke:#038048;stroke-width:1.0416666666666667;"/><text fill="#D8BC00" font-family="Open Sans,Avenir,Nunito,Arial,Helvetica,SansSerif" font-size="11.4583" lengthAdjust="spacing" textLength="127.0833" x="380.2083" y="326.1434">boolean hasListeners()</text><ellipse cx="368.75" cy="338.9771" fill="#84BE84" rx="3.125" ry="3.125" style="stroke:#038048;stroke-width:1.0416666666666667;"/><text fill="#D8BC00" font-family="Open Sans,Avenir,Nunito,Arial,Helvetica,SansSerif" font-size="11.4583" lengthAdjust="spacing" textLength="229.1667" x="380.2083" y="345.8883">void onTransmit(Transmittable message)</text><ellipse cx="368.75" cy="358.7219" fill="#84BE84" rx="3.125" ry="3.125" style="stroke:#038048;stroke-width:1.0416666666666667;"/><text fill="#D8BC00" font-family="Open Sans,Avenir,Nunito,Arial,Helvetica,SansSerif" font-size="11.4583" lengthAdjust="spacing" textLength="166.6667" x="380.2083" y="365.6331">void removeListener(Listener)</text><ellipse cx="368.75" cy="378.4668" fill="#84BE84" rx="3.125" ry="3.125" style="stroke:#038048;stroke-width:1.0416666666666667;"/><text fill="#D8BC00" font-family="Open Sans,Avenir,Nunito,Arial,Helvetica,SansSerif" font-size="11.4583" lengthAdjust="spacing" textLength="130.2083" x="380.2083" y="385.378">void transmit(Message)</text><ellipse cx="368.75" cy="398.2117" fill="#84BE84" rx="3.125" ry="3.125" style="stroke:#038048;stroke-width:1.0416666666666667;"/><text fill="#D8BC00" font-family="Open Sans,Avenir,Nunito,Arial,Helvetica,SansSerif" font-size="11.4583" lengthAdjust="spacing" textLength="292.7083" x="380.2083" y="405.1229">void transmitAll(Iterable&lt;Transmittable&gt; messages)</text><line style="stroke:#5E5E5E;stroke-width:1.0416666666666667;" x1="358.3333" x2="482.2917" y1="242.8335" y2="242.8335"/><text fill="#D8BC00" font-family="Open Sans,Avenir,Nunito,Arial,Helvetica,SansSerif" font-size="11.4583" lengthAdjust="spacing" textLength="68.75" x="485.4167" y="246.6431">(messaging)</text><line style="stroke:#5E5E5E;stroke-width:1.0416666666666667;" x1="557.2917" x2="681.25" y1="242.8335" y2="242.8335"/><!--MD5=[a55b2a1f62e9d2a601cfebbabb1e84b9]
class AudienceMember--><rect codeLine="12" fill="#282828" height="103.123" id="AudienceMember" rx="8.3333" ry="8.3333" style="stroke:#5E5E5E;stroke-width:1.0416666666666667;" width="236.4583" x="148.4375" y="809.9528"/><rect fill="#1B1B1A" height="31.3883" rx="8.3333" ry="8.3333" style="stroke:#1B1B1A;stroke-width:1.0416666666666667;" width="236.4583" x="148.4375" y="809.9528"/><rect fill="#1B1B1A" height="8.3333" style="stroke:#1B1B1A;stroke-width:1.0416666666666667;" width="236.4583" x="148.4375" y="833.0078"/><rect codeLine="12" fill="none" height="103.123" id="AudienceMember" rx="8.3333" ry="8.3333" style="stroke:#5E5E5E;stroke-width:1.0416666666666667;" width="236.4583" x="148.4375" y="809.9528"/><ellipse cx="203.6458" cy="825.647" fill="#0066CF" rx="10.4167" ry="10.4167" style="stroke:#0086EF;stroke-width:1.0416666666666667;"/><path d="M205.5562,830.072 Q205.129,830.2917 204.659,830.4016 Q204.189,830.5115 203.6702,830.5115 Q201.827,830.5115 200.8565,829.2969 Q199.8861,828.0823 199.8861,825.7874 Q199.8861,823.4863 200.8565,822.2717 Q201.827,821.0571 203.6702,821.0571 Q204.189,821.0571 204.6651,821.167 Q205.1412,821.2769 205.5562,821.4966 L205.5562,823.4985 Q205.0924,823.0713 204.656,822.8729 Q204.2196,822.6746 203.7557,822.6746 Q202.7669,822.6746 202.2634,823.4589 Q201.7598,824.2432 201.7598,825.7874 Q201.7598,827.3254 202.2634,828.1097 Q202.7669,828.894 203.7557,828.894 Q204.2196,828.894 204.656,828.6957 Q205.0924,828.4973 205.5562,828.0701 Z " fill="#000000"/><text fill="#D8BC00" font-family="Open Sans,Avenir,Nunito,Arial,Helvetica,SansSerif" font-size="12.5" font-weight="bold" lengthAdjust="spacing" textLength="111.4583" x="226.5625" y="830.3711">AudienceMember</text><line style="stroke:#5E5E5E;stroke-width:1.5625;" x1="149.4792" x2="383.8542" y1="841.3411" y2="841.3411"/><ellipse cx="159.8958" cy="876.711" fill="#84BE84" rx="3.125" ry="3.125" style="stroke:#038048;stroke-width:1.0416666666666667;"/><text fill="#D8BC00" font-family="Open Sans,Avenir,Nunito,Arial,Helvetica,SansSerif" font-size="11.4583" lengthAdjust="spacing" textLength="97.9167" x="171.3542" y="883.6222">Listener listener()</text><ellipse cx="159.8958" cy="896.4559" fill="#84BE84" rx="3.125" ry="3.125" style="stroke:#038048;stroke-width:1.0416666666666667;"/><text fill="#D8BC00" font-family="Open Sans,Avenir,Nunito,Arial,Helvetica,SansSerif" font-size="11.4583" lengthAdjust="spacing" textLength="204.1667" x="171.3542" y="903.3671">void receive(Transmittable message)</text><line style="stroke:#5E5E5E;stroke-width:1.0416666666666667;" x1="149.4792" x2="229.1667" y1="859.5469" y2="859.5469"/><text fill="#D8BC00" font-family="Open Sans,Avenir,Nunito,Arial,Helvetica,SansSerif" font-size="11.4583" lengthAdjust="spacing" textLength="68.75" x="232.2917" y="863.3565">(messaging)</text><line style="stroke:#5E5E5E;stroke-width:1.0416666666666667;" x1="304.1667" x2="383.8542" y1="859.5469" y2="859.5469"/><!--MD5=[085076096658226fe7d3ac7a26d9b629]
class Listener--><rect codeLine="81" fill="#282828" height="142.6127" id="Listener" rx="8.3333" ry="8.3333" style="stroke:#5E5E5E;stroke-width:1.0416666666666667;" width="256.25" x="495.8333" y="976.6195"/><rect fill="#1B1B1A" height="31.3883" rx="8.3333" ry="8.3333" style="stroke:#1B1B1A;stroke-width:1.0416666666666667;" width="256.25" x="495.8333" y="976.6195"/><rect fill="#1B1B1A" height="8.3333" style="stroke:#1B1B1A;stroke-width:1.0416666666666667;" width="256.25" x="495.8333" y="999.6745"/><rect codeLine="81" fill="none" height="142.6127" id="Listener" rx="8.3333" ry="8.3333" style="stroke:#5E5E5E;stroke-width:1.0416666666666667;" width="256.25" x="495.8333" y="976.6195"/><ellipse cx="590.625" cy="992.3136" fill="#008400" rx="10.4167" ry="10.4167" style="stroke:#239C23;stroke-width:1.0416666666666667;"/><path d="M587.5081,989.4755 L587.5081,987.8886 L592.9342,987.8886 L592.9342,989.4755 L591.1214,989.4755 L591.1214,995.4142 L592.9342,995.4142 L592.9342,997.0011 L587.5081,997.0011 L587.5081,995.4142 L589.3209,995.4142 L589.3209,989.4755 Z " fill="#000000"/><text fill="#D8BC00" font-family="Open Sans,Avenir,Nunito,Arial,Helvetica,SansSerif" font-size="12.5" font-style="italic" font-weight="bold" lengthAdjust="spacing" textLength="52.0833" x="613.5417" y="997.0378">Listener</text><line style="stroke:#5E5E5E;stroke-width:1.5625;" x1="496.875" x2="751.0417" y1="1008.0078" y2="1008.0078"/><ellipse cx="507.2917" cy="1043.3777" fill="#84BE84" rx="3.125" ry="3.125" style="stroke:#038048;stroke-width:1.0416666666666667;"/><text fill="#D8BC00" font-family="Open Sans,Avenir,Nunito,Arial,Helvetica,SansSerif" font-size="11.4583" lengthAdjust="spacing" textLength="223.9583" x="518.75" y="1050.2889">T listenTo(T broadcaster, MessageFilter)</text><ellipse cx="507.2917" cy="1063.1226" fill="#84BE84" rx="3.125" ry="3.125" style="stroke:#038048;stroke-width:1.0416666666666667;"/><text fill="#D8BC00" font-family="Open Sans,Avenir,Nunito,Arial,Helvetica,SansSerif" font-size="11.4583" lengthAdjust="spacing" textLength="141.6667" x="518.75" y="1070.0338">T listenTo(T broadcaster)</text><ellipse cx="507.2917" cy="1082.8674" fill="#84BE84" rx="3.125" ry="3.125" style="stroke:#038048;stroke-width:1.0416666666666667;"/><text fill="#D8BC00" font-family="Open Sans,Avenir,Nunito,Arial,Helvetica,SansSerif" font-size="11.4583" lengthAdjust="spacing" textLength="84.375" x="518.75" y="1089.7786">Listener none()</text><ellipse cx="507.2917" cy="1102.6123" fill="#84BE84" rx="3.125" ry="3.125" style="stroke:#038048;stroke-width:1.0416666666666667;"/><text fill="#D8BC00" font-family="Open Sans,Avenir,Nunito,Arial,Helvetica,SansSerif" font-size="11.4583" lengthAdjust="spacing" textLength="145.8333" x="518.75" y="1109.5235">void onMessage(Message)</text><line style="stroke:#5E5E5E;stroke-width:1.0416666666666667;" x1="496.875" x2="586.4583" y1="1026.2136" y2="1026.2136"/><text fill="#D8BC00" font-family="Open Sans,Avenir,Nunito,Arial,Helvetica,SansSerif" font-size="11.4583" lengthAdjust="spacing" textLength="68.75" x="589.5833" y="1030.0232">(messaging)</text><line style="stroke:#5E5E5E;stroke-width:1.0416666666666667;" x1="661.4583" x2="751.0417" y1="1026.2136" y2="1026.2136"/><!--MD5=[bddb511951cf0a1d6a79f67b0c2ed87d]
class Filter--><rect fill="#282828" height="48.055" id="Filter" rx="8.3333" ry="8.3333" style="stroke:#5E5E5E;stroke-width:1.0416666666666667;" width="70.8333" x="231.25" y="1024.0153"/><rect fill="#1B1B1A" height="31.3883" rx="8.3333" ry="8.3333" style="stroke:#1B1B1A;stroke-width:1.0416666666666667;" width="70.8333" x="231.25" y="1024.0153"/><rect fill="#1B1B1A" height="8.3333" style="stroke:#1B1B1A;stroke-width:1.0416666666666667;" width="70.8333" x="231.25" y="1047.0703"/><rect fill="none" height="48.055" id="Filter" rx="8.3333" ry="8.3333" style="stroke:#5E5E5E;stroke-width:1.0416666666666667;" width="70.8333" x="231.25" y="1024.0153"/><ellipse cx="245.8333" cy="1039.7095" fill="#0066CF" rx="10.4167" ry="10.4167" style="stroke:#0086EF;stroke-width:1.0416666666666667;"/><path d="M247.7437,1044.1345 Q247.3165,1044.3542 246.8465,1044.4641 Q246.3765,1044.574 245.8577,1044.574 Q244.0145,1044.574 243.044,1043.3594 Q242.0736,1042.1448 242.0736,1039.8499 Q242.0736,1037.5488 243.044,1036.3342 Q244.0145,1035.1196 245.8577,1035.1196 Q246.3765,1035.1196 246.8526,1035.2295 Q247.3287,1035.3394 247.7437,1035.5591 L247.7437,1037.561 Q247.2799,1037.1338 246.8435,1036.9354 Q246.4071,1036.7371 245.9432,1036.7371 Q244.9544,1036.7371 244.4509,1037.5214 Q243.9473,1038.3057 243.9473,1039.8499 Q243.9473,1041.3879 244.4509,1042.1722 Q244.9544,1042.9565 245.9432,1042.9565 Q246.4071,1042.9565 246.8435,1042.7582 Q247.2799,1042.5598 247.7437,1042.1326 Z " fill="#000000"/><text fill="#D8BC00" font-family="Open Sans,Avenir,Nunito,Arial,Helvetica,SansSerif" font-size="12.5" font-weight="bold" lengthAdjust="spacing" textLength="33.3333" x="262.5" y="1044.4336">Filter</text><line style="stroke:#5E5E5E;stroke-width:1.0416666666666667;" x1="232.2917" x2="301.0417" y1="1055.4036" y2="1055.4036"/><line style="stroke:#5E5E5E;stroke-width:1.0416666666666667;" x1="232.2917" x2="301.0417" y1="1063.737" y2="1063.737"/><!--MD5=[873ba24e1a4ad5eb78e001e5b8541c33]
class Multicaster--><rect codeLine="66" fill="#282828" height="245.5037" id="Multicaster" rx="8.3333" ry="8.3333" style="stroke:#5E5E5E;stroke-width:1.0416666666666667;" width="195.8333" x="162.5" y="478.7028"/><rect fill="#1B1B1A" height="31.3883" rx="8.3333" ry="8.3333" style="stroke:#1B1B1A;stroke-width:1.0416666666666667;" width="195.8333" x="162.5" y="478.7028"/><rect fill="#1B1B1A" height="8.3333" style="stroke:#1B1B1A;stroke-width:1.0416666666666667;" width="195.8333" x="162.5" y="501.7578"/><rect codeLine="66" fill="none" height="245.5037" id="Multicaster" rx="8.3333" ry="8.3333" style="stroke:#5E5E5E;stroke-width:1.0416666666666667;" width="195.8333" x="162.5" y="478.7028"/><ellipse cx="217.1875" cy="494.397" fill="#0066CF" rx="10.4167" ry="10.4167" style="stroke:#0086EF;stroke-width:1.0416666666666667;"/><path d="M219.0979,498.822 Q218.6707,499.0417 218.2007,499.1516 Q217.7307,499.2615 217.2119,499.2615 Q215.3687,499.2615 214.3982,498.0469 Q213.4277,496.8323 213.4277,494.5374 Q213.4277,492.2363 214.3982,491.0217 Q215.3687,489.8071 217.2119,489.8071 Q217.7307,489.8071 218.2068,489.917 Q218.6829,490.0269 219.0979,490.2466 L219.0979,492.2485 Q218.634,491.8213 218.1976,491.6229 Q217.7612,491.4246 217.2974,491.4246 Q216.3086,491.4246 215.8051,492.2089 Q215.3015,492.9932 215.3015,494.5374 Q215.3015,496.0754 215.8051,496.8597 Q216.3086,497.644 217.2974,497.644 Q217.7612,497.644 218.1976,497.4457 Q218.634,497.2473 219.0979,496.8201 Z " fill="#000000"/><text fill="#D8BC00" font-family="Open Sans,Avenir,Nunito,Arial,Helvetica,SansSerif" font-size="12.5" font-weight="bold" lengthAdjust="spacing" textLength="71.875" x="240.1042" y="499.1211">Multicaster</text><line style="stroke:#5E5E5E;stroke-width:1.5625;" x1="163.5417" x2="357.2917" y1="510.0911" y2="510.0911"/><polygon fill="#FFFF44" points="173.9583,540.2527,178.125,544.4194,173.9583,548.586,169.7917,544.4194" style="stroke:#B38D22;stroke-width:1.0416666666666667;"/><text fill="#D8BC00" font-family="Open Sans,Avenir,Nunito,Arial,Helvetica,SansSerif" font-size="11.4583" lengthAdjust="spacing" textLength="69.7917" x="185.4167" y="552.3722">Multicaster()</text><polygon fill="#FFFF44" points="173.9583,559.9976,178.125,564.1642,173.9583,568.3309,169.7917,564.1642" style="stroke:#B38D22;stroke-width:1.0416666666666667;"/><text fill="#D8BC00" font-family="Open Sans,Avenir,Nunito,Arial,Helvetica,SansSerif" font-size="11.4583" lengthAdjust="spacing" textLength="131.25" x="185.4167" y="572.1171">Multicaster(Multicaster)</text><polygon fill="#FFFF44" points="173.9583,579.7424,178.125,583.9091,173.9583,588.0758,169.7917,583.9091" style="stroke:#B38D22;stroke-width:1.0416666666666667;"/><text fill="#D8BC00" font-family="Open Sans,Avenir,Nunito,Arial,Helvetica,SansSerif" font-size="11.4583" lengthAdjust="spacing" textLength="103.125" x="185.4167" y="591.862">Multicaster(String)</text><ellipse cx="173.9583" cy="604.6956" fill="#84BE84" rx="3.125" ry="3.125" style="stroke:#038048;stroke-width:1.0416666666666667;"/><text fill="#D8BC00" font-family="Open Sans,Avenir,Nunito,Arial,Helvetica,SansSerif" font-size="11.4583" lengthAdjust="spacing" textLength="123.9583" x="185.4167" y="611.6069">Multicaster(Class&lt;?&gt;)</text><ellipse cx="173.9583" cy="624.4405" fill="#84BE84" rx="3.125" ry="3.125" style="stroke:#038048;stroke-width:1.0416666666666667;"/><text fill="#D8BC00" font-family="Open Sans,Avenir,Nunito,Arial,Helvetica,SansSerif" font-size="11.4583" lengthAdjust="spacing" textLength="163.5417" x="185.4167" y="631.3517">Multicaster(String, Class&lt;?&gt;)</text><line style="stroke:#5E5E5E;stroke-width:1.0416666666666667;" x1="163.5417" x2="216.6667" y1="528.2969" y2="528.2969"/><text fill="#D8BC00" font-family="Open Sans,Avenir,Nunito,Arial,Helvetica,SansSerif" font-size="11.4583" lengthAdjust="spacing" textLength="81.25" x="219.7917" y="532.1065">(constructors)</text><line style="stroke:#5E5E5E;stroke-width:1.0416666666666667;" x1="304.1667" x2="357.2917" y1="528.2969" y2="528.2969"/><ellipse cx="173.9583" cy="668.0969" fill="#84BE84" rx="3.125" ry="3.125" style="stroke:#038048;stroke-width:1.0416666666666667;"/><text fill="#D8BC00" font-family="Open Sans,Avenir,Nunito,Arial,Helvetica,SansSerif" font-size="11.4583" lengthAdjust="spacing" textLength="90.625" x="185.4167" y="675.0081">boolean isDeaf()</text><ellipse cx="173.9583" cy="687.8418" fill="#84BE84" rx="3.125" ry="3.125" style="stroke:#038048;stroke-width:1.0416666666666667;"/><text fill="#D8BC00" font-family="Open Sans,Avenir,Nunito,Arial,Helvetica,SansSerif" font-size="11.4583" lengthAdjust="spacing" textLength="111.4583" x="185.4167" y="694.753">String listenerTree()</text><ellipse cx="173.9583" cy="707.5867" fill="#84BE84" rx="3.125" ry="3.125" style="stroke:#038048;stroke-width:1.0416666666666667;"/><text fill="#D8BC00" font-family="Open Sans,Avenir,Nunito,Arial,Helvetica,SansSerif" font-size="11.4583" lengthAdjust="spacing" textLength="142.7083" x="185.4167" y="714.4979">List&lt;Listener&gt; listeners()</text><line style="stroke:#5E5E5E;stroke-width:1.0416666666666667;" x1="163.5417" x2="222.9167" y1="650.9328" y2="650.9328"/><text fill="#D8BC00" font-family="Open Sans,Avenir,Nunito,Arial,Helvetica,SansSerif" font-size="11.4583" lengthAdjust="spacing" textLength="68.75" x="226.0417" y="654.7424">(messaging)</text><line style="stroke:#5E5E5E;stroke-width:1.0416666666666667;" x1="297.9167" x2="357.2917" y1="650.9328" y2="650.9328"/><!--MD5=[762aa3d0df6a9d47bd8e105afbd066b5]
class BaseRepeater--><rect codeLine="21" fill="#282828" height="142.6127" id="BaseRepeater" rx="8.3333" ry="8.3333" style="stroke:#5E5E5E;stroke-width:1.0416666666666667;" width="208.3333" x="9.375" y="1294.3278"/><rect fill="#1B1B1A" height="31.3883" rx="8.3333" ry="8.3333" style="stroke:#1B1B1A;stroke-width:1.0416666666666667;" width="208.3333" x="9.375" y="1294.3278"/><rect fill="#1B1B1A" height="8.3333" style="stroke:#1B1B1A;stroke-width:1.0416666666666667;" width="208.3333" x="9.375" y="1317.3828"/><rect codeLine="21" fill="none" height="142.6127" id="BaseRepeater" rx="8.3333" ry="8.3333" style="stroke:#5E5E5E;stroke-width:1.0416666666666667;" width="208.3333" x="9.375" y="1294.3278"/><ellipse cx="63.0208" cy="1310.022" fill="#0066CF" rx="10.4167" ry="10.4167" style="stroke:#0086EF;stroke-width:1.0416666666666667;"/><path d="M64.9312,1314.447 Q64.504,1314.6667 64.034,1314.7766 Q63.564,1314.8865 63.0452,1314.8865 Q61.202,1314.8865 60.2315,1313.6719 Q59.2611,1312.4573 59.2611,1310.1624 Q59.2611,1307.8613 60.2315,1306.6467 Q61.202,1305.4321 63.0452,1305.4321 Q63.564,1305.4321 64.0401,1305.542 Q64.5162,1305.6519 64.9312,1305.8716 L64.9312,1307.8735 Q64.4674,1307.4463 64.031,1307.2479 Q63.5946,1307.0496 63.1307,1307.0496 Q62.1419,1307.0496 61.6384,1307.8339 Q61.1348,1308.6182 61.1348,1310.1624 Q61.1348,1311.7004 61.6384,1312.4847 Q62.1419,1313.269 63.1307,1313.269 Q63.5946,1313.269 64.031,1313.0707 Q64.4674,1312.8723 64.9312,1312.4451 Z " fill="#000000"/><text fill="#D8BC00" font-family="Open Sans,Avenir,Nunito,Arial,Helvetica,SansSerif" font-size="12.5" font-weight="bold" lengthAdjust="spacing" textLength="86.4583" x="85.9375" y="1314.7461">BaseRepeater</text><line style="stroke:#5E5E5E;stroke-width:1.5625;" x1="10.4167" x2="216.6667" y1="1325.7161" y2="1325.7161"/><polygon fill="#FFFF44" points="20.8333,1355.8777,25,1360.0444,20.8333,1364.211,16.6667,1360.0444" style="stroke:#B38D22;stroke-width:1.0416666666666667;"/><text fill="#D8BC00" font-family="Open Sans,Avenir,Nunito,Arial,Helvetica,SansSerif" font-size="11.4583" lengthAdjust="spacing" textLength="82.2917" x="32.2917" y="1367.9972">BaseRepeater()</text><polygon fill="#FFFF44" points="20.8333,1375.6226,25,1379.7892,20.8333,1383.9559,16.6667,1379.7892" style="stroke:#B38D22;stroke-width:1.0416666666666667;"/><text fill="#D8BC00" font-family="Open Sans,Avenir,Nunito,Arial,Helvetica,SansSerif" font-size="11.4583" lengthAdjust="spacing" textLength="115.625" x="32.2917" y="1387.7421">BaseRepeater(String)</text><ellipse cx="20.8333" cy="1400.5758" fill="#84BE84" rx="3.125" ry="3.125" style="stroke:#038048;stroke-width:1.0416666666666667;"/><text fill="#D8BC00" font-family="Open Sans,Avenir,Nunito,Arial,Helvetica,SansSerif" font-size="11.4583" lengthAdjust="spacing" textLength="136.4583" x="32.2917" y="1407.487">BaseRepeater(Class&lt;?&gt;)</text><ellipse cx="20.8333" cy="1420.3206" fill="#84BE84" rx="3.125" ry="3.125" style="stroke:#038048;stroke-width:1.0416666666666667;"/><text fill="#D8BC00" font-family="Open Sans,Avenir,Nunito,Arial,Helvetica,SansSerif" font-size="11.4583" lengthAdjust="spacing" textLength="176.0417" x="32.2917" y="1427.2319">BaseRepeater(String, Class&lt;?&gt;)</text><line style="stroke:#5E5E5E;stroke-width:1.0416666666666667;" x1="10.4167" x2="69.7917" y1="1343.9219" y2="1343.9219"/><text fill="#D8BC00" font-family="Open Sans,Avenir,Nunito,Arial,Helvetica,SansSerif" font-size="11.4583" lengthAdjust="spacing" textLength="81.25" x="72.9167" y="1347.7315">(constructors)</text><line style="stroke:#5E5E5E;stroke-width:1.0416666666666667;" x1="157.2917" x2="216.6667" y1="1343.9219" y2="1343.9219"/><!--MD5=[a5e0d74883ec4929f8434e825ee0364d]
class Transceiver--><rect codeLine="51" fill="#282828" height="48.055" id="Transceiver" rx="8.3333" ry="8.3333" style="stroke:#5E5E5E;stroke-width:1.0416666666666667;" width="111.4583" x="647.3958" y="53.7028"/><rect fill="#1B1B1A" height="31.3883" rx="8.3333" ry="8.3333" style="stroke:#1B1B1A;stroke-width:1.0416666666666667;" width="111.4583" x="647.3958" y="53.7028"/><rect fill="#1B1B1A" height="8.3333" style="stroke:#1B1B1A;stroke-width:1.0416666666666667;" width="111.4583" x="647.3958" y="76.7578"/><rect codeLine="51" fill="none" height="48.055" id="Transceiver" rx="8.3333" ry="8.3333" style="stroke:#5E5E5E;stroke-width:1.0416666666666667;" width="111.4583" x="647.3958" y="53.7028"/><ellipse cx="661.9792" cy="69.397" fill="#008400" rx="10.4167" ry="10.4167" style="stroke:#239C23;stroke-width:1.0416666666666667;"/><path d="M658.8623,66.5588 L658.8623,64.9719 L664.2883,64.9719 L664.2883,66.5588 L662.4756,66.5588 L662.4756,72.4976 L664.2883,72.4976 L664.2883,74.0845 L658.8623,74.0845 L658.8623,72.4976 L660.675,72.4976 L660.675,66.5588 Z " fill="#000000"/><text fill="#D8BC00" font-family="Open Sans,Avenir,Nunito,Arial,Helvetica,SansSerif" font-size="12.5" font-style="italic" font-weight="bold" lengthAdjust="spacing" textLength="73.9583" x="678.6458" y="74.1211">Transceiver</text><line style="stroke:#5E5E5E;stroke-width:1.0416666666666667;" x1="648.4375" x2="757.8125" y1="85.0911" y2="85.0911"/><line style="stroke:#5E5E5E;stroke-width:1.0416666666666667;" x1="648.4375" x2="757.8125" y1="93.4245" y2="93.4245"/><!--MD5=[420e6a45c6a80cbe6318bbd76f7d46ce]
class Transmitter--><rect codeLine="31" fill="#282828" height="48.055" id="Transmitter" rx="8.3333" ry="8.3333" style="stroke:#5E5E5E;stroke-width:1.0416666666666667;" width="113.5417" x="463.0208" y="53.7028"/><rect fill="#1B1B1A" height="31.3883" rx="8.3333" ry="8.3333" style="stroke:#1B1B1A;stroke-width:1.0416666666666667;" width="113.5417" x="463.0208" y="53.7028"/><rect fill="#1B1B1A" height="8.3333" style="stroke:#1B1B1A;stroke-width:1.0416666666666667;" width="113.5417" x="463.0208" y="76.7578"/><rect codeLine="31" fill="none" height="48.055" id="Transmitter" rx="8.3333" ry="8.3333" style="stroke:#5E5E5E;stroke-width:1.0416666666666667;" width="113.5417" x="463.0208" y="53.7028"/><ellipse cx="477.6042" cy="69.397" fill="#008400" rx="10.4167" ry="10.4167" style="stroke:#239C23;stroke-width:1.0416666666666667;"/><path d="M474.4873,66.5588 L474.4873,64.9719 L479.9133,64.9719 L479.9133,66.5588 L478.1006,66.5588 L478.1006,72.4976 L479.9133,72.4976 L479.9133,74.0845 L474.4873,74.0845 L474.4873,72.4976 L476.3,72.4976 L476.3,66.5588 Z " fill="#000000"/><text fill="#D8BC00" font-family="Open Sans,Avenir,Nunito,Arial,Helvetica,SansSerif" font-size="12.5" font-style="italic" font-weight="bold" lengthAdjust="spacing" textLength="76.0417" x="494.2708" y="74.1211">Transmitter</text><line style="stroke:#5E5E5E;stroke-width:1.0416666666666667;" x1="464.0625" x2="575.5208" y1="85.0911" y2="85.0911"/><line style="stroke:#5E5E5E;stroke-width:1.0416666666666667;" x1="464.0625" x2="575.5208" y1="93.4245" y2="93.4245"/><!--MD5=[bcee973e2623bef0127252815a37a6e8]
class Receiver--><rect codeLine="50" fill="#282828" height="48.055" id="Receiver" rx="8.3333" ry="8.3333" style="stroke:#5E5E5E;stroke-width:1.0416666666666667;" width="90.625" x="496.3542" y="837.557"/><rect fill="#1B1B1A" height="31.3883" rx="8.3333" ry="8.3333" style="stroke:#1B1B1A;stroke-width:1.0416666666666667;" width="90.625" x="496.3542" y="837.557"/><rect fill="#1B1B1A" height="8.3333" style="stroke:#1B1B1A;stroke-width:1.0416666666666667;" width="90.625" x="496.3542" y="860.612"/><rect codeLine="50" fill="none" height="48.055" id="Receiver" rx="8.3333" ry="8.3333" style="stroke:#5E5E5E;stroke-width:1.0416666666666667;" width="90.625" x="496.3542" y="837.557"/><ellipse cx="510.9375" cy="853.2511" fill="#008400" rx="10.4167" ry="10.4167" style="stroke:#239C23;stroke-width:1.0416666666666667;"/><path d="M507.8206,850.413 L507.8206,848.8261 L513.2467,848.8261 L513.2467,850.413 L511.4339,850.413 L511.4339,856.3517 L513.2467,856.3517 L513.2467,857.9386 L507.8206,857.9386 L507.8206,856.3517 L509.6334,856.3517 L509.6334,850.413 Z " fill="#000000"/><text fill="#D8BC00" font-family="Open Sans,Avenir,Nunito,Arial,Helvetica,SansSerif" font-size="12.5" font-style="italic" font-weight="bold" lengthAdjust="spacing" textLength="53.125" x="527.6042" y="857.9753">Receiver</text><line style="stroke:#5E5E5E;stroke-width:1.0416666666666667;" x1="497.3958" x2="585.9375" y1="868.9453" y2="868.9453"/><line style="stroke:#5E5E5E;stroke-width:1.0416666666666667;" x1="497.3958" x2="585.9375" y1="877.2786" y2="877.2786"/><!--MD5=[39a181cac5526d92d84037827ac9aa45]
reverse link AudienceMember to Listener--><path codeLine="10" d="M377.2813,919.6403 C414.7292,938.9632 456.8646,960.7028 495.5833,980.682 " fill="none" id="AudienceMember-backto-Listener" style="stroke:#545454;stroke-width:1.5625;"/><polygon fill="#333333" points="364.7708,913.182,368.4172,919.7491,375.8817,918.9091,372.2353,912.3419,364.7708,913.182" style="stroke:#545454;stroke-width:1.5625;"/><!--MD5=[4b4c57f4e920e4b761e40f320ffe151d]
reverse link AudienceMember to Filter--><path codeLine="11" d="M266.6667,927.3799 C266.6667,960.8174 266.6667,999.5361 266.6667,1023.6403 " fill="none" id="AudienceMember-backto-Filter" style="stroke:#545454;stroke-width:1.5625;"/><polygon fill="#333333" points="266.6667,913.4215,262.5,919.6715,266.6667,925.9215,270.8333,919.6715,266.6667,913.4215" style="stroke:#545454;stroke-width:1.5625;"/><!--MD5=[bb3d88f7956e700fb6765ab86f5f0877]
reverse link Multicaster to BaseRepeater--><path codeLine="19" d="M149.4688,713.734 C118.2917,756.0778 92.7083,807.0882 92.7083,860.4736 C92.7083,860.4736 92.7083,860.4736 92.7083,1207.8695 C92.7083,1236.2861 96.1146,1267.3486 100.1667,1294.2757 " fill="none" id="Multicaster-backto-BaseRepeater" style="stroke:#545454;stroke-width:1.5625;"/><polygon fill="none" points="143.8646,709.0674,162.375,697.0465,155.3958,717.984,143.8646,709.0674" style="stroke:#545454;stroke-width:1.5625;"/><!--MD5=[34184a4294b4812b44dbbececaf6a488]
reverse link Repeater to BaseRepeater--><path codeLine="20" d="M374.5521,1239.5361 C329.6042,1261.0778 269.1875,1290.0465 217.7917,1314.6715 " fill="none" id="Repeater-backto-BaseRepeater" style="stroke:#545454;stroke-width:1.5625;"/><polygon fill="none" points="371.4792,1232.932,393.4167,1230.4945,377.7813,1246.0778,371.4792,1232.932" style="stroke:#545454;stroke-width:1.5625;"/><!--MD5=[f1caad0bcdb54419eb9c60437263e9a7]
reverse link Transceiver to Broadcaster--><path codeLine="32" d="M669.2292,117.609 C657.1875,131.432 642.8958,147.8278 628.0104,164.9111 " fill="none" id="Transceiver-backto-Broadcaster" style="stroke:#545454;stroke-width:1.5625;"/><polygon fill="none" points="663.9688,112.5361,683.1563,101.6195,674.9688,122.1195,663.9688,112.5361" style="stroke:#545454;stroke-width:1.5625;"/><!--MD5=[e0174ae691097432be029e3f140c7426]
reverse link Transmitter to Broadcaster--><path codeLine="33" d="M519.7917,122.7861 C519.7917,135.4424 519.7917,149.9111 519.7917,164.9111 " fill="none" id="Transmitter-backto-Broadcaster" style="stroke:#545454;stroke-width:1.5625;"/><polygon fill="none" points="512.5,122.4528,519.7917,101.6195,527.0833,122.4528,512.5,122.4528" style="stroke:#545454;stroke-width:1.5625;"/><!--MD5=[26525a17ff6f136cc99cf6336a322ac2]
link Broadcaster to Listener--><path codeLine="34" d="M543.2396,415.2549 C562.3229,520.0778 588.7188,674.3799 605.2083,809.9528 C611.7396,863.5986 616.4896,924.3799 619.5833,970.9424 " fill="none" id="Broadcaster-to-Listener" style="stroke:#545454;stroke-width:1.5625;"/><polygon fill="#545454" points="619.9271,976.2653,623.4682,966.6366,619.5846,971.0682,615.1529,967.1846,619.9271,976.2653" style="stroke:#545454;stroke-width:1.5625;"/><text fill="#A0A0A0" font-family="Open Sans,Avenir,Nunito,Arial,Helvetica,SansSerif" font-size="12.5" font-weight="bold" lengthAdjust="spacing" textLength="62.5" x="605.2083" y="772.0378">transmits</text><text fill="#A0A0A0" font-family="Open Sans,Avenir,Nunito,Arial,Helvetica,SansSerif" font-size="12.5" font-weight="bold" lengthAdjust="spacing" textLength="8.3333" x="532.7153" y="438.3126">1</text><text fill="#A0A0A0" font-family="Open Sans,Avenir,Nunito,Arial,Helvetica,SansSerif" font-size="12.5" font-weight="bold" lengthAdjust="spacing" textLength="6.25" x="609.54" y="962.5693">*</text><!--MD5=[62a6b427c3d0eea0d4b1a488fa783697]
reverse link Transceiver to Listener--><path codeLine="52" d="M714.4479,122.1611 C724.4583,164.4736 737.5,230.7653 737.5,289.1195 C737.5,289.1195 737.5,289.1195 737.5,862.557 C737.5,904.0986 716.3438,944.1299 692.3021,976.2132 " fill="none" id="Transceiver-backto-Listener" style="stroke:#545454;stroke-width:1.5625;"/><polygon fill="none" points="707.3438,123.8278,709.4271,101.8486,721.5,120.3278,707.3438,123.8278" style="stroke:#545454;stroke-width:1.5625;"/><!--MD5=[2b5a110b0a75cbb632fbc00ae3350255]
reverse link Receiver to Listener--><path codeLine="53" d="M560.5,904.7549 C569.9479,925.9215 581.6458,952.1195 592.4063,976.2445 " fill="none" id="Receiver-backto-Listener" style="stroke:#545454;stroke-width:1.5625;"/><polygon fill="none" points="553.7604,907.5361,551.9271,885.5361,567.0729,901.5882,553.7604,907.5361" style="stroke:#545454;stroke-width:1.5625;"/><!--MD5=[34fbd23c56651f111d903632f001ca95]
reverse link Broadcaster to Multicaster--><path codeLine="63" d="M402.1771,431.484 C387.5938,448.8799 372.8021,466.5257 358.5521,483.5257 " fill="none" id="Broadcaster-backto-Multicaster" style="stroke:#545454;stroke-width:1.5625;"/><polygon fill="none" points="396.8125,426.5361,415.7917,415.2549,407.9896,435.9007,396.8125,426.5361" style="stroke:#545454;stroke-width:1.5625;"/><!--MD5=[46a82d4badc82e16634b3676324e7d80]
reverse link PackagePathed to Multicaster--><path codeLine="64" d="M255.0625,335.4424 C255.8125,372.807 256.9375,428.1403 257.9479,478.609 " fill="none" id="PackagePathed-backto-Multicaster" style="stroke:#545454;stroke-width:1.5625;"/><polygon fill="none" points="247.7708,335.432,254.6354,314.4528,262.3438,335.1403,247.7708,335.432" style="stroke:#545454;stroke-width:1.5625;"/><!--MD5=[f5dda83dfb732df56896ad1d6cb40bd4]
reverse link Multicaster to AudienceMember--><path codeLine="65" d="M263.7083,738.5257 C264.3229,764.0049 264.9375,789.1299 265.4375,809.8799 " fill="none" id="Multicaster-backto-AudienceMember" style="stroke:#545454;stroke-width:1.5625;"/><polygon fill="#333333" points="263.375,724.7757,259.3606,731.1246,263.6771,737.2721,267.6915,730.9232,263.375,724.7757" style="stroke:#545454;stroke-width:1.5625;"/><text fill="#A0A0A0" font-family="Open Sans,Avenir,Nunito,Arial,Helvetica,SansSerif" font-size="12.5" font-weight="bold" lengthAdjust="spacing" textLength="8.3333" x="251.6661" y="747.7214">1</text><text fill="#A0A0A0" font-family="Open Sans,Avenir,Nunito,Arial,Helvetica,SansSerif" font-size="12.5" font-weight="bold" lengthAdjust="spacing" textLength="6.25" x="255.0575" y="795.9277">*</text><!--MD5=[1dd3982214599aa4beaac73a2b516217]
reverse link Listener to Repeater--><path codeLine="82" d="M525.6875,1133.0465 C504.3021,1151.3382 483.3854,1169.2236 467.6458,1182.682 " fill="none" id="Listener-backto-Repeater" style="stroke:#545454;stroke-width:1.5625;"/><polygon fill="none" points="521.1042,1127.3695,541.6771,1119.3799,530.5833,1138.4528,521.1042,1127.3695" style="stroke:#545454;stroke-width:1.5625;"/><!--MD5=[27320a1d9f0737a90411717ea5b2742e]
reverse link Broadcaster to Repeater--><path codeLine="83" d="M467.0313,435.484 C452.4896,486.8695 440.625,545.6403 440.625,600.5778 C440.625,600.5778 440.625,600.5778 440.625,1049.0153 C440.625,1096.5049 440.625,1152.0986 440.625,1182.6715 " fill="none" id="Broadcaster-backto-Repeater" style="stroke:#545454;stroke-width:1.5625;"/><polygon fill="none" points="460.0521,433.3486,472.9375,415.432,474.0417,437.4736,460.0521,433.3486" style="stroke:#545454;stroke-width:1.5625;"/><!--MD5=[98e82b259ef86392fd0ef9a57df92db7]
@startuml

    !include ../lexakai/lexakai.theme
    
    title "Messaging - Repeating"
    
    interface PackagePathed
    interface Repeater
    interface Broadcaster
    
    AudienceMember o- - Listener
    AudienceMember o- - Filter
    class AudienceMember
    {
        - -(messaging)- -
        +Listener listener()
        +void receive(Transmittable message)
    }
    
    Multicaster <|- - BaseRepeater
    Repeater <|- - BaseRepeater
    class BaseRepeater
    {
        - -(constructors)- -
        #BaseRepeater()
        #BaseRepeater(String)
        +BaseRepeater(Class<?>)
        +BaseRepeater(String, Class<?>)
    }
    
    interface Transceiver
    interface Transmitter
    Transceiver <|- - Broadcaster
    Transmitter <|- - Broadcaster
    Broadcaster "1" - -> "*" Listener : "transmits"
    interface Broadcaster
    {
        - -
        +void silence()
        - -(messaging)- -
        +void addListener(Listener)
        +void addListener(Listener, Filter<Transmittable>)
        +void clearListeners()
        +boolean hasListeners()
        +void onTransmit(Transmittable message)
        +void removeListener(Listener)
        +void transmit(Message)
        +void transmitAll(Iterable<Transmittable> messages)
    }
    
    interface Receiver
    interface Transceiver
    Transceiver <|- - Listener
    Receiver <|- - Listener
    interface Listener
    {
        - -(messaging)- -
        +T listenTo(T broadcaster, MessageFilter)
        +T listenTo(T broadcaster)
        +Listener none()
        +void onMessage(Message)
    }
    
    Broadcaster <|- - Multicaster
    PackagePathed <|- - Multicaster
    Multicaster "1" o- - "*" AudienceMember
    class Multicaster
    {
        - -(constructors)- -
        #Multicaster()
        #Multicaster(Multicaster)
        #Multicaster(String)
        +Multicaster(Class<?>)
        +Multicaster(String, Class<?>)
        - -(messaging)- -
        +boolean isDeaf()
        +String listenerTree()
        +List<Listener> listeners()
    }
    
    interface Broadcaster
    interface Listener
    Listener <|- - Repeater
    Broadcaster <|- - Repeater
    interface Repeater
    {
    }
    
@enduml

@startuml









skinparam backgroundColor #333333






skinparam  {
    defaultFontName   "Open Sans,Avenir,Nunito,Arial,Helvetica,SansSerif"
    defaultFontSize   12
    defaultTextAlignment left
    shadowing false
    RoundCorner 10
    TitleFontSize 18
}

skinparam defaultFontName       "Open Sans,Avenir,Nunito,Arial,Helvetica,SansSerif"
skinparam defaultFontSize       12
skinparam dpi                   100
skinparam shadowing             false
skinparam roundcorner           16
skinparam ParticipantPadding    40
skinparam BoxPadding            40
skinparam Padding               3
skinparam ArrowColor            #545454
skinparam stereotype {
    CBackgroundColor #0066cf
    CBorderColor #0086ef
    ABackgroundColor #C8Ac00
    ABorderColor #D8Bc00
    IBackgroundColor #008400
    IBorderColor #239c23
    EBackgroundColor #cf6300
    EBorderColor #ef8300
    NBackgroundColor #3380b9
    NBorderColor #004d86
}
skinparam title {
	FontColor	                 #c0c0c0
 	BorderColor                  #545454
	FontSize	    	         20
	BorderRoundCorner            16
	BorderThickness 	         1
	BackgroundColor              #48494b
}


skinparam legend {
	BackgroundColor #303030
	BorderColor #404040
	FontColor #a0a0a0
}

	skinparam swimlane {
	BorderColor #5e5e5e
	BorderThickness 2
	TitleBackgroundColor  #6d6d6d-#484848
	TitleFontColor #303030
}

skinparam activity {
		FontColor #C8Ac00
	BorderColor #333333
	BackgroundColor #333333-#333333
	BarColor #00FF00
	StartColor #0060a8
	EndColor #0060a8
	DiamondBackgroundColor #6d6d6d-#3a3a3a
  	DiamondBorderColor #3a3a3a
  	DiamondFontColor #fefefe
}


skinparam participant {
		FontColor #C8Ac00
	BorderColor #333333
	BackgroundColor #333333-#333333
	ParticipantBorderThickness 2
}


skinparam actor {
		FontColor #C8Ac00
	BorderColor #333333
	BackgroundColor #333333-#333333
}


skinparam arrow {
	Thickness 1.5
	Color #545454
	FontColor #a0a0a0
    FontStyle bold
    MessageAlignment center
}



skinparam sequence {
	BorderColor #303030
	TitleFontColor #303030
	BackgroundColor #333333
	StartColor #303030
	EndColor #303030
	BoxBackgroundColor #333333
	BoxBorderColor #484848
	BoxFontColor #484848
	LifeLineBorderColor #484848
	LifeLineBorderThickness 2
	LifeLineBackgroundColor #3a3a3a
	GroupBorderColor #484848
	GroupFontColor #484848
	GroupHeaderFontColor #0060a8
	GroupBackgroundColor #484848
	GroupHeaderBackgroundColor #333333
	DividerBackgroundColor #484848
    DividerBorderColor #484848
    DividerBorderThickness 2
    DividerFontColor #D8Bc00
	ReferenceBackgroundColor #333333
	ReferenceBorderColor #484848
	ReferenceFontColor #fefefe
	ReferenceHeaderBackgroundColor #484848
}


skinparam partition {
	BorderColor #303030
	FontColor #333333
	BackgroundColor #333333
}


skinparam collections {
		FontColor #C8Ac00
	BorderColor #333333
	BackgroundColor #333333-#333333
}


skinparam control {
		FontColor #C8Ac00
	BorderColor #333333
	BackgroundColor #333333-#333333
}


skinparam entity {
		FontColor #C8Ac00
	BorderColor #333333
	BackgroundColor #333333-#333333
}


skinparam boundary {
		FontColor #C8Ac00
	BorderColor #333333
	BackgroundColor #333333-#333333
}


skinparam agent {
	BackgroundColor #ff8000
	BorderColor #ff9933
	FontColor #484848
}


skinparam note {
	BorderThickness 1
	BackgroundColor #1b1b1a
	BorderColor #5e5e5e
	FontSize 11
	FontColor #a0a0a0
}


skinparam artifact {
	BorderThickness 10
	BorderColor #5e5e5e
	BackgroundColor #1b1b1a
	FontColor #D8Bc00
}


skinparam component {
		FontColor #C8Ac00
	BorderColor #333333
	BackgroundColor #333333-#333333
}


skinparam interface {
	BackgroundColor  #008400
	BorderColor  #007F00
	FontColor #484848
}


skinparam storage {
	BackgroundColor #ff8000
  	BorderColor #cc6600
	FontColor #222222
}


skinparam node {
	BackgroundColor #333333
	BorderColor #333333
	FontColor #C8Ac00
}


skinparam cloud {
	BackgroundColor #484848-black
	BorderColor #484848
	FontColor #D8Bc00
}


skinparam database {
		FontColor #C8Ac00
	BorderColor #333333
	BackgroundColor #333333-#333333
	BackgroundColor  #333333
}


skinparam class {
		FontColor #C8Ac00
	BorderColor #333333
	BackgroundColor #333333-#333333
	HeaderBackgroundColor #1b1b1a
    BackgroundColor #282828
    BorderColor #5e5e5e
 	StereotypeFontColor #a0a0a0
    StereotypeFontStyle bold
	BorderThickness 1
	AttributeFontColor #D8Bc00
	AttributeFontSize 11
    FontColor #D8Bc00
    FontStyle bold
}


skinparam object {
		FontColor #C8Ac00
	BorderColor #333333
	BackgroundColor #333333-#333333
	StereotypeFontColor #484848
	BorderThickness 1
	AttributeFontColor #fefefe
	AttributeFontSize 11
}


skinparam usecase {
		FontColor #C8Ac00
	BorderColor #333333
	BackgroundColor #333333-#333333
	BorderThickness 2
	StereotypeFontColor #303030
}


skinparam rectangle {
		FontColor #C8Ac00
	BorderColor #333333
	BackgroundColor #333333-#333333
	BackgroundColor #333333
	BorderThickness 2
	StereotypeFontColor #303030
}


skinparam package {
		FontColor #C8Ac00
	BorderColor #333333
	BackgroundColor #333333-#333333
	BackgroundColor #333333
	BorderThickness 2
}


skinparam folder {
	BackgroundColor #6d6d6d
  	BorderColor #ff8000
	FontColor #ff8000
	BorderThickness 2
}


skinparam frame {
	BackgroundColor #6d6d6d
  	BorderColor #0060a8
	FontColor #0060a8
	BorderThickness 2
}


skinparam state {
		FontColor #C8Ac00
	BorderColor #333333
	BackgroundColor #333333-#333333
	StartColor #0060a8
	EndColor #0060a8
	AttributeFontColor #fefefe
	AttributeFontSize 11
}


skinparam queue {
		FontColor #C8Ac00
	BorderColor #333333
	BackgroundColor #333333-#333333
}


skinparam card {
	BackgroundColor #0060a8
	BorderColor #004d86
	FontColor $INFO_TEXT
}


skinparam file {
	BackgroundColor #6d6d6d-#484848
	BorderColor #0060a8
	FontColor #fefefe
}


skinparam stack {
		FontColor #C8Ac00
	BorderColor #333333
	BackgroundColor #333333-#333333
}

    
    title "Messaging - Repeating"
    
    interface PackagePathed
    interface Repeater
    interface Broadcaster
    
    AudienceMember o- - Listener
    AudienceMember o- - Filter
    class AudienceMember
    {
        - -(messaging)- -
        +Listener listener()
        +void receive(Transmittable message)
    }
    
    Multicaster <|- - BaseRepeater
    Repeater <|- - BaseRepeater
    class BaseRepeater
    {
        - -(constructors)- -
        #BaseRepeater()
        #BaseRepeater(String)
        +BaseRepeater(Class<?>)
        +BaseRepeater(String, Class<?>)
    }
    
    interface Transceiver
    interface Transmitter
    Transceiver <|- - Broadcaster
    Transmitter <|- - Broadcaster
    Broadcaster "1" - -> "*" Listener : "transmits"
    interface Broadcaster
    {
        - -
        +void silence()
        - -(messaging)- -
        +void addListener(Listener)
        +void addListener(Listener, Filter<Transmittable>)
        +void clearListeners()
        +boolean hasListeners()
        +void onTransmit(Transmittable message)
        +void removeListener(Listener)
        +void transmit(Message)
        +void transmitAll(Iterable<Transmittable> messages)
    }
    
    interface Receiver
    interface Transceiver
    Transceiver <|- - Listener
    Receiver <|- - Listener
    interface Listener
    {
        - -(messaging)- -
        +T listenTo(T broadcaster, MessageFilter)
        +T listenTo(T broadcaster)
        +Listener none()
        +void onMessage(Message)
    }
    
    Broadcaster <|- - Multicaster
    PackagePathed <|- - Multicaster
    Multicaster "1" o- - "*" AudienceMember
    class Multicaster
    {
        - -(constructors)- -
        #Multicaster()
        #Multicaster(Multicaster)
        #Multicaster(String)
        +Multicaster(Class<?>)
        +Multicaster(String, Class<?>)
        - -(messaging)- -
        +boolean isDeaf()
        +String listenerTree()
        +List<Listener> listeners()
    }
    
    interface Broadcaster
    interface Listener
    Listener <|- - Repeater
    Broadcaster <|- - Repeater
    interface Repeater
    {
    }
    
@enduml

PlantUML version 1.2021.01(Tue Feb 02 00:55:08 MST 2021)
(GPL source distribution)
Java Runtime: Java(TM) SE Runtime Environment
JVM: Java HotSpot(TM) 64-Bit Server VM
Default Encoding: UTF-8
Language: en
Country: US
--></g></svg>