<?xml version="1.0" encoding="UTF-8" standalone="no"?><svg xmlns="http://www.w3.org/2000/svg" xmlns:xlink="http://www.w3.org/1999/xlink" contentScriptType="application/ecmascript" contentStyleType="text/css" height="669.7917px" preserveAspectRatio="none" style="width:1713px;height:669px;background:#333333;" version="1.1" viewBox="0 0 1713 669" width="1713.5417px" zoomAndPan="magnify"><defs/><g><rect fill="#48494B" height="41.2028" rx="8.3333" ry="8.3333" style="stroke:#545454;stroke-width:1.0416666666666667;" width="379.1667" x="660.1563" y="2.0833"/><text fill="#C0C0C0" font-family="Open Sans,Avenir,Nunito,Arial,Helvetica,SansSerif" font-size="20.8333" lengthAdjust="spacing" textLength="356.25" x="671.6146" y="30.5583">Language - Thread Synchronization</text><!--MD5=[762aa3d0df6a9d47bd8e105afbd066b5]
class BaseRepeater--><rect codeLine="6" fill="#282828" height="48.055" id="BaseRepeater" rx="8.3333" ry="8.3333" style="stroke:#5E5E5E;stroke-width:1.0416666666666667;" width="123.9583" x="198.9583" y="154.7445"/><rect fill="#1B1B1A" height="31.3883" rx="8.3333" ry="8.3333" style="stroke:#1B1B1A;stroke-width:1.0416666666666667;" width="123.9583" x="198.9583" y="154.7445"/><rect fill="#1B1B1A" height="8.3333" style="stroke:#1B1B1A;stroke-width:1.0416666666666667;" width="123.9583" x="198.9583" y="177.7995"/><rect codeLine="6" fill="none" height="48.055" id="BaseRepeater" rx="8.3333" ry="8.3333" style="stroke:#5E5E5E;stroke-width:1.0416666666666667;" width="123.9583" x="198.9583" y="154.7445"/><ellipse cx="213.5417" cy="170.4386" fill="#C8AC00" rx="10.4167" ry="10.4167" style="stroke:#D8BC00;stroke-width:1.0416666666666667;"/><path d="M213.6556,167.1407 L212.8072,170.87 L214.5101,170.87 Z M212.557,165.4928 L214.7603,165.4928 L217.2201,174.6053 L215.4195,174.6053 L214.858,172.3531 L212.4471,172.3531 L211.8978,174.6053 L210.0972,174.6053 Z " fill="#000000"/><text fill="#D8BC00" font-family="Open Sans,Avenir,Nunito,Arial,Helvetica,SansSerif" font-size="12.5" font-style="italic" font-weight="bold" lengthAdjust="spacing" textLength="86.4583" x="230.2083" y="175.1628">BaseRepeater</text><line style="stroke:#5E5E5E;stroke-width:1.0416666666666667;" x1="200" x2="321.875" y1="186.1328" y2="186.1328"/><line style="stroke:#5E5E5E;stroke-width:1.0416666666666667;" x1="200" x2="321.875" y1="194.4661" y2="194.4661"/><!--MD5=[9768a89867b76296625371b39496d685]
class CompletionLatch--><rect codeLine="9" fill="#282828" height="249.6704" id="CompletionLatch" rx="8.3333" ry="8.3333" style="stroke:#5E5E5E;stroke-width:1.0416666666666667;" width="253.125" x="477.0833" y="53.7028"/><rect fill="#1B1B1A" height="31.3883" rx="8.3333" ry="8.3333" style="stroke:#1B1B1A;stroke-width:1.0416666666666667;" width="253.125" x="477.0833" y="53.7028"/><rect fill="#1B1B1A" height="8.3333" style="stroke:#1B1B1A;stroke-width:1.0416666666666667;" width="253.125" x="477.0833" y="76.7578"/><rect codeLine="9" fill="none" height="249.6704" id="CompletionLatch" rx="8.3333" ry="8.3333" style="stroke:#5E5E5E;stroke-width:1.0416666666666667;" width="253.125" x="477.0833" y="53.7028"/><ellipse cx="541.1458" cy="69.397" fill="#0066CF" rx="10.4167" ry="10.4167" style="stroke:#0086EF;stroke-width:1.0416666666666667;"/><path d="M543.0562,73.822 Q542.629,74.0417 542.159,74.1516 Q541.689,74.2615 541.1702,74.2615 Q539.327,74.2615 538.3565,73.0469 Q537.3861,71.8323 537.3861,69.5374 Q537.3861,67.2363 538.3565,66.0217 Q539.327,64.8071 541.1702,64.8071 Q541.689,64.8071 542.1651,64.917 Q542.6412,65.0269 543.0562,65.2466 L543.0562,67.2485 Q542.5924,66.8213 542.156,66.6229 Q541.7196,66.4246 541.2557,66.4246 Q540.2669,66.4246 539.7634,67.2089 Q539.2598,67.9932 539.2598,69.5374 Q539.2598,71.0754 539.7634,71.8597 Q540.2669,72.644 541.2557,72.644 Q541.7196,72.644 542.156,72.4457 Q542.5924,72.2473 543.0562,71.8201 Z " fill="#000000"/><text fill="#D8BC00" font-family="Open Sans,Avenir,Nunito,Arial,Helvetica,SansSerif" font-size="12.5" font-weight="bold" lengthAdjust="spacing" textLength="110.4167" x="564.0625" y="74.1211">CompletionLatch</text><line style="stroke:#5E5E5E;stroke-width:1.5625;" x1="478.125" x2="729.1667" y1="85.0911" y2="85.0911"/><ellipse cx="488.5417" cy="120.461" fill="#84BE84" rx="3.125" ry="3.125" style="stroke:#038048;stroke-width:1.0416666666666667;"/><text fill="#D8BC00" font-family="Open Sans,Avenir,Nunito,Arial,Helvetica,SansSerif" font-size="11.4583" lengthAdjust="spacing" textLength="103.125" x="500" y="127.3722">CompletionLatch()</text><ellipse cx="488.5417" cy="140.2059" fill="#84BE84" rx="3.125" ry="3.125" style="stroke:#038048;stroke-width:1.0416666666666667;"/><text fill="#D8BC00" font-family="Open Sans,Avenir,Nunito,Arial,Helvetica,SansSerif" font-size="11.4583" lengthAdjust="spacing" textLength="137.5" x="500" y="147.1171">CompletionLatch(Count)</text><line style="stroke:#5E5E5E;stroke-width:1.0416666666666667;" x1="478.125" x2="559.8958" y1="103.2969" y2="103.2969"/><text fill="#D8BC00" font-family="Open Sans,Avenir,Nunito,Arial,Helvetica,SansSerif" font-size="11.4583" lengthAdjust="spacing" textLength="81.25" x="563.0208" y="107.1065">(constructors)</text><line style="stroke:#5E5E5E;stroke-width:1.0416666666666667;" x1="647.3958" x2="729.1667" y1="103.2969" y2="103.2969"/><ellipse cx="488.5417" cy="183.8623" fill="#84BE84" rx="3.125" ry="3.125" style="stroke:#038048;stroke-width:1.0416666666666667;"/><text fill="#D8BC00" font-family="Open Sans,Avenir,Nunito,Arial,Helvetica,SansSerif" font-size="11.4583" lengthAdjust="spacing" textLength="93.75" x="500" y="190.7735">void completed()</text><ellipse cx="488.5417" cy="203.6072" fill="#84BE84" rx="3.125" ry="3.125" style="stroke:#038048;stroke-width:1.0416666666666667;"/><text fill="#D8BC00" font-family="Open Sans,Avenir,Nunito,Arial,Helvetica,SansSerif" font-size="11.4583" lengthAdjust="spacing" textLength="136.4583" x="500" y="210.5184">boolean hasCompleted()</text><ellipse cx="488.5417" cy="223.3521" fill="#84BE84" rx="3.125" ry="3.125" style="stroke:#038048;stroke-width:1.0416666666666667;"/><text fill="#D8BC00" font-family="Open Sans,Avenir,Nunito,Arial,Helvetica,SansSerif" font-size="11.4583" lengthAdjust="spacing" textLength="63.5417" x="500" y="230.2633">void reset()</text><line style="stroke:#5E5E5E;stroke-width:1.0416666666666667;" x1="478.125" x2="573.9583" y1="166.6982" y2="166.6982"/><text fill="#D8BC00" font-family="Open Sans,Avenir,Nunito,Arial,Helvetica,SansSerif" font-size="11.4583" lengthAdjust="spacing" textLength="53.125" x="577.0833" y="170.5078">(lifecycle)</text><line style="stroke:#5E5E5E;stroke-width:1.0416666666666667;" x1="633.3333" x2="729.1667" y1="166.6982" y2="166.6982"/><ellipse cx="488.5417" cy="267.0085" fill="#84BE84" rx="3.125" ry="3.125" style="stroke:#038048;stroke-width:1.0416666666666667;"/><text fill="#D8BC00" font-family="Open Sans,Avenir,Nunito,Arial,Helvetica,SansSerif" font-size="11.4583" lengthAdjust="spacing" textLength="171.875" x="500" y="273.9197">WakeState waitForCompletion()</text><ellipse cx="488.5417" cy="286.7533" fill="#84BE84" rx="3.125" ry="3.125" style="stroke:#038048;stroke-width:1.0416666666666667;"/><text fill="#D8BC00" font-family="Open Sans,Avenir,Nunito,Arial,Helvetica,SansSerif" font-size="11.4583" lengthAdjust="spacing" textLength="220.8333" x="500" y="293.6646">WakeState waitForCompletion(Duration)</text><line style="stroke:#5E5E5E;stroke-width:1.0416666666666667;" x1="478.125" x2="578.125" y1="249.8444" y2="249.8444"/><text fill="#D8BC00" font-family="Open Sans,Avenir,Nunito,Arial,Helvetica,SansSerif" font-size="11.4583" lengthAdjust="spacing" textLength="44.7917" x="581.25" y="253.654">(thread)</text><line style="stroke:#5E5E5E;stroke-width:1.0416666666666667;" x1="629.1667" x2="729.1667" y1="249.8444" y2="249.8444"/><!--MD5=[8fd780ec581aab03f15987af94a6bb91]
class WakeState--><rect codeLine="79" fill="#282828" height="107.2896" id="WakeState" rx="8.3333" ry="8.3333" style="stroke:#5E5E5E;stroke-width:1.0416666666666667;" width="104.1667" x="551.5625" y="472.4528"/><rect fill="#1B1B1A" height="31.3883" rx="8.3333" ry="8.3333" style="stroke:#1B1B1A;stroke-width:1.0416666666666667;" width="104.1667" x="551.5625" y="472.4528"/><rect fill="#1B1B1A" height="8.3333" style="stroke:#1B1B1A;stroke-width:1.0416666666666667;" width="104.1667" x="551.5625" y="495.5078"/><rect codeLine="79" fill="none" height="107.2896" id="WakeState" rx="8.3333" ry="8.3333" style="stroke:#5E5E5E;stroke-width:1.0416666666666667;" width="104.1667" x="551.5625" y="472.4528"/><ellipse cx="566.1458" cy="488.147" fill="#CF6300" rx="10.4167" ry="10.4167" style="stroke:#EF8300;stroke-width:1.0416666666666667;"/><path d="M569.2017,492.8345 L563.5254,492.8345 L563.5254,483.7219 L569.2017,483.7219 L569.2017,485.3088 L565.3259,485.3088 L565.3259,487.2742 L568.8354,487.2742 L568.8354,488.8611 L565.3259,488.8611 L565.3259,491.2476 L569.2017,491.2476 Z " fill="#000000"/><text fill="#D8BC00" font-family="Open Sans,Avenir,Nunito,Arial,Helvetica,SansSerif" font-size="12.5" font-weight="bold" lengthAdjust="spacing" textLength="66.6667" x="582.8125" y="492.8711">WakeState</text><line style="stroke:#5E5E5E;stroke-width:1.0416666666666667;" x1="552.6042" x2="654.6875" y1="503.8411" y2="503.8411"/><text fill="#D8BC00" font-family="Open Sans,Avenir,Nunito,Arial,Helvetica,SansSerif" font-size="11.4583" lengthAdjust="spacing" textLength="67.7083" x="560.9375" y="522.2107">COMPLETED</text><text fill="#D8BC00" font-family="Open Sans,Avenir,Nunito,Arial,Helvetica,SansSerif" font-size="11.4583" lengthAdjust="spacing" textLength="76.0417" x="560.9375" y="541.9556">INTERRUPTED</text><text fill="#D8BC00" font-family="Open Sans,Avenir,Nunito,Arial,Helvetica,SansSerif" font-size="11.4583" lengthAdjust="spacing" textLength="65.625" x="560.9375" y="561.7004">TIMED_OUT</text><line style="stroke:#5E5E5E;stroke-width:1.0416666666666667;" x1="552.6042" x2="654.6875" y1="571.4091" y2="571.4091"/><!--MD5=[9ba4924d606b805a358f77a7a0928ded]
class ReentrantLock--><rect fill="#282828" height="48.055" id="ReentrantLock" rx="8.3333" ry="8.3333" style="stroke:#5E5E5E;stroke-width:1.0416666666666667;" width="130.2083" x="766.6667" y="154.7445"/><rect fill="#1B1B1A" height="31.3883" rx="8.3333" ry="8.3333" style="stroke:#1B1B1A;stroke-width:1.0416666666666667;" width="130.2083" x="766.6667" y="154.7445"/><rect fill="#1B1B1A" height="8.3333" style="stroke:#1B1B1A;stroke-width:1.0416666666666667;" width="130.2083" x="766.6667" y="177.7995"/><rect fill="none" height="48.055" id="ReentrantLock" rx="8.3333" ry="8.3333" style="stroke:#5E5E5E;stroke-width:1.0416666666666667;" width="130.2083" x="766.6667" y="154.7445"/><ellipse cx="781.25" cy="170.4386" fill="#0066CF" rx="10.4167" ry="10.4167" style="stroke:#0086EF;stroke-width:1.0416666666666667;"/><path d="M783.1604,174.8637 Q782.7332,175.0834 782.2632,175.1933 Q781.7932,175.3031 781.2744,175.3031 Q779.4312,175.3031 778.4607,174.0885 Q777.4902,172.8739 777.4902,170.579 Q777.4902,168.278 778.4607,167.0634 Q779.4312,165.8488 781.2744,165.8488 Q781.7932,165.8488 782.2693,165.9587 Q782.7454,166.0685 783.1604,166.2882 L783.1604,168.2902 Q782.6965,167.863 782.2601,167.6646 Q781.8237,167.4662 781.3599,167.4662 Q780.3711,167.4662 779.8676,168.2505 Q779.364,169.0348 779.364,170.579 Q779.364,172.1171 779.8676,172.9014 Q780.3711,173.6857 781.3599,173.6857 Q781.8237,173.6857 782.2601,173.4873 Q782.6965,173.289 783.1604,172.8617 Z " fill="#000000"/><text fill="#D8BC00" font-family="Open Sans,Avenir,Nunito,Arial,Helvetica,SansSerif" font-size="12.5" font-weight="bold" lengthAdjust="spacing" textLength="92.7083" x="797.9167" y="175.1628">ReentrantLock</text><line style="stroke:#5E5E5E;stroke-width:1.0416666666666667;" x1="767.7083" x2="895.8333" y1="186.1328" y2="186.1328"/><line style="stroke:#5E5E5E;stroke-width:1.0416666666666667;" x1="767.7083" x2="895.8333" y1="194.4661" y2="194.4661"/><!--MD5=[05bef9715505055a435a5b60deea392b]
class Lock--><rect codeLine="24" fill="#282828" height="111.4563" id="Lock" rx="8.3333" ry="8.3333" style="stroke:#5E5E5E;stroke-width:1.0416666666666667;" width="217.7083" x="722.9167" y="470.3695"/><rect fill="#1B1B1A" height="31.3883" rx="8.3333" ry="8.3333" style="stroke:#1B1B1A;stroke-width:1.0416666666666667;" width="217.7083" x="722.9167" y="470.3695"/><rect fill="#1B1B1A" height="8.3333" style="stroke:#1B1B1A;stroke-width:1.0416666666666667;" width="217.7083" x="722.9167" y="493.4245"/><rect codeLine="24" fill="none" height="111.4563" id="Lock" rx="8.3333" ry="8.3333" style="stroke:#5E5E5E;stroke-width:1.0416666666666667;" width="217.7083" x="722.9167" y="470.3695"/><ellipse cx="809.375" cy="486.0636" fill="#0066CF" rx="10.4167" ry="10.4167" style="stroke:#0086EF;stroke-width:1.0416666666666667;"/><path d="M811.2854,490.4887 Q810.8582,490.7084 810.3882,490.8183 Q809.9182,490.9281 809.3994,490.9281 Q807.5562,490.9281 806.5857,489.7135 Q805.6152,488.4989 805.6152,486.204 Q805.6152,483.903 806.5857,482.6884 Q807.5562,481.4738 809.3994,481.4738 Q809.9182,481.4738 810.3943,481.5837 Q810.8704,481.6935 811.2854,481.9132 L811.2854,483.9152 Q810.8215,483.488 810.3851,483.2896 Q809.9487,483.0912 809.4849,483.0912 Q808.4961,483.0912 807.9926,483.8755 Q807.489,484.6598 807.489,486.204 Q807.489,487.7421 807.9926,488.5264 Q808.4961,489.3107 809.4849,489.3107 Q809.9487,489.3107 810.3851,489.1123 Q810.8215,488.914 811.2854,488.4867 Z " fill="#000000"/><text fill="#D8BC00" font-family="Open Sans,Avenir,Nunito,Arial,Helvetica,SansSerif" font-size="12.5" font-weight="bold" lengthAdjust="spacing" textLength="30.2083" x="832.2917" y="490.7878">Lock</text><line style="stroke:#5E5E5E;stroke-width:1.5625;" x1="723.9583" x2="939.5833" y1="501.7578" y2="501.7578"/><line style="stroke:#5E5E5E;stroke-width:1.0416666666666667;" x1="723.9583" x2="939.5833" y1="510.0911" y2="510.0911"/><ellipse cx="734.375" cy="521.5495" fill="#84BE84" rx="3.125" ry="3.125" style="stroke:#038048;stroke-width:1.0416666666666667;"/><text fill="#D8BC00" font-family="Open Sans,Avenir,Nunito,Arial,Helvetica,SansSerif" font-size="11.4583" lengthAdjust="spacing" textLength="185.4167" x="745.8333" y="528.4607">void whileLocked(Runnable code)</text><ellipse cx="734.375" cy="565.2059" fill="#84BE84" rx="3.125" ry="3.125" style="stroke:#038048;stroke-width:1.0416666666666667;"/><text fill="#D8BC00" font-family="Open Sans,Avenir,Nunito,Arial,Helvetica,SansSerif" font-size="11.4583" lengthAdjust="spacing" textLength="141.6667" x="745.8333" y="572.1171">T whileLocked(Code&lt;T&gt;)</text><line style="stroke:#5E5E5E;stroke-width:1.0416666666666667;" x1="723.9583" x2="796.3542" y1="548.0418" y2="548.0418"/><text fill="#D8BC00" font-family="Open Sans,Avenir,Nunito,Arial,Helvetica,SansSerif" font-size="11.4583" lengthAdjust="spacing" textLength="64.5833" x="799.4792" y="551.8514">(functional)</text><line style="stroke:#5E5E5E;stroke-width:1.0416666666666667;" x1="867.1875" x2="939.5833" y1="548.0418" y2="548.0418"/><!--MD5=[9e90051182cb12ed686a454235a977a2]
class Monitor--><rect codeLine="32" fill="#282828" height="103.123" id="Monitor" rx="8.3333" ry="8.3333" style="stroke:#5E5E5E;stroke-width:1.0416666666666667;" width="101.0417" x="933.3333" y="127.1403"/><rect fill="#1B1B1A" height="31.3883" rx="8.3333" ry="8.3333" style="stroke:#1B1B1A;stroke-width:1.0416666666666667;" width="101.0417" x="933.3333" y="127.1403"/><rect fill="#1B1B1A" height="8.3333" style="stroke:#1B1B1A;stroke-width:1.0416666666666667;" width="101.0417" x="933.3333" y="150.1953"/><rect codeLine="32" fill="none" height="103.123" id="Monitor" rx="8.3333" ry="8.3333" style="stroke:#5E5E5E;stroke-width:1.0416666666666667;" width="101.0417" x="933.3333" y="127.1403"/><ellipse cx="953.5417" cy="142.8345" fill="#0066CF" rx="10.4167" ry="10.4167" style="stroke:#0086EF;stroke-width:1.0416666666666667;"/><path d="M955.4521,147.2595 Q955.0248,147.4792 954.5549,147.5891 Q954.0849,147.699 953.5661,147.699 Q951.7228,147.699 950.7524,146.4844 Q949.7819,145.2698 949.7819,142.9749 Q949.7819,140.6738 950.7524,139.4592 Q951.7228,138.2446 953.5661,138.2446 Q954.0849,138.2446 954.561,138.3545 Q955.037,138.4644 955.4521,138.6841 L955.4521,140.686 Q954.9882,140.2588 954.5518,140.0604 Q954.1154,139.8621 953.6515,139.8621 Q952.6628,139.8621 952.1592,140.6464 Q951.6557,141.4307 951.6557,142.9749 Q951.6557,144.5129 952.1592,145.2972 Q952.6628,146.0815 953.6515,146.0815 Q954.1154,146.0815 954.5518,145.8832 Q954.9882,145.6848 955.4521,145.2576 Z " fill="#000000"/><text fill="#D8BC00" font-family="Open Sans,Avenir,Nunito,Arial,Helvetica,SansSerif" font-size="12.5" font-weight="bold" lengthAdjust="spacing" textLength="51.0417" x="971.4583" y="147.5586">Monitor</text><line style="stroke:#5E5E5E;stroke-width:1.5625;" x1="934.375" x2="1033.3333" y1="158.5286" y2="158.5286"/><ellipse cx="944.7917" cy="193.8985" fill="#84BE84" rx="3.125" ry="3.125" style="stroke:#038048;stroke-width:1.0416666666666667;"/><text fill="#D8BC00" font-family="Open Sans,Avenir,Nunito,Arial,Helvetica,SansSerif" font-size="11.4583" lengthAdjust="spacing" textLength="63.5417" x="956.25" y="200.8097">void await()</text><ellipse cx="944.7917" cy="213.6434" fill="#84BE84" rx="3.125" ry="3.125" style="stroke:#038048;stroke-width:1.0416666666666667;"/><text fill="#D8BC00" font-family="Open Sans,Avenir,Nunito,Arial,Helvetica,SansSerif" font-size="11.4583" lengthAdjust="spacing" textLength="68.75" x="956.25" y="220.5546">void signal()</text><line style="stroke:#5E5E5E;stroke-width:1.0416666666666667;" x1="934.375" x2="958.3333" y1="176.7344" y2="176.7344"/><text fill="#D8BC00" font-family="Open Sans,Avenir,Nunito,Arial,Helvetica,SansSerif" font-size="11.4583" lengthAdjust="spacing" textLength="44.7917" x="961.4583" y="180.544">(thread)</text><line style="stroke:#5E5E5E;stroke-width:1.0416666666666667;" x1="1009.375" x2="1033.3333" y1="176.7344" y2="176.7344"/><!--MD5=[ac7e7db5ed5a20f506db77c81023c7c7]
class ReentrantReadWriteLock--><rect fill="#282828" height="48.055" id="ReentrantReadWriteLock" rx="8.3333" ry="8.3333" style="stroke:#5E5E5E;stroke-width:1.0416666666666667;" width="194.7917" x="1070.8333" y="154.7445"/><rect fill="#1B1B1A" height="31.3883" rx="8.3333" ry="8.3333" style="stroke:#1B1B1A;stroke-width:1.0416666666666667;" width="194.7917" x="1070.8333" y="154.7445"/><rect fill="#1B1B1A" height="8.3333" style="stroke:#1B1B1A;stroke-width:1.0416666666666667;" width="194.7917" x="1070.8333" y="177.7995"/><rect fill="none" height="48.055" id="ReentrantReadWriteLock" rx="8.3333" ry="8.3333" style="stroke:#5E5E5E;stroke-width:1.0416666666666667;" width="194.7917" x="1070.8333" y="154.7445"/><ellipse cx="1085.4167" cy="170.4386" fill="#0066CF" rx="10.4167" ry="10.4167" style="stroke:#0086EF;stroke-width:1.0416666666666667;"/><path d="M1087.3271,174.8637 Q1086.8998,175.0834 1086.4299,175.1933 Q1085.9599,175.3031 1085.4411,175.3031 Q1083.5978,175.3031 1082.6274,174.0885 Q1081.6569,172.8739 1081.6569,170.579 Q1081.6569,168.278 1082.6274,167.0634 Q1083.5978,165.8488 1085.4411,165.8488 Q1085.9599,165.8488 1086.436,165.9587 Q1086.912,166.0685 1087.3271,166.2882 L1087.3271,168.2902 Q1086.8632,167.863 1086.4268,167.6646 Q1085.9904,167.4662 1085.5265,167.4662 Q1084.5378,167.4662 1084.0342,168.2505 Q1083.5307,169.0348 1083.5307,170.579 Q1083.5307,172.1171 1084.0342,172.9014 Q1084.5378,173.6857 1085.5265,173.6857 Q1085.9904,173.6857 1086.4268,173.4873 Q1086.8632,173.289 1087.3271,172.8617 Z " fill="#000000"/><text fill="#D8BC00" font-family="Open Sans,Avenir,Nunito,Arial,Helvetica,SansSerif" font-size="12.5" font-weight="bold" lengthAdjust="spacing" textLength="157.2917" x="1102.0833" y="175.1628">ReentrantReadWriteLock</text><line style="stroke:#5E5E5E;stroke-width:1.0416666666666667;" x1="1071.875" x2="1264.5833" y1="186.1328" y2="186.1328"/><line style="stroke:#5E5E5E;stroke-width:1.0416666666666667;" x1="1071.875" x2="1264.5833" y1="194.4661" y2="194.4661"/><!--MD5=[ffba5b1808e1978a91725292ddc5fdd2]
class ReadWriteLock--><rect codeLine="40" fill="#282828" height="210.1807" id="ReadWriteLock" rx="8.3333" ry="8.3333" style="stroke:#5E5E5E;stroke-width:1.0416666666666667;" width="177.0833" x="1079.6875" y="420.8903"/><rect fill="#1B1B1A" height="31.3883" rx="8.3333" ry="8.3333" style="stroke:#1B1B1A;stroke-width:1.0416666666666667;" width="177.0833" x="1079.6875" y="420.8903"/><rect fill="#1B1B1A" height="8.3333" style="stroke:#1B1B1A;stroke-width:1.0416666666666667;" width="177.0833" x="1079.6875" y="443.9453"/><rect codeLine="40" fill="none" height="210.1807" id="ReadWriteLock" rx="8.3333" ry="8.3333" style="stroke:#5E5E5E;stroke-width:1.0416666666666667;" width="177.0833" x="1079.6875" y="420.8903"/><ellipse cx="1114.4271" cy="436.5845" fill="#0066CF" rx="10.4167" ry="10.4167" style="stroke:#0086EF;stroke-width:1.0416666666666667;"/><path d="M1116.3375,441.0095 Q1115.9102,441.2292 1115.4403,441.3391 Q1114.9703,441.449 1114.4515,441.449 Q1112.6082,441.449 1111.6378,440.2344 Q1110.6673,439.0198 1110.6673,436.7249 Q1110.6673,434.4238 1111.6378,433.2092 Q1112.6082,431.9946 1114.4515,431.9946 Q1114.9703,431.9946 1115.4464,432.1045 Q1115.9224,432.2144 1116.3375,432.4341 L1116.3375,434.436 Q1115.8736,434.0088 1115.4372,433.8104 Q1115.0008,433.6121 1114.5369,433.6121 Q1113.5482,433.6121 1113.0446,434.3964 Q1112.5411,435.1807 1112.5411,436.7249 Q1112.5411,438.2629 1113.0446,439.0472 Q1113.5482,439.8315 1114.5369,439.8315 Q1115.0008,439.8315 1115.4372,439.6332 Q1115.8736,439.4348 1116.3375,439.0076 Z " fill="#000000"/><text fill="#D8BC00" font-family="Open Sans,Avenir,Nunito,Arial,Helvetica,SansSerif" font-size="12.5" font-weight="bold" lengthAdjust="spacing" textLength="94.7917" x="1135.5729" y="441.3086">ReadWriteLock</text><line style="stroke:#5E5E5E;stroke-width:1.5625;" x1="1080.7292" x2="1255.7292" y1="452.2786" y2="452.2786"/><ellipse cx="1091.1458" cy="487.6485" fill="#84BE84" rx="3.125" ry="3.125" style="stroke:#038048;stroke-width:1.0416666666666667;"/><text fill="#D8BC00" font-family="Open Sans,Avenir,Nunito,Arial,Helvetica,SansSerif" font-size="11.4583" lengthAdjust="spacing" textLength="89.5833" x="1102.6042" y="494.5597">ReadWriteLock()</text><line style="stroke:#5E5E5E;stroke-width:1.0416666666666667;" x1="1080.7292" x2="1124.4792" y1="470.4844" y2="470.4844"/><text fill="#D8BC00" font-family="Open Sans,Avenir,Nunito,Arial,Helvetica,SansSerif" font-size="11.4583" lengthAdjust="spacing" textLength="81.25" x="1127.6042" y="474.294">(constructors)</text><line style="stroke:#5E5E5E;stroke-width:1.0416666666666667;" x1="1211.9792" x2="1255.7292" y1="470.4844" y2="470.4844"/><ellipse cx="1091.1458" cy="531.3049" fill="#84BE84" rx="3.125" ry="3.125" style="stroke:#038048;stroke-width:1.0416666666666667;"/><text fill="#D8BC00" font-family="Open Sans,Avenir,Nunito,Arial,Helvetica,SansSerif" font-size="11.4583" lengthAdjust="spacing" textLength="142.7083" x="1102.6042" y="538.2161">void read(Runnable code)</text><ellipse cx="1091.1458" cy="551.0498" fill="#84BE84" rx="3.125" ry="3.125" style="stroke:#038048;stroke-width:1.0416666666666667;"/><text fill="#D8BC00" font-family="Open Sans,Avenir,Nunito,Arial,Helvetica,SansSerif" font-size="11.4583" lengthAdjust="spacing" textLength="138.5417" x="1102.6042" y="557.961">T read(Source&lt;T&gt; code)</text><line style="stroke:#5E5E5E;stroke-width:1.0416666666666667;" x1="1080.7292" x2="1148.4375" y1="514.1408" y2="514.1408"/><text fill="#D8BC00" font-family="Open Sans,Avenir,Nunito,Arial,Helvetica,SansSerif" font-size="11.4583" lengthAdjust="spacing" textLength="33.3333" x="1151.5625" y="517.9504">(read)</text><line style="stroke:#5E5E5E;stroke-width:1.0416666666666667;" x1="1188.0208" x2="1255.7292" y1="514.1408" y2="514.1408"/><ellipse cx="1091.1458" cy="594.7062" fill="#84BE84" rx="3.125" ry="3.125" style="stroke:#038048;stroke-width:1.0416666666666667;"/><text fill="#D8BC00" font-family="Open Sans,Avenir,Nunito,Arial,Helvetica,SansSerif" font-size="11.4583" lengthAdjust="spacing" textLength="144.7917" x="1102.6042" y="601.6174">void write(Runnable code)</text><ellipse cx="1091.1458" cy="614.4511" fill="#84BE84" rx="3.125" ry="3.125" style="stroke:#038048;stroke-width:1.0416666666666667;"/><text fill="#D8BC00" font-family="Open Sans,Avenir,Nunito,Arial,Helvetica,SansSerif" font-size="11.4583" lengthAdjust="spacing" textLength="140.625" x="1102.6042" y="621.3623">T write(Source&lt;T&gt; code)</text><line style="stroke:#5E5E5E;stroke-width:1.0416666666666667;" x1="1080.7292" x2="1147.3958" y1="577.5421" y2="577.5421"/><text fill="#D8BC00" font-family="Open Sans,Avenir,Nunito,Arial,Helvetica,SansSerif" font-size="11.4583" lengthAdjust="spacing" textLength="35.4167" x="1150.5208" y="581.3517">(write)</text><line style="stroke:#5E5E5E;stroke-width:1.0416666666666667;" x1="1189.0625" x2="1255.7292" y1="577.5421" y2="577.5421"/><!--MD5=[3626c233e602113c8cf5977cfac9c02f]
class StateMachine--><rect codeLine="53" fill="#282828" height="273.5819" id="StateMachine" rx="8.3333" ry="8.3333" style="stroke:#5E5E5E;stroke-width:1.0416666666666667;" width="507.2917" x="7.2917" y="389.1195"/><rect fill="#1B1B1A" height="31.3883" rx="8.3333" ry="8.3333" style="stroke:#1B1B1A;stroke-width:1.0416666666666667;" width="507.2917" x="7.2917" y="389.1195"/><rect fill="#1B1B1A" height="8.3333" style="stroke:#1B1B1A;stroke-width:1.0416666666666667;" width="507.2917" x="7.2917" y="412.1745"/><rect codeLine="53" fill="none" height="273.5819" id="StateMachine" rx="8.3333" ry="8.3333" style="stroke:#5E5E5E;stroke-width:1.0416666666666667;" width="507.2917" x="7.2917" y="389.1195"/><ellipse cx="189.5833" cy="404.8136" fill="#0066CF" rx="10.4167" ry="10.4167" style="stroke:#0086EF;stroke-width:1.0416666666666667;"/><path d="M191.4937,409.2387 Q191.0665,409.4584 190.5965,409.5683 Q190.1265,409.6781 189.6077,409.6781 Q187.7645,409.6781 186.794,408.4635 Q185.8236,407.2489 185.8236,404.954 Q185.8236,402.653 186.794,401.4384 Q187.7645,400.2238 189.6077,400.2238 Q190.1265,400.2238 190.6026,400.3337 Q191.0787,400.4435 191.4937,400.6632 L191.4937,402.6652 Q191.0299,402.238 190.5935,402.0396 Q190.1571,401.8412 189.6932,401.8412 Q188.7044,401.8412 188.2009,402.6255 Q187.6973,403.4098 187.6973,404.954 Q187.6973,406.4921 188.2009,407.2764 Q188.7044,408.0607 189.6932,408.0607 Q190.1571,408.0607 190.5935,407.8623 Q191.0299,407.664 191.4937,407.2367 Z " fill="#000000"/><text fill="#D8BC00" font-family="Open Sans,Avenir,Nunito,Arial,Helvetica,SansSerif" font-size="12.5" font-weight="bold" lengthAdjust="spacing" textLength="85.4167" x="212.5" y="409.5378">StateMachine</text><rect fill="#333333" height="23.055" style="stroke:#A0A0A0;stroke-width:1.0416666666666667;stroke-dasharray:2.0,2.0;" width="40.625" x="477.0833" y="385.9945"/><text fill="#A0A0A0" font-family="Open Sans,Avenir,Nunito,Arial,Helvetica,SansSerif" font-size="12.5" font-weight="bold" lengthAdjust="spacing" textLength="32.2917" x="481.25" y="402.2461">State</text><line style="stroke:#5E5E5E;stroke-width:1.5625;" x1="8.3333" x2="513.5417" y1="420.5078" y2="420.5078"/><ellipse cx="18.75" cy="455.8777" fill="#84BE84" rx="3.125" ry="3.125" style="stroke:#038048;stroke-width:1.0416666666666667;"/><text fill="#D8BC00" font-family="Open Sans,Avenir,Nunito,Arial,Helvetica,SansSerif" font-size="11.4583" lengthAdjust="spacing" textLength="108.3333" x="30.2083" y="462.7889">StateMachine(State)</text><ellipse cx="18.75" cy="475.6226" fill="#84BE84" rx="3.125" ry="3.125" style="stroke:#038048;stroke-width:1.0416666666666667;"/><text fill="#D8BC00" font-family="Open Sans,Avenir,Nunito,Arial,Helvetica,SansSerif" font-size="11.4583" lengthAdjust="spacing" textLength="207.2917" x="30.2083" y="482.5338">StateMachine(State, Receiver&lt;State&gt;)</text><line style="stroke:#5E5E5E;stroke-width:1.0416666666666667;" x1="8.3333" x2="217.1875" y1="438.7136" y2="438.7136"/><text fill="#D8BC00" font-family="Open Sans,Avenir,Nunito,Arial,Helvetica,SansSerif" font-size="11.4583" lengthAdjust="spacing" textLength="81.25" x="220.3125" y="442.5232">(constructors)</text><line style="stroke:#5E5E5E;stroke-width:1.0416666666666667;" x1="304.6875" x2="513.5417" y1="438.7136" y2="438.7136"/><line style="stroke:#5E5E5E;stroke-width:1.0416666666666667;" x1="8.3333" x2="513.5417" y1="492.2424" y2="492.2424"/><ellipse cx="18.75" cy="503.7008" fill="#84BE84" rx="3.125" ry="3.125" style="stroke:#038048;stroke-width:1.0416666666666667;"/><text fill="#D8BC00" font-family="Open Sans,Avenir,Nunito,Arial,Helvetica,SansSerif" font-size="11.4583" lengthAdjust="spacing" textLength="92.7083" x="30.2083" y="510.612">boolean is(State)</text><ellipse cx="18.75" cy="523.4456" fill="#84BE84" rx="3.125" ry="3.125" style="stroke:#038048;stroke-width:1.0416666666666667;"/><text fill="#D8BC00" font-family="Open Sans,Avenir,Nunito,Arial,Helvetica,SansSerif" font-size="11.4583" lengthAdjust="spacing" textLength="215.625" x="30.2083" y="530.3569">boolean transition(State from, State to)</text><ellipse cx="18.75" cy="543.1905" fill="#84BE84" rx="3.125" ry="3.125" style="stroke:#038048;stroke-width:1.0416666666666667;"/><text fill="#D8BC00" font-family="Open Sans,Avenir,Nunito,Arial,Helvetica,SansSerif" font-size="11.4583" lengthAdjust="spacing" textLength="148.9583" x="30.2083" y="550.1017">State transitionTo(State to)</text><ellipse cx="18.75" cy="586.8469" fill="#84BE84" rx="3.125" ry="3.125" style="stroke:#038048;stroke-width:1.0416666666666667;"/><text fill="#D8BC00" font-family="Open Sans,Avenir,Nunito,Arial,Helvetica,SansSerif" font-size="11.4583" lengthAdjust="spacing" textLength="338.5417" x="30.2083" y="593.7581">boolean transitionAndWait(State from, State to, State waitFor)</text><ellipse cx="18.75" cy="606.5918" fill="#84BE84" rx="3.125" ry="3.125" style="stroke:#038048;stroke-width:1.0416666666666667;"/><text fill="#D8BC00" font-family="Open Sans,Avenir,Nunito,Arial,Helvetica,SansSerif" font-size="11.4583" lengthAdjust="spacing" textLength="475" x="30.2083" y="613.503">boolean transitionAndWait(State from, State to, State waitFor, Duration maximumWait)</text><ellipse cx="18.75" cy="626.3367" fill="#84BE84" rx="3.125" ry="3.125" style="stroke:#038048;stroke-width:1.0416666666666667;"/><text fill="#D8BC00" font-family="Open Sans,Avenir,Nunito,Arial,Helvetica,SansSerif" font-size="11.4583" lengthAdjust="spacing" textLength="123.9583" x="30.2083" y="633.2479">boolean waitFor(State)</text><ellipse cx="18.75" cy="646.0815" fill="#84BE84" rx="3.125" ry="3.125" style="stroke:#038048;stroke-width:1.0416666666666667;"/><text fill="#D8BC00" font-family="Open Sans,Avenir,Nunito,Arial,Helvetica,SansSerif" font-size="11.4583" lengthAdjust="spacing" textLength="260.4167" x="30.2083" y="652.9928">boolean waitFor(State, Duration maximumWait)</text><line style="stroke:#5E5E5E;stroke-width:1.0416666666666667;" x1="8.3333" x2="235.4167" y1="569.6828" y2="569.6828"/><text fill="#D8BC00" font-family="Open Sans,Avenir,Nunito,Arial,Helvetica,SansSerif" font-size="11.4583" lengthAdjust="spacing" textLength="44.7917" x="238.5417" y="573.4924">(thread)</text><line style="stroke:#5E5E5E;stroke-width:1.0416666666666667;" x1="286.4583" x2="513.5417" y1="569.6828" y2="569.6828"/><!--MD5=[e5564a1acc4df3f70dcbc94a812f1ed1]
class StateWatcher--><rect codeLine="69" fill="#282828" height="162.3576" id="StateWatcher" rx="8.3333" ry="8.3333" style="stroke:#5E5E5E;stroke-width:1.0416666666666667;" width="400" x="1302.6042" y="97.4528"/><rect fill="#1B1B1A" height="31.3883" rx="8.3333" ry="8.3333" style="stroke:#1B1B1A;stroke-width:1.0416666666666667;" width="400" x="1302.6042" y="97.4528"/><rect fill="#1B1B1A" height="8.3333" style="stroke:#1B1B1A;stroke-width:1.0416666666666667;" width="400" x="1302.6042" y="120.5078"/><rect codeLine="69" fill="none" height="162.3576" id="StateWatcher" rx="8.3333" ry="8.3333" style="stroke:#5E5E5E;stroke-width:1.0416666666666667;" width="400" x="1302.6042" y="97.4528"/><ellipse cx="1432.2917" cy="113.147" fill="#0066CF" rx="10.4167" ry="10.4167" style="stroke:#0086EF;stroke-width:1.0416666666666667;"/><path d="M1434.2021,117.572 Q1433.7748,117.7917 1433.3049,117.9016 Q1432.8349,118.0115 1432.3161,118.0115 Q1430.4728,118.0115 1429.5024,116.7969 Q1428.5319,115.5823 1428.5319,113.2874 Q1428.5319,110.9863 1429.5024,109.7717 Q1430.4728,108.5571 1432.3161,108.5571 Q1432.8349,108.5571 1433.311,108.667 Q1433.787,108.7769 1434.2021,108.9966 L1434.2021,110.9985 Q1433.7382,110.5713 1433.3018,110.3729 Q1432.8654,110.1746 1432.4015,110.1746 Q1431.4128,110.1746 1430.9092,110.9589 Q1430.4057,111.7432 1430.4057,113.2874 Q1430.4057,114.8254 1430.9092,115.6097 Q1431.4128,116.394 1432.4015,116.394 Q1432.8654,116.394 1433.3018,116.1957 Q1433.7382,115.9973 1434.2021,115.5701 Z " fill="#000000"/><text fill="#D8BC00" font-family="Open Sans,Avenir,Nunito,Arial,Helvetica,SansSerif" font-size="12.5" font-weight="bold" lengthAdjust="spacing" textLength="83.3333" x="1455.2083" y="117.8711">StateWatcher</text><rect fill="#333333" height="23.055" style="stroke:#A0A0A0;stroke-width:1.0416666666666667;stroke-dasharray:2.0,2.0;" width="40.625" x="1665.1042" y="94.3278"/><text fill="#A0A0A0" font-family="Open Sans,Avenir,Nunito,Arial,Helvetica,SansSerif" font-size="12.5" font-weight="bold" lengthAdjust="spacing" textLength="32.2917" x="1669.2708" y="110.5794">State</text><line style="stroke:#5E5E5E;stroke-width:1.5625;" x1="1303.6458" x2="1701.5625" y1="128.8411" y2="128.8411"/><ellipse cx="1314.0625" cy="164.211" fill="#84BE84" rx="3.125" ry="3.125" style="stroke:#038048;stroke-width:1.0416666666666667;"/><text fill="#D8BC00" font-family="Open Sans,Avenir,Nunito,Arial,Helvetica,SansSerif" font-size="11.4583" lengthAdjust="spacing" textLength="95.8333" x="1325.5208" y="171.1222">void signal(State)</text><ellipse cx="1314.0625" cy="183.9559" fill="#84BE84" rx="3.125" ry="3.125" style="stroke:#038048;stroke-width:1.0416666666666667;"/><text fill="#D8BC00" font-family="Open Sans,Avenir,Nunito,Arial,Helvetica,SansSerif" font-size="11.4583" lengthAdjust="spacing" textLength="342.7083" x="1325.5208" y="190.8671">WakeState waitFor(State desired, Duration maximumWaitTime)</text><ellipse cx="1314.0625" cy="203.7008" fill="#84BE84" rx="3.125" ry="3.125" style="stroke:#038048;stroke-width:1.0416666666666667;"/><text fill="#D8BC00" font-family="Open Sans,Avenir,Nunito,Arial,Helvetica,SansSerif" font-size="11.4583" lengthAdjust="spacing" textLength="204.1667" x="1325.5208" y="210.612">WakeState waitFor(Predicate&lt;State&gt;)</text><ellipse cx="1314.0625" cy="223.4456" fill="#84BE84" rx="3.125" ry="3.125" style="stroke:#038048;stroke-width:1.0416666666666667;"/><text fill="#D8BC00" font-family="Open Sans,Avenir,Nunito,Arial,Helvetica,SansSerif" font-size="11.4583" lengthAdjust="spacing" textLength="179.1667" x="1325.5208" y="230.3569">WakeState waitFor(State desired)</text><ellipse cx="1314.0625" cy="243.1905" fill="#84BE84" rx="3.125" ry="3.125" style="stroke:#038048;stroke-width:1.0416666666666667;"/><text fill="#D8BC00" font-family="Open Sans,Avenir,Nunito,Arial,Helvetica,SansSerif" font-size="11.4583" lengthAdjust="spacing" textLength="367.7083" x="1325.5208" y="250.1017">WakeState waitFor(Predicate&lt;State&gt;, Duration maximumWaitTime)</text><line style="stroke:#5E5E5E;stroke-width:1.0416666666666667;" x1="1303.6458" x2="1477.0833" y1="147.0469" y2="147.0469"/><text fill="#D8BC00" font-family="Open Sans,Avenir,Nunito,Arial,Helvetica,SansSerif" font-size="11.4583" lengthAdjust="spacing" textLength="44.7917" x="1480.2083" y="150.8565">(thread)</text><line style="stroke:#5E5E5E;stroke-width:1.0416666666666667;" x1="1528.125" x2="1701.5625" y1="147.0469" y2="147.0469"/><!--MD5=[c73ec74597269a53feb805bfa1fbf0ba]
link CompletionLatch to WakeState--><path codeLine="8" d="M603.6458,303.9215 C603.6458,359.4736 603.6458,422.3174 603.6458,466.7757 " fill="none" id="CompletionLatch-to-WakeState" style="stroke:#545454;stroke-width:1.5625;"/><polygon fill="#545454" points="603.6458,472.0986,607.8125,462.7236,603.6458,466.8903,599.4792,462.7236,603.6458,472.0986" style="stroke:#545454;stroke-width:1.5625;"/><text fill="#A0A0A0" font-family="Open Sans,Avenir,Nunito,Arial,Helvetica,SansSerif" font-size="12.5" font-weight="bold" lengthAdjust="spacing" textLength="68.75" x="607.8125" y="351.2044">waits until</text><!--MD5=[90cf93e1fd82c7ba83e738af0aaf9816]
reverse link ReentrantLock to Lock--><path codeLine="23" d="M831.7708,223.5778 C831.7708,286.307 831.7708,401.6715 831.7708,470.057 " fill="none" id="ReentrantLock-backto-Lock" style="stroke:#545454;stroke-width:1.5625;"/><polygon fill="none" points="824.4792,223.5049,831.7708,202.6715,839.0625,223.5049,824.4792,223.5049" style="stroke:#545454;stroke-width:1.5625;"/><!--MD5=[095669f664a5e268f07b2c9c282aa21a]
reverse link ReentrantReadWriteLock to ReadWriteLock--><path codeLine="39" d="M1168.2292,223.7965 C1168.2292,273.1611 1168.2292,354.9215 1168.2292,420.8174 " fill="none" id="ReentrantReadWriteLock-backto-ReadWriteLock" style="stroke:#545454;stroke-width:1.5625;"/><polygon fill="none" points="1160.9375,223.5049,1168.2292,202.6715,1175.5208,223.5049,1160.9375,223.5049" style="stroke:#545454;stroke-width:1.5625;"/><!--MD5=[fdda41a12b25b3c7c5e655337c7fed7e]
reverse link BaseRepeater to StateMachine--><path codeLine="52" d="M260.9375,223.7965 C260.9375,265.4632 260.9375,330.2236 260.9375,389.0361 " fill="none" id="BaseRepeater-backto-StateMachine" style="stroke:#545454;stroke-width:1.5625;"/><polygon fill="none" points="253.6458,223.5049,260.9375,202.6715,268.2292,223.5049,253.6458,223.5049" style="stroke:#545454;stroke-width:1.5625;"/><!--MD5=[f8baf6c2713bed115116adf312dc4f60]
@startuml

    !include ../lexakai/lexakai.theme
    
    title "Language - Thread Synchronization"
    
    abstract BaseRepeater
    
    CompletionLatch - -> WakeState : "waits until"
    class CompletionLatch
    {
        - -(constructors)- -
        +CompletionLatch()
        +CompletionLatch(Count)
        - -(lifecycle)- -
        +void completed()
        +boolean hasCompleted()
        +void reset()
        - -(thread)- -
        +WakeState waitForCompletion()
        +WakeState waitForCompletion(Duration)
    }
    
    ReentrantLock <|- - Lock
    class Lock
    {
        - -
        +void whileLocked(Runnable code)
        - -(functional)- -
        +T whileLocked(Code<T>)
    }
    
    class Monitor
    {
        - -(thread)- -
        +void await()
        +void signal()
    }
    
    ReentrantReadWriteLock <|- - ReadWriteLock
    class ReadWriteLock
    {
        - -(constructors)- -
        +ReadWriteLock()
        - -(read)- -
        +void read(Runnable code)
        +T read(Source<T> code)
        - -(write)- -
        +void write(Runnable code)
        +T write(Source<T> code)
    }
    
    BaseRepeater <|- - StateMachine
    class StateMachine<State>
    {
        - -(constructors)- -
        +StateMachine(State)
        +StateMachine(State, Receiver<State>)
        - -
        +boolean is(State)
        +boolean transition(State from, State to)
        +State transitionTo(State to)
        - -(thread)- -
        +boolean transitionAndWait(State from, State to, State waitFor)
        +boolean transitionAndWait(State from, State to, State waitFor, Duration maximumWait)
        +boolean waitFor(State)
        +boolean waitFor(State, Duration maximumWait)
    }
    
    class StateWatcher<State>
    {
        - -(thread)- -
        +void signal(State)
        +WakeState waitFor(State desired, Duration maximumWaitTime)
        +WakeState waitFor(Predicate<State>)
        +WakeState waitFor(State desired)
        +WakeState waitFor(Predicate<State>, Duration maximumWaitTime)
    }
    
    enum WakeState
    {
        COMPLETED
        INTERRUPTED
        TIMED_OUT
    }
    
@enduml

@startuml









skinparam backgroundColor #333333






skinparam  {
    defaultFontName   "Open Sans,Avenir,Nunito,Arial,Helvetica,SansSerif"
    defaultFontSize   12
    defaultTextAlignment left
    shadowing false
    RoundCorner 10
    TitleFontSize 18
}

skinparam defaultFontName       "Open Sans,Avenir,Nunito,Arial,Helvetica,SansSerif"
skinparam defaultFontSize       12
skinparam dpi                   100
skinparam shadowing             false
skinparam roundcorner           16
skinparam ParticipantPadding    40
skinparam BoxPadding            40
skinparam Padding               3
skinparam ArrowColor            #545454
skinparam stereotype {
    CBackgroundColor #0066cf
    CBorderColor #0086ef
    ABackgroundColor #C8Ac00
    ABorderColor #D8Bc00
    IBackgroundColor #008400
    IBorderColor #239c23
    EBackgroundColor #cf6300
    EBorderColor #ef8300
    NBackgroundColor #3380b9
    NBorderColor #004d86
}
skinparam title {
	FontColor	                 #c0c0c0
 	BorderColor                  #545454
	FontSize	    	         20
	BorderRoundCorner            16
	BorderThickness 	         1
	BackgroundColor              #48494b
}


skinparam legend {
	BackgroundColor #303030
	BorderColor #404040
	FontColor #a0a0a0
}

	skinparam swimlane {
	BorderColor #5e5e5e
	BorderThickness 2
	TitleBackgroundColor  #6d6d6d-#484848
	TitleFontColor #303030
}

skinparam activity {
		FontColor #C8Ac00
	BorderColor #333333
	BackgroundColor #333333-#333333
	BarColor #00FF00
	StartColor #0060a8
	EndColor #0060a8
	DiamondBackgroundColor #6d6d6d-#3a3a3a
  	DiamondBorderColor #3a3a3a
  	DiamondFontColor #fefefe
}


skinparam participant {
		FontColor #C8Ac00
	BorderColor #333333
	BackgroundColor #333333-#333333
	ParticipantBorderThickness 2
}


skinparam actor {
		FontColor #C8Ac00
	BorderColor #333333
	BackgroundColor #333333-#333333
}


skinparam arrow {
	Thickness 1.5
	Color #545454
	FontColor #a0a0a0
    FontStyle bold
    MessageAlignment center
}



skinparam sequence {
	BorderColor #303030
	TitleFontColor #303030
	BackgroundColor #333333
	StartColor #303030
	EndColor #303030
	BoxBackgroundColor #333333
	BoxBorderColor #484848
	BoxFontColor #484848
	LifeLineBorderColor #484848
	LifeLineBorderThickness 2
	LifeLineBackgroundColor #3a3a3a
	GroupBorderColor #484848
	GroupFontColor #484848
	GroupHeaderFontColor #0060a8
	GroupBackgroundColor #484848
	GroupHeaderBackgroundColor #333333
	DividerBackgroundColor #484848
    DividerBorderColor #484848
    DividerBorderThickness 2
    DividerFontColor #D8Bc00
	ReferenceBackgroundColor #333333
	ReferenceBorderColor #484848
	ReferenceFontColor #fefefe
	ReferenceHeaderBackgroundColor #484848
}


skinparam partition {
	BorderColor #303030
	FontColor #333333
	BackgroundColor #333333
}


skinparam collections {
		FontColor #C8Ac00
	BorderColor #333333
	BackgroundColor #333333-#333333
}


skinparam control {
		FontColor #C8Ac00
	BorderColor #333333
	BackgroundColor #333333-#333333
}


skinparam entity {
		FontColor #C8Ac00
	BorderColor #333333
	BackgroundColor #333333-#333333
}


skinparam boundary {
		FontColor #C8Ac00
	BorderColor #333333
	BackgroundColor #333333-#333333
}


skinparam agent {
	BackgroundColor #ff8000
	BorderColor #ff9933
	FontColor #484848
}


skinparam note {
	BorderThickness 1
	BackgroundColor #1b1b1a
	BorderColor #5e5e5e
	FontSize 11
	FontColor #a0a0a0
}


skinparam artifact {
	BorderThickness 10
	BorderColor #5e5e5e
	BackgroundColor #1b1b1a
	FontColor #D8Bc00
}


skinparam component {
		FontColor #C8Ac00
	BorderColor #333333
	BackgroundColor #333333-#333333
}


skinparam interface {
	BackgroundColor  #008400
	BorderColor  #007F00
	FontColor #484848
}


skinparam storage {
	BackgroundColor #ff8000
  	BorderColor #cc6600
	FontColor #222222
}


skinparam node {
	BackgroundColor #333333
	BorderColor #333333
	FontColor #C8Ac00
}


skinparam cloud {
	BackgroundColor #484848-black
	BorderColor #484848
	FontColor #D8Bc00
}


skinparam database {
		FontColor #C8Ac00
	BorderColor #333333
	BackgroundColor #333333-#333333
	BackgroundColor  #333333
}


skinparam class {
		FontColor #C8Ac00
	BorderColor #333333
	BackgroundColor #333333-#333333
	HeaderBackgroundColor #1b1b1a
    BackgroundColor #282828
    BorderColor #5e5e5e
 	StereotypeFontColor #a0a0a0
    StereotypeFontStyle bold
	BorderThickness 1
	AttributeFontColor #D8Bc00
	AttributeFontSize 11
    FontColor #D8Bc00
    FontStyle bold
}


skinparam object {
		FontColor #C8Ac00
	BorderColor #333333
	BackgroundColor #333333-#333333
	StereotypeFontColor #484848
	BorderThickness 1
	AttributeFontColor #fefefe
	AttributeFontSize 11
}


skinparam usecase {
		FontColor #C8Ac00
	BorderColor #333333
	BackgroundColor #333333-#333333
	BorderThickness 2
	StereotypeFontColor #303030
}


skinparam rectangle {
		FontColor #C8Ac00
	BorderColor #333333
	BackgroundColor #333333-#333333
	BackgroundColor #333333
	BorderThickness 2
	StereotypeFontColor #303030
}


skinparam package {
		FontColor #C8Ac00
	BorderColor #333333
	BackgroundColor #333333-#333333
	BackgroundColor #333333
	BorderThickness 2
}


skinparam folder {
	BackgroundColor #6d6d6d
  	BorderColor #ff8000
	FontColor #ff8000
	BorderThickness 2
}


skinparam frame {
	BackgroundColor #6d6d6d
  	BorderColor #0060a8
	FontColor #0060a8
	BorderThickness 2
}


skinparam state {
		FontColor #C8Ac00
	BorderColor #333333
	BackgroundColor #333333-#333333
	StartColor #0060a8
	EndColor #0060a8
	AttributeFontColor #fefefe
	AttributeFontSize 11
}


skinparam queue {
		FontColor #C8Ac00
	BorderColor #333333
	BackgroundColor #333333-#333333
}


skinparam card {
	BackgroundColor #0060a8
	BorderColor #004d86
	FontColor $INFO_TEXT
}


skinparam file {
	BackgroundColor #6d6d6d-#484848
	BorderColor #0060a8
	FontColor #fefefe
}


skinparam stack {
		FontColor #C8Ac00
	BorderColor #333333
	BackgroundColor #333333-#333333
}

    
    title "Language - Thread Synchronization"
    
    abstract BaseRepeater
    
    CompletionLatch - -> WakeState : "waits until"
    class CompletionLatch
    {
        - -(constructors)- -
        +CompletionLatch()
        +CompletionLatch(Count)
        - -(lifecycle)- -
        +void completed()
        +boolean hasCompleted()
        +void reset()
        - -(thread)- -
        +WakeState waitForCompletion()
        +WakeState waitForCompletion(Duration)
    }
    
    ReentrantLock <|- - Lock
    class Lock
    {
        - -
        +void whileLocked(Runnable code)
        - -(functional)- -
        +T whileLocked(Code<T>)
    }
    
    class Monitor
    {
        - -(thread)- -
        +void await()
        +void signal()
    }
    
    ReentrantReadWriteLock <|- - ReadWriteLock
    class ReadWriteLock
    {
        - -(constructors)- -
        +ReadWriteLock()
        - -(read)- -
        +void read(Runnable code)
        +T read(Source<T> code)
        - -(write)- -
        +void write(Runnable code)
        +T write(Source<T> code)
    }
    
    BaseRepeater <|- - StateMachine
    class StateMachine<State>
    {
        - -(constructors)- -
        +StateMachine(State)
        +StateMachine(State, Receiver<State>)
        - -
        +boolean is(State)
        +boolean transition(State from, State to)
        +State transitionTo(State to)
        - -(thread)- -
        +boolean transitionAndWait(State from, State to, State waitFor)
        +boolean transitionAndWait(State from, State to, State waitFor, Duration maximumWait)
        +boolean waitFor(State)
        +boolean waitFor(State, Duration maximumWait)
    }
    
    class StateWatcher<State>
    {
        - -(thread)- -
        +void signal(State)
        +WakeState waitFor(State desired, Duration maximumWaitTime)
        +WakeState waitFor(Predicate<State>)
        +WakeState waitFor(State desired)
        +WakeState waitFor(Predicate<State>, Duration maximumWaitTime)
    }
    
    enum WakeState
    {
        COMPLETED
        INTERRUPTED
        TIMED_OUT
    }
    
@enduml

PlantUML version 1.2021.01(Tue Feb 02 00:55:08 MST 2021)
(GPL source distribution)
Java Runtime: Java(TM) SE Runtime Environment
JVM: Java HotSpot(TM) 64-Bit Server VM
Default Encoding: UTF-8
Language: en
Country: US
--></g></svg>