<?xml version="1.0" encoding="UTF-8" standalone="no"?><svg xmlns="http://www.w3.org/2000/svg" xmlns:xlink="http://www.w3.org/1999/xlink" contentScriptType="application/ecmascript" contentStyleType="text/css" height="594.7917px" preserveAspectRatio="none" style="width:648px;height:594px;background:#333333;" version="1.1" viewBox="0 0 648 594" width="648.9583px" zoomAndPan="magnify"><defs/><g><rect fill="#48494B" height="41.2028" rx="8.3333" ry="8.3333" style="stroke:#545454;stroke-width:1.0416666666666667;" width="157.2917" x="238.5417" y="2.0833"/><text fill="#C0C0C0" font-family="Open Sans,Avenir,Nunito,Arial,Helvetica,SansSerif" font-size="20.8333" lengthAdjust="spacing" textLength="134.375" x="250" y="30.5583">Service Client</text><!--MD5=[762aa3d0df6a9d47bd8e105afbd066b5]
class BaseRepeater--><rect codeLine="6" fill="#282828" height="48.055" id="BaseRepeater" rx="8.3333" ry="8.3333" style="stroke:#5E5E5E;stroke-width:1.0416666666666667;" width="123.9583" x="273.4375" y="53.7028"/><rect fill="#1B1B1A" height="31.3883" rx="8.3333" ry="8.3333" style="stroke:#1B1B1A;stroke-width:1.0416666666666667;" width="123.9583" x="273.4375" y="53.7028"/><rect fill="#1B1B1A" height="8.3333" style="stroke:#1B1B1A;stroke-width:1.0416666666666667;" width="123.9583" x="273.4375" y="76.7578"/><rect codeLine="6" fill="none" height="48.055" id="BaseRepeater" rx="8.3333" ry="8.3333" style="stroke:#5E5E5E;stroke-width:1.0416666666666667;" width="123.9583" x="273.4375" y="53.7028"/><ellipse cx="288.0208" cy="69.397" fill="#C8AC00" rx="10.4167" ry="10.4167" style="stroke:#D8BC00;stroke-width:1.0416666666666667;"/><path d="M288.1348,66.099 L287.2864,69.8283 L288.9893,69.8283 Z M287.0361,64.4511 L289.2395,64.4511 L291.6992,73.5636 L289.8987,73.5636 L289.3372,71.3114 L286.9263,71.3114 L286.377,73.5636 L284.5764,73.5636 Z " fill="#000000"/><text fill="#D8BC00" font-family="Open Sans,Avenir,Nunito,Arial,Helvetica,SansSerif" font-size="12.5" font-style="italic" font-weight="bold" lengthAdjust="spacing" textLength="86.4583" x="304.6875" y="74.1211">BaseRepeater</text><line style="stroke:#5E5E5E;stroke-width:1.0416666666666667;" x1="274.4792" x2="396.3542" y1="85.0911" y2="85.0911"/><line style="stroke:#5E5E5E;stroke-width:1.0416666666666667;" x1="274.4792" x2="396.3542" y1="93.4245" y2="93.4245"/><!--MD5=[f66a573746572471d3a5c21444068a31]
class ServiceRegistryClient--><rect codeLine="13" fill="#282828" height="289.1602" id="ServiceRegistryClient" rx="8.3333" ry="8.3333" style="stroke:#5E5E5E;stroke-width:1.0416666666666667;" width="491.6667" x="89.5833" y="165.1611"/><rect fill="#1B1B1A" height="31.3883" rx="8.3333" ry="8.3333" style="stroke:#1B1B1A;stroke-width:1.0416666666666667;" width="491.6667" x="89.5833" y="165.1611"/><rect fill="#1B1B1A" height="8.3333" style="stroke:#1B1B1A;stroke-width:1.0416666666666667;" width="491.6667" x="89.5833" y="188.2161"/><rect codeLine="13" fill="none" height="289.1602" id="ServiceRegistryClient" rx="8.3333" ry="8.3333" style="stroke:#5E5E5E;stroke-width:1.0416666666666667;" width="491.6667" x="89.5833" y="165.1611"/><ellipse cx="259.8958" cy="180.8553" fill="#0066CF" rx="10.4167" ry="10.4167" style="stroke:#0086EF;stroke-width:1.0416666666666667;"/><path d="M261.8062,185.2804 Q261.379,185.5001 260.909,185.6099 Q260.439,185.7198 259.9202,185.7198 Q258.077,185.7198 257.1065,184.5052 Q256.1361,183.2906 256.1361,180.9957 Q256.1361,178.6947 257.1065,177.4801 Q258.077,176.2655 259.9202,176.2655 Q260.439,176.2655 260.9151,176.3753 Q261.3912,176.4852 261.8062,176.7049 L261.8062,178.7069 Q261.3424,178.2796 260.906,178.0813 Q260.4696,177.8829 260.0057,177.8829 Q259.0169,177.8829 258.5134,178.6672 Q258.0098,179.4515 258.0098,180.9957 Q258.0098,182.5338 258.5134,183.3181 Q259.0169,184.1024 260.0057,184.1024 Q260.4696,184.1024 260.906,183.904 Q261.3424,183.7056 261.8062,183.2784 Z " fill="#000000"/><text fill="#D8BC00" font-family="Open Sans,Avenir,Nunito,Arial,Helvetica,SansSerif" font-size="12.5" font-weight="bold" lengthAdjust="spacing" textLength="136.4583" x="282.8125" y="185.5794">ServiceRegistryClient</text><line style="stroke:#5E5E5E;stroke-width:1.5625;" x1="90.625" x2="580.2083" y1="196.5495" y2="196.5495"/><ellipse cx="101.0417" cy="231.9194" fill="#84BE84" rx="3.125" ry="3.125" style="stroke:#038048;stroke-width:1.0416666666666667;"/><text fill="#D8BC00" font-family="Open Sans,Avenir,Nunito,Arial,Helvetica,SansSerif" font-size="11.4583" lengthAdjust="spacing" textLength="350" x="112.5" y="238.8306">Result&lt;Service&gt; register(Scope, ServiceType, ServiceMetadata)</text><ellipse cx="101.0417" cy="251.6642" fill="#84BE84" rx="3.125" ry="3.125" style="stroke:#038048;stroke-width:1.0416666666666667;"/><text fill="#D8BC00" font-family="Open Sans,Avenir,Nunito,Arial,Helvetica,SansSerif" font-size="11.4583" lengthAdjust="spacing" textLength="187.5" x="112.5" y="258.5754">Result&lt;Service&gt; register(Service)</text><line style="stroke:#5E5E5E;stroke-width:1.0416666666666667;" x1="90.625" x2="308.8542" y1="214.7552" y2="214.7552"/><text fill="#D8BC00" font-family="Open Sans,Avenir,Nunito,Arial,Helvetica,SansSerif" font-size="11.4583" lengthAdjust="spacing" textLength="46.875" x="311.9792" y="218.5649">(lookup)</text><line style="stroke:#5E5E5E;stroke-width:1.0416666666666667;" x1="361.9792" x2="580.2083" y1="214.7552" y2="214.7552"/><ellipse cx="101.0417" cy="295.3206" fill="#84BE84" rx="3.125" ry="3.125" style="stroke:#038048;stroke-width:1.0416666666666667;"/><text fill="#D8BC00" font-family="Open Sans,Avenir,Nunito,Arial,Helvetica,SansSerif" font-size="11.4583" lengthAdjust="spacing" textLength="306.25" x="112.5" y="302.2319">Result&lt;Boolean&gt; sendNetworkRegistryUpdate(Service)</text><line style="stroke:#5E5E5E;stroke-width:1.0416666666666667;" x1="90.625" x2="305.7292" y1="278.1565" y2="278.1565"/><text fill="#D8BC00" font-family="Open Sans,Avenir,Nunito,Arial,Helvetica,SansSerif" font-size="11.4583" lengthAdjust="spacing" textLength="53.125" x="308.8542" y="281.9661">(network)</text><line style="stroke:#5E5E5E;stroke-width:1.0416666666666667;" x1="365.1042" x2="580.2083" y1="278.1565" y2="278.1565"/><ellipse cx="101.0417" cy="338.9771" fill="#84BE84" rx="3.125" ry="3.125" style="stroke:#038048;stroke-width:1.0416666666666667;"/><text fill="#D8BC00" font-family="Open Sans,Avenir,Nunito,Arial,Helvetica,SansSerif" font-size="11.4583" lengthAdjust="spacing" textLength="364.5833" x="112.5" y="345.8883">Result&lt;Set&lt;ApplicationIdentifier&gt;&gt; discoverApplications(Scope)</text><ellipse cx="101.0417" cy="358.7219" fill="#84BE84" rx="3.125" ry="3.125" style="stroke:#038048;stroke-width:1.0416666666666667;"/><text fill="#D8BC00" font-family="Open Sans,Avenir,Nunito,Arial,Helvetica,SansSerif" font-size="11.4583" lengthAdjust="spacing" textLength="237.5" x="112.5" y="365.6331">Result&lt;Service&gt; discoverPortService(Port)</text><ellipse cx="101.0417" cy="378.4668" fill="#84BE84" rx="3.125" ry="3.125" style="stroke:#038048;stroke-width:1.0416666666666667;"/><text fill="#D8BC00" font-family="Open Sans,Avenir,Nunito,Arial,Helvetica,SansSerif" font-size="11.4583" lengthAdjust="spacing" textLength="459.375" x="112.5" y="385.378">Result&lt;Set&lt;Service&gt;&gt; discoverServices(Scope, ApplicationIdentifier, ServiceType)</text><ellipse cx="101.0417" cy="398.2117" fill="#84BE84" rx="3.125" ry="3.125" style="stroke:#038048;stroke-width:1.0416666666666667;"/><text fill="#D8BC00" font-family="Open Sans,Avenir,Nunito,Arial,Helvetica,SansSerif" font-size="11.4583" lengthAdjust="spacing" textLength="339.5833" x="112.5" y="405.1229">Result&lt;Set&lt;Service&gt;&gt; discoverServices(Scope, ServiceType)</text><ellipse cx="101.0417" cy="417.9565" fill="#84BE84" rx="3.125" ry="3.125" style="stroke:#038048;stroke-width:1.0416666666666667;"/><text fill="#D8BC00" font-family="Open Sans,Avenir,Nunito,Arial,Helvetica,SansSerif" font-size="11.4583" lengthAdjust="spacing" textLength="266.6667" x="112.5" y="424.8678">Result&lt;Set&lt;Service&gt;&gt; discoverServices(Scope)</text><ellipse cx="101.0417" cy="437.7014" fill="#84BE84" rx="3.125" ry="3.125" style="stroke:#038048;stroke-width:1.0416666666666667;"/><text fill="#D8BC00" font-family="Open Sans,Avenir,Nunito,Arial,Helvetica,SansSerif" font-size="11.4583" lengthAdjust="spacing" textLength="386.4583" x="112.5" y="444.6126">Result&lt;Set&lt;Service&gt;&gt; discoverServices(Scope, ApplicationIdentifier)</text><line style="stroke:#5E5E5E;stroke-width:1.0416666666666667;" x1="90.625" x2="309.375" y1="321.8129" y2="321.8129"/><text fill="#D8BC00" font-family="Open Sans,Avenir,Nunito,Arial,Helvetica,SansSerif" font-size="11.4583" lengthAdjust="spacing" textLength="45.8333" x="312.5" y="325.6226">(search)</text><line style="stroke:#5E5E5E;stroke-width:1.0416666666666667;" x1="361.4583" x2="580.2083" y1="321.8129" y2="321.8129"/><!--MD5=[652c289fe7a9d0cf99e5eab213ffc423]
class ApplicationIdentifier--><rect fill="#282828" height="48.055" id="ApplicationIdentifier" rx="8.3333" ry="8.3333" style="stroke:#5E5E5E;stroke-width:1.0416666666666667;" width="170.8333" x="7.2917" y="540.1611"/><rect fill="#1B1B1A" height="31.3883" rx="8.3333" ry="8.3333" style="stroke:#1B1B1A;stroke-width:1.0416666666666667;" width="170.8333" x="7.2917" y="540.1611"/><rect fill="#1B1B1A" height="8.3333" style="stroke:#1B1B1A;stroke-width:1.0416666666666667;" width="170.8333" x="7.2917" y="563.2161"/><rect fill="none" height="48.055" id="ApplicationIdentifier" rx="8.3333" ry="8.3333" style="stroke:#5E5E5E;stroke-width:1.0416666666666667;" width="170.8333" x="7.2917" y="540.1611"/><ellipse cx="21.875" cy="555.8553" fill="#0066CF" rx="10.4167" ry="10.4167" style="stroke:#0086EF;stroke-width:1.0416666666666667;"/><path d="M23.7854,560.2804 Q23.3582,560.5001 22.8882,560.6099 Q22.4182,560.7198 21.8994,560.7198 Q20.0562,560.7198 19.0857,559.5052 Q18.1152,558.2906 18.1152,555.9957 Q18.1152,553.6947 19.0857,552.4801 Q20.0562,551.2655 21.8994,551.2655 Q22.4182,551.2655 22.8943,551.3753 Q23.3704,551.4852 23.7854,551.7049 L23.7854,553.7069 Q23.3215,553.2796 22.8851,553.0813 Q22.4487,552.8829 21.9849,552.8829 Q20.9961,552.8829 20.4926,553.6672 Q19.989,554.4515 19.989,555.9957 Q19.989,557.5338 20.4926,558.3181 Q20.9961,559.1024 21.9849,559.1024 Q22.4487,559.1024 22.8851,558.904 Q23.3215,558.7056 23.7854,558.2784 Z " fill="#000000"/><text fill="#D8BC00" font-family="Open Sans,Avenir,Nunito,Arial,Helvetica,SansSerif" font-size="12.5" font-weight="bold" lengthAdjust="spacing" textLength="133.3333" x="38.5417" y="560.5794">ApplicationIdentifier</text><line style="stroke:#5E5E5E;stroke-width:1.0416666666666667;" x1="8.3333" x2="177.0833" y1="571.5495" y2="571.5495"/><line style="stroke:#5E5E5E;stroke-width:1.0416666666666667;" x1="8.3333" x2="177.0833" y1="579.8828" y2="579.8828"/><!--MD5=[2741598bdf59a7d7e0d5c97658fd3022]
class Result--><rect fill="#282828" height="48.055" id="Result" rx="8.3333" ry="8.3333" style="stroke:#5E5E5E;stroke-width:1.0416666666666667;" width="78.125" x="244.2708" y="540.1611"/><rect fill="#1B1B1A" height="31.3883" rx="8.3333" ry="8.3333" style="stroke:#1B1B1A;stroke-width:1.0416666666666667;" width="78.125" x="244.2708" y="540.1611"/><rect fill="#1B1B1A" height="8.3333" style="stroke:#1B1B1A;stroke-width:1.0416666666666667;" width="78.125" x="244.2708" y="563.2161"/><rect fill="none" height="48.055" id="Result" rx="8.3333" ry="8.3333" style="stroke:#5E5E5E;stroke-width:1.0416666666666667;" width="78.125" x="244.2708" y="540.1611"/><ellipse cx="258.8542" cy="555.8553" fill="#0066CF" rx="10.4167" ry="10.4167" style="stroke:#0086EF;stroke-width:1.0416666666666667;"/><path d="M260.7646,560.2804 Q260.3373,560.5001 259.8674,560.6099 Q259.3974,560.7198 258.8786,560.7198 Q257.0353,560.7198 256.0649,559.5052 Q255.0944,558.2906 255.0944,555.9957 Q255.0944,553.6947 256.0649,552.4801 Q257.0353,551.2655 258.8786,551.2655 Q259.3974,551.2655 259.8735,551.3753 Q260.3495,551.4852 260.7646,551.7049 L260.7646,553.7069 Q260.3007,553.2796 259.8643,553.0813 Q259.4279,552.8829 258.964,552.8829 Q257.9753,552.8829 257.4717,553.6672 Q256.9682,554.4515 256.9682,555.9957 Q256.9682,557.5338 257.4717,558.3181 Q257.9753,559.1024 258.964,559.1024 Q259.4279,559.1024 259.8643,558.904 Q260.3007,558.7056 260.7646,558.2784 Z " fill="#000000"/><text fill="#D8BC00" font-family="Open Sans,Avenir,Nunito,Arial,Helvetica,SansSerif" font-size="12.5" font-weight="bold" lengthAdjust="spacing" textLength="40.625" x="275.5208" y="560.5794">Result</text><line style="stroke:#5E5E5E;stroke-width:1.0416666666666667;" x1="245.3125" x2="321.3542" y1="571.5495" y2="571.5495"/><line style="stroke:#5E5E5E;stroke-width:1.0416666666666667;" x1="245.3125" x2="321.3542" y1="579.8828" y2="579.8828"/><!--MD5=[bece8b4c4229b3549b4a8159d27930ed]
class Scope--><rect fill="#282828" height="48.055" id="Scope" rx="8.3333" ry="8.3333" style="stroke:#5E5E5E;stroke-width:1.0416666666666667;" width="75" x="359.375" y="540.1611"/><rect fill="#1B1B1A" height="31.3883" rx="8.3333" ry="8.3333" style="stroke:#1B1B1A;stroke-width:1.0416666666666667;" width="75" x="359.375" y="540.1611"/><rect fill="#1B1B1A" height="8.3333" style="stroke:#1B1B1A;stroke-width:1.0416666666666667;" width="75" x="359.375" y="563.2161"/><rect fill="none" height="48.055" id="Scope" rx="8.3333" ry="8.3333" style="stroke:#5E5E5E;stroke-width:1.0416666666666667;" width="75" x="359.375" y="540.1611"/><ellipse cx="373.9583" cy="555.8553" fill="#0066CF" rx="10.4167" ry="10.4167" style="stroke:#0086EF;stroke-width:1.0416666666666667;"/><path d="M375.8687,560.2804 Q375.4415,560.5001 374.9715,560.6099 Q374.5015,560.7198 373.9827,560.7198 Q372.1395,560.7198 371.169,559.5052 Q370.1986,558.2906 370.1986,555.9957 Q370.1986,553.6947 371.169,552.4801 Q372.1395,551.2655 373.9827,551.2655 Q374.5015,551.2655 374.9776,551.3753 Q375.4537,551.4852 375.8687,551.7049 L375.8687,553.7069 Q375.4049,553.2796 374.9685,553.0813 Q374.5321,552.8829 374.0682,552.8829 Q373.0794,552.8829 372.5759,553.6672 Q372.0723,554.4515 372.0723,555.9957 Q372.0723,557.5338 372.5759,558.3181 Q373.0794,559.1024 374.0682,559.1024 Q374.5321,559.1024 374.9685,558.904 Q375.4049,558.7056 375.8687,558.2784 Z " fill="#000000"/><text fill="#D8BC00" font-family="Open Sans,Avenir,Nunito,Arial,Helvetica,SansSerif" font-size="12.5" font-weight="bold" lengthAdjust="spacing" textLength="37.5" x="390.625" y="560.5794">Scope</text><line style="stroke:#5E5E5E;stroke-width:1.0416666666666667;" x1="360.4167" x2="433.3333" y1="571.5495" y2="571.5495"/><line style="stroke:#5E5E5E;stroke-width:1.0416666666666667;" x1="360.4167" x2="433.3333" y1="579.8828" y2="579.8828"/><!--MD5=[dbb8b4f13c7b21394f9d757e58732f45]
class Service--><rect fill="#282828" height="48.055" id="Service" rx="8.3333" ry="8.3333" style="stroke:#5E5E5E;stroke-width:1.0416666666666667;" width="82.2917" x="502.6042" y="540.1611"/><rect fill="#1B1B1A" height="31.3883" rx="8.3333" ry="8.3333" style="stroke:#1B1B1A;stroke-width:1.0416666666666667;" width="82.2917" x="502.6042" y="540.1611"/><rect fill="#1B1B1A" height="8.3333" style="stroke:#1B1B1A;stroke-width:1.0416666666666667;" width="82.2917" x="502.6042" y="563.2161"/><rect fill="none" height="48.055" id="Service" rx="8.3333" ry="8.3333" style="stroke:#5E5E5E;stroke-width:1.0416666666666667;" width="82.2917" x="502.6042" y="540.1611"/><ellipse cx="517.1875" cy="555.8553" fill="#0066CF" rx="10.4167" ry="10.4167" style="stroke:#0086EF;stroke-width:1.0416666666666667;"/><path d="M519.0979,560.2804 Q518.6707,560.5001 518.2007,560.6099 Q517.7307,560.7198 517.2119,560.7198 Q515.3687,560.7198 514.3982,559.5052 Q513.4277,558.2906 513.4277,555.9957 Q513.4277,553.6947 514.3982,552.4801 Q515.3687,551.2655 517.2119,551.2655 Q517.7307,551.2655 518.2068,551.3753 Q518.6829,551.4852 519.0979,551.7049 L519.0979,553.7069 Q518.634,553.2796 518.1976,553.0813 Q517.7612,552.8829 517.2974,552.8829 Q516.3086,552.8829 515.8051,553.6672 Q515.3015,554.4515 515.3015,555.9957 Q515.3015,557.5338 515.8051,558.3181 Q516.3086,559.1024 517.2974,559.1024 Q517.7612,559.1024 518.1976,558.904 Q518.634,558.7056 519.0979,558.2784 Z " fill="#000000"/><text fill="#D8BC00" font-family="Open Sans,Avenir,Nunito,Arial,Helvetica,SansSerif" font-size="12.5" font-weight="bold" lengthAdjust="spacing" textLength="44.7917" x="533.8542" y="560.5794">Service</text><line style="stroke:#5E5E5E;stroke-width:1.0416666666666667;" x1="503.6458" x2="583.8542" y1="571.5495" y2="571.5495"/><line style="stroke:#5E5E5E;stroke-width:1.0416666666666667;" x1="503.6458" x2="583.8542" y1="579.8828" y2="579.8828"/><!--MD5=[5316caae02481021f4eda4fa9fb40b1b]
reverse link BaseRepeater to ServiceRegistryClient--><path codeLine="8" d="M335.4167,123.0153 C335.4167,135.5778 335.4167,149.9632 335.4167,165.0674 " fill="none" id="BaseRepeater-backto-ServiceRegistryClient" style="stroke:#545454;stroke-width:1.5625;"/><polygon fill="none" points="328.125,122.8799,335.4167,102.0465,342.7083,122.8799,328.125,122.8799" style="stroke:#545454;stroke-width:1.5625;"/><!--MD5=[19a9853ed0579308eaccffbd5a4abfba]
link ServiceRegistryClient to ApplicationIdentifier--><path codeLine="9" d="M154.2604,454.9215 C144.9792,465.0153 136.1771,475.4007 128.125,485.9945 C116.9167,500.7445 108.1667,519.5986 102.1771,534.984 " fill="none" id="ServiceRegistryClient-to-ApplicationIdentifier" style="stroke:#545454;stroke-width:1.5625;"/><polygon fill="#545454" points="100.25,540.0465,107.47,532.758,102.0967,535.1766,99.6781,529.8033,100.25,540.0465" style="stroke:#545454;stroke-width:1.5625;"/><text fill="#A0A0A0" font-family="Open Sans,Avenir,Nunito,Arial,Helvetica,SansSerif" font-size="12.5" font-weight="bold" lengthAdjust="spacing" textLength="144.7917" x="132.2917" y="502.2461">discovers applications</text><!--MD5=[e0dc6913e645b4e5a050164676000924]
link ServiceRegistryClient to Result--><path codeLine="10" d="M298.8646,454.9111 C296.6354,465.4007 294.5625,475.8382 292.7083,485.9945 C289.7813,502.057 287.5208,520.182 285.9583,534.807 " fill="none" id="ServiceRegistryClient-to-Result" style="stroke:#545454;stroke-width:1.5625;"/><polygon fill="#545454" points="285.4167,540.0361,290.5512,531.1542,285.9673,534.857,282.2645,530.2732,285.4167,540.0361" style="stroke:#545454;stroke-width:1.5625;"/><text fill="#A0A0A0" font-family="Open Sans,Avenir,Nunito,Arial,Helvetica,SansSerif" font-size="12.5" font-weight="bold" lengthAdjust="spacing" textLength="46.875" x="296.875" y="502.2461">returns</text><!--MD5=[bb4a57ac7e9b719d5817aaecd5f03b9b]
link ServiceRegistryClient to Scope--><path codeLine="11" d="M370.5417,455.0778 C377.9167,485.3174 384.9479,514.1507 389.8854,534.4007 " fill="none" id="ServiceRegistryClient-to-Scope" style="stroke:#545454;stroke-width:1.5625;"/><polygon fill="#545454" points="391.2188,539.8799,393.0432,529.7842,389.9836,534.8201,384.9476,531.7605,391.2188,539.8799" style="stroke:#545454;stroke-width:1.5625;"/><text fill="#A0A0A0" font-family="Open Sans,Avenir,Nunito,Arial,Helvetica,SansSerif" font-size="12.5" font-weight="bold" lengthAdjust="spacing" textLength="101.0417" x="388.5417" y="502.2461">searches within</text><!--MD5=[30c05116e563580c584f610f2861f6da]
link ServiceRegistryClient to Service--><path codeLine="12" d="M478.0417,455.0361 C486.4688,465.2757 494.5625,475.6403 502.0833,485.9945 C513.1667,501.2549 523.2917,519.8174 530.7813,534.9007 " fill="none" id="ServiceRegistryClient-to-Service" style="stroke:#545454;stroke-width:1.5625;"/><polygon fill="#545454" points="533.2188,539.8695,532.8315,529.6175,530.9253,535.1933,525.3496,533.287,533.2188,539.8695" style="stroke:#545454;stroke-width:1.5625;"/><text fill="#A0A0A0" font-family="Open Sans,Avenir,Nunito,Arial,Helvetica,SansSerif" font-size="12.5" font-weight="bold" lengthAdjust="spacing" textLength="117.7083" x="519.7917" y="502.2461">discovers services</text><!--MD5=[18df6aaa7d0e5f1231ecebcd202d7259]
@startuml

    !include ../lexakai.theme
    
    title "Service Client"
    
    abstract BaseRepeater
    
    BaseRepeater <|- - ServiceRegistryClient
    ServiceRegistryClient - -> ApplicationIdentifier : "discovers applications"
    ServiceRegistryClient - -> Result : "returns"
    ServiceRegistryClient - -> Scope : "searches within"
    ServiceRegistryClient - -> Service : "discovers services"
    class ServiceRegistryClient
    {
        - -(lookup)- -
        +Result<Service> register(Scope, ServiceType, ServiceMetadata)
        +Result<Service> register(Service)
        - -(network)- -
        +Result<Boolean> sendNetworkRegistryUpdate(Service)
        - -(search)- -
        +Result<Set<ApplicationIdentifier>> discoverApplications(Scope)
        +Result<Service> discoverPortService(Port)
        +Result<Set<Service>> discoverServices(Scope, ApplicationIdentifier, ServiceType)
        +Result<Set<Service>> discoverServices(Scope, ServiceType)
        +Result<Set<Service>> discoverServices(Scope)
        +Result<Set<Service>> discoverServices(Scope, ApplicationIdentifier)
    }
    
@enduml

@startuml









skinparam backgroundColor #333333






skinparam  {
    defaultFontName   "Open Sans,Avenir,Nunito,Arial,Helvetica,SansSerif"
    defaultFontSize   12
    defaultTextAlignment left
    shadowing false
    RoundCorner 10
    TitleFontSize 18
}

skinparam defaultFontName       "Open Sans,Avenir,Nunito,Arial,Helvetica,SansSerif"
skinparam defaultFontSize       12
skinparam dpi                   100
skinparam shadowing             false
skinparam roundcorner           16
skinparam ParticipantPadding    40
skinparam BoxPadding            40
skinparam Padding               3
skinparam ArrowColor            #545454
skinparam stereotype {
    CBackgroundColor #0066cf
    CBorderColor #0086ef
    ABackgroundColor #C8Ac00
    ABorderColor #D8Bc00
    IBackgroundColor #008400
    IBorderColor #239c23
    EBackgroundColor #cf6300
    EBorderColor #ef8300
    NBackgroundColor #3380b9
    NBorderColor #004d86
}
skinparam title {
	FontColor	                 #c0c0c0
 	BorderColor                  #545454
	FontSize	    	         20
	BorderRoundCorner            16
	BorderThickness 	         1
	BackgroundColor              #48494b
}


skinparam legend {
	BackgroundColor #303030
	BorderColor #404040
	FontColor #a0a0a0
}

	skinparam swimlane {
	BorderColor #5e5e5e
	BorderThickness 2
	TitleBackgroundColor  #6d6d6d-#484848
	TitleFontColor #303030
}

skinparam activity {
		FontColor #C8Ac00
	BorderColor #333333
	BackgroundColor #333333-#333333
	BarColor #00FF00
	StartColor #0060a8
	EndColor #0060a8
	DiamondBackgroundColor #6d6d6d-#3a3a3a
  	DiamondBorderColor #3a3a3a
  	DiamondFontColor #fefefe
}


skinparam participant {
		FontColor #C8Ac00
	BorderColor #333333
	BackgroundColor #333333-#333333
	ParticipantBorderThickness 2
}


skinparam actor {
		FontColor #C8Ac00
	BorderColor #333333
	BackgroundColor #333333-#333333
}


skinparam arrow {
	Thickness 1.5
	Color #545454
	FontColor #a0a0a0
    FontStyle bold
    MessageAlignment center
}



skinparam sequence {
	BorderColor #303030
	TitleFontColor #303030
	BackgroundColor #333333
	StartColor #303030
	EndColor #303030
	BoxBackgroundColor #333333
	BoxBorderColor #484848
	BoxFontColor #484848
	LifeLineBorderColor #484848
	LifeLineBorderThickness 2
	LifeLineBackgroundColor #3a3a3a
	GroupBorderColor #484848
	GroupFontColor #484848
	GroupHeaderFontColor #0060a8
	GroupBackgroundColor #484848
	GroupHeaderBackgroundColor #333333
	DividerBackgroundColor #484848
    DividerBorderColor #484848
    DividerBorderThickness 2
    DividerFontColor #D8Bc00
	ReferenceBackgroundColor #333333
	ReferenceBorderColor #484848
	ReferenceFontColor #fefefe
	ReferenceHeaderBackgroundColor #484848
}


skinparam partition {
	BorderColor #303030
	FontColor #333333
	BackgroundColor #333333
}


skinparam collections {
		FontColor #C8Ac00
	BorderColor #333333
	BackgroundColor #333333-#333333
}


skinparam control {
		FontColor #C8Ac00
	BorderColor #333333
	BackgroundColor #333333-#333333
}


skinparam entity {
		FontColor #C8Ac00
	BorderColor #333333
	BackgroundColor #333333-#333333
}


skinparam boundary {
		FontColor #C8Ac00
	BorderColor #333333
	BackgroundColor #333333-#333333
}


skinparam agent {
	BackgroundColor #ff8000
	BorderColor #ff9933
	FontColor #484848
}


skinparam note {
	BorderThickness 1
	BackgroundColor #1b1b1a
	BorderColor #5e5e5e
	FontSize 11
	FontColor #a0a0a0
}


skinparam artifact {
	BorderThickness 10
	BorderColor #5e5e5e
	BackgroundColor #1b1b1a
	FontColor #D8Bc00
}


skinparam component {
		FontColor #C8Ac00
	BorderColor #333333
	BackgroundColor #333333-#333333
}


skinparam interface {
	BackgroundColor  #008400
	BorderColor  #007F00
	FontColor #484848
}


skinparam storage {
	BackgroundColor #ff8000
  	BorderColor #cc6600
	FontColor #222222
}


skinparam node {
	BackgroundColor #333333
	BorderColor #333333
	FontColor #C8Ac00
}


skinparam cloud {
	BackgroundColor #484848-black
	BorderColor #484848
	FontColor #D8Bc00
}


skinparam database {
		FontColor #C8Ac00
	BorderColor #333333
	BackgroundColor #333333-#333333
	BackgroundColor  #333333
}


skinparam class {
		FontColor #C8Ac00
	BorderColor #333333
	BackgroundColor #333333-#333333
	HeaderBackgroundColor #1b1b1a
    BackgroundColor #282828
    BorderColor #5e5e5e
 	StereotypeFontColor #a0a0a0
    StereotypeFontStyle bold
	BorderThickness 1
	AttributeFontColor #D8Bc00
	AttributeFontSize 11
    FontColor #D8Bc00
    FontStyle bold
}


skinparam object {
		FontColor #C8Ac00
	BorderColor #333333
	BackgroundColor #333333-#333333
	StereotypeFontColor #484848
	BorderThickness 1
	AttributeFontColor #fefefe
	AttributeFontSize 11
}


skinparam usecase {
		FontColor #C8Ac00
	BorderColor #333333
	BackgroundColor #333333-#333333
	BorderThickness 2
	StereotypeFontColor #303030
}


skinparam rectangle {
		FontColor #C8Ac00
	BorderColor #333333
	BackgroundColor #333333-#333333
	BackgroundColor #333333
	BorderThickness 2
	StereotypeFontColor #303030
}


skinparam package {
		FontColor #C8Ac00
	BorderColor #333333
	BackgroundColor #333333-#333333
	BackgroundColor #333333
	BorderThickness 2
}


skinparam folder {
	BackgroundColor #6d6d6d
  	BorderColor #ff8000
	FontColor #ff8000
	BorderThickness 2
}


skinparam frame {
	BackgroundColor #6d6d6d
  	BorderColor #0060a8
	FontColor #0060a8
	BorderThickness 2
}


skinparam state {
		FontColor #C8Ac00
	BorderColor #333333
	BackgroundColor #333333-#333333
	StartColor #0060a8
	EndColor #0060a8
	AttributeFontColor #fefefe
	AttributeFontSize 11
}


skinparam queue {
		FontColor #C8Ac00
	BorderColor #333333
	BackgroundColor #333333-#333333
}


skinparam card {
	BackgroundColor #0060a8
	BorderColor #004d86
	FontColor $INFO_TEXT
}


skinparam file {
	BackgroundColor #6d6d6d-#484848
	BorderColor #0060a8
	FontColor #fefefe
}


skinparam stack {
		FontColor #C8Ac00
	BorderColor #333333
	BackgroundColor #333333-#333333
}

    
    title "Service Client"
    
    abstract BaseRepeater
    
    BaseRepeater <|- - ServiceRegistryClient
    ServiceRegistryClient - -> ApplicationIdentifier : "discovers applications"
    ServiceRegistryClient - -> Result : "returns"
    ServiceRegistryClient - -> Scope : "searches within"
    ServiceRegistryClient - -> Service : "discovers services"
    class ServiceRegistryClient
    {
        - -(lookup)- -
        +Result<Service> register(Scope, ServiceType, ServiceMetadata)
        +Result<Service> register(Service)
        - -(network)- -
        +Result<Boolean> sendNetworkRegistryUpdate(Service)
        - -(search)- -
        +Result<Set<ApplicationIdentifier>> discoverApplications(Scope)
        +Result<Service> discoverPortService(Port)
        +Result<Set<Service>> discoverServices(Scope, ApplicationIdentifier, ServiceType)
        +Result<Set<Service>> discoverServices(Scope, ServiceType)
        +Result<Set<Service>> discoverServices(Scope)
        +Result<Set<Service>> discoverServices(Scope, ApplicationIdentifier)
    }
    
@enduml

PlantUML version 1.2021.01(Tue Feb 02 00:55:08 MST 2021)
(GPL source distribution)
Java Runtime: OpenJDK Runtime Environment
JVM: OpenJDK 64-Bit Server VM
Default Encoding: UTF-8
Language: en
Country: US
--></g></svg>