<?xml version="1.0" encoding="UTF-8" standalone="no"?><svg xmlns="http://www.w3.org/2000/svg" xmlns:xlink="http://www.w3.org/1999/xlink" contentScriptType="application/ecmascript" contentStyleType="text/css" height="254.1667px" preserveAspectRatio="none" style="width:528px;height:254px;background:#333333;" version="1.1" viewBox="0 0 528 254" width="528.125px" zoomAndPan="magnify"><defs/><g><rect fill="#48494B" height="41.2028" rx="8.3333" ry="8.3333" style="stroke:#545454;stroke-width:1.0416666666666667;" width="167.7083" x="172.9167" y="2.0833"/><text fill="#C0C0C0" font-family="Open Sans,Avenir,Nunito,Arial,Helvetica,SansSerif" font-size="20.8333" lengthAdjust="spacing" textLength="144.7917" x="184.375" y="30.5583">service.project</text><!--MD5=[79d378210367c0c6ec62ef762ddfbd1b]
class Project--><rect fill="#282828" height="48.055" id="Project" rx="8.3333" ry="8.3333" style="stroke:#5E5E5E;stroke-width:1.0416666666666667;" width="81.25" x="72.9167" y="53.7028"/><rect fill="#1B1B1A" height="31.3883" rx="8.3333" ry="8.3333" style="stroke:#1B1B1A;stroke-width:1.0416666666666667;" width="81.25" x="72.9167" y="53.7028"/><rect fill="#1B1B1A" height="8.3333" style="stroke:#1B1B1A;stroke-width:1.0416666666666667;" width="81.25" x="72.9167" y="76.7578"/><rect fill="none" height="48.055" id="Project" rx="8.3333" ry="8.3333" style="stroke:#5E5E5E;stroke-width:1.0416666666666667;" width="81.25" x="72.9167" y="53.7028"/><ellipse cx="87.5" cy="69.397" fill="#0066CF" rx="10.4167" ry="10.4167" style="stroke:#0086EF;stroke-width:1.0416666666666667;"/><path d="M89.4104,73.822 Q88.9832,74.0417 88.5132,74.1516 Q88.0432,74.2615 87.5244,74.2615 Q85.6812,74.2615 84.7107,73.0469 Q83.7402,71.8323 83.7402,69.5374 Q83.7402,67.2363 84.7107,66.0217 Q85.6812,64.8071 87.5244,64.8071 Q88.0432,64.8071 88.5193,64.917 Q88.9954,65.0269 89.4104,65.2466 L89.4104,67.2485 Q88.9465,66.8213 88.5101,66.6229 Q88.0737,66.4246 87.6099,66.4246 Q86.6211,66.4246 86.1176,67.2089 Q85.614,67.9932 85.614,69.5374 Q85.614,71.0754 86.1176,71.8597 Q86.6211,72.644 87.6099,72.644 Q88.0737,72.644 88.5101,72.4457 Q88.9465,72.2473 89.4104,71.8201 Z " fill="#000000"/><text fill="#D8BC00" font-family="Open Sans,Avenir,Nunito,Arial,Helvetica,SansSerif" font-size="12.5" font-weight="bold" lengthAdjust="spacing" textLength="43.75" x="104.1667" y="74.1211">Project</text><line style="stroke:#5E5E5E;stroke-width:1.0416666666666667;" x1="73.9583" x2="153.125" y1="85.0911" y2="85.0911"/><line style="stroke:#5E5E5E;stroke-width:1.0416666666666667;" x1="73.9583" x2="153.125" y1="93.4245" y2="93.4245"/><!--MD5=[048682fd75cb46c76ef2a01abcf27733]
class CoreNetworkServiceProject--><rect codeLine="7" fill="#282828" height="83.3781" id="CoreNetworkServiceProject" rx="8.3333" ry="8.3333" style="stroke:#5E5E5E;stroke-width:1.0416666666666667;" width="212.5" x="7.2917" y="164.1195"/><rect fill="#1B1B1A" height="31.3883" rx="8.3333" ry="8.3333" style="stroke:#1B1B1A;stroke-width:1.0416666666666667;" width="212.5" x="7.2917" y="164.1195"/><rect fill="#1B1B1A" height="8.3333" style="stroke:#1B1B1A;stroke-width:1.0416666666666667;" width="212.5" x="7.2917" y="187.1745"/><rect codeLine="7" fill="none" height="83.3781" id="CoreNetworkServiceProject" rx="8.3333" ry="8.3333" style="stroke:#5E5E5E;stroke-width:1.0416666666666667;" width="212.5" x="7.2917" y="164.1195"/><ellipse cx="22.8125" cy="179.8136" fill="#0066CF" rx="10.4167" ry="10.4167" style="stroke:#0086EF;stroke-width:1.0416666666666667;"/><path d="M24.7229,184.2387 Q24.2957,184.4584 23.8257,184.5683 Q23.3557,184.6781 22.8369,184.6781 Q20.9937,184.6781 20.0232,183.4635 Q19.0527,182.2489 19.0527,179.954 Q19.0527,177.653 20.0232,176.4384 Q20.9937,175.2238 22.8369,175.2238 Q23.3557,175.2238 23.8318,175.3337 Q24.3079,175.4435 24.7229,175.6632 L24.7229,177.6652 Q24.259,177.238 23.8226,177.0396 Q23.3862,176.8412 22.9224,176.8412 Q21.9336,176.8412 21.4301,177.6255 Q20.9265,178.4098 20.9265,179.954 Q20.9265,181.4921 21.4301,182.2764 Q21.9336,183.0607 22.9224,183.0607 Q23.3862,183.0607 23.8226,182.8623 Q24.259,182.664 24.7229,182.2367 Z " fill="#000000"/><text fill="#D8BC00" font-family="Open Sans,Avenir,Nunito,Arial,Helvetica,SansSerif" font-size="12.5" font-weight="bold" lengthAdjust="spacing" textLength="172.9167" x="39.6875" y="184.5378">CoreNetworkServiceProject</text><line style="stroke:#5E5E5E;stroke-width:1.5625;" x1="8.3333" x2="218.75" y1="195.5078" y2="195.5078"/><ellipse cx="18.75" cy="230.8777" fill="#84BE84" rx="3.125" ry="3.125" style="stroke:#038048;stroke-width:1.0416666666666667;"/><text fill="#D8BC00" font-family="Open Sans,Avenir,Nunito,Arial,Helvetica,SansSerif" font-size="11.4583" lengthAdjust="spacing" textLength="180.2083" x="30.2083" y="237.7889">CoreNetworkServiceProject get()</text><line style="stroke:#5E5E5E;stroke-width:1.0416666666666667;" x1="8.3333" x2="83.8542" y1="213.7136" y2="213.7136"/><text fill="#D8BC00" font-family="Open Sans,Avenir,Nunito,Arial,Helvetica,SansSerif" font-size="11.4583" lengthAdjust="spacing" textLength="53.125" x="86.9792" y="217.5232">(network)</text><line style="stroke:#5E5E5E;stroke-width:1.0416666666666667;" x1="143.2292" x2="218.75" y1="213.7136" y2="213.7136"/><!--MD5=[60baba896ed1f2dc0c4ec6dff86df4f0]
class KryoSerialization--><rect fill="#282828" height="48.055" id="KryoSerialization" rx="8.3333" ry="8.3333" style="stroke:#5E5E5E;stroke-width:1.0416666666666667;" width="147.9167" x="314.5833" y="53.7028"/><rect fill="#1B1B1A" height="31.3883" rx="8.3333" ry="8.3333" style="stroke:#1B1B1A;stroke-width:1.0416666666666667;" width="147.9167" x="314.5833" y="53.7028"/><rect fill="#1B1B1A" height="8.3333" style="stroke:#1B1B1A;stroke-width:1.0416666666666667;" width="147.9167" x="314.5833" y="76.7578"/><rect fill="none" height="48.055" id="KryoSerialization" rx="8.3333" ry="8.3333" style="stroke:#5E5E5E;stroke-width:1.0416666666666667;" width="147.9167" x="314.5833" y="53.7028"/><ellipse cx="329.1667" cy="69.397" fill="#0066CF" rx="10.4167" ry="10.4167" style="stroke:#0086EF;stroke-width:1.0416666666666667;"/><path d="M331.0771,73.822 Q330.6498,74.0417 330.1799,74.1516 Q329.7099,74.2615 329.1911,74.2615 Q327.3478,74.2615 326.3774,73.0469 Q325.4069,71.8323 325.4069,69.5374 Q325.4069,67.2363 326.3774,66.0217 Q327.3478,64.8071 329.1911,64.8071 Q329.7099,64.8071 330.186,64.917 Q330.662,65.0269 331.0771,65.2466 L331.0771,67.2485 Q330.6132,66.8213 330.1768,66.6229 Q329.7404,66.4246 329.2765,66.4246 Q328.2878,66.4246 327.7842,67.2089 Q327.2807,67.9932 327.2807,69.5374 Q327.2807,71.0754 327.7842,71.8597 Q328.2878,72.644 329.2765,72.644 Q329.7404,72.644 330.1768,72.4457 Q330.6132,72.2473 331.0771,71.8201 Z " fill="#000000"/><text fill="#D8BC00" font-family="Open Sans,Avenir,Nunito,Arial,Helvetica,SansSerif" font-size="12.5" font-weight="bold" lengthAdjust="spacing" textLength="110.4167" x="345.8333" y="74.1211">KryoSerialization</text><line style="stroke:#5E5E5E;stroke-width:1.0416666666666667;" x1="315.625" x2="461.4583" y1="85.0911" y2="85.0911"/><line style="stroke:#5E5E5E;stroke-width:1.0416666666666667;" x1="315.625" x2="461.4583" y1="93.4245" y2="93.4245"/><!--MD5=[6cc03a0efceebbb2a94462a8bace6be9]
class NetworkServiceKryoSerialization--><rect codeLine="14" fill="#282828" height="83.3781" id="NetworkServiceKryoSerialization" rx="8.3333" ry="8.3333" style="stroke:#5E5E5E;stroke-width:1.0416666666666667;" width="264.5833" x="256.25" y="164.1195"/><rect fill="#1B1B1A" height="31.3883" rx="8.3333" ry="8.3333" style="stroke:#1B1B1A;stroke-width:1.0416666666666667;" width="264.5833" x="256.25" y="164.1195"/><rect fill="#1B1B1A" height="8.3333" style="stroke:#1B1B1A;stroke-width:1.0416666666666667;" width="264.5833" x="256.25" y="187.1745"/><rect codeLine="14" fill="none" height="83.3781" id="NetworkServiceKryoSerialization" rx="8.3333" ry="8.3333" style="stroke:#5E5E5E;stroke-width:1.0416666666666667;" width="264.5833" x="256.25" y="164.1195"/><ellipse cx="278.8021" cy="179.8136" fill="#0066CF" rx="10.4167" ry="10.4167" style="stroke:#0086EF;stroke-width:1.0416666666666667;"/><path d="M280.7125,184.2387 Q280.2852,184.4584 279.8153,184.5683 Q279.3453,184.6781 278.8265,184.6781 Q276.9832,184.6781 276.0128,183.4635 Q275.0423,182.2489 275.0423,179.954 Q275.0423,177.653 276.0128,176.4384 Q276.9832,175.2238 278.8265,175.2238 Q279.3453,175.2238 279.8214,175.3337 Q280.2974,175.4435 280.7125,175.6632 L280.7125,177.6652 Q280.2486,177.238 279.8122,177.0396 Q279.3758,176.8412 278.9119,176.8412 Q277.9232,176.8412 277.4196,177.6255 Q276.9161,178.4098 276.9161,179.954 Q276.9161,181.4921 277.4196,182.2764 Q277.9232,183.0607 278.9119,183.0607 Q279.3758,183.0607 279.8122,182.8623 Q280.2486,182.664 280.7125,182.2367 Z " fill="#000000"/><text fill="#D8BC00" font-family="Open Sans,Avenir,Nunito,Arial,Helvetica,SansSerif" font-size="12.5" font-weight="bold" lengthAdjust="spacing" textLength="209.375" x="297.2396" y="184.5378">NetworkServiceKryoSerialization</text><line style="stroke:#5E5E5E;stroke-width:1.5625;" x1="257.2917" x2="519.7917" y1="195.5078" y2="195.5078"/><ellipse cx="267.7083" cy="230.8777" fill="#84BE84" rx="3.125" ry="3.125" style="stroke:#038048;stroke-width:1.0416666666666667;"/><text fill="#D8BC00" font-family="Open Sans,Avenir,Nunito,Arial,Helvetica,SansSerif" font-size="11.4583" lengthAdjust="spacing" textLength="232.2917" x="279.1667" y="237.7889">NetworkServiceKryoSerialization(Listener)</text><line style="stroke:#5E5E5E;stroke-width:1.0416666666666667;" x1="257.2917" x2="344.7917" y1="213.7136" y2="213.7136"/><text fill="#D8BC00" font-family="Open Sans,Avenir,Nunito,Arial,Helvetica,SansSerif" font-size="11.4583" lengthAdjust="spacing" textLength="81.25" x="347.9167" y="217.5232">(constructors)</text><line style="stroke:#5E5E5E;stroke-width:1.0416666666666667;" x1="432.2917" x2="519.7917" y1="213.7136" y2="213.7136"/><!--MD5=[e382ce3fb871feaf0494bba5aa0d521e]
reverse link Project to CoreNetworkServiceProject--><path codeLine="6" d="M113.5417,122.682 C113.5417,136.0778 113.5417,150.7445 113.5417,163.9215 " fill="none" id="Project-backto-CoreNetworkServiceProject" style="stroke:#545454;stroke-width:1.5625;"/><polygon fill="none" points="106.25,122.6507,113.5417,101.8174,120.8333,122.6507,106.25,122.6507" style="stroke:#545454;stroke-width:1.5625;"/><!--MD5=[91744c4703ac14ef3b372ab67e04f186]
reverse link KryoSerialization to NetworkServiceKryoSerialization--><path codeLine="13" d="M388.5417,122.682 C388.5417,136.0778 388.5417,150.7445 388.5417,163.9215 " fill="none" id="KryoSerialization-backto-NetworkServiceKryoSerialization" style="stroke:#545454;stroke-width:1.5625;"/><polygon fill="none" points="381.25,122.6507,388.5417,101.8174,395.8333,122.6507,381.25,122.6507" style="stroke:#545454;stroke-width:1.5625;"/><!--MD5=[b26410b8b8fb0f0d3dd214632735693d]
@startuml

    !include ../lexakai.theme
    
    title "service.project"
    
    Project <|- - CoreNetworkServiceProject
    class CoreNetworkServiceProject
    {
        - -(network)- -
        +CoreNetworkServiceProject get()
    }
    
    KryoSerialization <|- - NetworkServiceKryoSerialization
    class NetworkServiceKryoSerialization
    {
        - -(constructors)- -
        +NetworkServiceKryoSerialization(Listener)
    }
    
@enduml

@startuml









skinparam backgroundColor #333333






skinparam  {
    defaultFontName   "Open Sans,Avenir,Nunito,Arial,Helvetica,SansSerif"
    defaultFontSize   12
    defaultTextAlignment left
    shadowing false
    RoundCorner 10
    TitleFontSize 18
}

skinparam defaultFontName       "Open Sans,Avenir,Nunito,Arial,Helvetica,SansSerif"
skinparam defaultFontSize       12
skinparam dpi                   100
skinparam shadowing             false
skinparam roundcorner           16
skinparam ParticipantPadding    40
skinparam BoxPadding            40
skinparam Padding               3
skinparam ArrowColor            #545454
skinparam stereotype {
    CBackgroundColor #0066cf
    CBorderColor #0086ef
    ABackgroundColor #C8Ac00
    ABorderColor #D8Bc00
    IBackgroundColor #008400
    IBorderColor #239c23
    EBackgroundColor #cf6300
    EBorderColor #ef8300
    NBackgroundColor #3380b9
    NBorderColor #004d86
}
skinparam title {
	FontColor	                 #c0c0c0
 	BorderColor                  #545454
	FontSize	    	         20
	BorderRoundCorner            16
	BorderThickness 	         1
	BackgroundColor              #48494b
}


skinparam legend {
	BackgroundColor #303030
	BorderColor #404040
	FontColor #a0a0a0
}

	skinparam swimlane {
	BorderColor #5e5e5e
	BorderThickness 2
	TitleBackgroundColor  #6d6d6d-#484848
	TitleFontColor #303030
}

skinparam activity {
		FontColor #C8Ac00
	BorderColor #333333
	BackgroundColor #333333-#333333
	BarColor #00FF00
	StartColor #0060a8
	EndColor #0060a8
	DiamondBackgroundColor #6d6d6d-#3a3a3a
  	DiamondBorderColor #3a3a3a
  	DiamondFontColor #fefefe
}


skinparam participant {
		FontColor #C8Ac00
	BorderColor #333333
	BackgroundColor #333333-#333333
	ParticipantBorderThickness 2
}


skinparam actor {
		FontColor #C8Ac00
	BorderColor #333333
	BackgroundColor #333333-#333333
}


skinparam arrow {
	Thickness 1.5
	Color #545454
	FontColor #a0a0a0
    FontStyle bold
    MessageAlignment center
}



skinparam sequence {
	BorderColor #303030
	TitleFontColor #303030
	BackgroundColor #333333
	StartColor #303030
	EndColor #303030
	BoxBackgroundColor #333333
	BoxBorderColor #484848
	BoxFontColor #484848
	LifeLineBorderColor #484848
	LifeLineBorderThickness 2
	LifeLineBackgroundColor #3a3a3a
	GroupBorderColor #484848
	GroupFontColor #484848
	GroupHeaderFontColor #0060a8
	GroupBackgroundColor #484848
	GroupHeaderBackgroundColor #333333
	DividerBackgroundColor #484848
    DividerBorderColor #484848
    DividerBorderThickness 2
    DividerFontColor #D8Bc00
	ReferenceBackgroundColor #333333
	ReferenceBorderColor #484848
	ReferenceFontColor #fefefe
	ReferenceHeaderBackgroundColor #484848
}


skinparam partition {
	BorderColor #303030
	FontColor #333333
	BackgroundColor #333333
}


skinparam collections {
		FontColor #C8Ac00
	BorderColor #333333
	BackgroundColor #333333-#333333
}


skinparam control {
		FontColor #C8Ac00
	BorderColor #333333
	BackgroundColor #333333-#333333
}


skinparam entity {
		FontColor #C8Ac00
	BorderColor #333333
	BackgroundColor #333333-#333333
}


skinparam boundary {
		FontColor #C8Ac00
	BorderColor #333333
	BackgroundColor #333333-#333333
}


skinparam agent {
	BackgroundColor #ff8000
	BorderColor #ff9933
	FontColor #484848
}


skinparam note {
	BorderThickness 1
	BackgroundColor #1b1b1a
	BorderColor #5e5e5e
	FontSize 11
	FontColor #a0a0a0
}


skinparam artifact {
	BorderThickness 10
	BorderColor #5e5e5e
	BackgroundColor #1b1b1a
	FontColor #D8Bc00
}


skinparam component {
		FontColor #C8Ac00
	BorderColor #333333
	BackgroundColor #333333-#333333
}


skinparam interface {
	BackgroundColor  #008400
	BorderColor  #007F00
	FontColor #484848
}


skinparam storage {
	BackgroundColor #ff8000
  	BorderColor #cc6600
	FontColor #222222
}


skinparam node {
	BackgroundColor #333333
	BorderColor #333333
	FontColor #C8Ac00
}


skinparam cloud {
	BackgroundColor #484848-black
	BorderColor #484848
	FontColor #D8Bc00
}


skinparam database {
		FontColor #C8Ac00
	BorderColor #333333
	BackgroundColor #333333-#333333
	BackgroundColor  #333333
}


skinparam class {
		FontColor #C8Ac00
	BorderColor #333333
	BackgroundColor #333333-#333333
	HeaderBackgroundColor #1b1b1a
    BackgroundColor #282828
    BorderColor #5e5e5e
 	StereotypeFontColor #a0a0a0
    StereotypeFontStyle bold
	BorderThickness 1
	AttributeFontColor #D8Bc00
	AttributeFontSize 11
    FontColor #D8Bc00
    FontStyle bold
}


skinparam object {
		FontColor #C8Ac00
	BorderColor #333333
	BackgroundColor #333333-#333333
	StereotypeFontColor #484848
	BorderThickness 1
	AttributeFontColor #fefefe
	AttributeFontSize 11
}


skinparam usecase {
		FontColor #C8Ac00
	BorderColor #333333
	BackgroundColor #333333-#333333
	BorderThickness 2
	StereotypeFontColor #303030
}


skinparam rectangle {
		FontColor #C8Ac00
	BorderColor #333333
	BackgroundColor #333333-#333333
	BackgroundColor #333333
	BorderThickness 2
	StereotypeFontColor #303030
}


skinparam package {
		FontColor #C8Ac00
	BorderColor #333333
	BackgroundColor #333333-#333333
	BackgroundColor #333333
	BorderThickness 2
}


skinparam folder {
	BackgroundColor #6d6d6d
  	BorderColor #ff8000
	FontColor #ff8000
	BorderThickness 2
}


skinparam frame {
	BackgroundColor #6d6d6d
  	BorderColor #0060a8
	FontColor #0060a8
	BorderThickness 2
}


skinparam state {
		FontColor #C8Ac00
	BorderColor #333333
	BackgroundColor #333333-#333333
	StartColor #0060a8
	EndColor #0060a8
	AttributeFontColor #fefefe
	AttributeFontSize 11
}


skinparam queue {
		FontColor #C8Ac00
	BorderColor #333333
	BackgroundColor #333333-#333333
}


skinparam card {
	BackgroundColor #0060a8
	BorderColor #004d86
	FontColor $INFO_TEXT
}


skinparam file {
	BackgroundColor #6d6d6d-#484848
	BorderColor #0060a8
	FontColor #fefefe
}


skinparam stack {
		FontColor #C8Ac00
	BorderColor #333333
	BackgroundColor #333333-#333333
}

    
    title "service.project"
    
    Project <|- - CoreNetworkServiceProject
    class CoreNetworkServiceProject
    {
        - -(network)- -
        +CoreNetworkServiceProject get()
    }
    
    KryoSerialization <|- - NetworkServiceKryoSerialization
    class NetworkServiceKryoSerialization
    {
        - -(constructors)- -
        +NetworkServiceKryoSerialization(Listener)
    }
    
@enduml

PlantUML version 1.2021.01(Tue Feb 02 00:55:08 MST 2021)
(GPL source distribution)
Java Runtime: OpenJDK Runtime Environment
JVM: OpenJDK 64-Bit Server VM
Default Encoding: UTF-8
Language: en
Country: US
--></g></svg>