<?xml version="1.0" encoding="UTF-8" standalone="no"?><svg xmlns="http://www.w3.org/2000/svg" xmlns:xlink="http://www.w3.org/1999/xlink" contentScriptType="application/ecmascript" contentStyleType="text/css" height="582.2917px" preserveAspectRatio="none" style="width:635px;height:582px;background:#333333;" version="1.1" viewBox="0 0 635 582" width="635.4167px" zoomAndPan="magnify"><defs/><g><rect fill="#48494B" height="41.2028" rx="8.3333" ry="8.3333" style="stroke:#545454;stroke-width:1.0416666666666667;" width="286.4583" x="167.4479" y="2.0833"/><text fill="#C0C0C0" font-family="Open Sans,Avenir,Nunito,Arial,Helvetica,SansSerif" font-size="20.8333" lengthAdjust="spacing" textLength="263.5417" x="178.9063" y="30.5583">KivaKit Project Dependencies</text><rect fill="#303030" height="31.3883" rx="5.2083" ry="5.2083" style="stroke:#404040;stroke-width:1.0416666666666667;" width="340.625" x="140.3646" y="54.7445"/><text fill="#A0A0A0" font-family="Open Sans,Avenir,Nunito,Arial,Helvetica,SansSerif" font-size="12.5" lengthAdjust="spacing" textLength="321.875" x="149.7396" y="75.1628">Simplified diagram of top-level project dependencies</text><!--MD5=[909a6d34653c6afd5ca51884ca482648]
entity tdk_core--><rect fill="#1B1B1A" height="44.93" rx="8.3333" ry="8.3333" style="stroke:#5E5E5E;stroke-width:1.5625;" width="89.5833" x="256.7708" y="210.0911"/><polygon fill="#1B1B1A" points="328.6458,215.2995,328.6458,229.8828,341.1458,229.8828,341.1458,221.5495,334.8958,215.2995,328.6458,215.2995" style="stroke:#5E5E5E;stroke-width:1.5625;"/><line style="stroke:#5E5E5E;stroke-width:1.5625;" x1="334.8958" x2="334.8958" y1="215.2995" y2="221.5495"/><line style="stroke:#5E5E5E;stroke-width:1.5625;" x1="341.1458" x2="334.8958" y1="221.5495" y2="221.5495"/><text fill="#D8BC00" font-family="Open Sans,Avenir,Nunito,Arial,Helvetica,SansSerif" font-size="12.5" lengthAdjust="spacing" textLength="52.0833" x="270.3125" y="238.8428">tdk_core</text><!--MD5=[0c889d91fa59767ca22ef1033ea61261]
entity tdk_data--><rect fill="#1B1B1A" height="44.93" rx="8.3333" ry="8.3333" style="stroke:#5E5E5E;stroke-width:1.5625;" width="90.625" x="256.25" y="317.3828"/><polygon fill="#1B1B1A" points="329.1667,322.5911,329.1667,337.1745,341.6667,337.1745,341.6667,328.8411,335.4167,322.5911,329.1667,322.5911" style="stroke:#5E5E5E;stroke-width:1.5625;"/><line style="stroke:#5E5E5E;stroke-width:1.5625;" x1="335.4167" x2="335.4167" y1="322.5911" y2="328.8411"/><line style="stroke:#5E5E5E;stroke-width:1.5625;" x1="341.6667" x2="335.4167" y1="328.8411" y2="328.8411"/><text fill="#D8BC00" font-family="Open Sans,Avenir,Nunito,Arial,Helvetica,SansSerif" font-size="12.5" lengthAdjust="spacing" textLength="53.125" x="269.7917" y="346.1344">tdk_data</text><!--MD5=[a19f807bde0f05f1bffe210ccfa0c01d]
entity tdk_filesystems--><rect fill="#1B1B1A" height="44.93" rx="8.3333" ry="8.3333" style="stroke:#5E5E5E;stroke-width:1.5625;" width="129.1667" x="494.2708" y="210.0911"/><polygon fill="#1B1B1A" points="605.7292,215.2995,605.7292,229.8828,618.2292,229.8828,618.2292,221.5495,611.9792,215.2995,605.7292,215.2995" style="stroke:#5E5E5E;stroke-width:1.5625;"/><line style="stroke:#5E5E5E;stroke-width:1.5625;" x1="611.9792" x2="611.9792" y1="215.2995" y2="221.5495"/><line style="stroke:#5E5E5E;stroke-width:1.5625;" x1="618.2292" x2="611.9792" y1="221.5495" y2="221.5495"/><text fill="#D8BC00" font-family="Open Sans,Avenir,Nunito,Arial,Helvetica,SansSerif" font-size="12.5" lengthAdjust="spacing" textLength="91.6667" x="507.8125" y="238.8428">tdk_filesystems</text><!--MD5=[a969bbd1a58b9df2a43f4773fc92e7aa]
entity tdk_graph--><rect fill="#1B1B1A" height="44.93" rx="8.3333" ry="8.3333" style="stroke:#5E5E5E;stroke-width:1.5625;" width="98.9583" x="252.0833" y="424.6745"/><polygon fill="#1B1B1A" points="333.3333,429.8828,333.3333,444.4661,345.8333,444.4661,345.8333,436.1328,339.5833,429.8828,333.3333,429.8828" style="stroke:#5E5E5E;stroke-width:1.5625;"/><line style="stroke:#5E5E5E;stroke-width:1.5625;" x1="339.5833" x2="339.5833" y1="429.8828" y2="436.1328"/><line style="stroke:#5E5E5E;stroke-width:1.5625;" x1="345.8333" x2="339.5833" y1="436.1328" y2="436.1328"/><text fill="#D8BC00" font-family="Open Sans,Avenir,Nunito,Arial,Helvetica,SansSerif" font-size="12.5" lengthAdjust="spacing" textLength="61.4583" x="265.625" y="453.4261">tdk_graph</text><!--MD5=[4c651c877145817df4083538577833bd]
entity tdk_josm--><rect fill="#1B1B1A" height="44.93" rx="8.3333" ry="8.3333" style="stroke:#5E5E5E;stroke-width:1.5625;" width="92.7083" x="110.4167" y="531.9661"/><polygon fill="#1B1B1A" points="185.4167,537.1745,185.4167,551.7578,197.9167,551.7578,197.9167,543.4245,191.6667,537.1745,185.4167,537.1745" style="stroke:#5E5E5E;stroke-width:1.5625;"/><line style="stroke:#5E5E5E;stroke-width:1.5625;" x1="191.6667" x2="191.6667" y1="537.1745" y2="543.4245"/><line style="stroke:#5E5E5E;stroke-width:1.5625;" x1="197.9167" x2="191.6667" y1="543.4245" y2="543.4245"/><text fill="#D8BC00" font-family="Open Sans,Avenir,Nunito,Arial,Helvetica,SansSerif" font-size="12.5" lengthAdjust="spacing" textLength="55.2083" x="123.9583" y="560.7178">tdk_josm</text><!--MD5=[540032b7984f1906d404b6f8ee283128]
entity tdk_lexakai_annotations--><rect fill="#1B1B1A" height="44.93" rx="8.3333" ry="8.3333" style="stroke:#5E5E5E;stroke-width:1.5625;" width="181.25" x="210.9375" y="102.7995"/><polygon fill="#1B1B1A" points="374.4792,108.0078,374.4792,122.5911,386.9792,122.5911,386.9792,114.2578,380.7292,108.0078,374.4792,108.0078" style="stroke:#5E5E5E;stroke-width:1.5625;"/><line style="stroke:#5E5E5E;stroke-width:1.5625;" x1="380.7292" x2="380.7292" y1="108.0078" y2="114.2578"/><line style="stroke:#5E5E5E;stroke-width:1.5625;" x1="386.9792" x2="380.7292" y1="114.2578" y2="114.2578"/><text fill="#D8BC00" font-family="Open Sans,Avenir,Nunito,Arial,Helvetica,SansSerif" font-size="12.5" lengthAdjust="spacing" textLength="143.75" x="224.4792" y="131.5511">tdk_lexakai_annotations</text><!--MD5=[2da24678105e16e396ffa16fefa06cea]
entity tdk_logs--><rect fill="#1B1B1A" height="44.93" rx="8.3333" ry="8.3333" style="stroke:#5E5E5E;stroke-width:1.5625;" width="87.5" x="132.8125" y="210.0911"/><polygon fill="#1B1B1A" points="202.6042,215.2995,202.6042,229.8828,215.1042,229.8828,215.1042,221.5495,208.8542,215.2995,202.6042,215.2995" style="stroke:#5E5E5E;stroke-width:1.5625;"/><line style="stroke:#5E5E5E;stroke-width:1.5625;" x1="208.8542" x2="208.8542" y1="215.2995" y2="221.5495"/><line style="stroke:#5E5E5E;stroke-width:1.5625;" x1="215.1042" x2="208.8542" y1="221.5495" y2="221.5495"/><text fill="#D8BC00" font-family="Open Sans,Avenir,Nunito,Arial,Helvetica,SansSerif" font-size="12.5" lengthAdjust="spacing" textLength="50" x="146.3542" y="238.8428">tdk_logs</text><!--MD5=[a27a36abc1f73dc52c6981f591a672cf]
entity tdk_map--><rect fill="#1B1B1A" height="44.93" rx="8.3333" ry="8.3333" style="stroke:#5E5E5E;stroke-width:1.5625;" width="90.625" x="383.3333" y="317.3828"/><polygon fill="#1B1B1A" points="456.25,322.5911,456.25,337.1745,468.75,337.1745,468.75,328.8411,462.5,322.5911,456.25,322.5911" style="stroke:#5E5E5E;stroke-width:1.5625;"/><line style="stroke:#5E5E5E;stroke-width:1.5625;" x1="462.5" x2="462.5" y1="322.5911" y2="328.8411"/><line style="stroke:#5E5E5E;stroke-width:1.5625;" x1="468.75" x2="462.5" y1="328.8411" y2="328.8411"/><text fill="#D8BC00" font-family="Open Sans,Avenir,Nunito,Arial,Helvetica,SansSerif" font-size="12.5" lengthAdjust="spacing" textLength="53.125" x="396.875" y="346.1344">tdk_map</text><!--MD5=[38fb9086532da2cdac2b17a0a686ef34]
entity tdk_navigation--><rect fill="#1B1B1A" height="44.93" rx="8.3333" ry="8.3333" style="stroke:#5E5E5E;stroke-width:1.5625;" width="123.9583" x="239.5833" y="531.9661"/><polygon fill="#1B1B1A" points="345.8333,537.1745,345.8333,551.7578,358.3333,551.7578,358.3333,543.4245,352.0833,537.1745,345.8333,537.1745" style="stroke:#5E5E5E;stroke-width:1.5625;"/><line style="stroke:#5E5E5E;stroke-width:1.5625;" x1="352.0833" x2="352.0833" y1="537.1745" y2="543.4245"/><line style="stroke:#5E5E5E;stroke-width:1.5625;" x1="358.3333" x2="352.0833" y1="543.4245" y2="543.4245"/><text fill="#D8BC00" font-family="Open Sans,Avenir,Nunito,Arial,Helvetica,SansSerif" font-size="12.5" lengthAdjust="spacing" textLength="86.4583" x="253.125" y="560.7178">tdk_navigation</text><!--MD5=[d95d29065de685542db143996f7cd282]
entity tdk_tools--><rect fill="#1B1B1A" height="44.93" rx="8.3333" ry="8.3333" style="stroke:#5E5E5E;stroke-width:1.5625;" width="91.6667" x="400.5208" y="531.9661"/><polygon fill="#1B1B1A" points="474.4792,537.1745,474.4792,551.7578,486.9792,551.7578,486.9792,543.4245,480.7292,537.1745,474.4792,537.1745" style="stroke:#5E5E5E;stroke-width:1.5625;"/><line style="stroke:#5E5E5E;stroke-width:1.5625;" x1="480.7292" x2="480.7292" y1="537.1745" y2="543.4245"/><line style="stroke:#5E5E5E;stroke-width:1.5625;" x1="486.9792" x2="480.7292" y1="543.4245" y2="543.4245"/><text fill="#D8BC00" font-family="Open Sans,Avenir,Nunito,Arial,Helvetica,SansSerif" font-size="12.5" lengthAdjust="spacing" textLength="54.1667" x="414.0625" y="560.7178">tdk_tools</text><!--MD5=[02322b890be69e4aea72940fee529bed]
entity tdk_ui--><rect fill="#1B1B1A" height="44.93" rx="8.3333" ry="8.3333" style="stroke:#5E5E5E;stroke-width:1.5625;" width="73.9583" x="383.3333" y="210.0911"/><polygon fill="#1B1B1A" points="439.5833,215.2995,439.5833,229.8828,452.0833,229.8828,452.0833,221.5495,445.8333,215.2995,439.5833,215.2995" style="stroke:#5E5E5E;stroke-width:1.5625;"/><line style="stroke:#5E5E5E;stroke-width:1.5625;" x1="445.8333" x2="445.8333" y1="215.2995" y2="221.5495"/><line style="stroke:#5E5E5E;stroke-width:1.5625;" x1="452.0833" x2="445.8333" y1="221.5495" y2="221.5495"/><text fill="#D8BC00" font-family="Open Sans,Avenir,Nunito,Arial,Helvetica,SansSerif" font-size="12.5" lengthAdjust="spacing" textLength="36.4583" x="396.875" y="238.8428">tdk_ui</text><!--MD5=[90f0910c22b5a2cf78fe9a09ebde2b27]
entity tdk_utilities--><rect fill="#1B1B1A" height="44.93" rx="8.3333" ry="8.3333" style="stroke:#5E5E5E;stroke-width:1.5625;" width="105.2083" x="114.5833" y="317.3828"/><polygon fill="#1B1B1A" points="202.0833,322.5911,202.0833,337.1745,214.5833,337.1745,214.5833,328.8411,208.3333,322.5911,202.0833,322.5911" style="stroke:#5E5E5E;stroke-width:1.5625;"/><line style="stroke:#5E5E5E;stroke-width:1.5625;" x1="208.3333" x2="208.3333" y1="322.5911" y2="328.8411"/><line style="stroke:#5E5E5E;stroke-width:1.5625;" x1="214.5833" x2="208.3333" y1="328.8411" y2="328.8411"/><text fill="#D8BC00" font-family="Open Sans,Avenir,Nunito,Arial,Helvetica,SansSerif" font-size="12.5" lengthAdjust="spacing" textLength="67.7083" x="128.125" y="346.1344">tdk_utilities</text><!--MD5=[1b3281c5b207dec835f0f318a1a2713d]
entity tdk_web--><rect fill="#1B1B1A" height="44.93" rx="8.3333" ry="8.3333" style="stroke:#5E5E5E;stroke-width:1.5625;" width="88.5417" x="7.2917" y="210.0911"/><polygon fill="#1B1B1A" points="78.125,215.2995,78.125,229.8828,90.625,229.8828,90.625,221.5495,84.375,215.2995,78.125,215.2995" style="stroke:#5E5E5E;stroke-width:1.5625;"/><line style="stroke:#5E5E5E;stroke-width:1.5625;" x1="84.375" x2="84.375" y1="215.2995" y2="221.5495"/><line style="stroke:#5E5E5E;stroke-width:1.5625;" x1="90.625" x2="84.375" y1="221.5495" y2="221.5495"/><text fill="#D8BC00" font-family="Open Sans,Avenir,Nunito,Arial,Helvetica,SansSerif" font-size="12.5" lengthAdjust="spacing" textLength="51.0417" x="20.8333" y="238.8428">tdk_web</text><!--MD5=[368ae0c89408e4ead7ac4c2da7286133]
reverse link tdk_lexakai_annotations to tdk_core--><path d="M301.5625,153.3307 C301.5625,170.9766 301.5625,193.6641 301.5625,210.0391 " fill="none" id="tdk_lexakai_annotations-backto-tdk_core" style="stroke:#545454;stroke-width:1.5625;"/><polygon fill="#545454" points="301.5625,148.0391,297.3958,157.4141,301.5625,153.2474,305.7292,157.4141,301.5625,148.0391" style="stroke:#545454;stroke-width:1.5625;"/><!--MD5=[7362ccd1197ee3b66c56ea2903ae0b19]
reverse link tdk_core to tdk_data--><path d="M301.5625,260.6224 C301.5625,278.2682 301.5625,300.9557 301.5625,317.3307 " fill="none" id="tdk_core-backto-tdk_data" style="stroke:#545454;stroke-width:1.5625;"/><polygon fill="#545454" points="301.5625,255.3307,297.3958,264.7057,301.5625,260.5391,305.7292,264.7057,301.5625,255.3307" style="stroke:#545454;stroke-width:1.5625;"/><!--MD5=[30fcc23506da9c4680172c405b0ed166]
link tdk_web to tdk_core--><path d="M77.1875,210.0495 C92.3854,198.2682 112.6771,185.0182 133.3333,178.8411 C170.5938,167.7057 183.6042,167.6016 220.8333,178.8411 C239.375,184.4349 257.5625,195.8516 271.9688,206.7057 " fill="none" id="tdk_web-to-tdk_core" style="stroke:#545454;stroke-width:1.5625;"/><polygon fill="#545454" points="276.3125,210.0599,271.4205,201.0421,272.1837,206.885,266.3408,207.6482,276.3125,210.0599" style="stroke:#545454;stroke-width:1.5625;"/><!--MD5=[a8d253ee71d1f5a9f494e6ae8505da19]
reverse link tdk_core to tdk_filesystems--><path d="M331.5938,206.7057 C346.1979,195.8411 364.6146,184.4349 383.3333,178.8411 C414.8333,169.4349 425.3854,170.9349 457.2917,178.8411 C481.875,184.9349 507.0625,198.1849 526.1979,209.987 " fill="none" id="tdk_core-backto-tdk_filesystems" style="stroke:#545454;stroke-width:1.5625;"/><polygon fill="#545454" points="327.1875,210.0495,337.1729,207.6951,331.3345,206.8984,332.1312,201.0599,327.1875,210.0495" style="stroke:#545454;stroke-width:1.5625;"/><!--MD5=[1a9da0f5073b49144db75773ddaddafb]
reverse link tdk_core to tdk_ui--><path d="M351.9896,232.487 C362.375,232.487 372.7604,232.487 383.1458,232.487 " fill="none" id="tdk_core-backto-tdk_ui" style="stroke:#545454;stroke-width:1.5625;"/><polygon fill="#545454" points="346.5625,232.487,355.9375,236.6536,351.7708,232.487,355.9375,228.3203,346.5625,232.487" style="stroke:#545454;stroke-width:1.5625;"/><!--MD5=[a99d39ffd659d941ecc2236c3f9d3061]
link tdk_logs to tdk_core--><path d="M220.5104,232.487 C230.75,232.487 241,232.487 251.2396,232.487 " fill="none" id="tdk_logs-to-tdk_core" style="stroke:#545454;stroke-width:1.5625;"/><polygon fill="#545454" points="256.6042,232.487,247.2292,228.3203,251.3958,232.487,247.2292,236.6536,256.6042,232.487" style="stroke:#545454;stroke-width:1.5625;"/><!--MD5=[eac26fec0071b95ab54859bf3aa6441d]
reverse link tdk_core to tdk_map--><path d="M331.8021,258.5599 C353.3854,276.4245 382.1042,300.2057 402.6563,317.2266 " fill="none" id="tdk_core-backto-tdk_map" style="stroke:#545454;stroke-width:1.5625;"/><polygon fill="#545454" points="327.5833,255.0703,332.1583,264.253,331.5991,258.387,337.465,257.8278,327.5833,255.0703" style="stroke:#545454;stroke-width:1.5625;"/><!--MD5=[75b0ff91e72b57b90005ee98d9a53440]
reverse link tdk_core to tdk_utilities--><path d="M269.875,258.3411 C247.0208,276.2266 216.4896,300.1328 194.6667,317.2266 " fill="none" id="tdk_core-backto-tdk_utilities" style="stroke:#545454;stroke-width:1.5625;"/><polygon fill="#545454" points="274.0417,255.0703,264.0953,257.5845,269.9457,258.2875,269.2427,264.1379,274.0417,255.0703" style="stroke:#545454;stroke-width:1.5625;"/><!--MD5=[864feffc9b98ccb314fbd1656f290b16]
reverse link tdk_map to tdk_graph--><path d="M398.4063,365.8516 C376.8229,383.7161 348.1042,407.4974 327.5521,424.5182 " fill="none" id="tdk_map-backto-tdk_graph" style="stroke:#545454;stroke-width:1.5625;"/><polygon fill="#545454" points="402.625,362.362,392.7433,365.1195,398.6093,365.6787,398.05,371.5446,402.625,362.362" style="stroke:#545454;stroke-width:1.5625;"/><!--MD5=[df09747aac6ff1c067e64cfec4f3fc14]
reverse link tdk_data to tdk_graph--><path d="M301.5625,367.9141 C301.5625,385.5599 301.5625,408.2474 301.5625,424.6224 " fill="none" id="tdk_data-backto-tdk_graph" style="stroke:#545454;stroke-width:1.5625;"/><polygon fill="#545454" points="301.5625,362.6224,297.3958,371.9974,301.5625,367.8307,305.7292,371.9974,301.5625,362.6224" style="stroke:#545454;stroke-width:1.5625;"/><!--MD5=[b516eb169010b1e6dd07526b5653e3f0]
reverse link tdk_utilities to tdk_graph--><path d="M198.875,365.6328 C221.7292,383.5182 252.2604,407.4245 274.0833,424.5182 " fill="none" id="tdk_utilities-backto-tdk_graph" style="stroke:#545454;stroke-width:1.5625;"/><polygon fill="#545454" points="194.7083,362.362,199.5073,371.4296,198.8043,365.5791,204.6547,364.8761,194.7083,362.362" style="stroke:#545454;stroke-width:1.5625;"/><!--MD5=[2e2d4d43ccc04aa0c0f6a99b8148316b]
reverse link tdk_graph to tdk_josm--><path d="M267.4167,472.9245 C242.7917,490.8099 209.8958,514.7161 186.3854,531.8099 " fill="none" id="tdk_graph-backto-tdk_josm" style="stroke:#545454;stroke-width:1.5625;"/><polygon fill="#545454" points="271.9167,469.6536,261.885,471.8022,267.7058,472.7188,266.7892,478.5396,271.9167,469.6536" style="stroke:#545454;stroke-width:1.5625;"/><!--MD5=[edc75e2f004fa70e54fcac47367fd752]
reverse link tdk_graph to tdk_navigation--><path d="M301.5625,475.2057 C301.5625,492.8516 301.5625,515.5391 301.5625,531.9141 " fill="none" id="tdk_graph-backto-tdk_navigation" style="stroke:#545454;stroke-width:1.5625;"/><polygon fill="#545454" points="301.5625,469.9141,297.3958,479.2891,301.5625,475.1224,305.7292,479.2891,301.5625,469.9141" style="stroke:#545454;stroke-width:1.5625;"/><!--MD5=[d6718816da091904b48339a47e7b5f98]
reverse link tdk_graph to tdk_tools--><path d="M335.7083,472.9245 C360.3333,490.8099 393.2292,514.7161 416.7396,531.8099 " fill="none" id="tdk_graph-backto-tdk_tools" style="stroke:#545454;stroke-width:1.5625;"/><polygon fill="#545454" points="331.2083,469.6536,336.3358,478.5396,335.4192,472.7188,341.24,471.8022,331.2083,469.6536" style="stroke:#545454;stroke-width:1.5625;"/><!--MD5=[a83cdf63e536d4e670544fefaa63e85b]
@startuml

    !include ../../lexakai.theme

    title "KivaKit Project Dependencies"

    legend top
        Simplified diagram of top-level project dependencies
    endlegend

    artifact tdk_core
    artifact tdk_data
    artifact tdk_filesystems
    artifact tdk_graph
    artifact tdk_josm
    artifact tdk_lexakai_annotations
    artifact tdk_logs
    artifact tdk_map
    artifact tdk_navigation
    artifact tdk_tools
    artifact tdk_ui
    artifact tdk_utilities
    artifact tdk_web

    tdk_core -up-> tdk_lexakai_annotations

    tdk_data -up-> tdk_core
    tdk_web -right-> tdk_core
    tdk_filesystems -left-> tdk_core
    tdk_ui -left-> tdk_core
    tdk_logs -right-> tdk_core
    tdk_map -up-> tdk_core
    tdk_utilities -up-> tdk_core

    tdk_graph -up-> tdk_map
    tdk_graph -up-> tdk_data
    tdk_graph -up-> tdk_utilities

    tdk_josm -up-> tdk_graph
    tdk_navigation -up-> tdk_graph
    tdk_tools -up-> tdk_graph

@enduml

@startuml









skinparam backgroundColor #333333






skinparam  {
    defaultFontName   "Open Sans,Avenir,Nunito,Arial,Helvetica,SansSerif"
    defaultFontSize   12
    defaultTextAlignment left
    shadowing false
    RoundCorner 10
    TitleFontSize 18
}

skinparam defaultFontName       "Open Sans,Avenir,Nunito,Arial,Helvetica,SansSerif"
skinparam defaultFontSize       12
skinparam dpi                   100
skinparam shadowing             false
skinparam roundcorner           16
skinparam ParticipantPadding    40
skinparam BoxPadding            40
skinparam Padding               3
skinparam ArrowColor            #545454
skinparam stereotype {
    CBackgroundColor #0066cf
    CBorderColor #0086ef
    ABackgroundColor #C8Ac00
    ABorderColor #D8Bc00
    IBackgroundColor #008400
    IBorderColor #239c23
    EBackgroundColor #cf6300
    EBorderColor #ef8300
    NBackgroundColor #3380b9
    NBorderColor #004d86
}
skinparam title {
	FontColor	                 #c0c0c0
 	BorderColor                  #545454
	FontSize	    	         20
	BorderRoundCorner            16
	BorderThickness 	         1
	BackgroundColor              #48494b
}


skinparam legend {
	BackgroundColor #303030
	BorderColor #404040
	FontColor #a0a0a0
}

	skinparam swimlane {
	BorderColor #5e5e5e
	BorderThickness 2
	TitleBackgroundColor  #6d6d6d-#484848
	TitleFontColor #303030
}

skinparam activity {
		FontColor #C8Ac00
	BorderColor #333333
	BackgroundColor #333333-#333333
	BarColor #00FF00
	StartColor #0060a8
	EndColor #0060a8
	DiamondBackgroundColor #6d6d6d-#3a3a3a
  	DiamondBorderColor #3a3a3a
  	DiamondFontColor #fefefe
}


skinparam participant {
		FontColor #C8Ac00
	BorderColor #333333
	BackgroundColor #333333-#333333
	ParticipantBorderThickness 2
}


skinparam actor {
		FontColor #C8Ac00
	BorderColor #333333
	BackgroundColor #333333-#333333
}


skinparam arrow {
	Thickness 1.5
	Color #545454
	FontColor #a0a0a0
    FontStyle bold
    MessageAlignment center
}



skinparam sequence {
	BorderColor #303030
	TitleFontColor #303030
	BackgroundColor #333333
	StartColor #303030
	EndColor #303030
	BoxBackgroundColor #333333
	BoxBorderColor #484848
	BoxFontColor #484848
	LifeLineBorderColor #484848
	LifeLineBorderThickness 2
	LifeLineBackgroundColor #3a3a3a
	GroupBorderColor #484848
	GroupFontColor #484848
	GroupHeaderFontColor #0060a8
	GroupBackgroundColor #484848
	GroupHeaderBackgroundColor #333333
	DividerBackgroundColor #484848
    DividerBorderColor #484848
    DividerBorderThickness 2
    DividerFontColor #D8Bc00
	ReferenceBackgroundColor #333333
	ReferenceBorderColor #484848
	ReferenceFontColor #fefefe
	ReferenceHeaderBackgroundColor #484848
}


skinparam partition {
	BorderColor #303030
	FontColor #333333
	BackgroundColor #333333
}


skinparam collections {
		FontColor #C8Ac00
	BorderColor #333333
	BackgroundColor #333333-#333333
}


skinparam control {
		FontColor #C8Ac00
	BorderColor #333333
	BackgroundColor #333333-#333333
}


skinparam entity {
		FontColor #C8Ac00
	BorderColor #333333
	BackgroundColor #333333-#333333
}


skinparam boundary {
		FontColor #C8Ac00
	BorderColor #333333
	BackgroundColor #333333-#333333
}


skinparam agent {
	BackgroundColor #ff8000
	BorderColor #ff9933
	FontColor #484848
}


skinparam note {
	BorderThickness 1
	BackgroundColor #1b1b1a
	BorderColor #5e5e5e
	FontSize 11
	FontColor #a0a0a0
}


skinparam artifact {
	BorderThickness 10
	BorderColor #5e5e5e
	BackgroundColor #1b1b1a
	FontColor #D8Bc00
}


skinparam component {
		FontColor #C8Ac00
	BorderColor #333333
	BackgroundColor #333333-#333333
}


skinparam interface {
	BackgroundColor  #008400
	BorderColor  #007F00
	FontColor #484848
}


skinparam storage {
	BackgroundColor #ff8000
  	BorderColor #cc6600
	FontColor #222222
}


skinparam node {
	BackgroundColor #333333
	BorderColor #333333
	FontColor #C8Ac00
}


skinparam cloud {
	BackgroundColor #484848-black
	BorderColor #484848
	FontColor #D8Bc00
}


skinparam database {
		FontColor #C8Ac00
	BorderColor #333333
	BackgroundColor #333333-#333333
	BackgroundColor  #333333
}


skinparam class {
		FontColor #C8Ac00
	BorderColor #333333
	BackgroundColor #333333-#333333
	HeaderBackgroundColor #1b1b1a
    BackgroundColor #282828
    BorderColor #5e5e5e
 	StereotypeFontColor #a0a0a0
    StereotypeFontStyle bold
	BorderThickness 1
	AttributeFontColor #D8Bc00
	AttributeFontSize 11
    FontColor #D8Bc00
    FontStyle bold
}


skinparam object {
		FontColor #C8Ac00
	BorderColor #333333
	BackgroundColor #333333-#333333
	StereotypeFontColor #484848
	BorderThickness 1
	AttributeFontColor #fefefe
	AttributeFontSize 11
}


skinparam usecase {
		FontColor #C8Ac00
	BorderColor #333333
	BackgroundColor #333333-#333333
	BorderThickness 2
	StereotypeFontColor #303030
}


skinparam rectangle {
		FontColor #C8Ac00
	BorderColor #333333
	BackgroundColor #333333-#333333
	BackgroundColor #333333
	BorderThickness 2
	StereotypeFontColor #303030
}


skinparam package {
		FontColor #C8Ac00
	BorderColor #333333
	BackgroundColor #333333-#333333
	BackgroundColor #333333
	BorderThickness 2
}


skinparam folder {
	BackgroundColor #6d6d6d
  	BorderColor #ff8000
	FontColor #ff8000
	BorderThickness 2
}


skinparam frame {
	BackgroundColor #6d6d6d
  	BorderColor #0060a8
	FontColor #0060a8
	BorderThickness 2
}


skinparam state {
		FontColor #C8Ac00
	BorderColor #333333
	BackgroundColor #333333-#333333
	StartColor #0060a8
	EndColor #0060a8
	AttributeFontColor #fefefe
	AttributeFontSize 11
}


skinparam queue {
		FontColor #C8Ac00
	BorderColor #333333
	BackgroundColor #333333-#333333
}


skinparam card {
	BackgroundColor #0060a8
	BorderColor #004d86
	FontColor $INFO_TEXT
}


skinparam file {
	BackgroundColor #6d6d6d-#484848
	BorderColor #0060a8
	FontColor #fefefe
}


skinparam stack {
		FontColor #C8Ac00
	BorderColor #333333
	BackgroundColor #333333-#333333
}


    title "KivaKit Project Dependencies"

    legend top
        Simplified diagram of top-level project dependencies
    endlegend

    artifact tdk_core
    artifact tdk_data
    artifact tdk_filesystems
    artifact tdk_graph
    artifact tdk_josm
    artifact tdk_lexakai_annotations
    artifact tdk_logs
    artifact tdk_map
    artifact tdk_navigation
    artifact tdk_tools
    artifact tdk_ui
    artifact tdk_utilities
    artifact tdk_web

    tdk_core -up-> tdk_lexakai_annotations

    tdk_data -up-> tdk_core
    tdk_web -right-> tdk_core
    tdk_filesystems -left-> tdk_core
    tdk_ui -left-> tdk_core
    tdk_logs -right-> tdk_core
    tdk_map -up-> tdk_core
    tdk_utilities -up-> tdk_core

    tdk_graph -up-> tdk_map
    tdk_graph -up-> tdk_data
    tdk_graph -up-> tdk_utilities

    tdk_josm -up-> tdk_graph
    tdk_navigation -up-> tdk_graph
    tdk_tools -up-> tdk_graph

@enduml

PlantUML version 1.2021.2(Sun Mar 07 04:10:27 MST 2021)
(GPL source distribution)
Java Runtime: OpenJDK Runtime Environment
JVM: OpenJDK 64-Bit Server VM
Default Encoding: UTF-8
Language: en
Country: US
--></g></svg>
