<?xml version="1.0" encoding="UTF-8" standalone="no"?><svg xmlns="http://www.w3.org/2000/svg" xmlns:xlink="http://www.w3.org/1999/xlink" contentScriptType="application/ecmascript" contentStyleType="text/css" height="662.5px" preserveAspectRatio="none" style="width:978px;height:662px;background:#333333;" version="1.1" viewBox="0 0 978 662" width="978.125px" zoomAndPan="magnify"><defs/><g><rect fill="#48494B" height="41.2028" rx="8.3333" ry="8.3333" style="stroke:#545454;stroke-width:1.0416666666666667;" width="212.5" x="375.7813" y="2.0833"/><text fill="#C0C0C0" font-family="Open Sans,Avenir,Nunito,Arial,Helvetica,SansSerif" font-size="20.8333" lengthAdjust="spacing" textLength="189.5833" x="387.2396" y="30.5583">S3 Service Provider</text><!--MD5=[8b5151cbe93a9a6942e91a66bba84fb0]
class BaseWritableResource--><rect codeLine="6" fill="#282828" height="48.055" id="BaseWritableResource" rx="8.3333" ry="8.3333" style="stroke:#5E5E5E;stroke-width:1.0416666666666667;" width="179.1667" x="443.2292" y="53.7028"/><rect fill="#1B1B1A" height="31.3883" rx="8.3333" ry="8.3333" style="stroke:#1B1B1A;stroke-width:1.0416666666666667;" width="179.1667" x="443.2292" y="53.7028"/><rect fill="#1B1B1A" height="8.3333" style="stroke:#1B1B1A;stroke-width:1.0416666666666667;" width="179.1667" x="443.2292" y="76.7578"/><rect codeLine="6" fill="none" height="48.055" id="BaseWritableResource" rx="8.3333" ry="8.3333" style="stroke:#5E5E5E;stroke-width:1.0416666666666667;" width="179.1667" x="443.2292" y="53.7028"/><ellipse cx="457.8125" cy="69.397" fill="#C8AC00" rx="10.4167" ry="10.4167" style="stroke:#D8BC00;stroke-width:1.0416666666666667;"/><path d="M457.9264,66.099 L457.078,69.8283 L458.7809,69.8283 Z M456.8278,64.4511 L459.0312,64.4511 L461.4909,73.5636 L459.6903,73.5636 L459.1288,71.3114 L456.7179,71.3114 L456.1686,73.5636 L454.3681,73.5636 Z " fill="#000000"/><text fill="#D8BC00" font-family="Open Sans,Avenir,Nunito,Arial,Helvetica,SansSerif" font-size="12.5" font-style="italic" font-weight="bold" lengthAdjust="spacing" textLength="141.6667" x="474.4792" y="74.1211">BaseWritableResource</text><line style="stroke:#5E5E5E;stroke-width:1.0416666666666667;" x1="444.2708" x2="621.3542" y1="85.0911" y2="85.0911"/><line style="stroke:#5E5E5E;stroke-width:1.0416666666666667;" x1="444.2708" x2="621.3542" y1="93.4245" y2="93.4245"/><!--MD5=[9bc23c05e4b2fc73e019bd17cec96ec4]
class FileSystemService--><rect codeLine="8" fill="#282828" height="48.055" id="FileSystemService" rx="8.3333" ry="8.3333" style="stroke:#5E5E5E;stroke-width:1.0416666666666667;" width="152.0833" x="180.7292" y="53.7028"/><rect fill="#1B1B1A" height="31.3883" rx="8.3333" ry="8.3333" style="stroke:#1B1B1A;stroke-width:1.0416666666666667;" width="152.0833" x="180.7292" y="53.7028"/><rect fill="#1B1B1A" height="8.3333" style="stroke:#1B1B1A;stroke-width:1.0416666666666667;" width="152.0833" x="180.7292" y="76.7578"/><rect codeLine="8" fill="none" height="48.055" id="FileSystemService" rx="8.3333" ry="8.3333" style="stroke:#5E5E5E;stroke-width:1.0416666666666667;" width="152.0833" x="180.7292" y="53.7028"/><ellipse cx="195.3125" cy="69.397" fill="#008400" rx="10.4167" ry="10.4167" style="stroke:#239C23;stroke-width:1.0416666666666667;"/><path d="M192.1956,66.5588 L192.1956,64.9719 L197.6217,64.9719 L197.6217,66.5588 L195.8089,66.5588 L195.8089,72.4976 L197.6217,72.4976 L197.6217,74.0845 L192.1956,74.0845 L192.1956,72.4976 L194.0084,72.4976 L194.0084,66.5588 Z " fill="#000000"/><text fill="#D8BC00" font-family="Open Sans,Avenir,Nunito,Arial,Helvetica,SansSerif" font-size="12.5" font-style="italic" font-weight="bold" lengthAdjust="spacing" textLength="114.5833" x="211.9792" y="74.1211">FileSystemService</text><line style="stroke:#5E5E5E;stroke-width:1.0416666666666667;" x1="181.7708" x2="331.7708" y1="85.0911" y2="85.0911"/><line style="stroke:#5E5E5E;stroke-width:1.0416666666666667;" x1="181.7708" x2="331.7708" y1="93.4245" y2="93.4245"/><!--MD5=[186cc809c4fefc21e9383dda7a09b230]
class FileSystemObjectService--><rect codeLine="9" fill="#282828" height="48.055" id="FileSystemObjectService" rx="8.3333" ry="8.3333" style="stroke:#5E5E5E;stroke-width:1.0416666666666667;" width="193.75" x="658.8542" y="53.7028"/><rect fill="#1B1B1A" height="31.3883" rx="8.3333" ry="8.3333" style="stroke:#1B1B1A;stroke-width:1.0416666666666667;" width="193.75" x="658.8542" y="53.7028"/><rect fill="#1B1B1A" height="8.3333" style="stroke:#1B1B1A;stroke-width:1.0416666666666667;" width="193.75" x="658.8542" y="76.7578"/><rect codeLine="9" fill="none" height="48.055" id="FileSystemObjectService" rx="8.3333" ry="8.3333" style="stroke:#5E5E5E;stroke-width:1.0416666666666667;" width="193.75" x="658.8542" y="53.7028"/><ellipse cx="673.4375" cy="69.397" fill="#008400" rx="10.4167" ry="10.4167" style="stroke:#239C23;stroke-width:1.0416666666666667;"/><path d="M670.3206,66.5588 L670.3206,64.9719 L675.7467,64.9719 L675.7467,66.5588 L673.9339,66.5588 L673.9339,72.4976 L675.7467,72.4976 L675.7467,74.0845 L670.3206,74.0845 L670.3206,72.4976 L672.1334,72.4976 L672.1334,66.5588 Z " fill="#000000"/><text fill="#D8BC00" font-family="Open Sans,Avenir,Nunito,Arial,Helvetica,SansSerif" font-size="12.5" font-style="italic" font-weight="bold" lengthAdjust="spacing" textLength="156.25" x="690.1042" y="74.1211">FileSystemObjectService</text><line style="stroke:#5E5E5E;stroke-width:1.0416666666666667;" x1="659.8958" x2="851.5625" y1="85.0911" y2="85.0911"/><line style="stroke:#5E5E5E;stroke-width:1.0416666666666667;" x1="659.8958" x2="851.5625" y1="93.4245" y2="93.4245"/><!--MD5=[3f7923c5962403cc19ad9d36647dd0a5]
class FileService--><rect codeLine="10" fill="#282828" height="48.055" id="FileService" rx="8.3333" ry="8.3333" style="stroke:#5E5E5E;stroke-width:1.0416666666666667;" width="105.2083" x="7.2917" y="248.4945"/><rect fill="#1B1B1A" height="31.3883" rx="8.3333" ry="8.3333" style="stroke:#1B1B1A;stroke-width:1.0416666666666667;" width="105.2083" x="7.2917" y="248.4945"/><rect fill="#1B1B1A" height="8.3333" style="stroke:#1B1B1A;stroke-width:1.0416666666666667;" width="105.2083" x="7.2917" y="271.5495"/><rect codeLine="10" fill="none" height="48.055" id="FileService" rx="8.3333" ry="8.3333" style="stroke:#5E5E5E;stroke-width:1.0416666666666667;" width="105.2083" x="7.2917" y="248.4945"/><ellipse cx="21.875" cy="264.1886" fill="#008400" rx="10.4167" ry="10.4167" style="stroke:#239C23;stroke-width:1.0416666666666667;"/><path d="M18.7581,261.3505 L18.7581,259.7636 L24.1842,259.7636 L24.1842,261.3505 L22.3714,261.3505 L22.3714,267.2892 L24.1842,267.2892 L24.1842,268.8761 L18.7581,268.8761 L18.7581,267.2892 L20.5709,267.2892 L20.5709,261.3505 Z " fill="#000000"/><text fill="#D8BC00" font-family="Open Sans,Avenir,Nunito,Arial,Helvetica,SansSerif" font-size="12.5" font-style="italic" font-weight="bold" lengthAdjust="spacing" textLength="67.7083" x="38.5417" y="268.9128">FileService</text><line style="stroke:#5E5E5E;stroke-width:1.0416666666666667;" x1="8.3333" x2="111.4583" y1="279.8828" y2="279.8828"/><line style="stroke:#5E5E5E;stroke-width:1.0416666666666667;" x1="8.3333" x2="111.4583" y1="288.2161" y2="288.2161"/><!--MD5=[d3568316a19508714d03e72c4319f868]
class FolderService--><rect codeLine="11" fill="#282828" height="48.055" id="FolderService" rx="8.3333" ry="8.3333" style="stroke:#5E5E5E;stroke-width:1.0416666666666667;" width="122.9167" x="848.4375" y="248.4945"/><rect fill="#1B1B1A" height="31.3883" rx="8.3333" ry="8.3333" style="stroke:#1B1B1A;stroke-width:1.0416666666666667;" width="122.9167" x="848.4375" y="248.4945"/><rect fill="#1B1B1A" height="8.3333" style="stroke:#1B1B1A;stroke-width:1.0416666666666667;" width="122.9167" x="848.4375" y="271.5495"/><rect codeLine="11" fill="none" height="48.055" id="FolderService" rx="8.3333" ry="8.3333" style="stroke:#5E5E5E;stroke-width:1.0416666666666667;" width="122.9167" x="848.4375" y="248.4945"/><ellipse cx="863.0208" cy="264.1886" fill="#008400" rx="10.4167" ry="10.4167" style="stroke:#239C23;stroke-width:1.0416666666666667;"/><path d="M859.904,261.3505 L859.904,259.7636 L865.33,259.7636 L865.33,261.3505 L863.5173,261.3505 L863.5173,267.2892 L865.33,267.2892 L865.33,268.8761 L859.904,268.8761 L859.904,267.2892 L861.7167,267.2892 L861.7167,261.3505 Z " fill="#000000"/><text fill="#D8BC00" font-family="Open Sans,Avenir,Nunito,Arial,Helvetica,SansSerif" font-size="12.5" font-style="italic" font-weight="bold" lengthAdjust="spacing" textLength="85.4167" x="879.6875" y="268.9128">FolderService</text><line style="stroke:#5E5E5E;stroke-width:1.0416666666666667;" x1="849.4792" x2="970.3125" y1="279.8828" y2="279.8828"/><line style="stroke:#5E5E5E;stroke-width:1.0416666666666667;" x1="849.4792" x2="970.3125" y1="288.2161" y2="288.2161"/><!--MD5=[dc8af0fb6c54dd585083f766f5607a29]
class S3FileSystemObject--><rect codeLine="28" fill="#282828" height="214.3473" id="S3FileSystemObject" rx="8.3333" ry="8.3333" style="stroke:#5E5E5E;stroke-width:1.0416666666666667;" width="410.4167" x="401.5625" y="165.1611"/><rect fill="#1B1B1A" height="31.3883" rx="8.3333" ry="8.3333" style="stroke:#1B1B1A;stroke-width:1.0416666666666667;" width="410.4167" x="401.5625" y="165.1611"/><rect fill="#1B1B1A" height="8.3333" style="stroke:#1B1B1A;stroke-width:1.0416666666666667;" width="410.4167" x="401.5625" y="188.2161"/><rect codeLine="28" fill="none" height="214.3473" id="S3FileSystemObject" rx="8.3333" ry="8.3333" style="stroke:#5E5E5E;stroke-width:1.0416666666666667;" width="410.4167" x="401.5625" y="165.1611"/><ellipse cx="535.9375" cy="180.8553" fill="#C8AC00" rx="10.4167" ry="10.4167" style="stroke:#D8BC00;stroke-width:1.0416666666666667;"/><path d="M536.0514,177.5574 L535.203,181.2866 L536.9059,181.2866 Z M534.9528,175.9094 L537.1562,175.9094 L539.6159,185.022 L537.8153,185.022 L537.2538,182.7698 L534.8429,182.7698 L534.2936,185.022 L532.4931,185.022 Z " fill="#000000"/><text fill="#D8BC00" font-family="Open Sans,Avenir,Nunito,Arial,Helvetica,SansSerif" font-size="12.5" font-style="italic" font-weight="bold" lengthAdjust="spacing" textLength="127.0833" x="558.8542" y="185.5794">S3FileSystemObject</text><line style="stroke:#5E5E5E;stroke-width:1.5625;" x1="402.6042" x2="810.9375" y1="196.5495" y2="196.5495"/><polygon fill="#FFFF44" points="413.0208,226.711,417.1875,230.8777,413.0208,235.0444,408.8542,230.8777" style="stroke:#B38D22;stroke-width:1.0416666666666667;"/><text fill="#D8BC00" font-family="Open Sans,Avenir,Nunito,Arial,Helvetica,SansSerif" font-size="11.4583" lengthAdjust="spacing" textLength="378.125" x="424.4792" y="238.8306">ListObjectsRequest listRequest(String bucketName, String keyName)</text><line style="stroke:#5E5E5E;stroke-width:1.0416666666666667;" x1="402.6042" x2="572.3958" y1="214.7552" y2="214.7552"/><text fill="#D8BC00" font-family="Open Sans,Avenir,Nunito,Arial,Helvetica,SansSerif" font-size="11.4583" lengthAdjust="spacing" textLength="62.5" x="575.5208" y="218.5649">(collection)</text><line style="stroke:#5E5E5E;stroke-width:1.0416666666666667;" x1="641.1458" x2="810.9375" y1="214.7552" y2="214.7552"/><polygon fill="#FFFF44" points="413.0208,270.3674,417.1875,274.5341,413.0208,278.7008,408.8542,274.5341" style="stroke:#B38D22;stroke-width:1.0416666666666667;"/><text fill="#D8BC00" font-family="Open Sans,Avenir,Nunito,Arial,Helvetica,SansSerif" font-size="11.4583" lengthAdjust="spacing" textLength="362.5" x="424.4792" y="282.487">FilePath path(String scheme, String bucketName, String keyName)</text><line style="stroke:#5E5E5E;stroke-width:1.0416666666666667;" x1="402.6042" x2="571.3542" y1="258.4117" y2="258.4117"/><text fill="#D8BC00" font-family="Open Sans,Avenir,Nunito,Arial,Helvetica,SansSerif" font-size="11.4583" lengthAdjust="spacing" textLength="64.5833" x="574.4792" y="262.2213">(filesystem)</text><line style="stroke:#5E5E5E;stroke-width:1.0416666666666667;" x1="642.1875" x2="810.9375" y1="258.4117" y2="258.4117"/><ellipse cx="413.0208" cy="319.2322" fill="#84BE84" rx="3.125" ry="3.125" style="stroke:#038048;stroke-width:1.0416666666666667;"/><text fill="#D8BC00" font-family="Open Sans,Avenir,Nunito,Arial,Helvetica,SansSerif" font-size="11.4583" lengthAdjust="spacing" textLength="160.4167" x="424.4792" y="326.1434">boolean accepts(String path)</text><line style="stroke:#5E5E5E;stroke-width:1.0416666666666667;" x1="402.6042" x2="577.6042" y1="302.0681" y2="302.0681"/><text fill="#D8BC00" font-family="Open Sans,Avenir,Nunito,Arial,Helvetica,SansSerif" font-size="11.4583" lengthAdjust="spacing" textLength="52.0833" x="580.7292" y="305.8777">(filtering)</text><line style="stroke:#5E5E5E;stroke-width:1.0416666666666667;" x1="635.9375" x2="810.9375" y1="302.0681" y2="302.0681"/><ellipse cx="413.0208" cy="362.8886" fill="#84BE84" rx="3.125" ry="3.125" style="stroke:#038048;stroke-width:1.0416666666666667;"/><text fill="#D8BC00" font-family="Open Sans,Avenir,Nunito,Arial,Helvetica,SansSerif" font-size="11.4583" lengthAdjust="spacing" textLength="75" x="424.4792" y="369.7998">String name()</text><line style="stroke:#5E5E5E;stroke-width:1.0416666666666667;" x1="402.6042" x2="578.6458" y1="345.7245" y2="345.7245"/><text fill="#D8BC00" font-family="Open Sans,Avenir,Nunito,Arial,Helvetica,SansSerif" font-size="11.4583" lengthAdjust="spacing" textLength="50" x="581.7708" y="349.5341">(naming)</text><line style="stroke:#5E5E5E;stroke-width:1.0416666666666667;" x1="634.8958" x2="810.9375" y1="345.7245" y2="345.7245"/><!--MD5=[8fa488a34f086c195729d4f8f33d253c]
class S3File--><rect codeLine="15" fill="#282828" height="190.4358" id="S3File" rx="8.3333" ry="8.3333" style="stroke:#5E5E5E;stroke-width:1.0416666666666667;" width="202.0833" x="155.7292" y="465.1611"/><rect fill="#1B1B1A" height="31.3883" rx="8.3333" ry="8.3333" style="stroke:#1B1B1A;stroke-width:1.0416666666666667;" width="202.0833" x="155.7292" y="465.1611"/><rect fill="#1B1B1A" height="8.3333" style="stroke:#1B1B1A;stroke-width:1.0416666666666667;" width="202.0833" x="155.7292" y="488.2161"/><rect codeLine="15" fill="none" height="190.4358" id="S3File" rx="8.3333" ry="8.3333" style="stroke:#5E5E5E;stroke-width:1.0416666666666667;" width="202.0833" x="155.7292" y="465.1611"/><ellipse cx="230.2083" cy="480.8553" fill="#0066CF" rx="10.4167" ry="10.4167" style="stroke:#0086EF;stroke-width:1.0416666666666667;"/><path d="M232.1187,485.2804 Q231.6915,485.5001 231.2215,485.6099 Q230.7515,485.7198 230.2327,485.7198 Q228.3895,485.7198 227.419,484.5052 Q226.4486,483.2906 226.4486,480.9957 Q226.4486,478.6947 227.419,477.4801 Q228.3895,476.2655 230.2327,476.2655 Q230.7515,476.2655 231.2276,476.3753 Q231.7037,476.4852 232.1187,476.7049 L232.1187,478.7069 Q231.6549,478.2796 231.2185,478.0813 Q230.7821,477.8829 230.3182,477.8829 Q229.3294,477.8829 228.8259,478.6672 Q228.3223,479.4515 228.3223,480.9957 Q228.3223,482.5338 228.8259,483.3181 Q229.3294,484.1024 230.3182,484.1024 Q230.7821,484.1024 231.2185,483.904 Q231.6549,483.7056 232.1187,483.2784 Z " fill="#000000"/><text fill="#D8BC00" font-family="Open Sans,Avenir,Nunito,Arial,Helvetica,SansSerif" font-size="12.5" font-weight="bold" lengthAdjust="spacing" textLength="38.5417" x="253.125" y="485.5794">S3File</text><line style="stroke:#5E5E5E;stroke-width:1.5625;" x1="156.7708" x2="356.7708" y1="496.5495" y2="496.5495"/><ellipse cx="167.1875" cy="531.9194" fill="#84BE84" rx="3.125" ry="3.125" style="stroke:#038048;stroke-width:1.0416666666666667;"/><text fill="#D8BC00" font-family="Open Sans,Avenir,Nunito,Arial,Helvetica,SansSerif" font-size="11.4583" lengthAdjust="spacing" textLength="83.3333" x="178.6458" y="538.8306">S3File(FilePath)</text><ellipse cx="167.1875" cy="551.6642" fill="#84BE84" rx="3.125" ry="3.125" style="stroke:#038048;stroke-width:1.0416666666666667;"/><text fill="#D8BC00" font-family="Open Sans,Avenir,Nunito,Arial,Helvetica,SansSerif" font-size="11.4583" lengthAdjust="spacing" textLength="73.9583" x="178.6458" y="558.5754">S3File(String)</text><line style="stroke:#5E5E5E;stroke-width:1.0416666666666667;" x1="156.7708" x2="213.0208" y1="514.7552" y2="514.7552"/><text fill="#D8BC00" font-family="Open Sans,Avenir,Nunito,Arial,Helvetica,SansSerif" font-size="11.4583" lengthAdjust="spacing" textLength="81.25" x="216.1458" y="518.5649">(constructors)</text><line style="stroke:#5E5E5E;stroke-width:1.0416666666666667;" x1="300.5208" x2="356.7708" y1="514.7552" y2="514.7552"/><ellipse cx="167.1875" cy="595.3206" fill="#84BE84" rx="3.125" ry="3.125" style="stroke:#038048;stroke-width:1.0416666666666667;"/><text fill="#D8BC00" font-family="Open Sans,Avenir,Nunito,Arial,Helvetica,SansSerif" font-size="11.4583" lengthAdjust="spacing" textLength="169.7917" x="178.6458" y="602.2319">boolean renameTo(S3File that)</text><line style="stroke:#5E5E5E;stroke-width:1.0416666666666667;" x1="156.7708" x2="221.3542" y1="578.1565" y2="578.1565"/><text fill="#D8BC00" font-family="Open Sans,Avenir,Nunito,Arial,Helvetica,SansSerif" font-size="11.4583" lengthAdjust="spacing" textLength="64.5833" x="224.4792" y="581.9661">(filesystem)</text><line style="stroke:#5E5E5E;stroke-width:1.0416666666666667;" x1="292.1875" x2="356.7708" y1="578.1565" y2="578.1565"/><ellipse cx="167.1875" cy="638.9771" fill="#84BE84" rx="3.125" ry="3.125" style="stroke:#038048;stroke-width:1.0416666666666667;"/><text fill="#D8BC00" font-family="Open Sans,Avenir,Nunito,Arial,Helvetica,SansSerif" font-size="11.4583" lengthAdjust="spacing" textLength="118.75" x="178.6458" y="645.8883">void write(String line)</text><line style="stroke:#5E5E5E;stroke-width:1.0416666666666667;" x1="156.7708" x2="235.9375" y1="621.8129" y2="621.8129"/><text fill="#D8BC00" font-family="Open Sans,Avenir,Nunito,Arial,Helvetica,SansSerif" font-size="11.4583" lengthAdjust="spacing" textLength="35.4167" x="239.0625" y="625.6226">(write)</text><line style="stroke:#5E5E5E;stroke-width:1.0416666666666667;" x1="277.6042" x2="356.7708" y1="621.8129" y2="621.8129"/><!--MD5=[d6d454f97b7234abf01b8feae3c53655]
class S3FileSystemService--><rect codeLine="43" fill="#282828" height="103.123" id="S3FileSystemService" rx="8.3333" ry="8.3333" style="stroke:#5E5E5E;stroke-width:1.0416666666666667;" width="215.625" x="148.9583" y="220.8903"/><rect fill="#1B1B1A" height="31.3883" rx="8.3333" ry="8.3333" style="stroke:#1B1B1A;stroke-width:1.0416666666666667;" width="215.625" x="148.9583" y="220.8903"/><rect fill="#1B1B1A" height="8.3333" style="stroke:#1B1B1A;stroke-width:1.0416666666666667;" width="215.625" x="148.9583" y="243.9453"/><rect codeLine="43" fill="none" height="103.123" id="S3FileSystemService" rx="8.3333" ry="8.3333" style="stroke:#5E5E5E;stroke-width:1.0416666666666667;" width="215.625" x="148.9583" y="220.8903"/><ellipse cx="185.1042" cy="236.5845" fill="#0066CF" rx="10.4167" ry="10.4167" style="stroke:#0086EF;stroke-width:1.0416666666666667;"/><path d="M187.0146,241.0095 Q186.5873,241.2292 186.1174,241.3391 Q185.6474,241.449 185.1286,241.449 Q183.2853,241.449 182.3149,240.2344 Q181.3444,239.0198 181.3444,236.7249 Q181.3444,234.4238 182.3149,233.2092 Q183.2853,231.9946 185.1286,231.9946 Q185.6474,231.9946 186.1235,232.1045 Q186.5995,232.2144 187.0146,232.4341 L187.0146,234.436 Q186.5507,234.0088 186.1143,233.8104 Q185.6779,233.6121 185.214,233.6121 Q184.2253,233.6121 183.7217,234.3964 Q183.2182,235.1807 183.2182,236.7249 Q183.2182,238.2629 183.7217,239.0472 Q184.2253,239.8315 185.214,239.8315 Q185.6779,239.8315 186.1143,239.6332 Q186.5507,239.4348 187.0146,239.0076 Z " fill="#000000"/><text fill="#D8BC00" font-family="Open Sans,Avenir,Nunito,Arial,Helvetica,SansSerif" font-size="12.5" font-weight="bold" lengthAdjust="spacing" textLength="130.2083" x="206.5625" y="241.3086">S3FileSystemService</text><line style="stroke:#5E5E5E;stroke-width:1.5625;" x1="150" x2="363.5417" y1="252.2786" y2="252.2786"/><ellipse cx="160.4167" cy="287.6485" fill="#84BE84" rx="3.125" ry="3.125" style="stroke:#038048;stroke-width:1.0416666666666667;"/><text fill="#D8BC00" font-family="Open Sans,Avenir,Nunito,Arial,Helvetica,SansSerif" font-size="11.4583" lengthAdjust="spacing" textLength="150" x="171.875" y="294.5597">^S3File fileService(FilePath)</text><ellipse cx="160.4167" cy="307.3934" fill="#84BE84" rx="3.125" ry="3.125" style="stroke:#038048;stroke-width:1.0416666666666667;"/><text fill="#D8BC00" font-family="Open Sans,Avenir,Nunito,Arial,Helvetica,SansSerif" font-size="11.4583" lengthAdjust="spacing" textLength="183.3333" x="171.875" y="314.3046">^S3Folder folderService(FilePath)</text><line style="stroke:#5E5E5E;stroke-width:1.0416666666666667;" x1="150" x2="221.3542" y1="270.4844" y2="270.4844"/><text fill="#D8BC00" font-family="Open Sans,Avenir,Nunito,Arial,Helvetica,SansSerif" font-size="11.4583" lengthAdjust="spacing" textLength="64.5833" x="224.4792" y="274.294">(filesystem)</text><line style="stroke:#5E5E5E;stroke-width:1.0416666666666667;" x1="292.1875" x2="363.5417" y1="270.4844" y2="270.4844"/><!--MD5=[5a27776e636b1cfbd9d4a0aa097bdf86]
class S3Folder--><rect codeLine="52" fill="#282828" height="186.2691" id="S3Folder" rx="8.3333" ry="8.3333" style="stroke:#5E5E5E;stroke-width:1.0416666666666667;" width="218.75" x="497.3958" y="467.2445"/><rect fill="#1B1B1A" height="31.3883" rx="8.3333" ry="8.3333" style="stroke:#1B1B1A;stroke-width:1.0416666666666667;" width="218.75" x="497.3958" y="467.2445"/><rect fill="#1B1B1A" height="8.3333" style="stroke:#1B1B1A;stroke-width:1.0416666666666667;" width="218.75" x="497.3958" y="490.2995"/><rect codeLine="52" fill="none" height="186.2691" id="S3Folder" rx="8.3333" ry="8.3333" style="stroke:#5E5E5E;stroke-width:1.0416666666666667;" width="218.75" x="497.3958" y="467.2445"/><ellipse cx="571.3542" cy="482.9386" fill="#0066CF" rx="10.4167" ry="10.4167" style="stroke:#0086EF;stroke-width:1.0416666666666667;"/><path d="M573.2646,487.3637 Q572.8373,487.5834 572.3674,487.6933 Q571.8974,487.8031 571.3786,487.8031 Q569.5353,487.8031 568.5649,486.5885 Q567.5944,485.3739 567.5944,483.079 Q567.5944,480.778 568.5649,479.5634 Q569.5353,478.3488 571.3786,478.3488 Q571.8974,478.3488 572.3735,478.4587 Q572.8495,478.5685 573.2646,478.7882 L573.2646,480.7902 Q572.8007,480.363 572.3643,480.1646 Q571.9279,479.9662 571.464,479.9662 Q570.4753,479.9662 569.9717,480.7505 Q569.4682,481.5348 569.4682,483.079 Q569.4682,484.6171 569.9717,485.4014 Q570.4753,486.1857 571.464,486.1857 Q571.9279,486.1857 572.3643,485.9873 Q572.8007,485.789 573.2646,485.3617 Z " fill="#000000"/><text fill="#D8BC00" font-family="Open Sans,Avenir,Nunito,Arial,Helvetica,SansSerif" font-size="12.5" font-weight="bold" lengthAdjust="spacing" textLength="56.25" x="594.2708" y="487.6628">S3Folder</text><line style="stroke:#5E5E5E;stroke-width:1.5625;" x1="498.4375" x2="715.1042" y1="498.6328" y2="498.6328"/><ellipse cx="508.8542" cy="534.0027" fill="#84BE84" rx="3.125" ry="3.125" style="stroke:#038048;stroke-width:1.0416666666666667;"/><text fill="#D8BC00" font-family="Open Sans,Avenir,Nunito,Arial,Helvetica,SansSerif" font-size="11.4583" lengthAdjust="spacing" textLength="100" x="520.3125" y="540.9139">S3Folder(FilePath)</text><ellipse cx="508.8542" cy="553.7476" fill="#84BE84" rx="3.125" ry="3.125" style="stroke:#038048;stroke-width:1.0416666666666667;"/><text fill="#D8BC00" font-family="Open Sans,Avenir,Nunito,Arial,Helvetica,SansSerif" font-size="11.4583" lengthAdjust="spacing" textLength="90.625" x="520.3125" y="560.6588">S3Folder(String)</text><line style="stroke:#5E5E5E;stroke-width:1.0416666666666667;" x1="498.4375" x2="563.0208" y1="516.8386" y2="516.8386"/><text fill="#D8BC00" font-family="Open Sans,Avenir,Nunito,Arial,Helvetica,SansSerif" font-size="11.4583" lengthAdjust="spacing" textLength="81.25" x="566.1458" y="520.6482">(constructors)</text><line style="stroke:#5E5E5E;stroke-width:1.0416666666666667;" x1="650.5208" x2="715.1042" y1="516.8386" y2="516.8386"/><ellipse cx="508.8542" cy="597.404" fill="#84BE84" rx="3.125" ry="3.125" style="stroke:#038048;stroke-width:1.0416666666666667;"/><text fill="#D8BC00" font-family="Open Sans,Avenir,Nunito,Arial,Helvetica,SansSerif" font-size="11.4583" lengthAdjust="spacing" textLength="101.0417" x="520.3125" y="604.3152">boolean hasFiles()</text><ellipse cx="508.8542" cy="617.1488" fill="#84BE84" rx="3.125" ry="3.125" style="stroke:#038048;stroke-width:1.0416666666666667;"/><text fill="#D8BC00" font-family="Open Sans,Avenir,Nunito,Arial,Helvetica,SansSerif" font-size="11.4583" lengthAdjust="spacing" textLength="138.5417" x="520.3125" y="624.0601">boolean hasSubFolders()</text><ellipse cx="508.8542" cy="636.8937" fill="#84BE84" rx="3.125" ry="3.125" style="stroke:#038048;stroke-width:1.0416666666666667;"/><text fill="#D8BC00" font-family="Open Sans,Avenir,Nunito,Arial,Helvetica,SansSerif" font-size="11.4583" lengthAdjust="spacing" textLength="186.4583" x="520.3125" y="643.8049">boolean renameTo(S3Folder that)</text><line style="stroke:#5E5E5E;stroke-width:1.0416666666666667;" x1="498.4375" x2="571.3542" y1="580.2399" y2="580.2399"/><text fill="#D8BC00" font-family="Open Sans,Avenir,Nunito,Arial,Helvetica,SansSerif" font-size="11.4583" lengthAdjust="spacing" textLength="64.5833" x="574.4792" y="584.0495">(filesystem)</text><line style="stroke:#5E5E5E;stroke-width:1.0416666666666667;" x1="642.1875" x2="715.1042" y1="580.2399" y2="580.2399"/><!--MD5=[7bbb52a41c2cc5ef02fc7d2df424942c]
reverse link S3FileSystemObject to S3File--><path codeLine="13" d="M528.1771,396.5049 C516.9688,409.932 504.8958,422.7549 492.1875,433.9111 C452.7604,468.5049 402.1458,497.057 357.9583,518.1403 " fill="none" id="S3FileSystemObject-backto-S3File" style="stroke:#545454;stroke-width:1.5625;"/><polygon fill="none" points="522.7292,391.6403,541.4063,379.8799,534.1354,400.7236,522.7292,391.6403" style="stroke:#545454;stroke-width:1.5625;"/><!--MD5=[f76195f32b4ac449c76c91bc886a0c03]
reverse link FileService to S3File--><path codeLine="14" d="M86.7604,314.2861 C99.9063,334.109 116.0313,358.2549 130.7292,379.7445 C149.7708,407.5778 170.7083,437.6403 189.9583,465.0674 " fill="none" id="FileService-backto-S3File" style="stroke:#545454;stroke-width:1.5625;"/><polygon fill="none" points="80.625,318.2132,75.2188,296.8174,92.7813,310.1715,80.625,318.2132" style="stroke:#545454;stroke-width:1.5625;"/><!--MD5=[eb60f0960d7c68a6efd508a9c60fbfe5]
reverse link BaseWritableResource to S3FileSystemObject--><path codeLine="26" d="M549.3333,121.7549 C554.3229,134.7445 560.0313,149.6195 565.875,164.8382 " fill="none" id="BaseWritableResource-backto-S3FileSystemObject" style="stroke:#545454;stroke-width:1.5625;"/><polygon fill="none" points="542.3958,124.0153,541.7292,101.9528,556.0104,118.7861,542.3958,124.0153" style="stroke:#545454;stroke-width:1.5625;"/><!--MD5=[ceaecc43979cd7ee74eea303bfc84a19]
reverse link FileSystemObjectService to S3FileSystemObject--><path codeLine="27" d="M724.9896,118.4736 C714.3646,132.2132 701.9167,148.3278 689.1458,164.8382 " fill="none" id="FileSystemObjectService-backto-S3FileSystemObject" style="stroke:#545454;stroke-width:1.5625;"/><polygon fill="none" points="719.25,113.9736,737.7604,101.9528,730.7917,122.8903,719.25,113.9736" style="stroke:#545454;stroke-width:1.5625;"/><!--MD5=[ee08872f16e59fcf4b7c391052eb9463]
reverse link FileSystemService to S3FileSystemService--><path codeLine="40" d="M256.7708,123.0257 C256.7708,152.1403 256.7708,190.2965 256.7708,220.6299 " fill="none" id="FileSystemService-backto-S3FileSystemService" style="stroke:#545454;stroke-width:1.5625;"/><polygon fill="none" points="249.4792,122.7861,256.7708,101.9528,264.0625,122.7861,249.4792,122.7861" style="stroke:#545454;stroke-width:1.5625;"/><!--MD5=[5a19b0239772cfd9b3cb770ad4f05bb9]
link S3FileSystemService to S3File--><path codeLine="41" d="M256.7708,324.2861 C256.7708,361.7549 256.7708,413.9632 256.7708,459.6611 " fill="none" id="S3FileSystemService-to-S3File" style="stroke:#545454;stroke-width:1.5625;"/><polygon fill="#545454" points="256.7708,464.9111,260.9375,455.5361,256.7708,459.7028,252.6042,455.5361,256.7708,464.9111" style="stroke:#545454;stroke-width:1.5625;"/><text fill="#A0A0A0" font-family="Open Sans,Avenir,Nunito,Arial,Helvetica,SansSerif" font-size="12.5" font-weight="bold" lengthAdjust="spacing" textLength="56.25" x="260.9375" y="427.2461">provides</text><!--MD5=[95a65a5c1304b794dc980f78fc3e0030]
link S3FileSystemService to S3Folder--><path codeLine="42" d="M316.1458,324.057 C337.125,341.7757 360.9271,361.7445 382.8125,379.7445 C418.4167,409.0361 457.5313,440.609 492.9688,469.0049 " fill="none" id="S3FileSystemService-to-S3Folder" style="stroke:#545454;stroke-width:1.5625;"/><polygon fill="#545454" points="497.2708,472.4528,492.5449,463.3469,493.2009,469.2028,487.345,469.8588,497.2708,472.4528" style="stroke:#545454;stroke-width:1.5625;"/><text fill="#A0A0A0" font-family="Open Sans,Avenir,Nunito,Arial,Helvetica,SansSerif" font-size="12.5" font-weight="bold" lengthAdjust="spacing" textLength="56.25" x="448.4375" y="427.2461">provides</text><!--MD5=[6fdbc68e806466f627f0067f3cf1f25e]
reverse link S3FileSystemObject to S3Folder--><path codeLine="50" d="M606.7708,401.0257 C606.7708,423.234 606.7708,445.932 606.7708,466.9632 " fill="none" id="S3FileSystemObject-backto-S3Folder" style="stroke:#545454;stroke-width:1.5625;"/><polygon fill="none" points="599.4792,400.7965,606.7708,379.9632,614.0625,400.7965,599.4792,400.7965" style="stroke:#545454;stroke-width:1.5625;"/><!--MD5=[cb6a2d0ce771b8a6dc09aa50fdb135f9]
reverse link FolderService to S3Folder--><path codeLine="51" d="M883.1771,314.2757 C868.7917,334.8903 850.0521,359.7236 830.7292,379.7445 C796.1146,415.6195 754.375,450.8799 716.3438,480.5465 " fill="none" id="FolderService-backto-S3Folder" style="stroke:#545454;stroke-width:1.5625;"/><polygon fill="none" points="877.3229,309.9215,895.0729,296.7861,889.3854,318.1195,877.3229,309.9215" style="stroke:#545454;stroke-width:1.5625;"/><!--MD5=[418f560d84bcfb6bedb95633332cbc23]
@startuml

    !include ../lexakai/lexakai.theme
    
    title "S3 Service Provider"
    
    abstract BaseWritableResource
    
    interface FileSystemService
    interface FileSystemObjectService
    interface FileService
    interface FolderService
    
    S3FileSystemObject <|- - S3File
    FileService <|- - S3File
    class S3File
    {
        - -(constructors)- -
        +S3File(FilePath)
        +S3File(String)
        - -(filesystem)- -
        +boolean renameTo(S3File that)
        - -(write)- -
        +void write(String line)
    }
    
    BaseWritableResource <|- - S3FileSystemObject
    FileSystemObjectService <|- - S3FileSystemObject
    abstract class S3FileSystemObject
    {
        - -(collection)- -
        #ListObjectsRequest listRequest(String bucketName, String keyName)
        - -(filesystem)- -
        #FilePath path(String scheme, String bucketName, String keyName)
        - -(filtering)- -
        +boolean accepts(String path)
        - -(naming)- -
        +String name()
    }
    
    FileSystemService <|- - S3FileSystemService
    S3FileSystemService - -> S3File : "provides"
    S3FileSystemService - -> S3Folder : "provides"
    class S3FileSystemService
    {
        - -(filesystem)- -
        +^S3File fileService(FilePath)
        +^S3Folder folderService(FilePath)
    }
    
    S3FileSystemObject <|- - S3Folder
    FolderService <|- - S3Folder
    class S3Folder
    {
        - -(constructors)- -
        +S3Folder(FilePath)
        +S3Folder(String)
        - -(filesystem)- -
        +boolean hasFiles()
        +boolean hasSubFolders()
        +boolean renameTo(S3Folder that)
    }
    
@enduml

@startuml









skinparam backgroundColor #333333






skinparam  {
    defaultFontName   "Open Sans,Avenir,Nunito,Arial,Helvetica,SansSerif"
    defaultFontSize   12
    defaultTextAlignment left
    shadowing false
    RoundCorner 10
    TitleFontSize 18
}

skinparam defaultFontName       "Open Sans,Avenir,Nunito,Arial,Helvetica,SansSerif"
skinparam defaultFontSize       12
skinparam dpi                   100
skinparam shadowing             false
skinparam roundcorner           16
skinparam ParticipantPadding    40
skinparam BoxPadding            40
skinparam Padding               3
skinparam ArrowColor            #545454
skinparam stereotype {
    CBackgroundColor #0066cf
    CBorderColor #0086ef
    ABackgroundColor #C8Ac00
    ABorderColor #D8Bc00
    IBackgroundColor #008400
    IBorderColor #239c23
    EBackgroundColor #cf6300
    EBorderColor #ef8300
    NBackgroundColor #3380b9
    NBorderColor #004d86
}
skinparam title {
	FontColor	                 #c0c0c0
 	BorderColor                  #545454
	FontSize	    	         20
	BorderRoundCorner            16
	BorderThickness 	         1
	BackgroundColor              #48494b
}


skinparam legend {
	BackgroundColor #303030
	BorderColor #404040
	FontColor #a0a0a0
}

	skinparam swimlane {
	BorderColor #5e5e5e
	BorderThickness 2
	TitleBackgroundColor  #6d6d6d-#484848
	TitleFontColor #303030
}

skinparam activity {
		FontColor #C8Ac00
	BorderColor #333333
	BackgroundColor #333333-#333333
	BarColor #00FF00
	StartColor #0060a8
	EndColor #0060a8
	DiamondBackgroundColor #6d6d6d-#3a3a3a
  	DiamondBorderColor #3a3a3a
  	DiamondFontColor #fefefe
}


skinparam participant {
		FontColor #C8Ac00
	BorderColor #333333
	BackgroundColor #333333-#333333
	ParticipantBorderThickness 2
}


skinparam actor {
		FontColor #C8Ac00
	BorderColor #333333
	BackgroundColor #333333-#333333
}


skinparam arrow {
	Thickness 1.5
	Color #545454
	FontColor #a0a0a0
    FontStyle bold
    MessageAlignment center
}



skinparam sequence {
	BorderColor #303030
	TitleFontColor #303030
	BackgroundColor #333333
	StartColor #303030
	EndColor #303030
	BoxBackgroundColor #333333
	BoxBorderColor #484848
	BoxFontColor #484848
	LifeLineBorderColor #484848
	LifeLineBorderThickness 2
	LifeLineBackgroundColor #3a3a3a
	GroupBorderColor #484848
	GroupFontColor #484848
	GroupHeaderFontColor #0060a8
	GroupBackgroundColor #484848
	GroupHeaderBackgroundColor #333333
	DividerBackgroundColor #484848
    DividerBorderColor #484848
    DividerBorderThickness 2
    DividerFontColor #D8Bc00
	ReferenceBackgroundColor #333333
	ReferenceBorderColor #484848
	ReferenceFontColor #fefefe
	ReferenceHeaderBackgroundColor #484848
}


skinparam partition {
	BorderColor #303030
	FontColor #333333
	BackgroundColor #333333
}


skinparam collections {
		FontColor #C8Ac00
	BorderColor #333333
	BackgroundColor #333333-#333333
}


skinparam control {
		FontColor #C8Ac00
	BorderColor #333333
	BackgroundColor #333333-#333333
}


skinparam entity {
		FontColor #C8Ac00
	BorderColor #333333
	BackgroundColor #333333-#333333
}


skinparam boundary {
		FontColor #C8Ac00
	BorderColor #333333
	BackgroundColor #333333-#333333
}


skinparam agent {
	BackgroundColor #ff8000
	BorderColor #ff9933
	FontColor #484848
}


skinparam note {
	BorderThickness 1
	BackgroundColor #1b1b1a
	BorderColor #5e5e5e
	FontSize 11
	FontColor #a0a0a0
}


skinparam artifact {
	BorderThickness 10
	BorderColor #5e5e5e
	BackgroundColor #1b1b1a
	FontColor #D8Bc00
}


skinparam component {
		FontColor #C8Ac00
	BorderColor #333333
	BackgroundColor #333333-#333333
}


skinparam interface {
	BackgroundColor  #008400
	BorderColor  #007F00
	FontColor #484848
}


skinparam storage {
	BackgroundColor #ff8000
  	BorderColor #cc6600
	FontColor #222222
}


skinparam node {
	BackgroundColor #333333
	BorderColor #333333
	FontColor #C8Ac00
}


skinparam cloud {
	BackgroundColor #484848-black
	BorderColor #484848
	FontColor #D8Bc00
}


skinparam database {
		FontColor #C8Ac00
	BorderColor #333333
	BackgroundColor #333333-#333333
	BackgroundColor  #333333
}


skinparam class {
		FontColor #C8Ac00
	BorderColor #333333
	BackgroundColor #333333-#333333
	HeaderBackgroundColor #1b1b1a
    BackgroundColor #282828
    BorderColor #5e5e5e
 	StereotypeFontColor #a0a0a0
    StereotypeFontStyle bold
	BorderThickness 1
	AttributeFontColor #D8Bc00
	AttributeFontSize 11
    FontColor #D8Bc00
    FontStyle bold
}


skinparam object {
		FontColor #C8Ac00
	BorderColor #333333
	BackgroundColor #333333-#333333
	StereotypeFontColor #484848
	BorderThickness 1
	AttributeFontColor #fefefe
	AttributeFontSize 11
}


skinparam usecase {
		FontColor #C8Ac00
	BorderColor #333333
	BackgroundColor #333333-#333333
	BorderThickness 2
	StereotypeFontColor #303030
}


skinparam rectangle {
		FontColor #C8Ac00
	BorderColor #333333
	BackgroundColor #333333-#333333
	BackgroundColor #333333
	BorderThickness 2
	StereotypeFontColor #303030
}


skinparam package {
		FontColor #C8Ac00
	BorderColor #333333
	BackgroundColor #333333-#333333
	BackgroundColor #333333
	BorderThickness 2
}


skinparam folder {
	BackgroundColor #6d6d6d
  	BorderColor #ff8000
	FontColor #ff8000
	BorderThickness 2
}


skinparam frame {
	BackgroundColor #6d6d6d
  	BorderColor #0060a8
	FontColor #0060a8
	BorderThickness 2
}


skinparam state {
		FontColor #C8Ac00
	BorderColor #333333
	BackgroundColor #333333-#333333
	StartColor #0060a8
	EndColor #0060a8
	AttributeFontColor #fefefe
	AttributeFontSize 11
}


skinparam queue {
		FontColor #C8Ac00
	BorderColor #333333
	BackgroundColor #333333-#333333
}


skinparam card {
	BackgroundColor #0060a8
	BorderColor #004d86
	FontColor $INFO_TEXT
}


skinparam file {
	BackgroundColor #6d6d6d-#484848
	BorderColor #0060a8
	FontColor #fefefe
}


skinparam stack {
		FontColor #C8Ac00
	BorderColor #333333
	BackgroundColor #333333-#333333
}

    
    title "S3 Service Provider"
    
    abstract BaseWritableResource
    
    interface FileSystemService
    interface FileSystemObjectService
    interface FileService
    interface FolderService
    
    S3FileSystemObject <|- - S3File
    FileService <|- - S3File
    class S3File
    {
        - -(constructors)- -
        +S3File(FilePath)
        +S3File(String)
        - -(filesystem)- -
        +boolean renameTo(S3File that)
        - -(write)- -
        +void write(String line)
    }
    
    BaseWritableResource <|- - S3FileSystemObject
    FileSystemObjectService <|- - S3FileSystemObject
    abstract class S3FileSystemObject
    {
        - -(collection)- -
        #ListObjectsRequest listRequest(String bucketName, String keyName)
        - -(filesystem)- -
        #FilePath path(String scheme, String bucketName, String keyName)
        - -(filtering)- -
        +boolean accepts(String path)
        - -(naming)- -
        +String name()
    }
    
    FileSystemService <|- - S3FileSystemService
    S3FileSystemService - -> S3File : "provides"
    S3FileSystemService - -> S3Folder : "provides"
    class S3FileSystemService
    {
        - -(filesystem)- -
        +^S3File fileService(FilePath)
        +^S3Folder folderService(FilePath)
    }
    
    S3FileSystemObject <|- - S3Folder
    FolderService <|- - S3Folder
    class S3Folder
    {
        - -(constructors)- -
        +S3Folder(FilePath)
        +S3Folder(String)
        - -(filesystem)- -
        +boolean hasFiles()
        +boolean hasSubFolders()
        +boolean renameTo(S3Folder that)
    }
    
@enduml

PlantUML version 1.2021.01(Tue Feb 02 00:55:08 MST 2021)
(GPL source distribution)
Java Runtime: Java(TM) SE Runtime Environment
JVM: Java HotSpot(TM) 64-Bit Server VM
Default Encoding: UTF-8
Language: en
Country: US
--></g></svg>