<?xml version="1.0" encoding="UTF-8" standalone="no"?><svg xmlns="http://www.w3.org/2000/svg" xmlns:xlink="http://www.w3.org/1999/xlink" contentScriptType="application/ecmascript" contentStyleType="text/css" height="851.0417px" preserveAspectRatio="none" style="width:825px;height:851px;background:#333333;" version="1.1" viewBox="0 0 825 851" width="825px" zoomAndPan="magnify"><defs/><g><rect fill="#48494B" height="41.2028" rx="8.3333" ry="8.3333" style="stroke:#545454;stroke-width:1.0416666666666667;" width="432.2917" x="189.3229" y="2.0833"/><text fill="#C0C0C0" font-family="Open Sans,Avenir,Nunito,Arial,Helvetica,SansSerif" font-size="20.8333" lengthAdjust="spacing" textLength="409.375" x="200.7813" y="30.5583">com.telenav.kivakit.service.registry.client</text><!--MD5=[d6b118b97ce1561c4fb44eead7829b01]
cluster Provider--><polygon fill="#333333" points="485.4167,739.1195,551.0417,739.1195,558.3333,766.3411,602.0833,766.3411,602.0833,844.3278,485.4167,844.3278,485.4167,739.1195" style="stroke:#333333;stroke-width:2.0833333333333335;"/><line style="stroke:#333333;stroke-width:2.0833333333333335;" x1="485.4167" x2="558.3333" y1="766.3411" y2="766.3411"/><text fill="#C8AC00" font-family="Open Sans,Avenir,Nunito,Arial,Helvetica,SansSerif" font-size="12.5" font-weight="bold" lengthAdjust="spacing" textLength="53.125" x="492.7083" y="756.4128">Provider</text><!--MD5=[19388a8ba099dadf46c4299df5d61481]
class Provider.Service--><rect fill="#282828" height="48.055" id="Provider.Service" rx="8.3333" ry="8.3333" style="stroke:#5E5E5E;stroke-width:1.0416666666666667;" width="82.2917" x="502.6042" y="779.7445"/><rect fill="#1B1B1A" height="31.3883" rx="8.3333" ry="8.3333" style="stroke:#1B1B1A;stroke-width:1.0416666666666667;" width="82.2917" x="502.6042" y="779.7445"/><rect fill="#1B1B1A" height="8.3333" style="stroke:#1B1B1A;stroke-width:1.0416666666666667;" width="82.2917" x="502.6042" y="802.7995"/><rect fill="none" height="48.055" id="Provider.Service" rx="8.3333" ry="8.3333" style="stroke:#5E5E5E;stroke-width:1.0416666666666667;" width="82.2917" x="502.6042" y="779.7445"/><ellipse cx="517.1875" cy="795.4386" fill="#0066CF" rx="10.4167" ry="10.4167" style="stroke:#0086EF;stroke-width:1.0416666666666667;"/><path d="M519.0979,799.8637 Q518.6707,800.0834 518.2007,800.1933 Q517.7307,800.3031 517.2119,800.3031 Q515.3687,800.3031 514.3982,799.0885 Q513.4277,797.8739 513.4277,795.579 Q513.4277,793.278 514.3982,792.0634 Q515.3687,790.8488 517.2119,790.8488 Q517.7307,790.8488 518.2068,790.9587 Q518.6829,791.0685 519.0979,791.2882 L519.0979,793.2902 Q518.634,792.863 518.1976,792.6646 Q517.7612,792.4662 517.2974,792.4662 Q516.3086,792.4662 515.8051,793.2505 Q515.3015,794.0348 515.3015,795.579 Q515.3015,797.1171 515.8051,797.9014 Q516.3086,798.6857 517.2974,798.6857 Q517.7612,798.6857 518.1976,798.4873 Q518.634,798.289 519.0979,797.8617 Z " fill="#000000"/><text fill="#D8BC00" font-family="Open Sans,Avenir,Nunito,Arial,Helvetica,SansSerif" font-size="12.5" font-weight="bold" lengthAdjust="spacing" textLength="44.7917" x="533.8542" y="800.1628">Service</text><line style="stroke:#5E5E5E;stroke-width:1.0416666666666667;" x1="503.6458" x2="583.8542" y1="811.1328" y2="811.1328"/><line style="stroke:#5E5E5E;stroke-width:1.0416666666666667;" x1="503.6458" x2="583.8542" y1="819.4661" y2="819.4661"/><!--MD5=[762aa3d0df6a9d47bd8e105afbd066b5]
class BaseRepeater--><rect codeLine="6" fill="#282828" height="48.055" id="BaseRepeater" rx="8.3333" ry="8.3333" style="stroke:#5E5E5E;stroke-width:1.0416666666666667;" width="123.9583" x="273.4375" y="117.2445"/><rect fill="#1B1B1A" height="31.3883" rx="8.3333" ry="8.3333" style="stroke:#1B1B1A;stroke-width:1.0416666666666667;" width="123.9583" x="273.4375" y="117.2445"/><rect fill="#1B1B1A" height="8.3333" style="stroke:#1B1B1A;stroke-width:1.0416666666666667;" width="123.9583" x="273.4375" y="140.2995"/><rect codeLine="6" fill="none" height="48.055" id="BaseRepeater" rx="8.3333" ry="8.3333" style="stroke:#5E5E5E;stroke-width:1.0416666666666667;" width="123.9583" x="273.4375" y="117.2445"/><ellipse cx="288.0208" cy="132.9386" fill="#C8AC00" rx="10.4167" ry="10.4167" style="stroke:#D8BC00;stroke-width:1.0416666666666667;"/><path d="M288.1348,129.6407 L287.2864,133.37 L288.9893,133.37 Z M287.0361,127.9928 L289.2395,127.9928 L291.6992,137.1053 L289.8987,137.1053 L289.3372,134.8531 L286.9263,134.8531 L286.377,137.1053 L284.5764,137.1053 Z " fill="#000000"/><text fill="#D8BC00" font-family="Open Sans,Avenir,Nunito,Arial,Helvetica,SansSerif" font-size="12.5" font-style="italic" font-weight="bold" lengthAdjust="spacing" textLength="86.4583" x="304.6875" y="137.6628">BaseRepeater</text><line style="stroke:#5E5E5E;stroke-width:1.0416666666666667;" x1="274.4792" x2="396.3542" y1="148.6328" y2="148.6328"/><line style="stroke:#5E5E5E;stroke-width:1.0416666666666667;" x1="274.4792" x2="396.3542" y1="156.9661" y2="156.9661"/><!--MD5=[f66a573746572471d3a5c21444068a31]
class ServiceRegistryClient--><rect codeLine="13" fill="#282828" height="376.473" id="ServiceRegistryClient" rx="8.3333" ry="8.3333" style="stroke:#5E5E5E;stroke-width:1.0416666666666667;" width="491.6667" x="89.5833" y="292.2445"/><rect fill="#1B1B1A" height="31.3883" rx="8.3333" ry="8.3333" style="stroke:#1B1B1A;stroke-width:1.0416666666666667;" width="491.6667" x="89.5833" y="292.2445"/><rect fill="#1B1B1A" height="8.3333" style="stroke:#1B1B1A;stroke-width:1.0416666666666667;" width="491.6667" x="89.5833" y="315.2995"/><rect codeLine="13" fill="none" height="376.473" id="ServiceRegistryClient" rx="8.3333" ry="8.3333" style="stroke:#5E5E5E;stroke-width:1.0416666666666667;" width="491.6667" x="89.5833" y="292.2445"/><ellipse cx="259.8958" cy="307.9386" fill="#0066CF" rx="10.4167" ry="10.4167" style="stroke:#0086EF;stroke-width:1.0416666666666667;"/><path d="M261.8062,312.3637 Q261.379,312.5834 260.909,312.6933 Q260.439,312.8031 259.9202,312.8031 Q258.077,312.8031 257.1065,311.5885 Q256.1361,310.3739 256.1361,308.079 Q256.1361,305.778 257.1065,304.5634 Q258.077,303.3488 259.9202,303.3488 Q260.439,303.3488 260.9151,303.4587 Q261.3912,303.5685 261.8062,303.7882 L261.8062,305.7902 Q261.3424,305.363 260.906,305.1646 Q260.4696,304.9662 260.0057,304.9662 Q259.0169,304.9662 258.5134,305.7505 Q258.0098,306.5348 258.0098,308.079 Q258.0098,309.6171 258.5134,310.4014 Q259.0169,311.1857 260.0057,311.1857 Q260.4696,311.1857 260.906,310.9873 Q261.3424,310.789 261.8062,310.3617 Z " fill="#000000"/><text fill="#D8BC00" font-family="Open Sans,Avenir,Nunito,Arial,Helvetica,SansSerif" font-size="12.5" font-weight="bold" lengthAdjust="spacing" textLength="136.4583" x="282.8125" y="312.6628">ServiceRegistryClient</text><line style="stroke:#5E5E5E;stroke-width:1.5625;" x1="90.625" x2="580.2083" y1="323.6328" y2="323.6328"/><ellipse cx="101.0417" cy="359.0027" fill="#84BE84" rx="3.125" ry="3.125" style="stroke:#038048;stroke-width:1.0416666666666667;"/><text fill="#D8BC00" font-family="Open Sans,Avenir,Nunito,Arial,Helvetica,SansSerif" font-size="11.4583" lengthAdjust="spacing" textLength="126.0417" x="112.5" y="365.9139">ServiceRegistryClient()</text><line style="stroke:#5E5E5E;stroke-width:1.0416666666666667;" x1="90.625" x2="291.6667" y1="341.8386" y2="341.8386"/><text fill="#D8BC00" font-family="Open Sans,Avenir,Nunito,Arial,Helvetica,SansSerif" font-size="11.4583" lengthAdjust="spacing" textLength="81.25" x="294.7917" y="345.6482">(constructors)</text><line style="stroke:#5E5E5E;stroke-width:1.0416666666666667;" x1="379.1667" x2="580.2083" y1="341.8386" y2="341.8386"/><ellipse cx="101.0417" cy="402.6591" fill="#84BE84" rx="3.125" ry="3.125" style="stroke:#038048;stroke-width:1.0416666666666667;"/><text fill="#D8BC00" font-family="Open Sans,Avenir,Nunito,Arial,Helvetica,SansSerif" font-size="11.4583" lengthAdjust="spacing" textLength="95.8333" x="112.5" y="409.5703">Version version()</text><line style="stroke:#5E5E5E;stroke-width:1.0416666666666667;" x1="90.625" x2="307.2917" y1="385.495" y2="385.495"/><text fill="#D8BC00" font-family="Open Sans,Avenir,Nunito,Arial,Helvetica,SansSerif" font-size="11.4583" lengthAdjust="spacing" textLength="50" x="310.4167" y="389.3046">(identity)</text><line style="stroke:#5E5E5E;stroke-width:1.0416666666666667;" x1="363.5417" x2="580.2083" y1="385.495" y2="385.495"/><ellipse cx="101.0417" cy="446.3155" fill="#84BE84" rx="3.125" ry="3.125" style="stroke:#038048;stroke-width:1.0416666666666667;"/><text fill="#D8BC00" font-family="Open Sans,Avenir,Nunito,Arial,Helvetica,SansSerif" font-size="11.4583" lengthAdjust="spacing" textLength="350" x="112.5" y="453.2267">Result&lt;Service&gt; register(Scope, ServiceType, ServiceMetadata)</text><ellipse cx="101.0417" cy="466.0604" fill="#84BE84" rx="3.125" ry="3.125" style="stroke:#038048;stroke-width:1.0416666666666667;"/><text fill="#D8BC00" font-family="Open Sans,Avenir,Nunito,Arial,Helvetica,SansSerif" font-size="11.4583" lengthAdjust="spacing" textLength="187.5" x="112.5" y="472.9716">Result&lt;Service&gt; register(Service)</text><line style="stroke:#5E5E5E;stroke-width:1.0416666666666667;" x1="90.625" x2="308.8542" y1="429.1514" y2="429.1514"/><text fill="#D8BC00" font-family="Open Sans,Avenir,Nunito,Arial,Helvetica,SansSerif" font-size="11.4583" lengthAdjust="spacing" textLength="46.875" x="311.9792" y="432.961">(lookup)</text><line style="stroke:#5E5E5E;stroke-width:1.0416666666666667;" x1="361.9792" x2="580.2083" y1="429.1514" y2="429.1514"/><ellipse cx="101.0417" cy="509.7168" fill="#84BE84" rx="3.125" ry="3.125" style="stroke:#038048;stroke-width:1.0416666666666667;"/><text fill="#D8BC00" font-family="Open Sans,Avenir,Nunito,Arial,Helvetica,SansSerif" font-size="11.4583" lengthAdjust="spacing" textLength="306.25" x="112.5" y="516.628">Result&lt;Boolean&gt; sendNetworkRegistryUpdate(Service)</text><line style="stroke:#5E5E5E;stroke-width:1.0416666666666667;" x1="90.625" x2="305.7292" y1="492.5527" y2="492.5527"/><text fill="#D8BC00" font-family="Open Sans,Avenir,Nunito,Arial,Helvetica,SansSerif" font-size="11.4583" lengthAdjust="spacing" textLength="53.125" x="308.8542" y="496.3623">(network)</text><line style="stroke:#5E5E5E;stroke-width:1.0416666666666667;" x1="365.1042" x2="580.2083" y1="492.5527" y2="492.5527"/><ellipse cx="101.0417" cy="553.3732" fill="#84BE84" rx="3.125" ry="3.125" style="stroke:#038048;stroke-width:1.0416666666666667;"/><text fill="#D8BC00" font-family="Open Sans,Avenir,Nunito,Arial,Helvetica,SansSerif" font-size="11.4583" lengthAdjust="spacing" textLength="364.5833" x="112.5" y="560.2844">Result&lt;Set&lt;ApplicationIdentifier&gt;&gt; discoverApplications(Scope)</text><ellipse cx="101.0417" cy="573.1181" fill="#84BE84" rx="3.125" ry="3.125" style="stroke:#038048;stroke-width:1.0416666666666667;"/><text fill="#D8BC00" font-family="Open Sans,Avenir,Nunito,Arial,Helvetica,SansSerif" font-size="11.4583" lengthAdjust="spacing" textLength="237.5" x="112.5" y="580.0293">Result&lt;Service&gt; discoverPortService(Port)</text><ellipse cx="101.0417" cy="592.863" fill="#84BE84" rx="3.125" ry="3.125" style="stroke:#038048;stroke-width:1.0416666666666667;"/><text fill="#D8BC00" font-family="Open Sans,Avenir,Nunito,Arial,Helvetica,SansSerif" font-size="11.4583" lengthAdjust="spacing" textLength="459.375" x="112.5" y="599.7742">Result&lt;Set&lt;Service&gt;&gt; discoverServices(Scope, ApplicationIdentifier, ServiceType)</text><ellipse cx="101.0417" cy="612.6078" fill="#84BE84" rx="3.125" ry="3.125" style="stroke:#038048;stroke-width:1.0416666666666667;"/><text fill="#D8BC00" font-family="Open Sans,Avenir,Nunito,Arial,Helvetica,SansSerif" font-size="11.4583" lengthAdjust="spacing" textLength="339.5833" x="112.5" y="619.519">Result&lt;Set&lt;Service&gt;&gt; discoverServices(Scope, ServiceType)</text><ellipse cx="101.0417" cy="632.3527" fill="#84BE84" rx="3.125" ry="3.125" style="stroke:#038048;stroke-width:1.0416666666666667;"/><text fill="#D8BC00" font-family="Open Sans,Avenir,Nunito,Arial,Helvetica,SansSerif" font-size="11.4583" lengthAdjust="spacing" textLength="266.6667" x="112.5" y="639.2639">Result&lt;Set&lt;Service&gt;&gt; discoverServices(Scope)</text><ellipse cx="101.0417" cy="652.0976" fill="#84BE84" rx="3.125" ry="3.125" style="stroke:#038048;stroke-width:1.0416666666666667;"/><text fill="#D8BC00" font-family="Open Sans,Avenir,Nunito,Arial,Helvetica,SansSerif" font-size="11.4583" lengthAdjust="spacing" textLength="386.4583" x="112.5" y="659.0088">Result&lt;Set&lt;Service&gt;&gt; discoverServices(Scope, ApplicationIdentifier)</text><line style="stroke:#5E5E5E;stroke-width:1.0416666666666667;" x1="90.625" x2="309.375" y1="536.2091" y2="536.2091"/><text fill="#D8BC00" font-family="Open Sans,Avenir,Nunito,Arial,Helvetica,SansSerif" font-size="11.4583" lengthAdjust="spacing" textLength="45.8333" x="312.5" y="540.0187">(search)</text><line style="stroke:#5E5E5E;stroke-width:1.0416666666666667;" x1="361.4583" x2="580.2083" y1="536.2091" y2="536.2091"/><!--MD5=[652c289fe7a9d0cf99e5eab213ffc423]
class ApplicationIdentifier--><rect fill="#282828" height="48.055" id="ApplicationIdentifier" rx="8.3333" ry="8.3333" style="stroke:#5E5E5E;stroke-width:1.0416666666666667;" width="170.8333" x="7.2917" y="779.7445"/><rect fill="#1B1B1A" height="31.3883" rx="8.3333" ry="8.3333" style="stroke:#1B1B1A;stroke-width:1.0416666666666667;" width="170.8333" x="7.2917" y="779.7445"/><rect fill="#1B1B1A" height="8.3333" style="stroke:#1B1B1A;stroke-width:1.0416666666666667;" width="170.8333" x="7.2917" y="802.7995"/><rect fill="none" height="48.055" id="ApplicationIdentifier" rx="8.3333" ry="8.3333" style="stroke:#5E5E5E;stroke-width:1.0416666666666667;" width="170.8333" x="7.2917" y="779.7445"/><ellipse cx="21.875" cy="795.4386" fill="#0066CF" rx="10.4167" ry="10.4167" style="stroke:#0086EF;stroke-width:1.0416666666666667;"/><path d="M23.7854,799.8637 Q23.3582,800.0834 22.8882,800.1933 Q22.4182,800.3031 21.8994,800.3031 Q20.0562,800.3031 19.0857,799.0885 Q18.1152,797.8739 18.1152,795.579 Q18.1152,793.278 19.0857,792.0634 Q20.0562,790.8488 21.8994,790.8488 Q22.4182,790.8488 22.8943,790.9587 Q23.3704,791.0685 23.7854,791.2882 L23.7854,793.2902 Q23.3215,792.863 22.8851,792.6646 Q22.4487,792.4662 21.9849,792.4662 Q20.9961,792.4662 20.4926,793.2505 Q19.989,794.0348 19.989,795.579 Q19.989,797.1171 20.4926,797.9014 Q20.9961,798.6857 21.9849,798.6857 Q22.4487,798.6857 22.8851,798.4873 Q23.3215,798.289 23.7854,797.8617 Z " fill="#000000"/><text fill="#D8BC00" font-family="Open Sans,Avenir,Nunito,Arial,Helvetica,SansSerif" font-size="12.5" font-weight="bold" lengthAdjust="spacing" textLength="133.3333" x="38.5417" y="800.1628">ApplicationIdentifier</text><line style="stroke:#5E5E5E;stroke-width:1.0416666666666667;" x1="8.3333" x2="177.0833" y1="811.1328" y2="811.1328"/><line style="stroke:#5E5E5E;stroke-width:1.0416666666666667;" x1="8.3333" x2="177.0833" y1="819.4661" y2="819.4661"/><!--MD5=[2741598bdf59a7d7e0d5c97658fd3022]
class Result--><rect fill="#282828" height="48.055" id="Result" rx="8.3333" ry="8.3333" style="stroke:#5E5E5E;stroke-width:1.0416666666666667;" width="78.125" x="244.2708" y="779.7445"/><rect fill="#1B1B1A" height="31.3883" rx="8.3333" ry="8.3333" style="stroke:#1B1B1A;stroke-width:1.0416666666666667;" width="78.125" x="244.2708" y="779.7445"/><rect fill="#1B1B1A" height="8.3333" style="stroke:#1B1B1A;stroke-width:1.0416666666666667;" width="78.125" x="244.2708" y="802.7995"/><rect fill="none" height="48.055" id="Result" rx="8.3333" ry="8.3333" style="stroke:#5E5E5E;stroke-width:1.0416666666666667;" width="78.125" x="244.2708" y="779.7445"/><ellipse cx="258.8542" cy="795.4386" fill="#0066CF" rx="10.4167" ry="10.4167" style="stroke:#0086EF;stroke-width:1.0416666666666667;"/><path d="M260.7646,799.8637 Q260.3373,800.0834 259.8674,800.1933 Q259.3974,800.3031 258.8786,800.3031 Q257.0353,800.3031 256.0649,799.0885 Q255.0944,797.8739 255.0944,795.579 Q255.0944,793.278 256.0649,792.0634 Q257.0353,790.8488 258.8786,790.8488 Q259.3974,790.8488 259.8735,790.9587 Q260.3495,791.0685 260.7646,791.2882 L260.7646,793.2902 Q260.3007,792.863 259.8643,792.6646 Q259.4279,792.4662 258.964,792.4662 Q257.9753,792.4662 257.4717,793.2505 Q256.9682,794.0348 256.9682,795.579 Q256.9682,797.1171 257.4717,797.9014 Q257.9753,798.6857 258.964,798.6857 Q259.4279,798.6857 259.8643,798.4873 Q260.3007,798.289 260.7646,797.8617 Z " fill="#000000"/><text fill="#D8BC00" font-family="Open Sans,Avenir,Nunito,Arial,Helvetica,SansSerif" font-size="12.5" font-weight="bold" lengthAdjust="spacing" textLength="40.625" x="275.5208" y="800.1628">Result</text><line style="stroke:#5E5E5E;stroke-width:1.0416666666666667;" x1="245.3125" x2="321.3542" y1="811.1328" y2="811.1328"/><line style="stroke:#5E5E5E;stroke-width:1.0416666666666667;" x1="245.3125" x2="321.3542" y1="819.4661" y2="819.4661"/><!--MD5=[bece8b4c4229b3549b4a8159d27930ed]
class Scope--><rect fill="#282828" height="48.055" id="Scope" rx="8.3333" ry="8.3333" style="stroke:#5E5E5E;stroke-width:1.0416666666666667;" width="75" x="359.375" y="779.7445"/><rect fill="#1B1B1A" height="31.3883" rx="8.3333" ry="8.3333" style="stroke:#1B1B1A;stroke-width:1.0416666666666667;" width="75" x="359.375" y="779.7445"/><rect fill="#1B1B1A" height="8.3333" style="stroke:#1B1B1A;stroke-width:1.0416666666666667;" width="75" x="359.375" y="802.7995"/><rect fill="none" height="48.055" id="Scope" rx="8.3333" ry="8.3333" style="stroke:#5E5E5E;stroke-width:1.0416666666666667;" width="75" x="359.375" y="779.7445"/><ellipse cx="373.9583" cy="795.4386" fill="#0066CF" rx="10.4167" ry="10.4167" style="stroke:#0086EF;stroke-width:1.0416666666666667;"/><path d="M375.8687,799.8637 Q375.4415,800.0834 374.9715,800.1933 Q374.5015,800.3031 373.9827,800.3031 Q372.1395,800.3031 371.169,799.0885 Q370.1986,797.8739 370.1986,795.579 Q370.1986,793.278 371.169,792.0634 Q372.1395,790.8488 373.9827,790.8488 Q374.5015,790.8488 374.9776,790.9587 Q375.4537,791.0685 375.8687,791.2882 L375.8687,793.2902 Q375.4049,792.863 374.9685,792.6646 Q374.5321,792.4662 374.0682,792.4662 Q373.0794,792.4662 372.5759,793.2505 Q372.0723,794.0348 372.0723,795.579 Q372.0723,797.1171 372.5759,797.9014 Q373.0794,798.6857 374.0682,798.6857 Q374.5321,798.6857 374.9685,798.4873 Q375.4049,798.289 375.8687,797.8617 Z " fill="#000000"/><text fill="#D8BC00" font-family="Open Sans,Avenir,Nunito,Arial,Helvetica,SansSerif" font-size="12.5" font-weight="bold" lengthAdjust="spacing" textLength="37.5" x="390.625" y="800.1628">Scope</text><line style="stroke:#5E5E5E;stroke-width:1.0416666666666667;" x1="360.4167" x2="433.3333" y1="811.1328" y2="811.1328"/><line style="stroke:#5E5E5E;stroke-width:1.0416666666666667;" x1="360.4167" x2="433.3333" y1="819.4661" y2="819.4661"/><!--MD5=[725f70810c120b45ccf20df688faaa02]
class ServiceRegistryClientSettings--><rect codeLine="33" fill="#282828" height="174.8576" id="ServiceRegistryClientSettings" rx="8.3333" ry="8.3333" style="stroke:#5E5E5E;stroke-width:1.0416666666666667;" width="384.375" x="433.8542" y="53.7028"/><rect fill="#1B1B1A" height="31.3883" rx="8.3333" ry="8.3333" style="stroke:#1B1B1A;stroke-width:1.0416666666666667;" width="384.375" x="433.8542" y="53.7028"/><rect fill="#1B1B1A" height="8.3333" style="stroke:#1B1B1A;stroke-width:1.0416666666666667;" width="384.375" x="433.8542" y="76.7578"/><rect codeLine="33" fill="none" height="174.8576" id="ServiceRegistryClientSettings" rx="8.3333" ry="8.3333" style="stroke:#5E5E5E;stroke-width:1.0416666666666667;" width="384.375" x="433.8542" y="53.7028"/><ellipse cx="523.9583" cy="69.397" fill="#0066CF" rx="10.4167" ry="10.4167" style="stroke:#0086EF;stroke-width:1.0416666666666667;"/><path d="M525.8687,73.822 Q525.4415,74.0417 524.9715,74.1516 Q524.5015,74.2615 523.9827,74.2615 Q522.1395,74.2615 521.169,73.0469 Q520.1986,71.8323 520.1986,69.5374 Q520.1986,67.2363 521.169,66.0217 Q522.1395,64.8071 523.9827,64.8071 Q524.5015,64.8071 524.9776,64.917 Q525.4537,65.0269 525.8687,65.2466 L525.8687,67.2485 Q525.4049,66.8213 524.9685,66.6229 Q524.5321,66.4246 524.0682,66.4246 Q523.0794,66.4246 522.5759,67.2089 Q522.0723,67.9932 522.0723,69.5374 Q522.0723,71.0754 522.5759,71.8597 Q523.0794,72.644 524.0682,72.644 Q524.5321,72.644 524.9685,72.4457 Q525.4049,72.2473 525.8687,71.8201 Z " fill="#000000"/><text fill="#D8BC00" font-family="Open Sans,Avenir,Nunito,Arial,Helvetica,SansSerif" font-size="12.5" font-weight="bold" lengthAdjust="spacing" textLength="189.5833" x="546.875" y="74.1211">ServiceRegistryClientSettings</text><line style="stroke:#5E5E5E;stroke-width:1.5625;" x1="434.8958" x2="817.1875" y1="85.0911" y2="85.0911"/><line style="stroke:#5E5E5E;stroke-width:1.0416666666666667;" x1="434.8958" x2="817.1875" y1="93.4245" y2="93.4245"/><ellipse cx="445.3125" cy="104.8828" fill="#84BE84" rx="3.125" ry="3.125" style="stroke:#038048;stroke-width:1.0416666666666667;"/><text fill="#D8BC00" font-family="Open Sans,Avenir,Nunito,Arial,Helvetica,SansSerif" font-size="11.4583" lengthAdjust="spacing" textLength="128.125" x="456.7708" y="111.794">Resourceful serverJar()</text><ellipse cx="445.3125" cy="148.5392" fill="#84BE84" rx="3.125" ry="3.125" style="stroke:#038048;stroke-width:1.0416666666666667;"/><text fill="#D8BC00" font-family="Open Sans,Avenir,Nunito,Arial,Helvetica,SansSerif" font-size="11.4583" lengthAdjust="spacing" textLength="352.0833" x="456.7708" y="155.4504">ServiceRegistryClientSettings accessTimeout(Duration timeout)</text><ellipse cx="445.3125" cy="168.2841" fill="#84BE84" rx="3.125" ry="3.125" style="stroke:#038048;stroke-width:1.0416666666666667;"/><text fill="#D8BC00" font-family="Open Sans,Avenir,Nunito,Arial,Helvetica,SansSerif" font-size="11.4583" lengthAdjust="spacing" textLength="143.75" x="456.7708" y="175.1953">Duration accessTimeout()</text><line style="stroke:#5E5E5E;stroke-width:1.0416666666666667;" x1="434.8958" x2="596.3542" y1="131.3751" y2="131.3751"/><text fill="#D8BC00" font-family="Open Sans,Avenir,Nunito,Arial,Helvetica,SansSerif" font-size="11.4583" lengthAdjust="spacing" textLength="53.125" x="599.4792" y="135.1847">(network)</text><line style="stroke:#5E5E5E;stroke-width:1.0416666666666667;" x1="655.7292" x2="817.1875" y1="131.3751" y2="131.3751"/><ellipse cx="445.3125" cy="211.9405" fill="#84BE84" rx="3.125" ry="3.125" style="stroke:#038048;stroke-width:1.0416666666666667;"/><text fill="#D8BC00" font-family="Open Sans,Avenir,Nunito,Arial,Helvetica,SansSerif" font-size="11.4583" lengthAdjust="spacing" textLength="338.5417" x="456.7708" y="218.8517">ServiceRegistryClientSettings serverJar(Resourceful location)</text><line style="stroke:#5E5E5E;stroke-width:1.0416666666666667;" x1="434.8958" x2="598.9583" y1="194.7764" y2="194.7764"/><text fill="#D8BC00" font-family="Open Sans,Avenir,Nunito,Arial,Helvetica,SansSerif" font-size="11.4583" lengthAdjust="spacing" textLength="47.9167" x="602.0833" y="198.586">(service)</text><line style="stroke:#5E5E5E;stroke-width:1.0416666666666667;" x1="653.125" x2="817.1875" y1="194.7764" y2="194.7764"/><!--MD5=[5316caae02481021f4eda4fa9fb40b1b]
reverse link BaseRepeater to ServiceRegistryClient--><path codeLine="8" d="M335.4167,186.6507 C335.4167,214.5153 335.4167,252.5465 335.4167,291.9632 " fill="none" id="BaseRepeater-backto-ServiceRegistryClient" style="stroke:#545454;stroke-width:1.5625;"/><polygon fill="none" points="328.125,186.2445,335.4167,165.4111,342.7083,186.2445,328.125,186.2445" style="stroke:#545454;stroke-width:1.5625;"/><!--MD5=[19a9853ed0579308eaccffbd5a4abfba]
link ServiceRegistryClient to ApplicationIdentifier--><path codeLine="9" d="M149.8646,668.4945 C142.5104,678.7132 135.5521,689.0778 129.1667,699.5361 C114.8333,722.984 105.0521,752.8903 99.2604,774.4424 " fill="none" id="ServiceRegistryClient-to-ApplicationIdentifier" style="stroke:#545454;stroke-width:1.5625;"/><polygon fill="#545454" points="97.875,779.734,104.2857,771.7244,99.1976,774.6964,96.2255,769.6083,97.875,779.734" style="stroke:#545454;stroke-width:1.5625;"/><text fill="#A0A0A0" font-family="Open Sans,Avenir,Nunito,Arial,Helvetica,SansSerif" font-size="12.5" font-weight="bold" lengthAdjust="spacing" textLength="144.7917" x="133.3333" y="715.7878">discovers applications</text><!--MD5=[b368515f93724b4b375fe14c8fc9527a]
link ServiceRegistryClient to Provider.Service--><path codeLine="10" d="M479.8542,668.3903 C486.5417,678.7757 492.9479,689.2028 498.9583,699.5361 C513.0313,723.7549 525.4063,753.2236 533.5521,774.4528 " fill="none" id="ServiceRegistryClient-to-Provider.Service" style="stroke:#545454;stroke-width:1.5625;"/><polygon fill="#545454" points="535.4375,779.3903,535.982,769.1455,533.5778,774.5253,528.198,772.1211,535.4375,779.3903" style="stroke:#545454;stroke-width:1.5625;"/><text fill="#A0A0A0" font-family="Open Sans,Avenir,Nunito,Arial,Helvetica,SansSerif" font-size="12.5" font-weight="bold" lengthAdjust="spacing" textLength="117.7083" x="514.5833" y="715.7878">discovers services</text><!--MD5=[e0dc6913e645b4e5a050164676000924]
link ServiceRegistryClient to Result--><path codeLine="11" d="M297.5208,668.2861 C295.7917,678.8486 294.1667,689.3174 292.7083,699.5361 C289.1146,724.6924 286.625,753.5153 285.125,774.2757 " fill="none" id="ServiceRegistryClient-to-Result" style="stroke:#545454;stroke-width:1.5625;"/><polygon fill="#545454" points="284.75,779.6507,289.574,770.5964,285.1211,774.4556,281.2619,770.0027,284.75,779.6507" style="stroke:#545454;stroke-width:1.5625;"/><text fill="#A0A0A0" font-family="Open Sans,Avenir,Nunito,Arial,Helvetica,SansSerif" font-size="12.5" font-weight="bold" lengthAdjust="spacing" textLength="46.875" x="296.875" y="715.7878">returns</text><!--MD5=[bb4a57ac7e9b719d5817aaecd5f03b9b]
link ServiceRegistryClient to Scope--><path codeLine="12" d="M371.2604,668.7028 C379.1771,710.109 386.625,749.0674 391.4271,774.182 " fill="none" id="ServiceRegistryClient-to-Scope" style="stroke:#545454;stroke-width:1.5625;"/><polygon fill="#545454" points="392.4167,779.3278,394.7422,769.3356,391.4353,774.2128,386.5582,770.9058,392.4167,779.3278" style="stroke:#545454;stroke-width:1.5625;"/><text fill="#A0A0A0" font-family="Open Sans,Avenir,Nunito,Arial,Helvetica,SansSerif" font-size="12.5" font-weight="bold" lengthAdjust="spacing" textLength="101.0417" x="385.4167" y="715.7878">searches within</text><!--MD5=[3fc16978e7770774f9285ebffcd6bcb6]
@startuml

    !include ../lexakai/lexakai.theme
    
    title "com.telenav.kivakit.service.registry.client"
    
    abstract BaseRepeater
    
    BaseRepeater <|- - ServiceRegistryClient
    ServiceRegistryClient - -> ApplicationIdentifier : "discovers applications"
    ServiceRegistryClient - -> Provider.Service : "discovers services"
    ServiceRegistryClient - -> Result : "returns"
    ServiceRegistryClient - -> Scope : "searches within"
    class ServiceRegistryClient
    {
        - -(constructors)- -
        +ServiceRegistryClient()
        - -(identity)- -
        +Version version()
        - -(lookup)- -
        +Result<Service> register(Scope, ServiceType, ServiceMetadata)
        +Result<Service> register(Service)
        - -(network)- -
        +Result<Boolean> sendNetworkRegistryUpdate(Service)
        - -(search)- -
        +Result<Set<ApplicationIdentifier>> discoverApplications(Scope)
        +Result<Service> discoverPortService(Port)
        +Result<Set<Service>> discoverServices(Scope, ApplicationIdentifier, ServiceType)
        +Result<Set<Service>> discoverServices(Scope, ServiceType)
        +Result<Set<Service>> discoverServices(Scope)
        +Result<Set<Service>> discoverServices(Scope, ApplicationIdentifier)
    }
    
    class ServiceRegistryClientSettings
    {
        - -
        +Resourceful serverJar()
        - -(network)- -
        +ServiceRegistryClientSettings accessTimeout(Duration timeout)
        +Duration accessTimeout()
        - -(service)- -
        +ServiceRegistryClientSettings serverJar(Resourceful location)
    }
    
@enduml

@startuml









skinparam backgroundColor #333333






skinparam  {
    defaultFontName   "Open Sans,Avenir,Nunito,Arial,Helvetica,SansSerif"
    defaultFontSize   12
    defaultTextAlignment left
    shadowing false
    RoundCorner 10
    TitleFontSize 18
}

skinparam defaultFontName       "Open Sans,Avenir,Nunito,Arial,Helvetica,SansSerif"
skinparam defaultFontSize       12
skinparam dpi                   100
skinparam shadowing             false
skinparam roundcorner           16
skinparam ParticipantPadding    40
skinparam BoxPadding            40
skinparam Padding               3
skinparam ArrowColor            #545454
skinparam stereotype {
    CBackgroundColor #0066cf
    CBorderColor #0086ef
    ABackgroundColor #C8Ac00
    ABorderColor #D8Bc00
    IBackgroundColor #008400
    IBorderColor #239c23
    EBackgroundColor #cf6300
    EBorderColor #ef8300
    NBackgroundColor #3380b9
    NBorderColor #004d86
}
skinparam title {
	FontColor	                 #c0c0c0
 	BorderColor                  #545454
	FontSize	    	         20
	BorderRoundCorner            16
	BorderThickness 	         1
	BackgroundColor              #48494b
}


skinparam legend {
	BackgroundColor #303030
	BorderColor #404040
	FontColor #a0a0a0
}

	skinparam swimlane {
	BorderColor #5e5e5e
	BorderThickness 2
	TitleBackgroundColor  #6d6d6d-#484848
	TitleFontColor #303030
}

skinparam activity {
		FontColor #C8Ac00
	BorderColor #333333
	BackgroundColor #333333-#333333
	BarColor #00FF00
	StartColor #0060a8
	EndColor #0060a8
	DiamondBackgroundColor #6d6d6d-#3a3a3a
  	DiamondBorderColor #3a3a3a
  	DiamondFontColor #fefefe
}


skinparam participant {
		FontColor #C8Ac00
	BorderColor #333333
	BackgroundColor #333333-#333333
	ParticipantBorderThickness 2
}


skinparam actor {
		FontColor #C8Ac00
	BorderColor #333333
	BackgroundColor #333333-#333333
}


skinparam arrow {
	Thickness 1.5
	Color #545454
	FontColor #a0a0a0
    FontStyle bold
    MessageAlignment center
}



skinparam sequence {
	BorderColor #303030
	TitleFontColor #303030
	BackgroundColor #333333
	StartColor #303030
	EndColor #303030
	BoxBackgroundColor #333333
	BoxBorderColor #484848
	BoxFontColor #484848
	LifeLineBorderColor #484848
	LifeLineBorderThickness 2
	LifeLineBackgroundColor #3a3a3a
	GroupBorderColor #484848
	GroupFontColor #484848
	GroupHeaderFontColor #0060a8
	GroupBackgroundColor #484848
	GroupHeaderBackgroundColor #333333
	DividerBackgroundColor #484848
    DividerBorderColor #484848
    DividerBorderThickness 2
    DividerFontColor #D8Bc00
	ReferenceBackgroundColor #333333
	ReferenceBorderColor #484848
	ReferenceFontColor #fefefe
	ReferenceHeaderBackgroundColor #484848
}


skinparam partition {
	BorderColor #303030
	FontColor #333333
	BackgroundColor #333333
}


skinparam collections {
		FontColor #C8Ac00
	BorderColor #333333
	BackgroundColor #333333-#333333
}


skinparam control {
		FontColor #C8Ac00
	BorderColor #333333
	BackgroundColor #333333-#333333
}


skinparam entity {
		FontColor #C8Ac00
	BorderColor #333333
	BackgroundColor #333333-#333333
}


skinparam boundary {
		FontColor #C8Ac00
	BorderColor #333333
	BackgroundColor #333333-#333333
}


skinparam agent {
	BackgroundColor #ff8000
	BorderColor #ff9933
	FontColor #484848
}


skinparam note {
	BorderThickness 1
	BackgroundColor #1b1b1a
	BorderColor #5e5e5e
	FontSize 11
	FontColor #a0a0a0
}


skinparam artifact {
	BorderThickness 10
	BorderColor #5e5e5e
	BackgroundColor #1b1b1a
	FontColor #D8Bc00
}


skinparam component {
		FontColor #C8Ac00
	BorderColor #333333
	BackgroundColor #333333-#333333
}


skinparam interface {
	BackgroundColor  #008400
	BorderColor  #007F00
	FontColor #484848
}


skinparam storage {
	BackgroundColor #ff8000
  	BorderColor #cc6600
	FontColor #222222
}


skinparam node {
	BackgroundColor #333333
	BorderColor #333333
	FontColor #C8Ac00
}


skinparam cloud {
	BackgroundColor #484848-black
	BorderColor #484848
	FontColor #D8Bc00
}


skinparam database {
		FontColor #C8Ac00
	BorderColor #333333
	BackgroundColor #333333-#333333
	BackgroundColor  #333333
}


skinparam class {
		FontColor #C8Ac00
	BorderColor #333333
	BackgroundColor #333333-#333333
	HeaderBackgroundColor #1b1b1a
    BackgroundColor #282828
    BorderColor #5e5e5e
 	StereotypeFontColor #a0a0a0
    StereotypeFontStyle bold
	BorderThickness 1
	AttributeFontColor #D8Bc00
	AttributeFontSize 11
    FontColor #D8Bc00
    FontStyle bold
}


skinparam object {
		FontColor #C8Ac00
	BorderColor #333333
	BackgroundColor #333333-#333333
	StereotypeFontColor #484848
	BorderThickness 1
	AttributeFontColor #fefefe
	AttributeFontSize 11
}


skinparam usecase {
		FontColor #C8Ac00
	BorderColor #333333
	BackgroundColor #333333-#333333
	BorderThickness 2
	StereotypeFontColor #303030
}


skinparam rectangle {
		FontColor #C8Ac00
	BorderColor #333333
	BackgroundColor #333333-#333333
	BackgroundColor #333333
	BorderThickness 2
	StereotypeFontColor #303030
}


skinparam package {
		FontColor #C8Ac00
	BorderColor #333333
	BackgroundColor #333333-#333333
	BackgroundColor #333333
	BorderThickness 2
}


skinparam folder {
	BackgroundColor #6d6d6d
  	BorderColor #ff8000
	FontColor #ff8000
	BorderThickness 2
}


skinparam frame {
	BackgroundColor #6d6d6d
  	BorderColor #0060a8
	FontColor #0060a8
	BorderThickness 2
}


skinparam state {
		FontColor #C8Ac00
	BorderColor #333333
	BackgroundColor #333333-#333333
	StartColor #0060a8
	EndColor #0060a8
	AttributeFontColor #fefefe
	AttributeFontSize 11
}


skinparam queue {
		FontColor #C8Ac00
	BorderColor #333333
	BackgroundColor #333333-#333333
}


skinparam card {
	BackgroundColor #0060a8
	BorderColor #004d86
	FontColor $INFO_TEXT
}


skinparam file {
	BackgroundColor #6d6d6d-#484848
	BorderColor #0060a8
	FontColor #fefefe
}


skinparam stack {
		FontColor #C8Ac00
	BorderColor #333333
	BackgroundColor #333333-#333333
}

    
    title "com.telenav.kivakit.service.registry.client"
    
    abstract BaseRepeater
    
    BaseRepeater <|- - ServiceRegistryClient
    ServiceRegistryClient - -> ApplicationIdentifier : "discovers applications"
    ServiceRegistryClient - -> Provider.Service : "discovers services"
    ServiceRegistryClient - -> Result : "returns"
    ServiceRegistryClient - -> Scope : "searches within"
    class ServiceRegistryClient
    {
        - -(constructors)- -
        +ServiceRegistryClient()
        - -(identity)- -
        +Version version()
        - -(lookup)- -
        +Result<Service> register(Scope, ServiceType, ServiceMetadata)
        +Result<Service> register(Service)
        - -(network)- -
        +Result<Boolean> sendNetworkRegistryUpdate(Service)
        - -(search)- -
        +Result<Set<ApplicationIdentifier>> discoverApplications(Scope)
        +Result<Service> discoverPortService(Port)
        +Result<Set<Service>> discoverServices(Scope, ApplicationIdentifier, ServiceType)
        +Result<Set<Service>> discoverServices(Scope, ServiceType)
        +Result<Set<Service>> discoverServices(Scope)
        +Result<Set<Service>> discoverServices(Scope, ApplicationIdentifier)
    }
    
    class ServiceRegistryClientSettings
    {
        - -
        +Resourceful serverJar()
        - -(network)- -
        +ServiceRegistryClientSettings accessTimeout(Duration timeout)
        +Duration accessTimeout()
        - -(service)- -
        +ServiceRegistryClientSettings serverJar(Resourceful location)
    }
    
@enduml

PlantUML version 1.2021.01(Tue Feb 02 00:55:08 MST 2021)
(GPL source distribution)
Java Runtime: Java(TM) SE Runtime Environment
JVM: Java HotSpot(TM) 64-Bit Server VM
Default Encoding: UTF-8
Language: en
Country: US
--></g></svg>