<?xml version="1.0" encoding="UTF-8" standalone="no"?><svg xmlns="http://www.w3.org/2000/svg" xmlns:xlink="http://www.w3.org/1999/xlink" contentScriptType="application/ecmascript" contentStyleType="text/css" height="818.75px" preserveAspectRatio="none" style="width:825px;height:818px;background:#333333;" version="1.1" viewBox="0 0 825 818" width="825px" zoomAndPan="magnify"><defs/><g><rect fill="#48494B" height="41.2028" rx="8.3333" ry="8.3333" style="stroke:#545454;stroke-width:1.0416666666666667;" width="432.2917" x="189.3229" y="2.0833"/><text fill="#C0C0C0" font-family="Open Sans,Avenir,Nunito,Arial,Helvetica,SansSerif" font-size="20.8333" lengthAdjust="spacing" textLength="409.375" x="200.7813" y="30.5583">com.telenav.kivakit.service.registry.client</text><!--MD5=[d6b118b97ce1561c4fb44eead7829b01]
cluster Provider--><polygon fill="#333333" points="485.4167,706.8278,551.0417,706.8278,558.3333,734.0495,602.0833,734.0495,602.0833,812.0361,485.4167,812.0361,485.4167,706.8278" style="stroke:#333333;stroke-width:2.0833333333333335;"/><line style="stroke:#333333;stroke-width:2.0833333333333335;" x1="485.4167" x2="558.3333" y1="734.0495" y2="734.0495"/><text fill="#C8AC00" font-family="Open Sans,Avenir,Nunito,Arial,Helvetica,SansSerif" font-size="12.5" font-weight="bold" lengthAdjust="spacing" textLength="53.125" x="492.7083" y="724.1211">Provider</text><!--MD5=[19388a8ba099dadf46c4299df5d61481]
class Provider.Service--><rect fill="#282828" height="48.055" id="Provider.Service" rx="8.3333" ry="8.3333" style="stroke:#5E5E5E;stroke-width:1.0416666666666667;" width="82.2917" x="502.6042" y="747.4528"/><rect fill="#1B1B1A" height="31.3883" rx="8.3333" ry="8.3333" style="stroke:#1B1B1A;stroke-width:1.0416666666666667;" width="82.2917" x="502.6042" y="747.4528"/><rect fill="#1B1B1A" height="8.3333" style="stroke:#1B1B1A;stroke-width:1.0416666666666667;" width="82.2917" x="502.6042" y="770.5078"/><rect fill="none" height="48.055" id="Provider.Service" rx="8.3333" ry="8.3333" style="stroke:#5E5E5E;stroke-width:1.0416666666666667;" width="82.2917" x="502.6042" y="747.4528"/><ellipse cx="517.1875" cy="763.147" fill="#0066CF" rx="10.4167" ry="10.4167" style="stroke:#0086EF;stroke-width:1.0416666666666667;"/><path d="M519.0979,767.572 Q518.6707,767.7917 518.2007,767.9016 Q517.7307,768.0115 517.2119,768.0115 Q515.3687,768.0115 514.3982,766.7969 Q513.4277,765.5823 513.4277,763.2874 Q513.4277,760.9863 514.3982,759.7717 Q515.3687,758.5571 517.2119,758.5571 Q517.7307,758.5571 518.2068,758.667 Q518.6829,758.7769 519.0979,758.9966 L519.0979,760.9985 Q518.634,760.5713 518.1976,760.3729 Q517.7612,760.1746 517.2974,760.1746 Q516.3086,760.1746 515.8051,760.9589 Q515.3015,761.7432 515.3015,763.2874 Q515.3015,764.8254 515.8051,765.6097 Q516.3086,766.394 517.2974,766.394 Q517.7612,766.394 518.1976,766.1957 Q518.634,765.9973 519.0979,765.5701 Z " fill="#000000"/><text fill="#D8BC00" font-family="Open Sans,Avenir,Nunito,Arial,Helvetica,SansSerif" font-size="12.5" font-weight="bold" lengthAdjust="spacing" textLength="44.7917" x="533.8542" y="767.8711">Service</text><line style="stroke:#5E5E5E;stroke-width:1.0416666666666667;" x1="503.6458" x2="583.8542" y1="778.8411" y2="778.8411"/><line style="stroke:#5E5E5E;stroke-width:1.0416666666666667;" x1="503.6458" x2="583.8542" y1="787.1745" y2="787.1745"/><!--MD5=[762aa3d0df6a9d47bd8e105afbd066b5]
class BaseRepeater--><rect codeLine="6" fill="#282828" height="48.055" id="BaseRepeater" rx="8.3333" ry="8.3333" style="stroke:#5E5E5E;stroke-width:1.0416666666666667;" width="123.9583" x="273.4375" y="113.0778"/><rect fill="#1B1B1A" height="31.3883" rx="8.3333" ry="8.3333" style="stroke:#1B1B1A;stroke-width:1.0416666666666667;" width="123.9583" x="273.4375" y="113.0778"/><rect fill="#1B1B1A" height="8.3333" style="stroke:#1B1B1A;stroke-width:1.0416666666666667;" width="123.9583" x="273.4375" y="136.1328"/><rect codeLine="6" fill="none" height="48.055" id="BaseRepeater" rx="8.3333" ry="8.3333" style="stroke:#5E5E5E;stroke-width:1.0416666666666667;" width="123.9583" x="273.4375" y="113.0778"/><ellipse cx="288.0208" cy="128.772" fill="#C8AC00" rx="10.4167" ry="10.4167" style="stroke:#D8BC00;stroke-width:1.0416666666666667;"/><path d="M288.1348,125.474 L287.2864,129.2033 L288.9893,129.2033 Z M287.0361,123.8261 L289.2395,123.8261 L291.6992,132.9386 L289.8987,132.9386 L289.3372,130.6864 L286.9263,130.6864 L286.377,132.9386 L284.5764,132.9386 Z " fill="#000000"/><text fill="#D8BC00" font-family="Open Sans,Avenir,Nunito,Arial,Helvetica,SansSerif" font-size="12.5" font-style="italic" font-weight="bold" lengthAdjust="spacing" textLength="86.4583" x="304.6875" y="133.4961">BaseRepeater</text><line style="stroke:#5E5E5E;stroke-width:1.0416666666666667;" x1="274.4792" x2="396.3542" y1="144.4661" y2="144.4661"/><line style="stroke:#5E5E5E;stroke-width:1.0416666666666667;" x1="274.4792" x2="396.3542" y1="152.7995" y2="152.7995"/><!--MD5=[f66a573746572471d3a5c21444068a31]
class ServiceRegistryClient--><rect codeLine="13" fill="#282828" height="352.5614" id="ServiceRegistryClient" rx="8.3333" ry="8.3333" style="stroke:#5E5E5E;stroke-width:1.0416666666666667;" width="491.6667" x="89.5833" y="283.9111"/><rect fill="#1B1B1A" height="31.3883" rx="8.3333" ry="8.3333" style="stroke:#1B1B1A;stroke-width:1.0416666666666667;" width="491.6667" x="89.5833" y="283.9111"/><rect fill="#1B1B1A" height="8.3333" style="stroke:#1B1B1A;stroke-width:1.0416666666666667;" width="491.6667" x="89.5833" y="306.9661"/><rect codeLine="13" fill="none" height="352.5614" id="ServiceRegistryClient" rx="8.3333" ry="8.3333" style="stroke:#5E5E5E;stroke-width:1.0416666666666667;" width="491.6667" x="89.5833" y="283.9111"/><ellipse cx="259.8958" cy="299.6053" fill="#0066CF" rx="10.4167" ry="10.4167" style="stroke:#0086EF;stroke-width:1.0416666666666667;"/><path d="M261.8062,304.0304 Q261.379,304.2501 260.909,304.3599 Q260.439,304.4698 259.9202,304.4698 Q258.077,304.4698 257.1065,303.2552 Q256.1361,302.0406 256.1361,299.7457 Q256.1361,297.4447 257.1065,296.2301 Q258.077,295.0155 259.9202,295.0155 Q260.439,295.0155 260.9151,295.1253 Q261.3912,295.2352 261.8062,295.4549 L261.8062,297.4569 Q261.3424,297.0296 260.906,296.8313 Q260.4696,296.6329 260.0057,296.6329 Q259.0169,296.6329 258.5134,297.4172 Q258.0098,298.2015 258.0098,299.7457 Q258.0098,301.2838 258.5134,302.0681 Q259.0169,302.8524 260.0057,302.8524 Q260.4696,302.8524 260.906,302.654 Q261.3424,302.4556 261.8062,302.0284 Z " fill="#000000"/><text fill="#D8BC00" font-family="Open Sans,Avenir,Nunito,Arial,Helvetica,SansSerif" font-size="12.5" font-weight="bold" lengthAdjust="spacing" textLength="136.4583" x="282.8125" y="304.3294">ServiceRegistryClient</text><line style="stroke:#5E5E5E;stroke-width:1.5625;" x1="90.625" x2="580.2083" y1="315.2995" y2="315.2995"/><ellipse cx="101.0417" cy="350.6694" fill="#84BE84" rx="3.125" ry="3.125" style="stroke:#038048;stroke-width:1.0416666666666667;"/><text fill="#D8BC00" font-family="Open Sans,Avenir,Nunito,Arial,Helvetica,SansSerif" font-size="11.4583" lengthAdjust="spacing" textLength="126.0417" x="112.5" y="357.5806">ServiceRegistryClient()</text><line style="stroke:#5E5E5E;stroke-width:1.0416666666666667;" x1="90.625" x2="291.6667" y1="333.5052" y2="333.5052"/><text fill="#D8BC00" font-family="Open Sans,Avenir,Nunito,Arial,Helvetica,SansSerif" font-size="11.4583" lengthAdjust="spacing" textLength="81.25" x="294.7917" y="337.3149">(constructors)</text><line style="stroke:#5E5E5E;stroke-width:1.0416666666666667;" x1="379.1667" x2="580.2083" y1="333.5052" y2="333.5052"/><ellipse cx="101.0417" cy="394.3258" fill="#84BE84" rx="3.125" ry="3.125" style="stroke:#038048;stroke-width:1.0416666666666667;"/><text fill="#D8BC00" font-family="Open Sans,Avenir,Nunito,Arial,Helvetica,SansSerif" font-size="11.4583" lengthAdjust="spacing" textLength="364.5833" x="112.5" y="401.237">Result&lt;Set&lt;ApplicationIdentifier&gt;&gt; discoverApplications(Scope)</text><ellipse cx="101.0417" cy="414.0706" fill="#84BE84" rx="3.125" ry="3.125" style="stroke:#038048;stroke-width:1.0416666666666667;"/><text fill="#D8BC00" font-family="Open Sans,Avenir,Nunito,Arial,Helvetica,SansSerif" font-size="11.4583" lengthAdjust="spacing" textLength="95.8333" x="112.5" y="420.9819">Version version()</text><line style="stroke:#5E5E5E;stroke-width:1.0416666666666667;" x1="90.625" x2="307.2917" y1="377.1617" y2="377.1617"/><text fill="#D8BC00" font-family="Open Sans,Avenir,Nunito,Arial,Helvetica,SansSerif" font-size="11.4583" lengthAdjust="spacing" textLength="50" x="310.4167" y="380.9713">(identity)</text><line style="stroke:#5E5E5E;stroke-width:1.0416666666666667;" x1="363.5417" x2="580.2083" y1="377.1617" y2="377.1617"/><ellipse cx="101.0417" cy="457.7271" fill="#84BE84" rx="3.125" ry="3.125" style="stroke:#038048;stroke-width:1.0416666666666667;"/><text fill="#D8BC00" font-family="Open Sans,Avenir,Nunito,Arial,Helvetica,SansSerif" font-size="11.4583" lengthAdjust="spacing" textLength="306.25" x="112.5" y="464.6383">Result&lt;Boolean&gt; sendNetworkRegistryUpdate(Service)</text><line style="stroke:#5E5E5E;stroke-width:1.0416666666666667;" x1="90.625" x2="305.7292" y1="440.5629" y2="440.5629"/><text fill="#D8BC00" font-family="Open Sans,Avenir,Nunito,Arial,Helvetica,SansSerif" font-size="11.4583" lengthAdjust="spacing" textLength="53.125" x="308.8542" y="444.3726">(network)</text><line style="stroke:#5E5E5E;stroke-width:1.0416666666666667;" x1="365.1042" x2="580.2083" y1="440.5629" y2="440.5629"/><ellipse cx="101.0417" cy="501.3835" fill="#84BE84" rx="3.125" ry="3.125" style="stroke:#038048;stroke-width:1.0416666666666667;"/><text fill="#D8BC00" font-family="Open Sans,Avenir,Nunito,Arial,Helvetica,SansSerif" font-size="11.4583" lengthAdjust="spacing" textLength="237.5" x="112.5" y="508.2947">Result&lt;Service&gt; discoverPortService(Port)</text><ellipse cx="101.0417" cy="521.1283" fill="#84BE84" rx="3.125" ry="3.125" style="stroke:#038048;stroke-width:1.0416666666666667;"/><text fill="#D8BC00" font-family="Open Sans,Avenir,Nunito,Arial,Helvetica,SansSerif" font-size="11.4583" lengthAdjust="spacing" textLength="459.375" x="112.5" y="528.0396">Result&lt;Set&lt;Service&gt;&gt; discoverServices(Scope, ApplicationIdentifier, ServiceType)</text><ellipse cx="101.0417" cy="540.8732" fill="#84BE84" rx="3.125" ry="3.125" style="stroke:#038048;stroke-width:1.0416666666666667;"/><text fill="#D8BC00" font-family="Open Sans,Avenir,Nunito,Arial,Helvetica,SansSerif" font-size="11.4583" lengthAdjust="spacing" textLength="339.5833" x="112.5" y="547.7844">Result&lt;Set&lt;Service&gt;&gt; discoverServices(Scope, ServiceType)</text><ellipse cx="101.0417" cy="560.6181" fill="#84BE84" rx="3.125" ry="3.125" style="stroke:#038048;stroke-width:1.0416666666666667;"/><text fill="#D8BC00" font-family="Open Sans,Avenir,Nunito,Arial,Helvetica,SansSerif" font-size="11.4583" lengthAdjust="spacing" textLength="266.6667" x="112.5" y="567.5293">Result&lt;Set&lt;Service&gt;&gt; discoverServices(Scope)</text><ellipse cx="101.0417" cy="580.363" fill="#84BE84" rx="3.125" ry="3.125" style="stroke:#038048;stroke-width:1.0416666666666667;"/><text fill="#D8BC00" font-family="Open Sans,Avenir,Nunito,Arial,Helvetica,SansSerif" font-size="11.4583" lengthAdjust="spacing" textLength="386.4583" x="112.5" y="587.2742">Result&lt;Set&lt;Service&gt;&gt; discoverServices(Scope, ApplicationIdentifier)</text><ellipse cx="101.0417" cy="600.1078" fill="#84BE84" rx="3.125" ry="3.125" style="stroke:#038048;stroke-width:1.0416666666666667;"/><text fill="#D8BC00" font-family="Open Sans,Avenir,Nunito,Arial,Helvetica,SansSerif" font-size="11.4583" lengthAdjust="spacing" textLength="350" x="112.5" y="607.019">Result&lt;Service&gt; register(Scope, ServiceType, ServiceMetadata)</text><ellipse cx="101.0417" cy="619.8527" fill="#84BE84" rx="3.125" ry="3.125" style="stroke:#038048;stroke-width:1.0416666666666667;"/><text fill="#D8BC00" font-family="Open Sans,Avenir,Nunito,Arial,Helvetica,SansSerif" font-size="11.4583" lengthAdjust="spacing" textLength="187.5" x="112.5" y="626.7639">Result&lt;Service&gt; register(Service)</text><line style="stroke:#5E5E5E;stroke-width:1.0416666666666667;" x1="90.625" x2="308.3333" y1="484.2194" y2="484.2194"/><text fill="#D8BC00" font-family="Open Sans,Avenir,Nunito,Arial,Helvetica,SansSerif" font-size="11.4583" lengthAdjust="spacing" textLength="47.9167" x="311.4583" y="488.029">(service)</text><line style="stroke:#5E5E5E;stroke-width:1.0416666666666667;" x1="362.5" x2="580.2083" y1="484.2194" y2="484.2194"/><!--MD5=[652c289fe7a9d0cf99e5eab213ffc423]
class ApplicationIdentifier--><rect fill="#282828" height="48.055" id="ApplicationIdentifier" rx="8.3333" ry="8.3333" style="stroke:#5E5E5E;stroke-width:1.0416666666666667;" width="170.8333" x="7.2917" y="747.4528"/><rect fill="#1B1B1A" height="31.3883" rx="8.3333" ry="8.3333" style="stroke:#1B1B1A;stroke-width:1.0416666666666667;" width="170.8333" x="7.2917" y="747.4528"/><rect fill="#1B1B1A" height="8.3333" style="stroke:#1B1B1A;stroke-width:1.0416666666666667;" width="170.8333" x="7.2917" y="770.5078"/><rect fill="none" height="48.055" id="ApplicationIdentifier" rx="8.3333" ry="8.3333" style="stroke:#5E5E5E;stroke-width:1.0416666666666667;" width="170.8333" x="7.2917" y="747.4528"/><ellipse cx="21.875" cy="763.147" fill="#0066CF" rx="10.4167" ry="10.4167" style="stroke:#0086EF;stroke-width:1.0416666666666667;"/><path d="M23.7854,767.572 Q23.3582,767.7917 22.8882,767.9016 Q22.4182,768.0115 21.8994,768.0115 Q20.0562,768.0115 19.0857,766.7969 Q18.1152,765.5823 18.1152,763.2874 Q18.1152,760.9863 19.0857,759.7717 Q20.0562,758.5571 21.8994,758.5571 Q22.4182,758.5571 22.8943,758.667 Q23.3704,758.7769 23.7854,758.9966 L23.7854,760.9985 Q23.3215,760.5713 22.8851,760.3729 Q22.4487,760.1746 21.9849,760.1746 Q20.9961,760.1746 20.4926,760.9589 Q19.989,761.7432 19.989,763.2874 Q19.989,764.8254 20.4926,765.6097 Q20.9961,766.394 21.9849,766.394 Q22.4487,766.394 22.8851,766.1957 Q23.3215,765.9973 23.7854,765.5701 Z " fill="#000000"/><text fill="#D8BC00" font-family="Open Sans,Avenir,Nunito,Arial,Helvetica,SansSerif" font-size="12.5" font-weight="bold" lengthAdjust="spacing" textLength="133.3333" x="38.5417" y="767.8711">ApplicationIdentifier</text><line style="stroke:#5E5E5E;stroke-width:1.0416666666666667;" x1="8.3333" x2="177.0833" y1="778.8411" y2="778.8411"/><line style="stroke:#5E5E5E;stroke-width:1.0416666666666667;" x1="8.3333" x2="177.0833" y1="787.1745" y2="787.1745"/><!--MD5=[2741598bdf59a7d7e0d5c97658fd3022]
class Result--><rect fill="#282828" height="48.055" id="Result" rx="8.3333" ry="8.3333" style="stroke:#5E5E5E;stroke-width:1.0416666666666667;" width="78.125" x="244.2708" y="747.4528"/><rect fill="#1B1B1A" height="31.3883" rx="8.3333" ry="8.3333" style="stroke:#1B1B1A;stroke-width:1.0416666666666667;" width="78.125" x="244.2708" y="747.4528"/><rect fill="#1B1B1A" height="8.3333" style="stroke:#1B1B1A;stroke-width:1.0416666666666667;" width="78.125" x="244.2708" y="770.5078"/><rect fill="none" height="48.055" id="Result" rx="8.3333" ry="8.3333" style="stroke:#5E5E5E;stroke-width:1.0416666666666667;" width="78.125" x="244.2708" y="747.4528"/><ellipse cx="258.8542" cy="763.147" fill="#0066CF" rx="10.4167" ry="10.4167" style="stroke:#0086EF;stroke-width:1.0416666666666667;"/><path d="M260.7646,767.572 Q260.3373,767.7917 259.8674,767.9016 Q259.3974,768.0115 258.8786,768.0115 Q257.0353,768.0115 256.0649,766.7969 Q255.0944,765.5823 255.0944,763.2874 Q255.0944,760.9863 256.0649,759.7717 Q257.0353,758.5571 258.8786,758.5571 Q259.3974,758.5571 259.8735,758.667 Q260.3495,758.7769 260.7646,758.9966 L260.7646,760.9985 Q260.3007,760.5713 259.8643,760.3729 Q259.4279,760.1746 258.964,760.1746 Q257.9753,760.1746 257.4717,760.9589 Q256.9682,761.7432 256.9682,763.2874 Q256.9682,764.8254 257.4717,765.6097 Q257.9753,766.394 258.964,766.394 Q259.4279,766.394 259.8643,766.1957 Q260.3007,765.9973 260.7646,765.5701 Z " fill="#000000"/><text fill="#D8BC00" font-family="Open Sans,Avenir,Nunito,Arial,Helvetica,SansSerif" font-size="12.5" font-weight="bold" lengthAdjust="spacing" textLength="40.625" x="275.5208" y="767.8711">Result</text><line style="stroke:#5E5E5E;stroke-width:1.0416666666666667;" x1="245.3125" x2="321.3542" y1="778.8411" y2="778.8411"/><line style="stroke:#5E5E5E;stroke-width:1.0416666666666667;" x1="245.3125" x2="321.3542" y1="787.1745" y2="787.1745"/><!--MD5=[bece8b4c4229b3549b4a8159d27930ed]
class Scope--><rect fill="#282828" height="48.055" id="Scope" rx="8.3333" ry="8.3333" style="stroke:#5E5E5E;stroke-width:1.0416666666666667;" width="75" x="359.375" y="747.4528"/><rect fill="#1B1B1A" height="31.3883" rx="8.3333" ry="8.3333" style="stroke:#1B1B1A;stroke-width:1.0416666666666667;" width="75" x="359.375" y="747.4528"/><rect fill="#1B1B1A" height="8.3333" style="stroke:#1B1B1A;stroke-width:1.0416666666666667;" width="75" x="359.375" y="770.5078"/><rect fill="none" height="48.055" id="Scope" rx="8.3333" ry="8.3333" style="stroke:#5E5E5E;stroke-width:1.0416666666666667;" width="75" x="359.375" y="747.4528"/><ellipse cx="373.9583" cy="763.147" fill="#0066CF" rx="10.4167" ry="10.4167" style="stroke:#0086EF;stroke-width:1.0416666666666667;"/><path d="M375.8687,767.572 Q375.4415,767.7917 374.9715,767.9016 Q374.5015,768.0115 373.9827,768.0115 Q372.1395,768.0115 371.169,766.7969 Q370.1986,765.5823 370.1986,763.2874 Q370.1986,760.9863 371.169,759.7717 Q372.1395,758.5571 373.9827,758.5571 Q374.5015,758.5571 374.9776,758.667 Q375.4537,758.7769 375.8687,758.9966 L375.8687,760.9985 Q375.4049,760.5713 374.9685,760.3729 Q374.5321,760.1746 374.0682,760.1746 Q373.0794,760.1746 372.5759,760.9589 Q372.0723,761.7432 372.0723,763.2874 Q372.0723,764.8254 372.5759,765.6097 Q373.0794,766.394 374.0682,766.394 Q374.5321,766.394 374.9685,766.1957 Q375.4049,765.9973 375.8687,765.5701 Z " fill="#000000"/><text fill="#D8BC00" font-family="Open Sans,Avenir,Nunito,Arial,Helvetica,SansSerif" font-size="12.5" font-weight="bold" lengthAdjust="spacing" textLength="37.5" x="390.625" y="767.8711">Scope</text><line style="stroke:#5E5E5E;stroke-width:1.0416666666666667;" x1="360.4167" x2="433.3333" y1="778.8411" y2="778.8411"/><line style="stroke:#5E5E5E;stroke-width:1.0416666666666667;" x1="360.4167" x2="433.3333" y1="787.1745" y2="787.1745"/><!--MD5=[725f70810c120b45ccf20df688faaa02]
class ServiceRegistryClientSettings--><rect codeLine="32" fill="#282828" height="166.5243" id="ServiceRegistryClientSettings" rx="8.3333" ry="8.3333" style="stroke:#5E5E5E;stroke-width:1.0416666666666667;" width="384.375" x="433.8542" y="53.7028"/><rect fill="#1B1B1A" height="31.3883" rx="8.3333" ry="8.3333" style="stroke:#1B1B1A;stroke-width:1.0416666666666667;" width="384.375" x="433.8542" y="53.7028"/><rect fill="#1B1B1A" height="8.3333" style="stroke:#1B1B1A;stroke-width:1.0416666666666667;" width="384.375" x="433.8542" y="76.7578"/><rect codeLine="32" fill="none" height="166.5243" id="ServiceRegistryClientSettings" rx="8.3333" ry="8.3333" style="stroke:#5E5E5E;stroke-width:1.0416666666666667;" width="384.375" x="433.8542" y="53.7028"/><ellipse cx="523.9583" cy="69.397" fill="#0066CF" rx="10.4167" ry="10.4167" style="stroke:#0086EF;stroke-width:1.0416666666666667;"/><path d="M525.8687,73.822 Q525.4415,74.0417 524.9715,74.1516 Q524.5015,74.2615 523.9827,74.2615 Q522.1395,74.2615 521.169,73.0469 Q520.1986,71.8323 520.1986,69.5374 Q520.1986,67.2363 521.169,66.0217 Q522.1395,64.8071 523.9827,64.8071 Q524.5015,64.8071 524.9776,64.917 Q525.4537,65.0269 525.8687,65.2466 L525.8687,67.2485 Q525.4049,66.8213 524.9685,66.6229 Q524.5321,66.4246 524.0682,66.4246 Q523.0794,66.4246 522.5759,67.2089 Q522.0723,67.9932 522.0723,69.5374 Q522.0723,71.0754 522.5759,71.8597 Q523.0794,72.644 524.0682,72.644 Q524.5321,72.644 524.9685,72.4457 Q525.4049,72.2473 525.8687,71.8201 Z " fill="#000000"/><text fill="#D8BC00" font-family="Open Sans,Avenir,Nunito,Arial,Helvetica,SansSerif" font-size="12.5" font-weight="bold" lengthAdjust="spacing" textLength="189.5833" x="546.875" y="74.1211">ServiceRegistryClientSettings</text><line style="stroke:#5E5E5E;stroke-width:1.5625;" x1="434.8958" x2="817.1875" y1="85.0911" y2="85.0911"/><ellipse cx="445.3125" cy="120.461" fill="#84BE84" rx="3.125" ry="3.125" style="stroke:#038048;stroke-width:1.0416666666666667;"/><text fill="#D8BC00" font-family="Open Sans,Avenir,Nunito,Arial,Helvetica,SansSerif" font-size="11.4583" lengthAdjust="spacing" textLength="352.0833" x="456.7708" y="127.3722">ServiceRegistryClientSettings accessTimeout(Duration timeout)</text><ellipse cx="445.3125" cy="140.2059" fill="#84BE84" rx="3.125" ry="3.125" style="stroke:#038048;stroke-width:1.0416666666666667;"/><text fill="#D8BC00" font-family="Open Sans,Avenir,Nunito,Arial,Helvetica,SansSerif" font-size="11.4583" lengthAdjust="spacing" textLength="143.75" x="456.7708" y="147.1171">Duration accessTimeout()</text><ellipse cx="445.3125" cy="159.9508" fill="#84BE84" rx="3.125" ry="3.125" style="stroke:#038048;stroke-width:1.0416666666666667;"/><text fill="#D8BC00" font-family="Open Sans,Avenir,Nunito,Arial,Helvetica,SansSerif" font-size="11.4583" lengthAdjust="spacing" textLength="179.1667" x="456.7708" y="166.862">HttpNetworkLocation serverJar()</text><line style="stroke:#5E5E5E;stroke-width:1.0416666666666667;" x1="434.8958" x2="596.3542" y1="103.2969" y2="103.2969"/><text fill="#D8BC00" font-family="Open Sans,Avenir,Nunito,Arial,Helvetica,SansSerif" font-size="11.4583" lengthAdjust="spacing" textLength="53.125" x="599.4792" y="107.1065">(network)</text><line style="stroke:#5E5E5E;stroke-width:1.0416666666666667;" x1="655.7292" x2="817.1875" y1="103.2969" y2="103.2969"/><ellipse cx="445.3125" cy="203.6072" fill="#84BE84" rx="3.125" ry="3.125" style="stroke:#038048;stroke-width:1.0416666666666667;"/><text fill="#D8BC00" font-family="Open Sans,Avenir,Nunito,Arial,Helvetica,SansSerif" font-size="11.4583" lengthAdjust="spacing" textLength="341.6667" x="456.7708" y="210.5184">ServiceRegistryClientSettings serverJar(HttpNetworkLocation)</text><line style="stroke:#5E5E5E;stroke-width:1.0416666666666667;" x1="434.8958" x2="598.9583" y1="186.4431" y2="186.4431"/><text fill="#D8BC00" font-family="Open Sans,Avenir,Nunito,Arial,Helvetica,SansSerif" font-size="11.4583" lengthAdjust="spacing" textLength="47.9167" x="602.0833" y="190.2527">(service)</text><line style="stroke:#5E5E5E;stroke-width:1.0416666666666667;" x1="653.125" x2="817.1875" y1="186.4431" y2="186.4431"/><!--MD5=[5316caae02481021f4eda4fa9fb40b1b]
reverse link BaseRepeater to ServiceRegistryClient--><path codeLine="8" d="M335.4167,182.2965 C335.4167,209.3903 335.4167,246.0361 335.4167,283.7757 " fill="none" id="BaseRepeater-backto-ServiceRegistryClient" style="stroke:#545454;stroke-width:1.5625;"/><polygon fill="none" points="328.125,181.984,335.4167,161.1507,342.7083,181.984,328.125,181.984" style="stroke:#545454;stroke-width:1.5625;"/><!--MD5=[19a9853ed0579308eaccffbd5a4abfba]
link ServiceRegistryClient to ApplicationIdentifier--><path codeLine="9" d="M150.7083,636.1924 C143.0208,646.3799 135.7813,656.7549 129.1667,667.2445 C114.5104,690.4945 104.7708,720.4111 99.0729,742.0361 " fill="none" id="ServiceRegistryClient-to-ApplicationIdentifier" style="stroke:#545454;stroke-width:1.5625;"/><polygon fill="#545454" points="97.7188,747.3486,104.0851,739.3037,99.0134,742.3038,96.0133,737.2321,97.7188,747.3486" style="stroke:#545454;stroke-width:1.5625;"/><text fill="#A0A0A0" font-family="Open Sans,Avenir,Nunito,Arial,Helvetica,SansSerif" font-size="12.5" font-weight="bold" lengthAdjust="spacing" textLength="144.7917" x="133.3333" y="683.4961">discovers applications</text><!--MD5=[b368515f93724b4b375fe14c8fc9527a]
link ServiceRegistryClient to Provider.Service--><path codeLine="10" d="M479.0521,636.0257 C486.0417,646.4111 492.7292,656.859 498.9583,667.2445 C513.4583,691.4215 525.8542,721.1403 533.9063,742.4528 " fill="none" id="ServiceRegistryClient-to-Provider.Service" style="stroke:#545454;stroke-width:1.5625;"/><polygon fill="#545454" points="535.75,747.4111,536.3596,737.17,533.9212,742.5344,528.5568,740.0961,535.75,747.4111" style="stroke:#545454;stroke-width:1.5625;"/><text fill="#A0A0A0" font-family="Open Sans,Avenir,Nunito,Arial,Helvetica,SansSerif" font-size="12.5" font-weight="bold" lengthAdjust="spacing" textLength="117.7083" x="514.5833" y="683.4961">discovers services</text><!--MD5=[e0dc6913e645b4e5a050164676000924]
link ServiceRegistryClient to Result--><path codeLine="11" d="M297.7604,636.0049 C295.9271,646.557 294.2292,657.0257 292.7083,667.2445 C288.9792,692.3799 286.5104,721.2028 285.0417,741.9736 " fill="none" id="ServiceRegistryClient-to-Result" style="stroke:#545454;stroke-width:1.5625;"/><polygon fill="#545454" points="284.6771,747.3486,289.4753,738.2806,285.0334,742.1525,281.1615,737.7106,284.6771,747.3486" style="stroke:#545454;stroke-width:1.5625;"/><text fill="#A0A0A0" font-family="Open Sans,Avenir,Nunito,Arial,Helvetica,SansSerif" font-size="12.5" font-weight="bold" lengthAdjust="spacing" textLength="46.875" x="296.875" y="683.4961">returns</text><!--MD5=[bb4a57ac7e9b719d5817aaecd5f03b9b]
link ServiceRegistryClient to Scope--><path codeLine="12" d="M370.1875,636.0257 C378.4063,677.3799 386.2292,716.7653 391.25,742.0674 " fill="none" id="ServiceRegistryClient-to-Scope" style="stroke:#545454;stroke-width:1.5625;"/><polygon fill="#545454" points="392.2813,747.2445,394.5453,737.2382,391.2684,742.1356,386.371,738.8587,392.2813,747.2445" style="stroke:#545454;stroke-width:1.5625;"/><text fill="#A0A0A0" font-family="Open Sans,Avenir,Nunito,Arial,Helvetica,SansSerif" font-size="12.5" font-weight="bold" lengthAdjust="spacing" textLength="101.0417" x="385.4167" y="683.4961">searches within</text><!--MD5=[78fd35ee86655550f0e3aa006b80e9b9]
@startuml

    !include ../lexakai.theme
    
    title "com.telenav.kivakit.service.registry.client"
    
    abstract BaseRepeater
    
    BaseRepeater <|- - ServiceRegistryClient
    ServiceRegistryClient - -> ApplicationIdentifier : "discovers applications"
    ServiceRegistryClient - -> Provider.Service : "discovers services"
    ServiceRegistryClient - -> Result : "returns"
    ServiceRegistryClient - -> Scope : "searches within"
    class ServiceRegistryClient
    {
        - -(constructors)- -
        +ServiceRegistryClient()
        - -(identity)- -
        +Result<Set<ApplicationIdentifier>> discoverApplications(Scope)
        +Version version()
        - -(network)- -
        +Result<Boolean> sendNetworkRegistryUpdate(Service)
        - -(service)- -
        +Result<Service> discoverPortService(Port)
        +Result<Set<Service>> discoverServices(Scope, ApplicationIdentifier, ServiceType)
        +Result<Set<Service>> discoverServices(Scope, ServiceType)
        +Result<Set<Service>> discoverServices(Scope)
        +Result<Set<Service>> discoverServices(Scope, ApplicationIdentifier)
        +Result<Service> register(Scope, ServiceType, ServiceMetadata)
        +Result<Service> register(Service)
    }
    
    class ServiceRegistryClientSettings
    {
        - -(network)- -
        +ServiceRegistryClientSettings accessTimeout(Duration timeout)
        +Duration accessTimeout()
        +HttpNetworkLocation serverJar()
        - -(service)- -
        +ServiceRegistryClientSettings serverJar(HttpNetworkLocation)
    }
    
@enduml

@startuml









skinparam backgroundColor #333333






skinparam  {
    defaultFontName   "Open Sans,Avenir,Nunito,Arial,Helvetica,SansSerif"
    defaultFontSize   12
    defaultTextAlignment left
    shadowing false
    RoundCorner 10
    TitleFontSize 18
}

skinparam defaultFontName       "Open Sans,Avenir,Nunito,Arial,Helvetica,SansSerif"
skinparam defaultFontSize       12
skinparam dpi                   100
skinparam shadowing             false
skinparam roundcorner           16
skinparam ParticipantPadding    40
skinparam BoxPadding            40
skinparam Padding               3
skinparam ArrowColor            #545454
skinparam stereotype {
    CBackgroundColor #0066cf
    CBorderColor #0086ef
    ABackgroundColor #C8Ac00
    ABorderColor #D8Bc00
    IBackgroundColor #008400
    IBorderColor #239c23
    EBackgroundColor #cf6300
    EBorderColor #ef8300
    NBackgroundColor #3380b9
    NBorderColor #004d86
}
skinparam title {
	FontColor	                 #c0c0c0
 	BorderColor                  #545454
	FontSize	    	         20
	BorderRoundCorner            16
	BorderThickness 	         1
	BackgroundColor              #48494b
}


skinparam legend {
	BackgroundColor #303030
	BorderColor #404040
	FontColor #a0a0a0
}

	skinparam swimlane {
	BorderColor #5e5e5e
	BorderThickness 2
	TitleBackgroundColor  #6d6d6d-#484848
	TitleFontColor #303030
}

skinparam activity {
		FontColor #C8Ac00
	BorderColor #333333
	BackgroundColor #333333-#333333
	BarColor #00FF00
	StartColor #0060a8
	EndColor #0060a8
	DiamondBackgroundColor #6d6d6d-#3a3a3a
  	DiamondBorderColor #3a3a3a
  	DiamondFontColor #fefefe
}


skinparam participant {
		FontColor #C8Ac00
	BorderColor #333333
	BackgroundColor #333333-#333333
	ParticipantBorderThickness 2
}


skinparam actor {
		FontColor #C8Ac00
	BorderColor #333333
	BackgroundColor #333333-#333333
}


skinparam arrow {
	Thickness 1.5
	Color #545454
	FontColor #a0a0a0
    FontStyle bold
    MessageAlignment center
}



skinparam sequence {
	BorderColor #303030
	TitleFontColor #303030
	BackgroundColor #333333
	StartColor #303030
	EndColor #303030
	BoxBackgroundColor #333333
	BoxBorderColor #484848
	BoxFontColor #484848
	LifeLineBorderColor #484848
	LifeLineBorderThickness 2
	LifeLineBackgroundColor #3a3a3a
	GroupBorderColor #484848
	GroupFontColor #484848
	GroupHeaderFontColor #0060a8
	GroupBackgroundColor #484848
	GroupHeaderBackgroundColor #333333
	DividerBackgroundColor #484848
    DividerBorderColor #484848
    DividerBorderThickness 2
    DividerFontColor #D8Bc00
	ReferenceBackgroundColor #333333
	ReferenceBorderColor #484848
	ReferenceFontColor #fefefe
	ReferenceHeaderBackgroundColor #484848
}


skinparam partition {
	BorderColor #303030
	FontColor #333333
	BackgroundColor #333333
}


skinparam collections {
		FontColor #C8Ac00
	BorderColor #333333
	BackgroundColor #333333-#333333
}


skinparam control {
		FontColor #C8Ac00
	BorderColor #333333
	BackgroundColor #333333-#333333
}


skinparam entity {
		FontColor #C8Ac00
	BorderColor #333333
	BackgroundColor #333333-#333333
}


skinparam boundary {
		FontColor #C8Ac00
	BorderColor #333333
	BackgroundColor #333333-#333333
}


skinparam agent {
	BackgroundColor #ff8000
	BorderColor #ff9933
	FontColor #484848
}


skinparam note {
	BorderThickness 1
	BackgroundColor #1b1b1a
	BorderColor #5e5e5e
	FontSize 11
	FontColor #a0a0a0
}


skinparam artifact {
	BorderThickness 10
	BorderColor #5e5e5e
	BackgroundColor #1b1b1a
	FontColor #D8Bc00
}


skinparam component {
		FontColor #C8Ac00
	BorderColor #333333
	BackgroundColor #333333-#333333
}


skinparam interface {
	BackgroundColor  #008400
	BorderColor  #007F00
	FontColor #484848
}


skinparam storage {
	BackgroundColor #ff8000
  	BorderColor #cc6600
	FontColor #222222
}


skinparam node {
	BackgroundColor #333333
	BorderColor #333333
	FontColor #C8Ac00
}


skinparam cloud {
	BackgroundColor #484848-black
	BorderColor #484848
	FontColor #D8Bc00
}


skinparam database {
		FontColor #C8Ac00
	BorderColor #333333
	BackgroundColor #333333-#333333
	BackgroundColor  #333333
}


skinparam class {
		FontColor #C8Ac00
	BorderColor #333333
	BackgroundColor #333333-#333333
	HeaderBackgroundColor #1b1b1a
    BackgroundColor #282828
    BorderColor #5e5e5e
 	StereotypeFontColor #a0a0a0
    StereotypeFontStyle bold
	BorderThickness 1
	AttributeFontColor #D8Bc00
	AttributeFontSize 11
    FontColor #D8Bc00
    FontStyle bold
}


skinparam object {
		FontColor #C8Ac00
	BorderColor #333333
	BackgroundColor #333333-#333333
	StereotypeFontColor #484848
	BorderThickness 1
	AttributeFontColor #fefefe
	AttributeFontSize 11
}


skinparam usecase {
		FontColor #C8Ac00
	BorderColor #333333
	BackgroundColor #333333-#333333
	BorderThickness 2
	StereotypeFontColor #303030
}


skinparam rectangle {
		FontColor #C8Ac00
	BorderColor #333333
	BackgroundColor #333333-#333333
	BackgroundColor #333333
	BorderThickness 2
	StereotypeFontColor #303030
}


skinparam package {
		FontColor #C8Ac00
	BorderColor #333333
	BackgroundColor #333333-#333333
	BackgroundColor #333333
	BorderThickness 2
}


skinparam folder {
	BackgroundColor #6d6d6d
  	BorderColor #ff8000
	FontColor #ff8000
	BorderThickness 2
}


skinparam frame {
	BackgroundColor #6d6d6d
  	BorderColor #0060a8
	FontColor #0060a8
	BorderThickness 2
}


skinparam state {
		FontColor #C8Ac00
	BorderColor #333333
	BackgroundColor #333333-#333333
	StartColor #0060a8
	EndColor #0060a8
	AttributeFontColor #fefefe
	AttributeFontSize 11
}


skinparam queue {
		FontColor #C8Ac00
	BorderColor #333333
	BackgroundColor #333333-#333333
}


skinparam card {
	BackgroundColor #0060a8
	BorderColor #004d86
	FontColor $INFO_TEXT
}


skinparam file {
	BackgroundColor #6d6d6d-#484848
	BorderColor #0060a8
	FontColor #fefefe
}


skinparam stack {
		FontColor #C8Ac00
	BorderColor #333333
	BackgroundColor #333333-#333333
}

    
    title "com.telenav.kivakit.service.registry.client"
    
    abstract BaseRepeater
    
    BaseRepeater <|- - ServiceRegistryClient
    ServiceRegistryClient - -> ApplicationIdentifier : "discovers applications"
    ServiceRegistryClient - -> Provider.Service : "discovers services"
    ServiceRegistryClient - -> Result : "returns"
    ServiceRegistryClient - -> Scope : "searches within"
    class ServiceRegistryClient
    {
        - -(constructors)- -
        +ServiceRegistryClient()
        - -(identity)- -
        +Result<Set<ApplicationIdentifier>> discoverApplications(Scope)
        +Version version()
        - -(network)- -
        +Result<Boolean> sendNetworkRegistryUpdate(Service)
        - -(service)- -
        +Result<Service> discoverPortService(Port)
        +Result<Set<Service>> discoverServices(Scope, ApplicationIdentifier, ServiceType)
        +Result<Set<Service>> discoverServices(Scope, ServiceType)
        +Result<Set<Service>> discoverServices(Scope)
        +Result<Set<Service>> discoverServices(Scope, ApplicationIdentifier)
        +Result<Service> register(Scope, ServiceType, ServiceMetadata)
        +Result<Service> register(Service)
    }
    
    class ServiceRegistryClientSettings
    {
        - -(network)- -
        +ServiceRegistryClientSettings accessTimeout(Duration timeout)
        +Duration accessTimeout()
        +HttpNetworkLocation serverJar()
        - -(service)- -
        +ServiceRegistryClientSettings serverJar(HttpNetworkLocation)
    }
    
@enduml

PlantUML version 1.2021.01(Tue Feb 02 00:55:08 MST 2021)
(GPL source distribution)
Java Runtime: Java(TM) SE Runtime Environment
JVM: Java HotSpot(TM) 64-Bit Server VM
Default Encoding: UTF-8
Language: en
Country: US
--></g></svg>