<?xml version="1.0" encoding="UTF-8" standalone="no"?><svg xmlns="http://www.w3.org/2000/svg" xmlns:xlink="http://www.w3.org/1999/xlink" contentScriptType="application/ecmascript" contentStyleType="text/css" height="700px" preserveAspectRatio="none" style="width:643px;height:700px;background:#333333;" version="1.1" viewBox="0 0 643 700" width="643.75px" zoomAndPan="magnify"><defs/><g><rect fill="#48494B" height="41.2028" rx="8.3333" ry="8.3333" style="stroke:#545454;stroke-width:1.0416666666666667;" width="243.75" x="192.7083" y="2.0833"/><text fill="#C0C0C0" font-family="Open Sans,Avenir,Nunito,Arial,Helvetica,SansSerif" font-size="20.8333" lengthAdjust="spacing" textLength="220.8333" x="204.1667" y="30.5583">Service Registry Client</text><!--MD5=[d6b118b97ce1561c4fb44eead7829b01]
cluster Provider--><polygon fill="#333333" points="485.4167,588.0778,551.0417,588.0778,558.3333,615.2995,602.0833,615.2995,602.0833,693.2861,485.4167,693.2861,485.4167,588.0778" style="stroke:#333333;stroke-width:2.0833333333333335;"/><line style="stroke:#333333;stroke-width:2.0833333333333335;" x1="485.4167" x2="558.3333" y1="615.2995" y2="615.2995"/><text fill="#C8AC00" font-family="Open Sans,Avenir,Nunito,Arial,Helvetica,SansSerif" font-size="12.5" font-weight="bold" lengthAdjust="spacing" textLength="53.125" x="492.7083" y="605.3711">Provider</text><!--MD5=[19388a8ba099dadf46c4299df5d61481]
class Provider.Service--><rect fill="#282828" height="48.055" id="Provider.Service" rx="8.3333" ry="8.3333" style="stroke:#5E5E5E;stroke-width:1.0416666666666667;" width="82.2917" x="502.6042" y="628.7028"/><rect fill="#1B1B1A" height="31.3883" rx="8.3333" ry="8.3333" style="stroke:#1B1B1A;stroke-width:1.0416666666666667;" width="82.2917" x="502.6042" y="628.7028"/><rect fill="#1B1B1A" height="8.3333" style="stroke:#1B1B1A;stroke-width:1.0416666666666667;" width="82.2917" x="502.6042" y="651.7578"/><rect fill="none" height="48.055" id="Provider.Service" rx="8.3333" ry="8.3333" style="stroke:#5E5E5E;stroke-width:1.0416666666666667;" width="82.2917" x="502.6042" y="628.7028"/><ellipse cx="517.1875" cy="644.397" fill="#0066CF" rx="10.4167" ry="10.4167" style="stroke:#0086EF;stroke-width:1.0416666666666667;"/><path d="M519.0979,648.822 Q518.6707,649.0417 518.2007,649.1516 Q517.7307,649.2615 517.2119,649.2615 Q515.3687,649.2615 514.3982,648.0469 Q513.4277,646.8323 513.4277,644.5374 Q513.4277,642.2363 514.3982,641.0217 Q515.3687,639.8071 517.2119,639.8071 Q517.7307,639.8071 518.2068,639.917 Q518.6829,640.0269 519.0979,640.2466 L519.0979,642.2485 Q518.634,641.8213 518.1976,641.6229 Q517.7612,641.4246 517.2974,641.4246 Q516.3086,641.4246 515.8051,642.2089 Q515.3015,642.9932 515.3015,644.5374 Q515.3015,646.0754 515.8051,646.8597 Q516.3086,647.644 517.2974,647.644 Q517.7612,647.644 518.1976,647.4457 Q518.634,647.2473 519.0979,646.8201 Z " fill="#000000"/><text fill="#D8BC00" font-family="Open Sans,Avenir,Nunito,Arial,Helvetica,SansSerif" font-size="12.5" font-weight="bold" lengthAdjust="spacing" textLength="44.7917" x="533.8542" y="649.1211">Service</text><line style="stroke:#5E5E5E;stroke-width:1.0416666666666667;" x1="503.6458" x2="583.8542" y1="660.0911" y2="660.0911"/><line style="stroke:#5E5E5E;stroke-width:1.0416666666666667;" x1="503.6458" x2="583.8542" y1="668.4245" y2="668.4245"/><!--MD5=[762aa3d0df6a9d47bd8e105afbd066b5]
class BaseRepeater--><rect codeLine="6" fill="#282828" height="48.055" id="BaseRepeater" rx="8.3333" ry="8.3333" style="stroke:#5E5E5E;stroke-width:1.0416666666666667;" width="123.9583" x="273.4375" y="53.7028"/><rect fill="#1B1B1A" height="31.3883" rx="8.3333" ry="8.3333" style="stroke:#1B1B1A;stroke-width:1.0416666666666667;" width="123.9583" x="273.4375" y="53.7028"/><rect fill="#1B1B1A" height="8.3333" style="stroke:#1B1B1A;stroke-width:1.0416666666666667;" width="123.9583" x="273.4375" y="76.7578"/><rect codeLine="6" fill="none" height="48.055" id="BaseRepeater" rx="8.3333" ry="8.3333" style="stroke:#5E5E5E;stroke-width:1.0416666666666667;" width="123.9583" x="273.4375" y="53.7028"/><ellipse cx="288.0208" cy="69.397" fill="#C8AC00" rx="10.4167" ry="10.4167" style="stroke:#D8BC00;stroke-width:1.0416666666666667;"/><path d="M288.1348,66.099 L287.2864,69.8283 L288.9893,69.8283 Z M287.0361,64.4511 L289.2395,64.4511 L291.6992,73.5636 L289.8987,73.5636 L289.3372,71.3114 L286.9263,71.3114 L286.377,73.5636 L284.5764,73.5636 Z " fill="#000000"/><text fill="#D8BC00" font-family="Open Sans,Avenir,Nunito,Arial,Helvetica,SansSerif" font-size="12.5" font-style="italic" font-weight="bold" lengthAdjust="spacing" textLength="86.4583" x="304.6875" y="74.1211">BaseRepeater</text><line style="stroke:#5E5E5E;stroke-width:1.0416666666666667;" x1="274.4792" x2="396.3542" y1="85.0911" y2="85.0911"/><line style="stroke:#5E5E5E;stroke-width:1.0416666666666667;" x1="274.4792" x2="396.3542" y1="93.4245" y2="93.4245"/><!--MD5=[f66a573746572471d3a5c21444068a31]
class ServiceRegistryClient--><rect codeLine="13" fill="#282828" height="352.5614" id="ServiceRegistryClient" rx="8.3333" ry="8.3333" style="stroke:#5E5E5E;stroke-width:1.0416666666666667;" width="491.6667" x="89.5833" y="165.1611"/><rect fill="#1B1B1A" height="31.3883" rx="8.3333" ry="8.3333" style="stroke:#1B1B1A;stroke-width:1.0416666666666667;" width="491.6667" x="89.5833" y="165.1611"/><rect fill="#1B1B1A" height="8.3333" style="stroke:#1B1B1A;stroke-width:1.0416666666666667;" width="491.6667" x="89.5833" y="188.2161"/><rect codeLine="13" fill="none" height="352.5614" id="ServiceRegistryClient" rx="8.3333" ry="8.3333" style="stroke:#5E5E5E;stroke-width:1.0416666666666667;" width="491.6667" x="89.5833" y="165.1611"/><ellipse cx="259.8958" cy="180.8553" fill="#0066CF" rx="10.4167" ry="10.4167" style="stroke:#0086EF;stroke-width:1.0416666666666667;"/><path d="M261.8062,185.2804 Q261.379,185.5001 260.909,185.6099 Q260.439,185.7198 259.9202,185.7198 Q258.077,185.7198 257.1065,184.5052 Q256.1361,183.2906 256.1361,180.9957 Q256.1361,178.6947 257.1065,177.4801 Q258.077,176.2655 259.9202,176.2655 Q260.439,176.2655 260.9151,176.3753 Q261.3912,176.4852 261.8062,176.7049 L261.8062,178.7069 Q261.3424,178.2796 260.906,178.0813 Q260.4696,177.8829 260.0057,177.8829 Q259.0169,177.8829 258.5134,178.6672 Q258.0098,179.4515 258.0098,180.9957 Q258.0098,182.5338 258.5134,183.3181 Q259.0169,184.1024 260.0057,184.1024 Q260.4696,184.1024 260.906,183.904 Q261.3424,183.7056 261.8062,183.2784 Z " fill="#000000"/><text fill="#D8BC00" font-family="Open Sans,Avenir,Nunito,Arial,Helvetica,SansSerif" font-size="12.5" font-weight="bold" lengthAdjust="spacing" textLength="136.4583" x="282.8125" y="185.5794">ServiceRegistryClient</text><line style="stroke:#5E5E5E;stroke-width:1.5625;" x1="90.625" x2="580.2083" y1="196.5495" y2="196.5495"/><ellipse cx="101.0417" cy="231.9194" fill="#84BE84" rx="3.125" ry="3.125" style="stroke:#038048;stroke-width:1.0416666666666667;"/><text fill="#D8BC00" font-family="Open Sans,Avenir,Nunito,Arial,Helvetica,SansSerif" font-size="11.4583" lengthAdjust="spacing" textLength="126.0417" x="112.5" y="238.8306">ServiceRegistryClient()</text><line style="stroke:#5E5E5E;stroke-width:1.0416666666666667;" x1="90.625" x2="291.6667" y1="214.7552" y2="214.7552"/><text fill="#D8BC00" font-family="Open Sans,Avenir,Nunito,Arial,Helvetica,SansSerif" font-size="11.4583" lengthAdjust="spacing" textLength="81.25" x="294.7917" y="218.5649">(constructors)</text><line style="stroke:#5E5E5E;stroke-width:1.0416666666666667;" x1="379.1667" x2="580.2083" y1="214.7552" y2="214.7552"/><ellipse cx="101.0417" cy="275.5758" fill="#84BE84" rx="3.125" ry="3.125" style="stroke:#038048;stroke-width:1.0416666666666667;"/><text fill="#D8BC00" font-family="Open Sans,Avenir,Nunito,Arial,Helvetica,SansSerif" font-size="11.4583" lengthAdjust="spacing" textLength="364.5833" x="112.5" y="282.487">Result&lt;Set&lt;ApplicationIdentifier&gt;&gt; discoverApplications(Scope)</text><ellipse cx="101.0417" cy="295.3206" fill="#84BE84" rx="3.125" ry="3.125" style="stroke:#038048;stroke-width:1.0416666666666667;"/><text fill="#D8BC00" font-family="Open Sans,Avenir,Nunito,Arial,Helvetica,SansSerif" font-size="11.4583" lengthAdjust="spacing" textLength="95.8333" x="112.5" y="302.2319">Version version()</text><line style="stroke:#5E5E5E;stroke-width:1.0416666666666667;" x1="90.625" x2="307.2917" y1="258.4117" y2="258.4117"/><text fill="#D8BC00" font-family="Open Sans,Avenir,Nunito,Arial,Helvetica,SansSerif" font-size="11.4583" lengthAdjust="spacing" textLength="50" x="310.4167" y="262.2213">(identity)</text><line style="stroke:#5E5E5E;stroke-width:1.0416666666666667;" x1="363.5417" x2="580.2083" y1="258.4117" y2="258.4117"/><ellipse cx="101.0417" cy="338.9771" fill="#84BE84" rx="3.125" ry="3.125" style="stroke:#038048;stroke-width:1.0416666666666667;"/><text fill="#D8BC00" font-family="Open Sans,Avenir,Nunito,Arial,Helvetica,SansSerif" font-size="11.4583" lengthAdjust="spacing" textLength="306.25" x="112.5" y="345.8883">Result&lt;Boolean&gt; sendNetworkRegistryUpdate(Service)</text><line style="stroke:#5E5E5E;stroke-width:1.0416666666666667;" x1="90.625" x2="305.7292" y1="321.8129" y2="321.8129"/><text fill="#D8BC00" font-family="Open Sans,Avenir,Nunito,Arial,Helvetica,SansSerif" font-size="11.4583" lengthAdjust="spacing" textLength="53.125" x="308.8542" y="325.6226">(network)</text><line style="stroke:#5E5E5E;stroke-width:1.0416666666666667;" x1="365.1042" x2="580.2083" y1="321.8129" y2="321.8129"/><ellipse cx="101.0417" cy="382.6335" fill="#84BE84" rx="3.125" ry="3.125" style="stroke:#038048;stroke-width:1.0416666666666667;"/><text fill="#D8BC00" font-family="Open Sans,Avenir,Nunito,Arial,Helvetica,SansSerif" font-size="11.4583" lengthAdjust="spacing" textLength="237.5" x="112.5" y="389.5447">Result&lt;Service&gt; discoverPortService(Port)</text><ellipse cx="101.0417" cy="402.3783" fill="#84BE84" rx="3.125" ry="3.125" style="stroke:#038048;stroke-width:1.0416666666666667;"/><text fill="#D8BC00" font-family="Open Sans,Avenir,Nunito,Arial,Helvetica,SansSerif" font-size="11.4583" lengthAdjust="spacing" textLength="459.375" x="112.5" y="409.2896">Result&lt;Set&lt;Service&gt;&gt; discoverServices(Scope, ApplicationIdentifier, ServiceType)</text><ellipse cx="101.0417" cy="422.1232" fill="#84BE84" rx="3.125" ry="3.125" style="stroke:#038048;stroke-width:1.0416666666666667;"/><text fill="#D8BC00" font-family="Open Sans,Avenir,Nunito,Arial,Helvetica,SansSerif" font-size="11.4583" lengthAdjust="spacing" textLength="339.5833" x="112.5" y="429.0344">Result&lt;Set&lt;Service&gt;&gt; discoverServices(Scope, ServiceType)</text><ellipse cx="101.0417" cy="441.8681" fill="#84BE84" rx="3.125" ry="3.125" style="stroke:#038048;stroke-width:1.0416666666666667;"/><text fill="#D8BC00" font-family="Open Sans,Avenir,Nunito,Arial,Helvetica,SansSerif" font-size="11.4583" lengthAdjust="spacing" textLength="266.6667" x="112.5" y="448.7793">Result&lt;Set&lt;Service&gt;&gt; discoverServices(Scope)</text><ellipse cx="101.0417" cy="461.613" fill="#84BE84" rx="3.125" ry="3.125" style="stroke:#038048;stroke-width:1.0416666666666667;"/><text fill="#D8BC00" font-family="Open Sans,Avenir,Nunito,Arial,Helvetica,SansSerif" font-size="11.4583" lengthAdjust="spacing" textLength="386.4583" x="112.5" y="468.5242">Result&lt;Set&lt;Service&gt;&gt; discoverServices(Scope, ApplicationIdentifier)</text><ellipse cx="101.0417" cy="481.3578" fill="#84BE84" rx="3.125" ry="3.125" style="stroke:#038048;stroke-width:1.0416666666666667;"/><text fill="#D8BC00" font-family="Open Sans,Avenir,Nunito,Arial,Helvetica,SansSerif" font-size="11.4583" lengthAdjust="spacing" textLength="350" x="112.5" y="488.269">Result&lt;Service&gt; register(Scope, ServiceType, ServiceMetadata)</text><ellipse cx="101.0417" cy="501.1027" fill="#84BE84" rx="3.125" ry="3.125" style="stroke:#038048;stroke-width:1.0416666666666667;"/><text fill="#D8BC00" font-family="Open Sans,Avenir,Nunito,Arial,Helvetica,SansSerif" font-size="11.4583" lengthAdjust="spacing" textLength="187.5" x="112.5" y="508.0139">Result&lt;Service&gt; register(Service)</text><line style="stroke:#5E5E5E;stroke-width:1.0416666666666667;" x1="90.625" x2="308.3333" y1="365.4694" y2="365.4694"/><text fill="#D8BC00" font-family="Open Sans,Avenir,Nunito,Arial,Helvetica,SansSerif" font-size="11.4583" lengthAdjust="spacing" textLength="47.9167" x="311.4583" y="369.279">(service)</text><line style="stroke:#5E5E5E;stroke-width:1.0416666666666667;" x1="362.5" x2="580.2083" y1="365.4694" y2="365.4694"/><!--MD5=[652c289fe7a9d0cf99e5eab213ffc423]
class ApplicationIdentifier--><rect fill="#282828" height="48.055" id="ApplicationIdentifier" rx="8.3333" ry="8.3333" style="stroke:#5E5E5E;stroke-width:1.0416666666666667;" width="170.8333" x="7.2917" y="628.7028"/><rect fill="#1B1B1A" height="31.3883" rx="8.3333" ry="8.3333" style="stroke:#1B1B1A;stroke-width:1.0416666666666667;" width="170.8333" x="7.2917" y="628.7028"/><rect fill="#1B1B1A" height="8.3333" style="stroke:#1B1B1A;stroke-width:1.0416666666666667;" width="170.8333" x="7.2917" y="651.7578"/><rect fill="none" height="48.055" id="ApplicationIdentifier" rx="8.3333" ry="8.3333" style="stroke:#5E5E5E;stroke-width:1.0416666666666667;" width="170.8333" x="7.2917" y="628.7028"/><ellipse cx="21.875" cy="644.397" fill="#0066CF" rx="10.4167" ry="10.4167" style="stroke:#0086EF;stroke-width:1.0416666666666667;"/><path d="M23.7854,648.822 Q23.3582,649.0417 22.8882,649.1516 Q22.4182,649.2615 21.8994,649.2615 Q20.0562,649.2615 19.0857,648.0469 Q18.1152,646.8323 18.1152,644.5374 Q18.1152,642.2363 19.0857,641.0217 Q20.0562,639.8071 21.8994,639.8071 Q22.4182,639.8071 22.8943,639.917 Q23.3704,640.0269 23.7854,640.2466 L23.7854,642.2485 Q23.3215,641.8213 22.8851,641.6229 Q22.4487,641.4246 21.9849,641.4246 Q20.9961,641.4246 20.4926,642.2089 Q19.989,642.9932 19.989,644.5374 Q19.989,646.0754 20.4926,646.8597 Q20.9961,647.644 21.9849,647.644 Q22.4487,647.644 22.8851,647.4457 Q23.3215,647.2473 23.7854,646.8201 Z " fill="#000000"/><text fill="#D8BC00" font-family="Open Sans,Avenir,Nunito,Arial,Helvetica,SansSerif" font-size="12.5" font-weight="bold" lengthAdjust="spacing" textLength="133.3333" x="38.5417" y="649.1211">ApplicationIdentifier</text><line style="stroke:#5E5E5E;stroke-width:1.0416666666666667;" x1="8.3333" x2="177.0833" y1="660.0911" y2="660.0911"/><line style="stroke:#5E5E5E;stroke-width:1.0416666666666667;" x1="8.3333" x2="177.0833" y1="668.4245" y2="668.4245"/><!--MD5=[2741598bdf59a7d7e0d5c97658fd3022]
class Result--><rect fill="#282828" height="48.055" id="Result" rx="8.3333" ry="8.3333" style="stroke:#5E5E5E;stroke-width:1.0416666666666667;" width="78.125" x="244.2708" y="628.7028"/><rect fill="#1B1B1A" height="31.3883" rx="8.3333" ry="8.3333" style="stroke:#1B1B1A;stroke-width:1.0416666666666667;" width="78.125" x="244.2708" y="628.7028"/><rect fill="#1B1B1A" height="8.3333" style="stroke:#1B1B1A;stroke-width:1.0416666666666667;" width="78.125" x="244.2708" y="651.7578"/><rect fill="none" height="48.055" id="Result" rx="8.3333" ry="8.3333" style="stroke:#5E5E5E;stroke-width:1.0416666666666667;" width="78.125" x="244.2708" y="628.7028"/><ellipse cx="258.8542" cy="644.397" fill="#0066CF" rx="10.4167" ry="10.4167" style="stroke:#0086EF;stroke-width:1.0416666666666667;"/><path d="M260.7646,648.822 Q260.3373,649.0417 259.8674,649.1516 Q259.3974,649.2615 258.8786,649.2615 Q257.0353,649.2615 256.0649,648.0469 Q255.0944,646.8323 255.0944,644.5374 Q255.0944,642.2363 256.0649,641.0217 Q257.0353,639.8071 258.8786,639.8071 Q259.3974,639.8071 259.8735,639.917 Q260.3495,640.0269 260.7646,640.2466 L260.7646,642.2485 Q260.3007,641.8213 259.8643,641.6229 Q259.4279,641.4246 258.964,641.4246 Q257.9753,641.4246 257.4717,642.2089 Q256.9682,642.9932 256.9682,644.5374 Q256.9682,646.0754 257.4717,646.8597 Q257.9753,647.644 258.964,647.644 Q259.4279,647.644 259.8643,647.4457 Q260.3007,647.2473 260.7646,646.8201 Z " fill="#000000"/><text fill="#D8BC00" font-family="Open Sans,Avenir,Nunito,Arial,Helvetica,SansSerif" font-size="12.5" font-weight="bold" lengthAdjust="spacing" textLength="40.625" x="275.5208" y="649.1211">Result</text><line style="stroke:#5E5E5E;stroke-width:1.0416666666666667;" x1="245.3125" x2="321.3542" y1="660.0911" y2="660.0911"/><line style="stroke:#5E5E5E;stroke-width:1.0416666666666667;" x1="245.3125" x2="321.3542" y1="668.4245" y2="668.4245"/><!--MD5=[bece8b4c4229b3549b4a8159d27930ed]
class Scope--><rect fill="#282828" height="48.055" id="Scope" rx="8.3333" ry="8.3333" style="stroke:#5E5E5E;stroke-width:1.0416666666666667;" width="75" x="359.375" y="628.7028"/><rect fill="#1B1B1A" height="31.3883" rx="8.3333" ry="8.3333" style="stroke:#1B1B1A;stroke-width:1.0416666666666667;" width="75" x="359.375" y="628.7028"/><rect fill="#1B1B1A" height="8.3333" style="stroke:#1B1B1A;stroke-width:1.0416666666666667;" width="75" x="359.375" y="651.7578"/><rect fill="none" height="48.055" id="Scope" rx="8.3333" ry="8.3333" style="stroke:#5E5E5E;stroke-width:1.0416666666666667;" width="75" x="359.375" y="628.7028"/><ellipse cx="373.9583" cy="644.397" fill="#0066CF" rx="10.4167" ry="10.4167" style="stroke:#0086EF;stroke-width:1.0416666666666667;"/><path d="M375.8687,648.822 Q375.4415,649.0417 374.9715,649.1516 Q374.5015,649.2615 373.9827,649.2615 Q372.1395,649.2615 371.169,648.0469 Q370.1986,646.8323 370.1986,644.5374 Q370.1986,642.2363 371.169,641.0217 Q372.1395,639.8071 373.9827,639.8071 Q374.5015,639.8071 374.9776,639.917 Q375.4537,640.0269 375.8687,640.2466 L375.8687,642.2485 Q375.4049,641.8213 374.9685,641.6229 Q374.5321,641.4246 374.0682,641.4246 Q373.0794,641.4246 372.5759,642.2089 Q372.0723,642.9932 372.0723,644.5374 Q372.0723,646.0754 372.5759,646.8597 Q373.0794,647.644 374.0682,647.644 Q374.5321,647.644 374.9685,647.4457 Q375.4049,647.2473 375.8687,646.8201 Z " fill="#000000"/><text fill="#D8BC00" font-family="Open Sans,Avenir,Nunito,Arial,Helvetica,SansSerif" font-size="12.5" font-weight="bold" lengthAdjust="spacing" textLength="37.5" x="390.625" y="649.1211">Scope</text><line style="stroke:#5E5E5E;stroke-width:1.0416666666666667;" x1="360.4167" x2="433.3333" y1="660.0911" y2="660.0911"/><line style="stroke:#5E5E5E;stroke-width:1.0416666666666667;" x1="360.4167" x2="433.3333" y1="668.4245" y2="668.4245"/><!--MD5=[5316caae02481021f4eda4fa9fb40b1b]
reverse link BaseRepeater to ServiceRegistryClient--><path codeLine="8" d="M335.4167,123.1611 C335.4167,135.5465 335.4167,149.7861 335.4167,164.9424 " fill="none" id="BaseRepeater-backto-ServiceRegistryClient" style="stroke:#545454;stroke-width:1.5625;"/><polygon fill="none" points="328.125,122.734,335.4167,101.9007,342.7083,122.734,328.125,122.734" style="stroke:#545454;stroke-width:1.5625;"/><!--MD5=[19a9853ed0579308eaccffbd5a4abfba]
link ServiceRegistryClient to ApplicationIdentifier--><path codeLine="9" d="M150.7083,517.4424 C143.0208,527.6299 135.7813,538.0049 129.1667,548.4945 C114.5104,571.7445 104.7708,601.6611 99.0729,623.2861 " fill="none" id="ServiceRegistryClient-to-ApplicationIdentifier" style="stroke:#545454;stroke-width:1.5625;"/><polygon fill="#545454" points="97.7188,628.5986,104.0851,620.5537,99.0134,623.5538,96.0133,618.4821,97.7188,628.5986" style="stroke:#545454;stroke-width:1.5625;"/><text fill="#A0A0A0" font-family="Open Sans,Avenir,Nunito,Arial,Helvetica,SansSerif" font-size="12.5" font-weight="bold" lengthAdjust="spacing" textLength="144.7917" x="133.3333" y="564.7461">discovers applications</text><!--MD5=[b368515f93724b4b375fe14c8fc9527a]
link ServiceRegistryClient to Provider.Service--><path codeLine="10" d="M479.0521,517.2757 C486.0417,527.6611 492.7292,538.109 498.9583,548.4945 C513.4583,572.6715 525.8542,602.3903 533.9063,623.7028 " fill="none" id="ServiceRegistryClient-to-Provider.Service" style="stroke:#545454;stroke-width:1.5625;"/><polygon fill="#545454" points="535.75,628.6611,536.3596,618.42,533.9212,623.7844,528.5568,621.3461,535.75,628.6611" style="stroke:#545454;stroke-width:1.5625;"/><text fill="#A0A0A0" font-family="Open Sans,Avenir,Nunito,Arial,Helvetica,SansSerif" font-size="12.5" font-weight="bold" lengthAdjust="spacing" textLength="117.7083" x="514.5833" y="564.7461">discovers services</text><!--MD5=[e0dc6913e645b4e5a050164676000924]
link ServiceRegistryClient to Result--><path codeLine="11" d="M297.7604,517.2549 C295.9271,527.807 294.2292,538.2757 292.7083,548.4945 C288.9792,573.6299 286.5104,602.4528 285.0417,623.2236 " fill="none" id="ServiceRegistryClient-to-Result" style="stroke:#545454;stroke-width:1.5625;"/><polygon fill="#545454" points="284.6771,628.5986,289.4753,619.5306,285.0334,623.4025,281.1615,618.9606,284.6771,628.5986" style="stroke:#545454;stroke-width:1.5625;"/><text fill="#A0A0A0" font-family="Open Sans,Avenir,Nunito,Arial,Helvetica,SansSerif" font-size="12.5" font-weight="bold" lengthAdjust="spacing" textLength="46.875" x="296.875" y="564.7461">returns</text><!--MD5=[bb4a57ac7e9b719d5817aaecd5f03b9b]
link ServiceRegistryClient to Scope--><path codeLine="12" d="M370.1875,517.2757 C378.4063,558.6299 386.2292,598.0153 391.25,623.3174 " fill="none" id="ServiceRegistryClient-to-Scope" style="stroke:#545454;stroke-width:1.5625;"/><polygon fill="#545454" points="392.2813,628.4945,394.5453,618.4882,391.2684,623.3856,386.371,620.1087,392.2813,628.4945" style="stroke:#545454;stroke-width:1.5625;"/><text fill="#A0A0A0" font-family="Open Sans,Avenir,Nunito,Arial,Helvetica,SansSerif" font-size="12.5" font-weight="bold" lengthAdjust="spacing" textLength="101.0417" x="385.4167" y="564.7461">searches within</text><!--MD5=[617939e7d42330f841203b0da0e40586]
@startuml

    !include ../lexakai.theme
    
    title "Service Registry Client"
    
    abstract BaseRepeater
    
    BaseRepeater <|- - ServiceRegistryClient
    ServiceRegistryClient - -> ApplicationIdentifier : "discovers applications"
    ServiceRegistryClient - -> Provider.Service : "discovers services"
    ServiceRegistryClient - -> Result : "returns"
    ServiceRegistryClient - -> Scope : "searches within"
    class ServiceRegistryClient
    {
        - -(constructors)- -
        +ServiceRegistryClient()
        - -(identity)- -
        +Result<Set<ApplicationIdentifier>> discoverApplications(Scope)
        +Version version()
        - -(network)- -
        +Result<Boolean> sendNetworkRegistryUpdate(Service)
        - -(service)- -
        +Result<Service> discoverPortService(Port)
        +Result<Set<Service>> discoverServices(Scope, ApplicationIdentifier, ServiceType)
        +Result<Set<Service>> discoverServices(Scope, ServiceType)
        +Result<Set<Service>> discoverServices(Scope)
        +Result<Set<Service>> discoverServices(Scope, ApplicationIdentifier)
        +Result<Service> register(Scope, ServiceType, ServiceMetadata)
        +Result<Service> register(Service)
    }
    
@enduml

@startuml









skinparam backgroundColor #333333






skinparam  {
    defaultFontName   "Open Sans,Avenir,Nunito,Arial,Helvetica,SansSerif"
    defaultFontSize   12
    defaultTextAlignment left
    shadowing false
    RoundCorner 10
    TitleFontSize 18
}

skinparam defaultFontName       "Open Sans,Avenir,Nunito,Arial,Helvetica,SansSerif"
skinparam defaultFontSize       12
skinparam dpi                   100
skinparam shadowing             false
skinparam roundcorner           16
skinparam ParticipantPadding    40
skinparam BoxPadding            40
skinparam Padding               3
skinparam ArrowColor            #545454
skinparam stereotype {
    CBackgroundColor #0066cf
    CBorderColor #0086ef
    ABackgroundColor #C8Ac00
    ABorderColor #D8Bc00
    IBackgroundColor #008400
    IBorderColor #239c23
    EBackgroundColor #cf6300
    EBorderColor #ef8300
    NBackgroundColor #3380b9
    NBorderColor #004d86
}
skinparam title {
	FontColor	                 #c0c0c0
 	BorderColor                  #545454
	FontSize	    	         20
	BorderRoundCorner            16
	BorderThickness 	         1
	BackgroundColor              #48494b
}


skinparam legend {
	BackgroundColor #303030
	BorderColor #404040
	FontColor #a0a0a0
}

	skinparam swimlane {
	BorderColor #5e5e5e
	BorderThickness 2
	TitleBackgroundColor  #6d6d6d-#484848
	TitleFontColor #303030
}

skinparam activity {
		FontColor #C8Ac00
	BorderColor #333333
	BackgroundColor #333333-#333333
	BarColor #00FF00
	StartColor #0060a8
	EndColor #0060a8
	DiamondBackgroundColor #6d6d6d-#3a3a3a
  	DiamondBorderColor #3a3a3a
  	DiamondFontColor #fefefe
}


skinparam participant {
		FontColor #C8Ac00
	BorderColor #333333
	BackgroundColor #333333-#333333
	ParticipantBorderThickness 2
}


skinparam actor {
		FontColor #C8Ac00
	BorderColor #333333
	BackgroundColor #333333-#333333
}


skinparam arrow {
	Thickness 1.5
	Color #545454
	FontColor #a0a0a0
    FontStyle bold
    MessageAlignment center
}



skinparam sequence {
	BorderColor #303030
	TitleFontColor #303030
	BackgroundColor #333333
	StartColor #303030
	EndColor #303030
	BoxBackgroundColor #333333
	BoxBorderColor #484848
	BoxFontColor #484848
	LifeLineBorderColor #484848
	LifeLineBorderThickness 2
	LifeLineBackgroundColor #3a3a3a
	GroupBorderColor #484848
	GroupFontColor #484848
	GroupHeaderFontColor #0060a8
	GroupBackgroundColor #484848
	GroupHeaderBackgroundColor #333333
	DividerBackgroundColor #484848
    DividerBorderColor #484848
    DividerBorderThickness 2
    DividerFontColor #D8Bc00
	ReferenceBackgroundColor #333333
	ReferenceBorderColor #484848
	ReferenceFontColor #fefefe
	ReferenceHeaderBackgroundColor #484848
}


skinparam partition {
	BorderColor #303030
	FontColor #333333
	BackgroundColor #333333
}


skinparam collections {
		FontColor #C8Ac00
	BorderColor #333333
	BackgroundColor #333333-#333333
}


skinparam control {
		FontColor #C8Ac00
	BorderColor #333333
	BackgroundColor #333333-#333333
}


skinparam entity {
		FontColor #C8Ac00
	BorderColor #333333
	BackgroundColor #333333-#333333
}


skinparam boundary {
		FontColor #C8Ac00
	BorderColor #333333
	BackgroundColor #333333-#333333
}


skinparam agent {
	BackgroundColor #ff8000
	BorderColor #ff9933
	FontColor #484848
}


skinparam note {
	BorderThickness 1
	BackgroundColor #1b1b1a
	BorderColor #5e5e5e
	FontSize 11
	FontColor #a0a0a0
}


skinparam artifact {
	BorderThickness 10
	BorderColor #5e5e5e
	BackgroundColor #1b1b1a
	FontColor #D8Bc00
}


skinparam component {
		FontColor #C8Ac00
	BorderColor #333333
	BackgroundColor #333333-#333333
}


skinparam interface {
	BackgroundColor  #008400
	BorderColor  #007F00
	FontColor #484848
}


skinparam storage {
	BackgroundColor #ff8000
  	BorderColor #cc6600
	FontColor #222222
}


skinparam node {
	BackgroundColor #333333
	BorderColor #333333
	FontColor #C8Ac00
}


skinparam cloud {
	BackgroundColor #484848-black
	BorderColor #484848
	FontColor #D8Bc00
}


skinparam database {
		FontColor #C8Ac00
	BorderColor #333333
	BackgroundColor #333333-#333333
	BackgroundColor  #333333
}


skinparam class {
		FontColor #C8Ac00
	BorderColor #333333
	BackgroundColor #333333-#333333
	HeaderBackgroundColor #1b1b1a
    BackgroundColor #282828
    BorderColor #5e5e5e
 	StereotypeFontColor #a0a0a0
    StereotypeFontStyle bold
	BorderThickness 1
	AttributeFontColor #D8Bc00
	AttributeFontSize 11
    FontColor #D8Bc00
    FontStyle bold
}


skinparam object {
		FontColor #C8Ac00
	BorderColor #333333
	BackgroundColor #333333-#333333
	StereotypeFontColor #484848
	BorderThickness 1
	AttributeFontColor #fefefe
	AttributeFontSize 11
}


skinparam usecase {
		FontColor #C8Ac00
	BorderColor #333333
	BackgroundColor #333333-#333333
	BorderThickness 2
	StereotypeFontColor #303030
}


skinparam rectangle {
		FontColor #C8Ac00
	BorderColor #333333
	BackgroundColor #333333-#333333
	BackgroundColor #333333
	BorderThickness 2
	StereotypeFontColor #303030
}


skinparam package {
		FontColor #C8Ac00
	BorderColor #333333
	BackgroundColor #333333-#333333
	BackgroundColor #333333
	BorderThickness 2
}


skinparam folder {
	BackgroundColor #6d6d6d
  	BorderColor #ff8000
	FontColor #ff8000
	BorderThickness 2
}


skinparam frame {
	BackgroundColor #6d6d6d
  	BorderColor #0060a8
	FontColor #0060a8
	BorderThickness 2
}


skinparam state {
		FontColor #C8Ac00
	BorderColor #333333
	BackgroundColor #333333-#333333
	StartColor #0060a8
	EndColor #0060a8
	AttributeFontColor #fefefe
	AttributeFontSize 11
}


skinparam queue {
		FontColor #C8Ac00
	BorderColor #333333
	BackgroundColor #333333-#333333
}


skinparam card {
	BackgroundColor #0060a8
	BorderColor #004d86
	FontColor $INFO_TEXT
}


skinparam file {
	BackgroundColor #6d6d6d-#484848
	BorderColor #0060a8
	FontColor #fefefe
}


skinparam stack {
		FontColor #C8Ac00
	BorderColor #333333
	BackgroundColor #333333-#333333
}

    
    title "Service Registry Client"
    
    abstract BaseRepeater
    
    BaseRepeater <|- - ServiceRegistryClient
    ServiceRegistryClient - -> ApplicationIdentifier : "discovers applications"
    ServiceRegistryClient - -> Provider.Service : "discovers services"
    ServiceRegistryClient - -> Result : "returns"
    ServiceRegistryClient - -> Scope : "searches within"
    class ServiceRegistryClient
    {
        - -(constructors)- -
        +ServiceRegistryClient()
        - -(identity)- -
        +Result<Set<ApplicationIdentifier>> discoverApplications(Scope)
        +Version version()
        - -(network)- -
        +Result<Boolean> sendNetworkRegistryUpdate(Service)
        - -(service)- -
        +Result<Service> discoverPortService(Port)
        +Result<Set<Service>> discoverServices(Scope, ApplicationIdentifier, ServiceType)
        +Result<Set<Service>> discoverServices(Scope, ServiceType)
        +Result<Set<Service>> discoverServices(Scope)
        +Result<Set<Service>> discoverServices(Scope, ApplicationIdentifier)
        +Result<Service> register(Scope, ServiceType, ServiceMetadata)
        +Result<Service> register(Service)
    }
    
@enduml

PlantUML version 1.2021.01(Tue Feb 02 00:55:08 MST 2021)
(GPL source distribution)
Java Runtime: Java(TM) SE Runtime Environment
JVM: Java HotSpot(TM) 64-Bit Server VM
Default Encoding: UTF-8
Language: en
Country: US
--></g></svg>