<?xml version="1.0" encoding="UTF-8" standalone="no"?><svg xmlns="http://www.w3.org/2000/svg" xmlns:xlink="http://www.w3.org/1999/xlink" contentScriptType="application/ecmascript" contentStyleType="text/css" height="400px" preserveAspectRatio="none" style="width:538px;height:400px;background:#333333;" version="1.1" viewBox="0 0 538 400" width="538.5417px" zoomAndPan="magnify"><defs/><g><rect fill="#48494B" height="41.2028" rx="8.3333" ry="8.3333" style="stroke:#545454;stroke-width:1.0416666666666667;" width="366.6667" x="78.9063" y="2.0833"/><text fill="#C0C0C0" font-family="Open Sans,Avenir,Nunito,Arial,Helvetica,SansSerif" font-size="20.8333" lengthAdjust="spacing" textLength="343.75" x="90.3646" y="30.5583">com.telenav.kivakit.settings.stores</text><!--MD5=[98efee3b802f728b261c98d018e498e4]
class BaseResourceSettingsStore--><rect codeLine="16" fill="#282828" height="83.3781" id="BaseResourceSettingsStore" rx="8.3333" ry="8.3333" style="stroke:#5E5E5E;stroke-width:1.0416666666666667;" width="212.5" x="106.25" y="164.1195"/><rect fill="#1B1B1A" height="31.3883" rx="8.3333" ry="8.3333" style="stroke:#1B1B1A;stroke-width:1.0416666666666667;" width="212.5" x="106.25" y="164.1195"/><rect fill="#1B1B1A" height="8.3333" style="stroke:#1B1B1A;stroke-width:1.0416666666666667;" width="212.5" x="106.25" y="187.1745"/><rect codeLine="16" fill="none" height="83.3781" id="BaseResourceSettingsStore" rx="8.3333" ry="8.3333" style="stroke:#5E5E5E;stroke-width:1.0416666666666667;" width="212.5" x="106.25" y="164.1195"/><ellipse cx="120.8333" cy="179.8136" fill="#C8AC00" rx="10.4167" ry="10.4167" style="stroke:#D8BC00;stroke-width:1.0416666666666667;"/><path d="M120.4264,176.5157 L119.578,180.245 L121.2809,180.245 Z M119.3278,174.8678 L121.5312,174.8678 L123.9909,183.9803 L122.1903,183.9803 L121.6288,181.7281 L119.2179,181.7281 L118.6686,183.9803 L116.8681,183.9803 Z " fill="#000000"/><text fill="#D8BC00" font-family="Open Sans,Avenir,Nunito,Arial,Helvetica,SansSerif" font-size="12.5" font-style="italic" font-weight="bold" lengthAdjust="spacing" textLength="175" x="137.5" y="184.5378">BaseResourceSettingsStore</text><line style="stroke:#5E5E5E;stroke-width:1.5625;" x1="107.2917" x2="317.7083" y1="195.5078" y2="195.5078"/><polygon fill="#FFFF44" points="117.7083,225.6694,121.875,229.836,117.7083,234.0027,113.5417,229.836" style="stroke:#B38D22;stroke-width:1.0416666666666667;"/><text fill="#D8BC00" font-family="Open Sans,Avenir,Nunito,Arial,Helvetica,SansSerif" font-size="11.4583" lengthAdjust="spacing" textLength="169.7917" x="129.1667" y="237.7889">SettingsObject read(Resource)</text><line style="stroke:#5E5E5E;stroke-width:1.0416666666666667;" x1="107.2917" x2="192.7083" y1="213.7136" y2="213.7136"/><text fill="#D8BC00" font-family="Open Sans,Avenir,Nunito,Arial,Helvetica,SansSerif" font-size="11.4583" lengthAdjust="spacing" textLength="33.3333" x="195.8333" y="217.5232">(read)</text><line style="stroke:#5E5E5E;stroke-width:1.0416666666666667;" x1="232.2917" x2="317.7083" y1="213.7136" y2="213.7136"/><!--MD5=[9e09a659a8ed84857eefee4d072426ec]
class BaseSettingsStore--><rect codeLine="8" fill="#282828" height="48.055" id="BaseSettingsStore" rx="8.3333" ry="8.3333" style="stroke:#5E5E5E;stroke-width:1.0416666666666667;" width="154.1667" x="353.125" y="53.7028"/><rect fill="#1B1B1A" height="31.3883" rx="8.3333" ry="8.3333" style="stroke:#1B1B1A;stroke-width:1.0416666666666667;" width="154.1667" x="353.125" y="53.7028"/><rect fill="#1B1B1A" height="8.3333" style="stroke:#1B1B1A;stroke-width:1.0416666666666667;" width="154.1667" x="353.125" y="76.7578"/><rect codeLine="8" fill="none" height="48.055" id="BaseSettingsStore" rx="8.3333" ry="8.3333" style="stroke:#5E5E5E;stroke-width:1.0416666666666667;" width="154.1667" x="353.125" y="53.7028"/><ellipse cx="367.7083" cy="69.397" fill="#C8AC00" rx="10.4167" ry="10.4167" style="stroke:#D8BC00;stroke-width:1.0416666666666667;"/><path d="M367.3014,66.099 L366.453,69.8283 L368.1559,69.8283 Z M366.2028,64.4511 L368.4062,64.4511 L370.8659,73.5636 L369.0653,73.5636 L368.5038,71.3114 L366.0929,71.3114 L365.5436,73.5636 L363.7431,73.5636 Z " fill="#000000"/><text fill="#D8BC00" font-family="Open Sans,Avenir,Nunito,Arial,Helvetica,SansSerif" font-size="12.5" font-style="italic" font-weight="bold" lengthAdjust="spacing" textLength="116.6667" x="384.375" y="74.1211">BaseSettingsStore</text><line style="stroke:#5E5E5E;stroke-width:1.0416666666666667;" x1="354.1667" x2="506.25" y1="85.0911" y2="85.0911"/><line style="stroke:#5E5E5E;stroke-width:1.0416666666666667;" x1="354.1667" x2="506.25" y1="93.4245" y2="93.4245"/><!--MD5=[34eb2c3cd1bd084029c026d450c2586e]
class RegistryTrait--><rect codeLine="10" fill="#282828" height="48.055" id="RegistryTrait" rx="8.3333" ry="8.3333" style="stroke:#5E5E5E;stroke-width:1.0416666666666667;" width="120.8333" x="7.2917" y="53.7028"/><rect fill="#1B1B1A" height="31.3883" rx="8.3333" ry="8.3333" style="stroke:#1B1B1A;stroke-width:1.0416666666666667;" width="120.8333" x="7.2917" y="53.7028"/><rect fill="#1B1B1A" height="8.3333" style="stroke:#1B1B1A;stroke-width:1.0416666666666667;" width="120.8333" x="7.2917" y="76.7578"/><rect codeLine="10" fill="none" height="48.055" id="RegistryTrait" rx="8.3333" ry="8.3333" style="stroke:#5E5E5E;stroke-width:1.0416666666666667;" width="120.8333" x="7.2917" y="53.7028"/><ellipse cx="21.875" cy="69.397" fill="#008400" rx="10.4167" ry="10.4167" style="stroke:#239C23;stroke-width:1.0416666666666667;"/><path d="M19.279,66.5588 L19.279,64.9719 L24.705,64.9719 L24.705,66.5588 L22.8923,66.5588 L22.8923,72.4976 L24.705,72.4976 L24.705,74.0845 L19.279,74.0845 L19.279,72.4976 L21.0917,72.4976 L21.0917,66.5588 Z " fill="#000000"/><text fill="#D8BC00" font-family="Open Sans,Avenir,Nunito,Arial,Helvetica,SansSerif" font-size="12.5" font-style="italic" font-weight="bold" lengthAdjust="spacing" textLength="83.3333" x="38.5417" y="74.1211">RegistryTrait</text><line style="stroke:#5E5E5E;stroke-width:1.0416666666666667;" x1="8.3333" x2="127.0833" y1="85.0911" y2="85.0911"/><line style="stroke:#5E5E5E;stroke-width:1.0416666666666667;" x1="8.3333" x2="127.0833" y1="93.4245" y2="93.4245"/><!--MD5=[4171346d4e7b04c97bc6f5663b2dd93e]
class SettingsStore--><rect codeLine="11" fill="#282828" height="48.055" id="SettingsStore" rx="8.3333" ry="8.3333" style="stroke:#5E5E5E;stroke-width:1.0416666666666667;" width="123.9583" x="165.1042" y="53.7028"/><rect fill="#1B1B1A" height="31.3883" rx="8.3333" ry="8.3333" style="stroke:#1B1B1A;stroke-width:1.0416666666666667;" width="123.9583" x="165.1042" y="53.7028"/><rect fill="#1B1B1A" height="8.3333" style="stroke:#1B1B1A;stroke-width:1.0416666666666667;" width="123.9583" x="165.1042" y="76.7578"/><rect codeLine="11" fill="none" height="48.055" id="SettingsStore" rx="8.3333" ry="8.3333" style="stroke:#5E5E5E;stroke-width:1.0416666666666667;" width="123.9583" x="165.1042" y="53.7028"/><ellipse cx="179.6875" cy="69.397" fill="#008400" rx="10.4167" ry="10.4167" style="stroke:#239C23;stroke-width:1.0416666666666667;"/><path d="M177.0915,66.5588 L177.0915,64.9719 L182.5175,64.9719 L182.5175,66.5588 L180.7048,66.5588 L180.7048,72.4976 L182.5175,72.4976 L182.5175,74.0845 L177.0915,74.0845 L177.0915,72.4976 L178.9042,72.4976 L178.9042,66.5588 Z " fill="#000000"/><text fill="#D8BC00" font-family="Open Sans,Avenir,Nunito,Arial,Helvetica,SansSerif" font-size="12.5" font-style="italic" font-weight="bold" lengthAdjust="spacing" textLength="86.4583" x="196.3542" y="74.1211">SettingsStore</text><line style="stroke:#5E5E5E;stroke-width:1.0416666666666667;" x1="166.1458" x2="288.0208" y1="85.0911" y2="85.0911"/><line style="stroke:#5E5E5E;stroke-width:1.0416666666666667;" x1="166.1458" x2="288.0208" y1="93.4245" y2="93.4245"/><!--MD5=[66558602ad01b7e781a6ed32053430b7]
class MemorySettingsStore--><rect codeLine="23" fill="#282828" height="48.055" id="MemorySettingsStore" rx="8.3333" ry="8.3333" style="stroke:#5E5E5E;stroke-width:1.0416666666666667;" width="176.0417" x="355.7292" y="181.8278"/><rect fill="#1B1B1A" height="31.3883" rx="8.3333" ry="8.3333" style="stroke:#1B1B1A;stroke-width:1.0416666666666667;" width="176.0417" x="355.7292" y="181.8278"/><rect fill="#1B1B1A" height="8.3333" style="stroke:#1B1B1A;stroke-width:1.0416666666666667;" width="176.0417" x="355.7292" y="204.8828"/><rect codeLine="23" fill="none" height="48.055" id="MemorySettingsStore" rx="8.3333" ry="8.3333" style="stroke:#5E5E5E;stroke-width:1.0416666666666667;" width="176.0417" x="355.7292" y="181.8278"/><ellipse cx="370.3125" cy="197.522" fill="#0066CF" rx="10.4167" ry="10.4167" style="stroke:#0086EF;stroke-width:1.0416666666666667;"/><path d="M372.2229,201.947 Q371.7957,202.1667 371.3257,202.2766 Q370.8557,202.3865 370.3369,202.3865 Q368.4937,202.3865 367.5232,201.1719 Q366.5527,199.9573 366.5527,197.6624 Q366.5527,195.3613 367.5232,194.1467 Q368.4937,192.9321 370.3369,192.9321 Q370.8557,192.9321 371.3318,193.042 Q371.8079,193.1519 372.2229,193.3716 L372.2229,195.3735 Q371.759,194.9463 371.3226,194.7479 Q370.8862,194.5496 370.4224,194.5496 Q369.4336,194.5496 368.9301,195.3339 Q368.4265,196.1182 368.4265,197.6624 Q368.4265,199.2004 368.9301,199.9847 Q369.4336,200.769 370.4224,200.769 Q370.8862,200.769 371.3226,200.5707 Q371.759,200.3723 372.2229,199.9451 Z " fill="#000000"/><text fill="#D8BC00" font-family="Open Sans,Avenir,Nunito,Arial,Helvetica,SansSerif" font-size="12.5" font-weight="bold" lengthAdjust="spacing" textLength="138.5417" x="386.9792" y="202.2461">MemorySettingsStore</text><line style="stroke:#5E5E5E;stroke-width:1.0416666666666667;" x1="356.7708" x2="530.7292" y1="213.2161" y2="213.2161"/><line style="stroke:#5E5E5E;stroke-width:1.0416666666666667;" x1="356.7708" x2="530.7292" y1="221.5495" y2="221.5495"/><!--MD5=[3b5a106971787e06b48569a9083d6e6d]
class ResourceFolderSettingsStore--><rect codeLine="28" fill="#282828" height="83.3781" id="ResourceFolderSettingsStore" rx="8.3333" ry="8.3333" style="stroke:#5E5E5E;stroke-width:1.0416666666666667;" width="364.5833" x="30.2083" y="309.9528"/><rect fill="#1B1B1A" height="31.3883" rx="8.3333" ry="8.3333" style="stroke:#1B1B1A;stroke-width:1.0416666666666667;" width="364.5833" x="30.2083" y="309.9528"/><rect fill="#1B1B1A" height="8.3333" style="stroke:#1B1B1A;stroke-width:1.0416666666666667;" width="364.5833" x="30.2083" y="333.0078"/><rect codeLine="28" fill="none" height="83.3781" id="ResourceFolderSettingsStore" rx="8.3333" ry="8.3333" style="stroke:#5E5E5E;stroke-width:1.0416666666666667;" width="364.5833" x="30.2083" y="309.9528"/><ellipse cx="112.5" cy="325.647" fill="#0066CF" rx="10.4167" ry="10.4167" style="stroke:#0086EF;stroke-width:1.0416666666666667;"/><path d="M114.4104,330.072 Q113.9832,330.2917 113.5132,330.4016 Q113.0432,330.5115 112.5244,330.5115 Q110.6812,330.5115 109.7107,329.2969 Q108.7402,328.0823 108.7402,325.7874 Q108.7402,323.4863 109.7107,322.2717 Q110.6812,321.0571 112.5244,321.0571 Q113.0432,321.0571 113.5193,321.167 Q113.9954,321.2769 114.4104,321.4966 L114.4104,323.4985 Q113.9465,323.0713 113.5101,322.8729 Q113.0737,322.6746 112.6099,322.6746 Q111.6211,322.6746 111.1176,323.4589 Q110.614,324.2432 110.614,325.7874 Q110.614,327.3254 111.1176,328.1097 Q111.6211,328.894 112.6099,328.894 Q113.0737,328.894 113.5101,328.6957 Q113.9465,328.4973 114.4104,328.0701 Z " fill="#000000"/><text fill="#D8BC00" font-family="Open Sans,Avenir,Nunito,Arial,Helvetica,SansSerif" font-size="12.5" font-weight="bold" lengthAdjust="spacing" textLength="185.4167" x="135.4167" y="330.3711">ResourceFolderSettingsStore</text><line style="stroke:#5E5E5E;stroke-width:1.5625;" x1="31.25" x2="393.75" y1="341.3411" y2="341.3411"/><ellipse cx="41.6667" cy="376.711" fill="#84BE84" rx="3.125" ry="3.125" style="stroke:#038048;stroke-width:1.0416666666666667;"/><text fill="#D8BC00" font-family="Open Sans,Avenir,Nunito,Arial,Helvetica,SansSerif" font-size="11.4583" lengthAdjust="spacing" textLength="332.2917" x="53.125" y="383.6222">ResourceFolderSettingsStore(Listener, ResourceFolder&lt;?&gt;)</text><line style="stroke:#5E5E5E;stroke-width:1.0416666666666667;" x1="31.25" x2="168.75" y1="359.5469" y2="359.5469"/><text fill="#D8BC00" font-family="Open Sans,Avenir,Nunito,Arial,Helvetica,SansSerif" font-size="11.4583" lengthAdjust="spacing" textLength="81.25" x="171.875" y="363.3565">(constructors)</text><line style="stroke:#5E5E5E;stroke-width:1.0416666666666667;" x1="256.25" x2="393.75" y1="359.5469" y2="359.5469"/><!--MD5=[0c70d2d85c62052df883be589a0c3f78]
reverse link BaseSettingsStore to BaseResourceSettingsStore--><path codeLine="13" d="M371.9063,112.4528 C344.5625,128.2861 311.75,147.2861 283.0104,163.9215 " fill="none" id="BaseSettingsStore-backto-BaseResourceSettingsStore" style="stroke:#545454;stroke-width:1.5625;"/><polygon fill="none" points="368.5938,105.9528,390.2813,101.8174,375.8958,118.5674,368.5938,105.9528" style="stroke:#545454;stroke-width:1.5625;"/><!--MD5=[ebdb872e39b0d6fd21e0197885f8dc0c]
reverse link SettingsStore to BaseResourceSettingsStore--><path codeLine="14" d="M221.9896,122.682 C220.4479,136.0778 218.75,150.7445 217.2188,163.9215 " fill="none" id="SettingsStore-backto-BaseResourceSettingsStore" style="stroke:#545454;stroke-width:1.5625;"/><polygon fill="none" points="214.7708,121.682,224.4063,101.8174,229.2604,123.359,214.7708,121.682" style="stroke:#545454;stroke-width:1.5625;"/><!--MD5=[3d4e22ac21b7a6924e9c5ef7d57e6c09]
reverse link RegistryTrait to BaseResourceSettingsStore--><path codeLine="15" d="M110.2188,115.7132 C127.6146,130.8486 147.7917,148.4111 165.6042,163.9215 " fill="none" id="RegistryTrait-backto-BaseResourceSettingsStore" style="stroke:#545454;stroke-width:1.5625;"/><polygon fill="none" points="105.1875,120.9945,94.2604,101.8174,114.7708,110.0049,105.1875,120.9945" style="stroke:#545454;stroke-width:1.5625;"/><!--MD5=[1a3c8116b973c2b349d54b57de3bb565]
reverse link BaseSettingsStore to MemorySettingsStore--><path codeLine="22" d="M434.9271,122.6403 C437.0729,142.557 439.5104,165.2861 441.2813,181.7757 " fill="none" id="BaseSettingsStore-backto-MemorySettingsStore" style="stroke:#545454;stroke-width:1.5625;"/><polygon fill="none" points="427.6667,123.3174,432.6875,101.8174,442.1667,121.7549,427.6667,123.3174" style="stroke:#545454;stroke-width:1.5625;"/><!--MD5=[4b3cf65016a19422c2dfc01f1c0f06e0]
reverse link BaseResourceSettingsStore to ResourceFolderSettingsStore--><path codeLine="27" d="M212.5,268.6924 C212.5,282.5465 212.5,296.9111 212.5,309.6715 " fill="none" id="BaseResourceSettingsStore-backto-ResourceFolderSettingsStore" style="stroke:#545454;stroke-width:1.5625;"/><polygon fill="none" points="205.2083,268.4736,212.5,247.6403,219.7917,268.4736,205.2083,268.4736" style="stroke:#545454;stroke-width:1.5625;"/><!--MD5=[92a4be18c269ee61f57e5f4fce831d12]
@startuml

    !include lexakai.theme
    
    title "com.telenav.kivakit.settings.stores"
    
    abstract BaseResourceSettingsStore
    abstract BaseSettingsStore
    
    interface RegistryTrait
    interface SettingsStore
    
    BaseSettingsStore <|- - BaseResourceSettingsStore
    SettingsStore <|- - BaseResourceSettingsStore
    RegistryTrait <|- - BaseResourceSettingsStore
    abstract class BaseResourceSettingsStore
    {
        - -(read)- -
        #SettingsObject read(Resource)
    }
    
    BaseSettingsStore <|- - MemorySettingsStore
    class MemorySettingsStore
    {
    }
    
    BaseResourceSettingsStore <|- - ResourceFolderSettingsStore
    class ResourceFolderSettingsStore
    {
        - -(constructors)- -
        +ResourceFolderSettingsStore(Listener, ResourceFolder<?>)
    }
    
@enduml

@startuml









skinparam backgroundColor #333333






skinparam  {
    defaultFontName   "Open Sans,Avenir,Nunito,Arial,Helvetica,SansSerif"
    defaultFontSize   12
    defaultTextAlignment left
    shadowing false
    RoundCorner 10
    TitleFontSize 18
}

skinparam defaultFontName       "Open Sans,Avenir,Nunito,Arial,Helvetica,SansSerif"
skinparam defaultFontSize       12
skinparam dpi                   100
skinparam shadowing             false
skinparam roundcorner           16
skinparam ParticipantPadding    40
skinparam BoxPadding            40
skinparam Padding               3
skinparam ArrowColor            #545454
skinparam stereotype {
    CBackgroundColor #0066cf
    CBorderColor #0086ef
    ABackgroundColor #C8Ac00
    ABorderColor #D8Bc00
    IBackgroundColor #008400
    IBorderColor #239c23
    EBackgroundColor #cf6300
    EBorderColor #ef8300
    NBackgroundColor #3380b9
    NBorderColor #004d86
}
skinparam title {
	FontColor	                 #c0c0c0
 	BorderColor                  #545454
	FontSize	    	         20
	BorderRoundCorner            16
	BorderThickness 	         1
	BackgroundColor              #48494b
}


skinparam legend {
	BackgroundColor #303030
	BorderColor #404040
	FontColor #a0a0a0
}

	skinparam swimlane {
	BorderColor #5e5e5e
	BorderThickness 2
	TitleBackgroundColor  #6d6d6d-#484848
	TitleFontColor #303030
}

skinparam activity {
		FontColor #C8Ac00
	BorderColor #333333
	BackgroundColor #333333-#333333
	BarColor #00FF00
	StartColor #0060a8
	EndColor #0060a8
	DiamondBackgroundColor #6d6d6d-#3a3a3a
  	DiamondBorderColor #3a3a3a
  	DiamondFontColor #fefefe
}


skinparam participant {
		FontColor #C8Ac00
	BorderColor #333333
	BackgroundColor #333333-#333333
	ParticipantBorderThickness 2
}


skinparam actor {
		FontColor #C8Ac00
	BorderColor #333333
	BackgroundColor #333333-#333333
}


skinparam arrow {
	Thickness 1.5
	Color #545454
	FontColor #a0a0a0
    FontStyle bold
    MessageAlignment center
}



skinparam sequence {
	BorderColor #303030
	TitleFontColor #303030
	BackgroundColor #333333
	StartColor #303030
	EndColor #303030
	BoxBackgroundColor #333333
	BoxBorderColor #484848
	BoxFontColor #484848
	LifeLineBorderColor #484848
	LifeLineBorderThickness 2
	LifeLineBackgroundColor #3a3a3a
	GroupBorderColor #484848
	GroupFontColor #484848
	GroupHeaderFontColor #0060a8
	GroupBackgroundColor #484848
	GroupHeaderBackgroundColor #333333
	DividerBackgroundColor #484848
    DividerBorderColor #484848
    DividerBorderThickness 2
    DividerFontColor #D8Bc00
	ReferenceBackgroundColor #333333
	ReferenceBorderColor #484848
	ReferenceFontColor #fefefe
	ReferenceHeaderBackgroundColor #484848
}


skinparam partition {
	BorderColor #303030
	FontColor #333333
	BackgroundColor #333333
}


skinparam collections {
		FontColor #C8Ac00
	BorderColor #333333
	BackgroundColor #333333-#333333
}


skinparam control {
		FontColor #C8Ac00
	BorderColor #333333
	BackgroundColor #333333-#333333
}


skinparam entity {
		FontColor #C8Ac00
	BorderColor #333333
	BackgroundColor #333333-#333333
}


skinparam boundary {
		FontColor #C8Ac00
	BorderColor #333333
	BackgroundColor #333333-#333333
}


skinparam agent {
	BackgroundColor #ff8000
	BorderColor #ff9933
	FontColor #484848
}


skinparam note {
	BorderThickness 1
	BackgroundColor #1b1b1a
	BorderColor #5e5e5e
	FontSize 11
	FontColor #a0a0a0
}


skinparam artifact {
	BorderThickness 10
	BorderColor #5e5e5e
	BackgroundColor #1b1b1a
	FontColor #D8Bc00
}


skinparam component {
		FontColor #C8Ac00
	BorderColor #333333
	BackgroundColor #333333-#333333
}


skinparam interface {
	BackgroundColor  #008400
	BorderColor  #007F00
	FontColor #484848
}


skinparam storage {
	BackgroundColor #ff8000
  	BorderColor #cc6600
	FontColor #222222
}


skinparam node {
	BackgroundColor #333333
	BorderColor #333333
	FontColor #C8Ac00
}


skinparam cloud {
	BackgroundColor #484848-black
	BorderColor #484848
	FontColor #D8Bc00
}


skinparam database {
		FontColor #C8Ac00
	BorderColor #333333
	BackgroundColor #333333-#333333
	BackgroundColor  #333333
}


skinparam class {
		FontColor #C8Ac00
	BorderColor #333333
	BackgroundColor #333333-#333333
	HeaderBackgroundColor #1b1b1a
    BackgroundColor #282828
    BorderColor #5e5e5e
 	StereotypeFontColor #a0a0a0
    StereotypeFontStyle bold
	BorderThickness 1
	AttributeFontColor #D8Bc00
	AttributeFontSize 11
    FontColor #D8Bc00
    FontStyle bold
}


skinparam object {
		FontColor #C8Ac00
	BorderColor #333333
	BackgroundColor #333333-#333333
	StereotypeFontColor #484848
	BorderThickness 1
	AttributeFontColor #fefefe
	AttributeFontSize 11
}


skinparam usecase {
		FontColor #C8Ac00
	BorderColor #333333
	BackgroundColor #333333-#333333
	BorderThickness 2
	StereotypeFontColor #303030
}


skinparam rectangle {
		FontColor #C8Ac00
	BorderColor #333333
	BackgroundColor #333333-#333333
	BackgroundColor #333333
	BorderThickness 2
	StereotypeFontColor #303030
}


skinparam package {
		FontColor #C8Ac00
	BorderColor #333333
	BackgroundColor #333333-#333333
	BackgroundColor #333333
	BorderThickness 2
}


skinparam folder {
	BackgroundColor #6d6d6d
  	BorderColor #ff8000
	FontColor #ff8000
	BorderThickness 2
}


skinparam frame {
	BackgroundColor #6d6d6d
  	BorderColor #0060a8
	FontColor #0060a8
	BorderThickness 2
}


skinparam state {
		FontColor #C8Ac00
	BorderColor #333333
	BackgroundColor #333333-#333333
	StartColor #0060a8
	EndColor #0060a8
	AttributeFontColor #fefefe
	AttributeFontSize 11
}


skinparam queue {
		FontColor #C8Ac00
	BorderColor #333333
	BackgroundColor #333333-#333333
}


skinparam card {
	BackgroundColor #0060a8
	BorderColor #004d86
	FontColor $INFO_TEXT
}


skinparam file {
	BackgroundColor #6d6d6d-#484848
	BorderColor #0060a8
	FontColor #fefefe
}


skinparam stack {
		FontColor #C8Ac00
	BorderColor #333333
	BackgroundColor #333333-#333333
}

    
    title "com.telenav.kivakit.settings.stores"
    
    abstract BaseResourceSettingsStore
    abstract BaseSettingsStore
    
    interface RegistryTrait
    interface SettingsStore
    
    BaseSettingsStore <|- - BaseResourceSettingsStore
    SettingsStore <|- - BaseResourceSettingsStore
    RegistryTrait <|- - BaseResourceSettingsStore
    abstract class BaseResourceSettingsStore
    {
        - -(read)- -
        #SettingsObject read(Resource)
    }
    
    BaseSettingsStore <|- - MemorySettingsStore
    class MemorySettingsStore
    {
    }
    
    BaseResourceSettingsStore <|- - ResourceFolderSettingsStore
    class ResourceFolderSettingsStore
    {
        - -(constructors)- -
        +ResourceFolderSettingsStore(Listener, ResourceFolder<?>)
    }
    
@enduml

PlantUML version 1.2021.01(Tue Feb 02 00:55:08 MST 2021)
(GPL source distribution)
Java Runtime: OpenJDK Runtime Environment
JVM: OpenJDK 64-Bit Server VM
Default Encoding: UTF-8
Language: en
Country: US
--></g></svg>