<?xml version="1.0" encoding="UTF-8" standalone="no"?><svg xmlns="http://www.w3.org/2000/svg" xmlns:xlink="http://www.w3.org/1999/xlink" contentScriptType="application/ecmascript" contentStyleType="text/css" height="607.2917px" preserveAspectRatio="none" style="width:764px;height:607px;background:#333333;" version="1.1" viewBox="0 0 764 607" width="764.5833px" zoomAndPan="magnify"><defs/><g><rect fill="#48494B" height="41.2028" rx="8.3333" ry="8.3333" style="stroke:#545454;stroke-width:1.0416666666666667;" width="438.5417" x="154.9427" y="2.0833"/><text fill="#C0C0C0" font-family="Open Sans,Avenir,Nunito,Arial,Helvetica,SansSerif" font-size="20.8333" lengthAdjust="spacing" textLength="415.625" x="166.401" y="30.5583">com.telenav.kivakit.service.registry.server</text><!--MD5=[c60af77fe5573b84a4aa4bce89659574]
class Server--><rect fill="#282828" height="48.055" id="Server" rx="8.3333" ry="8.3333" style="stroke:#5E5E5E;stroke-width:1.0416666666666667;" width="77.0833" x="124.9896" y="53.7028"/><rect fill="#1B1B1A" height="31.3883" rx="8.3333" ry="8.3333" style="stroke:#1B1B1A;stroke-width:1.0416666666666667;" width="77.0833" x="124.9896" y="53.7028"/><rect fill="#1B1B1A" height="8.3333" style="stroke:#1B1B1A;stroke-width:1.0416666666666667;" width="77.0833" x="124.9896" y="76.7578"/><rect fill="none" height="48.055" id="Server" rx="8.3333" ry="8.3333" style="stroke:#5E5E5E;stroke-width:1.0416666666666667;" width="77.0833" x="124.9896" y="53.7028"/><ellipse cx="139.5729" cy="69.397" fill="#0066CF" rx="10.4167" ry="10.4167" style="stroke:#0086EF;stroke-width:1.0416666666666667;"/><path d="M141.4833,73.822 Q141.0561,74.0417 140.5861,74.1516 Q140.1161,74.2615 139.5973,74.2615 Q137.7541,74.2615 136.7836,73.0469 Q135.8132,71.8323 135.8132,69.5374 Q135.8132,67.2363 136.7836,66.0217 Q137.7541,64.8071 139.5973,64.8071 Q140.1161,64.8071 140.5922,64.917 Q141.0683,65.0269 141.4833,65.2466 L141.4833,67.2485 Q141.0194,66.8213 140.583,66.6229 Q140.1466,66.4246 139.6828,66.4246 Q138.694,66.4246 138.1905,67.2089 Q137.6869,67.9932 137.6869,69.5374 Q137.6869,71.0754 138.1905,71.8597 Q138.694,72.644 139.6828,72.644 Q140.1466,72.644 140.583,72.4457 Q141.0194,72.2473 141.4833,71.8201 Z " fill="#000000"/><text fill="#D8BC00" font-family="Open Sans,Avenir,Nunito,Arial,Helvetica,SansSerif" font-size="12.5" font-weight="bold" lengthAdjust="spacing" textLength="39.5833" x="156.2396" y="74.1211">Server</text><line style="stroke:#5E5E5E;stroke-width:1.0416666666666667;" x1="126.0313" x2="201.0313" y1="85.0911" y2="85.0911"/><line style="stroke:#5E5E5E;stroke-width:1.0416666666666667;" x1="126.0313" x2="201.0313" y1="93.4245" y2="93.4245"/><!--MD5=[7cfe79547bc1e5b29fd1ea5cd5cb5813]
class ServiceRegistryServer--><rect codeLine="14" fill="#282828" height="301.6602" id="ServiceRegistryServer" rx="8.3333" ry="8.3333" style="stroke:#5E5E5E;stroke-width:1.0416666666666667;" width="200" x="63.5313" y="165.1611"/><rect fill="#1B1B1A" height="31.3883" rx="8.3333" ry="8.3333" style="stroke:#1B1B1A;stroke-width:1.0416666666666667;" width="200" x="63.5313" y="165.1611"/><rect fill="#1B1B1A" height="8.3333" style="stroke:#1B1B1A;stroke-width:1.0416666666666667;" width="200" x="63.5313" y="188.2161"/><rect codeLine="14" fill="none" height="301.6602" id="ServiceRegistryServer" rx="8.3333" ry="8.3333" style="stroke:#5E5E5E;stroke-width:1.0416666666666667;" width="200" x="63.5313" y="165.1611"/><ellipse cx="89.3646" cy="180.8553" fill="#0066CF" rx="10.4167" ry="10.4167" style="stroke:#0086EF;stroke-width:1.0416666666666667;"/><path d="M91.275,185.2804 Q90.8477,185.5001 90.3778,185.6099 Q89.9078,185.7198 89.389,185.7198 Q87.5457,185.7198 86.5753,184.5052 Q85.6048,183.2906 85.6048,180.9957 Q85.6048,178.6947 86.5753,177.4801 Q87.5457,176.2655 89.389,176.2655 Q89.9078,176.2655 90.3839,176.3753 Q90.8599,176.4852 91.275,176.7049 L91.275,178.7069 Q90.8111,178.2796 90.3747,178.0813 Q89.9383,177.8829 89.4744,177.8829 Q88.4857,177.8829 87.9821,178.6672 Q87.4786,179.4515 87.4786,180.9957 Q87.4786,182.5338 87.9821,183.3181 Q88.4857,184.1024 89.4744,184.1024 Q89.9383,184.1024 90.3747,183.904 Q90.8111,183.7056 91.275,183.2784 Z " fill="#000000"/><text fill="#D8BC00" font-family="Open Sans,Avenir,Nunito,Arial,Helvetica,SansSerif" font-size="12.5" font-weight="bold" lengthAdjust="spacing" textLength="137.5" x="108.5313" y="185.5794">ServiceRegistryServer</text><line style="stroke:#5E5E5E;stroke-width:1.5625;" x1="64.5729" x2="262.4896" y1="196.5495" y2="196.5495"/><polygon fill="#FFFF44" points="74.9896,226.711,79.1563,230.8777,74.9896,235.0444,70.8229,230.8777" style="stroke:#B38D22;stroke-width:1.0416666666666667;"/><text fill="#D8BC00" font-family="Open Sans,Avenir,Nunito,Arial,Helvetica,SansSerif" font-size="11.4583" lengthAdjust="spacing" textLength="129.1667" x="86.4479" y="238.8306">ServiceRegistryServer()</text><line style="stroke:#5E5E5E;stroke-width:1.0416666666666667;" x1="64.5729" x2="119.7813" y1="214.7552" y2="214.7552"/><text fill="#D8BC00" font-family="Open Sans,Avenir,Nunito,Arial,Helvetica,SansSerif" font-size="11.4583" lengthAdjust="spacing" textLength="81.25" x="122.9063" y="218.5649">(constructors)</text><line style="stroke:#5E5E5E;stroke-width:1.0416666666666667;" x1="207.2813" x2="262.4896" y1="214.7552" y2="214.7552"/><line style="stroke:#5E5E5E;stroke-width:1.0416666666666667;" x1="64.5729" x2="262.4896" y1="248.5392" y2="248.5392"/><ellipse cx="74.9896" cy="259.9976" fill="#84BE84" rx="3.125" ry="3.125" style="stroke:#038048;stroke-width:1.0416666666666667;"/><text fill="#D8BC00" font-family="Open Sans,Avenir,Nunito,Arial,Helvetica,SansSerif" font-size="11.4583" lengthAdjust="spacing" textLength="167.7083" x="86.4479" y="266.9088">void main(String[] arguments)</text><ellipse cx="74.9896" cy="279.7424" fill="#84BE84" rx="3.125" ry="3.125" style="stroke:#038048;stroke-width:1.0416666666666667;"/><text fill="#D8BC00" font-family="Open Sans,Avenir,Nunito,Arial,Helvetica,SansSerif" font-size="11.4583" lengthAdjust="spacing" textLength="108.3333" x="86.4479" y="286.6536">Scope.Type scope()</text><ellipse cx="74.9896" cy="323.3988" fill="#84BE84" rx="3.125" ry="3.125" style="stroke:#038048;stroke-width:1.0416666666666667;"/><text fill="#D8BC00" font-family="Open Sans,Avenir,Nunito,Arial,Helvetica,SansSerif" font-size="11.4583" lengthAdjust="spacing" textLength="94.7917" x="86.4479" y="330.3101">boolean isLocal()</text><line style="stroke:#5E5E5E;stroke-width:1.0416666666666667;" x1="64.5729" x2="136.9688" y1="306.2347" y2="306.2347"/><text fill="#D8BC00" font-family="Open Sans,Avenir,Nunito,Arial,Helvetica,SansSerif" font-size="11.4583" lengthAdjust="spacing" textLength="46.875" x="140.0938" y="310.0444">(checks)</text><line style="stroke:#5E5E5E;stroke-width:1.0416666666666667;" x1="190.0938" x2="262.4896" y1="306.2347" y2="306.2347"/><ellipse cx="74.9896" cy="367.0553" fill="#84BE84" rx="3.125" ry="3.125" style="stroke:#038048;stroke-width:1.0416666666666667;"/><text fill="#D8BC00" font-family="Open Sans,Avenir,Nunito,Arial,Helvetica,SansSerif" font-size="11.4583" lengthAdjust="spacing" textLength="111.4583" x="86.4479" y="373.9665">boolean isNetwork()</text><ellipse cx="74.9896" cy="386.8001" fill="#84BE84" rx="3.125" ry="3.125" style="stroke:#038048;stroke-width:1.0416666666666667;"/><text fill="#D8BC00" font-family="Open Sans,Avenir,Nunito,Arial,Helvetica,SansSerif" font-size="11.4583" lengthAdjust="spacing" textLength="50" x="86.4479" y="393.7113">int port()</text><line style="stroke:#5E5E5E;stroke-width:1.0416666666666667;" x1="64.5729" x2="133.8438" y1="349.8912" y2="349.8912"/><text fill="#D8BC00" font-family="Open Sans,Avenir,Nunito,Arial,Helvetica,SansSerif" font-size="11.4583" lengthAdjust="spacing" textLength="53.125" x="136.9688" y="353.7008">(network)</text><line style="stroke:#5E5E5E;stroke-width:1.0416666666666667;" x1="193.2188" x2="262.4896" y1="349.8912" y2="349.8912"/><ellipse cx="74.9896" cy="430.4565" fill="#84BE84" rx="3.125" ry="3.125" style="stroke:#038048;stroke-width:1.0416666666666667;"/><text fill="#D8BC00" font-family="Open Sans,Avenir,Nunito,Arial,Helvetica,SansSerif" font-size="11.4583" lengthAdjust="spacing" textLength="150" x="86.4479" y="437.3678">ServiceRegistryServer get()</text><ellipse cx="74.9896" cy="450.2014" fill="#84BE84" rx="3.125" ry="3.125" style="stroke:#038048;stroke-width:1.0416666666666667;"/><text fill="#D8BC00" font-family="Open Sans,Avenir,Nunito,Arial,Helvetica,SansSerif" font-size="11.4583" lengthAdjust="spacing" textLength="140.625" x="86.4479" y="457.1126">ServiceRegistry registry()</text><line style="stroke:#5E5E5E;stroke-width:1.0416666666666667;" x1="64.5729" x2="136.4479" y1="413.2924" y2="413.2924"/><text fill="#D8BC00" font-family="Open Sans,Avenir,Nunito,Arial,Helvetica,SansSerif" font-size="11.4583" lengthAdjust="spacing" textLength="47.9167" x="139.5729" y="417.1021">(service)</text><line style="stroke:#5E5E5E;stroke-width:1.0416666666666667;" x1="190.6146" x2="262.4896" y1="413.2924" y2="413.2924"/><!--MD5=[c17517e84f87e33d8c5ecd7268aea74c]
class ServiceRegistry--><rect fill="#282828" height="48.055" id="ServiceRegistry" rx="8.3333" ry="8.3333" style="stroke:#5E5E5E;stroke-width:1.0416666666666667;" width="135.4167" x="42.6979" y="552.6611"/><rect fill="#1B1B1A" height="31.3883" rx="8.3333" ry="8.3333" style="stroke:#1B1B1A;stroke-width:1.0416666666666667;" width="135.4167" x="42.6979" y="552.6611"/><rect fill="#1B1B1A" height="8.3333" style="stroke:#1B1B1A;stroke-width:1.0416666666666667;" width="135.4167" x="42.6979" y="575.7161"/><rect fill="none" height="48.055" id="ServiceRegistry" rx="8.3333" ry="8.3333" style="stroke:#5E5E5E;stroke-width:1.0416666666666667;" width="135.4167" x="42.6979" y="552.6611"/><ellipse cx="57.2813" cy="568.3553" fill="#0066CF" rx="10.4167" ry="10.4167" style="stroke:#0086EF;stroke-width:1.0416666666666667;"/><path d="M59.1917,572.7804 Q58.7644,573.0001 58.2944,573.1099 Q57.8245,573.2198 57.3057,573.2198 Q55.4624,573.2198 54.4919,572.0052 Q53.5215,570.7906 53.5215,568.4957 Q53.5215,566.1947 54.4919,564.9801 Q55.4624,563.7655 57.3057,563.7655 Q57.8245,563.7655 58.3005,563.8753 Q58.7766,563.9852 59.1917,564.2049 L59.1917,566.2069 Q58.7278,565.7796 58.2914,565.5813 Q57.855,565.3829 57.3911,565.3829 Q56.4023,565.3829 55.8988,566.1672 Q55.3953,566.9515 55.3953,568.4957 Q55.3953,570.0338 55.8988,570.8181 Q56.4023,571.6024 57.3911,571.6024 Q57.855,571.6024 58.2914,571.404 Q58.7278,571.2056 59.1917,570.7784 Z " fill="#000000"/><text fill="#D8BC00" font-family="Open Sans,Avenir,Nunito,Arial,Helvetica,SansSerif" font-size="12.5" font-weight="bold" lengthAdjust="spacing" textLength="97.9167" x="73.9479" y="573.0794">ServiceRegistry</text><line style="stroke:#5E5E5E;stroke-width:1.0416666666666667;" x1="43.7396" x2="177.0729" y1="584.0495" y2="584.0495"/><line style="stroke:#5E5E5E;stroke-width:1.0416666666666667;" x1="43.7396" x2="177.0729" y1="592.3828" y2="592.3828"/><!--MD5=[ec148f7300996f31693711824818abeb]
class ServiceRegistryStore--><rect fill="#282828" height="48.055" id="ServiceRegistryStore" rx="8.3333" ry="8.3333" style="stroke:#5E5E5E;stroke-width:1.0416666666666667;" width="168.75" x="234.3646" y="552.6611"/><rect fill="#1B1B1A" height="31.3883" rx="8.3333" ry="8.3333" style="stroke:#1B1B1A;stroke-width:1.0416666666666667;" width="168.75" x="234.3646" y="552.6611"/><rect fill="#1B1B1A" height="8.3333" style="stroke:#1B1B1A;stroke-width:1.0416666666666667;" width="168.75" x="234.3646" y="575.7161"/><rect fill="none" height="48.055" id="ServiceRegistryStore" rx="8.3333" ry="8.3333" style="stroke:#5E5E5E;stroke-width:1.0416666666666667;" width="168.75" x="234.3646" y="552.6611"/><ellipse cx="248.9479" cy="568.3553" fill="#0066CF" rx="10.4167" ry="10.4167" style="stroke:#0086EF;stroke-width:1.0416666666666667;"/><path d="M250.8583,572.7804 Q250.4311,573.0001 249.9611,573.1099 Q249.4911,573.2198 248.9723,573.2198 Q247.1291,573.2198 246.1586,572.0052 Q245.1882,570.7906 245.1882,568.4957 Q245.1882,566.1947 246.1586,564.9801 Q247.1291,563.7655 248.9723,563.7655 Q249.4911,563.7655 249.9672,563.8753 Q250.4433,563.9852 250.8583,564.2049 L250.8583,566.2069 Q250.3944,565.7796 249.958,565.5813 Q249.5216,565.3829 249.0578,565.3829 Q248.069,565.3829 247.5655,566.1672 Q247.0619,566.9515 247.0619,568.4957 Q247.0619,570.0338 247.5655,570.8181 Q248.069,571.6024 249.0578,571.6024 Q249.5216,571.6024 249.958,571.404 Q250.3944,571.2056 250.8583,570.7784 Z " fill="#000000"/><text fill="#D8BC00" font-family="Open Sans,Avenir,Nunito,Arial,Helvetica,SansSerif" font-size="12.5" font-weight="bold" lengthAdjust="spacing" textLength="131.25" x="265.6146" y="573.0794">ServiceRegistryStore</text><line style="stroke:#5E5E5E;stroke-width:1.0416666666666667;" x1="235.4063" x2="402.0729" y1="584.0495" y2="584.0495"/><line style="stroke:#5E5E5E;stroke-width:1.0416666666666667;" x1="235.4063" x2="402.0729" y1="592.3828" y2="592.3828"/><path d="M300.5104,309.432 L300.5104,312.0361 L263.5729,316.2028 L300.5104,320.3695 L300.5104,322.9268 A8.3333,8.3333 0 0 0 308.8438,331.2602 L747.3854,331.2602 A8.3333,8.3333 0 0 0 755.7188,322.9268 L755.7188,311.5153 L745.3021,301.0986 L308.8438,301.0986 A8.3333,8.3333 0 0 0 300.5104,309.432 " fill="#1B1B1A" style="stroke:#5E5E5E;stroke-width:1.0416666666666667;"/><path d="M745.3021,301.0986 L745.3021,307.3486 A4.1667,4.1667 0 0 0 749.4688,311.5153 L755.7188,311.5153 L745.3021,301.0986 " fill="#1B1B1A" style="stroke:#5E5E5E;stroke-width:1.0416666666666667;"/><text fill="#A0A0A0" font-family="Open Sans,Avenir,Nunito,Arial,Helvetica,SansSerif" font-size="11.4583" lengthAdjust="spacing" textLength="427.0833" x="309.8854" y="320.5098">For REST API details, refer to Swagger documentation provided by this server</text><!--MD5=[0256714261c00437992d1481a44c3ef3]
class ServiceRegistryServerSettings--><rect codeLine="31" fill="#282828" height="48.055" id="ServiceRegistryServerSettings" rx="8.3333" ry="8.3333" style="stroke:#5E5E5E;stroke-width:1.0416666666666667;" width="228.125" x="239.0521" y="53.7028"/><rect fill="#1B1B1A" height="31.3883" rx="8.3333" ry="8.3333" style="stroke:#1B1B1A;stroke-width:1.0416666666666667;" width="228.125" x="239.0521" y="53.7028"/><rect fill="#1B1B1A" height="8.3333" style="stroke:#1B1B1A;stroke-width:1.0416666666666667;" width="228.125" x="239.0521" y="76.7578"/><rect codeLine="31" fill="none" height="48.055" id="ServiceRegistryServerSettings" rx="8.3333" ry="8.3333" style="stroke:#5E5E5E;stroke-width:1.0416666666666667;" width="228.125" x="239.0521" y="53.7028"/><ellipse cx="253.6354" cy="69.397" fill="#0066CF" rx="10.4167" ry="10.4167" style="stroke:#0086EF;stroke-width:1.0416666666666667;"/><path d="M255.5458,73.822 Q255.1186,74.0417 254.6486,74.1516 Q254.1786,74.2615 253.6598,74.2615 Q251.8166,74.2615 250.8461,73.0469 Q249.8757,71.8323 249.8757,69.5374 Q249.8757,67.2363 250.8461,66.0217 Q251.8166,64.8071 253.6598,64.8071 Q254.1786,64.8071 254.6547,64.917 Q255.1308,65.0269 255.5458,65.2466 L255.5458,67.2485 Q255.0819,66.8213 254.6455,66.6229 Q254.2091,66.4246 253.7453,66.4246 Q252.7565,66.4246 252.253,67.2089 Q251.7494,67.9932 251.7494,69.5374 Q251.7494,71.0754 252.253,71.8597 Q252.7565,72.644 253.7453,72.644 Q254.2091,72.644 254.6455,72.4457 Q255.0819,72.2473 255.5458,71.8201 Z " fill="#000000"/><text fill="#D8BC00" font-family="Open Sans,Avenir,Nunito,Arial,Helvetica,SansSerif" font-size="12.5" font-weight="bold" lengthAdjust="spacing" textLength="190.625" x="270.3021" y="74.1211">ServiceRegistryServerSettings</text><line style="stroke:#5E5E5E;stroke-width:1.0416666666666667;" x1="240.0938" x2="466.1354" y1="85.0911" y2="85.0911"/><line style="stroke:#5E5E5E;stroke-width:1.0416666666666667;" x1="240.0938" x2="466.1354" y1="93.4245" y2="93.4245"/><!--MD5=[d34d0413b2cd163e6d65266d7dfe9acd]
reverse link Server to ServiceRegistryServer--><path codeLine="6" d="M163.5313,122.7965 C163.5313,135.3799 163.5313,149.8486 163.5313,165.0778 " fill="none" id="Server-backto-ServiceRegistryServer" style="stroke:#545454;stroke-width:1.5625;"/><polygon fill="none" points="156.2396,122.6403,163.5313,101.807,170.8229,122.6403,156.2396,122.6403" style="stroke:#545454;stroke-width:1.5625;"/><!--MD5=[c2641deb04fad1a1176fd4cdc76acd93]
link ServiceRegistryServer to ServiceRegistry--><path codeLine="7" d="M63.4375,411.7132 C42.2292,437.5986 22.8229,467.2236 11.4479,498.4945 C7.9583,508.0674 6.25,512.6507 11.4479,521.4111 C18.3229,533.0153 28.6563,542.2965 40.0938,549.6611 " fill="none" id="ServiceRegistryServer-to-ServiceRegistry" style="stroke:#545454;stroke-width:1.5625;"/><polygon fill="#545454" points="44.7083,552.4945,38.8999,544.0379,40.2701,549.7689,34.539,551.1392,44.7083,552.4945" style="stroke:#545454;stroke-width:1.5625;"/><text fill="#A0A0A0" font-family="Open Sans,Avenir,Nunito,Arial,Helvetica,SansSerif" font-size="12.5" font-weight="bold" lengthAdjust="spacing" textLength="45.8333" x="15.6146" y="514.7461">creates</text><!--MD5=[c2641deb04fad1a1176fd4cdc76acd93]
link ServiceRegistryServer to ServiceRegistry--><path codeLine="8" d="M113.2188,467.2653 C110.8646,477.7549 108.8333,488.234 107.2813,498.4945 C104.8438,514.5361 105.4167,532.6507 106.6875,547.2861 " fill="none" id="ServiceRegistryServer-to-ServiceRegistry-1" style="stroke:#545454;stroke-width:1.5625;"/><polygon fill="#545454" points="107.1875,552.5153,110.4505,542.7888,106.6958,547.3302,102.1544,543.5755,107.1875,552.5153" style="stroke:#545454;stroke-width:1.5625;"/><text fill="#A0A0A0" font-family="Open Sans,Avenir,Nunito,Arial,Helvetica,SansSerif" font-size="12.5" font-weight="bold" lengthAdjust="spacing" textLength="56.25" x="111.4479" y="514.7461">searches</text><!--MD5=[c2641deb04fad1a1176fd4cdc76acd93]
link ServiceRegistryServer to ServiceRegistry--><path codeLine="9" d="M189.7083,467.4736 C188.1042,486.1924 183.9375,504.6299 176.0313,521.4111 C171.0521,531.9736 162.8854,541.182 153.9792,548.859 " fill="none" id="ServiceRegistryServer-to-ServiceRegistry-2" style="stroke:#545454;stroke-width:1.5625;"/><polygon fill="#545454" points="149.5625,552.5049,159.4442,549.7474,153.5782,549.1882,154.1375,543.3222,149.5625,552.5049" style="stroke:#545454;stroke-width:1.5625;"/><text fill="#A0A0A0" font-family="Open Sans,Avenir,Nunito,Arial,Helvetica,SansSerif" font-size="12.5" font-weight="bold" lengthAdjust="spacing" textLength="52.0833" x="188.5313" y="514.7461">updates</text><!--MD5=[9e57db715d09d0af946ad0a541f38063]
link ServiceRegistryServer to ServiceRegistryStore--><path codeLine="10" d="M253.8125,467.5153 C272.2604,498.2132 289.7188,527.2757 301.875,547.5153 " fill="none" id="ServiceRegistryServer-to-ServiceRegistryStore" style="stroke:#545454;stroke-width:1.5625;"/><polygon fill="#545454" points="304.8542,552.4632,303.6037,542.2805,302.1745,547.9971,296.4579,546.568,304.8542,552.4632" style="stroke:#545454;stroke-width:1.5625;"/><text fill="#A0A0A0" font-family="Open Sans,Avenir,Nunito,Arial,Helvetica,SansSerif" font-size="12.5" font-weight="bold" lengthAdjust="spacing" textLength="69.7917" x="289.5729" y="514.7461">persists to</text><!--MD5=[20b599b024506f13f696dacdb458944f]
@startuml

    !include ../lexakai/lexakai.theme
    
    title "com.telenav.kivakit.service.registry.server"
    
    Server <|- - ServiceRegistryServer
    ServiceRegistryServer - -> ServiceRegistry : "creates"
    ServiceRegistryServer - -> ServiceRegistry : "searches"
    ServiceRegistryServer - -> ServiceRegistry : "updates"
    ServiceRegistryServer - -> ServiceRegistryStore : "persists to"
    note right of ServiceRegistryServer
        For REST API details, refer to Swagger documentation provided by this server
    endnote
    class ServiceRegistryServer
    {
        - -(constructors)- -
        #ServiceRegistryServer()
        - -
        +void main(String[] arguments)
        +Scope.Type scope()
        - -(checks)- -
        +boolean isLocal()
        - -(network)- -
        +boolean isNetwork()
        +int port()
        - -(service)- -
        +ServiceRegistryServer get()
        +ServiceRegistry registry()
    }
    
    class ServiceRegistryServerSettings
    {
    }
    
@enduml

@startuml









skinparam backgroundColor #333333






skinparam  {
    defaultFontName   "Open Sans,Avenir,Nunito,Arial,Helvetica,SansSerif"
    defaultFontSize   12
    defaultTextAlignment left
    shadowing false
    RoundCorner 10
    TitleFontSize 18
}

skinparam defaultFontName       "Open Sans,Avenir,Nunito,Arial,Helvetica,SansSerif"
skinparam defaultFontSize       12
skinparam dpi                   100
skinparam shadowing             false
skinparam roundcorner           16
skinparam ParticipantPadding    40
skinparam BoxPadding            40
skinparam Padding               3
skinparam ArrowColor            #545454
skinparam stereotype {
    CBackgroundColor #0066cf
    CBorderColor #0086ef
    ABackgroundColor #C8Ac00
    ABorderColor #D8Bc00
    IBackgroundColor #008400
    IBorderColor #239c23
    EBackgroundColor #cf6300
    EBorderColor #ef8300
    NBackgroundColor #3380b9
    NBorderColor #004d86
}
skinparam title {
	FontColor	                 #c0c0c0
 	BorderColor                  #545454
	FontSize	    	         20
	BorderRoundCorner            16
	BorderThickness 	         1
	BackgroundColor              #48494b
}


skinparam legend {
	BackgroundColor #303030
	BorderColor #404040
	FontColor #a0a0a0
}

	skinparam swimlane {
	BorderColor #5e5e5e
	BorderThickness 2
	TitleBackgroundColor  #6d6d6d-#484848
	TitleFontColor #303030
}

skinparam activity {
		FontColor #C8Ac00
	BorderColor #333333
	BackgroundColor #333333-#333333
	BarColor #00FF00
	StartColor #0060a8
	EndColor #0060a8
	DiamondBackgroundColor #6d6d6d-#3a3a3a
  	DiamondBorderColor #3a3a3a
  	DiamondFontColor #fefefe
}


skinparam participant {
		FontColor #C8Ac00
	BorderColor #333333
	BackgroundColor #333333-#333333
	ParticipantBorderThickness 2
}


skinparam actor {
		FontColor #C8Ac00
	BorderColor #333333
	BackgroundColor #333333-#333333
}


skinparam arrow {
	Thickness 1.5
	Color #545454
	FontColor #a0a0a0
    FontStyle bold
    MessageAlignment center
}



skinparam sequence {
	BorderColor #303030
	TitleFontColor #303030
	BackgroundColor #333333
	StartColor #303030
	EndColor #303030
	BoxBackgroundColor #333333
	BoxBorderColor #484848
	BoxFontColor #484848
	LifeLineBorderColor #484848
	LifeLineBorderThickness 2
	LifeLineBackgroundColor #3a3a3a
	GroupBorderColor #484848
	GroupFontColor #484848
	GroupHeaderFontColor #0060a8
	GroupBackgroundColor #484848
	GroupHeaderBackgroundColor #333333
	DividerBackgroundColor #484848
    DividerBorderColor #484848
    DividerBorderThickness 2
    DividerFontColor #D8Bc00
	ReferenceBackgroundColor #333333
	ReferenceBorderColor #484848
	ReferenceFontColor #fefefe
	ReferenceHeaderBackgroundColor #484848
}


skinparam partition {
	BorderColor #303030
	FontColor #333333
	BackgroundColor #333333
}


skinparam collections {
		FontColor #C8Ac00
	BorderColor #333333
	BackgroundColor #333333-#333333
}


skinparam control {
		FontColor #C8Ac00
	BorderColor #333333
	BackgroundColor #333333-#333333
}


skinparam entity {
		FontColor #C8Ac00
	BorderColor #333333
	BackgroundColor #333333-#333333
}


skinparam boundary {
		FontColor #C8Ac00
	BorderColor #333333
	BackgroundColor #333333-#333333
}


skinparam agent {
	BackgroundColor #ff8000
	BorderColor #ff9933
	FontColor #484848
}


skinparam note {
	BorderThickness 1
	BackgroundColor #1b1b1a
	BorderColor #5e5e5e
	FontSize 11
	FontColor #a0a0a0
}


skinparam artifact {
	BorderThickness 10
	BorderColor #5e5e5e
	BackgroundColor #1b1b1a
	FontColor #D8Bc00
}


skinparam component {
		FontColor #C8Ac00
	BorderColor #333333
	BackgroundColor #333333-#333333
}


skinparam interface {
	BackgroundColor  #008400
	BorderColor  #007F00
	FontColor #484848
}


skinparam storage {
	BackgroundColor #ff8000
  	BorderColor #cc6600
	FontColor #222222
}


skinparam node {
	BackgroundColor #333333
	BorderColor #333333
	FontColor #C8Ac00
}


skinparam cloud {
	BackgroundColor #484848-black
	BorderColor #484848
	FontColor #D8Bc00
}


skinparam database {
		FontColor #C8Ac00
	BorderColor #333333
	BackgroundColor #333333-#333333
	BackgroundColor  #333333
}


skinparam class {
		FontColor #C8Ac00
	BorderColor #333333
	BackgroundColor #333333-#333333
	HeaderBackgroundColor #1b1b1a
    BackgroundColor #282828
    BorderColor #5e5e5e
 	StereotypeFontColor #a0a0a0
    StereotypeFontStyle bold
	BorderThickness 1
	AttributeFontColor #D8Bc00
	AttributeFontSize 11
    FontColor #D8Bc00
    FontStyle bold
}


skinparam object {
		FontColor #C8Ac00
	BorderColor #333333
	BackgroundColor #333333-#333333
	StereotypeFontColor #484848
	BorderThickness 1
	AttributeFontColor #fefefe
	AttributeFontSize 11
}


skinparam usecase {
		FontColor #C8Ac00
	BorderColor #333333
	BackgroundColor #333333-#333333
	BorderThickness 2
	StereotypeFontColor #303030
}


skinparam rectangle {
		FontColor #C8Ac00
	BorderColor #333333
	BackgroundColor #333333-#333333
	BackgroundColor #333333
	BorderThickness 2
	StereotypeFontColor #303030
}


skinparam package {
		FontColor #C8Ac00
	BorderColor #333333
	BackgroundColor #333333-#333333
	BackgroundColor #333333
	BorderThickness 2
}


skinparam folder {
	BackgroundColor #6d6d6d
  	BorderColor #ff8000
	FontColor #ff8000
	BorderThickness 2
}


skinparam frame {
	BackgroundColor #6d6d6d
  	BorderColor #0060a8
	FontColor #0060a8
	BorderThickness 2
}


skinparam state {
		FontColor #C8Ac00
	BorderColor #333333
	BackgroundColor #333333-#333333
	StartColor #0060a8
	EndColor #0060a8
	AttributeFontColor #fefefe
	AttributeFontSize 11
}


skinparam queue {
		FontColor #C8Ac00
	BorderColor #333333
	BackgroundColor #333333-#333333
}


skinparam card {
	BackgroundColor #0060a8
	BorderColor #004d86
	FontColor $INFO_TEXT
}


skinparam file {
	BackgroundColor #6d6d6d-#484848
	BorderColor #0060a8
	FontColor #fefefe
}


skinparam stack {
		FontColor #C8Ac00
	BorderColor #333333
	BackgroundColor #333333-#333333
}

    
    title "com.telenav.kivakit.service.registry.server"
    
    Server <|- - ServiceRegistryServer
    ServiceRegistryServer - -> ServiceRegistry : "creates"
    ServiceRegistryServer - -> ServiceRegistry : "searches"
    ServiceRegistryServer - -> ServiceRegistry : "updates"
    ServiceRegistryServer - -> ServiceRegistryStore : "persists to"
    note right of ServiceRegistryServer
        For REST API details, refer to Swagger documentation provided by this server
    endnote
    class ServiceRegistryServer
    {
        - -(constructors)- -
        #ServiceRegistryServer()
        - -
        +void main(String[] arguments)
        +Scope.Type scope()
        - -(checks)- -
        +boolean isLocal()
        - -(network)- -
        +boolean isNetwork()
        +int port()
        - -(service)- -
        +ServiceRegistryServer get()
        +ServiceRegistry registry()
    }
    
    class ServiceRegistryServerSettings
    {
    }
    
@enduml

PlantUML version 1.2021.01(Tue Feb 02 00:55:08 MST 2021)
(GPL source distribution)
Java Runtime: Java(TM) SE Runtime Environment
JVM: Java HotSpot(TM) 64-Bit Server VM
Default Encoding: UTF-8
Language: en
Country: US
--></g></svg>