<?xml version="1.0" encoding="UTF-8" standalone="no"?><svg xmlns="http://www.w3.org/2000/svg" xmlns:xlink="http://www.w3.org/1999/xlink" contentScriptType="application/ecmascript" contentStyleType="text/css" height="254.1667px" preserveAspectRatio="none" style="width:664px;height:254px;background:#333333;" version="1.1" viewBox="0 0 664 254" width="664.5833px" zoomAndPan="magnify"><defs/><g><rect fill="#48494B" height="41.2028" rx="8.3333" ry="8.3333" style="stroke:#545454;stroke-width:1.0416666666666667;" width="652.0833" x="2.0833" y="2.0833"/><text fill="#C0C0C0" font-family="Open Sans,Avenir,Nunito,Arial,Helvetica,SansSerif" font-size="20.8333" lengthAdjust="spacing" textLength="629.1667" x="13.5417" y="30.5583">com.telenav.kivakit.service.registry.server.webapp.pages.home</text><!--MD5=[27364c4494c7bbbc1fd7e6814334e10d]
class ServiceRegistryWebPage--><rect fill="#282828" height="48.055" id="ServiceRegistryWebPage" rx="8.3333" ry="8.3333" style="stroke:#5E5E5E;stroke-width:1.0416666666666667;" width="192.7083" x="57.8125" y="53.7028"/><rect fill="#1B1B1A" height="31.3883" rx="8.3333" ry="8.3333" style="stroke:#1B1B1A;stroke-width:1.0416666666666667;" width="192.7083" x="57.8125" y="53.7028"/><rect fill="#1B1B1A" height="8.3333" style="stroke:#1B1B1A;stroke-width:1.0416666666666667;" width="192.7083" x="57.8125" y="76.7578"/><rect fill="none" height="48.055" id="ServiceRegistryWebPage" rx="8.3333" ry="8.3333" style="stroke:#5E5E5E;stroke-width:1.0416666666666667;" width="192.7083" x="57.8125" y="53.7028"/><ellipse cx="72.3958" cy="69.397" fill="#0066CF" rx="10.4167" ry="10.4167" style="stroke:#0086EF;stroke-width:1.0416666666666667;"/><path d="M74.3062,73.822 Q73.879,74.0417 73.409,74.1516 Q72.939,74.2615 72.4202,74.2615 Q70.577,74.2615 69.6065,73.0469 Q68.6361,71.8323 68.6361,69.5374 Q68.6361,67.2363 69.6065,66.0217 Q70.577,64.8071 72.4202,64.8071 Q72.939,64.8071 73.4151,64.917 Q73.8912,65.0269 74.3062,65.2466 L74.3062,67.2485 Q73.8424,66.8213 73.406,66.6229 Q72.9696,66.4246 72.5057,66.4246 Q71.5169,66.4246 71.0134,67.2089 Q70.5098,67.9932 70.5098,69.5374 Q70.5098,71.0754 71.0134,71.8597 Q71.5169,72.644 72.5057,72.644 Q72.9696,72.644 73.406,72.4457 Q73.8424,72.2473 74.3062,71.8201 Z " fill="#000000"/><text fill="#D8BC00" font-family="Open Sans,Avenir,Nunito,Arial,Helvetica,SansSerif" font-size="12.5" font-weight="bold" lengthAdjust="spacing" textLength="155.2083" x="89.0625" y="74.1211">ServiceRegistryWebPage</text><line style="stroke:#5E5E5E;stroke-width:1.0416666666666667;" x1="58.8542" x2="249.4792" y1="85.0911" y2="85.0911"/><line style="stroke:#5E5E5E;stroke-width:1.0416666666666667;" x1="58.8542" x2="249.4792" y1="93.4245" y2="93.4245"/><!--MD5=[5aff5c50255f67a7089db77a52aaa125]
class HomePage--><rect codeLine="7" fill="#282828" height="83.3781" id="HomePage" rx="8.3333" ry="8.3333" style="stroke:#5E5E5E;stroke-width:1.0416666666666667;" width="105.2083" x="101.5625" y="164.1195"/><rect fill="#1B1B1A" height="31.3883" rx="8.3333" ry="8.3333" style="stroke:#1B1B1A;stroke-width:1.0416666666666667;" width="105.2083" x="101.5625" y="164.1195"/><rect fill="#1B1B1A" height="8.3333" style="stroke:#1B1B1A;stroke-width:1.0416666666666667;" width="105.2083" x="101.5625" y="187.1745"/><rect codeLine="7" fill="none" height="83.3781" id="HomePage" rx="8.3333" ry="8.3333" style="stroke:#5E5E5E;stroke-width:1.0416666666666667;" width="105.2083" x="101.5625" y="164.1195"/><ellipse cx="116.1458" cy="179.8136" fill="#0066CF" rx="10.4167" ry="10.4167" style="stroke:#0086EF;stroke-width:1.0416666666666667;"/><path d="M118.0562,184.2387 Q117.629,184.4584 117.159,184.5683 Q116.689,184.6781 116.1702,184.6781 Q114.327,184.6781 113.3565,183.4635 Q112.3861,182.2489 112.3861,179.954 Q112.3861,177.653 113.3565,176.4384 Q114.327,175.2238 116.1702,175.2238 Q116.689,175.2238 117.1651,175.3337 Q117.6412,175.4435 118.0562,175.6632 L118.0562,177.6652 Q117.5924,177.238 117.156,177.0396 Q116.7196,176.8412 116.2557,176.8412 Q115.2669,176.8412 114.7634,177.6255 Q114.2598,178.4098 114.2598,179.954 Q114.2598,181.4921 114.7634,182.2764 Q115.2669,183.0607 116.2557,183.0607 Q116.7196,183.0607 117.156,182.8623 Q117.5924,182.664 118.0562,182.2367 Z " fill="#000000"/><text fill="#D8BC00" font-family="Open Sans,Avenir,Nunito,Arial,Helvetica,SansSerif" font-size="12.5" font-weight="bold" lengthAdjust="spacing" textLength="67.7083" x="132.8125" y="184.5378">HomePage</text><line style="stroke:#5E5E5E;stroke-width:1.5625;" x1="102.6042" x2="205.7292" y1="195.5078" y2="195.5078"/><ellipse cx="113.0208" cy="230.8777" fill="#84BE84" rx="3.125" ry="3.125" style="stroke:#038048;stroke-width:1.0416666666666667;"/><text fill="#D8BC00" font-family="Open Sans,Avenir,Nunito,Arial,Helvetica,SansSerif" font-size="11.4583" lengthAdjust="spacing" textLength="66.6667" x="124.4792" y="237.7889">HomePage()</text><line style="stroke:#5E5E5E;stroke-width:1.0416666666666667;" x1="102.6042" x2="110.4167" y1="213.7136" y2="213.7136"/><text fill="#D8BC00" font-family="Open Sans,Avenir,Nunito,Arial,Helvetica,SansSerif" font-size="11.4583" lengthAdjust="spacing" textLength="81.25" x="113.5417" y="217.5232">(constructors)</text><line style="stroke:#5E5E5E;stroke-width:1.0416666666666667;" x1="197.9167" x2="205.7292" y1="213.7136" y2="213.7136"/><!--MD5=[0174392a0c212c3b3e97bee69152624c]
class Panel--><rect fill="#282828" height="48.055" id="Panel" rx="8.3333" ry="8.3333" style="stroke:#5E5E5E;stroke-width:1.0416666666666667;" width="71.875" x="392.1875" y="53.7028"/><rect fill="#1B1B1A" height="31.3883" rx="8.3333" ry="8.3333" style="stroke:#1B1B1A;stroke-width:1.0416666666666667;" width="71.875" x="392.1875" y="53.7028"/><rect fill="#1B1B1A" height="8.3333" style="stroke:#1B1B1A;stroke-width:1.0416666666666667;" width="71.875" x="392.1875" y="76.7578"/><rect fill="none" height="48.055" id="Panel" rx="8.3333" ry="8.3333" style="stroke:#5E5E5E;stroke-width:1.0416666666666667;" width="71.875" x="392.1875" y="53.7028"/><ellipse cx="406.7708" cy="69.397" fill="#0066CF" rx="10.4167" ry="10.4167" style="stroke:#0086EF;stroke-width:1.0416666666666667;"/><path d="M408.6812,73.822 Q408.254,74.0417 407.784,74.1516 Q407.314,74.2615 406.7952,74.2615 Q404.952,74.2615 403.9815,73.0469 Q403.0111,71.8323 403.0111,69.5374 Q403.0111,67.2363 403.9815,66.0217 Q404.952,64.8071 406.7952,64.8071 Q407.314,64.8071 407.7901,64.917 Q408.2662,65.0269 408.6812,65.2466 L408.6812,67.2485 Q408.2174,66.8213 407.781,66.6229 Q407.3446,66.4246 406.8807,66.4246 Q405.8919,66.4246 405.3884,67.2089 Q404.8848,67.9932 404.8848,69.5374 Q404.8848,71.0754 405.3884,71.8597 Q405.8919,72.644 406.8807,72.644 Q407.3446,72.644 407.781,72.4457 Q408.2174,72.2473 408.6812,71.8201 Z " fill="#000000"/><text fill="#D8BC00" font-family="Open Sans,Avenir,Nunito,Arial,Helvetica,SansSerif" font-size="12.5" font-weight="bold" lengthAdjust="spacing" textLength="34.375" x="423.4375" y="74.1211">Panel</text><line style="stroke:#5E5E5E;stroke-width:1.0416666666666667;" x1="393.2292" x2="463.0208" y1="85.0911" y2="85.0911"/><line style="stroke:#5E5E5E;stroke-width:1.0416666666666667;" x1="393.2292" x2="463.0208" y1="93.4245" y2="93.4245"/><!--MD5=[a215b148fae55dfa03494074713966c9]
class ServicePanel--><rect codeLine="14" fill="#282828" height="83.3781" id="ServicePanel" rx="8.3333" ry="8.3333" style="stroke:#5E5E5E;stroke-width:1.0416666666666667;" width="369.7917" x="243.2292" y="164.1195"/><rect fill="#1B1B1A" height="31.3883" rx="8.3333" ry="8.3333" style="stroke:#1B1B1A;stroke-width:1.0416666666666667;" width="369.7917" x="243.2292" y="164.1195"/><rect fill="#1B1B1A" height="8.3333" style="stroke:#1B1B1A;stroke-width:1.0416666666666667;" width="369.7917" x="243.2292" y="187.1745"/><rect codeLine="14" fill="none" height="83.3781" id="ServicePanel" rx="8.3333" ry="8.3333" style="stroke:#5E5E5E;stroke-width:1.0416666666666667;" width="369.7917" x="243.2292" y="164.1195"/><ellipse cx="381.25" cy="179.8136" fill="#0066CF" rx="10.4167" ry="10.4167" style="stroke:#0086EF;stroke-width:1.0416666666666667;"/><path d="M383.1604,184.2387 Q382.7332,184.4584 382.2632,184.5683 Q381.7932,184.6781 381.2744,184.6781 Q379.4312,184.6781 378.4607,183.4635 Q377.4902,182.2489 377.4902,179.954 Q377.4902,177.653 378.4607,176.4384 Q379.4312,175.2238 381.2744,175.2238 Q381.7932,175.2238 382.2693,175.3337 Q382.7454,175.4435 383.1604,175.6632 L383.1604,177.6652 Q382.6965,177.238 382.2601,177.0396 Q381.8237,176.8412 381.3599,176.8412 Q380.3711,176.8412 379.8676,177.6255 Q379.364,178.4098 379.364,179.954 Q379.364,181.4921 379.8676,182.2764 Q380.3711,183.0607 381.3599,183.0607 Q381.8237,183.0607 382.2601,182.8623 Q382.6965,182.664 383.1604,182.2367 Z " fill="#000000"/><text fill="#D8BC00" font-family="Open Sans,Avenir,Nunito,Arial,Helvetica,SansSerif" font-size="12.5" font-weight="bold" lengthAdjust="spacing" textLength="79.1667" x="404.1667" y="184.5378">ServicePanel</text><line style="stroke:#5E5E5E;stroke-width:1.5625;" x1="244.2708" x2="611.9792" y1="195.5078" y2="195.5078"/><ellipse cx="254.6875" cy="230.8777" fill="#84BE84" rx="3.125" ry="3.125" style="stroke:#038048;stroke-width:1.0416666666666667;"/><text fill="#D8BC00" font-family="Open Sans,Avenir,Nunito,Arial,Helvetica,SansSerif" font-size="11.4583" lengthAdjust="spacing" textLength="337.5" x="266.1458" y="237.7889">ServicePanel(String, WebMarkupContainer, IModel&lt;Service&gt;)</text><line style="stroke:#5E5E5E;stroke-width:1.0416666666666667;" x1="244.2708" x2="384.375" y1="213.7136" y2="213.7136"/><text fill="#D8BC00" font-family="Open Sans,Avenir,Nunito,Arial,Helvetica,SansSerif" font-size="11.4583" lengthAdjust="spacing" textLength="81.25" x="387.5" y="217.5232">(constructors)</text><line style="stroke:#5E5E5E;stroke-width:1.0416666666666667;" x1="471.875" x2="611.9792" y1="213.7136" y2="213.7136"/><!--MD5=[357f5ddf18ea7f4d88916ad5cc6b11cf]
reverse link ServiceRegistryWebPage to HomePage--><path codeLine="6" d="M154.1667,122.682 C154.1667,136.0778 154.1667,150.7445 154.1667,163.9215 " fill="none" id="ServiceRegistryWebPage-backto-HomePage" style="stroke:#545454;stroke-width:1.5625;"/><polygon fill="none" points="146.875,122.6507,154.1667,101.8174,161.4583,122.6507,146.875,122.6507" style="stroke:#545454;stroke-width:1.5625;"/><!--MD5=[19961d8706c7eeafc8ef7cebd4531cad]
reverse link Panel to ServicePanel--><path codeLine="13" d="M428.125,122.682 C428.125,136.0778 428.125,150.7445 428.125,163.9215 " fill="none" id="Panel-backto-ServicePanel" style="stroke:#545454;stroke-width:1.5625;"/><polygon fill="none" points="420.8333,122.6507,428.125,101.8174,435.4167,122.6507,420.8333,122.6507" style="stroke:#545454;stroke-width:1.5625;"/><!--MD5=[658eb89a1f22fcf13a9c1cb5d3c655f9]
@startuml

    !include ../lexakai/lexakai.theme
    
    title "com.telenav.kivakit.service.registry.server.webapp.pages.home"
    
    ServiceRegistryWebPage <|- - HomePage
    class HomePage
    {
        - -(constructors)- -
        +HomePage()
    }
    
    Panel <|- - ServicePanel
    class ServicePanel
    {
        - -(constructors)- -
        +ServicePanel(String, WebMarkupContainer, IModel<Service>)
    }
    
@enduml

@startuml









skinparam backgroundColor #333333






skinparam  {
    defaultFontName   "Open Sans,Avenir,Nunito,Arial,Helvetica,SansSerif"
    defaultFontSize   12
    defaultTextAlignment left
    shadowing false
    RoundCorner 10
    TitleFontSize 18
}

skinparam defaultFontName       "Open Sans,Avenir,Nunito,Arial,Helvetica,SansSerif"
skinparam defaultFontSize       12
skinparam dpi                   100
skinparam shadowing             false
skinparam roundcorner           16
skinparam ParticipantPadding    40
skinparam BoxPadding            40
skinparam Padding               3
skinparam ArrowColor            #545454
skinparam stereotype {
    CBackgroundColor #0066cf
    CBorderColor #0086ef
    ABackgroundColor #C8Ac00
    ABorderColor #D8Bc00
    IBackgroundColor #008400
    IBorderColor #239c23
    EBackgroundColor #cf6300
    EBorderColor #ef8300
    NBackgroundColor #3380b9
    NBorderColor #004d86
}
skinparam title {
	FontColor	                 #c0c0c0
 	BorderColor                  #545454
	FontSize	    	         20
	BorderRoundCorner            16
	BorderThickness 	         1
	BackgroundColor              #48494b
}


skinparam legend {
	BackgroundColor #303030
	BorderColor #404040
	FontColor #a0a0a0
}

	skinparam swimlane {
	BorderColor #5e5e5e
	BorderThickness 2
	TitleBackgroundColor  #6d6d6d-#484848
	TitleFontColor #303030
}

skinparam activity {
		FontColor #C8Ac00
	BorderColor #333333
	BackgroundColor #333333-#333333
	BarColor #00FF00
	StartColor #0060a8
	EndColor #0060a8
	DiamondBackgroundColor #6d6d6d-#3a3a3a
  	DiamondBorderColor #3a3a3a
  	DiamondFontColor #fefefe
}


skinparam participant {
		FontColor #C8Ac00
	BorderColor #333333
	BackgroundColor #333333-#333333
	ParticipantBorderThickness 2
}


skinparam actor {
		FontColor #C8Ac00
	BorderColor #333333
	BackgroundColor #333333-#333333
}


skinparam arrow {
	Thickness 1.5
	Color #545454
	FontColor #a0a0a0
    FontStyle bold
    MessageAlignment center
}



skinparam sequence {
	BorderColor #303030
	TitleFontColor #303030
	BackgroundColor #333333
	StartColor #303030
	EndColor #303030
	BoxBackgroundColor #333333
	BoxBorderColor #484848
	BoxFontColor #484848
	LifeLineBorderColor #484848
	LifeLineBorderThickness 2
	LifeLineBackgroundColor #3a3a3a
	GroupBorderColor #484848
	GroupFontColor #484848
	GroupHeaderFontColor #0060a8
	GroupBackgroundColor #484848
	GroupHeaderBackgroundColor #333333
	DividerBackgroundColor #484848
    DividerBorderColor #484848
    DividerBorderThickness 2
    DividerFontColor #D8Bc00
	ReferenceBackgroundColor #333333
	ReferenceBorderColor #484848
	ReferenceFontColor #fefefe
	ReferenceHeaderBackgroundColor #484848
}


skinparam partition {
	BorderColor #303030
	FontColor #333333
	BackgroundColor #333333
}


skinparam collections {
		FontColor #C8Ac00
	BorderColor #333333
	BackgroundColor #333333-#333333
}


skinparam control {
		FontColor #C8Ac00
	BorderColor #333333
	BackgroundColor #333333-#333333
}


skinparam entity {
		FontColor #C8Ac00
	BorderColor #333333
	BackgroundColor #333333-#333333
}


skinparam boundary {
		FontColor #C8Ac00
	BorderColor #333333
	BackgroundColor #333333-#333333
}


skinparam agent {
	BackgroundColor #ff8000
	BorderColor #ff9933
	FontColor #484848
}


skinparam note {
	BorderThickness 1
	BackgroundColor #1b1b1a
	BorderColor #5e5e5e
	FontSize 11
	FontColor #a0a0a0
}


skinparam artifact {
	BorderThickness 10
	BorderColor #5e5e5e
	BackgroundColor #1b1b1a
	FontColor #D8Bc00
}


skinparam component {
		FontColor #C8Ac00
	BorderColor #333333
	BackgroundColor #333333-#333333
}


skinparam interface {
	BackgroundColor  #008400
	BorderColor  #007F00
	FontColor #484848
}


skinparam storage {
	BackgroundColor #ff8000
  	BorderColor #cc6600
	FontColor #222222
}


skinparam node {
	BackgroundColor #333333
	BorderColor #333333
	FontColor #C8Ac00
}


skinparam cloud {
	BackgroundColor #484848-black
	BorderColor #484848
	FontColor #D8Bc00
}


skinparam database {
		FontColor #C8Ac00
	BorderColor #333333
	BackgroundColor #333333-#333333
	BackgroundColor  #333333
}


skinparam class {
		FontColor #C8Ac00
	BorderColor #333333
	BackgroundColor #333333-#333333
	HeaderBackgroundColor #1b1b1a
    BackgroundColor #282828
    BorderColor #5e5e5e
 	StereotypeFontColor #a0a0a0
    StereotypeFontStyle bold
	BorderThickness 1
	AttributeFontColor #D8Bc00
	AttributeFontSize 11
    FontColor #D8Bc00
    FontStyle bold
}


skinparam object {
		FontColor #C8Ac00
	BorderColor #333333
	BackgroundColor #333333-#333333
	StereotypeFontColor #484848
	BorderThickness 1
	AttributeFontColor #fefefe
	AttributeFontSize 11
}


skinparam usecase {
		FontColor #C8Ac00
	BorderColor #333333
	BackgroundColor #333333-#333333
	BorderThickness 2
	StereotypeFontColor #303030
}


skinparam rectangle {
		FontColor #C8Ac00
	BorderColor #333333
	BackgroundColor #333333-#333333
	BackgroundColor #333333
	BorderThickness 2
	StereotypeFontColor #303030
}


skinparam package {
		FontColor #C8Ac00
	BorderColor #333333
	BackgroundColor #333333-#333333
	BackgroundColor #333333
	BorderThickness 2
}


skinparam folder {
	BackgroundColor #6d6d6d
  	BorderColor #ff8000
	FontColor #ff8000
	BorderThickness 2
}


skinparam frame {
	BackgroundColor #6d6d6d
  	BorderColor #0060a8
	FontColor #0060a8
	BorderThickness 2
}


skinparam state {
		FontColor #C8Ac00
	BorderColor #333333
	BackgroundColor #333333-#333333
	StartColor #0060a8
	EndColor #0060a8
	AttributeFontColor #fefefe
	AttributeFontSize 11
}


skinparam queue {
		FontColor #C8Ac00
	BorderColor #333333
	BackgroundColor #333333-#333333
}


skinparam card {
	BackgroundColor #0060a8
	BorderColor #004d86
	FontColor $INFO_TEXT
}


skinparam file {
	BackgroundColor #6d6d6d-#484848
	BorderColor #0060a8
	FontColor #fefefe
}


skinparam stack {
		FontColor #C8Ac00
	BorderColor #333333
	BackgroundColor #333333-#333333
}

    
    title "com.telenav.kivakit.service.registry.server.webapp.pages.home"
    
    ServiceRegistryWebPage <|- - HomePage
    class HomePage
    {
        - -(constructors)- -
        +HomePage()
    }
    
    Panel <|- - ServicePanel
    class ServicePanel
    {
        - -(constructors)- -
        +ServicePanel(String, WebMarkupContainer, IModel<Service>)
    }
    
@enduml

PlantUML version 1.2021.01(Tue Feb 02 00:55:08 MST 2021)
(GPL source distribution)
Java Runtime: Java(TM) SE Runtime Environment
JVM: Java HotSpot(TM) 64-Bit Server VM
Default Encoding: UTF-8
Language: en
Country: US
--></g></svg>