<?xml version="1.0" encoding="UTF-8" standalone="no"?><svg xmlns="http://www.w3.org/2000/svg" xmlns:xlink="http://www.w3.org/1999/xlink" contentScriptType="application/ecmascript" contentStyleType="text/css" height="587.5px" preserveAspectRatio="none" style="width:764px;height:587px;background:#333333;" version="1.1" viewBox="0 0 764 587" width="764.5833px" zoomAndPan="magnify"><defs/><g><rect fill="#48494B" height="41.2028" rx="8.3333" ry="8.3333" style="stroke:#545454;stroke-width:1.0416666666666667;" width="246.875" x="250.7708" y="2.0833"/><text fill="#C0C0C0" font-family="Open Sans,Avenir,Nunito,Arial,Helvetica,SansSerif" font-size="20.8333" lengthAdjust="spacing" textLength="223.9583" x="262.2292" y="30.5583">Service Registry Server</text><!--MD5=[c60af77fe5573b84a4aa4bce89659574]
class Server--><rect fill="#282828" height="48.055" id="Server" rx="8.3333" ry="8.3333" style="stroke:#5E5E5E;stroke-width:1.0416666666666667;" width="77.0833" x="124.9792" y="53.7028"/><rect fill="#1B1B1A" height="31.3883" rx="8.3333" ry="8.3333" style="stroke:#1B1B1A;stroke-width:1.0416666666666667;" width="77.0833" x="124.9792" y="53.7028"/><rect fill="#1B1B1A" height="8.3333" style="stroke:#1B1B1A;stroke-width:1.0416666666666667;" width="77.0833" x="124.9792" y="76.7578"/><rect fill="none" height="48.055" id="Server" rx="8.3333" ry="8.3333" style="stroke:#5E5E5E;stroke-width:1.0416666666666667;" width="77.0833" x="124.9792" y="53.7028"/><ellipse cx="139.5625" cy="69.397" fill="#0066CF" rx="10.4167" ry="10.4167" style="stroke:#0086EF;stroke-width:1.0416666666666667;"/><path d="M141.4729,73.822 Q141.0457,74.0417 140.5757,74.1516 Q140.1057,74.2615 139.5869,74.2615 Q137.7437,74.2615 136.7732,73.0469 Q135.8027,71.8323 135.8027,69.5374 Q135.8027,67.2363 136.7732,66.0217 Q137.7437,64.8071 139.5869,64.8071 Q140.1057,64.8071 140.5818,64.917 Q141.0579,65.0269 141.4729,65.2466 L141.4729,67.2485 Q141.009,66.8213 140.5726,66.6229 Q140.1362,66.4246 139.6724,66.4246 Q138.6836,66.4246 138.1801,67.2089 Q137.6765,67.9932 137.6765,69.5374 Q137.6765,71.0754 138.1801,71.8597 Q138.6836,72.644 139.6724,72.644 Q140.1362,72.644 140.5726,72.4457 Q141.009,72.2473 141.4729,71.8201 Z " fill="#000000"/><text fill="#D8BC00" font-family="Open Sans,Avenir,Nunito,Arial,Helvetica,SansSerif" font-size="12.5" font-weight="bold" lengthAdjust="spacing" textLength="39.5833" x="156.2292" y="74.1211">Server</text><line style="stroke:#5E5E5E;stroke-width:1.0416666666666667;" x1="126.0208" x2="201.0208" y1="85.0911" y2="85.0911"/><line style="stroke:#5E5E5E;stroke-width:1.0416666666666667;" x1="126.0208" x2="201.0208" y1="93.4245" y2="93.4245"/><!--MD5=[7cfe79547bc1e5b29fd1ea5cd5cb5813]
class ServiceRegistryServer--><rect codeLine="14" fill="#282828" height="281.9153" id="ServiceRegistryServer" rx="8.3333" ry="8.3333" style="stroke:#5E5E5E;stroke-width:1.0416666666666667;" width="200" x="63.5208" y="165.1611"/><rect fill="#1B1B1A" height="31.3883" rx="8.3333" ry="8.3333" style="stroke:#1B1B1A;stroke-width:1.0416666666666667;" width="200" x="63.5208" y="165.1611"/><rect fill="#1B1B1A" height="8.3333" style="stroke:#1B1B1A;stroke-width:1.0416666666666667;" width="200" x="63.5208" y="188.2161"/><rect codeLine="14" fill="none" height="281.9153" id="ServiceRegistryServer" rx="8.3333" ry="8.3333" style="stroke:#5E5E5E;stroke-width:1.0416666666666667;" width="200" x="63.5208" y="165.1611"/><ellipse cx="89.3542" cy="180.8553" fill="#0066CF" rx="10.4167" ry="10.4167" style="stroke:#0086EF;stroke-width:1.0416666666666667;"/><path d="M91.2646,185.2804 Q90.8373,185.5001 90.3674,185.6099 Q89.8974,185.7198 89.3786,185.7198 Q87.5353,185.7198 86.5649,184.5052 Q85.5944,183.2906 85.5944,180.9957 Q85.5944,178.6947 86.5649,177.4801 Q87.5353,176.2655 89.3786,176.2655 Q89.8974,176.2655 90.3735,176.3753 Q90.8495,176.4852 91.2646,176.7049 L91.2646,178.7069 Q90.8007,178.2796 90.3643,178.0813 Q89.9279,177.8829 89.464,177.8829 Q88.4753,177.8829 87.9717,178.6672 Q87.4682,179.4515 87.4682,180.9957 Q87.4682,182.5338 87.9717,183.3181 Q88.4753,184.1024 89.464,184.1024 Q89.9279,184.1024 90.3643,183.904 Q90.8007,183.7056 91.2646,183.2784 Z " fill="#000000"/><text fill="#D8BC00" font-family="Open Sans,Avenir,Nunito,Arial,Helvetica,SansSerif" font-size="12.5" font-weight="bold" lengthAdjust="spacing" textLength="137.5" x="108.5208" y="185.5794">ServiceRegistryServer</text><line style="stroke:#5E5E5E;stroke-width:1.5625;" x1="64.5625" x2="262.4792" y1="196.5495" y2="196.5495"/><polygon fill="#FFFF44" points="74.9792,226.711,79.1458,230.8777,74.9792,235.0444,70.8125,230.8777" style="stroke:#B38D22;stroke-width:1.0416666666666667;"/><text fill="#D8BC00" font-family="Open Sans,Avenir,Nunito,Arial,Helvetica,SansSerif" font-size="11.4583" lengthAdjust="spacing" textLength="129.1667" x="86.4375" y="238.8306">ServiceRegistryServer()</text><line style="stroke:#5E5E5E;stroke-width:1.0416666666666667;" x1="64.5625" x2="119.7708" y1="214.7552" y2="214.7552"/><text fill="#D8BC00" font-family="Open Sans,Avenir,Nunito,Arial,Helvetica,SansSerif" font-size="11.4583" lengthAdjust="spacing" textLength="81.25" x="122.8958" y="218.5649">(constructors)</text><line style="stroke:#5E5E5E;stroke-width:1.0416666666666667;" x1="207.2708" x2="262.4792" y1="214.7552" y2="214.7552"/><line style="stroke:#5E5E5E;stroke-width:1.0416666666666667;" x1="64.5625" x2="262.4792" y1="248.5392" y2="248.5392"/><ellipse cx="74.9792" cy="259.9976" fill="#84BE84" rx="3.125" ry="3.125" style="stroke:#038048;stroke-width:1.0416666666666667;"/><text fill="#D8BC00" font-family="Open Sans,Avenir,Nunito,Arial,Helvetica,SansSerif" font-size="11.4583" lengthAdjust="spacing" textLength="167.7083" x="86.4375" y="266.9088">void main(String[] arguments)</text><ellipse cx="74.9792" cy="303.654" fill="#84BE84" rx="3.125" ry="3.125" style="stroke:#038048;stroke-width:1.0416666666666667;"/><text fill="#D8BC00" font-family="Open Sans,Avenir,Nunito,Arial,Helvetica,SansSerif" font-size="11.4583" lengthAdjust="spacing" textLength="94.7917" x="86.4375" y="310.5652">boolean isLocal()</text><line style="stroke:#5E5E5E;stroke-width:1.0416666666666667;" x1="64.5625" x2="136.9583" y1="286.4899" y2="286.4899"/><text fill="#D8BC00" font-family="Open Sans,Avenir,Nunito,Arial,Helvetica,SansSerif" font-size="11.4583" lengthAdjust="spacing" textLength="46.875" x="140.0833" y="290.2995">(checks)</text><line style="stroke:#5E5E5E;stroke-width:1.0416666666666667;" x1="190.0833" x2="262.4792" y1="286.4899" y2="286.4899"/><ellipse cx="74.9792" cy="347.3104" fill="#84BE84" rx="3.125" ry="3.125" style="stroke:#038048;stroke-width:1.0416666666666667;"/><text fill="#D8BC00" font-family="Open Sans,Avenir,Nunito,Arial,Helvetica,SansSerif" font-size="11.4583" lengthAdjust="spacing" textLength="111.4583" x="86.4375" y="354.2216">boolean isNetwork()</text><ellipse cx="74.9792" cy="367.0553" fill="#84BE84" rx="3.125" ry="3.125" style="stroke:#038048;stroke-width:1.0416666666666667;"/><text fill="#D8BC00" font-family="Open Sans,Avenir,Nunito,Arial,Helvetica,SansSerif" font-size="11.4583" lengthAdjust="spacing" textLength="50" x="86.4375" y="373.9665">int port()</text><line style="stroke:#5E5E5E;stroke-width:1.0416666666666667;" x1="64.5625" x2="133.8333" y1="330.1463" y2="330.1463"/><text fill="#D8BC00" font-family="Open Sans,Avenir,Nunito,Arial,Helvetica,SansSerif" font-size="11.4583" lengthAdjust="spacing" textLength="53.125" x="136.9583" y="333.9559">(network)</text><line style="stroke:#5E5E5E;stroke-width:1.0416666666666667;" x1="193.2083" x2="262.4792" y1="330.1463" y2="330.1463"/><ellipse cx="74.9792" cy="410.7117" fill="#84BE84" rx="3.125" ry="3.125" style="stroke:#038048;stroke-width:1.0416666666666667;"/><text fill="#D8BC00" font-family="Open Sans,Avenir,Nunito,Arial,Helvetica,SansSerif" font-size="11.4583" lengthAdjust="spacing" textLength="150" x="86.4375" y="417.6229">ServiceRegistryServer get()</text><ellipse cx="74.9792" cy="430.4565" fill="#84BE84" rx="3.125" ry="3.125" style="stroke:#038048;stroke-width:1.0416666666666667;"/><text fill="#D8BC00" font-family="Open Sans,Avenir,Nunito,Arial,Helvetica,SansSerif" font-size="11.4583" lengthAdjust="spacing" textLength="140.625" x="86.4375" y="437.3678">ServiceRegistry registry()</text><line style="stroke:#5E5E5E;stroke-width:1.0416666666666667;" x1="64.5625" x2="136.4375" y1="393.5476" y2="393.5476"/><text fill="#D8BC00" font-family="Open Sans,Avenir,Nunito,Arial,Helvetica,SansSerif" font-size="11.4583" lengthAdjust="spacing" textLength="47.9167" x="139.5625" y="397.3572">(service)</text><line style="stroke:#5E5E5E;stroke-width:1.0416666666666667;" x1="190.6042" x2="262.4792" y1="393.5476" y2="393.5476"/><!--MD5=[c17517e84f87e33d8c5ecd7268aea74c]
class ServiceRegistry--><rect fill="#282828" height="48.055" id="ServiceRegistry" rx="8.3333" ry="8.3333" style="stroke:#5E5E5E;stroke-width:1.0416666666666667;" width="135.4167" x="42.6875" y="532.8695"/><rect fill="#1B1B1A" height="31.3883" rx="8.3333" ry="8.3333" style="stroke:#1B1B1A;stroke-width:1.0416666666666667;" width="135.4167" x="42.6875" y="532.8695"/><rect fill="#1B1B1A" height="8.3333" style="stroke:#1B1B1A;stroke-width:1.0416666666666667;" width="135.4167" x="42.6875" y="555.9245"/><rect fill="none" height="48.055" id="ServiceRegistry" rx="8.3333" ry="8.3333" style="stroke:#5E5E5E;stroke-width:1.0416666666666667;" width="135.4167" x="42.6875" y="532.8695"/><ellipse cx="57.2708" cy="548.5636" fill="#0066CF" rx="10.4167" ry="10.4167" style="stroke:#0086EF;stroke-width:1.0416666666666667;"/><path d="M59.1812,552.9887 Q58.754,553.2084 58.284,553.3183 Q57.814,553.4281 57.2952,553.4281 Q55.452,553.4281 54.4815,552.2135 Q53.5111,550.9989 53.5111,548.704 Q53.5111,546.403 54.4815,545.1884 Q55.452,543.9738 57.2952,543.9738 Q57.814,543.9738 58.2901,544.0837 Q58.7662,544.1935 59.1812,544.4132 L59.1812,546.4152 Q58.7174,545.988 58.281,545.7896 Q57.8446,545.5912 57.3807,545.5912 Q56.3919,545.5912 55.8884,546.3755 Q55.3848,547.1598 55.3848,548.704 Q55.3848,550.2421 55.8884,551.0264 Q56.3919,551.8107 57.3807,551.8107 Q57.8446,551.8107 58.281,551.6123 Q58.7174,551.414 59.1812,550.9867 Z " fill="#000000"/><text fill="#D8BC00" font-family="Open Sans,Avenir,Nunito,Arial,Helvetica,SansSerif" font-size="12.5" font-weight="bold" lengthAdjust="spacing" textLength="97.9167" x="73.9375" y="553.2878">ServiceRegistry</text><line style="stroke:#5E5E5E;stroke-width:1.0416666666666667;" x1="43.7292" x2="177.0625" y1="564.2578" y2="564.2578"/><line style="stroke:#5E5E5E;stroke-width:1.0416666666666667;" x1="43.7292" x2="177.0625" y1="572.5911" y2="572.5911"/><!--MD5=[ec148f7300996f31693711824818abeb]
class ServiceRegistryStore--><rect fill="#282828" height="48.055" id="ServiceRegistryStore" rx="8.3333" ry="8.3333" style="stroke:#5E5E5E;stroke-width:1.0416666666666667;" width="168.75" x="234.3542" y="532.8695"/><rect fill="#1B1B1A" height="31.3883" rx="8.3333" ry="8.3333" style="stroke:#1B1B1A;stroke-width:1.0416666666666667;" width="168.75" x="234.3542" y="532.8695"/><rect fill="#1B1B1A" height="8.3333" style="stroke:#1B1B1A;stroke-width:1.0416666666666667;" width="168.75" x="234.3542" y="555.9245"/><rect fill="none" height="48.055" id="ServiceRegistryStore" rx="8.3333" ry="8.3333" style="stroke:#5E5E5E;stroke-width:1.0416666666666667;" width="168.75" x="234.3542" y="532.8695"/><ellipse cx="248.9375" cy="548.5636" fill="#0066CF" rx="10.4167" ry="10.4167" style="stroke:#0086EF;stroke-width:1.0416666666666667;"/><path d="M250.8479,552.9887 Q250.4207,553.2084 249.9507,553.3183 Q249.4807,553.4281 248.9619,553.4281 Q247.1187,553.4281 246.1482,552.2135 Q245.1777,550.9989 245.1777,548.704 Q245.1777,546.403 246.1482,545.1884 Q247.1187,543.9738 248.9619,543.9738 Q249.4807,543.9738 249.9568,544.0837 Q250.4329,544.1935 250.8479,544.4132 L250.8479,546.4152 Q250.384,545.988 249.9476,545.7896 Q249.5112,545.5912 249.0474,545.5912 Q248.0586,545.5912 247.5551,546.3755 Q247.0515,547.1598 247.0515,548.704 Q247.0515,550.2421 247.5551,551.0264 Q248.0586,551.8107 249.0474,551.8107 Q249.5112,551.8107 249.9476,551.6123 Q250.384,551.414 250.8479,550.9867 Z " fill="#000000"/><text fill="#D8BC00" font-family="Open Sans,Avenir,Nunito,Arial,Helvetica,SansSerif" font-size="12.5" font-weight="bold" lengthAdjust="spacing" textLength="131.25" x="265.6042" y="553.2878">ServiceRegistryStore</text><line style="stroke:#5E5E5E;stroke-width:1.0416666666666667;" x1="235.3958" x2="402.0625" y1="564.2578" y2="564.2578"/><line style="stroke:#5E5E5E;stroke-width:1.0416666666666667;" x1="235.3958" x2="402.0625" y1="572.5911" y2="572.5911"/><path d="M300.5,299.5361 L300.5,302.1403 L263.5729,306.307 L300.5,310.4736 L300.5,313.031 A8.3333,8.3333 0 0 0 308.8333,321.3643 L747.375,321.3643 A8.3333,8.3333 0 0 0 755.7083,313.031 L755.7083,301.6195 L745.2917,291.2028 L308.8333,291.2028 A8.3333,8.3333 0 0 0 300.5,299.5361 " fill="#1B1B1A" style="stroke:#5E5E5E;stroke-width:1.0416666666666667;"/><path d="M745.2917,291.2028 L745.2917,297.4528 A4.1667,4.1667 0 0 0 749.4583,301.6195 L755.7083,301.6195 L745.2917,291.2028 " fill="#1B1B1A" style="stroke:#5E5E5E;stroke-width:1.0416666666666667;"/><text fill="#A0A0A0" font-family="Open Sans,Avenir,Nunito,Arial,Helvetica,SansSerif" font-size="11.4583" lengthAdjust="spacing" textLength="427.0833" x="309.875" y="310.614">For REST API details, refer to Swagger documentation provided by this server</text><!--MD5=[d34d0413b2cd163e6d65266d7dfe9acd]
reverse link Server to ServiceRegistryServer--><path codeLine="6" d="M163.5208,122.7236 C163.5208,135.3486 163.5208,149.8278 163.5208,164.9945 " fill="none" id="Server-backto-ServiceRegistryServer" style="stroke:#545454;stroke-width:1.5625;"/><polygon fill="none" points="156.2292,122.5049,163.5208,101.6715,170.8125,122.5049,156.2292,122.5049" style="stroke:#545454;stroke-width:1.5625;"/><!--MD5=[c2641deb04fad1a1176fd4cdc76acd93]
link ServiceRegistryServer to ServiceRegistry--><path codeLine="7" d="M63.5104,395.8695 C42.3021,420.3695 22.875,448.5778 11.4375,478.7028 C7.8229,488.2236 6.25,492.859 11.4375,501.6195 C18.3125,513.2236 28.6458,522.5049 40.0938,529.8695 " fill="none" id="ServiceRegistryServer-to-ServiceRegistry" style="stroke:#545454;stroke-width:1.5625;"/><polygon fill="#545454" points="44.6979,532.7028,38.91,524.2321,40.2663,529.9665,34.5319,531.3227,44.6979,532.7028" style="stroke:#545454;stroke-width:1.5625;"/><text fill="#A0A0A0" font-family="Open Sans,Avenir,Nunito,Arial,Helvetica,SansSerif" font-size="12.5" font-weight="bold" lengthAdjust="spacing" textLength="45.8333" x="15.6042" y="494.9544">creates</text><!--MD5=[c2641deb04fad1a1176fd4cdc76acd93]
link ServiceRegistryServer to ServiceRegistry--><path codeLine="8" d="M113.5521,447.6715 C111.0521,458.0778 108.9063,468.5049 107.2708,478.7028 C104.7083,494.7236 105.2708,512.8382 106.5729,527.484 " fill="none" id="ServiceRegistryServer-to-ServiceRegistry-1" style="stroke:#545454;stroke-width:1.5625;"/><polygon fill="#545454" points="107.0833,532.7132,110.3213,522.9784,106.5783,527.5294,102.0273,523.7864,107.0833,532.7132" style="stroke:#545454;stroke-width:1.5625;"/><text fill="#A0A0A0" font-family="Open Sans,Avenir,Nunito,Arial,Helvetica,SansSerif" font-size="12.5" font-weight="bold" lengthAdjust="spacing" textLength="56.25" x="111.4375" y="494.9544">searches</text><!--MD5=[c2641deb04fad1a1176fd4cdc76acd93]
link ServiceRegistryServer to ServiceRegistry--><path codeLine="9" d="M189.1979,447.4736 C187.8854,466.2445 183.9479,484.807 176.0208,501.6195 C171.0417,512.182 162.875,521.3903 153.9792,529.0674 " fill="none" id="ServiceRegistryServer-to-ServiceRegistry-2" style="stroke:#545454;stroke-width:1.5625;"/><polygon fill="#545454" points="149.5521,532.7132,159.4398,529.9775,153.5751,529.4054,154.1473,523.5407,149.5521,532.7132" style="stroke:#545454;stroke-width:1.5625;"/><text fill="#A0A0A0" font-family="Open Sans,Avenir,Nunito,Arial,Helvetica,SansSerif" font-size="12.5" font-weight="bold" lengthAdjust="spacing" textLength="52.0833" x="187.4792" y="494.9544">updates</text><!--MD5=[9e57db715d09d0af946ad0a541f38063]
link ServiceRegistryServer to ServiceRegistryStore--><path codeLine="10" d="M251.1042,447.5361 C270.4063,478.4424 288.875,508.0049 301.625,528.4007 " fill="none" id="ServiceRegistryServer-to-ServiceRegistryStore" style="stroke:#545454;stroke-width:1.5625;"/><polygon fill="#545454" points="304.4167,532.8695,302.972,522.7125,301.6522,528.4553,295.9094,527.1355,304.4167,532.8695" style="stroke:#545454;stroke-width:1.5625;"/><text fill="#A0A0A0" font-family="Open Sans,Avenir,Nunito,Arial,Helvetica,SansSerif" font-size="12.5" font-weight="bold" lengthAdjust="spacing" textLength="69.7917" x="285.3958" y="494.9544">persists to</text><!--MD5=[acf1a91bbf22bd51a4d7125e604b22f5]
@startuml

    !include ../lexakai.theme
    
    title "Service Registry Server"
    
    Server <|- - ServiceRegistryServer
    ServiceRegistryServer - -> ServiceRegistry : "creates"
    ServiceRegistryServer - -> ServiceRegistry : "searches"
    ServiceRegistryServer - -> ServiceRegistry : "updates"
    ServiceRegistryServer - -> ServiceRegistryStore : "persists to"
    note right of ServiceRegistryServer
        For REST API details, refer to Swagger documentation provided by this server
    endnote
    class ServiceRegistryServer
    {
        - -(constructors)- -
        #ServiceRegistryServer()
        - -
        +void main(String[] arguments)
        - -(checks)- -
        +boolean isLocal()
        - -(network)- -
        +boolean isNetwork()
        +int port()
        - -(service)- -
        +ServiceRegistryServer get()
        +ServiceRegistry registry()
    }
    
@enduml

@startuml









skinparam backgroundColor #333333






skinparam  {
    defaultFontName   "Open Sans,Avenir,Nunito,Arial,Helvetica,SansSerif"
    defaultFontSize   12
    defaultTextAlignment left
    shadowing false
    RoundCorner 10
    TitleFontSize 18
}

skinparam defaultFontName       "Open Sans,Avenir,Nunito,Arial,Helvetica,SansSerif"
skinparam defaultFontSize       12
skinparam dpi                   100
skinparam shadowing             false
skinparam roundcorner           16
skinparam ParticipantPadding    40
skinparam BoxPadding            40
skinparam Padding               3
skinparam ArrowColor            #545454
skinparam stereotype {
    CBackgroundColor #0066cf
    CBorderColor #0086ef
    ABackgroundColor #C8Ac00
    ABorderColor #D8Bc00
    IBackgroundColor #008400
    IBorderColor #239c23
    EBackgroundColor #cf6300
    EBorderColor #ef8300
    NBackgroundColor #3380b9
    NBorderColor #004d86
}
skinparam title {
	FontColor	                 #c0c0c0
 	BorderColor                  #545454
	FontSize	    	         20
	BorderRoundCorner            16
	BorderThickness 	         1
	BackgroundColor              #48494b
}


skinparam legend {
	BackgroundColor #303030
	BorderColor #404040
	FontColor #a0a0a0
}

	skinparam swimlane {
	BorderColor #5e5e5e
	BorderThickness 2
	TitleBackgroundColor  #6d6d6d-#484848
	TitleFontColor #303030
}

skinparam activity {
		FontColor #C8Ac00
	BorderColor #333333
	BackgroundColor #333333-#333333
	BarColor #00FF00
	StartColor #0060a8
	EndColor #0060a8
	DiamondBackgroundColor #6d6d6d-#3a3a3a
  	DiamondBorderColor #3a3a3a
  	DiamondFontColor #fefefe
}


skinparam participant {
		FontColor #C8Ac00
	BorderColor #333333
	BackgroundColor #333333-#333333
	ParticipantBorderThickness 2
}


skinparam actor {
		FontColor #C8Ac00
	BorderColor #333333
	BackgroundColor #333333-#333333
}


skinparam arrow {
	Thickness 1.5
	Color #545454
	FontColor #a0a0a0
    FontStyle bold
    MessageAlignment center
}



skinparam sequence {
	BorderColor #303030
	TitleFontColor #303030
	BackgroundColor #333333
	StartColor #303030
	EndColor #303030
	BoxBackgroundColor #333333
	BoxBorderColor #484848
	BoxFontColor #484848
	LifeLineBorderColor #484848
	LifeLineBorderThickness 2
	LifeLineBackgroundColor #3a3a3a
	GroupBorderColor #484848
	GroupFontColor #484848
	GroupHeaderFontColor #0060a8
	GroupBackgroundColor #484848
	GroupHeaderBackgroundColor #333333
	DividerBackgroundColor #484848
    DividerBorderColor #484848
    DividerBorderThickness 2
    DividerFontColor #D8Bc00
	ReferenceBackgroundColor #333333
	ReferenceBorderColor #484848
	ReferenceFontColor #fefefe
	ReferenceHeaderBackgroundColor #484848
}


skinparam partition {
	BorderColor #303030
	FontColor #333333
	BackgroundColor #333333
}


skinparam collections {
		FontColor #C8Ac00
	BorderColor #333333
	BackgroundColor #333333-#333333
}


skinparam control {
		FontColor #C8Ac00
	BorderColor #333333
	BackgroundColor #333333-#333333
}


skinparam entity {
		FontColor #C8Ac00
	BorderColor #333333
	BackgroundColor #333333-#333333
}


skinparam boundary {
		FontColor #C8Ac00
	BorderColor #333333
	BackgroundColor #333333-#333333
}


skinparam agent {
	BackgroundColor #ff8000
	BorderColor #ff9933
	FontColor #484848
}


skinparam note {
	BorderThickness 1
	BackgroundColor #1b1b1a
	BorderColor #5e5e5e
	FontSize 11
	FontColor #a0a0a0
}


skinparam artifact {
	BorderThickness 10
	BorderColor #5e5e5e
	BackgroundColor #1b1b1a
	FontColor #D8Bc00
}


skinparam component {
		FontColor #C8Ac00
	BorderColor #333333
	BackgroundColor #333333-#333333
}


skinparam interface {
	BackgroundColor  #008400
	BorderColor  #007F00
	FontColor #484848
}


skinparam storage {
	BackgroundColor #ff8000
  	BorderColor #cc6600
	FontColor #222222
}


skinparam node {
	BackgroundColor #333333
	BorderColor #333333
	FontColor #C8Ac00
}


skinparam cloud {
	BackgroundColor #484848-black
	BorderColor #484848
	FontColor #D8Bc00
}


skinparam database {
		FontColor #C8Ac00
	BorderColor #333333
	BackgroundColor #333333-#333333
	BackgroundColor  #333333
}


skinparam class {
		FontColor #C8Ac00
	BorderColor #333333
	BackgroundColor #333333-#333333
	HeaderBackgroundColor #1b1b1a
    BackgroundColor #282828
    BorderColor #5e5e5e
 	StereotypeFontColor #a0a0a0
    StereotypeFontStyle bold
	BorderThickness 1
	AttributeFontColor #D8Bc00
	AttributeFontSize 11
    FontColor #D8Bc00
    FontStyle bold
}


skinparam object {
		FontColor #C8Ac00
	BorderColor #333333
	BackgroundColor #333333-#333333
	StereotypeFontColor #484848
	BorderThickness 1
	AttributeFontColor #fefefe
	AttributeFontSize 11
}


skinparam usecase {
		FontColor #C8Ac00
	BorderColor #333333
	BackgroundColor #333333-#333333
	BorderThickness 2
	StereotypeFontColor #303030
}


skinparam rectangle {
		FontColor #C8Ac00
	BorderColor #333333
	BackgroundColor #333333-#333333
	BackgroundColor #333333
	BorderThickness 2
	StereotypeFontColor #303030
}


skinparam package {
		FontColor #C8Ac00
	BorderColor #333333
	BackgroundColor #333333-#333333
	BackgroundColor #333333
	BorderThickness 2
}


skinparam folder {
	BackgroundColor #6d6d6d
  	BorderColor #ff8000
	FontColor #ff8000
	BorderThickness 2
}


skinparam frame {
	BackgroundColor #6d6d6d
  	BorderColor #0060a8
	FontColor #0060a8
	BorderThickness 2
}


skinparam state {
		FontColor #C8Ac00
	BorderColor #333333
	BackgroundColor #333333-#333333
	StartColor #0060a8
	EndColor #0060a8
	AttributeFontColor #fefefe
	AttributeFontSize 11
}


skinparam queue {
		FontColor #C8Ac00
	BorderColor #333333
	BackgroundColor #333333-#333333
}


skinparam card {
	BackgroundColor #0060a8
	BorderColor #004d86
	FontColor $INFO_TEXT
}


skinparam file {
	BackgroundColor #6d6d6d-#484848
	BorderColor #0060a8
	FontColor #fefefe
}


skinparam stack {
		FontColor #C8Ac00
	BorderColor #333333
	BackgroundColor #333333-#333333
}

    
    title "Service Registry Server"
    
    Server <|- - ServiceRegistryServer
    ServiceRegistryServer - -> ServiceRegistry : "creates"
    ServiceRegistryServer - -> ServiceRegistry : "searches"
    ServiceRegistryServer - -> ServiceRegistry : "updates"
    ServiceRegistryServer - -> ServiceRegistryStore : "persists to"
    note right of ServiceRegistryServer
        For REST API details, refer to Swagger documentation provided by this server
    endnote
    class ServiceRegistryServer
    {
        - -(constructors)- -
        #ServiceRegistryServer()
        - -
        +void main(String[] arguments)
        - -(checks)- -
        +boolean isLocal()
        - -(network)- -
        +boolean isNetwork()
        +int port()
        - -(service)- -
        +ServiceRegistryServer get()
        +ServiceRegistry registry()
    }
    
@enduml

PlantUML version 1.2021.3(Mon Mar 22 09:53:19 MST 2021)
(APACHE source distribution)
Java Runtime: OpenJDK Runtime Environment
JVM: OpenJDK 64-Bit Server VM
Default Encoding: UTF-8
Language: en
Country: US
--></g></svg>