<?xml version="1.0" encoding="UTF-8" standalone="no"?><svg xmlns="http://www.w3.org/2000/svg" xmlns:xlink="http://www.w3.org/1999/xlink" contentScriptType="application/ecmascript" contentStyleType="text/css" height="254.1667px" preserveAspectRatio="none" style="width:1214px;height:254px;background:#333333;" version="1.1" viewBox="0 0 1214 254" width="1214.5833px" zoomAndPan="magnify"><defs/><g><rect fill="#48494B" height="41.2028" rx="8.3333" ry="8.3333" style="stroke:#545454;stroke-width:1.0416666666666667;" width="472.9167" x="363.5417" y="2.0833"/><text fill="#C0C0C0" font-family="Open Sans,Avenir,Nunito,Arial,Helvetica,SansSerif" font-size="20.8333" lengthAdjust="spacing" textLength="450" x="375" y="30.5583">com.telenav.kivakit.network.email.converters</text><!--MD5=[007b80764a176ed0c4a95c38d7c7683f]
class BaseListConverter--><rect codeLine="6" fill="#282828" height="48.055" id="BaseListConverter" rx="8.3333" ry="8.3333" style="stroke:#5E5E5E;stroke-width:1.0416666666666667;" width="155.2083" x="42.7083" y="53.7028"/><rect fill="#1B1B1A" height="31.3883" rx="8.3333" ry="8.3333" style="stroke:#1B1B1A;stroke-width:1.0416666666666667;" width="155.2083" x="42.7083" y="53.7028"/><rect fill="#1B1B1A" height="8.3333" style="stroke:#1B1B1A;stroke-width:1.0416666666666667;" width="155.2083" x="42.7083" y="76.7578"/><rect codeLine="6" fill="none" height="48.055" id="BaseListConverter" rx="8.3333" ry="8.3333" style="stroke:#5E5E5E;stroke-width:1.0416666666666667;" width="155.2083" x="42.7083" y="53.7028"/><ellipse cx="57.2917" cy="69.397" fill="#C8AC00" rx="10.4167" ry="10.4167" style="stroke:#D8BC00;stroke-width:1.0416666666666667;"/><path d="M57.4056,66.099 L56.5572,69.8283 L58.2601,69.8283 Z M56.307,64.4511 L58.5103,64.4511 L60.9701,73.5636 L59.1695,73.5636 L58.608,71.3114 L56.1971,71.3114 L55.6478,73.5636 L53.8472,73.5636 Z " fill="#000000"/><text fill="#D8BC00" font-family="Open Sans,Avenir,Nunito,Arial,Helvetica,SansSerif" font-size="12.5" font-style="italic" font-weight="bold" lengthAdjust="spacing" textLength="117.7083" x="73.9583" y="74.1211">BaseListConverter</text><line style="stroke:#5E5E5E;stroke-width:1.0416666666666667;" x1="43.75" x2="196.875" y1="85.0911" y2="85.0911"/><line style="stroke:#5E5E5E;stroke-width:1.0416666666666667;" x1="43.75" x2="196.875" y1="93.4245" y2="93.4245"/><!--MD5=[d91a9abf09e88c5aaa28885e2f87067e]
class BaseCollectionConverter--><rect codeLine="7" fill="#282828" height="48.055" id="BaseCollectionConverter" rx="8.3333" ry="8.3333" style="stroke:#5E5E5E;stroke-width:1.0416666666666667;" width="196.875" x="386.4583" y="53.7028"/><rect fill="#1B1B1A" height="31.3883" rx="8.3333" ry="8.3333" style="stroke:#1B1B1A;stroke-width:1.0416666666666667;" width="196.875" x="386.4583" y="53.7028"/><rect fill="#1B1B1A" height="8.3333" style="stroke:#1B1B1A;stroke-width:1.0416666666666667;" width="196.875" x="386.4583" y="76.7578"/><rect codeLine="7" fill="none" height="48.055" id="BaseCollectionConverter" rx="8.3333" ry="8.3333" style="stroke:#5E5E5E;stroke-width:1.0416666666666667;" width="196.875" x="386.4583" y="53.7028"/><ellipse cx="401.0417" cy="69.397" fill="#C8AC00" rx="10.4167" ry="10.4167" style="stroke:#D8BC00;stroke-width:1.0416666666666667;"/><path d="M401.1556,66.099 L400.3072,69.8283 L402.0101,69.8283 Z M400.057,64.4511 L402.2603,64.4511 L404.7201,73.5636 L402.9195,73.5636 L402.358,71.3114 L399.9471,71.3114 L399.3978,73.5636 L397.5972,73.5636 Z " fill="#000000"/><text fill="#D8BC00" font-family="Open Sans,Avenir,Nunito,Arial,Helvetica,SansSerif" font-size="12.5" font-style="italic" font-weight="bold" lengthAdjust="spacing" textLength="159.375" x="417.7083" y="74.1211">BaseCollectionConverter</text><line style="stroke:#5E5E5E;stroke-width:1.0416666666666667;" x1="387.5" x2="582.2917" y1="85.0911" y2="85.0911"/><line style="stroke:#5E5E5E;stroke-width:1.0416666666666667;" x1="387.5" x2="582.2917" y1="93.4245" y2="93.4245"/><!--MD5=[a3b96329371873c4658b51ca9d311e35]
class BaseSetConverter--><rect codeLine="8" fill="#282828" height="48.055" id="BaseSetConverter" rx="8.3333" ry="8.3333" style="stroke:#5E5E5E;stroke-width:1.0416666666666667;" width="151.0417" x="760.4167" y="53.7028"/><rect fill="#1B1B1A" height="31.3883" rx="8.3333" ry="8.3333" style="stroke:#1B1B1A;stroke-width:1.0416666666666667;" width="151.0417" x="760.4167" y="53.7028"/><rect fill="#1B1B1A" height="8.3333" style="stroke:#1B1B1A;stroke-width:1.0416666666666667;" width="151.0417" x="760.4167" y="76.7578"/><rect codeLine="8" fill="none" height="48.055" id="BaseSetConverter" rx="8.3333" ry="8.3333" style="stroke:#5E5E5E;stroke-width:1.0416666666666667;" width="151.0417" x="760.4167" y="53.7028"/><ellipse cx="775" cy="69.397" fill="#C8AC00" rx="10.4167" ry="10.4167" style="stroke:#D8BC00;stroke-width:1.0416666666666667;"/><path d="M775.1139,66.099 L774.2655,69.8283 L775.9684,69.8283 Z M774.0153,64.4511 L776.2187,64.4511 L778.6784,73.5636 L776.8778,73.5636 L776.3163,71.3114 L773.9054,71.3114 L773.3561,73.5636 L771.5556,73.5636 Z " fill="#000000"/><text fill="#D8BC00" font-family="Open Sans,Avenir,Nunito,Arial,Helvetica,SansSerif" font-size="12.5" font-style="italic" font-weight="bold" lengthAdjust="spacing" textLength="113.5417" x="791.6667" y="74.1211">BaseSetConverter</text><line style="stroke:#5E5E5E;stroke-width:1.0416666666666667;" x1="761.4583" x2="910.4167" y1="85.0911" y2="85.0911"/><line style="stroke:#5E5E5E;stroke-width:1.0416666666666667;" x1="761.4583" x2="910.4167" y1="93.4245" y2="93.4245"/><!--MD5=[9aa687ed59f428548907e723dba1087a]
class BaseStringConverter--><rect codeLine="9" fill="#282828" height="48.055" id="BaseStringConverter" rx="8.3333" ry="8.3333" style="stroke:#5E5E5E;stroke-width:1.0416666666666667;" width="169.7917" x="1013.5417" y="53.7028"/><rect fill="#1B1B1A" height="31.3883" rx="8.3333" ry="8.3333" style="stroke:#1B1B1A;stroke-width:1.0416666666666667;" width="169.7917" x="1013.5417" y="53.7028"/><rect fill="#1B1B1A" height="8.3333" style="stroke:#1B1B1A;stroke-width:1.0416666666666667;" width="169.7917" x="1013.5417" y="76.7578"/><rect codeLine="9" fill="none" height="48.055" id="BaseStringConverter" rx="8.3333" ry="8.3333" style="stroke:#5E5E5E;stroke-width:1.0416666666666667;" width="169.7917" x="1013.5417" y="53.7028"/><ellipse cx="1028.125" cy="69.397" fill="#C8AC00" rx="10.4167" ry="10.4167" style="stroke:#D8BC00;stroke-width:1.0416666666666667;"/><path d="M1028.2389,66.099 L1027.3905,69.8283 L1029.0934,69.8283 Z M1027.1403,64.4511 L1029.3437,64.4511 L1031.8034,73.5636 L1030.0028,73.5636 L1029.4413,71.3114 L1027.0304,71.3114 L1026.4811,73.5636 L1024.6806,73.5636 Z " fill="#000000"/><text fill="#D8BC00" font-family="Open Sans,Avenir,Nunito,Arial,Helvetica,SansSerif" font-size="12.5" font-style="italic" font-weight="bold" lengthAdjust="spacing" textLength="132.2917" x="1044.7917" y="74.1211">BaseStringConverter</text><line style="stroke:#5E5E5E;stroke-width:1.0416666666666667;" x1="1014.5833" x2="1182.2917" y1="85.0911" y2="85.0911"/><line style="stroke:#5E5E5E;stroke-width:1.0416666666666667;" x1="1014.5833" x2="1182.2917" y1="93.4245" y2="93.4245"/><!--MD5=[21b1171d1311d74ff57f2c1b35067879]
class AttachmentConverter--><rect codeLine="12" fill="#282828" height="83.3781" id="AttachmentConverter" rx="8.3333" ry="8.3333" style="stroke:#5E5E5E;stroke-width:1.0416666666666667;" width="206.25" x="270.3125" y="164.1195"/><rect fill="#1B1B1A" height="31.3883" rx="8.3333" ry="8.3333" style="stroke:#1B1B1A;stroke-width:1.0416666666666667;" width="206.25" x="270.3125" y="164.1195"/><rect fill="#1B1B1A" height="8.3333" style="stroke:#1B1B1A;stroke-width:1.0416666666666667;" width="206.25" x="270.3125" y="187.1745"/><rect codeLine="12" fill="none" height="83.3781" id="AttachmentConverter" rx="8.3333" ry="8.3333" style="stroke:#5E5E5E;stroke-width:1.0416666666666667;" width="206.25" x="270.3125" y="164.1195"/><ellipse cx="298.4896" cy="179.8136" fill="#0066CF" rx="10.4167" ry="10.4167" style="stroke:#0086EF;stroke-width:1.0416666666666667;"/><path d="M300.4,184.2387 Q299.9727,184.4584 299.5028,184.5683 Q299.0328,184.6781 298.514,184.6781 Q296.6707,184.6781 295.7003,183.4635 Q294.7298,182.2489 294.7298,179.954 Q294.7298,177.653 295.7003,176.4384 Q296.6707,175.2238 298.514,175.2238 Q299.0328,175.2238 299.5089,175.3337 Q299.9849,175.4435 300.4,175.6632 L300.4,177.6652 Q299.9361,177.238 299.4997,177.0396 Q299.0633,176.8412 298.5994,176.8412 Q297.6107,176.8412 297.1071,177.6255 Q296.6036,178.4098 296.6036,179.954 Q296.6036,181.4921 297.1071,182.2764 Q297.6107,183.0607 298.5994,183.0607 Q299.0633,183.0607 299.4997,182.8623 Q299.9361,182.664 300.4,182.2367 Z " fill="#000000"/><text fill="#D8BC00" font-family="Open Sans,Avenir,Nunito,Arial,Helvetica,SansSerif" font-size="12.5" font-weight="bold" lengthAdjust="spacing" textLength="138.5417" x="318.1771" y="184.5378">AttachmentConverter</text><line style="stroke:#5E5E5E;stroke-width:1.5625;" x1="271.3542" x2="475.5208" y1="195.5078" y2="195.5078"/><ellipse cx="281.7708" cy="230.8777" fill="#84BE84" rx="3.125" ry="3.125" style="stroke:#038048;stroke-width:1.0416666666666667;"/><text fill="#D8BC00" font-family="Open Sans,Avenir,Nunito,Arial,Helvetica,SansSerif" font-size="11.4583" lengthAdjust="spacing" textLength="173.9583" x="293.2292" y="237.7889">AttachmentConverter(Listener)</text><line style="stroke:#5E5E5E;stroke-width:1.0416666666666667;" x1="271.3542" x2="329.6875" y1="213.7136" y2="213.7136"/><text fill="#D8BC00" font-family="Open Sans,Avenir,Nunito,Arial,Helvetica,SansSerif" font-size="11.4583" lengthAdjust="spacing" textLength="81.25" x="332.8125" y="217.5232">(constructors)</text><line style="stroke:#5E5E5E;stroke-width:1.0416666666666667;" x1="417.1875" x2="475.5208" y1="213.7136" y2="213.7136"/><!--MD5=[05096233e769177a086e410920b204cd]
class AttachmentListConverter--><rect codeLine="19" fill="#282828" height="83.3781" id="AttachmentListConverter" rx="8.3333" ry="8.3333" style="stroke:#5E5E5E;stroke-width:1.0416666666666667;" width="226.0417" x="7.2917" y="164.1195"/><rect fill="#1B1B1A" height="31.3883" rx="8.3333" ry="8.3333" style="stroke:#1B1B1A;stroke-width:1.0416666666666667;" width="226.0417" x="7.2917" y="164.1195"/><rect fill="#1B1B1A" height="8.3333" style="stroke:#1B1B1A;stroke-width:1.0416666666666667;" width="226.0417" x="7.2917" y="187.1745"/><rect codeLine="19" fill="none" height="83.3781" id="AttachmentListConverter" rx="8.3333" ry="8.3333" style="stroke:#5E5E5E;stroke-width:1.0416666666666667;" width="226.0417" x="7.2917" y="164.1195"/><ellipse cx="33.5938" cy="179.8136" fill="#0066CF" rx="10.4167" ry="10.4167" style="stroke:#0086EF;stroke-width:1.0416666666666667;"/><path d="M35.5042,184.2387 Q35.0769,184.4584 34.6069,184.5683 Q34.137,184.6781 33.6182,184.6781 Q31.7749,184.6781 30.8044,183.4635 Q29.834,182.2489 29.834,179.954 Q29.834,177.653 30.8044,176.4384 Q31.7749,175.2238 33.6182,175.2238 Q34.137,175.2238 34.613,175.3337 Q35.0891,175.4435 35.5042,175.6632 L35.5042,177.6652 Q35.0403,177.238 34.6039,177.0396 Q34.1675,176.8412 33.7036,176.8412 Q32.7148,176.8412 32.2113,177.6255 Q31.7078,178.4098 31.7078,179.954 Q31.7078,181.4921 32.2113,182.2764 Q32.7148,183.0607 33.7036,183.0607 Q34.1675,183.0607 34.6039,182.8623 Q35.0403,182.664 35.5042,182.2367 Z " fill="#000000"/><text fill="#D8BC00" font-family="Open Sans,Avenir,Nunito,Arial,Helvetica,SansSerif" font-size="12.5" font-weight="bold" lengthAdjust="spacing" textLength="162.5" x="52.8646" y="184.5378">AttachmentListConverter</text><line style="stroke:#5E5E5E;stroke-width:1.5625;" x1="8.3333" x2="232.2917" y1="195.5078" y2="195.5078"/><ellipse cx="18.75" cy="230.8777" fill="#84BE84" rx="3.125" ry="3.125" style="stroke:#038048;stroke-width:1.0416666666666667;"/><text fill="#D8BC00" font-family="Open Sans,Avenir,Nunito,Arial,Helvetica,SansSerif" font-size="11.4583" lengthAdjust="spacing" textLength="193.75" x="30.2083" y="237.7889">AttachmentListConverter(Listener)</text><line style="stroke:#5E5E5E;stroke-width:1.0416666666666667;" x1="8.3333" x2="76.5625" y1="213.7136" y2="213.7136"/><text fill="#D8BC00" font-family="Open Sans,Avenir,Nunito,Arial,Helvetica,SansSerif" font-size="11.4583" lengthAdjust="spacing" textLength="81.25" x="79.6875" y="217.5232">(constructors)</text><line style="stroke:#5E5E5E;stroke-width:1.0416666666666667;" x1="164.0625" x2="232.2917" y1="213.7136" y2="213.7136"/><!--MD5=[ed83907ceff06a865e37e6b79b3cce94]
class BodyConverter--><rect codeLine="26" fill="#282828" height="83.3781" id="BodyConverter" rx="8.3333" ry="8.3333" style="stroke:#5E5E5E;stroke-width:1.0416666666666667;" width="168.75" x="513.0208" y="164.1195"/><rect fill="#1B1B1A" height="31.3883" rx="8.3333" ry="8.3333" style="stroke:#1B1B1A;stroke-width:1.0416666666666667;" width="168.75" x="513.0208" y="164.1195"/><rect fill="#1B1B1A" height="8.3333" style="stroke:#1B1B1A;stroke-width:1.0416666666666667;" width="168.75" x="513.0208" y="187.1745"/><rect codeLine="26" fill="none" height="83.3781" id="BodyConverter" rx="8.3333" ry="8.3333" style="stroke:#5E5E5E;stroke-width:1.0416666666666667;" width="168.75" x="513.0208" y="164.1195"/><ellipse cx="543.5417" cy="179.8136" fill="#0066CF" rx="10.4167" ry="10.4167" style="stroke:#0086EF;stroke-width:1.0416666666666667;"/><path d="M545.4521,184.2387 Q545.0248,184.4584 544.5549,184.5683 Q544.0849,184.6781 543.5661,184.6781 Q541.7228,184.6781 540.7524,183.4635 Q539.7819,182.2489 539.7819,179.954 Q539.7819,177.653 540.7524,176.4384 Q541.7228,175.2238 543.5661,175.2238 Q544.0849,175.2238 544.561,175.3337 Q545.037,175.4435 545.4521,175.6632 L545.4521,177.6652 Q544.9882,177.238 544.5518,177.0396 Q544.1154,176.8412 543.6515,176.8412 Q542.6628,176.8412 542.1592,177.6255 Q541.6557,178.4098 541.6557,179.954 Q541.6557,181.4921 542.1592,182.2764 Q542.6628,183.0607 543.6515,183.0607 Q544.1154,183.0607 544.5518,182.8623 Q544.9882,182.664 545.4521,182.2367 Z " fill="#000000"/><text fill="#D8BC00" font-family="Open Sans,Avenir,Nunito,Arial,Helvetica,SansSerif" font-size="12.5" font-weight="bold" lengthAdjust="spacing" textLength="95.8333" x="563.75" y="184.5378">BodyConverter</text><line style="stroke:#5E5E5E;stroke-width:1.5625;" x1="514.0625" x2="680.7292" y1="195.5078" y2="195.5078"/><ellipse cx="524.4792" cy="230.8777" fill="#84BE84" rx="3.125" ry="3.125" style="stroke:#038048;stroke-width:1.0416666666666667;"/><text fill="#D8BC00" font-family="Open Sans,Avenir,Nunito,Arial,Helvetica,SansSerif" font-size="11.4583" lengthAdjust="spacing" textLength="136.4583" x="535.9375" y="237.7889">BodyConverter(Listener)</text><line style="stroke:#5E5E5E;stroke-width:1.0416666666666667;" x1="514.0625" x2="553.6458" y1="213.7136" y2="213.7136"/><text fill="#D8BC00" font-family="Open Sans,Avenir,Nunito,Arial,Helvetica,SansSerif" font-size="11.4583" lengthAdjust="spacing" textLength="81.25" x="556.7708" y="217.5232">(constructors)</text><line style="stroke:#5E5E5E;stroke-width:1.0416666666666667;" x1="641.1458" x2="680.7292" y1="213.7136" y2="213.7136"/><!--MD5=[16414dbe1412e59c62a8b4d3b0bbd43a]
class EmailAddressConverter--><rect codeLine="33" fill="#282828" height="83.3781" id="EmailAddressConverter" rx="8.3333" ry="8.3333" style="stroke:#5E5E5E;stroke-width:1.0416666666666667;" width="217.7083" x="989.5833" y="164.1195"/><rect fill="#1B1B1A" height="31.3883" rx="8.3333" ry="8.3333" style="stroke:#1B1B1A;stroke-width:1.0416666666666667;" width="217.7083" x="989.5833" y="164.1195"/><rect fill="#1B1B1A" height="8.3333" style="stroke:#1B1B1A;stroke-width:1.0416666666666667;" width="217.7083" x="989.5833" y="187.1745"/><rect codeLine="33" fill="none" height="83.3781" id="EmailAddressConverter" rx="8.3333" ry="8.3333" style="stroke:#5E5E5E;stroke-width:1.0416666666666667;" width="217.7083" x="989.5833" y="164.1195"/><ellipse cx="1016.8229" cy="179.8136" fill="#0066CF" rx="10.4167" ry="10.4167" style="stroke:#0086EF;stroke-width:1.0416666666666667;"/><path d="M1018.7333,184.2387 Q1018.3061,184.4584 1017.8361,184.5683 Q1017.3661,184.6781 1016.8473,184.6781 Q1015.0041,184.6781 1014.0336,183.4635 Q1013.0632,182.2489 1013.0632,179.954 Q1013.0632,177.653 1014.0336,176.4384 Q1015.0041,175.2238 1016.8473,175.2238 Q1017.3661,175.2238 1017.8422,175.3337 Q1018.3183,175.4435 1018.7333,175.6632 L1018.7333,177.6652 Q1018.2694,177.238 1017.833,177.0396 Q1017.3966,176.8412 1016.9328,176.8412 Q1015.944,176.8412 1015.4405,177.6255 Q1014.9369,178.4098 1014.9369,179.954 Q1014.9369,181.4921 1015.4405,182.2764 Q1015.944,183.0607 1016.9328,183.0607 Q1017.3966,183.0607 1017.833,182.8623 Q1018.2694,182.664 1018.7333,182.2367 Z " fill="#000000"/><text fill="#D8BC00" font-family="Open Sans,Avenir,Nunito,Arial,Helvetica,SansSerif" font-size="12.5" font-weight="bold" lengthAdjust="spacing" textLength="152.0833" x="1036.3021" y="184.5378">EmailAddressConverter</text><line style="stroke:#5E5E5E;stroke-width:1.5625;" x1="990.625" x2="1206.25" y1="195.5078" y2="195.5078"/><ellipse cx="1001.0417" cy="230.8777" fill="#84BE84" rx="3.125" ry="3.125" style="stroke:#038048;stroke-width:1.0416666666666667;"/><text fill="#D8BC00" font-family="Open Sans,Avenir,Nunito,Arial,Helvetica,SansSerif" font-size="11.4583" lengthAdjust="spacing" textLength="185.4167" x="1012.5" y="237.7889">EmailAddressConverter(Listener)</text><line style="stroke:#5E5E5E;stroke-width:1.0416666666666667;" x1="990.625" x2="1054.6875" y1="213.7136" y2="213.7136"/><text fill="#D8BC00" font-family="Open Sans,Avenir,Nunito,Arial,Helvetica,SansSerif" font-size="11.4583" lengthAdjust="spacing" textLength="81.25" x="1057.8125" y="217.5232">(constructors)</text><line style="stroke:#5E5E5E;stroke-width:1.0416666666666667;" x1="1142.1875" x2="1206.25" y1="213.7136" y2="213.7136"/><!--MD5=[b156fb8bb90cb48c067ad1410dbe5112]
class EmailAddressSetConverter--><rect codeLine="40" fill="#282828" height="83.3781" id="EmailAddressSetConverter" rx="8.3333" ry="8.3333" style="stroke:#5E5E5E;stroke-width:1.0416666666666667;" width="234.375" x="718.75" y="164.1195"/><rect fill="#1B1B1A" height="31.3883" rx="8.3333" ry="8.3333" style="stroke:#1B1B1A;stroke-width:1.0416666666666667;" width="234.375" x="718.75" y="164.1195"/><rect fill="#1B1B1A" height="8.3333" style="stroke:#1B1B1A;stroke-width:1.0416666666666667;" width="234.375" x="718.75" y="187.1745"/><rect codeLine="40" fill="none" height="83.3781" id="EmailAddressSetConverter" rx="8.3333" ry="8.3333" style="stroke:#5E5E5E;stroke-width:1.0416666666666667;" width="234.375" x="718.75" y="164.1195"/><ellipse cx="744.5833" cy="179.8136" fill="#0066CF" rx="10.4167" ry="10.4167" style="stroke:#0086EF;stroke-width:1.0416666666666667;"/><path d="M746.4937,184.2387 Q746.0665,184.4584 745.5965,184.5683 Q745.1265,184.6781 744.6077,184.6781 Q742.7645,184.6781 741.794,183.4635 Q740.8236,182.2489 740.8236,179.954 Q740.8236,177.653 741.794,176.4384 Q742.7645,175.2238 744.6077,175.2238 Q745.1265,175.2238 745.6026,175.3337 Q746.0787,175.4435 746.4937,175.6632 L746.4937,177.6652 Q746.0299,177.238 745.5935,177.0396 Q745.1571,176.8412 744.6932,176.8412 Q743.7044,176.8412 743.2009,177.6255 Q742.6973,178.4098 742.6973,179.954 Q742.6973,181.4921 743.2009,182.2764 Q743.7044,183.0607 744.6932,183.0607 Q745.1571,183.0607 745.5935,182.8623 Q746.0299,182.664 746.4937,182.2367 Z " fill="#000000"/><text fill="#D8BC00" font-family="Open Sans,Avenir,Nunito,Arial,Helvetica,SansSerif" font-size="12.5" font-weight="bold" lengthAdjust="spacing" textLength="171.875" x="763.75" y="184.5378">EmailAddressSetConverter</text><line style="stroke:#5E5E5E;stroke-width:1.5625;" x1="719.7917" x2="952.0833" y1="195.5078" y2="195.5078"/><ellipse cx="730.2083" cy="230.8777" fill="#84BE84" rx="3.125" ry="3.125" style="stroke:#038048;stroke-width:1.0416666666666667;"/><text fill="#D8BC00" font-family="Open Sans,Avenir,Nunito,Arial,Helvetica,SansSerif" font-size="11.4583" lengthAdjust="spacing" textLength="202.0833" x="741.6667" y="237.7889">EmailAddressSetConverter(Listener)</text><line style="stroke:#5E5E5E;stroke-width:1.0416666666666667;" x1="719.7917" x2="792.1875" y1="213.7136" y2="213.7136"/><text fill="#D8BC00" font-family="Open Sans,Avenir,Nunito,Arial,Helvetica,SansSerif" font-size="11.4583" lengthAdjust="spacing" textLength="81.25" x="795.3125" y="217.5232">(constructors)</text><line style="stroke:#5E5E5E;stroke-width:1.0416666666666667;" x1="879.6875" x2="952.0833" y1="213.7136" y2="213.7136"/><!--MD5=[09d9ed57249adf134d27dff5df81aaeb]
reverse link BaseCollectionConverter to AttachmentConverter--><path codeLine="11" d="M450.2813,117.8486 C437.3438,132.484 422.6146,149.1299 409.5417,163.9215 " fill="none" id="BaseCollectionConverter-backto-AttachmentConverter" style="stroke:#545454;stroke-width:1.5625;"/><polygon fill="none" points="445.1875,112.5986,464.4479,101.8174,456.1146,122.2549,445.1875,112.5986" style="stroke:#545454;stroke-width:1.5625;"/><!--MD5=[59cf1429013be1175c1a79650eb2e74a]
reverse link BaseListConverter to AttachmentListConverter--><path codeLine="18" d="M120.3125,122.682 C120.3125,136.0778 120.3125,150.7445 120.3125,163.9215 " fill="none" id="BaseListConverter-backto-AttachmentListConverter" style="stroke:#545454;stroke-width:1.5625;"/><polygon fill="none" points="113.0208,122.6507,120.3125,101.8174,127.6042,122.6507,113.0208,122.6507" style="stroke:#545454;stroke-width:1.5625;"/><!--MD5=[1d9efc8fdc528879e3543388d3d8c972]
reverse link BaseCollectionConverter to BodyConverter--><path codeLine="25" d="M519.4063,117.3695 C532.5729,132.1195 547.6146,148.9736 560.9583,163.9215 " fill="none" id="BaseCollectionConverter-backto-BodyConverter" style="stroke:#545454;stroke-width:1.5625;"/><polygon fill="none" points="513.9583,122.2236,505.5313,101.8174,524.8438,112.5049,513.9583,122.2236" style="stroke:#545454;stroke-width:1.5625;"/><!--MD5=[9a6ea135ff0f04aff96eff621022eff6]
reverse link BaseStringConverter to EmailAddressConverter--><path codeLine="32" d="M1098.4375,122.682 C1098.4375,136.0778 1098.4375,150.7445 1098.4375,163.9215 " fill="none" id="BaseStringConverter-backto-EmailAddressConverter" style="stroke:#545454;stroke-width:1.5625;"/><polygon fill="none" points="1091.1458,122.6507,1098.4375,101.8174,1105.7292,122.6507,1091.1458,122.6507" style="stroke:#545454;stroke-width:1.5625;"/><!--MD5=[7a3b3c792567e93d67da59f0ea83213f]
reverse link BaseSetConverter to EmailAddressSetConverter--><path codeLine="39" d="M835.9375,122.682 C835.9375,136.0778 835.9375,150.7445 835.9375,163.9215 " fill="none" id="BaseSetConverter-backto-EmailAddressSetConverter" style="stroke:#545454;stroke-width:1.5625;"/><polygon fill="none" points="828.6458,122.6507,835.9375,101.8174,843.2292,122.6507,828.6458,122.6507" style="stroke:#545454;stroke-width:1.5625;"/><!--MD5=[dec47e1dbc2ec8787a8ee05e2ea51aea]
@startuml

    !include lexakai.theme
    
    title "com.telenav.kivakit.network.email.converters"
    
    abstract BaseListConverter
    abstract BaseCollectionConverter
    abstract BaseSetConverter
    abstract BaseStringConverter
    
    BaseCollectionConverter <|- - AttachmentConverter
    class AttachmentConverter
    {
        - -(constructors)- -
        +AttachmentConverter(Listener)
    }
    
    BaseListConverter <|- - AttachmentListConverter
    class AttachmentListConverter
    {
        - -(constructors)- -
        +AttachmentListConverter(Listener)
    }
    
    BaseCollectionConverter <|- - BodyConverter
    class BodyConverter
    {
        - -(constructors)- -
        +BodyConverter(Listener)
    }
    
    BaseStringConverter <|- - EmailAddressConverter
    class EmailAddressConverter
    {
        - -(constructors)- -
        +EmailAddressConverter(Listener)
    }
    
    BaseSetConverter <|- - EmailAddressSetConverter
    class EmailAddressSetConverter
    {
        - -(constructors)- -
        +EmailAddressSetConverter(Listener)
    }
    
@enduml

@startuml









skinparam backgroundColor #333333






skinparam  {
    defaultFontName   "Open Sans,Avenir,Nunito,Arial,Helvetica,SansSerif"
    defaultFontSize   12
    defaultTextAlignment left
    shadowing false
    RoundCorner 10
    TitleFontSize 18
}

skinparam defaultFontName       "Open Sans,Avenir,Nunito,Arial,Helvetica,SansSerif"
skinparam defaultFontSize       12
skinparam dpi                   100
skinparam shadowing             false
skinparam roundcorner           16
skinparam ParticipantPadding    40
skinparam BoxPadding            40
skinparam Padding               3
skinparam ArrowColor            #545454
skinparam stereotype {
    CBackgroundColor #0066cf
    CBorderColor #0086ef
    ABackgroundColor #C8Ac00
    ABorderColor #D8Bc00
    IBackgroundColor #008400
    IBorderColor #239c23
    EBackgroundColor #cf6300
    EBorderColor #ef8300
    NBackgroundColor #3380b9
    NBorderColor #004d86
}
skinparam title {
	FontColor	                 #c0c0c0
 	BorderColor                  #545454
	FontSize	    	         20
	BorderRoundCorner            16
	BorderThickness 	         1
	BackgroundColor              #48494b
}


skinparam legend {
	BackgroundColor #303030
	BorderColor #404040
	FontColor #a0a0a0
}

	skinparam swimlane {
	BorderColor #5e5e5e
	BorderThickness 2
	TitleBackgroundColor  #6d6d6d-#484848
	TitleFontColor #303030
}

skinparam activity {
		FontColor #C8Ac00
	BorderColor #333333
	BackgroundColor #333333-#333333
	BarColor #00FF00
	StartColor #0060a8
	EndColor #0060a8
	DiamondBackgroundColor #6d6d6d-#3a3a3a
  	DiamondBorderColor #3a3a3a
  	DiamondFontColor #fefefe
}


skinparam participant {
		FontColor #C8Ac00
	BorderColor #333333
	BackgroundColor #333333-#333333
	ParticipantBorderThickness 2
}


skinparam actor {
		FontColor #C8Ac00
	BorderColor #333333
	BackgroundColor #333333-#333333
}


skinparam arrow {
	Thickness 1.5
	Color #545454
	FontColor #a0a0a0
    FontStyle bold
    MessageAlignment center
}



skinparam sequence {
	BorderColor #303030
	TitleFontColor #303030
	BackgroundColor #333333
	StartColor #303030
	EndColor #303030
	BoxBackgroundColor #333333
	BoxBorderColor #484848
	BoxFontColor #484848
	LifeLineBorderColor #484848
	LifeLineBorderThickness 2
	LifeLineBackgroundColor #3a3a3a
	GroupBorderColor #484848
	GroupFontColor #484848
	GroupHeaderFontColor #0060a8
	GroupBackgroundColor #484848
	GroupHeaderBackgroundColor #333333
	DividerBackgroundColor #484848
    DividerBorderColor #484848
    DividerBorderThickness 2
    DividerFontColor #D8Bc00
	ReferenceBackgroundColor #333333
	ReferenceBorderColor #484848
	ReferenceFontColor #fefefe
	ReferenceHeaderBackgroundColor #484848
}


skinparam partition {
	BorderColor #303030
	FontColor #333333
	BackgroundColor #333333
}


skinparam collections {
		FontColor #C8Ac00
	BorderColor #333333
	BackgroundColor #333333-#333333
}


skinparam control {
		FontColor #C8Ac00
	BorderColor #333333
	BackgroundColor #333333-#333333
}


skinparam entity {
		FontColor #C8Ac00
	BorderColor #333333
	BackgroundColor #333333-#333333
}


skinparam boundary {
		FontColor #C8Ac00
	BorderColor #333333
	BackgroundColor #333333-#333333
}


skinparam agent {
	BackgroundColor #ff8000
	BorderColor #ff9933
	FontColor #484848
}


skinparam note {
	BorderThickness 1
	BackgroundColor #1b1b1a
	BorderColor #5e5e5e
	FontSize 11
	FontColor #a0a0a0
}


skinparam artifact {
	BorderThickness 10
	BorderColor #5e5e5e
	BackgroundColor #1b1b1a
	FontColor #D8Bc00
}


skinparam component {
		FontColor #C8Ac00
	BorderColor #333333
	BackgroundColor #333333-#333333
}


skinparam interface {
	BackgroundColor  #008400
	BorderColor  #007F00
	FontColor #484848
}


skinparam storage {
	BackgroundColor #ff8000
  	BorderColor #cc6600
	FontColor #222222
}


skinparam node {
	BackgroundColor #333333
	BorderColor #333333
	FontColor #C8Ac00
}


skinparam cloud {
	BackgroundColor #484848-black
	BorderColor #484848
	FontColor #D8Bc00
}


skinparam database {
		FontColor #C8Ac00
	BorderColor #333333
	BackgroundColor #333333-#333333
	BackgroundColor  #333333
}


skinparam class {
		FontColor #C8Ac00
	BorderColor #333333
	BackgroundColor #333333-#333333
	HeaderBackgroundColor #1b1b1a
    BackgroundColor #282828
    BorderColor #5e5e5e
 	StereotypeFontColor #a0a0a0
    StereotypeFontStyle bold
	BorderThickness 1
	AttributeFontColor #D8Bc00
	AttributeFontSize 11
    FontColor #D8Bc00
    FontStyle bold
}


skinparam object {
		FontColor #C8Ac00
	BorderColor #333333
	BackgroundColor #333333-#333333
	StereotypeFontColor #484848
	BorderThickness 1
	AttributeFontColor #fefefe
	AttributeFontSize 11
}


skinparam usecase {
		FontColor #C8Ac00
	BorderColor #333333
	BackgroundColor #333333-#333333
	BorderThickness 2
	StereotypeFontColor #303030
}


skinparam rectangle {
		FontColor #C8Ac00
	BorderColor #333333
	BackgroundColor #333333-#333333
	BackgroundColor #333333
	BorderThickness 2
	StereotypeFontColor #303030
}


skinparam package {
		FontColor #C8Ac00
	BorderColor #333333
	BackgroundColor #333333-#333333
	BackgroundColor #333333
	BorderThickness 2
}


skinparam folder {
	BackgroundColor #6d6d6d
  	BorderColor #ff8000
	FontColor #ff8000
	BorderThickness 2
}


skinparam frame {
	BackgroundColor #6d6d6d
  	BorderColor #0060a8
	FontColor #0060a8
	BorderThickness 2
}


skinparam state {
		FontColor #C8Ac00
	BorderColor #333333
	BackgroundColor #333333-#333333
	StartColor #0060a8
	EndColor #0060a8
	AttributeFontColor #fefefe
	AttributeFontSize 11
}


skinparam queue {
		FontColor #C8Ac00
	BorderColor #333333
	BackgroundColor #333333-#333333
}


skinparam card {
	BackgroundColor #0060a8
	BorderColor #004d86
	FontColor $INFO_TEXT
}


skinparam file {
	BackgroundColor #6d6d6d-#484848
	BorderColor #0060a8
	FontColor #fefefe
}


skinparam stack {
		FontColor #C8Ac00
	BorderColor #333333
	BackgroundColor #333333-#333333
}

    
    title "com.telenav.kivakit.network.email.converters"
    
    abstract BaseListConverter
    abstract BaseCollectionConverter
    abstract BaseSetConverter
    abstract BaseStringConverter
    
    BaseCollectionConverter <|- - AttachmentConverter
    class AttachmentConverter
    {
        - -(constructors)- -
        +AttachmentConverter(Listener)
    }
    
    BaseListConverter <|- - AttachmentListConverter
    class AttachmentListConverter
    {
        - -(constructors)- -
        +AttachmentListConverter(Listener)
    }
    
    BaseCollectionConverter <|- - BodyConverter
    class BodyConverter
    {
        - -(constructors)- -
        +BodyConverter(Listener)
    }
    
    BaseStringConverter <|- - EmailAddressConverter
    class EmailAddressConverter
    {
        - -(constructors)- -
        +EmailAddressConverter(Listener)
    }
    
    BaseSetConverter <|- - EmailAddressSetConverter
    class EmailAddressSetConverter
    {
        - -(constructors)- -
        +EmailAddressSetConverter(Listener)
    }
    
@enduml

PlantUML version 1.2021.01(Tue Feb 02 00:55:08 MST 2021)
(GPL source distribution)
Java Runtime: Java(TM) SE Runtime Environment
JVM: Java HotSpot(TM) 64-Bit Server VM
Default Encoding: UTF-8
Language: en
Country: US
--></g></svg>