<?xml version="1.0" encoding="UTF-8" standalone="no"?><svg xmlns="http://www.w3.org/2000/svg" xmlns:xlink="http://www.w3.org/1999/xlink" contentScriptType="application/ecmascript" contentStyleType="text/css" height="747.9167px" preserveAspectRatio="none" style="width:1943px;height:747px;background:#333333;" version="1.1" viewBox="0 0 1943 747" width="1943.75px" zoomAndPan="magnify"><defs/><g><rect fill="#48494B" height="41.2028" rx="8.3333" ry="8.3333" style="stroke:#545454;stroke-width:1.0416666666666667;" width="290.625" x="819.2708" y="2.0833"/><text fill="#C0C0C0" font-family="Open Sans,Avenir,Nunito,Arial,Helvetica,SansSerif" font-size="20.8333" lengthAdjust="spacing" textLength="267.7083" x="830.7292" y="30.5583">kivakit-core-network-http</text><!--MD5=[4f079977920bf52107586fb847a1e92c]
entity kryo--><rect fill="#1B1B1A" height="44.93" rx="8.3333" ry="8.3333" style="stroke:#5E5E5E;stroke-width:1.5625;" width="63.5417" x="1077.6042" y="482.8695"/><polygon fill="#1B1B1A" points="1123.4375,488.0778,1123.4375,502.6611,1135.9375,502.6611,1135.9375,494.3278,1129.6875,488.0778,1123.4375,488.0778" style="stroke:#5E5E5E;stroke-width:1.5625;"/><line style="stroke:#5E5E5E;stroke-width:1.5625;" x1="1129.6875" x2="1129.6875" y1="488.0778" y2="494.3278"/><line style="stroke:#5E5E5E;stroke-width:1.5625;" x1="1135.9375" x2="1129.6875" y1="494.3278" y2="494.3278"/><text fill="#D8BC00" font-family="Open Sans,Avenir,Nunito,Arial,Helvetica,SansSerif" font-size="12.5" lengthAdjust="spacing" textLength="26.0417" x="1091.1458" y="511.6211">kryo</text><!--MD5=[745ab22dbfa32e29a2660b9e5bc2262a]
entity minlog--><rect fill="#1B1B1A" height="44.93" rx="8.3333" ry="8.3333" style="stroke:#5E5E5E;stroke-width:1.5625;" width="77.0833" x="945.8333" y="590.1611"/><polygon fill="#1B1B1A" points="1005.2083,595.3695,1005.2083,609.9528,1017.7083,609.9528,1017.7083,601.6195,1011.4583,595.3695,1005.2083,595.3695" style="stroke:#5E5E5E;stroke-width:1.5625;"/><line style="stroke:#5E5E5E;stroke-width:1.5625;" x1="1011.4583" x2="1011.4583" y1="595.3695" y2="601.6195"/><line style="stroke:#5E5E5E;stroke-width:1.5625;" x1="1017.7083" x2="1011.4583" y1="601.6195" y2="601.6195"/><text fill="#D8BC00" font-family="Open Sans,Avenir,Nunito,Arial,Helvetica,SansSerif" font-size="12.5" lengthAdjust="spacing" textLength="39.5833" x="959.375" y="618.9128">minlog</text><!--MD5=[5d0bc62e6e2e5a8467f655d5e580826c]
entity reflectasm--><rect fill="#1B1B1A" height="44.93" rx="8.3333" ry="8.3333" style="stroke:#5E5E5E;stroke-width:1.5625;" width="100" x="1059.375" y="590.1611"/><polygon fill="#1B1B1A" points="1141.6667,595.3695,1141.6667,609.9528,1154.1667,609.9528,1154.1667,601.6195,1147.9167,595.3695,1141.6667,595.3695" style="stroke:#5E5E5E;stroke-width:1.5625;"/><line style="stroke:#5E5E5E;stroke-width:1.5625;" x1="1147.9167" x2="1147.9167" y1="595.3695" y2="601.6195"/><line style="stroke:#5E5E5E;stroke-width:1.5625;" x1="1154.1667" x2="1147.9167" y1="601.6195" y2="601.6195"/><text fill="#D8BC00" font-family="Open Sans,Avenir,Nunito,Arial,Helvetica,SansSerif" font-size="12.5" lengthAdjust="spacing" textLength="62.5" x="1072.9167" y="618.9128">reflectasm</text><!--MD5=[07375bd6ced801b2ef86c9d3f68eec61]
entity jackson_annotations--><rect fill="#1B1B1A" height="44.93" rx="8.3333" ry="8.3333" style="stroke:#5E5E5E;stroke-width:1.5625;" width="158.3333" x="7.2917" y="482.8695"/><polygon fill="#1B1B1A" points="147.9167,488.0778,147.9167,502.6611,160.4167,502.6611,160.4167,494.3278,154.1667,488.0778,147.9167,488.0778" style="stroke:#5E5E5E;stroke-width:1.5625;"/><line style="stroke:#5E5E5E;stroke-width:1.5625;" x1="154.1667" x2="154.1667" y1="488.0778" y2="494.3278"/><line style="stroke:#5E5E5E;stroke-width:1.5625;" x1="160.4167" x2="154.1667" y1="494.3278" y2="494.3278"/><text fill="#D8BC00" font-family="Open Sans,Avenir,Nunito,Arial,Helvetica,SansSerif" font-size="12.5" lengthAdjust="spacing" textLength="120.8333" x="20.8333" y="511.6211">jackson_annotations</text><!--MD5=[d9521c76c2842dca8b8a8d137addb4db]
entity kivakit_build_metadata--><rect fill="#1B1B1A" height="44.93" rx="8.3333" ry="8.3333" style="stroke:#5E5E5E;stroke-width:1.5625;" width="176.0417" x="202.6042" y="482.8695"/><polygon fill="#1B1B1A" points="360.9375,488.0778,360.9375,502.6611,373.4375,502.6611,373.4375,494.3278,367.1875,488.0778,360.9375,488.0778" style="stroke:#5E5E5E;stroke-width:1.5625;"/><line style="stroke:#5E5E5E;stroke-width:1.5625;" x1="367.1875" x2="367.1875" y1="488.0778" y2="494.3278"/><line style="stroke:#5E5E5E;stroke-width:1.5625;" x1="373.4375" x2="367.1875" y1="494.3278" y2="494.3278"/><text fill="#D8BC00" font-family="Open Sans,Avenir,Nunito,Arial,Helvetica,SansSerif" font-size="12.5" lengthAdjust="spacing" textLength="138.5417" x="216.1458" y="511.6211">kivakit_build_metadata</text><!--MD5=[c749d8fbd0ccf88f309a9fa69b45c399]
entity kivakit_core_collections--><rect fill="#1B1B1A" height="44.93" rx="8.3333" ry="8.3333" style="stroke:#5E5E5E;stroke-width:1.5625;" width="176.0417" x="1021.3542" y="268.2861"/><polygon fill="#1B1B1A" points="1179.6875,273.4945,1179.6875,288.0778,1192.1875,288.0778,1192.1875,279.7445,1185.9375,273.4945,1179.6875,273.4945" style="stroke:#5E5E5E;stroke-width:1.5625;"/><line style="stroke:#5E5E5E;stroke-width:1.5625;" x1="1185.9375" x2="1185.9375" y1="273.4945" y2="279.7445"/><line style="stroke:#5E5E5E;stroke-width:1.5625;" x1="1192.1875" x2="1185.9375" y1="279.7445" y2="279.7445"/><text fill="#D8BC00" font-family="Open Sans,Avenir,Nunito,Arial,Helvetica,SansSerif" font-size="12.5" lengthAdjust="spacing" textLength="138.5417" x="1034.8958" y="297.0378">kivakit_core_collections</text><!--MD5=[90cbd57b7ed4cf40beb41e0bb8ca8fc2]
entity kivakit_core_commandline--><rect fill="#1B1B1A" height="44.93" rx="8.3333" ry="8.3333" style="stroke:#5E5E5E;stroke-width:1.5625;" width="194.7917" x="589.0625" y="268.2861"/><polygon fill="#1B1B1A" points="766.1458,273.4945,766.1458,288.0778,778.6458,288.0778,778.6458,279.7445,772.3958,273.4945,766.1458,273.4945" style="stroke:#5E5E5E;stroke-width:1.5625;"/><line style="stroke:#5E5E5E;stroke-width:1.5625;" x1="772.3958" x2="772.3958" y1="273.4945" y2="279.7445"/><line style="stroke:#5E5E5E;stroke-width:1.5625;" x1="778.6458" x2="772.3958" y1="279.7445" y2="279.7445"/><text fill="#D8BC00" font-family="Open Sans,Avenir,Nunito,Arial,Helvetica,SansSerif" font-size="12.5" lengthAdjust="spacing" textLength="157.2917" x="602.6042" y="297.0378">kivakit_core_commandline</text><!--MD5=[688f54af1e374da9fda80b106920514e]
entity kivakit_core_kernel--><rect fill="#1B1B1A" height="44.93" rx="8.3333" ry="8.3333" style="stroke:#5E5E5E;stroke-width:1.5625;" width="152.0833" x="610.4167" y="375.5778"/><polygon fill="#1B1B1A" points="744.7917,380.7861,744.7917,395.3695,757.2917,395.3695,757.2917,387.0361,751.0417,380.7861,744.7917,380.7861" style="stroke:#5E5E5E;stroke-width:1.5625;"/><line style="stroke:#5E5E5E;stroke-width:1.5625;" x1="751.0417" x2="751.0417" y1="380.7861" y2="387.0361"/><line style="stroke:#5E5E5E;stroke-width:1.5625;" x1="757.2917" x2="751.0417" y1="387.0361" y2="387.0361"/><text fill="#D8BC00" font-family="Open Sans,Avenir,Nunito,Arial,Helvetica,SansSerif" font-size="12.5" lengthAdjust="spacing" textLength="114.5833" x="623.9583" y="404.3294">kivakit_core_kernel</text><!--MD5=[5b631a7c13cf598b93db810005140bd8]
entity kivakit_core_network_core--><rect fill="#1B1B1A" height="44.93" rx="8.3333" ry="8.3333" style="stroke:#5E5E5E;stroke-width:1.5625;" width="194.7917" x="803.6458" y="160.9945"/><polygon fill="#1B1B1A" points="980.7292,166.2028,980.7292,180.7861,993.2292,180.7861,993.2292,172.4528,986.9792,166.2028,980.7292,166.2028" style="stroke:#5E5E5E;stroke-width:1.5625;"/><line style="stroke:#5E5E5E;stroke-width:1.5625;" x1="986.9792" x2="986.9792" y1="166.2028" y2="172.4528"/><line style="stroke:#5E5E5E;stroke-width:1.5625;" x1="993.2292" x2="986.9792" y1="172.4528" y2="172.4528"/><text fill="#D8BC00" font-family="Open Sans,Avenir,Nunito,Arial,Helvetica,SansSerif" font-size="12.5" lengthAdjust="spacing" textLength="157.2917" x="817.1875" y="189.7461">kivakit_core_network_core</text><!--MD5=[023ebcd2f7c91349f946f06c2f61cb72]
entity kivakit_core_network_http--><rect fill="#1B1B1A" height="44.93" rx="8.3333" ry="8.3333" style="stroke:#5E5E5E;stroke-width:1.5625;" width="192.7083" x="1138.0208" y="53.7028"/><polygon fill="#1B1B1A" points="1313.0208,58.9111,1313.0208,73.4945,1325.5208,73.4945,1325.5208,65.1611,1319.2708,58.9111,1313.0208,58.9111" style="stroke:#5E5E5E;stroke-width:1.5625;"/><line style="stroke:#5E5E5E;stroke-width:1.5625;" x1="1319.2708" x2="1319.2708" y1="58.9111" y2="65.1611"/><line style="stroke:#5E5E5E;stroke-width:1.5625;" x1="1325.5208" x2="1319.2708" y1="65.1611" y2="65.1611"/><text fill="#D8BC00" font-family="Open Sans,Avenir,Nunito,Arial,Helvetica,SansSerif" font-size="12.5" lengthAdjust="spacing" textLength="155.2083" x="1151.5625" y="82.4544">kivakit_core_network_http</text><!--MD5=[96baabbb2bc8385dcde9005719ffbed4]
entity kivakit_core_resource--><rect fill="#1B1B1A" height="44.93" rx="8.3333" ry="8.3333" style="stroke:#5E5E5E;stroke-width:1.5625;" width="166.6667" x="1151.0417" y="160.9945"/><polygon fill="#1B1B1A" points="1300,166.2028,1300,180.7861,1312.5,180.7861,1312.5,172.4528,1306.25,166.2028,1300,166.2028" style="stroke:#5E5E5E;stroke-width:1.5625;"/><line style="stroke:#5E5E5E;stroke-width:1.5625;" x1="1306.25" x2="1306.25" y1="166.2028" y2="172.4528"/><line style="stroke:#5E5E5E;stroke-width:1.5625;" x1="1312.5" x2="1306.25" y1="172.4528" y2="172.4528"/><text fill="#D8BC00" font-family="Open Sans,Avenir,Nunito,Arial,Helvetica,SansSerif" font-size="12.5" lengthAdjust="spacing" textLength="129.1667" x="1164.5833" y="189.7461">kivakit_core_resource</text><!--MD5=[b95351c189380c02c3c9de61c422881e]
entity kivakit_core_security--><rect fill="#1B1B1A" height="44.93" rx="8.3333" ry="8.3333" style="stroke:#5E5E5E;stroke-width:1.5625;" width="160.4167" x="820.8333" y="268.2861"/><polygon fill="#1B1B1A" points="963.5417,273.4945,963.5417,288.0778,976.0417,288.0778,976.0417,279.7445,969.7917,273.4945,963.5417,273.4945" style="stroke:#5E5E5E;stroke-width:1.5625;"/><line style="stroke:#5E5E5E;stroke-width:1.5625;" x1="969.7917" x2="969.7917" y1="273.4945" y2="279.7445"/><line style="stroke:#5E5E5E;stroke-width:1.5625;" x1="976.0417" x2="969.7917" y1="279.7445" y2="279.7445"/><text fill="#D8BC00" font-family="Open Sans,Avenir,Nunito,Arial,Helvetica,SansSerif" font-size="12.5" lengthAdjust="spacing" textLength="122.9167" x="834.375" y="297.0378">kivakit_core_security</text><!--MD5=[98b25bf0c66f95b164f347e9d0e8dc28]
entity kivakit_core_serialization_core--><rect fill="#1B1B1A" height="44.93" rx="8.3333" ry="8.3333" style="stroke:#5E5E5E;stroke-width:1.5625;" width="218.75" x="1234.375" y="268.2861"/><polygon fill="#1B1B1A" points="1435.4167,273.4945,1435.4167,288.0778,1447.9167,288.0778,1447.9167,279.7445,1441.6667,273.4945,1435.4167,273.4945" style="stroke:#5E5E5E;stroke-width:1.5625;"/><line style="stroke:#5E5E5E;stroke-width:1.5625;" x1="1441.6667" x2="1441.6667" y1="273.4945" y2="279.7445"/><line style="stroke:#5E5E5E;stroke-width:1.5625;" x1="1447.9167" x2="1441.6667" y1="279.7445" y2="279.7445"/><text fill="#D8BC00" font-family="Open Sans,Avenir,Nunito,Arial,Helvetica,SansSerif" font-size="12.5" lengthAdjust="spacing" textLength="181.25" x="1247.9167" y="297.0378">kivakit_core_serialization_core</text><!--MD5=[0a9583a81da34a7dccf2b6c4ad7f5d24]
entity kivakit_core_serialization_kryo--><rect fill="#1B1B1A" height="44.93" rx="8.3333" ry="8.3333" style="stroke:#5E5E5E;stroke-width:1.5625;" width="218.75" x="1002.0833" y="375.5778"/><polygon fill="#1B1B1A" points="1203.125,380.7861,1203.125,395.3695,1215.625,395.3695,1215.625,387.0361,1209.375,380.7861,1203.125,380.7861" style="stroke:#5E5E5E;stroke-width:1.5625;"/><line style="stroke:#5E5E5E;stroke-width:1.5625;" x1="1209.375" x2="1209.375" y1="380.7861" y2="387.0361"/><line style="stroke:#5E5E5E;stroke-width:1.5625;" x1="1215.625" x2="1209.375" y1="387.0361" y2="387.0361"/><text fill="#D8BC00" font-family="Open Sans,Avenir,Nunito,Arial,Helvetica,SansSerif" font-size="12.5" lengthAdjust="spacing" textLength="181.25" x="1015.625" y="404.3294">kivakit_core_serialization_kryo</text><!--MD5=[818dec80b2352fb7b5669cdb2944a52b]
entity kivakit_core_test--><rect fill="#1B1B1A" height="44.93" rx="8.3333" ry="8.3333" style="stroke:#5E5E5E;stroke-width:1.5625;" width="136.4583" x="828.6458" y="375.5778"/><polygon fill="#1B1B1A" points="947.3958,380.7861,947.3958,395.3695,959.8958,395.3695,959.8958,387.0361,953.6458,380.7861,947.3958,380.7861" style="stroke:#5E5E5E;stroke-width:1.5625;"/><line style="stroke:#5E5E5E;stroke-width:1.5625;" x1="953.6458" x2="953.6458" y1="380.7861" y2="387.0361"/><line style="stroke:#5E5E5E;stroke-width:1.5625;" x1="959.8958" x2="953.6458" y1="387.0361" y2="387.0361"/><text fill="#D8BC00" font-family="Open Sans,Avenir,Nunito,Arial,Helvetica,SansSerif" font-size="12.5" lengthAdjust="spacing" textLength="98.9583" x="842.1875" y="404.3294">kivakit_core_test</text><!--MD5=[7b0fec798d1f32628676dfdf75f1f662]
entity lexakai_annotations--><rect fill="#1B1B1A" height="44.93" rx="8.3333" ry="8.3333" style="stroke:#5E5E5E;stroke-width:1.5625;" width="155.2083" x="415.1042" y="482.8695"/><polygon fill="#1B1B1A" points="552.6042,488.0778,552.6042,502.6611,565.1042,502.6611,565.1042,494.3278,558.8542,488.0778,552.6042,488.0778" style="stroke:#5E5E5E;stroke-width:1.5625;"/><line style="stroke:#5E5E5E;stroke-width:1.5625;" x1="558.8542" x2="558.8542" y1="488.0778" y2="494.3278"/><line style="stroke:#5E5E5E;stroke-width:1.5625;" x1="565.1042" x2="558.8542" y1="494.3278" y2="494.3278"/><text fill="#D8BC00" font-family="Open Sans,Avenir,Nunito,Arial,Helvetica,SansSerif" font-size="12.5" lengthAdjust="spacing" textLength="117.7083" x="428.6458" y="511.6211">lexakai_annotations</text><!--MD5=[9fc9c5f092413c11c1c25bc16308703f]
entity commons_codec--><rect fill="#1B1B1A" height="44.93" rx="8.3333" ry="8.3333" style="stroke:#5E5E5E;stroke-width:1.5625;" width="136.4583" x="1490.1042" y="268.2861"/><polygon fill="#1B1B1A" points="1608.8542,273.4945,1608.8542,288.0778,1621.3542,288.0778,1621.3542,279.7445,1615.1042,273.4945,1608.8542,273.4945" style="stroke:#5E5E5E;stroke-width:1.5625;"/><line style="stroke:#5E5E5E;stroke-width:1.5625;" x1="1615.1042" x2="1615.1042" y1="273.4945" y2="279.7445"/><line style="stroke:#5E5E5E;stroke-width:1.5625;" x1="1621.3542" x2="1615.1042" y1="279.7445" y2="279.7445"/><text fill="#D8BC00" font-family="Open Sans,Avenir,Nunito,Arial,Helvetica,SansSerif" font-size="12.5" lengthAdjust="spacing" textLength="98.9583" x="1503.6458" y="297.0378">commons_codec</text><!--MD5=[2389a778b156a3639a4bce3531bc29c3]
entity commons_logging--><rect fill="#1B1B1A" height="44.93" rx="8.3333" ry="8.3333" style="stroke:#5E5E5E;stroke-width:1.5625;" width="143.75" x="1663.5417" y="268.2861"/><polygon fill="#1B1B1A" points="1789.5833,273.4945,1789.5833,288.0778,1802.0833,288.0778,1802.0833,279.7445,1795.8333,273.4945,1789.5833,273.4945" style="stroke:#5E5E5E;stroke-width:1.5625;"/><line style="stroke:#5E5E5E;stroke-width:1.5625;" x1="1795.8333" x2="1795.8333" y1="273.4945" y2="279.7445"/><line style="stroke:#5E5E5E;stroke-width:1.5625;" x1="1802.0833" x2="1795.8333" y1="279.7445" y2="279.7445"/><text fill="#D8BC00" font-family="Open Sans,Avenir,Nunito,Arial,Helvetica,SansSerif" font-size="12.5" lengthAdjust="spacing" textLength="106.25" x="1677.0833" y="297.0378">commons_logging</text><!--MD5=[b9ccc173c089e3d2abf77c8581e74aca]
entity kryo_serializers--><rect fill="#1B1B1A" height="44.93" rx="8.3333" ry="8.3333" style="stroke:#5E5E5E;stroke-width:1.5625;" width="131.25" x="1178.125" y="482.8695"/><polygon fill="#1B1B1A" points="1291.6667,488.0778,1291.6667,502.6611,1304.1667,502.6611,1304.1667,494.3278,1297.9167,488.0778,1291.6667,488.0778" style="stroke:#5E5E5E;stroke-width:1.5625;"/><line style="stroke:#5E5E5E;stroke-width:1.5625;" x1="1297.9167" x2="1297.9167" y1="488.0778" y2="494.3278"/><line style="stroke:#5E5E5E;stroke-width:1.5625;" x1="1304.1667" x2="1297.9167" y1="494.3278" y2="494.3278"/><text fill="#D8BC00" font-family="Open Sans,Avenir,Nunito,Arial,Helvetica,SansSerif" font-size="12.5" lengthAdjust="spacing" textLength="93.75" x="1191.6667" y="511.6211">kryo_serializers</text><!--MD5=[23cc7f88cfa1ae4b54fca2963c42906f]
entity swagger_annotations--><rect fill="#1B1B1A" height="44.93" rx="8.3333" ry="8.3333" style="stroke:#5E5E5E;stroke-width:1.5625;" width="162.5" x="607.2917" y="482.8695"/><polygon fill="#1B1B1A" points="752.0833,488.0778,752.0833,502.6611,764.5833,502.6611,764.5833,494.3278,758.3333,488.0778,752.0833,488.0778" style="stroke:#5E5E5E;stroke-width:1.5625;"/><line style="stroke:#5E5E5E;stroke-width:1.5625;" x1="758.3333" x2="758.3333" y1="488.0778" y2="494.3278"/><line style="stroke:#5E5E5E;stroke-width:1.5625;" x1="764.5833" x2="758.3333" y1="494.3278" y2="494.3278"/><text fill="#D8BC00" font-family="Open Sans,Avenir,Nunito,Arial,Helvetica,SansSerif" font-size="12.5" lengthAdjust="spacing" textLength="125" x="620.8333" y="511.6211">swagger_annotations</text><!--MD5=[ce55b294004802c137560c2930be5b75]
entity junit--><rect fill="#1B1B1A" height="44.93" rx="8.3333" ry="8.3333" style="stroke:#5E5E5E;stroke-width:1.5625;" width="63.5417" x="806.7708" y="482.8695"/><polygon fill="#1B1B1A" points="852.6042,488.0778,852.6042,502.6611,865.1042,502.6611,865.1042,494.3278,858.8542,488.0778,852.6042,488.0778" style="stroke:#5E5E5E;stroke-width:1.5625;"/><line style="stroke:#5E5E5E;stroke-width:1.5625;" x1="858.8542" x2="858.8542" y1="488.0778" y2="494.3278"/><line style="stroke:#5E5E5E;stroke-width:1.5625;" x1="865.1042" x2="858.8542" y1="494.3278" y2="494.3278"/><text fill="#D8BC00" font-family="Open Sans,Avenir,Nunito,Arial,Helvetica,SansSerif" font-size="12.5" lengthAdjust="spacing" textLength="26.0417" x="820.3125" y="511.6211">junit</text><!--MD5=[4d84dd946d4c44d64e4fb3c2bb10389a]
entity httpclient--><rect fill="#1B1B1A" height="44.93" rx="8.3333" ry="8.3333" style="stroke:#5E5E5E;stroke-width:1.5625;" width="92.7083" x="1600.5208" y="160.9945"/><polygon fill="#1B1B1A" points="1675.5208,166.2028,1675.5208,180.7861,1688.0208,180.7861,1688.0208,172.4528,1681.7708,166.2028,1675.5208,166.2028" style="stroke:#5E5E5E;stroke-width:1.5625;"/><line style="stroke:#5E5E5E;stroke-width:1.5625;" x1="1681.7708" x2="1681.7708" y1="166.2028" y2="172.4528"/><line style="stroke:#5E5E5E;stroke-width:1.5625;" x1="1688.0208" x2="1681.7708" y1="172.4528" y2="172.4528"/><text fill="#D8BC00" font-family="Open Sans,Avenir,Nunito,Arial,Helvetica,SansSerif" font-size="12.5" lengthAdjust="spacing" textLength="55.2083" x="1614.0625" y="189.7461">httpclient</text><!--MD5=[1374b169c6b8870e9ee15755210fd002]
entity httpcore--><rect fill="#1B1B1A" height="44.93" rx="8.3333" ry="8.3333" style="stroke:#5E5E5E;stroke-width:1.5625;" width="87.5" x="1843.75" y="268.2861"/><polygon fill="#1B1B1A" points="1913.5417,273.4945,1913.5417,288.0778,1926.0417,288.0778,1926.0417,279.7445,1919.7917,273.4945,1913.5417,273.4945" style="stroke:#5E5E5E;stroke-width:1.5625;"/><line style="stroke:#5E5E5E;stroke-width:1.5625;" x1="1919.7917" x2="1919.7917" y1="273.4945" y2="279.7445"/><line style="stroke:#5E5E5E;stroke-width:1.5625;" x1="1926.0417" x2="1919.7917" y1="279.7445" y2="279.7445"/><text fill="#D8BC00" font-family="Open Sans,Avenir,Nunito,Arial,Helvetica,SansSerif" font-size="12.5" lengthAdjust="spacing" textLength="50" x="1857.2917" y="297.0378">httpcore</text><!--MD5=[7f157d37bc1fd6ac970bb67ffdbc66a3]
entity hamcrest_core--><rect fill="#1B1B1A" height="44.93" rx="8.3333" ry="8.3333" style="stroke:#5E5E5E;stroke-width:1.5625;" width="125" x="776.0417" y="590.1611"/><polygon fill="#1B1B1A" points="883.3333,595.3695,883.3333,609.9528,895.8333,609.9528,895.8333,601.6195,889.5833,595.3695,883.3333,595.3695" style="stroke:#5E5E5E;stroke-width:1.5625;"/><line style="stroke:#5E5E5E;stroke-width:1.5625;" x1="889.5833" x2="889.5833" y1="595.3695" y2="601.6195"/><line style="stroke:#5E5E5E;stroke-width:1.5625;" x1="895.8333" x2="889.5833" y1="601.6195" y2="601.6195"/><text fill="#D8BC00" font-family="Open Sans,Avenir,Nunito,Arial,Helvetica,SansSerif" font-size="12.5" lengthAdjust="spacing" textLength="87.5" x="789.5833" y="618.9128">hamcrest_core</text><!--MD5=[b728e17b4e4da6aa8cb97e9b2766c5e6]
entity annotations--><rect fill="#1B1B1A" height="44.93" rx="8.3333" ry="8.3333" style="stroke:#5E5E5E;stroke-width:1.5625;" width="106.25" x="907.2917" y="482.8695"/><polygon fill="#1B1B1A" points="995.8333,488.0778,995.8333,502.6611,1008.3333,502.6611,1008.3333,494.3278,1002.0833,488.0778,995.8333,488.0778" style="stroke:#5E5E5E;stroke-width:1.5625;"/><line style="stroke:#5E5E5E;stroke-width:1.5625;" x1="1002.0833" x2="1002.0833" y1="488.0778" y2="494.3278"/><line style="stroke:#5E5E5E;stroke-width:1.5625;" x1="1008.3333" x2="1002.0833" y1="494.3278" y2="494.3278"/><text fill="#D8BC00" font-family="Open Sans,Avenir,Nunito,Arial,Helvetica,SansSerif" font-size="12.5" lengthAdjust="spacing" textLength="68.75" x="920.8333" y="511.6211">annotations</text><!--MD5=[b3c862d1486667ad9c7edef6529b2202]
entity objenesis--><rect fill="#1B1B1A" height="44.93" rx="8.3333" ry="8.3333" style="stroke:#5E5E5E;stroke-width:1.5625;" width="94.7917" x="1196.3542" y="590.1611"/><polygon fill="#1B1B1A" points="1273.4375,595.3695,1273.4375,609.9528,1285.9375,609.9528,1285.9375,601.6195,1279.6875,595.3695,1273.4375,595.3695" style="stroke:#5E5E5E;stroke-width:1.5625;"/><line style="stroke:#5E5E5E;stroke-width:1.5625;" x1="1279.6875" x2="1279.6875" y1="595.3695" y2="601.6195"/><line style="stroke:#5E5E5E;stroke-width:1.5625;" x1="1285.9375" x2="1279.6875" y1="601.6195" y2="601.6195"/><text fill="#D8BC00" font-family="Open Sans,Avenir,Nunito,Arial,Helvetica,SansSerif" font-size="12.5" lengthAdjust="spacing" textLength="57.2917" x="1209.8958" y="618.9128">objenesis</text><!--MD5=[92e2ad58d19962135e7ff93f22958550]
entity asm--><rect fill="#1B1B1A" height="44.93" rx="8.3333" ry="8.3333" style="stroke:#5E5E5E;stroke-width:1.5625;" width="62.5" x="1078.125" y="697.4528"/><polygon fill="#1B1B1A" points="1122.9167,702.6611,1122.9167,717.2445,1135.4167,717.2445,1135.4167,708.9111,1129.1667,702.6611,1122.9167,702.6611" style="stroke:#5E5E5E;stroke-width:1.5625;"/><line style="stroke:#5E5E5E;stroke-width:1.5625;" x1="1129.1667" x2="1129.1667" y1="702.6611" y2="708.9111"/><line style="stroke:#5E5E5E;stroke-width:1.5625;" x1="1135.4167" x2="1129.1667" y1="708.9111" y2="708.9111"/><text fill="#D8BC00" font-family="Open Sans,Avenir,Nunito,Arial,Helvetica,SansSerif" font-size="12.5" lengthAdjust="spacing" textLength="25" x="1091.6667" y="726.2044">asm</text><!--MD5=[923ee6a6eae3e1d757d269661300cab9]
link httpclient to commons_codec--><path d="M1628.5313,206.234 C1614.4271,222.984 1594.9063,246.182 1580.0313,263.859 " fill="none" id="httpclient-to-commons_codec" style="stroke:#545454;stroke-width:1.5625;"/><polygon fill="#545454" points="1576.3542,268.234,1585.5832,263.7533,1579.7118,264.2524,1579.2126,258.3811,1576.3542,268.234" style="stroke:#545454;stroke-width:1.5625;"/><!--MD5=[c333db81a2cf180100c7f76536e57fe3]
link httpclient to commons_logging--><path d="M1665.2188,206.234 C1679.3229,222.984 1698.8438,246.182 1713.7188,263.859 " fill="none" id="httpclient-to-commons_logging" style="stroke:#545454;stroke-width:1.5625;"/><polygon fill="#545454" points="1717.3958,268.234,1714.5374,258.3811,1714.0382,264.2524,1708.1668,263.7533,1717.3958,268.234" style="stroke:#545454;stroke-width:1.5625;"/><!--MD5=[eb2a6f0c186b5b958ac6ddd5ba3b959e]
link httpclient to httpcore--><path d="M1693.2708,204.7132 C1735,222.9632 1796.1042,249.682 1838.5938,268.2549 " fill="none" id="httpclient-to-httpcore" style="stroke:#545454;stroke-width:1.5625;"/><polygon fill="#545454" points="1843.6771,270.484,1836.7495,262.917,1838.903,268.4019,1833.4181,270.5554,1843.6771,270.484" style="stroke:#545454;stroke-width:1.5625;"/><!--MD5=[d68e7c4b3ca5f037bcb6997a0b4ed16b]
link junit to hamcrest_core--><path d="M838.5417,528.109 C838.5417,544.5778 838.5417,567.2757 838.5417,584.8278 " fill="none" id="junit-to-hamcrest_core" style="stroke:#545454;stroke-width:1.5625;"/><polygon fill="#545454" points="838.5417,590.109,842.7083,580.734,838.5417,584.9007,834.375,580.734,838.5417,590.109" style="stroke:#545454;stroke-width:1.5625;"/><!--MD5=[89a440cab1a8a2054a43eb185086c0c4]
link kivakit_core_collections to kivakit_core_serialization_kryo--><path d="M1109.8021,313.5257 C1110.1354,329.9945 1110.5833,352.6924 1110.9271,370.2445 " fill="none" id="kivakit_core_collections-to-kivakit_core_serialization_kryo" style="stroke:#545454;stroke-width:1.5625;"/><polygon fill="#545454" points="1111.0313,375.5257,1115.0096,366.0693,1110.9271,370.3184,1106.678,366.2359,1111.0313,375.5257" style="stroke:#545454;stroke-width:1.5625;"/><!--MD5=[e405cd3841b6b84328a74eb7d1fd93b0]
link kivakit_core_commandline to kivakit_core_kernel--><path d="M686.4583,313.5257 C686.4583,329.9945 686.4583,352.6924 686.4583,370.2445 " fill="none" id="kivakit_core_commandline-to-kivakit_core_kernel" style="stroke:#545454;stroke-width:1.5625;"/><polygon fill="#545454" points="686.4583,375.5257,690.625,366.1507,686.4583,370.3174,682.2917,366.1507,686.4583,375.5257" style="stroke:#545454;stroke-width:1.5625;"/><!--MD5=[952d2988887d0a1a5ab8e547a07453b0]
link kivakit_core_kernel to annotations--><path d="M742.2292,420.432 C788.7188,438.2861 854.75,463.6403 901.9688,481.7757 " fill="none" id="kivakit_core_kernel-to-annotations" style="stroke:#545454;stroke-width:1.5625;"/><polygon fill="#545454" points="907.0521,483.734,899.7829,476.4946,902.1871,481.8743,896.8073,484.2786,907.0521,483.734" style="stroke:#545454;stroke-width:1.5625;"/><!--MD5=[b7680a521db9e3e37ee2504e235738ce]
link kivakit_core_kernel to jackson_annotations--><path d="M610.125,410.5674 C511.5313,425.7653 334.7292,453.9424 184.375,482.8695 C180.0104,483.7132 175.5521,484.5882 171.0521,485.5049 " fill="none" id="kivakit_core_kernel-to-jackson_annotations" style="stroke:#545454;stroke-width:1.5625;"/><polygon fill="#545454" points="165.75,486.5882,175.7688,488.7961,170.8531,485.5468,174.1025,480.6311,165.75,486.5882" style="stroke:#545454;stroke-width:1.5625;"/><!--MD5=[b26fa4ddfc815a8311f8076e771ef7d4]
link kivakit_core_kernel to junit--><path d="M717.6042,420.557 C742.4063,437.7236 777.1563,461.7549 803.0417,479.6611 " fill="none" id="kivakit_core_kernel-to-junit" style="stroke:#545454;stroke-width:1.5625;"/><polygon fill="#545454" points="807.4375,482.7132,802.1138,473.9434,803.1595,479.7424,797.3605,480.7881,807.4375,482.7132" style="stroke:#545454;stroke-width:1.5625;"/><!--MD5=[147bacadb2b5082a02772764a83ed950]
link kivakit_core_kernel to kivakit_build_metadata--><path d="M610.1354,419.2965 C543.25,437.0778 446.1042,462.9007 376.5104,481.4007 " fill="none" id="kivakit_core_kernel-to-kivakit_build_metadata" style="stroke:#545454;stroke-width:1.5625;"/><polygon fill="#545454" points="371.1354,482.8278,381.2657,484.4494,376.1694,481.4914,379.1274,476.395,371.1354,482.8278" style="stroke:#545454;stroke-width:1.5625;"/><!--MD5=[faeafeee9ad3ae3a363b253ef7d19a64]
link kivakit_core_kernel to lexakai_annotations--><path d="M646.7813,420.557 C614.9167,437.859 570.1771,462.1507 537.125,480.109 " fill="none" id="kivakit_core_kernel-to-lexakai_annotations" style="stroke:#545454;stroke-width:1.5625;"/><polygon fill="#545454" points="532.3333,482.7132,542.5609,481.9075,536.9119,480.2307,538.5888,474.5817,532.3333,482.7132" style="stroke:#545454;stroke-width:1.5625;"/><!--MD5=[99fa47cbfc1fc0fa6998fda90ce70c02]
link kivakit_core_kernel to swagger_annotations--><path d="M686.8854,420.8174 C687.2188,437.2861 687.6667,459.984 688.0104,477.5361 " fill="none" id="kivakit_core_kernel-to-swagger_annotations" style="stroke:#545454;stroke-width:1.5625;"/><polygon fill="#545454" points="688.1146,482.8174,692.093,473.3609,688.0104,477.6101,683.7613,473.5276,688.1146,482.8174" style="stroke:#545454;stroke-width:1.5625;"/><!--MD5=[f75ec449396fb5ee5f76bf441ddbbe5d]
link kivakit_core_network_core to kivakit_core_commandline--><path d="M857.1042,205.9736 C821.6563,223.3486 771.8542,247.7757 735.1979,265.7445 " fill="none" id="kivakit_core_network_core-to-kivakit_core_commandline" style="stroke:#545454;stroke-width:1.5625;"/><polygon fill="#545454" points="730.3438,268.1299,740.5961,267.7556,735.0228,265.8423,736.9361,260.269,730.3438,268.1299" style="stroke:#545454;stroke-width:1.5625;"/><!--MD5=[4897e88fe48b13ac8e9a1231169eb6df]
link kivakit_core_network_core to kivakit_core_security--><path d="M901.0417,206.234 C901.0417,222.7028 901.0417,245.4007 901.0417,262.9528 " fill="none" id="kivakit_core_network_core-to-kivakit_core_security" style="stroke:#545454;stroke-width:1.5625;"/><polygon fill="#545454" points="901.0417,268.234,905.2083,258.859,901.0417,263.0257,896.875,258.859,901.0417,268.234" style="stroke:#545454;stroke-width:1.5625;"/><!--MD5=[be366fa89340b97558acebafebb485ce]
link kivakit_core_network_http to httpclient--><path d="M1318.3438,98.557 C1401.3438,119.7236 1525.6771,151.4424 1595.1563,169.1611 " fill="none" id="kivakit_core_network_http-to-httpclient" style="stroke:#545454;stroke-width:1.5625;"/><polygon fill="#545454" points="1600.4792,170.5153,1592.4342,164.149,1595.4343,169.2206,1590.3627,172.2207,1600.4792,170.5153" style="stroke:#545454;stroke-width:1.5625;"/><!--MD5=[f5da0db373c12af484c2f9d682bd8712]
link kivakit_core_network_http to kivakit_core_network_core--><path d="M1166.5208,98.557 C1110.5313,116.2236 1031.2604,141.2445 973.9375,159.3382 " fill="none" id="kivakit_core_network_http-to-kivakit_core_network_core" style="stroke:#545454;stroke-width:1.5625;"/><polygon fill="#545454" points="968.8021,160.9632,978.9983,162.0988,973.7664,159.3877,976.4775,154.1558,968.8021,160.9632" style="stroke:#545454;stroke-width:1.5625;"/><!--MD5=[edc2534b7fb23dede2f4230664c5fa02]
link kivakit_core_network_http to kivakit_core_resource--><path d="M1234.375,98.9424 C1234.375,115.4111 1234.375,138.109 1234.375,155.6611 " fill="none" id="kivakit_core_network_http-to-kivakit_core_resource" style="stroke:#545454;stroke-width:1.5625;"/><polygon fill="#545454" points="1234.375,160.9424,1238.5417,151.5674,1234.375,155.734,1230.2083,151.5674,1234.375,160.9424" style="stroke:#545454;stroke-width:1.5625;"/><!--MD5=[61a50f48d46fb49e436077267c3e261e]
link kivakit_core_resource to kivakit_core_collections--><path d="M1208.7813,205.9736 C1188.5521,222.9945 1160.3021,246.7757 1139.0833,264.6403 " fill="none" id="kivakit_core_resource-to-kivakit_core_collections" style="stroke:#545454;stroke-width:1.5625;"/><polygon fill="#545454" points="1134.9375,268.1299,1144.7915,265.2748,1138.9203,264.7736,1139.4215,258.9024,1134.9375,268.1299" style="stroke:#545454;stroke-width:1.5625;"/><!--MD5=[a1f0f27ef0eb17168c6cd06fee466f5d]
link kivakit_core_resource to kivakit_core_serialization_core--><path d="M1256.7708,205.9736 C1274.3229,222.859 1298.7813,246.3799 1317.2917,264.1924 " fill="none" id="kivakit_core_resource-to-kivakit_core_serialization_core" style="stroke:#545454;stroke-width:1.5625;"/><polygon fill="#545454" points="1321.3854,268.1299,1317.5291,258.623,1317.6362,264.5146,1311.7446,264.6217,1321.3854,268.1299" style="stroke:#545454;stroke-width:1.5625;"/><!--MD5=[3ff889ce0d1b5c5ada6847f2d94a29ff]
link kivakit_core_security to kivakit_core_test--><path d="M900.1771,313.5257 C899.5208,329.9945 898.625,352.6924 897.9271,370.2445 " fill="none" id="kivakit_core_security-to-kivakit_core_test" style="stroke:#545454;stroke-width:1.5625;"/><polygon fill="#545454" points="897.7188,375.5257,902.2568,366.3247,897.9269,370.3215,893.9301,365.9917,897.7188,375.5257" style="stroke:#545454;stroke-width:1.5625;"/><!--MD5=[a78602a5e159932f58b4090c620edf6f]
link kivakit_core_serialization_kryo to kryo--><path d="M1111.0313,420.8174 C1110.6979,437.2861 1110.25,459.984 1109.9063,477.5361 " fill="none" id="kivakit_core_serialization_kryo-to-kryo" style="stroke:#545454;stroke-width:1.5625;"/><polygon fill="#545454" points="1109.8021,482.8174,1114.1554,473.5276,1109.9062,477.6101,1105.8237,473.3609,1109.8021,482.8174" style="stroke:#545454;stroke-width:1.5625;"/><!--MD5=[929cb75ecd116a31d1013b63d48976ad]
link kivakit_core_serialization_kryo to kryo_serializers--><path d="M1138.5521,420.557 C1160.0417,437.6507 1190.1042,461.557 1212.5938,479.4424 " fill="none" id="kivakit_core_serialization_kryo-to-kryo_serializers" style="stroke:#545454;stroke-width:1.5625;"/><polygon fill="#545454" points="1216.6979,482.7132,1211.9354,473.6264,1212.6149,479.4796,1206.7617,480.1591,1216.6979,482.7132" style="stroke:#545454;stroke-width:1.5625;"/><!--MD5=[8c32f0e7b0abeba01afd276f5a66ee84]
link kryo to minlog--><path d="M1083.7813,527.8486 C1063.5521,544.8695 1035.3021,568.6507 1014.0833,586.5153 " fill="none" id="kryo-to-minlog" style="stroke:#545454;stroke-width:1.5625;"/><polygon fill="#545454" points="1009.9375,590.0049,1019.7915,587.1498,1013.9203,586.6486,1014.4215,580.7774,1009.9375,590.0049" style="stroke:#545454;stroke-width:1.5625;"/><!--MD5=[e75c16e47fcf6c43b15d3c25536a9ed0]
link kryo to objenesis--><path d="M1136.8958,527.8486 C1158.7188,544.9424 1189.2604,568.8486 1212.0938,586.734 " fill="none" id="kryo-to-objenesis" style="stroke:#545454;stroke-width:1.5625;"/><polygon fill="#545454" points="1216.2708,590.0049,1211.4559,580.9457,1212.1692,586.7949,1206.32,587.5083,1216.2708,590.0049" style="stroke:#545454;stroke-width:1.5625;"/><!--MD5=[e061beb27669383d030ce0c5c656b006]
link kryo to reflectasm--><path d="M1109.375,528.109 C1109.375,544.5778 1109.375,567.2757 1109.375,584.8278 " fill="none" id="kryo-to-reflectasm" style="stroke:#545454;stroke-width:1.5625;"/><polygon fill="#545454" points="1109.375,590.109,1113.5417,580.734,1109.375,584.9007,1105.2083,580.734,1109.375,590.109" style="stroke:#545454;stroke-width:1.5625;"/><!--MD5=[338783537f3f9263e4097f5ff0c514d3]
link reflectasm to asm--><path d="M1109.375,635.4007 C1109.375,651.8695 1109.375,674.5674 1109.375,692.1195 " fill="none" id="reflectasm-to-asm" style="stroke:#545454;stroke-width:1.5625;"/><polygon fill="#545454" points="1109.375,697.4007,1113.5417,688.0257,1109.375,692.1924,1105.2083,688.0257,1109.375,697.4007" style="stroke:#545454;stroke-width:1.5625;"/><!--MD5=[db6ef760eb12f5b3d1c0afc62c18b93e]
@startuml

    !include ../lexakai/lexakai.theme
    
    title "kivakit-core-network-http"
    
    artifact kryo
    artifact minlog
    artifact reflectasm
    artifact jackson_annotations
    artifact kivakit_build_metadata
    artifact kivakit_core_collections
    artifact kivakit_core_commandline
    artifact kivakit_core_kernel
    artifact kivakit_core_network_core
    artifact kivakit_core_network_http
    artifact kivakit_core_resource
    artifact kivakit_core_security
    artifact kivakit_core_serialization_core
    artifact kivakit_core_serialization_kryo
    artifact kivakit_core_test
    artifact lexakai_annotations
    artifact commons_codec
    artifact commons_logging
    artifact kryo_serializers
    artifact swagger_annotations
    artifact junit
    artifact httpclient
    artifact httpcore
    artifact hamcrest_core
    artifact annotations
    artifact objenesis
    artifact asm
    httpclient - -> commons_codec
    httpclient - -> commons_logging
    httpclient - -> httpcore
    junit - -> hamcrest_core
    kivakit_core_collections - -> kivakit_core_serialization_kryo
    kivakit_core_commandline - -> kivakit_core_kernel
    kivakit_core_kernel - -> annotations
    kivakit_core_kernel - -> jackson_annotations
    kivakit_core_kernel - -> junit
    kivakit_core_kernel - -> kivakit_build_metadata
    kivakit_core_kernel - -> lexakai_annotations
    kivakit_core_kernel - -> swagger_annotations
    kivakit_core_network_core - -> kivakit_core_commandline
    kivakit_core_network_core - -> kivakit_core_security
    kivakit_core_network_http - -> httpclient
    kivakit_core_network_http - -> kivakit_core_network_core
    kivakit_core_network_http - -> kivakit_core_resource
    kivakit_core_resource - -> kivakit_core_collections
    kivakit_core_resource - -> kivakit_core_serialization_core
    kivakit_core_security - -> kivakit_core_test
    kivakit_core_serialization_kryo - -> kryo
    kivakit_core_serialization_kryo - -> kryo_serializers
    kryo - -> minlog
    kryo - -> objenesis
    kryo - -> reflectasm
    reflectasm - -> asm
    
@enduml

@startuml









skinparam backgroundColor #333333






skinparam  {
    defaultFontName   "Open Sans,Avenir,Nunito,Arial,Helvetica,SansSerif"
    defaultFontSize   12
    defaultTextAlignment left
    shadowing false
    RoundCorner 10
    TitleFontSize 18
}

skinparam defaultFontName       "Open Sans,Avenir,Nunito,Arial,Helvetica,SansSerif"
skinparam defaultFontSize       12
skinparam dpi                   100
skinparam shadowing             false
skinparam roundcorner           16
skinparam ParticipantPadding    40
skinparam BoxPadding            40
skinparam Padding               3
skinparam ArrowColor            #545454
skinparam stereotype {
    CBackgroundColor #0066cf
    CBorderColor #0086ef
    ABackgroundColor #C8Ac00
    ABorderColor #D8Bc00
    IBackgroundColor #008400
    IBorderColor #239c23
    EBackgroundColor #cf6300
    EBorderColor #ef8300
    NBackgroundColor #3380b9
    NBorderColor #004d86
}
skinparam title {
	FontColor	                 #c0c0c0
 	BorderColor                  #545454
	FontSize	    	         20
	BorderRoundCorner            16
	BorderThickness 	         1
	BackgroundColor              #48494b
}


skinparam legend {
	BackgroundColor #303030
	BorderColor #404040
	FontColor #a0a0a0
}

	skinparam swimlane {
	BorderColor #5e5e5e
	BorderThickness 2
	TitleBackgroundColor  #6d6d6d-#484848
	TitleFontColor #303030
}

skinparam activity {
		FontColor #C8Ac00
	BorderColor #333333
	BackgroundColor #333333-#333333
	BarColor #00FF00
	StartColor #0060a8
	EndColor #0060a8
	DiamondBackgroundColor #6d6d6d-#3a3a3a
  	DiamondBorderColor #3a3a3a
  	DiamondFontColor #fefefe
}


skinparam participant {
		FontColor #C8Ac00
	BorderColor #333333
	BackgroundColor #333333-#333333
	ParticipantBorderThickness 2
}


skinparam actor {
		FontColor #C8Ac00
	BorderColor #333333
	BackgroundColor #333333-#333333
}


skinparam arrow {
	Thickness 1.5
	Color #545454
	FontColor #a0a0a0
    FontStyle bold
    MessageAlignment center
}



skinparam sequence {
	BorderColor #303030
	TitleFontColor #303030
	BackgroundColor #333333
	StartColor #303030
	EndColor #303030
	BoxBackgroundColor #333333
	BoxBorderColor #484848
	BoxFontColor #484848
	LifeLineBorderColor #484848
	LifeLineBorderThickness 2
	LifeLineBackgroundColor #3a3a3a
	GroupBorderColor #484848
	GroupFontColor #484848
	GroupHeaderFontColor #0060a8
	GroupBackgroundColor #484848
	GroupHeaderBackgroundColor #333333
	DividerBackgroundColor #484848
    DividerBorderColor #484848
    DividerBorderThickness 2
    DividerFontColor #D8Bc00
	ReferenceBackgroundColor #333333
	ReferenceBorderColor #484848
	ReferenceFontColor #fefefe
	ReferenceHeaderBackgroundColor #484848
}


skinparam partition {
	BorderColor #303030
	FontColor #333333
	BackgroundColor #333333
}


skinparam collections {
		FontColor #C8Ac00
	BorderColor #333333
	BackgroundColor #333333-#333333
}


skinparam control {
		FontColor #C8Ac00
	BorderColor #333333
	BackgroundColor #333333-#333333
}


skinparam entity {
		FontColor #C8Ac00
	BorderColor #333333
	BackgroundColor #333333-#333333
}


skinparam boundary {
		FontColor #C8Ac00
	BorderColor #333333
	BackgroundColor #333333-#333333
}


skinparam agent {
	BackgroundColor #ff8000
	BorderColor #ff9933
	FontColor #484848
}


skinparam note {
	BorderThickness 1
	BackgroundColor #1b1b1a
	BorderColor #5e5e5e
	FontSize 11
	FontColor #a0a0a0
}


skinparam artifact {
	BorderThickness 10
	BorderColor #5e5e5e
	BackgroundColor #1b1b1a
	FontColor #D8Bc00
}


skinparam component {
		FontColor #C8Ac00
	BorderColor #333333
	BackgroundColor #333333-#333333
}


skinparam interface {
	BackgroundColor  #008400
	BorderColor  #007F00
	FontColor #484848
}


skinparam storage {
	BackgroundColor #ff8000
  	BorderColor #cc6600
	FontColor #222222
}


skinparam node {
	BackgroundColor #333333
	BorderColor #333333
	FontColor #C8Ac00
}


skinparam cloud {
	BackgroundColor #484848-black
	BorderColor #484848
	FontColor #D8Bc00
}


skinparam database {
		FontColor #C8Ac00
	BorderColor #333333
	BackgroundColor #333333-#333333
	BackgroundColor  #333333
}


skinparam class {
		FontColor #C8Ac00
	BorderColor #333333
	BackgroundColor #333333-#333333
	HeaderBackgroundColor #1b1b1a
    BackgroundColor #282828
    BorderColor #5e5e5e
 	StereotypeFontColor #a0a0a0
    StereotypeFontStyle bold
	BorderThickness 1
	AttributeFontColor #D8Bc00
	AttributeFontSize 11
    FontColor #D8Bc00
    FontStyle bold
}


skinparam object {
		FontColor #C8Ac00
	BorderColor #333333
	BackgroundColor #333333-#333333
	StereotypeFontColor #484848
	BorderThickness 1
	AttributeFontColor #fefefe
	AttributeFontSize 11
}


skinparam usecase {
		FontColor #C8Ac00
	BorderColor #333333
	BackgroundColor #333333-#333333
	BorderThickness 2
	StereotypeFontColor #303030
}


skinparam rectangle {
		FontColor #C8Ac00
	BorderColor #333333
	BackgroundColor #333333-#333333
	BackgroundColor #333333
	BorderThickness 2
	StereotypeFontColor #303030
}


skinparam package {
		FontColor #C8Ac00
	BorderColor #333333
	BackgroundColor #333333-#333333
	BackgroundColor #333333
	BorderThickness 2
}


skinparam folder {
	BackgroundColor #6d6d6d
  	BorderColor #ff8000
	FontColor #ff8000
	BorderThickness 2
}


skinparam frame {
	BackgroundColor #6d6d6d
  	BorderColor #0060a8
	FontColor #0060a8
	BorderThickness 2
}


skinparam state {
		FontColor #C8Ac00
	BorderColor #333333
	BackgroundColor #333333-#333333
	StartColor #0060a8
	EndColor #0060a8
	AttributeFontColor #fefefe
	AttributeFontSize 11
}


skinparam queue {
		FontColor #C8Ac00
	BorderColor #333333
	BackgroundColor #333333-#333333
}


skinparam card {
	BackgroundColor #0060a8
	BorderColor #004d86
	FontColor $INFO_TEXT
}


skinparam file {
	BackgroundColor #6d6d6d-#484848
	BorderColor #0060a8
	FontColor #fefefe
}


skinparam stack {
		FontColor #C8Ac00
	BorderColor #333333
	BackgroundColor #333333-#333333
}

    
    title "kivakit-core-network-http"
    
    artifact kryo
    artifact minlog
    artifact reflectasm
    artifact jackson_annotations
    artifact kivakit_build_metadata
    artifact kivakit_core_collections
    artifact kivakit_core_commandline
    artifact kivakit_core_kernel
    artifact kivakit_core_network_core
    artifact kivakit_core_network_http
    artifact kivakit_core_resource
    artifact kivakit_core_security
    artifact kivakit_core_serialization_core
    artifact kivakit_core_serialization_kryo
    artifact kivakit_core_test
    artifact lexakai_annotations
    artifact commons_codec
    artifact commons_logging
    artifact kryo_serializers
    artifact swagger_annotations
    artifact junit
    artifact httpclient
    artifact httpcore
    artifact hamcrest_core
    artifact annotations
    artifact objenesis
    artifact asm
    httpclient - -> commons_codec
    httpclient - -> commons_logging
    httpclient - -> httpcore
    junit - -> hamcrest_core
    kivakit_core_collections - -> kivakit_core_serialization_kryo
    kivakit_core_commandline - -> kivakit_core_kernel
    kivakit_core_kernel - -> annotations
    kivakit_core_kernel - -> jackson_annotations
    kivakit_core_kernel - -> junit
    kivakit_core_kernel - -> kivakit_build_metadata
    kivakit_core_kernel - -> lexakai_annotations
    kivakit_core_kernel - -> swagger_annotations
    kivakit_core_network_core - -> kivakit_core_commandline
    kivakit_core_network_core - -> kivakit_core_security
    kivakit_core_network_http - -> httpclient
    kivakit_core_network_http - -> kivakit_core_network_core
    kivakit_core_network_http - -> kivakit_core_resource
    kivakit_core_resource - -> kivakit_core_collections
    kivakit_core_resource - -> kivakit_core_serialization_core
    kivakit_core_security - -> kivakit_core_test
    kivakit_core_serialization_kryo - -> kryo
    kivakit_core_serialization_kryo - -> kryo_serializers
    kryo - -> minlog
    kryo - -> objenesis
    kryo - -> reflectasm
    reflectasm - -> asm
    
@enduml

PlantUML version 1.2021.01(Tue Feb 02 00:55:08 MST 2021)
(GPL source distribution)
Java Runtime: Java(TM) SE Runtime Environment
JVM: Java HotSpot(TM) 64-Bit Server VM
Default Encoding: UTF-8
Language: en
Country: US
--></g></svg>