<?xml version="1.0" encoding="UTF-8" standalone="no"?><svg xmlns="http://www.w3.org/2000/svg" xmlns:xlink="http://www.w3.org/1999/xlink" contentScriptType="application/ecmascript" contentStyleType="text/css" height="443.75px" preserveAspectRatio="none" style="width:653px;height:443px;background:#333333;" version="1.1" viewBox="0 0 653 443" width="653.125px" zoomAndPan="magnify"><defs/><g><rect fill="#48494B" height="41.2028" rx="8.3333" ry="8.3333" style="stroke:#545454;stroke-width:1.0416666666666667;" width="611.4583" x="13.8021" y="2.0833"/><text fill="#C0C0C0" font-family="Open Sans,Avenir,Nunito,Arial,Helvetica,SansSerif" font-size="20.8333" lengthAdjust="spacing" textLength="588.5417" x="25.2604" y="30.5583">com.telenav.kivakit.network.core.authentication.passwords</text><!--MD5=[3e1cc9135f4eb298e164a69f57a7cc1d]
cluster PlainTextPassword--><polygon fill="#333333" points="16.6667,137.0361,150,137.0361,157.2917,164.2578,228.125,164.2578,228.125,294.3278,16.6667,294.3278,16.6667,137.0361" style="stroke:#333333;stroke-width:2.0833333333333335;"/><line style="stroke:#333333;stroke-width:2.0833333333333335;" x1="16.6667" x2="157.2917" y1="164.2578" y2="164.2578"/><text fill="#C8AC00" font-family="Open Sans,Avenir,Nunito,Arial,Helvetica,SansSerif" font-size="12.5" font-weight="bold" lengthAdjust="spacing" textLength="120.8333" x="23.9583" y="154.3294">PlainTextPassword</text><!--MD5=[c4b5297c44c7d43a33dc0e848a8a6091]
class PlainTextPassword.Converter--><rect codeLine="12" fill="#282828" height="83.3781" id="PlainTextPassword.Converter" rx="8.3333" ry="8.3333" style="stroke:#5E5E5E;stroke-width:1.0416666666666667;" width="141.6667" x="61.4583" y="185.9945"/><rect fill="#1B1B1A" height="31.3883" rx="8.3333" ry="8.3333" style="stroke:#1B1B1A;stroke-width:1.0416666666666667;" width="141.6667" x="61.4583" y="185.9945"/><rect fill="#1B1B1A" height="8.3333" style="stroke:#1B1B1A;stroke-width:1.0416666666666667;" width="141.6667" x="61.4583" y="209.0495"/><rect codeLine="12" fill="none" height="83.3781" id="PlainTextPassword.Converter" rx="8.3333" ry="8.3333" style="stroke:#5E5E5E;stroke-width:1.0416666666666667;" width="141.6667" x="61.4583" y="185.9945"/><ellipse cx="94.3229" cy="201.6886" fill="#0066CF" rx="10.4167" ry="10.4167" style="stroke:#0086EF;stroke-width:1.0416666666666667;"/><path d="M96.2333,206.1137 Q95.8061,206.3334 95.3361,206.4433 Q94.8661,206.5531 94.3473,206.5531 Q92.5041,206.5531 91.5336,205.3385 Q90.5632,204.1239 90.5632,201.829 Q90.5632,199.528 91.5336,198.3134 Q92.5041,197.0988 94.3473,197.0988 Q94.8661,197.0988 95.3422,197.2087 Q95.8183,197.3185 96.2333,197.5382 L96.2333,199.5402 Q95.7694,199.113 95.333,198.9146 Q94.8966,198.7162 94.4328,198.7162 Q93.444,198.7162 92.9405,199.5005 Q92.4369,200.2848 92.4369,201.829 Q92.4369,203.3671 92.9405,204.1514 Q93.444,204.9357 94.4328,204.9357 Q94.8966,204.9357 95.333,204.7373 Q95.7694,204.539 96.2333,204.1117 Z " fill="#000000"/><text fill="#D8BC00" font-family="Open Sans,Avenir,Nunito,Arial,Helvetica,SansSerif" font-size="12.5" font-weight="bold" lengthAdjust="spacing" textLength="63.5417" x="115.0521" y="206.4128">Converter</text><line style="stroke:#5E5E5E;stroke-width:1.5625;" x1="62.5" x2="202.0833" y1="217.3828" y2="217.3828"/><ellipse cx="72.9167" cy="252.7527" fill="#84BE84" rx="3.125" ry="3.125" style="stroke:#038048;stroke-width:1.0416666666666667;"/><text fill="#D8BC00" font-family="Open Sans,Avenir,Nunito,Arial,Helvetica,SansSerif" font-size="11.4583" lengthAdjust="spacing" textLength="109.375" x="84.375" y="259.6639">Converter(Listener)</text><line style="stroke:#5E5E5E;stroke-width:1.0416666666666667;" x1="62.5" x2="88.5417" y1="235.5886" y2="235.5886"/><text fill="#D8BC00" font-family="Open Sans,Avenir,Nunito,Arial,Helvetica,SansSerif" font-size="11.4583" lengthAdjust="spacing" textLength="81.25" x="91.6667" y="239.3982">(constructors)</text><line style="stroke:#5E5E5E;stroke-width:1.0416666666666667;" x1="176.0417" x2="202.0833" y1="235.5886" y2="235.5886"/><!--MD5=[9aa687ed59f428548907e723dba1087a]
class BaseStringConverter--><rect codeLine="7" fill="#282828" height="48.055" id="BaseStringConverter" rx="8.3333" ry="8.3333" style="stroke:#5E5E5E;stroke-width:1.0416666666666667;" width="169.7917" x="47.3958" y="53.7028"/><rect fill="#1B1B1A" height="31.3883" rx="8.3333" ry="8.3333" style="stroke:#1B1B1A;stroke-width:1.0416666666666667;" width="169.7917" x="47.3958" y="53.7028"/><rect fill="#1B1B1A" height="8.3333" style="stroke:#1B1B1A;stroke-width:1.0416666666666667;" width="169.7917" x="47.3958" y="76.7578"/><rect codeLine="7" fill="none" height="48.055" id="BaseStringConverter" rx="8.3333" ry="8.3333" style="stroke:#5E5E5E;stroke-width:1.0416666666666667;" width="169.7917" x="47.3958" y="53.7028"/><ellipse cx="61.9792" cy="69.397" fill="#C8AC00" rx="10.4167" ry="10.4167" style="stroke:#D8BC00;stroke-width:1.0416666666666667;"/><path d="M61.5723,66.099 L60.7239,69.8283 L62.4268,69.8283 Z M60.4736,64.4511 L62.677,64.4511 L65.1367,73.5636 L63.3362,73.5636 L62.7747,71.3114 L60.3638,71.3114 L59.8145,73.5636 L58.0139,73.5636 Z " fill="#000000"/><text fill="#D8BC00" font-family="Open Sans,Avenir,Nunito,Arial,Helvetica,SansSerif" font-size="12.5" font-style="italic" font-weight="bold" lengthAdjust="spacing" textLength="132.2917" x="78.6458" y="74.1211">BaseStringConverter</text><line style="stroke:#5E5E5E;stroke-width:1.0416666666666667;" x1="48.4375" x2="216.1458" y1="85.0911" y2="85.0911"/><line style="stroke:#5E5E5E;stroke-width:1.0416666666666667;" x1="48.4375" x2="216.1458" y1="93.4245" y2="93.4245"/><!--MD5=[2f01b1126ff33a0669651ec2488a5ef9]
class Password--><rect codeLine="9" fill="#282828" height="48.055" id="Password" rx="8.3333" ry="8.3333" style="stroke:#5E5E5E;stroke-width:1.0416666666666667;" width="98.9583" x="400.5208" y="53.7028"/><rect fill="#1B1B1A" height="31.3883" rx="8.3333" ry="8.3333" style="stroke:#1B1B1A;stroke-width:1.0416666666666667;" width="98.9583" x="400.5208" y="53.7028"/><rect fill="#1B1B1A" height="8.3333" style="stroke:#1B1B1A;stroke-width:1.0416666666666667;" width="98.9583" x="400.5208" y="76.7578"/><rect codeLine="9" fill="none" height="48.055" id="Password" rx="8.3333" ry="8.3333" style="stroke:#5E5E5E;stroke-width:1.0416666666666667;" width="98.9583" x="400.5208" y="53.7028"/><ellipse cx="415.1042" cy="69.397" fill="#008400" rx="10.4167" ry="10.4167" style="stroke:#239C23;stroke-width:1.0416666666666667;"/><path d="M412.5081,66.5588 L412.5081,64.9719 L417.9342,64.9719 L417.9342,66.5588 L416.1214,66.5588 L416.1214,72.4976 L417.9342,72.4976 L417.9342,74.0845 L412.5081,74.0845 L412.5081,72.4976 L414.3209,72.4976 L414.3209,66.5588 Z " fill="#000000"/><text fill="#D8BC00" font-family="Open Sans,Avenir,Nunito,Arial,Helvetica,SansSerif" font-size="12.5" font-style="italic" font-weight="bold" lengthAdjust="spacing" textLength="61.4583" x="431.7708" y="74.1211">Password</text><line style="stroke:#5E5E5E;stroke-width:1.0416666666666667;" x1="401.5625" x2="498.4375" y1="85.0911" y2="85.0911"/><line style="stroke:#5E5E5E;stroke-width:1.0416666666666667;" x1="401.5625" x2="498.4375" y1="93.4245" y2="93.4245"/><!--MD5=[aa56c61dbba11fc464ede4fe00272aac]
class DigestPassword--><rect codeLine="19" fill="#282828" height="83.3781" id="DigestPassword" rx="8.3333" ry="8.3333" style="stroke:#5E5E5E;stroke-width:1.0416666666666667;" width="162.5" x="368.75" y="353.7028"/><rect fill="#1B1B1A" height="31.3883" rx="8.3333" ry="8.3333" style="stroke:#1B1B1A;stroke-width:1.0416666666666667;" width="162.5" x="368.75" y="353.7028"/><rect fill="#1B1B1A" height="8.3333" style="stroke:#1B1B1A;stroke-width:1.0416666666666667;" width="162.5" x="368.75" y="376.7578"/><rect codeLine="19" fill="none" height="83.3781" id="DigestPassword" rx="8.3333" ry="8.3333" style="stroke:#5E5E5E;stroke-width:1.0416666666666667;" width="162.5" x="368.75" y="353.7028"/><ellipse cx="392.7083" cy="369.397" fill="#0066CF" rx="10.4167" ry="10.4167" style="stroke:#0086EF;stroke-width:1.0416666666666667;"/><path d="M394.6187,373.822 Q394.1915,374.0417 393.7215,374.1516 Q393.2515,374.2615 392.7327,374.2615 Q390.8895,374.2615 389.919,373.0469 Q388.9486,371.8323 388.9486,369.5374 Q388.9486,367.2363 389.919,366.0217 Q390.8895,364.8071 392.7327,364.8071 Q393.2515,364.8071 393.7276,364.917 Q394.2037,365.0269 394.6187,365.2466 L394.6187,367.2485 Q394.1549,366.8213 393.7185,366.6229 Q393.2821,366.4246 392.8182,366.4246 Q391.8294,366.4246 391.3259,367.2089 Q390.8223,367.9932 390.8223,369.5374 Q390.8223,371.0754 391.3259,371.8597 Q391.8294,372.644 392.8182,372.644 Q393.2821,372.644 393.7185,372.4457 Q394.1549,372.2473 394.6187,371.8201 Z " fill="#000000"/><text fill="#D8BC00" font-family="Open Sans,Avenir,Nunito,Arial,Helvetica,SansSerif" font-size="12.5" font-weight="bold" lengthAdjust="spacing" textLength="104.1667" x="411.4583" y="374.1211">DigestPassword</text><line style="stroke:#5E5E5E;stroke-width:1.5625;" x1="369.7917" x2="530.2083" y1="385.0911" y2="385.0911"/><ellipse cx="380.2083" cy="420.461" fill="#84BE84" rx="3.125" ry="3.125" style="stroke:#038048;stroke-width:1.0416666666666667;"/><text fill="#D8BC00" font-family="Open Sans,Avenir,Nunito,Arial,Helvetica,SansSerif" font-size="11.4583" lengthAdjust="spacing" textLength="130.2083" x="391.6667" y="427.3722">DigestPassword(String)</text><line style="stroke:#5E5E5E;stroke-width:1.0416666666666667;" x1="369.7917" x2="406.25" y1="403.2969" y2="403.2969"/><text fill="#D8BC00" font-family="Open Sans,Avenir,Nunito,Arial,Helvetica,SansSerif" font-size="11.4583" lengthAdjust="spacing" textLength="81.25" x="409.375" y="407.1065">(constructors)</text><line style="stroke:#5E5E5E;stroke-width:1.0416666666666667;" x1="493.75" x2="530.2083" y1="403.2969" y2="403.2969"/><!--MD5=[114a269c9049b2c2dec090c34e8cbb7c]
class PlainTextPassword--><rect codeLine="26" fill="#282828" height="127.0345" id="PlainTextPassword" rx="8.3333" ry="8.3333" style="stroke:#5E5E5E;stroke-width:1.0416666666666667;" width="392.7083" x="253.6458" y="164.1195"/><rect fill="#1B1B1A" height="31.3883" rx="8.3333" ry="8.3333" style="stroke:#1B1B1A;stroke-width:1.0416666666666667;" width="392.7083" x="253.6458" y="164.1195"/><rect fill="#1B1B1A" height="8.3333" style="stroke:#1B1B1A;stroke-width:1.0416666666666667;" width="392.7083" x="253.6458" y="187.1745"/><rect codeLine="26" fill="none" height="127.0345" id="PlainTextPassword" rx="8.3333" ry="8.3333" style="stroke:#5E5E5E;stroke-width:1.0416666666666667;" width="392.7083" x="253.6458" y="164.1195"/><ellipse cx="382.2917" cy="179.8136" fill="#0066CF" rx="10.4167" ry="10.4167" style="stroke:#0086EF;stroke-width:1.0416666666666667;"/><path d="M384.2021,184.2387 Q383.7748,184.4584 383.3049,184.5683 Q382.8349,184.6781 382.3161,184.6781 Q380.4728,184.6781 379.5024,183.4635 Q378.5319,182.2489 378.5319,179.954 Q378.5319,177.653 379.5024,176.4384 Q380.4728,175.2238 382.3161,175.2238 Q382.8349,175.2238 383.311,175.3337 Q383.787,175.4435 384.2021,175.6632 L384.2021,177.6652 Q383.7382,177.238 383.3018,177.0396 Q382.8654,176.8412 382.4015,176.8412 Q381.4128,176.8412 380.9092,177.6255 Q380.4057,178.4098 380.4057,179.954 Q380.4057,181.4921 380.9092,182.2764 Q381.4128,183.0607 382.4015,183.0607 Q382.8654,183.0607 383.3018,182.8623 Q383.7382,182.664 384.2021,182.2367 Z " fill="#000000"/><text fill="#D8BC00" font-family="Open Sans,Avenir,Nunito,Arial,Helvetica,SansSerif" font-size="12.5" font-weight="bold" lengthAdjust="spacing" textLength="120.8333" x="405.2083" y="184.5378">PlainTextPassword</text><line style="stroke:#5E5E5E;stroke-width:1.5625;" x1="254.6875" x2="645.3125" y1="195.5078" y2="195.5078"/><polygon fill="#FFFF44" points="265.1042,225.6694,269.2708,229.836,265.1042,234.0027,260.9375,229.836" style="stroke:#B38D22;stroke-width:1.0416666666666667;"/><text fill="#D8BC00" font-family="Open Sans,Avenir,Nunito,Arial,Helvetica,SansSerif" font-size="11.4583" lengthAdjust="spacing" textLength="145.8333" x="276.5625" y="237.7889">PlainTextPassword(String)</text><line style="stroke:#5E5E5E;stroke-width:1.0416666666666667;" x1="254.6875" x2="406.25" y1="213.7136" y2="213.7136"/><text fill="#D8BC00" font-family="Open Sans,Avenir,Nunito,Arial,Helvetica,SansSerif" font-size="11.4583" lengthAdjust="spacing" textLength="81.25" x="409.375" y="217.5232">(constructors)</text><line style="stroke:#5E5E5E;stroke-width:1.0416666666666667;" x1="493.75" x2="645.3125" y1="213.7136" y2="213.7136"/><ellipse cx="265.1042" cy="274.5341" fill="#84BE84" rx="3.125" ry="3.125" style="stroke:#038048;stroke-width:1.0416666666666667;"/><text fill="#D8BC00" font-family="Open Sans,Avenir,Nunito,Arial,Helvetica,SansSerif" font-size="11.4583" lengthAdjust="spacing" textLength="360.4167" x="276.5625" y="281.4453">PlainTextPassword parsePlainTextPassword(Listener, String text)</text><line style="stroke:#5E5E5E;stroke-width:1.0416666666666667;" x1="254.6875" x2="421.3542" y1="257.37" y2="257.37"/><text fill="#D8BC00" font-family="Open Sans,Avenir,Nunito,Arial,Helvetica,SansSerif" font-size="11.4583" lengthAdjust="spacing" textLength="51.0417" x="424.4792" y="261.1796">(parsing)</text><line style="stroke:#5E5E5E;stroke-width:1.0416666666666667;" x1="478.6458" x2="645.3125" y1="257.37" y2="257.37"/><!--MD5=[fe2af3ff2077a46f4fb02f20fe6e025c]
reverse link BaseStringConverter to PlainTextPassword.Converter--><path codeLine="11" d="M132.2917,122.8486 C132.2917,142.807 132.2917,166.2549 132.2917,185.807 " fill="none" id="BaseStringConverter-backto-PlainTextPassword.Converter" style="stroke:#545454;stroke-width:1.5625;"/><polygon fill="none" points="125,122.6507,132.2917,101.8174,139.5833,122.6507,125,122.6507" style="stroke:#545454;stroke-width:1.5625;"/><!--MD5=[2e9b830b971b066d7b5339520985d499]
reverse link PlainTextPassword to DigestPassword--><path codeLine="18" d="M450,291.3174 C450,312.2028 450,334.9111 450,353.682 " fill="none" id="PlainTextPassword-backto-DigestPassword" style="stroke:#545454;stroke-width:1.5625;"/><polygon fill="none" points="" style="stroke:#545454;stroke-width:1.5625;"/><!--MD5=[ed560bf051555b58ce317faf923aefe0]
reverse link Password to PlainTextPassword--><path codeLine="25" d="M450,123.057 C450,135.9632 450,150.307 450,164.109 " fill="none" id="Password-backto-PlainTextPassword" style="stroke:#545454;stroke-width:1.5625;"/><polygon fill="none" points="442.7083,122.6507,450,101.8174,457.2917,122.6507,442.7083,122.6507" style="stroke:#545454;stroke-width:1.5625;"/><!--MD5=[3dd672af7b8ae4a70fe94e2719c03369]
@startuml

    !include lexakai.theme
    
    title "com.telenav.kivakit.network.core.authentication.passwords"
    
    abstract BaseStringConverter
    
    interface Password
    
    BaseStringConverter <|- - PlainTextPassword.Converter
    class PlainTextPassword.Converter
    {
        - -(constructors)- -
        +Converter(Listener)
    }
    
    PlainTextPassword <|- - DigestPassword
    class DigestPassword
    {
        - -(constructors)- -
        +DigestPassword(String)
    }
    
    Password <|- - PlainTextPassword
    class PlainTextPassword
    {
        - -(constructors)- -
        #PlainTextPassword(String)
        - -(parsing)- -
        +PlainTextPassword parsePlainTextPassword(Listener, String text)
    }
    
@enduml

@startuml









skinparam backgroundColor #333333






skinparam  {
    defaultFontName   "Open Sans,Avenir,Nunito,Arial,Helvetica,SansSerif"
    defaultFontSize   12
    defaultTextAlignment left
    shadowing false
    RoundCorner 10
    TitleFontSize 18
}

skinparam defaultFontName       "Open Sans,Avenir,Nunito,Arial,Helvetica,SansSerif"
skinparam defaultFontSize       12
skinparam dpi                   100
skinparam shadowing             false
skinparam roundcorner           16
skinparam ParticipantPadding    40
skinparam BoxPadding            40
skinparam Padding               3
skinparam ArrowColor            #545454
skinparam stereotype {
    CBackgroundColor #0066cf
    CBorderColor #0086ef
    ABackgroundColor #C8Ac00
    ABorderColor #D8Bc00
    IBackgroundColor #008400
    IBorderColor #239c23
    EBackgroundColor #cf6300
    EBorderColor #ef8300
    NBackgroundColor #3380b9
    NBorderColor #004d86
}
skinparam title {
	FontColor	                 #c0c0c0
 	BorderColor                  #545454
	FontSize	    	         20
	BorderRoundCorner            16
	BorderThickness 	         1
	BackgroundColor              #48494b
}


skinparam legend {
	BackgroundColor #303030
	BorderColor #404040
	FontColor #a0a0a0
}

	skinparam swimlane {
	BorderColor #5e5e5e
	BorderThickness 2
	TitleBackgroundColor  #6d6d6d-#484848
	TitleFontColor #303030
}

skinparam activity {
		FontColor #C8Ac00
	BorderColor #333333
	BackgroundColor #333333-#333333
	BarColor #00FF00
	StartColor #0060a8
	EndColor #0060a8
	DiamondBackgroundColor #6d6d6d-#3a3a3a
  	DiamondBorderColor #3a3a3a
  	DiamondFontColor #fefefe
}


skinparam participant {
		FontColor #C8Ac00
	BorderColor #333333
	BackgroundColor #333333-#333333
	ParticipantBorderThickness 2
}


skinparam actor {
		FontColor #C8Ac00
	BorderColor #333333
	BackgroundColor #333333-#333333
}


skinparam arrow {
	Thickness 1.5
	Color #545454
	FontColor #a0a0a0
    FontStyle bold
    MessageAlignment center
}



skinparam sequence {
	BorderColor #303030
	TitleFontColor #303030
	BackgroundColor #333333
	StartColor #303030
	EndColor #303030
	BoxBackgroundColor #333333
	BoxBorderColor #484848
	BoxFontColor #484848
	LifeLineBorderColor #484848
	LifeLineBorderThickness 2
	LifeLineBackgroundColor #3a3a3a
	GroupBorderColor #484848
	GroupFontColor #484848
	GroupHeaderFontColor #0060a8
	GroupBackgroundColor #484848
	GroupHeaderBackgroundColor #333333
	DividerBackgroundColor #484848
    DividerBorderColor #484848
    DividerBorderThickness 2
    DividerFontColor #D8Bc00
	ReferenceBackgroundColor #333333
	ReferenceBorderColor #484848
	ReferenceFontColor #fefefe
	ReferenceHeaderBackgroundColor #484848
}


skinparam partition {
	BorderColor #303030
	FontColor #333333
	BackgroundColor #333333
}


skinparam collections {
		FontColor #C8Ac00
	BorderColor #333333
	BackgroundColor #333333-#333333
}


skinparam control {
		FontColor #C8Ac00
	BorderColor #333333
	BackgroundColor #333333-#333333
}


skinparam entity {
		FontColor #C8Ac00
	BorderColor #333333
	BackgroundColor #333333-#333333
}


skinparam boundary {
		FontColor #C8Ac00
	BorderColor #333333
	BackgroundColor #333333-#333333
}


skinparam agent {
	BackgroundColor #ff8000
	BorderColor #ff9933
	FontColor #484848
}


skinparam note {
	BorderThickness 1
	BackgroundColor #1b1b1a
	BorderColor #5e5e5e
	FontSize 11
	FontColor #a0a0a0
}


skinparam artifact {
	BorderThickness 10
	BorderColor #5e5e5e
	BackgroundColor #1b1b1a
	FontColor #D8Bc00
}


skinparam component {
		FontColor #C8Ac00
	BorderColor #333333
	BackgroundColor #333333-#333333
}


skinparam interface {
	BackgroundColor  #008400
	BorderColor  #007F00
	FontColor #484848
}


skinparam storage {
	BackgroundColor #ff8000
  	BorderColor #cc6600
	FontColor #222222
}


skinparam node {
	BackgroundColor #333333
	BorderColor #333333
	FontColor #C8Ac00
}


skinparam cloud {
	BackgroundColor #484848-black
	BorderColor #484848
	FontColor #D8Bc00
}


skinparam database {
		FontColor #C8Ac00
	BorderColor #333333
	BackgroundColor #333333-#333333
	BackgroundColor  #333333
}


skinparam class {
		FontColor #C8Ac00
	BorderColor #333333
	BackgroundColor #333333-#333333
	HeaderBackgroundColor #1b1b1a
    BackgroundColor #282828
    BorderColor #5e5e5e
 	StereotypeFontColor #a0a0a0
    StereotypeFontStyle bold
	BorderThickness 1
	AttributeFontColor #D8Bc00
	AttributeFontSize 11
    FontColor #D8Bc00
    FontStyle bold
}


skinparam object {
		FontColor #C8Ac00
	BorderColor #333333
	BackgroundColor #333333-#333333
	StereotypeFontColor #484848
	BorderThickness 1
	AttributeFontColor #fefefe
	AttributeFontSize 11
}


skinparam usecase {
		FontColor #C8Ac00
	BorderColor #333333
	BackgroundColor #333333-#333333
	BorderThickness 2
	StereotypeFontColor #303030
}


skinparam rectangle {
		FontColor #C8Ac00
	BorderColor #333333
	BackgroundColor #333333-#333333
	BackgroundColor #333333
	BorderThickness 2
	StereotypeFontColor #303030
}


skinparam package {
		FontColor #C8Ac00
	BorderColor #333333
	BackgroundColor #333333-#333333
	BackgroundColor #333333
	BorderThickness 2
}


skinparam folder {
	BackgroundColor #6d6d6d
  	BorderColor #ff8000
	FontColor #ff8000
	BorderThickness 2
}


skinparam frame {
	BackgroundColor #6d6d6d
  	BorderColor #0060a8
	FontColor #0060a8
	BorderThickness 2
}


skinparam state {
		FontColor #C8Ac00
	BorderColor #333333
	BackgroundColor #333333-#333333
	StartColor #0060a8
	EndColor #0060a8
	AttributeFontColor #fefefe
	AttributeFontSize 11
}


skinparam queue {
		FontColor #C8Ac00
	BorderColor #333333
	BackgroundColor #333333-#333333
}


skinparam card {
	BackgroundColor #0060a8
	BorderColor #004d86
	FontColor $INFO_TEXT
}


skinparam file {
	BackgroundColor #6d6d6d-#484848
	BorderColor #0060a8
	FontColor #fefefe
}


skinparam stack {
		FontColor #C8Ac00
	BorderColor #333333
	BackgroundColor #333333-#333333
}

    
    title "com.telenav.kivakit.network.core.authentication.passwords"
    
    abstract BaseStringConverter
    
    interface Password
    
    BaseStringConverter <|- - PlainTextPassword.Converter
    class PlainTextPassword.Converter
    {
        - -(constructors)- -
        +Converter(Listener)
    }
    
    PlainTextPassword <|- - DigestPassword
    class DigestPassword
    {
        - -(constructors)- -
        +DigestPassword(String)
    }
    
    Password <|- - PlainTextPassword
    class PlainTextPassword
    {
        - -(constructors)- -
        #PlainTextPassword(String)
        - -(parsing)- -
        +PlainTextPassword parsePlainTextPassword(Listener, String text)
    }
    
@enduml

PlantUML version 1.2021.01(Tue Feb 02 00:55:08 MST 2021)
(GPL source distribution)
Java Runtime: OpenJDK Runtime Environment
JVM: OpenJDK 64-Bit Server VM
Default Encoding: UTF-8
Language: en
Country: US
--></g></svg>