<?xml version="1.0" encoding="UTF-8" standalone="no"?><svg xmlns="http://www.w3.org/2000/svg" xmlns:xlink="http://www.w3.org/1999/xlink" contentScriptType="application/ecmascript" contentStyleType="text/css" height="633.3333px" preserveAspectRatio="none" style="width:597px;height:633px;background:#333333;" version="1.1" viewBox="0 0 597 633" width="597.9167px" zoomAndPan="magnify"><defs/><g><rect fill="#48494B" height="41.2028" rx="8.3333" ry="8.3333" style="stroke:#545454;stroke-width:1.0416666666666667;" width="260.4167" x="161.4583" y="2.0833"/><text fill="#C0C0C0" font-family="Open Sans,Avenir,Nunito,Arial,Helvetica,SansSerif" font-size="20.8333" lengthAdjust="spacing" textLength="237.5" x="172.9167" y="30.5583">diagram-authentication</text><!--MD5=[2f01b1126ff33a0669651ec2488a5ef9]
class Password--><rect codeLine="18" fill="#282828" height="48.055" id="Password" rx="8.3333" ry="8.3333" style="stroke:#5E5E5E;stroke-width:1.0416666666666667;" width="98.9583" x="156.25" y="203.7028"/><rect fill="#1B1B1A" height="31.3883" rx="8.3333" ry="8.3333" style="stroke:#1B1B1A;stroke-width:1.0416666666666667;" width="98.9583" x="156.25" y="203.7028"/><rect fill="#1B1B1A" height="8.3333" style="stroke:#1B1B1A;stroke-width:1.0416666666666667;" width="98.9583" x="156.25" y="226.7578"/><rect codeLine="18" fill="none" height="48.055" id="Password" rx="8.3333" ry="8.3333" style="stroke:#5E5E5E;stroke-width:1.0416666666666667;" width="98.9583" x="156.25" y="203.7028"/><ellipse cx="170.8333" cy="219.397" fill="#008400" rx="10.4167" ry="10.4167" style="stroke:#239C23;stroke-width:1.0416666666666667;"/><path d="M168.2373,216.5588 L168.2373,214.9719 L173.6633,214.9719 L173.6633,216.5588 L171.8506,216.5588 L171.8506,222.4976 L173.6633,222.4976 L173.6633,224.0845 L168.2373,224.0845 L168.2373,222.4976 L170.05,222.4976 L170.05,216.5588 Z " fill="#000000"/><text fill="#D8BC00" font-family="Open Sans,Avenir,Nunito,Arial,Helvetica,SansSerif" font-size="12.5" font-style="italic" font-weight="bold" lengthAdjust="spacing" textLength="61.4583" x="187.5" y="224.1211">Password</text><line style="stroke:#5E5E5E;stroke-width:1.0416666666666667;" x1="157.2917" x2="254.1667" y1="235.0911" y2="235.0911"/><line style="stroke:#5E5E5E;stroke-width:1.0416666666666667;" x1="157.2917" x2="254.1667" y1="243.4245" y2="243.4245"/><!--MD5=[114a269c9049b2c2dec090c34e8cbb7c]
class PlainTextPassword--><rect codeLine="23" fill="#282828" height="127.0345" id="PlainTextPassword" rx="8.3333" ry="8.3333" style="stroke:#5E5E5E;stroke-width:1.0416666666666667;" width="392.7083" x="9.375" y="353.7028"/><rect fill="#1B1B1A" height="31.3883" rx="8.3333" ry="8.3333" style="stroke:#1B1B1A;stroke-width:1.0416666666666667;" width="392.7083" x="9.375" y="353.7028"/><rect fill="#1B1B1A" height="8.3333" style="stroke:#1B1B1A;stroke-width:1.0416666666666667;" width="392.7083" x="9.375" y="376.7578"/><rect codeLine="23" fill="none" height="127.0345" id="PlainTextPassword" rx="8.3333" ry="8.3333" style="stroke:#5E5E5E;stroke-width:1.0416666666666667;" width="392.7083" x="9.375" y="353.7028"/><ellipse cx="138.0208" cy="369.397" fill="#0066CF" rx="10.4167" ry="10.4167" style="stroke:#0086EF;stroke-width:1.0416666666666667;"/><path d="M139.9312,373.822 Q139.504,374.0417 139.034,374.1516 Q138.564,374.2615 138.0452,374.2615 Q136.202,374.2615 135.2315,373.0469 Q134.2611,371.8323 134.2611,369.5374 Q134.2611,367.2363 135.2315,366.0217 Q136.202,364.8071 138.0452,364.8071 Q138.564,364.8071 139.0401,364.917 Q139.5162,365.0269 139.9312,365.2466 L139.9312,367.2485 Q139.4674,366.8213 139.031,366.6229 Q138.5946,366.4246 138.1307,366.4246 Q137.1419,366.4246 136.6384,367.2089 Q136.1348,367.9932 136.1348,369.5374 Q136.1348,371.0754 136.6384,371.8597 Q137.1419,372.644 138.1307,372.644 Q138.5946,372.644 139.031,372.4457 Q139.4674,372.2473 139.9312,371.8201 Z " fill="#000000"/><text fill="#D8BC00" font-family="Open Sans,Avenir,Nunito,Arial,Helvetica,SansSerif" font-size="12.5" font-weight="bold" lengthAdjust="spacing" textLength="120.8333" x="160.9375" y="374.1211">PlainTextPassword</text><line style="stroke:#5E5E5E;stroke-width:1.5625;" x1="10.4167" x2="401.0417" y1="385.0911" y2="385.0911"/><polygon fill="#FFFF44" points="20.8333,415.2527,25,419.4194,20.8333,423.586,16.6667,419.4194" style="stroke:#B38D22;stroke-width:1.0416666666666667;"/><text fill="#D8BC00" font-family="Open Sans,Avenir,Nunito,Arial,Helvetica,SansSerif" font-size="11.4583" lengthAdjust="spacing" textLength="145.8333" x="32.2917" y="427.3722">PlainTextPassword(String)</text><line style="stroke:#5E5E5E;stroke-width:1.0416666666666667;" x1="10.4167" x2="161.9792" y1="403.2969" y2="403.2969"/><text fill="#D8BC00" font-family="Open Sans,Avenir,Nunito,Arial,Helvetica,SansSerif" font-size="11.4583" lengthAdjust="spacing" textLength="81.25" x="165.1042" y="407.1065">(constructors)</text><line style="stroke:#5E5E5E;stroke-width:1.0416666666666667;" x1="249.4792" x2="401.0417" y1="403.2969" y2="403.2969"/><ellipse cx="20.8333" cy="464.1174" fill="#84BE84" rx="3.125" ry="3.125" style="stroke:#038048;stroke-width:1.0416666666666667;"/><text fill="#D8BC00" font-family="Open Sans,Avenir,Nunito,Arial,Helvetica,SansSerif" font-size="11.4583" lengthAdjust="spacing" textLength="360.4167" x="32.2917" y="471.0286">PlainTextPassword parsePlainTextPassword(Listener, String text)</text><line style="stroke:#5E5E5E;stroke-width:1.0416666666666667;" x1="10.4167" x2="177.0833" y1="446.9533" y2="446.9533"/><text fill="#D8BC00" font-family="Open Sans,Avenir,Nunito,Arial,Helvetica,SansSerif" font-size="11.4583" lengthAdjust="spacing" textLength="51.0417" x="180.2083" y="450.7629">(parsing)</text><line style="stroke:#5E5E5E;stroke-width:1.0416666666666667;" x1="234.375" x2="401.0417" y1="446.9533" y2="446.9533"/><!--MD5=[aa56c61dbba11fc464ede4fe00272aac]
class DigestPassword--><rect codeLine="10" fill="#282828" height="83.3781" id="DigestPassword" rx="8.3333" ry="8.3333" style="stroke:#5E5E5E;stroke-width:1.0416666666666667;" width="162.5" x="124.4792" y="543.2861"/><rect fill="#1B1B1A" height="31.3883" rx="8.3333" ry="8.3333" style="stroke:#1B1B1A;stroke-width:1.0416666666666667;" width="162.5" x="124.4792" y="543.2861"/><rect fill="#1B1B1A" height="8.3333" style="stroke:#1B1B1A;stroke-width:1.0416666666666667;" width="162.5" x="124.4792" y="566.3411"/><rect codeLine="10" fill="none" height="83.3781" id="DigestPassword" rx="8.3333" ry="8.3333" style="stroke:#5E5E5E;stroke-width:1.0416666666666667;" width="162.5" x="124.4792" y="543.2861"/><ellipse cx="148.4375" cy="558.9803" fill="#0066CF" rx="10.4167" ry="10.4167" style="stroke:#0086EF;stroke-width:1.0416666666666667;"/><path d="M150.3479,563.4054 Q149.9207,563.6251 149.4507,563.7349 Q148.9807,563.8448 148.4619,563.8448 Q146.6187,563.8448 145.6482,562.6302 Q144.6777,561.4156 144.6777,559.1207 Q144.6777,556.8197 145.6482,555.6051 Q146.6187,554.3905 148.4619,554.3905 Q148.9807,554.3905 149.4568,554.5003 Q149.9329,554.6102 150.3479,554.8299 L150.3479,556.8319 Q149.884,556.4046 149.4476,556.2063 Q149.0112,556.0079 148.5474,556.0079 Q147.5586,556.0079 147.0551,556.7922 Q146.5515,557.5765 146.5515,559.1207 Q146.5515,560.6588 147.0551,561.4431 Q147.5586,562.2274 148.5474,562.2274 Q149.0112,562.2274 149.4476,562.029 Q149.884,561.8306 150.3479,561.4034 Z " fill="#000000"/><text fill="#D8BC00" font-family="Open Sans,Avenir,Nunito,Arial,Helvetica,SansSerif" font-size="12.5" font-weight="bold" lengthAdjust="spacing" textLength="104.1667" x="167.1875" y="563.7044">DigestPassword</text><line style="stroke:#5E5E5E;stroke-width:1.5625;" x1="125.5208" x2="285.9375" y1="574.6745" y2="574.6745"/><ellipse cx="135.9375" cy="610.0444" fill="#84BE84" rx="3.125" ry="3.125" style="stroke:#038048;stroke-width:1.0416666666666667;"/><text fill="#D8BC00" font-family="Open Sans,Avenir,Nunito,Arial,Helvetica,SansSerif" font-size="11.4583" lengthAdjust="spacing" textLength="130.2083" x="147.3958" y="616.9556">DigestPassword(String)</text><line style="stroke:#5E5E5E;stroke-width:1.0416666666666667;" x1="125.5208" x2="161.9792" y1="592.8802" y2="592.8802"/><text fill="#D8BC00" font-family="Open Sans,Avenir,Nunito,Arial,Helvetica,SansSerif" font-size="11.4583" lengthAdjust="spacing" textLength="81.25" x="165.1042" y="596.6899">(constructors)</text><line style="stroke:#5E5E5E;stroke-width:1.0416666666666667;" x1="249.4792" x2="285.9375" y1="592.8802" y2="592.8802"/><!--MD5=[c249847c086044a14a4ecd1d09905030]
class Matcher--><rect codeLine="16" fill="#282828" height="48.055" id="Matcher" rx="8.3333" ry="8.3333" style="stroke:#5E5E5E;stroke-width:1.0416666666666667;" width="88.5417" x="161.4583" y="53.7028"/><rect fill="#1B1B1A" height="31.3883" rx="8.3333" ry="8.3333" style="stroke:#1B1B1A;stroke-width:1.0416666666666667;" width="88.5417" x="161.4583" y="53.7028"/><rect fill="#1B1B1A" height="8.3333" style="stroke:#1B1B1A;stroke-width:1.0416666666666667;" width="88.5417" x="161.4583" y="76.7578"/><rect codeLine="16" fill="none" height="48.055" id="Matcher" rx="8.3333" ry="8.3333" style="stroke:#5E5E5E;stroke-width:1.0416666666666667;" width="88.5417" x="161.4583" y="53.7028"/><ellipse cx="176.0417" cy="69.397" fill="#008400" rx="10.4167" ry="10.4167" style="stroke:#239C23;stroke-width:1.0416666666666667;"/><path d="M173.4456,66.5588 L173.4456,64.9719 L178.8717,64.9719 L178.8717,66.5588 L177.0589,66.5588 L177.0589,72.4976 L178.8717,72.4976 L178.8717,74.0845 L173.4456,74.0845 L173.4456,72.4976 L175.2584,72.4976 L175.2584,66.5588 Z " fill="#000000"/><text fill="#D8BC00" font-family="Open Sans,Avenir,Nunito,Arial,Helvetica,SansSerif" font-size="12.5" font-style="italic" font-weight="bold" lengthAdjust="spacing" textLength="51.0417" x="192.7083" y="74.1211">Matcher</text><line style="stroke:#5E5E5E;stroke-width:1.0416666666666667;" x1="162.5" x2="248.9583" y1="85.0911" y2="85.0911"/><line style="stroke:#5E5E5E;stroke-width:1.0416666666666667;" x1="162.5" x2="248.9583" y1="93.4245" y2="93.4245"/><!--MD5=[53f6a92bd21ca2f2960392a061f3a1c6]
class Name--><rect fill="#282828" height="48.055" id="Name" rx="8.3333" ry="8.3333" style="stroke:#5E5E5E;stroke-width:1.0416666666666667;" width="73.9583" x="404.1667" y="53.7028"/><rect fill="#1B1B1A" height="31.3883" rx="8.3333" ry="8.3333" style="stroke:#1B1B1A;stroke-width:1.0416666666666667;" width="73.9583" x="404.1667" y="53.7028"/><rect fill="#1B1B1A" height="8.3333" style="stroke:#1B1B1A;stroke-width:1.0416666666666667;" width="73.9583" x="404.1667" y="76.7578"/><rect fill="none" height="48.055" id="Name" rx="8.3333" ry="8.3333" style="stroke:#5E5E5E;stroke-width:1.0416666666666667;" width="73.9583" x="404.1667" y="53.7028"/><ellipse cx="418.75" cy="69.397" fill="#0066CF" rx="10.4167" ry="10.4167" style="stroke:#0086EF;stroke-width:1.0416666666666667;"/><path d="M420.6604,73.822 Q420.2332,74.0417 419.7632,74.1516 Q419.2932,74.2615 418.7744,74.2615 Q416.9312,74.2615 415.9607,73.0469 Q414.9902,71.8323 414.9902,69.5374 Q414.9902,67.2363 415.9607,66.0217 Q416.9312,64.8071 418.7744,64.8071 Q419.2932,64.8071 419.7693,64.917 Q420.2454,65.0269 420.6604,65.2466 L420.6604,67.2485 Q420.1965,66.8213 419.7601,66.6229 Q419.3237,66.4246 418.8599,66.4246 Q417.8711,66.4246 417.3676,67.2089 Q416.864,67.9932 416.864,69.5374 Q416.864,71.0754 417.3676,71.8597 Q417.8711,72.644 418.8599,72.644 Q419.3237,72.644 419.7601,72.4457 Q420.1965,72.2473 420.6604,71.8201 Z " fill="#000000"/><text fill="#D8BC00" font-family="Open Sans,Avenir,Nunito,Arial,Helvetica,SansSerif" font-size="12.5" font-weight="bold" lengthAdjust="spacing" textLength="36.4583" x="435.4167" y="74.1211">Name</text><line style="stroke:#5E5E5E;stroke-width:1.0416666666666667;" x1="405.2083" x2="477.0833" y1="85.0911" y2="85.0911"/><line style="stroke:#5E5E5E;stroke-width:1.0416666666666667;" x1="405.2083" x2="477.0833" y1="93.4245" y2="93.4245"/><!--MD5=[9a6e98b13a389138a8ee3cd2798f9215]
class UserName--><rect codeLine="32" fill="#282828" height="127.0345" id="UserName" rx="8.3333" ry="8.3333" style="stroke:#5E5E5E;stroke-width:1.0416666666666667;" width="298.9583" x="291.6667" y="164.1195"/><rect fill="#1B1B1A" height="31.3883" rx="8.3333" ry="8.3333" style="stroke:#1B1B1A;stroke-width:1.0416666666666667;" width="298.9583" x="291.6667" y="164.1195"/><rect fill="#1B1B1A" height="8.3333" style="stroke:#1B1B1A;stroke-width:1.0416666666666667;" width="298.9583" x="291.6667" y="187.1745"/><rect codeLine="32" fill="none" height="127.0345" id="UserName" rx="8.3333" ry="8.3333" style="stroke:#5E5E5E;stroke-width:1.0416666666666667;" width="298.9583" x="291.6667" y="164.1195"/><ellipse cx="401.0417" cy="179.8136" fill="#0066CF" rx="10.4167" ry="10.4167" style="stroke:#0086EF;stroke-width:1.0416666666666667;"/><path d="M402.9521,184.2387 Q402.5248,184.4584 402.0549,184.5683 Q401.5849,184.6781 401.0661,184.6781 Q399.2228,184.6781 398.2524,183.4635 Q397.2819,182.2489 397.2819,179.954 Q397.2819,177.653 398.2524,176.4384 Q399.2228,175.2238 401.0661,175.2238 Q401.5849,175.2238 402.061,175.3337 Q402.537,175.4435 402.9521,175.6632 L402.9521,177.6652 Q402.4882,177.238 402.0518,177.0396 Q401.6154,176.8412 401.1515,176.8412 Q400.1628,176.8412 399.6592,177.6255 Q399.1557,178.4098 399.1557,179.954 Q399.1557,181.4921 399.6592,182.2764 Q400.1628,183.0607 401.1515,183.0607 Q401.6154,183.0607 402.0518,182.8623 Q402.4882,182.664 402.9521,182.2367 Z " fill="#000000"/><text fill="#D8BC00" font-family="Open Sans,Avenir,Nunito,Arial,Helvetica,SansSerif" font-size="12.5" font-weight="bold" lengthAdjust="spacing" textLength="65.625" x="423.9583" y="184.5378">UserName</text><line style="stroke:#5E5E5E;stroke-width:1.5625;" x1="292.7083" x2="589.5833" y1="195.5078" y2="195.5078"/><polygon fill="#FFFF44" points="303.125,225.6694,307.2917,229.836,303.125,234.0027,298.9583,229.836" style="stroke:#B38D22;stroke-width:1.0416666666666667;"/><text fill="#D8BC00" font-family="Open Sans,Avenir,Nunito,Arial,Helvetica,SansSerif" font-size="11.4583" lengthAdjust="spacing" textLength="98.9583" x="314.5833" y="237.7889">UserName(String)</text><line style="stroke:#5E5E5E;stroke-width:1.0416666666666667;" x1="292.7083" x2="397.3958" y1="213.7136" y2="213.7136"/><text fill="#D8BC00" font-family="Open Sans,Avenir,Nunito,Arial,Helvetica,SansSerif" font-size="11.4583" lengthAdjust="spacing" textLength="81.25" x="400.5208" y="217.5232">(constructors)</text><line style="stroke:#5E5E5E;stroke-width:1.0416666666666667;" x1="484.8958" x2="589.5833" y1="213.7136" y2="213.7136"/><ellipse cx="303.125" cy="274.5341" fill="#84BE84" rx="3.125" ry="3.125" style="stroke:#038048;stroke-width:1.0416666666666667;"/><text fill="#D8BC00" font-family="Open Sans,Avenir,Nunito,Arial,Helvetica,SansSerif" font-size="11.4583" lengthAdjust="spacing" textLength="266.6667" x="314.5833" y="281.4453">UserName parseUserName(Listener, String text)</text><line style="stroke:#5E5E5E;stroke-width:1.0416666666666667;" x1="292.7083" x2="413.0208" y1="257.37" y2="257.37"/><text fill="#D8BC00" font-family="Open Sans,Avenir,Nunito,Arial,Helvetica,SansSerif" font-size="11.4583" lengthAdjust="spacing" textLength="50" x="416.1458" y="261.1796">(naming)</text><line style="stroke:#5E5E5E;stroke-width:1.0416666666666667;" x1="469.2708" x2="589.5833" y1="257.37" y2="257.37"/><!--MD5=[2e9b830b971b066d7b5339520985d499]
reverse link PlainTextPassword to DigestPassword--><path codeLine="9" d="M205.7292,501.8486 C205.7292,516.2653 205.7292,530.6611 205.7292,543.2653 " fill="none" id="PlainTextPassword-backto-DigestPassword" style="stroke:#545454;stroke-width:1.5625;"/><polygon fill="none" points="198.4375,501.734,205.7292,480.9007,213.0208,501.734,198.4375,501.734" style="stroke:#545454;stroke-width:1.5625;"/><!--MD5=[036dbf88fe21588b167464dfd06d0a82]
reverse link Matcher to Password--><path codeLine="17" d="M205.7292,122.7236 C205.7292,149.3174 205.7292,182.1299 205.7292,203.6715 " fill="none" id="Matcher-backto-Password" style="stroke:#545454;stroke-width:1.5625;"/><polygon fill="none" points="198.4375,122.6507,205.7292,101.8174,213.0208,122.6507,198.4375,122.6507" style="stroke:#545454;stroke-width:1.5625;"/><!--MD5=[ed560bf051555b58ce317faf923aefe0]
reverse link Password to PlainTextPassword--><path codeLine="22" d="M205.7292,272.5778 C205.7292,296.682 205.7292,326.984 205.7292,353.5361 " fill="none" id="Password-backto-PlainTextPassword" style="stroke:#545454;stroke-width:1.5625;"/><polygon fill="none" points="198.4375,272.5257,205.7292,251.6924,213.0208,272.5257,198.4375,272.5257" style="stroke:#545454;stroke-width:1.5625;"/><!--MD5=[4d3229fda4852fb7e4dfe4503a4a9021]
reverse link Name to UserName--><path codeLine="31" d="M441.1458,123.057 C441.1458,135.9632 441.1458,150.307 441.1458,164.109 " fill="none" id="Name-backto-UserName" style="stroke:#545454;stroke-width:1.5625;"/><polygon fill="none" points="433.8542,122.6507,441.1458,101.8174,448.4375,122.6507,433.8542,122.6507" style="stroke:#545454;stroke-width:1.5625;"/><!--MD5=[f5427faced38b9cf9848574f4d37dabf]
@startuml

    !include lexakai.theme
    
    title "diagram-authentication"
    
    interface Password
    
    PlainTextPassword <|- - DigestPassword
    class DigestPassword
    {
        - -(constructors)- -
        +DigestPassword(String)
    }
    
    interface Matcher
    Matcher <|- - Password
    interface Password
    {
    }
    
    Password <|- - PlainTextPassword
    class PlainTextPassword
    {
        - -(constructors)- -
        #PlainTextPassword(String)
        - -(parsing)- -
        +PlainTextPassword parsePlainTextPassword(Listener, String text)
    }
    
    Name <|- - UserName
    class UserName
    {
        - -(constructors)- -
        #UserName(String)
        - -(naming)- -
        +UserName parseUserName(Listener, String text)
    }
    
@enduml

@startuml









skinparam backgroundColor #333333






skinparam  {
    defaultFontName   "Open Sans,Avenir,Nunito,Arial,Helvetica,SansSerif"
    defaultFontSize   12
    defaultTextAlignment left
    shadowing false
    RoundCorner 10
    TitleFontSize 18
}

skinparam defaultFontName       "Open Sans,Avenir,Nunito,Arial,Helvetica,SansSerif"
skinparam defaultFontSize       12
skinparam dpi                   100
skinparam shadowing             false
skinparam roundcorner           16
skinparam ParticipantPadding    40
skinparam BoxPadding            40
skinparam Padding               3
skinparam ArrowColor            #545454
skinparam stereotype {
    CBackgroundColor #0066cf
    CBorderColor #0086ef
    ABackgroundColor #C8Ac00
    ABorderColor #D8Bc00
    IBackgroundColor #008400
    IBorderColor #239c23
    EBackgroundColor #cf6300
    EBorderColor #ef8300
    NBackgroundColor #3380b9
    NBorderColor #004d86
}
skinparam title {
	FontColor	                 #c0c0c0
 	BorderColor                  #545454
	FontSize	    	         20
	BorderRoundCorner            16
	BorderThickness 	         1
	BackgroundColor              #48494b
}


skinparam legend {
	BackgroundColor #303030
	BorderColor #404040
	FontColor #a0a0a0
}

	skinparam swimlane {
	BorderColor #5e5e5e
	BorderThickness 2
	TitleBackgroundColor  #6d6d6d-#484848
	TitleFontColor #303030
}

skinparam activity {
		FontColor #C8Ac00
	BorderColor #333333
	BackgroundColor #333333-#333333
	BarColor #00FF00
	StartColor #0060a8
	EndColor #0060a8
	DiamondBackgroundColor #6d6d6d-#3a3a3a
  	DiamondBorderColor #3a3a3a
  	DiamondFontColor #fefefe
}


skinparam participant {
		FontColor #C8Ac00
	BorderColor #333333
	BackgroundColor #333333-#333333
	ParticipantBorderThickness 2
}


skinparam actor {
		FontColor #C8Ac00
	BorderColor #333333
	BackgroundColor #333333-#333333
}


skinparam arrow {
	Thickness 1.5
	Color #545454
	FontColor #a0a0a0
    FontStyle bold
    MessageAlignment center
}



skinparam sequence {
	BorderColor #303030
	TitleFontColor #303030
	BackgroundColor #333333
	StartColor #303030
	EndColor #303030
	BoxBackgroundColor #333333
	BoxBorderColor #484848
	BoxFontColor #484848
	LifeLineBorderColor #484848
	LifeLineBorderThickness 2
	LifeLineBackgroundColor #3a3a3a
	GroupBorderColor #484848
	GroupFontColor #484848
	GroupHeaderFontColor #0060a8
	GroupBackgroundColor #484848
	GroupHeaderBackgroundColor #333333
	DividerBackgroundColor #484848
    DividerBorderColor #484848
    DividerBorderThickness 2
    DividerFontColor #D8Bc00
	ReferenceBackgroundColor #333333
	ReferenceBorderColor #484848
	ReferenceFontColor #fefefe
	ReferenceHeaderBackgroundColor #484848
}


skinparam partition {
	BorderColor #303030
	FontColor #333333
	BackgroundColor #333333
}


skinparam collections {
		FontColor #C8Ac00
	BorderColor #333333
	BackgroundColor #333333-#333333
}


skinparam control {
		FontColor #C8Ac00
	BorderColor #333333
	BackgroundColor #333333-#333333
}


skinparam entity {
		FontColor #C8Ac00
	BorderColor #333333
	BackgroundColor #333333-#333333
}


skinparam boundary {
		FontColor #C8Ac00
	BorderColor #333333
	BackgroundColor #333333-#333333
}


skinparam agent {
	BackgroundColor #ff8000
	BorderColor #ff9933
	FontColor #484848
}


skinparam note {
	BorderThickness 1
	BackgroundColor #1b1b1a
	BorderColor #5e5e5e
	FontSize 11
	FontColor #a0a0a0
}


skinparam artifact {
	BorderThickness 10
	BorderColor #5e5e5e
	BackgroundColor #1b1b1a
	FontColor #D8Bc00
}


skinparam component {
		FontColor #C8Ac00
	BorderColor #333333
	BackgroundColor #333333-#333333
}


skinparam interface {
	BackgroundColor  #008400
	BorderColor  #007F00
	FontColor #484848
}


skinparam storage {
	BackgroundColor #ff8000
  	BorderColor #cc6600
	FontColor #222222
}


skinparam node {
	BackgroundColor #333333
	BorderColor #333333
	FontColor #C8Ac00
}


skinparam cloud {
	BackgroundColor #484848-black
	BorderColor #484848
	FontColor #D8Bc00
}


skinparam database {
		FontColor #C8Ac00
	BorderColor #333333
	BackgroundColor #333333-#333333
	BackgroundColor  #333333
}


skinparam class {
		FontColor #C8Ac00
	BorderColor #333333
	BackgroundColor #333333-#333333
	HeaderBackgroundColor #1b1b1a
    BackgroundColor #282828
    BorderColor #5e5e5e
 	StereotypeFontColor #a0a0a0
    StereotypeFontStyle bold
	BorderThickness 1
	AttributeFontColor #D8Bc00
	AttributeFontSize 11
    FontColor #D8Bc00
    FontStyle bold
}


skinparam object {
		FontColor #C8Ac00
	BorderColor #333333
	BackgroundColor #333333-#333333
	StereotypeFontColor #484848
	BorderThickness 1
	AttributeFontColor #fefefe
	AttributeFontSize 11
}


skinparam usecase {
		FontColor #C8Ac00
	BorderColor #333333
	BackgroundColor #333333-#333333
	BorderThickness 2
	StereotypeFontColor #303030
}


skinparam rectangle {
		FontColor #C8Ac00
	BorderColor #333333
	BackgroundColor #333333-#333333
	BackgroundColor #333333
	BorderThickness 2
	StereotypeFontColor #303030
}


skinparam package {
		FontColor #C8Ac00
	BorderColor #333333
	BackgroundColor #333333-#333333
	BackgroundColor #333333
	BorderThickness 2
}


skinparam folder {
	BackgroundColor #6d6d6d
  	BorderColor #ff8000
	FontColor #ff8000
	BorderThickness 2
}


skinparam frame {
	BackgroundColor #6d6d6d
  	BorderColor #0060a8
	FontColor #0060a8
	BorderThickness 2
}


skinparam state {
		FontColor #C8Ac00
	BorderColor #333333
	BackgroundColor #333333-#333333
	StartColor #0060a8
	EndColor #0060a8
	AttributeFontColor #fefefe
	AttributeFontSize 11
}


skinparam queue {
		FontColor #C8Ac00
	BorderColor #333333
	BackgroundColor #333333-#333333
}


skinparam card {
	BackgroundColor #0060a8
	BorderColor #004d86
	FontColor $INFO_TEXT
}


skinparam file {
	BackgroundColor #6d6d6d-#484848
	BorderColor #0060a8
	FontColor #fefefe
}


skinparam stack {
		FontColor #C8Ac00
	BorderColor #333333
	BackgroundColor #333333-#333333
}

    
    title "diagram-authentication"
    
    interface Password
    
    PlainTextPassword <|- - DigestPassword
    class DigestPassword
    {
        - -(constructors)- -
        +DigestPassword(String)
    }
    
    interface Matcher
    Matcher <|- - Password
    interface Password
    {
    }
    
    Password <|- - PlainTextPassword
    class PlainTextPassword
    {
        - -(constructors)- -
        #PlainTextPassword(String)
        - -(parsing)- -
        +PlainTextPassword parsePlainTextPassword(Listener, String text)
    }
    
    Name <|- - UserName
    class UserName
    {
        - -(constructors)- -
        #UserName(String)
        - -(naming)- -
        +UserName parseUserName(Listener, String text)
    }
    
@enduml

PlantUML version 1.2021.01(Tue Feb 02 00:55:08 MST 2021)
(GPL source distribution)
Java Runtime: OpenJDK Runtime Environment
JVM: OpenJDK 64-Bit Server VM
Default Encoding: UTF-8
Language: en
Country: US
--></g></svg>