<?xml version="1.0" encoding="UTF-8" standalone="no"?><svg xmlns="http://www.w3.org/2000/svg" xmlns:xlink="http://www.w3.org/1999/xlink" contentScriptType="application/ecmascript" contentStyleType="text/css" height="962.5px" preserveAspectRatio="none" style="width:1765px;height:962px;background:#333333;" version="1.1" viewBox="0 0 1765 962" width="1765.625px" zoomAndPan="magnify"><defs/><g><rect fill="#48494B" height="41.2028" rx="8.3333" ry="8.3333" style="stroke:#545454;stroke-width:1.0416666666666667;" width="297.9167" x="726.5625" y="2.0833"/><text fill="#C0C0C0" font-family="Open Sans,Avenir,Nunito,Arial,Helvetica,SansSerif" font-size="20.8333" lengthAdjust="spacing" textLength="275" x="738.0208" y="30.5583">com.telenav.tdk.logs-email</text><!--MD5=[4f079977920bf52107586fb847a1e92c]
entity kryo--><rect fill="#1B1B1A" height="44.93" rx="8.3333" ry="8.3333" style="stroke:#5E5E5E;stroke-width:1.5625;" width="63.5417" x="1345.3125" y="697.4528"/><polygon fill="#1B1B1A" points="1391.1458,702.6611,1391.1458,717.2445,1403.6458,717.2445,1403.6458,708.9111,1397.3958,702.6611,1391.1458,702.6611" style="stroke:#5E5E5E;stroke-width:1.5625;"/><line style="stroke:#5E5E5E;stroke-width:1.5625;" x1="1397.3958" x2="1397.3958" y1="702.6611" y2="708.9111"/><line style="stroke:#5E5E5E;stroke-width:1.5625;" x1="1403.6458" x2="1397.3958" y1="708.9111" y2="708.9111"/><text fill="#D8BC00" font-family="Open Sans,Avenir,Nunito,Arial,Helvetica,SansSerif" font-size="12.5" lengthAdjust="spacing" textLength="26.0417" x="1358.8542" y="726.2044">kryo</text><!--MD5=[745ab22dbfa32e29a2660b9e5bc2262a]
entity minlog--><rect fill="#1B1B1A" height="44.93" rx="8.3333" ry="8.3333" style="stroke:#5E5E5E;stroke-width:1.5625;" width="77.0833" x="1213.5417" y="804.7445"/><polygon fill="#1B1B1A" points="1272.9167,809.9528,1272.9167,824.5361,1285.4167,824.5361,1285.4167,816.2028,1279.1667,809.9528,1272.9167,809.9528" style="stroke:#5E5E5E;stroke-width:1.5625;"/><line style="stroke:#5E5E5E;stroke-width:1.5625;" x1="1279.1667" x2="1279.1667" y1="809.9528" y2="816.2028"/><line style="stroke:#5E5E5E;stroke-width:1.5625;" x1="1285.4167" x2="1279.1667" y1="816.2028" y2="816.2028"/><text fill="#D8BC00" font-family="Open Sans,Avenir,Nunito,Arial,Helvetica,SansSerif" font-size="12.5" lengthAdjust="spacing" textLength="39.5833" x="1227.0833" y="833.4961">minlog</text><!--MD5=[5d0bc62e6e2e5a8467f655d5e580826c]
entity reflectasm--><rect fill="#1B1B1A" height="44.93" rx="8.3333" ry="8.3333" style="stroke:#5E5E5E;stroke-width:1.5625;" width="100" x="1327.0833" y="804.7445"/><polygon fill="#1B1B1A" points="1409.375,809.9528,1409.375,824.5361,1421.875,824.5361,1421.875,816.2028,1415.625,809.9528,1409.375,809.9528" style="stroke:#5E5E5E;stroke-width:1.5625;"/><line style="stroke:#5E5E5E;stroke-width:1.5625;" x1="1415.625" x2="1415.625" y1="809.9528" y2="816.2028"/><line style="stroke:#5E5E5E;stroke-width:1.5625;" x1="1421.875" x2="1415.625" y1="816.2028" y2="816.2028"/><text fill="#D8BC00" font-family="Open Sans,Avenir,Nunito,Arial,Helvetica,SansSerif" font-size="12.5" lengthAdjust="spacing" textLength="62.5" x="1340.625" y="833.4961">reflectasm</text><!--MD5=[07375bd6ced801b2ef86c9d3f68eec61]
entity jackson_annotations--><rect fill="#1B1B1A" height="44.93" rx="8.3333" ry="8.3333" style="stroke:#5E5E5E;stroke-width:1.5625;" width="158.3333" x="7.2917" y="590.1611"/><polygon fill="#1B1B1A" points="147.9167,595.3695,147.9167,609.9528,160.4167,609.9528,160.4167,601.6195,154.1667,595.3695,147.9167,595.3695" style="stroke:#5E5E5E;stroke-width:1.5625;"/><line style="stroke:#5E5E5E;stroke-width:1.5625;" x1="154.1667" x2="154.1667" y1="595.3695" y2="601.6195"/><line style="stroke:#5E5E5E;stroke-width:1.5625;" x1="160.4167" x2="154.1667" y1="601.6195" y2="601.6195"/><text fill="#D8BC00" font-family="Open Sans,Avenir,Nunito,Arial,Helvetica,SansSerif" font-size="12.5" lengthAdjust="spacing" textLength="120.8333" x="20.8333" y="618.9128">jackson_annotations</text><!--MD5=[1c663fe9a961659935f939a1b6c051d3]
entity javax_mail--><rect fill="#1B1B1A" height="44.93" rx="8.3333" ry="8.3333" style="stroke:#5E5E5E;stroke-width:1.5625;" width="101.0417" x="172.3958" y="268.2861"/><polygon fill="#1B1B1A" points="255.7292,273.4945,255.7292,288.0778,268.2292,288.0778,268.2292,279.7445,261.9792,273.4945,255.7292,273.4945" style="stroke:#5E5E5E;stroke-width:1.5625;"/><line style="stroke:#5E5E5E;stroke-width:1.5625;" x1="261.9792" x2="261.9792" y1="273.4945" y2="279.7445"/><line style="stroke:#5E5E5E;stroke-width:1.5625;" x1="268.2292" x2="261.9792" y1="279.7445" y2="279.7445"/><text fill="#D8BC00" font-family="Open Sans,Avenir,Nunito,Arial,Helvetica,SansSerif" font-size="12.5" lengthAdjust="spacing" textLength="63.5417" x="185.9375" y="297.0378">javax_mail</text><!--MD5=[086052dd4c6c402f45bbdecec656b034]
entity com_telenav_lexakai_annotations--><rect fill="#1B1B1A" height="44.93" rx="8.3333" ry="8.3333" style="stroke:#5E5E5E;stroke-width:1.5625;" width="235.4167" x="202.0833" y="590.1611"/><polygon fill="#1B1B1A" points="419.7917,595.3695,419.7917,609.9528,432.2917,609.9528,432.2917,601.6195,426.0417,595.3695,419.7917,595.3695" style="stroke:#5E5E5E;stroke-width:1.5625;"/><line style="stroke:#5E5E5E;stroke-width:1.5625;" x1="426.0417" x2="426.0417" y1="595.3695" y2="601.6195"/><line style="stroke:#5E5E5E;stroke-width:1.5625;" x1="432.2917" x2="426.0417" y1="601.6195" y2="601.6195"/><text fill="#D8BC00" font-family="Open Sans,Avenir,Nunito,Arial,Helvetica,SansSerif" font-size="12.5" lengthAdjust="spacing" textLength="197.9167" x="215.625" y="618.9128">com_telenav_lexakai_annotations</text><!--MD5=[c9d3e1f0e77dbe456b3e78865ac7bb44]
entity com_telenav_tdk_build_metadata--><rect fill="#1B1B1A" height="44.93" rx="8.3333" ry="8.3333" style="stroke:#5E5E5E;stroke-width:1.5625;" width="237.5" x="473.9583" y="590.1611"/><polygon fill="#1B1B1A" points="693.75,595.3695,693.75,609.9528,706.25,609.9528,706.25,601.6195,700,595.3695,693.75,595.3695" style="stroke:#5E5E5E;stroke-width:1.5625;"/><line style="stroke:#5E5E5E;stroke-width:1.5625;" x1="700" x2="700" y1="595.3695" y2="601.6195"/><line style="stroke:#5E5E5E;stroke-width:1.5625;" x1="706.25" x2="700" y1="601.6195" y2="601.6195"/><text fill="#D8BC00" font-family="Open Sans,Avenir,Nunito,Arial,Helvetica,SansSerif" font-size="12.5" lengthAdjust="spacing" textLength="200" x="487.5" y="618.9128">com_telenav_tdk_build_metadata</text><!--MD5=[a1de5a2664edb7fa67d5740e82a42824]
entity com_telenav_tdk_core_collections--><rect fill="#1B1B1A" height="44.93" rx="8.3333" ry="8.3333" style="stroke:#5E5E5E;stroke-width:1.5625;" width="237.5" x="317.7083" y="482.8695"/><polygon fill="#1B1B1A" points="537.5,488.0778,537.5,502.6611,550,502.6611,550,494.3278,543.75,488.0778,537.5,488.0778" style="stroke:#5E5E5E;stroke-width:1.5625;"/><line style="stroke:#5E5E5E;stroke-width:1.5625;" x1="543.75" x2="543.75" y1="488.0778" y2="494.3278"/><line style="stroke:#5E5E5E;stroke-width:1.5625;" x1="550" x2="543.75" y1="494.3278" y2="494.3278"/><text fill="#D8BC00" font-family="Open Sans,Avenir,Nunito,Arial,Helvetica,SansSerif" font-size="12.5" lengthAdjust="spacing" textLength="200" x="331.25" y="511.6211">com_telenav_tdk_core_collections</text><!--MD5=[f7f06b67d9208eb7c7bb86225e874452]
entity com_telenav_tdk_core_commandline--><rect fill="#1B1B1A" height="44.93" rx="8.3333" ry="8.3333" style="stroke:#5E5E5E;stroke-width:1.5625;" width="256.25" x="593.75" y="375.5778"/><polygon fill="#1B1B1A" points="832.2917,380.7861,832.2917,395.3695,844.7917,395.3695,844.7917,387.0361,838.5417,380.7861,832.2917,380.7861" style="stroke:#5E5E5E;stroke-width:1.5625;"/><line style="stroke:#5E5E5E;stroke-width:1.5625;" x1="838.5417" x2="838.5417" y1="380.7861" y2="387.0361"/><line style="stroke:#5E5E5E;stroke-width:1.5625;" x1="844.7917" x2="838.5417" y1="387.0361" y2="387.0361"/><text fill="#D8BC00" font-family="Open Sans,Avenir,Nunito,Arial,Helvetica,SansSerif" font-size="12.5" lengthAdjust="spacing" textLength="218.75" x="607.2917" y="404.3294">com_telenav_tdk_core_commandline</text><!--MD5=[97fca25270526894330c55030d95ea6b]
entity com_telenav_tdk_core_configuration--><rect fill="#1B1B1A" height="44.93" rx="8.3333" ry="8.3333" style="stroke:#5E5E5E;stroke-width:1.5625;" width="253.125" x="309.8958" y="268.2861"/><polygon fill="#1B1B1A" points="545.3125,273.4945,545.3125,288.0778,557.8125,288.0778,557.8125,279.7445,551.5625,273.4945,545.3125,273.4945" style="stroke:#5E5E5E;stroke-width:1.5625;"/><line style="stroke:#5E5E5E;stroke-width:1.5625;" x1="551.5625" x2="551.5625" y1="273.4945" y2="279.7445"/><line style="stroke:#5E5E5E;stroke-width:1.5625;" x1="557.8125" x2="551.5625" y1="279.7445" y2="279.7445"/><text fill="#D8BC00" font-family="Open Sans,Avenir,Nunito,Arial,Helvetica,SansSerif" font-size="12.5" lengthAdjust="spacing" textLength="215.625" x="323.4375" y="297.0378">com_telenav_tdk_core_configuration</text><!--MD5=[40791b2028d59fe67dd4bd56fce0cfd5]
entity com_telenav_tdk_core_kernel--><rect fill="#1B1B1A" height="44.93" rx="8.3333" ry="8.3333" style="stroke:#5E5E5E;stroke-width:1.5625;" width="213.5417" x="603.6458" y="482.8695"/><polygon fill="#1B1B1A" points="799.4792,488.0778,799.4792,502.6611,811.9792,502.6611,811.9792,494.3278,805.7292,488.0778,799.4792,488.0778" style="stroke:#5E5E5E;stroke-width:1.5625;"/><line style="stroke:#5E5E5E;stroke-width:1.5625;" x1="805.7292" x2="805.7292" y1="488.0778" y2="494.3278"/><line style="stroke:#5E5E5E;stroke-width:1.5625;" x1="811.9792" x2="805.7292" y1="494.3278" y2="494.3278"/><text fill="#D8BC00" font-family="Open Sans,Avenir,Nunito,Arial,Helvetica,SansSerif" font-size="12.5" lengthAdjust="spacing" textLength="176.0417" x="617.1875" y="511.6211">com_telenav_tdk_core_kernel</text><!--MD5=[82cf3f17e5b8f5cf6c4ebf34b5dcc164]
entity com_telenav_tdk_core_network_core--><rect fill="#1B1B1A" height="44.93" rx="8.3333" ry="8.3333" style="stroke:#5E5E5E;stroke-width:1.5625;" width="256.25" x="600" y="268.2861"/><polygon fill="#1B1B1A" points="838.5417,273.4945,838.5417,288.0778,851.0417,288.0778,851.0417,279.7445,844.7917,273.4945,838.5417,273.4945" style="stroke:#5E5E5E;stroke-width:1.5625;"/><line style="stroke:#5E5E5E;stroke-width:1.5625;" x1="844.7917" x2="844.7917" y1="273.4945" y2="279.7445"/><line style="stroke:#5E5E5E;stroke-width:1.5625;" x1="851.0417" x2="844.7917" y1="279.7445" y2="279.7445"/><text fill="#D8BC00" font-family="Open Sans,Avenir,Nunito,Arial,Helvetica,SansSerif" font-size="12.5" lengthAdjust="spacing" textLength="218.75" x="613.5417" y="297.0378">com_telenav_tdk_core_network_core</text><!--MD5=[be3f93593154dbd638fe1088f6b485da]
entity com_telenav_tdk_core_network_email--><rect fill="#1B1B1A" height="44.93" rx="8.3333" ry="8.3333" style="stroke:#5E5E5E;stroke-width:1.5625;" width="262.5" x="451.0417" y="160.9945"/><polygon fill="#1B1B1A" points="695.8333,166.2028,695.8333,180.7861,708.3333,180.7861,708.3333,172.4528,702.0833,166.2028,695.8333,166.2028" style="stroke:#5E5E5E;stroke-width:1.5625;"/><line style="stroke:#5E5E5E;stroke-width:1.5625;" x1="702.0833" x2="702.0833" y1="166.2028" y2="172.4528"/><line style="stroke:#5E5E5E;stroke-width:1.5625;" x1="708.3333" x2="702.0833" y1="172.4528" y2="172.4528"/><text fill="#D8BC00" font-family="Open Sans,Avenir,Nunito,Arial,Helvetica,SansSerif" font-size="12.5" lengthAdjust="spacing" textLength="225" x="464.5833" y="189.7461">com_telenav_tdk_core_network_email</text><!--MD5=[0c41c8a93f91d5f219224b0a0b346ce2]
entity com_telenav_tdk_core_resource--><rect fill="#1B1B1A" height="44.93" rx="8.3333" ry="8.3333" style="stroke:#5E5E5E;stroke-width:1.5625;" width="228.125" x="322.3958" y="375.5778"/><polygon fill="#1B1B1A" points="532.8125,380.7861,532.8125,395.3695,545.3125,395.3695,545.3125,387.0361,539.0625,380.7861,532.8125,380.7861" style="stroke:#5E5E5E;stroke-width:1.5625;"/><line style="stroke:#5E5E5E;stroke-width:1.5625;" x1="539.0625" x2="539.0625" y1="380.7861" y2="387.0361"/><line style="stroke:#5E5E5E;stroke-width:1.5625;" x1="545.3125" x2="539.0625" y1="387.0361" y2="387.0361"/><text fill="#D8BC00" font-family="Open Sans,Avenir,Nunito,Arial,Helvetica,SansSerif" font-size="12.5" lengthAdjust="spacing" textLength="190.625" x="335.9375" y="404.3294">com_telenav_tdk_core_resource</text><!--MD5=[fd346999428d08f6a62986434f21a85a]
entity com_telenav_tdk_core_security--><rect fill="#1B1B1A" height="44.93" rx="8.3333" ry="8.3333" style="stroke:#5E5E5E;stroke-width:1.5625;" width="221.875" x="1047.3958" y="375.5778"/><polygon fill="#1B1B1A" points="1251.5625,380.7861,1251.5625,395.3695,1264.0625,395.3695,1264.0625,387.0361,1257.8125,380.7861,1251.5625,380.7861" style="stroke:#5E5E5E;stroke-width:1.5625;"/><line style="stroke:#5E5E5E;stroke-width:1.5625;" x1="1257.8125" x2="1257.8125" y1="380.7861" y2="387.0361"/><line style="stroke:#5E5E5E;stroke-width:1.5625;" x1="1264.0625" x2="1257.8125" y1="387.0361" y2="387.0361"/><text fill="#D8BC00" font-family="Open Sans,Avenir,Nunito,Arial,Helvetica,SansSerif" font-size="12.5" lengthAdjust="spacing" textLength="184.375" x="1060.9375" y="404.3294">com_telenav_tdk_core_security</text><!--MD5=[d0b7d2be35780d1fbbbf654759cd6173]
entity com_telenav_tdk_core_test--><rect fill="#1B1B1A" height="44.93" rx="8.3333" ry="8.3333" style="stroke:#5E5E5E;stroke-width:1.5625;" width="197.9167" x="1256.25" y="482.8695"/><polygon fill="#1B1B1A" points="1436.4583,488.0778,1436.4583,502.6611,1448.9583,502.6611,1448.9583,494.3278,1442.7083,488.0778,1436.4583,488.0778" style="stroke:#5E5E5E;stroke-width:1.5625;"/><line style="stroke:#5E5E5E;stroke-width:1.5625;" x1="1442.7083" x2="1442.7083" y1="488.0778" y2="494.3278"/><line style="stroke:#5E5E5E;stroke-width:1.5625;" x1="1448.9583" x2="1442.7083" y1="494.3278" y2="494.3278"/><text fill="#D8BC00" font-family="Open Sans,Avenir,Nunito,Arial,Helvetica,SansSerif" font-size="12.5" lengthAdjust="spacing" textLength="160.4167" x="1269.7917" y="511.6211">com_telenav_tdk_core_test</text><!--MD5=[1ec3cec93e7403b39ab0920a432768da]
entity com_telenav_tdk_logs_email--><rect fill="#1B1B1A" height="44.93" rx="8.3333" ry="8.3333" style="stroke:#5E5E5E;stroke-width:1.5625;" width="206.25" x="479.1667" y="53.7028"/><polygon fill="#1B1B1A" points="667.7083,58.9111,667.7083,73.4945,680.2083,73.4945,680.2083,65.1611,673.9583,58.9111,667.7083,58.9111" style="stroke:#5E5E5E;stroke-width:1.5625;"/><line style="stroke:#5E5E5E;stroke-width:1.5625;" x1="673.9583" x2="673.9583" y1="58.9111" y2="65.1611"/><line style="stroke:#5E5E5E;stroke-width:1.5625;" x1="680.2083" x2="673.9583" y1="65.1611" y2="65.1611"/><text fill="#D8BC00" font-family="Open Sans,Avenir,Nunito,Arial,Helvetica,SansSerif" font-size="12.5" lengthAdjust="spacing" textLength="168.75" x="492.7083" y="82.4544">com_telenav_tdk_logs_email</text><!--MD5=[6f5d528f6bb36bda722177df069e9d84]
entity com_telenav_tdk_serialization_core--><rect fill="#1B1B1A" height="44.93" rx="8.3333" ry="8.3333" style="stroke:#5E5E5E;stroke-width:1.5625;" width="247.9167" x="1089.5833" y="590.1611"/><polygon fill="#1B1B1A" points="1319.7917,595.3695,1319.7917,609.9528,1332.2917,609.9528,1332.2917,601.6195,1326.0417,595.3695,1319.7917,595.3695" style="stroke:#5E5E5E;stroke-width:1.5625;"/><line style="stroke:#5E5E5E;stroke-width:1.5625;" x1="1326.0417" x2="1326.0417" y1="595.3695" y2="601.6195"/><line style="stroke:#5E5E5E;stroke-width:1.5625;" x1="1332.2917" x2="1326.0417" y1="601.6195" y2="601.6195"/><text fill="#D8BC00" font-family="Open Sans,Avenir,Nunito,Arial,Helvetica,SansSerif" font-size="12.5" lengthAdjust="spacing" textLength="210.4167" x="1103.125" y="618.9128">com_telenav_tdk_serialization_core</text><!--MD5=[b2f71fc7d7e5ea213a16d257194095ed]
entity com_telenav_tdk_serialization_kryo--><rect fill="#1B1B1A" height="44.93" rx="8.3333" ry="8.3333" style="stroke:#5E5E5E;stroke-width:1.5625;" width="247.9167" x="1373.9583" y="590.1611"/><polygon fill="#1B1B1A" points="1604.1667,595.3695,1604.1667,609.9528,1616.6667,609.9528,1616.6667,601.6195,1610.4167,595.3695,1604.1667,595.3695" style="stroke:#5E5E5E;stroke-width:1.5625;"/><line style="stroke:#5E5E5E;stroke-width:1.5625;" x1="1610.4167" x2="1610.4167" y1="595.3695" y2="601.6195"/><line style="stroke:#5E5E5E;stroke-width:1.5625;" x1="1616.6667" x2="1610.4167" y1="601.6195" y2="601.6195"/><text fill="#D8BC00" font-family="Open Sans,Avenir,Nunito,Arial,Helvetica,SansSerif" font-size="12.5" lengthAdjust="spacing" textLength="210.4167" x="1387.5" y="618.9128">com_telenav_tdk_serialization_kryo</text><!--MD5=[b9ccc173c089e3d2abf77c8581e74aca]
entity kryo_serializers--><rect fill="#1B1B1A" height="44.93" rx="8.3333" ry="8.3333" style="stroke:#5E5E5E;stroke-width:1.5625;" width="131.25" x="1445.8333" y="697.4528"/><polygon fill="#1B1B1A" points="1559.375,702.6611,1559.375,717.2445,1571.875,717.2445,1571.875,708.9111,1565.625,702.6611,1559.375,702.6611" style="stroke:#5E5E5E;stroke-width:1.5625;"/><line style="stroke:#5E5E5E;stroke-width:1.5625;" x1="1565.625" x2="1565.625" y1="702.6611" y2="708.9111"/><line style="stroke:#5E5E5E;stroke-width:1.5625;" x1="1571.875" x2="1565.625" y1="708.9111" y2="708.9111"/><text fill="#D8BC00" font-family="Open Sans,Avenir,Nunito,Arial,Helvetica,SansSerif" font-size="12.5" lengthAdjust="spacing" textLength="93.75" x="1459.375" y="726.2044">kryo_serializers</text><!--MD5=[23cc7f88cfa1ae4b54fca2963c42906f]
entity swagger_annotations--><rect fill="#1B1B1A" height="44.93" rx="8.3333" ry="8.3333" style="stroke:#5E5E5E;stroke-width:1.5625;" width="162.5" x="747.9167" y="590.1611"/><polygon fill="#1B1B1A" points="892.7083,595.3695,892.7083,609.9528,905.2083,609.9528,905.2083,601.6195,898.9583,595.3695,892.7083,595.3695" style="stroke:#5E5E5E;stroke-width:1.5625;"/><line style="stroke:#5E5E5E;stroke-width:1.5625;" x1="898.9583" x2="898.9583" y1="595.3695" y2="601.6195"/><line style="stroke:#5E5E5E;stroke-width:1.5625;" x1="905.2083" x2="898.9583" y1="601.6195" y2="601.6195"/><text fill="#D8BC00" font-family="Open Sans,Avenir,Nunito,Arial,Helvetica,SansSerif" font-size="12.5" lengthAdjust="spacing" textLength="125" x="761.4583" y="618.9128">swagger_annotations</text><!--MD5=[76295b2d657545520eec6d4c24e790cd]
entity jakarta_activation_api--><rect fill="#1B1B1A" height="44.93" rx="8.3333" ry="8.3333" style="stroke:#5E5E5E;stroke-width:1.5625;" width="167.7083" x="893.2292" y="268.2861"/><polygon fill="#1B1B1A" points="1043.2292,273.4945,1043.2292,288.0778,1055.7292,288.0778,1055.7292,279.7445,1049.4792,273.4945,1043.2292,273.4945" style="stroke:#5E5E5E;stroke-width:1.5625;"/><line style="stroke:#5E5E5E;stroke-width:1.5625;" x1="1049.4792" x2="1049.4792" y1="273.4945" y2="279.7445"/><line style="stroke:#5E5E5E;stroke-width:1.5625;" x1="1055.7292" x2="1049.4792" y1="279.7445" y2="279.7445"/><text fill="#D8BC00" font-family="Open Sans,Avenir,Nunito,Arial,Helvetica,SansSerif" font-size="12.5" lengthAdjust="spacing" textLength="130.2083" x="906.7708" y="297.0378">jakarta_activation_api</text><!--MD5=[ce55b294004802c137560c2930be5b75]
entity junit--><rect fill="#1B1B1A" height="44.93" rx="8.3333" ry="8.3333" style="stroke:#5E5E5E;stroke-width:1.5625;" width="63.5417" x="1658.8542" y="590.1611"/><polygon fill="#1B1B1A" points="1704.6875,595.3695,1704.6875,609.9528,1717.1875,609.9528,1717.1875,601.6195,1710.9375,595.3695,1704.6875,595.3695" style="stroke:#5E5E5E;stroke-width:1.5625;"/><line style="stroke:#5E5E5E;stroke-width:1.5625;" x1="1710.9375" x2="1710.9375" y1="595.3695" y2="601.6195"/><line style="stroke:#5E5E5E;stroke-width:1.5625;" x1="1717.1875" x2="1710.9375" y1="601.6195" y2="601.6195"/><text fill="#D8BC00" font-family="Open Sans,Avenir,Nunito,Arial,Helvetica,SansSerif" font-size="12.5" lengthAdjust="spacing" textLength="26.0417" x="1672.3958" y="618.9128">junit</text><!--MD5=[7f157d37bc1fd6ac970bb67ffdbc66a3]
entity hamcrest_core--><rect fill="#1B1B1A" height="44.93" rx="8.3333" ry="8.3333" style="stroke:#5E5E5E;stroke-width:1.5625;" width="125" x="1628.125" y="697.4528"/><polygon fill="#1B1B1A" points="1735.4167,702.6611,1735.4167,717.2445,1747.9167,717.2445,1747.9167,708.9111,1741.6667,702.6611,1735.4167,702.6611" style="stroke:#5E5E5E;stroke-width:1.5625;"/><line style="stroke:#5E5E5E;stroke-width:1.5625;" x1="1741.6667" x2="1741.6667" y1="702.6611" y2="708.9111"/><line style="stroke:#5E5E5E;stroke-width:1.5625;" x1="1747.9167" x2="1741.6667" y1="708.9111" y2="708.9111"/><text fill="#D8BC00" font-family="Open Sans,Avenir,Nunito,Arial,Helvetica,SansSerif" font-size="12.5" lengthAdjust="spacing" textLength="87.5" x="1641.6667" y="726.2044">hamcrest_core</text><!--MD5=[b728e17b4e4da6aa8cb97e9b2766c5e6]
entity annotations--><rect fill="#1B1B1A" height="44.93" rx="8.3333" ry="8.3333" style="stroke:#5E5E5E;stroke-width:1.5625;" width="106.25" x="946.875" y="590.1611"/><polygon fill="#1B1B1A" points="1035.4167,595.3695,1035.4167,609.9528,1047.9167,609.9528,1047.9167,601.6195,1041.6667,595.3695,1035.4167,595.3695" style="stroke:#5E5E5E;stroke-width:1.5625;"/><line style="stroke:#5E5E5E;stroke-width:1.5625;" x1="1041.6667" x2="1041.6667" y1="595.3695" y2="601.6195"/><line style="stroke:#5E5E5E;stroke-width:1.5625;" x1="1047.9167" x2="1041.6667" y1="601.6195" y2="601.6195"/><text fill="#D8BC00" font-family="Open Sans,Avenir,Nunito,Arial,Helvetica,SansSerif" font-size="12.5" lengthAdjust="spacing" textLength="68.75" x="960.4167" y="618.9128">annotations</text><!--MD5=[b3c862d1486667ad9c7edef6529b2202]
entity objenesis--><rect fill="#1B1B1A" height="44.93" rx="8.3333" ry="8.3333" style="stroke:#5E5E5E;stroke-width:1.5625;" width="94.7917" x="1464.0625" y="804.7445"/><polygon fill="#1B1B1A" points="1541.1458,809.9528,1541.1458,824.5361,1553.6458,824.5361,1553.6458,816.2028,1547.3958,809.9528,1541.1458,809.9528" style="stroke:#5E5E5E;stroke-width:1.5625;"/><line style="stroke:#5E5E5E;stroke-width:1.5625;" x1="1547.3958" x2="1547.3958" y1="809.9528" y2="816.2028"/><line style="stroke:#5E5E5E;stroke-width:1.5625;" x1="1553.6458" x2="1547.3958" y1="816.2028" y2="816.2028"/><text fill="#D8BC00" font-family="Open Sans,Avenir,Nunito,Arial,Helvetica,SansSerif" font-size="12.5" lengthAdjust="spacing" textLength="57.2917" x="1477.6042" y="833.4961">objenesis</text><!--MD5=[92e2ad58d19962135e7ff93f22958550]
entity asm--><rect fill="#1B1B1A" height="44.93" rx="8.3333" ry="8.3333" style="stroke:#5E5E5E;stroke-width:1.5625;" width="62.5" x="1345.8333" y="912.0361"/><polygon fill="#1B1B1A" points="1390.625,917.2445,1390.625,931.8278,1403.125,931.8278,1403.125,923.4945,1396.875,917.2445,1390.625,917.2445" style="stroke:#5E5E5E;stroke-width:1.5625;"/><line style="stroke:#5E5E5E;stroke-width:1.5625;" x1="1396.875" x2="1396.875" y1="917.2445" y2="923.4945"/><line style="stroke:#5E5E5E;stroke-width:1.5625;" x1="1403.125" x2="1396.875" y1="923.4945" y2="923.4945"/><text fill="#D8BC00" font-family="Open Sans,Avenir,Nunito,Arial,Helvetica,SansSerif" font-size="12.5" lengthAdjust="spacing" textLength="25" x="1359.375" y="940.7878">asm</text><!--MD5=[9b4f5edf590576a4a5b77b327cc167cd]
link com_telenav_tdk_core_commandline to com_telenav_tdk_core_kernel--><path d="M719.5,420.8174 C717.7083,437.2861 715.2396,459.984 713.3229,477.5361 " fill="none" id="com_telenav_tdk_core_commandline-to-com_telenav_tdk_core_kernel" style="stroke:#545454;stroke-width:1.5625;"/><polygon fill="#545454" points="712.75,482.8174,717.8845,473.9355,713.3007,477.6382,709.5979,473.0544,712.75,482.8174" style="stroke:#545454;stroke-width:1.5625;"/><!--MD5=[9d6683ae20f9c6b6458086cb91eb2d4c]
link com_telenav_tdk_core_configuration to com_telenav_tdk_core_resource--><path d="M436.4583,313.5257 C436.4583,329.9945 436.4583,352.6924 436.4583,370.2445 " fill="none" id="com_telenav_tdk_core_configuration-to-com_telenav_tdk_core_resource" style="stroke:#545454;stroke-width:1.5625;"/><polygon fill="#545454" points="436.4583,375.5257,440.625,366.1507,436.4583,370.3174,432.2917,366.1507,436.4583,375.5257" style="stroke:#545454;stroke-width:1.5625;"/><!--MD5=[42d431ec3bca6899a65f33d44c1eb1e8]
link com_telenav_tdk_core_kernel to annotations--><path d="M769.3646,527.7236 C819.5729,545.9632 891.3229,572.0257 941.4167,590.234 " fill="none" id="com_telenav_tdk_core_kernel-to-annotations" style="stroke:#545454;stroke-width:1.5625;"/><polygon fill="#545454" points="946.5,592.0778,939.1203,584.9509,941.607,590.2931,936.2648,592.7798,946.5,592.0778" style="stroke:#545454;stroke-width:1.5625;"/><!--MD5=[c005a7e2df3478a80ff9465f14126548]
link com_telenav_tdk_core_kernel to com_telenav_lexakai_annotations--><path d="M630.8958,527.7236 C565.0208,545.4632 471.6458,570.6195 404.4063,588.7236 " fill="none" id="com_telenav_tdk_core_kernel-to-com_telenav_lexakai_annotations" style="stroke:#545454;stroke-width:1.5625;"/><polygon fill="#545454" points="399.1979,590.1299,409.3381,591.6881,404.2234,588.762,407.1495,583.6473,399.1979,590.1299" style="stroke:#545454;stroke-width:1.5625;"/><!--MD5=[c4c00ab0ec2804a907d0e94c75b3a95a]
link com_telenav_tdk_core_kernel to com_telenav_tdk_build_metadata--><path d="M686.3125,527.8486 C667.2708,544.8695 640.6667,568.6507 620.6875,586.5153 " fill="none" id="com_telenav_tdk_core_kernel-to-com_telenav_tdk_build_metadata" style="stroke:#545454;stroke-width:1.5625;"/><polygon fill="#545454" points="616.7813,590.0049,626.5497,586.8698,620.6666,586.5363,621.0001,580.6532,616.7813,590.0049" style="stroke:#545454;stroke-width:1.5625;"/><!--MD5=[78860e1ada97d1b06ce5c29d3b83cef2]
link com_telenav_tdk_core_kernel to jackson_annotations--><path d="M603.4375,523.1611 C455.375,546.5049 203.7917,586.2861 183.3333,590.1611 C179.2917,590.932 175.1563,591.734 170.9792,592.5778 " fill="none" id="com_telenav_tdk_core_kernel-to-jackson_annotations" style="stroke:#545454;stroke-width:1.5625;"/><polygon fill="#545454" points="165.6771,593.6507,175.6897,595.8867,170.7831,592.6236,174.0462,587.717,165.6771,593.6507" style="stroke:#545454;stroke-width:1.5625;"/><!--MD5=[0d3bab717762435e99f000f4996a4471]
link com_telenav_tdk_core_kernel to swagger_annotations--><path d="M734.7292,527.8486 C753.9479,544.8695 780.7813,568.6507 800.9479,586.5153 " fill="none" id="com_telenav_tdk_core_kernel-to-swagger_annotations" style="stroke:#545454;stroke-width:1.5625;"/><polygon fill="#545454" points="804.8854,590.0049,800.6289,580.6703,800.9861,586.5521,795.1044,586.9092,804.8854,590.0049" style="stroke:#545454;stroke-width:1.5625;"/><!--MD5=[13f96d76a51379b1b10b5a51dec5eace]
link com_telenav_tdk_core_network_core to com_telenav_tdk_core_commandline--><path d="M726.8333,313.5257 C725.8542,329.9945 724.5,352.6924 723.4583,370.2445 " fill="none" id="com_telenav_tdk_core_network_core-to-com_telenav_tdk_core_commandline" style="stroke:#545454;stroke-width:1.5625;"/><polygon fill="#545454" points="723.1458,375.5257,727.8681,366.4179,723.4587,370.3268,719.5498,365.9174,723.1458,375.5257" style="stroke:#545454;stroke-width:1.5625;"/><!--MD5=[6c5a3ef5f884303392f193b4e632e210]
link com_telenav_tdk_core_network_core to com_telenav_tdk_core_security--><path d="M815.6979,313.1403 C888.3958,330.9215 991.5104,356.1299 1065.5938,374.2549 " fill="none" id="com_telenav_tdk_core_network_core-to-com_telenav_tdk_core_security" style="stroke:#545454;stroke-width:1.5625;"/><polygon fill="#545454" points="1070.875,375.5465,1062.7556,369.2754,1065.8152,374.3114,1060.7793,377.371,1070.875,375.5465" style="stroke:#545454;stroke-width:1.5625;"/><!--MD5=[7391f8aa2ea748333229cf831d8212ab]
link com_telenav_tdk_core_network_email to com_telenav_tdk_core_configuration--><path d="M552.4271,205.9736 C528.7396,223.0674 495.5938,246.9736 470.8125,264.859 " fill="none" id="com_telenav_tdk_core_network_email-to-com_telenav_tdk_core_configuration" style="stroke:#545454;stroke-width:1.5625;"/><polygon fill="#545454" points="466.2813,268.1299,476.3215,266.0213,470.5043,265.0815,471.4441,259.2644,466.2813,268.1299" style="stroke:#545454;stroke-width:1.5625;"/><!--MD5=[597ad75b6312fbeb435eeda71c511536]
link com_telenav_tdk_core_network_email to com_telenav_tdk_core_network_core--><path d="M612.1563,205.9736 C635.8438,223.0674 668.9896,246.9736 693.7708,264.859 " fill="none" id="com_telenav_tdk_core_network_email-to-com_telenav_tdk_core_network_core" style="stroke:#545454;stroke-width:1.5625;"/><polygon fill="#545454" points="698.3021,268.1299,693.1392,259.2644,694.079,265.0815,688.2619,266.0213,698.3021,268.1299" style="stroke:#545454;stroke-width:1.5625;"/><!--MD5=[8824a87f9e3b1bf69580f3639266d6f8]
link com_telenav_tdk_core_network_email to jakarta_activation_api--><path d="M662.6563,205.8486 C729.2396,223.5882 823.6146,248.7445 891.5729,266.8486 " fill="none" id="com_telenav_tdk_core_network_email-to-jakarta_activation_api" style="stroke:#545454;stroke-width:1.5625;"/><polygon fill="#545454" points="896.8229,268.2549,888.8357,261.8163,891.7899,266.9147,886.6915,269.869,896.8229,268.2549" style="stroke:#545454;stroke-width:1.5625;"/><!--MD5=[3232727c297203da714bb2282e025d8f]
link com_telenav_tdk_core_network_email to javax_mail--><path d="M506.5938,205.8174 C447.875,222.5153 364.4792,246.4736 291.6667,268.2861 C287.4479,269.5465 283.0938,270.8695 278.7083,272.2028 " fill="none" id="com_telenav_tdk_core_network_email-to-javax_mail" style="stroke:#545454;stroke-width:1.5625;"/><polygon fill="#545454" points="273.5625,273.7757,283.7491,274.9946,278.5395,272.2409,281.2933,267.0314,273.5625,273.7757" style="stroke:#545454;stroke-width:1.5625;"/><!--MD5=[fd0ebd91f6e146c69f125716187c5220]
link com_telenav_tdk_core_resource to com_telenav_tdk_core_collections--><path d="M436.4583,420.8174 C436.4583,437.2861 436.4583,459.984 436.4583,477.5361 " fill="none" id="com_telenav_tdk_core_resource-to-com_telenav_tdk_core_collections" style="stroke:#545454;stroke-width:1.5625;"/><polygon fill="#545454" points="436.4583,482.8174,440.625,473.4424,436.4583,477.609,432.2917,473.4424,436.4583,482.8174" style="stroke:#545454;stroke-width:1.5625;"/><!--MD5=[26daab3f4817dea38388c7f4d4fe5045]
link com_telenav_tdk_core_security to com_telenav_tdk_core_test--><path d="M1198.6458,420.557 C1231.0313,437.859 1276.4896,462.1507 1310.0833,480.109 " fill="none" id="com_telenav_tdk_core_security-to-com_telenav_tdk_core_test" style="stroke:#545454;stroke-width:1.5625;"/><polygon fill="#545454" points="1314.9479,482.7132,1308.6516,474.6133,1310.3569,480.2537,1304.7165,481.959,1314.9479,482.7132" style="stroke:#545454;stroke-width:1.5625;"/><!--MD5=[4b10c520e9efc34a0ad84fabb4a302f2]
link com_telenav_tdk_core_test to com_telenav_tdk_serialization_core--><path d="M1326.1979,527.8486 C1303.1875,544.9424 1270.9896,568.8486 1246.9063,586.734 " fill="none" id="com_telenav_tdk_core_test-to-com_telenav_tdk_serialization_core" style="stroke:#545454;stroke-width:1.5625;"/><polygon fill="#545454" points="1242.5104,590.0049,1252.5195,587.7532,1246.6895,586.8966,1247.5462,581.0666,1242.5104,590.0049" style="stroke:#545454;stroke-width:1.5625;"/><!--MD5=[2525366fb9b8836aff4aba137159169d]
link com_telenav_tdk_core_test to com_telenav_tdk_serialization_kryo--><path d="M1384.4271,527.8486 C1407.6146,544.9424 1440.0417,568.8486 1464.3021,586.734 " fill="none" id="com_telenav_tdk_core_test-to-com_telenav_tdk_serialization_kryo" style="stroke:#545454;stroke-width:1.5625;"/><polygon fill="#545454" points="1468.7292,590.0049,1463.6577,581.0868,1464.5377,586.9133,1458.7112,587.7932,1468.7292,590.0049" style="stroke:#545454;stroke-width:1.5625;"/><!--MD5=[e2b658791bd0bd3972f9a8e4fd2688ef]
link com_telenav_tdk_core_test to junit--><path d="M1437.5417,527.7236 C1495,543.3486 1573.1771,565.9424 1640.625,590.1611 C1645,591.734 1649.5313,593.484 1654.0104,595.2965 " fill="none" id="com_telenav_tdk_core_test-to-junit" style="stroke:#545454;stroke-width:1.5625;"/><polygon fill="#545454" points="1658.8438,597.2757,1651.7533,589.8611,1654.0256,595.2979,1648.5887,597.5702,1658.8438,597.2757" style="stroke:#545454;stroke-width:1.5625;"/><!--MD5=[2214bd6700e6b7a177a58b59ecac6803]
link com_telenav_tdk_logs_email to com_telenav_tdk_core_network_email--><path d="M582.2917,98.9424 C582.2917,115.4111 582.2917,138.109 582.2917,155.6611 " fill="none" id="com_telenav_tdk_logs_email-to-com_telenav_tdk_core_network_email" style="stroke:#545454;stroke-width:1.5625;"/><polygon fill="#545454" points="582.2917,160.9424,586.4583,151.5674,582.2917,155.734,578.125,151.5674,582.2917,160.9424" style="stroke:#545454;stroke-width:1.5625;"/><!--MD5=[47dfe7084503077625f88d3fef24d417]
link com_telenav_tdk_serialization_kryo to kryo--><path d="M1473.1771,635.1403 C1453.625,652.1611 1426.3125,675.9424 1405.8021,693.807 " fill="none" id="com_telenav_tdk_serialization_kryo-to-kryo" style="stroke:#545454;stroke-width:1.5625;"/><polygon fill="#545454" points="1401.7917,697.2965,1411.5973,694.2799,1405.7187,693.8753,1406.1233,687.9966,1401.7917,697.2965" style="stroke:#545454;stroke-width:1.5625;"/><!--MD5=[a1e3673957aac7674932a3b577a6d45a]
link com_telenav_tdk_serialization_kryo to kryo_serializers--><path d="M1500.7188,635.4007 C1502.8438,651.8695 1505.7604,674.5674 1508.0208,692.1195 " fill="none" id="com_telenav_tdk_serialization_kryo-to-kryo_serializers" style="stroke:#545454;stroke-width:1.5625;"/><polygon fill="#545454" points="1508.6979,697.4007,1511.6243,687.5677,1508.0281,692.2356,1503.3602,688.6394,1508.6979,697.4007" style="stroke:#545454;stroke-width:1.5625;"/><!--MD5=[d68e7c4b3ca5f037bcb6997a0b4ed16b]
link junit to hamcrest_core--><path d="M1690.625,635.4007 C1690.625,651.8695 1690.625,674.5674 1690.625,692.1195 " fill="none" id="junit-to-hamcrest_core" style="stroke:#545454;stroke-width:1.5625;"/><polygon fill="#545454" points="1690.625,697.4007,1694.7917,688.0257,1690.625,692.1924,1686.4583,688.0257,1690.625,697.4007" style="stroke:#545454;stroke-width:1.5625;"/><!--MD5=[8c32f0e7b0abeba01afd276f5a66ee84]
link kryo to minlog--><path d="M1351.4896,742.432 C1331.2604,759.4528 1303.0104,783.234 1281.7917,801.0986 " fill="none" id="kryo-to-minlog" style="stroke:#545454;stroke-width:1.5625;"/><polygon fill="#545454" points="1277.6458,804.5882,1287.4998,801.7332,1281.6286,801.232,1282.1298,795.3608,1277.6458,804.5882" style="stroke:#545454;stroke-width:1.5625;"/><!--MD5=[e75c16e47fcf6c43b15d3c25536a9ed0]
link kryo to objenesis--><path d="M1404.6042,742.432 C1426.4271,759.5257 1456.9688,783.432 1479.8021,801.3174 " fill="none" id="kryo-to-objenesis" style="stroke:#545454;stroke-width:1.5625;"/><polygon fill="#545454" points="1483.9792,804.5882,1479.1643,795.5291,1479.8776,801.3783,1474.0284,802.0916,1483.9792,804.5882" style="stroke:#545454;stroke-width:1.5625;"/><!--MD5=[e061beb27669383d030ce0c5c656b006]
link kryo to reflectasm--><path d="M1377.0833,742.6924 C1377.0833,759.1611 1377.0833,781.859 1377.0833,799.4111 " fill="none" id="kryo-to-reflectasm" style="stroke:#545454;stroke-width:1.5625;"/><polygon fill="#545454" points="1377.0833,804.6924,1381.25,795.3174,1377.0833,799.484,1372.9167,795.3174,1377.0833,804.6924" style="stroke:#545454;stroke-width:1.5625;"/><!--MD5=[338783537f3f9263e4097f5ff0c514d3]
link reflectasm to asm--><path d="M1377.0833,849.984 C1377.0833,866.4528 1377.0833,889.1507 1377.0833,906.7028 " fill="none" id="reflectasm-to-asm" style="stroke:#545454;stroke-width:1.5625;"/><polygon fill="#545454" points="1377.0833,911.984,1381.25,902.609,1377.0833,906.7757,1372.9167,902.609,1377.0833,911.984" style="stroke:#545454;stroke-width:1.5625;"/><!--MD5=[34b1ea099d5f9bd32293ecda0e59fa5b]
@startuml

    !include ../lexakai.theme
    
    title "com.telenav.tdk.logs-email"
    
    artifact kryo
    artifact minlog
    artifact reflectasm
    artifact jackson_annotations
    artifact javax_mail
    artifact com_telenav_lexakai_annotations
    artifact com_telenav_tdk_build_metadata
    artifact com_telenav_tdk_core_collections
    artifact com_telenav_tdk_core_commandline
    artifact com_telenav_tdk_core_configuration
    artifact com_telenav_tdk_core_kernel
    artifact com_telenav_tdk_core_network_core
    artifact com_telenav_tdk_core_network_email
    artifact com_telenav_tdk_core_resource
    artifact com_telenav_tdk_core_security
    artifact com_telenav_tdk_core_test
    artifact com_telenav_tdk_logs_email
    artifact com_telenav_tdk_serialization_core
    artifact com_telenav_tdk_serialization_kryo
    artifact kryo_serializers
    artifact swagger_annotations
    artifact jakarta_activation_api
    artifact junit
    artifact hamcrest_core
    artifact annotations
    artifact objenesis
    artifact asm
    com_telenav_tdk_core_commandline - -> com_telenav_tdk_core_kernel
    com_telenav_tdk_core_configuration - -> com_telenav_tdk_core_resource
    com_telenav_tdk_core_kernel - -> annotations
    com_telenav_tdk_core_kernel - -> com_telenav_lexakai_annotations
    com_telenav_tdk_core_kernel - -> com_telenav_tdk_build_metadata
    com_telenav_tdk_core_kernel - -> jackson_annotations
    com_telenav_tdk_core_kernel - -> swagger_annotations
    com_telenav_tdk_core_network_core - -> com_telenav_tdk_core_commandline
    com_telenav_tdk_core_network_core - -> com_telenav_tdk_core_security
    com_telenav_tdk_core_network_email - -> com_telenav_tdk_core_configuration
    com_telenav_tdk_core_network_email - -> com_telenav_tdk_core_network_core
    com_telenav_tdk_core_network_email - -> jakarta_activation_api
    com_telenav_tdk_core_network_email - -> javax_mail
    com_telenav_tdk_core_resource - -> com_telenav_tdk_core_collections
    com_telenav_tdk_core_security - -> com_telenav_tdk_core_test
    com_telenav_tdk_core_test - -> com_telenav_tdk_serialization_core
    com_telenav_tdk_core_test - -> com_telenav_tdk_serialization_kryo
    com_telenav_tdk_core_test - -> junit
    com_telenav_tdk_logs_email - -> com_telenav_tdk_core_network_email
    com_telenav_tdk_serialization_kryo - -> kryo
    com_telenav_tdk_serialization_kryo - -> kryo_serializers
    junit - -> hamcrest_core
    kryo - -> minlog
    kryo - -> objenesis
    kryo - -> reflectasm
    reflectasm - -> asm
    
@enduml

@startuml









skinparam backgroundColor #333333






skinparam  {
    defaultFontName   "Open Sans,Avenir,Nunito,Arial,Helvetica,SansSerif"
    defaultFontSize   12
    defaultTextAlignment left
    shadowing false
    RoundCorner 10
    TitleFontSize 18
}

skinparam defaultFontName       "Open Sans,Avenir,Nunito,Arial,Helvetica,SansSerif"
skinparam defaultFontSize       12
skinparam dpi                   100
skinparam shadowing             false
skinparam roundcorner           16
skinparam ParticipantPadding    40
skinparam BoxPadding            40
skinparam Padding               3
skinparam ArrowColor            #545454
skinparam stereotype {
    CBackgroundColor #0066cf
    CBorderColor #0086ef
    ABackgroundColor #C8Ac00
    ABorderColor #D8Bc00
    IBackgroundColor #008400
    IBorderColor #239c23
    EBackgroundColor #cf6300
    EBorderColor #ef8300
    NBackgroundColor #3380b9
    NBorderColor #004d86
}
skinparam title {
	FontColor	                 #c0c0c0
 	BorderColor                  #545454
	FontSize	    	         20
	BorderRoundCorner            16
	BorderThickness 	         1
	BackgroundColor              #48494b
}


skinparam legend {
	BackgroundColor #303030
	BorderColor #404040
	FontColor #a0a0a0
}

	skinparam swimlane {
	BorderColor #5e5e5e
	BorderThickness 2
	TitleBackgroundColor  #6d6d6d-#484848
	TitleFontColor #303030
}

skinparam activity {
		FontColor #C8Ac00
	BorderColor #333333
	BackgroundColor #333333-#333333
	BarColor #00FF00
	StartColor #0060a8
	EndColor #0060a8
	DiamondBackgroundColor #6d6d6d-#3a3a3a
  	DiamondBorderColor #3a3a3a
  	DiamondFontColor #fefefe
}


skinparam participant {
		FontColor #C8Ac00
	BorderColor #333333
	BackgroundColor #333333-#333333
	ParticipantBorderThickness 2
}


skinparam actor {
		FontColor #C8Ac00
	BorderColor #333333
	BackgroundColor #333333-#333333
}


skinparam arrow {
	Thickness 1.5
	Color #545454
	FontColor #a0a0a0
    FontStyle bold
    MessageAlignment center
}



skinparam sequence {
	BorderColor #303030
	TitleFontColor #303030
	BackgroundColor #333333
	StartColor #303030
	EndColor #303030
	BoxBackgroundColor #333333
	BoxBorderColor #484848
	BoxFontColor #484848
	LifeLineBorderColor #484848
	LifeLineBorderThickness 2
	LifeLineBackgroundColor #3a3a3a
	GroupBorderColor #484848
	GroupFontColor #484848
	GroupHeaderFontColor #0060a8
	GroupBackgroundColor #484848
	GroupHeaderBackgroundColor #333333
	DividerBackgroundColor #484848
    DividerBorderColor #484848
    DividerBorderThickness 2
    DividerFontColor #D8Bc00
	ReferenceBackgroundColor #333333
	ReferenceBorderColor #484848
	ReferenceFontColor #fefefe
	ReferenceHeaderBackgroundColor #484848
}


skinparam partition {
	BorderColor #303030
	FontColor #333333
	BackgroundColor #333333
}


skinparam collections {
		FontColor #C8Ac00
	BorderColor #333333
	BackgroundColor #333333-#333333
}


skinparam control {
		FontColor #C8Ac00
	BorderColor #333333
	BackgroundColor #333333-#333333
}


skinparam entity {
		FontColor #C8Ac00
	BorderColor #333333
	BackgroundColor #333333-#333333
}


skinparam boundary {
		FontColor #C8Ac00
	BorderColor #333333
	BackgroundColor #333333-#333333
}


skinparam agent {
	BackgroundColor #ff8000
	BorderColor #ff9933
	FontColor #484848
}


skinparam note {
	BorderThickness 1
	BackgroundColor #1b1b1a
	BorderColor #5e5e5e
	FontSize 11
	FontColor #a0a0a0
}


skinparam artifact {
	BorderThickness 10
	BorderColor #5e5e5e
	BackgroundColor #1b1b1a
	FontColor #D8Bc00
}


skinparam component {
		FontColor #C8Ac00
	BorderColor #333333
	BackgroundColor #333333-#333333
}


skinparam interface {
	BackgroundColor  #008400
	BorderColor  #007F00
	FontColor #484848
}


skinparam storage {
	BackgroundColor #ff8000
  	BorderColor #cc6600
	FontColor #222222
}


skinparam node {
	BackgroundColor #333333
	BorderColor #333333
	FontColor #C8Ac00
}


skinparam cloud {
	BackgroundColor #484848-black
	BorderColor #484848
	FontColor #D8Bc00
}


skinparam database {
		FontColor #C8Ac00
	BorderColor #333333
	BackgroundColor #333333-#333333
	BackgroundColor  #333333
}


skinparam class {
		FontColor #C8Ac00
	BorderColor #333333
	BackgroundColor #333333-#333333
	HeaderBackgroundColor #1b1b1a
    BackgroundColor #282828
    BorderColor #5e5e5e
 	StereotypeFontColor #a0a0a0
    StereotypeFontStyle bold
	BorderThickness 1
	AttributeFontColor #D8Bc00
	AttributeFontSize 11
    FontColor #D8Bc00
    FontStyle bold
}


skinparam object {
		FontColor #C8Ac00
	BorderColor #333333
	BackgroundColor #333333-#333333
	StereotypeFontColor #484848
	BorderThickness 1
	AttributeFontColor #fefefe
	AttributeFontSize 11
}


skinparam usecase {
		FontColor #C8Ac00
	BorderColor #333333
	BackgroundColor #333333-#333333
	BorderThickness 2
	StereotypeFontColor #303030
}


skinparam rectangle {
		FontColor #C8Ac00
	BorderColor #333333
	BackgroundColor #333333-#333333
	BackgroundColor #333333
	BorderThickness 2
	StereotypeFontColor #303030
}


skinparam package {
		FontColor #C8Ac00
	BorderColor #333333
	BackgroundColor #333333-#333333
	BackgroundColor #333333
	BorderThickness 2
}


skinparam folder {
	BackgroundColor #6d6d6d
  	BorderColor #ff8000
	FontColor #ff8000
	BorderThickness 2
}


skinparam frame {
	BackgroundColor #6d6d6d
  	BorderColor #0060a8
	FontColor #0060a8
	BorderThickness 2
}


skinparam state {
		FontColor #C8Ac00
	BorderColor #333333
	BackgroundColor #333333-#333333
	StartColor #0060a8
	EndColor #0060a8
	AttributeFontColor #fefefe
	AttributeFontSize 11
}


skinparam queue {
		FontColor #C8Ac00
	BorderColor #333333
	BackgroundColor #333333-#333333
}


skinparam card {
	BackgroundColor #0060a8
	BorderColor #004d86
	FontColor $INFO_TEXT
}


skinparam file {
	BackgroundColor #6d6d6d-#484848
	BorderColor #0060a8
	FontColor #fefefe
}


skinparam stack {
		FontColor #C8Ac00
	BorderColor #333333
	BackgroundColor #333333-#333333
}

    
    title "com.telenav.tdk.logs-email"
    
    artifact kryo
    artifact minlog
    artifact reflectasm
    artifact jackson_annotations
    artifact javax_mail
    artifact com_telenav_lexakai_annotations
    artifact com_telenav_tdk_build_metadata
    artifact com_telenav_tdk_core_collections
    artifact com_telenav_tdk_core_commandline
    artifact com_telenav_tdk_core_configuration
    artifact com_telenav_tdk_core_kernel
    artifact com_telenav_tdk_core_network_core
    artifact com_telenav_tdk_core_network_email
    artifact com_telenav_tdk_core_resource
    artifact com_telenav_tdk_core_security
    artifact com_telenav_tdk_core_test
    artifact com_telenav_tdk_logs_email
    artifact com_telenav_tdk_serialization_core
    artifact com_telenav_tdk_serialization_kryo
    artifact kryo_serializers
    artifact swagger_annotations
    artifact jakarta_activation_api
    artifact junit
    artifact hamcrest_core
    artifact annotations
    artifact objenesis
    artifact asm
    com_telenav_tdk_core_commandline - -> com_telenav_tdk_core_kernel
    com_telenav_tdk_core_configuration - -> com_telenav_tdk_core_resource
    com_telenav_tdk_core_kernel - -> annotations
    com_telenav_tdk_core_kernel - -> com_telenav_lexakai_annotations
    com_telenav_tdk_core_kernel - -> com_telenav_tdk_build_metadata
    com_telenav_tdk_core_kernel - -> jackson_annotations
    com_telenav_tdk_core_kernel - -> swagger_annotations
    com_telenav_tdk_core_network_core - -> com_telenav_tdk_core_commandline
    com_telenav_tdk_core_network_core - -> com_telenav_tdk_core_security
    com_telenav_tdk_core_network_email - -> com_telenav_tdk_core_configuration
    com_telenav_tdk_core_network_email - -> com_telenav_tdk_core_network_core
    com_telenav_tdk_core_network_email - -> jakarta_activation_api
    com_telenav_tdk_core_network_email - -> javax_mail
    com_telenav_tdk_core_resource - -> com_telenav_tdk_core_collections
    com_telenav_tdk_core_security - -> com_telenav_tdk_core_test
    com_telenav_tdk_core_test - -> com_telenav_tdk_serialization_core
    com_telenav_tdk_core_test - -> com_telenav_tdk_serialization_kryo
    com_telenav_tdk_core_test - -> junit
    com_telenav_tdk_logs_email - -> com_telenav_tdk_core_network_email
    com_telenav_tdk_serialization_kryo - -> kryo
    com_telenav_tdk_serialization_kryo - -> kryo_serializers
    junit - -> hamcrest_core
    kryo - -> minlog
    kryo - -> objenesis
    kryo - -> reflectasm
    reflectasm - -> asm
    
@enduml

PlantUML version 1.2021.3(Mon Mar 22 09:53:19 MST 2021)
(GPL source distribution)
Java Runtime: OpenJDK Runtime Environment
JVM: OpenJDK 64-Bit Server VM
Default Encoding: UTF-8
Language: en
Country: US
--></g></svg>