<?xml version="1.0" encoding="UTF-8" standalone="no"?><svg xmlns="http://www.w3.org/2000/svg" xmlns:xlink="http://www.w3.org/1999/xlink" contentScriptType="application/ecmascript" contentStyleType="text/css" height="962.5px" preserveAspectRatio="none" style="width:1402px;height:962px;background:#333333;" version="1.1" viewBox="0 0 1402 962" width="1402.0833px" zoomAndPan="magnify"><defs/><g><rect fill="#48494B" height="41.2028" rx="8.3333" ry="8.3333" style="stroke:#545454;stroke-width:1.0416666666666667;" width="211.4583" x="588.0208" y="2.0833"/><text fill="#C0C0C0" font-family="Open Sans,Avenir,Nunito,Arial,Helvetica,SansSerif" font-size="20.8333" lengthAdjust="spacing" textLength="188.5417" x="599.4792" y="30.5583">kivakit-logs-email</text><!--MD5=[4f079977920bf52107586fb847a1e92c]
entity kryo--><rect fill="#1B1B1A" height="44.93" rx="8.3333" ry="8.3333" style="stroke:#5E5E5E;stroke-width:1.5625;" width="63.5417" x="139.0625" y="697.4528"/><polygon fill="#1B1B1A" points="184.8958,702.6611,184.8958,717.2445,197.3958,717.2445,197.3958,708.9111,191.1458,702.6611,184.8958,702.6611" style="stroke:#5E5E5E;stroke-width:1.5625;"/><line style="stroke:#5E5E5E;stroke-width:1.5625;" x1="191.1458" x2="191.1458" y1="702.6611" y2="708.9111"/><line style="stroke:#5E5E5E;stroke-width:1.5625;" x1="197.3958" x2="191.1458" y1="708.9111" y2="708.9111"/><text fill="#D8BC00" font-family="Open Sans,Avenir,Nunito,Arial,Helvetica,SansSerif" font-size="12.5" lengthAdjust="spacing" textLength="26.0417" x="152.6042" y="726.2044">kryo</text><!--MD5=[745ab22dbfa32e29a2660b9e5bc2262a]
entity minlog--><rect fill="#1B1B1A" height="44.93" rx="8.3333" ry="8.3333" style="stroke:#5E5E5E;stroke-width:1.5625;" width="77.0833" x="7.2917" y="804.7445"/><polygon fill="#1B1B1A" points="66.6667,809.9528,66.6667,824.5361,79.1667,824.5361,79.1667,816.2028,72.9167,809.9528,66.6667,809.9528" style="stroke:#5E5E5E;stroke-width:1.5625;"/><line style="stroke:#5E5E5E;stroke-width:1.5625;" x1="72.9167" x2="72.9167" y1="809.9528" y2="816.2028"/><line style="stroke:#5E5E5E;stroke-width:1.5625;" x1="79.1667" x2="72.9167" y1="816.2028" y2="816.2028"/><text fill="#D8BC00" font-family="Open Sans,Avenir,Nunito,Arial,Helvetica,SansSerif" font-size="12.5" lengthAdjust="spacing" textLength="39.5833" x="20.8333" y="833.4961">minlog</text><!--MD5=[5d0bc62e6e2e5a8467f655d5e580826c]
entity reflectasm--><rect fill="#1B1B1A" height="44.93" rx="8.3333" ry="8.3333" style="stroke:#5E5E5E;stroke-width:1.5625;" width="100" x="120.8333" y="804.7445"/><polygon fill="#1B1B1A" points="203.125,809.9528,203.125,824.5361,215.625,824.5361,215.625,816.2028,209.375,809.9528,203.125,809.9528" style="stroke:#5E5E5E;stroke-width:1.5625;"/><line style="stroke:#5E5E5E;stroke-width:1.5625;" x1="209.375" x2="209.375" y1="809.9528" y2="816.2028"/><line style="stroke:#5E5E5E;stroke-width:1.5625;" x1="215.625" x2="209.375" y1="816.2028" y2="816.2028"/><text fill="#D8BC00" font-family="Open Sans,Avenir,Nunito,Arial,Helvetica,SansSerif" font-size="12.5" lengthAdjust="spacing" textLength="62.5" x="134.375" y="833.4961">reflectasm</text><!--MD5=[07375bd6ced801b2ef86c9d3f68eec61]
entity jackson_annotations--><rect fill="#1B1B1A" height="44.93" rx="8.3333" ry="8.3333" style="stroke:#5E5E5E;stroke-width:1.5625;" width="158.3333" x="383.3333" y="590.1611"/><polygon fill="#1B1B1A" points="523.9583,595.3695,523.9583,609.9528,536.4583,609.9528,536.4583,601.6195,530.2083,595.3695,523.9583,595.3695" style="stroke:#5E5E5E;stroke-width:1.5625;"/><line style="stroke:#5E5E5E;stroke-width:1.5625;" x1="530.2083" x2="530.2083" y1="595.3695" y2="601.6195"/><line style="stroke:#5E5E5E;stroke-width:1.5625;" x1="536.4583" x2="530.2083" y1="601.6195" y2="601.6195"/><text fill="#D8BC00" font-family="Open Sans,Avenir,Nunito,Arial,Helvetica,SansSerif" font-size="12.5" lengthAdjust="spacing" textLength="120.8333" x="396.875" y="618.9128">jackson_annotations</text><!--MD5=[1c663fe9a961659935f939a1b6c051d3]
entity javax_mail--><rect fill="#1B1B1A" height="44.93" rx="8.3333" ry="8.3333" style="stroke:#5E5E5E;stroke-width:1.5625;" width="101.0417" x="388.0208" y="268.2861"/><polygon fill="#1B1B1A" points="471.3542,273.4945,471.3542,288.0778,483.8542,288.0778,483.8542,279.7445,477.6042,273.4945,471.3542,273.4945" style="stroke:#5E5E5E;stroke-width:1.5625;"/><line style="stroke:#5E5E5E;stroke-width:1.5625;" x1="477.6042" x2="477.6042" y1="273.4945" y2="279.7445"/><line style="stroke:#5E5E5E;stroke-width:1.5625;" x1="483.8542" x2="477.6042" y1="279.7445" y2="279.7445"/><text fill="#D8BC00" font-family="Open Sans,Avenir,Nunito,Arial,Helvetica,SansSerif" font-size="12.5" lengthAdjust="spacing" textLength="63.5417" x="401.5625" y="297.0378">javax_mail</text><!--MD5=[d9521c76c2842dca8b8a8d137addb4db]
entity kivakit_build_metadata--><rect fill="#1B1B1A" height="44.93" rx="8.3333" ry="8.3333" style="stroke:#5E5E5E;stroke-width:1.5625;" width="176.0417" x="578.6458" y="590.1611"/><polygon fill="#1B1B1A" points="736.9792,595.3695,736.9792,609.9528,749.4792,609.9528,749.4792,601.6195,743.2292,595.3695,736.9792,595.3695" style="stroke:#5E5E5E;stroke-width:1.5625;"/><line style="stroke:#5E5E5E;stroke-width:1.5625;" x1="743.2292" x2="743.2292" y1="595.3695" y2="601.6195"/><line style="stroke:#5E5E5E;stroke-width:1.5625;" x1="749.4792" x2="743.2292" y1="601.6195" y2="601.6195"/><text fill="#D8BC00" font-family="Open Sans,Avenir,Nunito,Arial,Helvetica,SansSerif" font-size="12.5" lengthAdjust="spacing" textLength="138.5417" x="592.1875" y="618.9128">kivakit_build_metadata</text><!--MD5=[c749d8fbd0ccf88f309a9fa69b45c399]
entity kivakit_core_collections--><rect fill="#1B1B1A" height="44.93" rx="8.3333" ry="8.3333" style="stroke:#5E5E5E;stroke-width:1.5625;" width="176.0417" x="191.1458" y="482.8695"/><polygon fill="#1B1B1A" points="349.4792,488.0778,349.4792,502.6611,361.9792,502.6611,361.9792,494.3278,355.7292,488.0778,349.4792,488.0778" style="stroke:#5E5E5E;stroke-width:1.5625;"/><line style="stroke:#5E5E5E;stroke-width:1.5625;" x1="355.7292" x2="355.7292" y1="488.0778" y2="494.3278"/><line style="stroke:#5E5E5E;stroke-width:1.5625;" x1="361.9792" x2="355.7292" y1="494.3278" y2="494.3278"/><text fill="#D8BC00" font-family="Open Sans,Avenir,Nunito,Arial,Helvetica,SansSerif" font-size="12.5" lengthAdjust="spacing" textLength="138.5417" x="204.6875" y="511.6211">kivakit_core_collections</text><!--MD5=[90cbd57b7ed4cf40beb41e0bb8ca8fc2]
entity kivakit_core_commandline--><rect fill="#1B1B1A" height="44.93" rx="8.3333" ry="8.3333" style="stroke:#5E5E5E;stroke-width:1.5625;" width="194.7917" x="754.6875" y="375.5778"/><polygon fill="#1B1B1A" points="931.7708,380.7861,931.7708,395.3695,944.2708,395.3695,944.2708,387.0361,938.0208,380.7861,931.7708,380.7861" style="stroke:#5E5E5E;stroke-width:1.5625;"/><line style="stroke:#5E5E5E;stroke-width:1.5625;" x1="938.0208" x2="938.0208" y1="380.7861" y2="387.0361"/><line style="stroke:#5E5E5E;stroke-width:1.5625;" x1="944.2708" x2="938.0208" y1="387.0361" y2="387.0361"/><text fill="#D8BC00" font-family="Open Sans,Avenir,Nunito,Arial,Helvetica,SansSerif" font-size="12.5" lengthAdjust="spacing" textLength="157.2917" x="768.2292" y="404.3294">kivakit_core_commandline</text><!--MD5=[44bb5b778d2a538d8ecd2c4e419f879a]
entity kivakit_core_configuration--><rect fill="#1B1B1A" height="44.93" rx="8.3333" ry="8.3333" style="stroke:#5E5E5E;stroke-width:1.5625;" width="191.6667" x="526.0417" y="268.2861"/><polygon fill="#1B1B1A" points="700,273.4945,700,288.0778,712.5,288.0778,712.5,279.7445,706.25,273.4945,700,273.4945" style="stroke:#5E5E5E;stroke-width:1.5625;"/><line style="stroke:#5E5E5E;stroke-width:1.5625;" x1="706.25" x2="706.25" y1="273.4945" y2="279.7445"/><line style="stroke:#5E5E5E;stroke-width:1.5625;" x1="712.5" x2="706.25" y1="279.7445" y2="279.7445"/><text fill="#D8BC00" font-family="Open Sans,Avenir,Nunito,Arial,Helvetica,SansSerif" font-size="12.5" lengthAdjust="spacing" textLength="154.1667" x="539.5833" y="297.0378">kivakit_core_configuration</text><!--MD5=[688f54af1e374da9fda80b106920514e]
entity kivakit_core_kernel--><rect fill="#1B1B1A" height="44.93" rx="8.3333" ry="8.3333" style="stroke:#5E5E5E;stroke-width:1.5625;" width="152.0833" x="792.7083" y="482.8695"/><polygon fill="#1B1B1A" points="927.0833,488.0778,927.0833,502.6611,939.5833,502.6611,939.5833,494.3278,933.3333,488.0778,927.0833,488.0778" style="stroke:#5E5E5E;stroke-width:1.5625;"/><line style="stroke:#5E5E5E;stroke-width:1.5625;" x1="933.3333" x2="933.3333" y1="488.0778" y2="494.3278"/><line style="stroke:#5E5E5E;stroke-width:1.5625;" x1="939.5833" x2="933.3333" y1="494.3278" y2="494.3278"/><text fill="#D8BC00" font-family="Open Sans,Avenir,Nunito,Arial,Helvetica,SansSerif" font-size="12.5" lengthAdjust="spacing" textLength="114.5833" x="806.25" y="511.6211">kivakit_core_kernel</text><!--MD5=[5b631a7c13cf598b93db810005140bd8]
entity kivakit_core_network_core--><rect fill="#1B1B1A" height="44.93" rx="8.3333" ry="8.3333" style="stroke:#5E5E5E;stroke-width:1.5625;" width="194.7917" x="754.6875" y="268.2861"/><polygon fill="#1B1B1A" points="931.7708,273.4945,931.7708,288.0778,944.2708,288.0778,944.2708,279.7445,938.0208,273.4945,931.7708,273.4945" style="stroke:#5E5E5E;stroke-width:1.5625;"/><line style="stroke:#5E5E5E;stroke-width:1.5625;" x1="938.0208" x2="938.0208" y1="273.4945" y2="279.7445"/><line style="stroke:#5E5E5E;stroke-width:1.5625;" x1="944.2708" x2="938.0208" y1="279.7445" y2="279.7445"/><text fill="#D8BC00" font-family="Open Sans,Avenir,Nunito,Arial,Helvetica,SansSerif" font-size="12.5" lengthAdjust="spacing" textLength="157.2917" x="768.2292" y="297.0378">kivakit_core_network_core</text><!--MD5=[56fe5b14bbd364cef65e31a63a9b894c]
entity kivakit_core_network_email--><rect fill="#1B1B1A" height="44.93" rx="8.3333" ry="8.3333" style="stroke:#5E5E5E;stroke-width:1.5625;" width="201.0417" x="635.9375" y="160.9945"/><polygon fill="#1B1B1A" points="819.2708,166.2028,819.2708,180.7861,831.7708,180.7861,831.7708,172.4528,825.5208,166.2028,819.2708,166.2028" style="stroke:#5E5E5E;stroke-width:1.5625;"/><line style="stroke:#5E5E5E;stroke-width:1.5625;" x1="825.5208" x2="825.5208" y1="166.2028" y2="172.4528"/><line style="stroke:#5E5E5E;stroke-width:1.5625;" x1="831.7708" x2="825.5208" y1="172.4528" y2="172.4528"/><text fill="#D8BC00" font-family="Open Sans,Avenir,Nunito,Arial,Helvetica,SansSerif" font-size="12.5" lengthAdjust="spacing" textLength="163.5417" x="649.4792" y="189.7461">kivakit_core_network_email</text><!--MD5=[96baabbb2bc8385dcde9005719ffbed4]
entity kivakit_core_resource--><rect fill="#1B1B1A" height="44.93" rx="8.3333" ry="8.3333" style="stroke:#5E5E5E;stroke-width:1.5625;" width="166.6667" x="496.875" y="375.5778"/><polygon fill="#1B1B1A" points="645.8333,380.7861,645.8333,395.3695,658.3333,395.3695,658.3333,387.0361,652.0833,380.7861,645.8333,380.7861" style="stroke:#5E5E5E;stroke-width:1.5625;"/><line style="stroke:#5E5E5E;stroke-width:1.5625;" x1="652.0833" x2="652.0833" y1="380.7861" y2="387.0361"/><line style="stroke:#5E5E5E;stroke-width:1.5625;" x1="658.3333" x2="652.0833" y1="387.0361" y2="387.0361"/><text fill="#D8BC00" font-family="Open Sans,Avenir,Nunito,Arial,Helvetica,SansSerif" font-size="12.5" lengthAdjust="spacing" textLength="129.1667" x="510.4167" y="404.3294">kivakit_core_resource</text><!--MD5=[b95351c189380c02c3c9de61c422881e]
entity kivakit_core_security--><rect fill="#1B1B1A" height="44.93" rx="8.3333" ry="8.3333" style="stroke:#5E5E5E;stroke-width:1.5625;" width="160.4167" x="986.4583" y="375.5778"/><polygon fill="#1B1B1A" points="1129.1667,380.7861,1129.1667,395.3695,1141.6667,395.3695,1141.6667,387.0361,1135.4167,380.7861,1129.1667,380.7861" style="stroke:#5E5E5E;stroke-width:1.5625;"/><line style="stroke:#5E5E5E;stroke-width:1.5625;" x1="1135.4167" x2="1135.4167" y1="380.7861" y2="387.0361"/><line style="stroke:#5E5E5E;stroke-width:1.5625;" x1="1141.6667" x2="1135.4167" y1="387.0361" y2="387.0361"/><text fill="#D8BC00" font-family="Open Sans,Avenir,Nunito,Arial,Helvetica,SansSerif" font-size="12.5" lengthAdjust="spacing" textLength="122.9167" x="1000" y="404.3294">kivakit_core_security</text><!--MD5=[98b25bf0c66f95b164f347e9d0e8dc28]
entity kivakit_core_serialization_core--><rect fill="#1B1B1A" height="44.93" rx="8.3333" ry="8.3333" style="stroke:#5E5E5E;stroke-width:1.5625;" width="218.75" x="470.8333" y="482.8695"/><polygon fill="#1B1B1A" points="671.875,488.0778,671.875,502.6611,684.375,502.6611,684.375,494.3278,678.125,488.0778,671.875,488.0778" style="stroke:#5E5E5E;stroke-width:1.5625;"/><line style="stroke:#5E5E5E;stroke-width:1.5625;" x1="678.125" x2="678.125" y1="488.0778" y2="494.3278"/><line style="stroke:#5E5E5E;stroke-width:1.5625;" x1="684.375" x2="678.125" y1="494.3278" y2="494.3278"/><text fill="#D8BC00" font-family="Open Sans,Avenir,Nunito,Arial,Helvetica,SansSerif" font-size="12.5" lengthAdjust="spacing" textLength="181.25" x="484.375" y="511.6211">kivakit_core_serialization_core</text><!--MD5=[0a9583a81da34a7dccf2b6c4ad7f5d24]
entity kivakit_core_serialization_kryo--><rect fill="#1B1B1A" height="44.93" rx="8.3333" ry="8.3333" style="stroke:#5E5E5E;stroke-width:1.5625;" width="218.75" x="128.125" y="590.1611"/><polygon fill="#1B1B1A" points="329.1667,595.3695,329.1667,609.9528,341.6667,609.9528,341.6667,601.6195,335.4167,595.3695,329.1667,595.3695" style="stroke:#5E5E5E;stroke-width:1.5625;"/><line style="stroke:#5E5E5E;stroke-width:1.5625;" x1="335.4167" x2="335.4167" y1="595.3695" y2="601.6195"/><line style="stroke:#5E5E5E;stroke-width:1.5625;" x1="341.6667" x2="335.4167" y1="601.6195" y2="601.6195"/><text fill="#D8BC00" font-family="Open Sans,Avenir,Nunito,Arial,Helvetica,SansSerif" font-size="12.5" lengthAdjust="spacing" textLength="181.25" x="141.6667" y="618.9128">kivakit_core_serialization_kryo</text><!--MD5=[818dec80b2352fb7b5669cdb2944a52b]
entity kivakit_core_test--><rect fill="#1B1B1A" height="44.93" rx="8.3333" ry="8.3333" style="stroke:#5E5E5E;stroke-width:1.5625;" width="136.4583" x="998.4375" y="482.8695"/><polygon fill="#1B1B1A" points="1117.1875,488.0778,1117.1875,502.6611,1129.6875,502.6611,1129.6875,494.3278,1123.4375,488.0778,1117.1875,488.0778" style="stroke:#5E5E5E;stroke-width:1.5625;"/><line style="stroke:#5E5E5E;stroke-width:1.5625;" x1="1123.4375" x2="1123.4375" y1="488.0778" y2="494.3278"/><line style="stroke:#5E5E5E;stroke-width:1.5625;" x1="1129.6875" x2="1123.4375" y1="494.3278" y2="494.3278"/><text fill="#D8BC00" font-family="Open Sans,Avenir,Nunito,Arial,Helvetica,SansSerif" font-size="12.5" lengthAdjust="spacing" textLength="98.9583" x="1011.9792" y="511.6211">kivakit_core_test</text><!--MD5=[7921d14e5969ec5b646a7d8d67b1935f]
entity kivakit_logs_email--><rect fill="#1B1B1A" height="44.93" rx="8.3333" ry="8.3333" style="stroke:#5E5E5E;stroke-width:1.5625;" width="144.7917" x="664.0625" y="53.7028"/><polygon fill="#1B1B1A" points="791.1458,58.9111,791.1458,73.4945,803.6458,73.4945,803.6458,65.1611,797.3958,58.9111,791.1458,58.9111" style="stroke:#5E5E5E;stroke-width:1.5625;"/><line style="stroke:#5E5E5E;stroke-width:1.5625;" x1="797.3958" x2="797.3958" y1="58.9111" y2="65.1611"/><line style="stroke:#5E5E5E;stroke-width:1.5625;" x1="803.6458" x2="797.3958" y1="65.1611" y2="65.1611"/><text fill="#D8BC00" font-family="Open Sans,Avenir,Nunito,Arial,Helvetica,SansSerif" font-size="12.5" lengthAdjust="spacing" textLength="107.2917" x="677.6042" y="82.4544">kivakit_logs_email</text><!--MD5=[7b0fec798d1f32628676dfdf75f1f662]
entity lexakai_annotations--><rect fill="#1B1B1A" height="44.93" rx="8.3333" ry="8.3333" style="stroke:#5E5E5E;stroke-width:1.5625;" width="155.2083" x="791.1458" y="590.1611"/><polygon fill="#1B1B1A" points="928.6458,595.3695,928.6458,609.9528,941.1458,609.9528,941.1458,601.6195,934.8958,595.3695,928.6458,595.3695" style="stroke:#5E5E5E;stroke-width:1.5625;"/><line style="stroke:#5E5E5E;stroke-width:1.5625;" x1="934.8958" x2="934.8958" y1="595.3695" y2="601.6195"/><line style="stroke:#5E5E5E;stroke-width:1.5625;" x1="941.1458" x2="934.8958" y1="601.6195" y2="601.6195"/><text fill="#D8BC00" font-family="Open Sans,Avenir,Nunito,Arial,Helvetica,SansSerif" font-size="12.5" lengthAdjust="spacing" textLength="117.7083" x="804.6875" y="618.9128">lexakai_annotations</text><!--MD5=[b9ccc173c089e3d2abf77c8581e74aca]
entity kryo_serializers--><rect fill="#1B1B1A" height="44.93" rx="8.3333" ry="8.3333" style="stroke:#5E5E5E;stroke-width:1.5625;" width="131.25" x="239.5833" y="697.4528"/><polygon fill="#1B1B1A" points="353.125,702.6611,353.125,717.2445,365.625,717.2445,365.625,708.9111,359.375,702.6611,353.125,702.6611" style="stroke:#5E5E5E;stroke-width:1.5625;"/><line style="stroke:#5E5E5E;stroke-width:1.5625;" x1="359.375" x2="359.375" y1="702.6611" y2="708.9111"/><line style="stroke:#5E5E5E;stroke-width:1.5625;" x1="365.625" x2="359.375" y1="708.9111" y2="708.9111"/><text fill="#D8BC00" font-family="Open Sans,Avenir,Nunito,Arial,Helvetica,SansSerif" font-size="12.5" lengthAdjust="spacing" textLength="93.75" x="253.125" y="726.2044">kryo_serializers</text><!--MD5=[23cc7f88cfa1ae4b54fca2963c42906f]
entity swagger_annotations--><rect fill="#1B1B1A" height="44.93" rx="8.3333" ry="8.3333" style="stroke:#5E5E5E;stroke-width:1.5625;" width="162.5" x="983.3333" y="590.1611"/><polygon fill="#1B1B1A" points="1128.125,595.3695,1128.125,609.9528,1140.625,609.9528,1140.625,601.6195,1134.375,595.3695,1128.125,595.3695" style="stroke:#5E5E5E;stroke-width:1.5625;"/><line style="stroke:#5E5E5E;stroke-width:1.5625;" x1="1134.375" x2="1134.375" y1="595.3695" y2="601.6195"/><line style="stroke:#5E5E5E;stroke-width:1.5625;" x1="1140.625" x2="1134.375" y1="601.6195" y2="601.6195"/><text fill="#D8BC00" font-family="Open Sans,Avenir,Nunito,Arial,Helvetica,SansSerif" font-size="12.5" lengthAdjust="spacing" textLength="125" x="996.875" y="618.9128">swagger_annotations</text><!--MD5=[76295b2d657545520eec6d4c24e790cd]
entity jakarta_activation_api--><rect fill="#1B1B1A" height="44.93" rx="8.3333" ry="8.3333" style="stroke:#5E5E5E;stroke-width:1.5625;" width="167.7083" x="985.9375" y="268.2861"/><polygon fill="#1B1B1A" points="1135.9375,273.4945,1135.9375,288.0778,1148.4375,288.0778,1148.4375,279.7445,1142.1875,273.4945,1135.9375,273.4945" style="stroke:#5E5E5E;stroke-width:1.5625;"/><line style="stroke:#5E5E5E;stroke-width:1.5625;" x1="1142.1875" x2="1142.1875" y1="273.4945" y2="279.7445"/><line style="stroke:#5E5E5E;stroke-width:1.5625;" x1="1148.4375" x2="1142.1875" y1="279.7445" y2="279.7445"/><text fill="#D8BC00" font-family="Open Sans,Avenir,Nunito,Arial,Helvetica,SansSerif" font-size="12.5" lengthAdjust="spacing" textLength="130.2083" x="999.4792" y="297.0378">jakarta_activation_api</text><!--MD5=[ce55b294004802c137560c2930be5b75]
entity junit--><rect fill="#1B1B1A" height="44.93" rx="8.3333" ry="8.3333" style="stroke:#5E5E5E;stroke-width:1.5625;" width="63.5417" x="1182.8125" y="590.1611"/><polygon fill="#1B1B1A" points="1228.6458,595.3695,1228.6458,609.9528,1241.1458,609.9528,1241.1458,601.6195,1234.8958,595.3695,1228.6458,595.3695" style="stroke:#5E5E5E;stroke-width:1.5625;"/><line style="stroke:#5E5E5E;stroke-width:1.5625;" x1="1234.8958" x2="1234.8958" y1="595.3695" y2="601.6195"/><line style="stroke:#5E5E5E;stroke-width:1.5625;" x1="1241.1458" x2="1234.8958" y1="601.6195" y2="601.6195"/><text fill="#D8BC00" font-family="Open Sans,Avenir,Nunito,Arial,Helvetica,SansSerif" font-size="12.5" lengthAdjust="spacing" textLength="26.0417" x="1196.3542" y="618.9128">junit</text><!--MD5=[7f157d37bc1fd6ac970bb67ffdbc66a3]
entity hamcrest_core--><rect fill="#1B1B1A" height="44.93" rx="8.3333" ry="8.3333" style="stroke:#5E5E5E;stroke-width:1.5625;" width="125" x="1152.0833" y="697.4528"/><polygon fill="#1B1B1A" points="1259.375,702.6611,1259.375,717.2445,1271.875,717.2445,1271.875,708.9111,1265.625,702.6611,1259.375,702.6611" style="stroke:#5E5E5E;stroke-width:1.5625;"/><line style="stroke:#5E5E5E;stroke-width:1.5625;" x1="1265.625" x2="1265.625" y1="702.6611" y2="708.9111"/><line style="stroke:#5E5E5E;stroke-width:1.5625;" x1="1271.875" x2="1265.625" y1="708.9111" y2="708.9111"/><text fill="#D8BC00" font-family="Open Sans,Avenir,Nunito,Arial,Helvetica,SansSerif" font-size="12.5" lengthAdjust="spacing" textLength="87.5" x="1165.625" y="726.2044">hamcrest_core</text><!--MD5=[b728e17b4e4da6aa8cb97e9b2766c5e6]
entity annotations--><rect fill="#1B1B1A" height="44.93" rx="8.3333" ry="8.3333" style="stroke:#5E5E5E;stroke-width:1.5625;" width="106.25" x="1283.3333" y="590.1611"/><polygon fill="#1B1B1A" points="1371.875,595.3695,1371.875,609.9528,1384.375,609.9528,1384.375,601.6195,1378.125,595.3695,1371.875,595.3695" style="stroke:#5E5E5E;stroke-width:1.5625;"/><line style="stroke:#5E5E5E;stroke-width:1.5625;" x1="1378.125" x2="1378.125" y1="595.3695" y2="601.6195"/><line style="stroke:#5E5E5E;stroke-width:1.5625;" x1="1384.375" x2="1378.125" y1="601.6195" y2="601.6195"/><text fill="#D8BC00" font-family="Open Sans,Avenir,Nunito,Arial,Helvetica,SansSerif" font-size="12.5" lengthAdjust="spacing" textLength="68.75" x="1296.875" y="618.9128">annotations</text><!--MD5=[b3c862d1486667ad9c7edef6529b2202]
entity objenesis--><rect fill="#1B1B1A" height="44.93" rx="8.3333" ry="8.3333" style="stroke:#5E5E5E;stroke-width:1.5625;" width="94.7917" x="257.8125" y="804.7445"/><polygon fill="#1B1B1A" points="334.8958,809.9528,334.8958,824.5361,347.3958,824.5361,347.3958,816.2028,341.1458,809.9528,334.8958,809.9528" style="stroke:#5E5E5E;stroke-width:1.5625;"/><line style="stroke:#5E5E5E;stroke-width:1.5625;" x1="341.1458" x2="341.1458" y1="809.9528" y2="816.2028"/><line style="stroke:#5E5E5E;stroke-width:1.5625;" x1="347.3958" x2="341.1458" y1="816.2028" y2="816.2028"/><text fill="#D8BC00" font-family="Open Sans,Avenir,Nunito,Arial,Helvetica,SansSerif" font-size="12.5" lengthAdjust="spacing" textLength="57.2917" x="271.3542" y="833.4961">objenesis</text><!--MD5=[92e2ad58d19962135e7ff93f22958550]
entity asm--><rect fill="#1B1B1A" height="44.93" rx="8.3333" ry="8.3333" style="stroke:#5E5E5E;stroke-width:1.5625;" width="62.5" x="139.5833" y="912.0361"/><polygon fill="#1B1B1A" points="184.375,917.2445,184.375,931.8278,196.875,931.8278,196.875,923.4945,190.625,917.2445,184.375,917.2445" style="stroke:#5E5E5E;stroke-width:1.5625;"/><line style="stroke:#5E5E5E;stroke-width:1.5625;" x1="190.625" x2="190.625" y1="917.2445" y2="923.4945"/><line style="stroke:#5E5E5E;stroke-width:1.5625;" x1="196.875" x2="190.625" y1="923.4945" y2="923.4945"/><text fill="#D8BC00" font-family="Open Sans,Avenir,Nunito,Arial,Helvetica,SansSerif" font-size="12.5" lengthAdjust="spacing" textLength="25" x="153.125" y="940.7878">asm</text><!--MD5=[d68e7c4b3ca5f037bcb6997a0b4ed16b]
link junit to hamcrest_core--><path d="M1214.5833,635.4007 C1214.5833,651.8695 1214.5833,674.5674 1214.5833,692.1195 " fill="none" id="junit-to-hamcrest_core" style="stroke:#545454;stroke-width:1.5625;"/><polygon fill="#545454" points="1214.5833,697.4007,1218.75,688.0257,1214.5833,692.1924,1210.4167,688.0257,1214.5833,697.4007" style="stroke:#545454;stroke-width:1.5625;"/><!--MD5=[89a440cab1a8a2054a43eb185086c0c4]
link kivakit_core_collections to kivakit_core_serialization_kryo--><path d="M270.5313,528.109 C264.0104,544.5778 255.0208,567.2757 248.0625,584.8278 " fill="none" id="kivakit_core_collections-to-kivakit_core_serialization_kryo" style="stroke:#545454;stroke-width:1.5625;"/><polygon fill="#545454" points="245.9792,590.109,253.303,582.9248,247.8956,585.2661,245.5543,579.8586,245.9792,590.109" style="stroke:#545454;stroke-width:1.5625;"/><!--MD5=[e405cd3841b6b84328a74eb7d1fd93b0]
link kivakit_core_commandline to kivakit_core_kernel--><path d="M855.5417,420.8174 C858.1458,437.2861 861.7396,459.984 864.5208,477.5361 " fill="none" id="kivakit_core_commandline-to-kivakit_core_kernel" style="stroke:#545454;stroke-width:1.5625;"/><polygon fill="#545454" points="865.3542,482.8174,867.9974,472.9045,864.5365,477.6736,859.7674,474.2127,865.3542,482.8174" style="stroke:#545454;stroke-width:1.5625;"/><!--MD5=[4afce70979695d1c56a0cd6e24d7257a]
link kivakit_core_configuration to kivakit_core_resource--><path d="M613.2396,313.5257 C606.7188,329.9945 597.7292,352.6924 590.7708,370.2445 " fill="none" id="kivakit_core_configuration-to-kivakit_core_resource" style="stroke:#545454;stroke-width:1.5625;"/><polygon fill="#545454" points="588.6875,375.5257,596.0114,368.3415,590.6039,370.6828,588.2626,365.2753,588.6875,375.5257" style="stroke:#545454;stroke-width:1.5625;"/><!--MD5=[952d2988887d0a1a5ab8e547a07453b0]
link kivakit_core_kernel to annotations--><path d="M945.0833,521.7236 C1042.375,541.4945 1205.0938,575.0465 1264.5833,590.1611 C1268.9375,591.2653 1273.4167,592.4632 1277.9271,593.7028 " fill="none" id="kivakit_core_kernel-to-annotations" style="stroke:#545454;stroke-width:1.5625;"/><polygon fill="#545454" points="1283.2083,595.182,1275.2975,588.6497,1278.1915,593.7826,1273.0586,596.6766,1283.2083,595.182" style="stroke:#545454;stroke-width:1.5625;"/><!--MD5=[b7680a521db9e3e37ee2504e235738ce]
link kivakit_core_kernel to jackson_annotations--><path d="M792.3333,526.0986 C722.4167,544.2028 619.1458,570.9424 546.8438,589.6715 " fill="none" id="kivakit_core_kernel-to-jackson_annotations" style="stroke:#545454;stroke-width:1.5625;"/><polygon fill="#545454" points="541.6875,591.0049,551.8087,592.6823,546.7287,589.6962,549.7148,584.6163,541.6875,591.0049" style="stroke:#545454;stroke-width:1.5625;"/><!--MD5=[b26fa4ddfc815a8311f8076e771ef7d4]
link kivakit_core_kernel to junit--><path d="M944.9583,525.3174 C1004.9375,540.9111 1090.3438,564.5361 1163.5417,590.1611 C1168.1354,591.7653 1172.9063,593.5778 1177.6146,595.4424 " fill="none" id="kivakit_core_kernel-to-junit" style="stroke:#545454;stroke-width:1.5625;"/><polygon fill="#545454" points="1182.6771,597.484,1175.5475,590.107,1177.8485,595.5317,1172.4238,597.8328,1182.6771,597.484" style="stroke:#545454;stroke-width:1.5625;"/><!--MD5=[147bacadb2b5082a02772764a83ed950]
link kivakit_core_kernel to kivakit_build_metadata--><path d="M827.3646,527.8486 C794.125,545.1507 747.4688,569.4424 712.9896,587.4007 " fill="none" id="kivakit_core_kernel-to-kivakit_build_metadata" style="stroke:#545454;stroke-width:1.5625;"/><polygon fill="#545454" points="707.9896,590.0049,718.2291,589.3692,712.6088,587.5987,714.3793,581.9784,707.9896,590.0049" style="stroke:#545454;stroke-width:1.5625;"/><!--MD5=[faeafeee9ad3ae3a363b253ef7d19a64]
link kivakit_core_kernel to lexakai_annotations--><path d="M868.75,528.109 C868.75,544.5778 868.75,567.2757 868.75,584.8278 " fill="none" id="kivakit_core_kernel-to-lexakai_annotations" style="stroke:#545454;stroke-width:1.5625;"/><polygon fill="#545454" points="868.75,590.109,872.9167,580.734,868.75,584.9007,864.5833,580.734,868.75,590.109" style="stroke:#545454;stroke-width:1.5625;"/><!--MD5=[99fa47cbfc1fc0fa6998fda90ce70c02]
link kivakit_core_kernel to swagger_annotations--><path d="M908.8542,527.8486 C941.0625,545.1507 986.2813,569.4424 1019.6979,587.4007 " fill="none" id="kivakit_core_kernel-to-swagger_annotations" style="stroke:#545454;stroke-width:1.5625;"/><polygon fill="#545454" points="1024.5313,590.0049,1018.2554,581.8891,1019.9464,587.5338,1014.3017,589.2249,1024.5313,590.0049" style="stroke:#545454;stroke-width:1.5625;"/><!--MD5=[f75ec449396fb5ee5f76bf441ddbbe5d]
link kivakit_core_network_core to kivakit_core_commandline--><path d="M852.0833,313.5257 C852.0833,329.9945 852.0833,352.6924 852.0833,370.2445 " fill="none" id="kivakit_core_network_core-to-kivakit_core_commandline" style="stroke:#545454;stroke-width:1.5625;"/><polygon fill="#545454" points="852.0833,375.5257,856.25,366.1507,852.0833,370.3174,847.9167,366.1507,852.0833,375.5257" style="stroke:#545454;stroke-width:1.5625;"/><!--MD5=[4897e88fe48b13ac8e9a1231169eb6df]
link kivakit_core_network_core to kivakit_core_security--><path d="M896.0208,313.2653 C931.4688,330.6403 981.2708,355.0674 1017.9271,373.0361 " fill="none" id="kivakit_core_network_core-to-kivakit_core_security" style="stroke:#545454;stroke-width:1.5625;"/><polygon fill="#545454" points="1022.7813,375.4215,1016.1889,367.5607,1018.1022,373.134,1012.5289,375.0472,1022.7813,375.4215" style="stroke:#545454;stroke-width:1.5625;"/><!--MD5=[ec3f3626dae6c76dd7c4f9ee3d502611]
link kivakit_core_network_email to jakarta_activation_api--><path d="M804.3125,205.8486 C860.3021,223.5153 939.5729,248.5361 996.8958,266.6299 " fill="none" id="kivakit_core_network_email-to-jakarta_activation_api" style="stroke:#545454;stroke-width:1.5625;"/><polygon fill="#545454" points="1002.0313,268.2549,994.3559,261.4475,997.0669,266.6794,991.8351,269.3904,1002.0313,268.2549" style="stroke:#545454;stroke-width:1.5625;"/><!--MD5=[87c19c3e618afc036b8f0efecb899f82]
link kivakit_core_network_email to javax_mail--><path d="M675.8125,205.8486 C622.5729,224.6507 545.7917,251.7653 494.125,270.0153 " fill="none" id="kivakit_core_network_email-to-javax_mail" style="stroke:#545454;stroke-width:1.5625;"/><polygon fill="#545454" points="489.1979,271.7445,499.4242,272.5664,494.1115,270.0173,496.6606,264.7046,489.1979,271.7445" style="stroke:#545454;stroke-width:1.5625;"/><!--MD5=[47557c7965a580a916b27163cad5f2d8]
link kivakit_core_network_email to kivakit_core_configuration--><path d="M712.9896,205.9736 C694.6146,222.859 668.9896,246.3799 649.5938,264.1924 " fill="none" id="kivakit_core_network_email-to-kivakit_core_configuration" style="stroke:#545454;stroke-width:1.5625;"/><polygon fill="#545454" points="645.3125,268.1299,655.0354,264.8562,649.1481,264.6064,649.3979,258.7192,645.3125,268.1299" style="stroke:#545454;stroke-width:1.5625;"/><!--MD5=[308cdcd88ff44051c80dc94b0ace9a49]
link kivakit_core_network_email to kivakit_core_network_core--><path d="M760.1354,205.9736 C778.6875,222.859 804.5417,246.3799 824.1146,264.1924 " fill="none" id="kivakit_core_network_email-to-kivakit_core_network_core" style="stroke:#545454;stroke-width:1.5625;"/><polygon fill="#545454" points="828.4375,268.1299,824.3323,258.7278,824.5944,264.6145,818.7077,264.8767,828.4375,268.1299" style="stroke:#545454;stroke-width:1.5625;"/><!--MD5=[61a50f48d46fb49e436077267c3e261e]
link kivakit_core_resource to kivakit_core_collections--><path d="M518.9271,420.432 C468.4583,438.0674 397.0625,463.0257 345.3125,481.109 " fill="none" id="kivakit_core_resource-to-kivakit_core_collections" style="stroke:#545454;stroke-width:1.5625;"/><polygon fill="#545454" points="340.3646,482.8382,350.5908,483.6601,345.2782,481.111,347.8273,475.7984,340.3646,482.8382" style="stroke:#545454;stroke-width:1.5625;"/><!--MD5=[a1f0f27ef0eb17168c6cd06fee466f5d]
link kivakit_core_resource to kivakit_core_serialization_core--><path d="M580.2083,420.8174 C580.2083,437.2861 580.2083,459.984 580.2083,477.5361 " fill="none" id="kivakit_core_resource-to-kivakit_core_serialization_core" style="stroke:#545454;stroke-width:1.5625;"/><polygon fill="#545454" points="580.2083,482.8174,584.375,473.4424,580.2083,477.609,576.0417,473.4424,580.2083,482.8174" style="stroke:#545454;stroke-width:1.5625;"/><!--MD5=[3ff889ce0d1b5c5ada6847f2d94a29ff]
link kivakit_core_security to kivakit_core_test--><path d="M1066.6667,420.8174 C1066.6667,437.2861 1066.6667,459.984 1066.6667,477.5361 " fill="none" id="kivakit_core_security-to-kivakit_core_test" style="stroke:#545454;stroke-width:1.5625;"/><polygon fill="#545454" points="1066.6667,482.8174,1070.8333,473.4424,1066.6667,477.609,1062.5,473.4424,1066.6667,482.8174" style="stroke:#545454;stroke-width:1.5625;"/><!--MD5=[a78602a5e159932f58b4090c620edf6f]
link kivakit_core_serialization_kryo to kryo--><path d="M223.6875,635.4007 C213.1563,652.0153 198.6146,674.9528 187.4583,692.5778 " fill="none" id="kivakit_core_serialization_kryo-to-kryo" style="stroke:#545454;stroke-width:1.5625;"/><polygon fill="#545454" points="184.3958,697.4007,192.9393,691.7209,187.1882,693.0042,185.9049,687.2531,184.3958,697.4007" style="stroke:#545454;stroke-width:1.5625;"/><!--MD5=[929cb75ecd116a31d1013b63d48976ad]
link kivakit_core_serialization_kryo to kryo_serializers--><path d="M251.5313,635.4007 C262.2188,652.0153 276.9896,674.9528 288.3229,692.5778 " fill="none" id="kivakit_core_serialization_kryo-to-kryo_serializers" style="stroke:#545454;stroke-width:1.5625;"/><polygon fill="#545454" points="291.4271,697.4007,289.8537,687.2629,288.6069,693.022,282.8478,691.7752,291.4271,697.4007" style="stroke:#545454;stroke-width:1.5625;"/><!--MD5=[1b3cd5de0f30dbb35a62c8e0551ca107]
link kivakit_logs_email to kivakit_core_network_email--><path d="M736.4583,98.9424 C736.4583,115.4111 736.4583,138.109 736.4583,155.6611 " fill="none" id="kivakit_logs_email-to-kivakit_core_network_email" style="stroke:#545454;stroke-width:1.5625;"/><polygon fill="#545454" points="736.4583,160.9424,740.625,151.5674,736.4583,155.734,732.2917,151.5674,736.4583,160.9424" style="stroke:#545454;stroke-width:1.5625;"/><!--MD5=[8c32f0e7b0abeba01afd276f5a66ee84]
link kryo to minlog--><path d="M145.2396,742.432 C125.0104,759.4528 96.7604,783.234 75.5417,801.0986 " fill="none" id="kryo-to-minlog" style="stroke:#545454;stroke-width:1.5625;"/><polygon fill="#545454" points="71.3958,804.5882,81.2498,801.7332,75.3786,801.232,75.8798,795.3608,71.3958,804.5882" style="stroke:#545454;stroke-width:1.5625;"/><!--MD5=[e75c16e47fcf6c43b15d3c25536a9ed0]
link kryo to objenesis--><path d="M198.3542,742.432 C220.1771,759.5257 250.7188,783.432 273.5521,801.3174 " fill="none" id="kryo-to-objenesis" style="stroke:#545454;stroke-width:1.5625;"/><polygon fill="#545454" points="277.7292,804.5882,272.9143,795.5291,273.6276,801.3783,267.7784,802.0916,277.7292,804.5882" style="stroke:#545454;stroke-width:1.5625;"/><!--MD5=[e061beb27669383d030ce0c5c656b006]
link kryo to reflectasm--><path d="M170.8333,742.6924 C170.8333,759.1611 170.8333,781.859 170.8333,799.4111 " fill="none" id="kryo-to-reflectasm" style="stroke:#545454;stroke-width:1.5625;"/><polygon fill="#545454" points="170.8333,804.6924,175,795.3174,170.8333,799.484,166.6667,795.3174,170.8333,804.6924" style="stroke:#545454;stroke-width:1.5625;"/><!--MD5=[338783537f3f9263e4097f5ff0c514d3]
link reflectasm to asm--><path d="M170.8333,849.984 C170.8333,866.4528 170.8333,889.1507 170.8333,906.7028 " fill="none" id="reflectasm-to-asm" style="stroke:#545454;stroke-width:1.5625;"/><polygon fill="#545454" points="170.8333,911.984,175,902.609,170.8333,906.7757,166.6667,902.609,170.8333,911.984" style="stroke:#545454;stroke-width:1.5625;"/><!--MD5=[676fada74c2d3063d80e00ed1b2c705b]
@startuml

    !include ../lexakai/lexakai.theme
    
    title "kivakit-logs-email"
    
    artifact kryo
    artifact minlog
    artifact reflectasm
    artifact jackson_annotations
    artifact javax_mail
    artifact kivakit_build_metadata
    artifact kivakit_core_collections
    artifact kivakit_core_commandline
    artifact kivakit_core_configuration
    artifact kivakit_core_kernel
    artifact kivakit_core_network_core
    artifact kivakit_core_network_email
    artifact kivakit_core_resource
    artifact kivakit_core_security
    artifact kivakit_core_serialization_core
    artifact kivakit_core_serialization_kryo
    artifact kivakit_core_test
    artifact kivakit_logs_email
    artifact lexakai_annotations
    artifact kryo_serializers
    artifact swagger_annotations
    artifact jakarta_activation_api
    artifact junit
    artifact hamcrest_core
    artifact annotations
    artifact objenesis
    artifact asm
    junit - -> hamcrest_core
    kivakit_core_collections - -> kivakit_core_serialization_kryo
    kivakit_core_commandline - -> kivakit_core_kernel
    kivakit_core_configuration - -> kivakit_core_resource
    kivakit_core_kernel - -> annotations
    kivakit_core_kernel - -> jackson_annotations
    kivakit_core_kernel - -> junit
    kivakit_core_kernel - -> kivakit_build_metadata
    kivakit_core_kernel - -> lexakai_annotations
    kivakit_core_kernel - -> swagger_annotations
    kivakit_core_network_core - -> kivakit_core_commandline
    kivakit_core_network_core - -> kivakit_core_security
    kivakit_core_network_email - -> jakarta_activation_api
    kivakit_core_network_email - -> javax_mail
    kivakit_core_network_email - -> kivakit_core_configuration
    kivakit_core_network_email - -> kivakit_core_network_core
    kivakit_core_resource - -> kivakit_core_collections
    kivakit_core_resource - -> kivakit_core_serialization_core
    kivakit_core_security - -> kivakit_core_test
    kivakit_core_serialization_kryo - -> kryo
    kivakit_core_serialization_kryo - -> kryo_serializers
    kivakit_logs_email - -> kivakit_core_network_email
    kryo - -> minlog
    kryo - -> objenesis
    kryo - -> reflectasm
    reflectasm - -> asm
    
@enduml

@startuml









skinparam backgroundColor #333333






skinparam  {
    defaultFontName   "Open Sans,Avenir,Nunito,Arial,Helvetica,SansSerif"
    defaultFontSize   12
    defaultTextAlignment left
    shadowing false
    RoundCorner 10
    TitleFontSize 18
}

skinparam defaultFontName       "Open Sans,Avenir,Nunito,Arial,Helvetica,SansSerif"
skinparam defaultFontSize       12
skinparam dpi                   100
skinparam shadowing             false
skinparam roundcorner           16
skinparam ParticipantPadding    40
skinparam BoxPadding            40
skinparam Padding               3
skinparam ArrowColor            #545454
skinparam stereotype {
    CBackgroundColor #0066cf
    CBorderColor #0086ef
    ABackgroundColor #C8Ac00
    ABorderColor #D8Bc00
    IBackgroundColor #008400
    IBorderColor #239c23
    EBackgroundColor #cf6300
    EBorderColor #ef8300
    NBackgroundColor #3380b9
    NBorderColor #004d86
}
skinparam title {
	FontColor	                 #c0c0c0
 	BorderColor                  #545454
	FontSize	    	         20
	BorderRoundCorner            16
	BorderThickness 	         1
	BackgroundColor              #48494b
}


skinparam legend {
	BackgroundColor #303030
	BorderColor #404040
	FontColor #a0a0a0
}

	skinparam swimlane {
	BorderColor #5e5e5e
	BorderThickness 2
	TitleBackgroundColor  #6d6d6d-#484848
	TitleFontColor #303030
}

skinparam activity {
		FontColor #C8Ac00
	BorderColor #333333
	BackgroundColor #333333-#333333
	BarColor #00FF00
	StartColor #0060a8
	EndColor #0060a8
	DiamondBackgroundColor #6d6d6d-#3a3a3a
  	DiamondBorderColor #3a3a3a
  	DiamondFontColor #fefefe
}


skinparam participant {
		FontColor #C8Ac00
	BorderColor #333333
	BackgroundColor #333333-#333333
	ParticipantBorderThickness 2
}


skinparam actor {
		FontColor #C8Ac00
	BorderColor #333333
	BackgroundColor #333333-#333333
}


skinparam arrow {
	Thickness 1.5
	Color #545454
	FontColor #a0a0a0
    FontStyle bold
    MessageAlignment center
}



skinparam sequence {
	BorderColor #303030
	TitleFontColor #303030
	BackgroundColor #333333
	StartColor #303030
	EndColor #303030
	BoxBackgroundColor #333333
	BoxBorderColor #484848
	BoxFontColor #484848
	LifeLineBorderColor #484848
	LifeLineBorderThickness 2
	LifeLineBackgroundColor #3a3a3a
	GroupBorderColor #484848
	GroupFontColor #484848
	GroupHeaderFontColor #0060a8
	GroupBackgroundColor #484848
	GroupHeaderBackgroundColor #333333
	DividerBackgroundColor #484848
    DividerBorderColor #484848
    DividerBorderThickness 2
    DividerFontColor #D8Bc00
	ReferenceBackgroundColor #333333
	ReferenceBorderColor #484848
	ReferenceFontColor #fefefe
	ReferenceHeaderBackgroundColor #484848
}


skinparam partition {
	BorderColor #303030
	FontColor #333333
	BackgroundColor #333333
}


skinparam collections {
		FontColor #C8Ac00
	BorderColor #333333
	BackgroundColor #333333-#333333
}


skinparam control {
		FontColor #C8Ac00
	BorderColor #333333
	BackgroundColor #333333-#333333
}


skinparam entity {
		FontColor #C8Ac00
	BorderColor #333333
	BackgroundColor #333333-#333333
}


skinparam boundary {
		FontColor #C8Ac00
	BorderColor #333333
	BackgroundColor #333333-#333333
}


skinparam agent {
	BackgroundColor #ff8000
	BorderColor #ff9933
	FontColor #484848
}


skinparam note {
	BorderThickness 1
	BackgroundColor #1b1b1a
	BorderColor #5e5e5e
	FontSize 11
	FontColor #a0a0a0
}


skinparam artifact {
	BorderThickness 10
	BorderColor #5e5e5e
	BackgroundColor #1b1b1a
	FontColor #D8Bc00
}


skinparam component {
		FontColor #C8Ac00
	BorderColor #333333
	BackgroundColor #333333-#333333
}


skinparam interface {
	BackgroundColor  #008400
	BorderColor  #007F00
	FontColor #484848
}


skinparam storage {
	BackgroundColor #ff8000
  	BorderColor #cc6600
	FontColor #222222
}


skinparam node {
	BackgroundColor #333333
	BorderColor #333333
	FontColor #C8Ac00
}


skinparam cloud {
	BackgroundColor #484848-black
	BorderColor #484848
	FontColor #D8Bc00
}


skinparam database {
		FontColor #C8Ac00
	BorderColor #333333
	BackgroundColor #333333-#333333
	BackgroundColor  #333333
}


skinparam class {
		FontColor #C8Ac00
	BorderColor #333333
	BackgroundColor #333333-#333333
	HeaderBackgroundColor #1b1b1a
    BackgroundColor #282828
    BorderColor #5e5e5e
 	StereotypeFontColor #a0a0a0
    StereotypeFontStyle bold
	BorderThickness 1
	AttributeFontColor #D8Bc00
	AttributeFontSize 11
    FontColor #D8Bc00
    FontStyle bold
}


skinparam object {
		FontColor #C8Ac00
	BorderColor #333333
	BackgroundColor #333333-#333333
	StereotypeFontColor #484848
	BorderThickness 1
	AttributeFontColor #fefefe
	AttributeFontSize 11
}


skinparam usecase {
		FontColor #C8Ac00
	BorderColor #333333
	BackgroundColor #333333-#333333
	BorderThickness 2
	StereotypeFontColor #303030
}


skinparam rectangle {
		FontColor #C8Ac00
	BorderColor #333333
	BackgroundColor #333333-#333333
	BackgroundColor #333333
	BorderThickness 2
	StereotypeFontColor #303030
}


skinparam package {
		FontColor #C8Ac00
	BorderColor #333333
	BackgroundColor #333333-#333333
	BackgroundColor #333333
	BorderThickness 2
}


skinparam folder {
	BackgroundColor #6d6d6d
  	BorderColor #ff8000
	FontColor #ff8000
	BorderThickness 2
}


skinparam frame {
	BackgroundColor #6d6d6d
  	BorderColor #0060a8
	FontColor #0060a8
	BorderThickness 2
}


skinparam state {
		FontColor #C8Ac00
	BorderColor #333333
	BackgroundColor #333333-#333333
	StartColor #0060a8
	EndColor #0060a8
	AttributeFontColor #fefefe
	AttributeFontSize 11
}


skinparam queue {
		FontColor #C8Ac00
	BorderColor #333333
	BackgroundColor #333333-#333333
}


skinparam card {
	BackgroundColor #0060a8
	BorderColor #004d86
	FontColor $INFO_TEXT
}


skinparam file {
	BackgroundColor #6d6d6d-#484848
	BorderColor #0060a8
	FontColor #fefefe
}


skinparam stack {
		FontColor #C8Ac00
	BorderColor #333333
	BackgroundColor #333333-#333333
}

    
    title "kivakit-logs-email"
    
    artifact kryo
    artifact minlog
    artifact reflectasm
    artifact jackson_annotations
    artifact javax_mail
    artifact kivakit_build_metadata
    artifact kivakit_core_collections
    artifact kivakit_core_commandline
    artifact kivakit_core_configuration
    artifact kivakit_core_kernel
    artifact kivakit_core_network_core
    artifact kivakit_core_network_email
    artifact kivakit_core_resource
    artifact kivakit_core_security
    artifact kivakit_core_serialization_core
    artifact kivakit_core_serialization_kryo
    artifact kivakit_core_test
    artifact kivakit_logs_email
    artifact lexakai_annotations
    artifact kryo_serializers
    artifact swagger_annotations
    artifact jakarta_activation_api
    artifact junit
    artifact hamcrest_core
    artifact annotations
    artifact objenesis
    artifact asm
    junit - -> hamcrest_core
    kivakit_core_collections - -> kivakit_core_serialization_kryo
    kivakit_core_commandline - -> kivakit_core_kernel
    kivakit_core_configuration - -> kivakit_core_resource
    kivakit_core_kernel - -> annotations
    kivakit_core_kernel - -> jackson_annotations
    kivakit_core_kernel - -> junit
    kivakit_core_kernel - -> kivakit_build_metadata
    kivakit_core_kernel - -> lexakai_annotations
    kivakit_core_kernel - -> swagger_annotations
    kivakit_core_network_core - -> kivakit_core_commandline
    kivakit_core_network_core - -> kivakit_core_security
    kivakit_core_network_email - -> jakarta_activation_api
    kivakit_core_network_email - -> javax_mail
    kivakit_core_network_email - -> kivakit_core_configuration
    kivakit_core_network_email - -> kivakit_core_network_core
    kivakit_core_resource - -> kivakit_core_collections
    kivakit_core_resource - -> kivakit_core_serialization_core
    kivakit_core_security - -> kivakit_core_test
    kivakit_core_serialization_kryo - -> kryo
    kivakit_core_serialization_kryo - -> kryo_serializers
    kivakit_logs_email - -> kivakit_core_network_email
    kryo - -> minlog
    kryo - -> objenesis
    kryo - -> reflectasm
    reflectasm - -> asm
    
@enduml

PlantUML version 1.2021.01(Tue Feb 02 00:55:08 MST 2021)
(GPL source distribution)
Java Runtime: Java(TM) SE Runtime Environment
JVM: Java HotSpot(TM) 64-Bit Server VM
Default Encoding: UTF-8
Language: en
Country: US
--></g></svg>