<?xml version="1.0" encoding="UTF-8" standalone="no"?><svg xmlns="http://www.w3.org/2000/svg" xmlns:xlink="http://www.w3.org/1999/xlink" contentScriptType="application/ecmascript" contentStyleType="text/css" height="254.1667px" preserveAspectRatio="none" style="width:1132px;height:254px;background:#333333;" version="1.1" viewBox="0 0 1132 254" width="1132.2917px" zoomAndPan="magnify"><defs/><g><rect fill="#48494B" height="41.2028" rx="8.3333" ry="8.3333" style="stroke:#545454;stroke-width:1.0416666666666667;" width="475" x="321.6146" y="2.0833"/><text fill="#C0C0C0" font-family="Open Sans,Avenir,Nunito,Arial,Helvetica,SansSerif" font-size="20.8333" lengthAdjust="spacing" textLength="452.0833" x="333.0729" y="30.5583">com.telenav.kivakit.conversion.core.language</text><!--MD5=[9aa687ed59f428548907e723dba1087a]
class BaseStringConverter--><rect codeLine="7" fill="#282828" height="48.055" id="BaseStringConverter" rx="8.3333" ry="8.3333" style="stroke:#5E5E5E;stroke-width:1.0416666666666667;" width="169.7917" x="494.7917" y="53.7028"/><rect fill="#1B1B1A" height="31.3883" rx="8.3333" ry="8.3333" style="stroke:#1B1B1A;stroke-width:1.0416666666666667;" width="169.7917" x="494.7917" y="53.7028"/><rect fill="#1B1B1A" height="8.3333" style="stroke:#1B1B1A;stroke-width:1.0416666666666667;" width="169.7917" x="494.7917" y="76.7578"/><rect codeLine="7" fill="none" height="48.055" id="BaseStringConverter" rx="8.3333" ry="8.3333" style="stroke:#5E5E5E;stroke-width:1.0416666666666667;" width="169.7917" x="494.7917" y="53.7028"/><ellipse cx="509.375" cy="69.397" fill="#C8AC00" rx="10.4167" ry="10.4167" style="stroke:#D8BC00;stroke-width:1.0416666666666667;"/><path d="M508.9681,66.099 L508.1197,69.8283 L509.8226,69.8283 Z M507.8695,64.4511 L510.0728,64.4511 L512.5326,73.5636 L510.732,73.5636 L510.1705,71.3114 L507.7596,71.3114 L507.2103,73.5636 L505.4097,73.5636 Z " fill="#000000"/><text fill="#D8BC00" font-family="Open Sans,Avenir,Nunito,Arial,Helvetica,SansSerif" font-size="12.5" font-style="italic" font-weight="bold" lengthAdjust="spacing" textLength="132.2917" x="526.0417" y="74.1211">BaseStringConverter</text><line style="stroke:#5E5E5E;stroke-width:1.0416666666666667;" x1="495.8333" x2="663.5417" y1="85.0911" y2="85.0911"/><line style="stroke:#5E5E5E;stroke-width:1.0416666666666667;" x1="495.8333" x2="663.5417" y1="93.4245" y2="93.4245"/><!--MD5=[9ade3e3e2a44f1696807b1fe499c88f6]
class ClassConverter--><rect codeLine="10" fill="#282828" height="83.3781" id="ClassConverter" rx="8.3333" ry="8.3333" style="stroke:#5E5E5E;stroke-width:1.0416666666666667;" width="171.875" x="7.2917" y="164.1195"/><rect fill="#1B1B1A" height="31.3883" rx="8.3333" ry="8.3333" style="stroke:#1B1B1A;stroke-width:1.0416666666666667;" width="171.875" x="7.2917" y="164.1195"/><rect fill="#1B1B1A" height="8.3333" style="stroke:#1B1B1A;stroke-width:1.0416666666666667;" width="171.875" x="7.2917" y="187.1745"/><rect codeLine="10" fill="none" height="83.3781" id="ClassConverter" rx="8.3333" ry="8.3333" style="stroke:#5E5E5E;stroke-width:1.0416666666666667;" width="171.875" x="7.2917" y="164.1195"/><ellipse cx="37.8125" cy="179.8136" fill="#0066CF" rx="10.4167" ry="10.4167" style="stroke:#0086EF;stroke-width:1.0416666666666667;"/><path d="M39.7229,184.2387 Q39.2957,184.4584 38.8257,184.5683 Q38.3557,184.6781 37.8369,184.6781 Q35.9937,184.6781 35.0232,183.4635 Q34.0527,182.2489 34.0527,179.954 Q34.0527,177.653 35.0232,176.4384 Q35.9937,175.2238 37.8369,175.2238 Q38.3557,175.2238 38.8318,175.3337 Q39.3079,175.4435 39.7229,175.6632 L39.7229,177.6652 Q39.259,177.238 38.8226,177.0396 Q38.3862,176.8412 37.9224,176.8412 Q36.9336,176.8412 36.4301,177.6255 Q35.9265,178.4098 35.9265,179.954 Q35.9265,181.4921 36.4301,182.2764 Q36.9336,183.0607 37.9224,183.0607 Q38.3862,183.0607 38.8226,182.8623 Q39.259,182.664 39.7229,182.2367 Z " fill="#000000"/><text fill="#D8BC00" font-family="Open Sans,Avenir,Nunito,Arial,Helvetica,SansSerif" font-size="12.5" font-weight="bold" lengthAdjust="spacing" textLength="98.9583" x="58.0208" y="184.5378">ClassConverter</text><line style="stroke:#5E5E5E;stroke-width:1.5625;" x1="8.3333" x2="178.125" y1="195.5078" y2="195.5078"/><ellipse cx="18.75" cy="230.8777" fill="#84BE84" rx="3.125" ry="3.125" style="stroke:#038048;stroke-width:1.0416666666666667;"/><text fill="#D8BC00" font-family="Open Sans,Avenir,Nunito,Arial,Helvetica,SansSerif" font-size="11.4583" lengthAdjust="spacing" textLength="139.5833" x="30.2083" y="237.7889">ClassConverter(Listener)</text><line style="stroke:#5E5E5E;stroke-width:1.0416666666666667;" x1="8.3333" x2="49.4792" y1="213.7136" y2="213.7136"/><text fill="#D8BC00" font-family="Open Sans,Avenir,Nunito,Arial,Helvetica,SansSerif" font-size="11.4583" lengthAdjust="spacing" textLength="81.25" x="52.6042" y="217.5232">(constructors)</text><line style="stroke:#5E5E5E;stroke-width:1.0416666666666667;" x1="136.9792" x2="178.125" y1="213.7136" y2="213.7136"/><!--MD5=[6a058bae72d5bd84cf9d52dcfdfc7ff8]
class EnumConverter--><rect codeLine="17" fill="#282828" height="83.3781" id="EnumConverter" rx="8.3333" ry="8.3333" style="stroke:#5E5E5E;stroke-width:1.0416666666666667;" width="235.4167" x="216.1458" y="164.1195"/><rect fill="#1B1B1A" height="31.3883" rx="8.3333" ry="8.3333" style="stroke:#1B1B1A;stroke-width:1.0416666666666667;" width="235.4167" x="216.1458" y="164.1195"/><rect fill="#1B1B1A" height="8.3333" style="stroke:#1B1B1A;stroke-width:1.0416666666666667;" width="235.4167" x="216.1458" y="187.1745"/><rect codeLine="17" fill="none" height="83.3781" id="EnumConverter" rx="8.3333" ry="8.3333" style="stroke:#5E5E5E;stroke-width:1.0416666666666667;" width="235.4167" x="216.1458" y="164.1195"/><ellipse cx="267.1875" cy="179.8136" fill="#0066CF" rx="10.4167" ry="10.4167" style="stroke:#0086EF;stroke-width:1.0416666666666667;"/><path d="M269.0979,184.2387 Q268.6707,184.4584 268.2007,184.5683 Q267.7307,184.6781 267.2119,184.6781 Q265.3687,184.6781 264.3982,183.4635 Q263.4277,182.2489 263.4277,179.954 Q263.4277,177.653 264.3982,176.4384 Q265.3687,175.2238 267.2119,175.2238 Q267.7307,175.2238 268.2068,175.3337 Q268.6829,175.4435 269.0979,175.6632 L269.0979,177.6652 Q268.634,177.238 268.1976,177.0396 Q267.7612,176.8412 267.2974,176.8412 Q266.3086,176.8412 265.8051,177.6255 Q265.3015,178.4098 265.3015,179.954 Q265.3015,181.4921 265.8051,182.2764 Q266.3086,183.0607 267.2974,183.0607 Q267.7612,183.0607 268.1976,182.8623 Q268.634,182.664 269.0979,182.2367 Z " fill="#000000"/><text fill="#D8BC00" font-family="Open Sans,Avenir,Nunito,Arial,Helvetica,SansSerif" font-size="12.5" font-weight="bold" lengthAdjust="spacing" textLength="100" x="290.1042" y="184.5378">EnumConverter</text><rect fill="#333333" height="23.055" style="stroke:#A0A0A0;stroke-width:1.0416666666666667;stroke-dasharray:2.0,2.0;" width="16.6667" x="438.0208" y="160.9945"/><text fill="#A0A0A0" font-family="Open Sans,Avenir,Nunito,Arial,Helvetica,SansSerif" font-size="12.5" font-weight="bold" lengthAdjust="spacing" textLength="8.3333" x="442.1875" y="177.2461">T</text><line style="stroke:#5E5E5E;stroke-width:1.5625;" x1="217.1875" x2="450.5208" y1="195.5078" y2="195.5078"/><ellipse cx="227.6042" cy="230.8777" fill="#84BE84" rx="3.125" ry="3.125" style="stroke:#038048;stroke-width:1.0416666666666667;"/><text fill="#D8BC00" font-family="Open Sans,Avenir,Nunito,Arial,Helvetica,SansSerif" font-size="11.4583" lengthAdjust="spacing" textLength="203.125" x="239.0625" y="237.7889">EnumConverter(Listener, Class&lt;T&gt;)</text><line style="stroke:#5E5E5E;stroke-width:1.0416666666666667;" x1="217.1875" x2="290.1042" y1="213.7136" y2="213.7136"/><text fill="#D8BC00" font-family="Open Sans,Avenir,Nunito,Arial,Helvetica,SansSerif" font-size="11.4583" lengthAdjust="spacing" textLength="81.25" x="293.2292" y="217.5232">(constructors)</text><line style="stroke:#5E5E5E;stroke-width:1.0416666666666667;" x1="377.6042" x2="450.5208" y1="213.7136" y2="213.7136"/><!--MD5=[296183bf564117040e602f1ff504a1ee]
class IdentityConverter--><rect codeLine="24" fill="#282828" height="83.3781" id="IdentityConverter" rx="8.3333" ry="8.3333" style="stroke:#5E5E5E;stroke-width:1.0416666666666667;" width="183.3333" x="488.0208" y="164.1195"/><rect fill="#1B1B1A" height="31.3883" rx="8.3333" ry="8.3333" style="stroke:#1B1B1A;stroke-width:1.0416666666666667;" width="183.3333" x="488.0208" y="164.1195"/><rect fill="#1B1B1A" height="8.3333" style="stroke:#1B1B1A;stroke-width:1.0416666666666667;" width="183.3333" x="488.0208" y="187.1745"/><rect codeLine="24" fill="none" height="83.3781" id="IdentityConverter" rx="8.3333" ry="8.3333" style="stroke:#5E5E5E;stroke-width:1.0416666666666667;" width="183.3333" x="488.0208" y="164.1195"/><ellipse cx="517.1354" cy="179.8136" fill="#0066CF" rx="10.4167" ry="10.4167" style="stroke:#0086EF;stroke-width:1.0416666666666667;"/><path d="M519.0458,184.2387 Q518.6186,184.4584 518.1486,184.5683 Q517.6786,184.6781 517.1598,184.6781 Q515.3166,184.6781 514.3461,183.4635 Q513.3757,182.2489 513.3757,179.954 Q513.3757,177.653 514.3461,176.4384 Q515.3166,175.2238 517.1598,175.2238 Q517.6786,175.2238 518.1547,175.3337 Q518.6308,175.4435 519.0458,175.6632 L519.0458,177.6652 Q518.5819,177.238 518.1455,177.0396 Q517.7091,176.8412 517.2453,176.8412 Q516.2565,176.8412 515.753,177.6255 Q515.2494,178.4098 515.2494,179.954 Q515.2494,181.4921 515.753,182.2764 Q516.2565,183.0607 517.2453,183.0607 Q517.7091,183.0607 518.1455,182.8623 Q518.5819,182.664 519.0458,182.2367 Z " fill="#000000"/><text fill="#D8BC00" font-family="Open Sans,Avenir,Nunito,Arial,Helvetica,SansSerif" font-size="12.5" font-weight="bold" lengthAdjust="spacing" textLength="113.5417" x="537.0313" y="184.5378">IdentityConverter</text><line style="stroke:#5E5E5E;stroke-width:1.5625;" x1="489.0625" x2="670.3125" y1="195.5078" y2="195.5078"/><ellipse cx="499.4792" cy="230.8777" fill="#84BE84" rx="3.125" ry="3.125" style="stroke:#038048;stroke-width:1.0416666666666667;"/><text fill="#D8BC00" font-family="Open Sans,Avenir,Nunito,Arial,Helvetica,SansSerif" font-size="11.4583" lengthAdjust="spacing" textLength="151.0417" x="510.9375" y="237.7889">IdentityConverter(Listener)</text><line style="stroke:#5E5E5E;stroke-width:1.0416666666666667;" x1="489.0625" x2="535.9375" y1="213.7136" y2="213.7136"/><text fill="#D8BC00" font-family="Open Sans,Avenir,Nunito,Arial,Helvetica,SansSerif" font-size="11.4583" lengthAdjust="spacing" textLength="81.25" x="539.0625" y="217.5232">(constructors)</text><line style="stroke:#5E5E5E;stroke-width:1.0416666666666667;" x1="623.4375" x2="670.3125" y1="213.7136" y2="213.7136"/><!--MD5=[ef8d7fd7acd71a87cec32c3460bfd5ff]
class PatternConverter--><rect codeLine="31" fill="#282828" height="83.3781" id="PatternConverter" rx="8.3333" ry="8.3333" style="stroke:#5E5E5E;stroke-width:1.0416666666666667;" width="181.25" x="707.8125" y="164.1195"/><rect fill="#1B1B1A" height="31.3883" rx="8.3333" ry="8.3333" style="stroke:#1B1B1A;stroke-width:1.0416666666666667;" width="181.25" x="707.8125" y="164.1195"/><rect fill="#1B1B1A" height="8.3333" style="stroke:#1B1B1A;stroke-width:1.0416666666666667;" width="181.25" x="707.8125" y="187.1745"/><rect codeLine="31" fill="none" height="83.3781" id="PatternConverter" rx="8.3333" ry="8.3333" style="stroke:#5E5E5E;stroke-width:1.0416666666666667;" width="181.25" x="707.8125" y="164.1195"/><ellipse cx="737.8646" cy="179.8136" fill="#0066CF" rx="10.4167" ry="10.4167" style="stroke:#0086EF;stroke-width:1.0416666666666667;"/><path d="M739.775,184.2387 Q739.3477,184.4584 738.8778,184.5683 Q738.4078,184.6781 737.889,184.6781 Q736.0457,184.6781 735.0753,183.4635 Q734.1048,182.2489 734.1048,179.954 Q734.1048,177.653 735.0753,176.4384 Q736.0457,175.2238 737.889,175.2238 Q738.4078,175.2238 738.8839,175.3337 Q739.3599,175.4435 739.775,175.6632 L739.775,177.6652 Q739.3111,177.238 738.8747,177.0396 Q738.4383,176.8412 737.9744,176.8412 Q736.9857,176.8412 736.4821,177.6255 Q735.9786,178.4098 735.9786,179.954 Q735.9786,181.4921 736.4821,182.2764 Q736.9857,183.0607 737.9744,183.0607 Q738.4383,183.0607 738.8747,182.8623 Q739.3111,182.664 739.775,182.2367 Z " fill="#000000"/><text fill="#D8BC00" font-family="Open Sans,Avenir,Nunito,Arial,Helvetica,SansSerif" font-size="12.5" font-weight="bold" lengthAdjust="spacing" textLength="109.375" x="757.9688" y="184.5378">PatternConverter</text><line style="stroke:#5E5E5E;stroke-width:1.5625;" x1="708.8542" x2="888.0208" y1="195.5078" y2="195.5078"/><ellipse cx="719.2708" cy="230.8777" fill="#84BE84" rx="3.125" ry="3.125" style="stroke:#038048;stroke-width:1.0416666666666667;"/><text fill="#D8BC00" font-family="Open Sans,Avenir,Nunito,Arial,Helvetica,SansSerif" font-size="11.4583" lengthAdjust="spacing" textLength="148.9583" x="730.7292" y="237.7889">PatternConverter(Listener)</text><line style="stroke:#5E5E5E;stroke-width:1.0416666666666667;" x1="708.8542" x2="754.6875" y1="213.7136" y2="213.7136"/><text fill="#D8BC00" font-family="Open Sans,Avenir,Nunito,Arial,Helvetica,SansSerif" font-size="11.4583" lengthAdjust="spacing" textLength="81.25" x="757.8125" y="217.5232">(constructors)</text><line style="stroke:#5E5E5E;stroke-width:1.0416666666666667;" x1="842.1875" x2="888.0208" y1="213.7136" y2="213.7136"/><!--MD5=[e2881226ff220f9d614b1ead2332a8f6]
class ThrowableConverter--><rect codeLine="38" fill="#282828" height="83.3781" id="ThrowableConverter" rx="8.3333" ry="8.3333" style="stroke:#5E5E5E;stroke-width:1.0416666666666667;" width="200" x="925.5208" y="164.1195"/><rect fill="#1B1B1A" height="31.3883" rx="8.3333" ry="8.3333" style="stroke:#1B1B1A;stroke-width:1.0416666666666667;" width="200" x="925.5208" y="164.1195"/><rect fill="#1B1B1A" height="8.3333" style="stroke:#1B1B1A;stroke-width:1.0416666666666667;" width="200" x="925.5208" y="187.1745"/><rect codeLine="38" fill="none" height="83.3781" id="ThrowableConverter" rx="8.3333" ry="8.3333" style="stroke:#5E5E5E;stroke-width:1.0416666666666667;" width="200" x="925.5208" y="164.1195"/><ellipse cx="954.1667" cy="179.8136" fill="#0066CF" rx="10.4167" ry="10.4167" style="stroke:#0086EF;stroke-width:1.0416666666666667;"/><path d="M956.0771,184.2387 Q955.6498,184.4584 955.1799,184.5683 Q954.7099,184.6781 954.1911,184.6781 Q952.3478,184.6781 951.3774,183.4635 Q950.4069,182.2489 950.4069,179.954 Q950.4069,177.653 951.3774,176.4384 Q952.3478,175.2238 954.1911,175.2238 Q954.7099,175.2238 955.186,175.3337 Q955.662,175.4435 956.0771,175.6632 L956.0771,177.6652 Q955.6132,177.238 955.1768,177.0396 Q954.7404,176.8412 954.2765,176.8412 Q953.2878,176.8412 952.7842,177.6255 Q952.2807,178.4098 952.2807,179.954 Q952.2807,181.4921 952.7842,182.2764 Q953.2878,183.0607 954.2765,183.0607 Q954.7404,183.0607 955.1768,182.8623 Q955.6132,182.664 956.0771,182.2367 Z " fill="#000000"/><text fill="#D8BC00" font-family="Open Sans,Avenir,Nunito,Arial,Helvetica,SansSerif" font-size="12.5" font-weight="bold" lengthAdjust="spacing" textLength="131.25" x="973.9583" y="184.5378">ThrowableConverter</text><line style="stroke:#5E5E5E;stroke-width:1.5625;" x1="926.5625" x2="1124.4792" y1="195.5078" y2="195.5078"/><ellipse cx="936.9792" cy="230.8777" fill="#84BE84" rx="3.125" ry="3.125" style="stroke:#038048;stroke-width:1.0416666666666667;"/><text fill="#D8BC00" font-family="Open Sans,Avenir,Nunito,Arial,Helvetica,SansSerif" font-size="11.4583" lengthAdjust="spacing" textLength="167.7083" x="948.4375" y="237.7889">ThrowableConverter(Listener)</text><line style="stroke:#5E5E5E;stroke-width:1.0416666666666667;" x1="926.5625" x2="981.7708" y1="213.7136" y2="213.7136"/><text fill="#D8BC00" font-family="Open Sans,Avenir,Nunito,Arial,Helvetica,SansSerif" font-size="11.4583" lengthAdjust="spacing" textLength="81.25" x="984.8958" y="217.5232">(constructors)</text><line style="stroke:#5E5E5E;stroke-width:1.0416666666666667;" x1="1069.2708" x2="1124.4792" y1="213.7136" y2="213.7136"/><!--MD5=[816c11de1b003c2ad0207c99c5d2dd63]
reverse link BaseStringConverter to ClassConverter--><path codeLine="9" d="M473.9479,97.8382 C396.5729,112.9215 289.4583,136.057 197.3958,164.1195 C191.4583,165.932 185.375,167.9215 179.2708,170.0257 " fill="none" id="BaseStringConverter-backto-ClassConverter" style="stroke:#545454;stroke-width:1.5625;"/><polygon fill="none" points="472.6146,90.6715,494.4479,93.8903,475.375,104.984,472.6146,90.6715" style="stroke:#545454;stroke-width:1.5625;"/><!--MD5=[fbb2d560b05cda92e64fbea940e98d85]
reverse link BaseStringConverter to EnumConverter--><path codeLine="16" d="M516.2917,111.2028 C484.8438,127.3278 446.5417,146.9736 413.1667,164.0778 " fill="none" id="BaseStringConverter-backto-EnumConverter" style="stroke:#545454;stroke-width:1.5625;"/><polygon fill="none" points="513.0208,104.6924,534.8854,101.6715,519.6667,117.6715,513.0208,104.6924" style="stroke:#545454;stroke-width:1.5625;"/><!--MD5=[e268e363c9066d4fe1b956a3cfd396cb]
reverse link BaseStringConverter to IdentityConverter--><path codeLine="23" d="M579.6875,122.682 C579.6875,136.0778 579.6875,150.7445 579.6875,163.9215 " fill="none" id="BaseStringConverter-backto-IdentityConverter" style="stroke:#545454;stroke-width:1.5625;"/><polygon fill="none" points="572.3958,122.6507,579.6875,101.8174,586.9792,122.6507,572.3958,122.6507" style="stroke:#545454;stroke-width:1.5625;"/><!--MD5=[2dc26a307c6895afaa04136ba1717daa]
reverse link BaseStringConverter to PatternConverter--><path codeLine="30" d="M637.875,112.2236 C665.4271,128.109 698.5833,147.2028 727.5833,163.9215 " fill="none" id="BaseStringConverter-backto-PatternConverter" style="stroke:#545454;stroke-width:1.5625;"/><polygon fill="none" points="634.2188,118.5361,619.8125,101.8174,641.5,105.9007,634.2188,118.5361" style="stroke:#545454;stroke-width:1.5625;"/><!--MD5=[e8da969d0f9afc35944240f69b1a30ca]
reverse link BaseStringConverter to ThrowableConverter--><path codeLine="37" d="M685.0938,103.932 C749.7188,119.9424 833.9583,141.7965 907.8125,164.1195 C913.6042,165.8695 919.5417,167.7236 925.5208,169.6403 " fill="none" id="BaseStringConverter-backto-ThrowableConverter" style="stroke:#545454;stroke-width:1.5625;"/><polygon fill="none" points="683.3229,111.0049,664.8333,98.9424,686.8021,96.8382,683.3229,111.0049" style="stroke:#545454;stroke-width:1.5625;"/><!--MD5=[c294d49aa8665342732ee1798fe0a600]
@startuml

    !include lexakai.theme
    
    title "com.telenav.kivakit.conversion.core.language"
    
    abstract BaseStringConverter
    
    BaseStringConverter <|- - ClassConverter
    class ClassConverter
    {
        - -(constructors)- -
        +ClassConverter(Listener)
    }
    
    BaseStringConverter <|- - EnumConverter
    class EnumConverter<T>
    {
        - -(constructors)- -
        +EnumConverter(Listener, Class<T>)
    }
    
    BaseStringConverter <|- - IdentityConverter
    class IdentityConverter
    {
        - -(constructors)- -
        +IdentityConverter(Listener)
    }
    
    BaseStringConverter <|- - PatternConverter
    class PatternConverter
    {
        - -(constructors)- -
        +PatternConverter(Listener)
    }
    
    BaseStringConverter <|- - ThrowableConverter
    class ThrowableConverter
    {
        - -(constructors)- -
        +ThrowableConverter(Listener)
    }
    
@enduml

@startuml









skinparam backgroundColor #333333






skinparam  {
    defaultFontName   "Open Sans,Avenir,Nunito,Arial,Helvetica,SansSerif"
    defaultFontSize   12
    defaultTextAlignment left
    shadowing false
    RoundCorner 10
    TitleFontSize 18
}

skinparam defaultFontName       "Open Sans,Avenir,Nunito,Arial,Helvetica,SansSerif"
skinparam defaultFontSize       12
skinparam dpi                   100
skinparam shadowing             false
skinparam roundcorner           16
skinparam ParticipantPadding    40
skinparam BoxPadding            40
skinparam Padding               3
skinparam ArrowColor            #545454
skinparam stereotype {
    CBackgroundColor #0066cf
    CBorderColor #0086ef
    ABackgroundColor #C8Ac00
    ABorderColor #D8Bc00
    IBackgroundColor #008400
    IBorderColor #239c23
    EBackgroundColor #cf6300
    EBorderColor #ef8300
    NBackgroundColor #3380b9
    NBorderColor #004d86
}
skinparam title {
	FontColor	                 #c0c0c0
 	BorderColor                  #545454
	FontSize	    	         20
	BorderRoundCorner            16
	BorderThickness 	         1
	BackgroundColor              #48494b
}


skinparam legend {
	BackgroundColor #303030
	BorderColor #404040
	FontColor #a0a0a0
}

	skinparam swimlane {
	BorderColor #5e5e5e
	BorderThickness 2
	TitleBackgroundColor  #6d6d6d-#484848
	TitleFontColor #303030
}

skinparam activity {
		FontColor #C8Ac00
	BorderColor #333333
	BackgroundColor #333333-#333333
	BarColor #00FF00
	StartColor #0060a8
	EndColor #0060a8
	DiamondBackgroundColor #6d6d6d-#3a3a3a
  	DiamondBorderColor #3a3a3a
  	DiamondFontColor #fefefe
}


skinparam participant {
		FontColor #C8Ac00
	BorderColor #333333
	BackgroundColor #333333-#333333
	ParticipantBorderThickness 2
}


skinparam actor {
		FontColor #C8Ac00
	BorderColor #333333
	BackgroundColor #333333-#333333
}


skinparam arrow {
	Thickness 1.5
	Color #545454
	FontColor #a0a0a0
    FontStyle bold
    MessageAlignment center
}



skinparam sequence {
	BorderColor #303030
	TitleFontColor #303030
	BackgroundColor #333333
	StartColor #303030
	EndColor #303030
	BoxBackgroundColor #333333
	BoxBorderColor #484848
	BoxFontColor #484848
	LifeLineBorderColor #484848
	LifeLineBorderThickness 2
	LifeLineBackgroundColor #3a3a3a
	GroupBorderColor #484848
	GroupFontColor #484848
	GroupHeaderFontColor #0060a8
	GroupBackgroundColor #484848
	GroupHeaderBackgroundColor #333333
	DividerBackgroundColor #484848
    DividerBorderColor #484848
    DividerBorderThickness 2
    DividerFontColor #D8Bc00
	ReferenceBackgroundColor #333333
	ReferenceBorderColor #484848
	ReferenceFontColor #fefefe
	ReferenceHeaderBackgroundColor #484848
}


skinparam partition {
	BorderColor #303030
	FontColor #333333
	BackgroundColor #333333
}


skinparam collections {
		FontColor #C8Ac00
	BorderColor #333333
	BackgroundColor #333333-#333333
}


skinparam control {
		FontColor #C8Ac00
	BorderColor #333333
	BackgroundColor #333333-#333333
}


skinparam entity {
		FontColor #C8Ac00
	BorderColor #333333
	BackgroundColor #333333-#333333
}


skinparam boundary {
		FontColor #C8Ac00
	BorderColor #333333
	BackgroundColor #333333-#333333
}


skinparam agent {
	BackgroundColor #ff8000
	BorderColor #ff9933
	FontColor #484848
}


skinparam note {
	BorderThickness 1
	BackgroundColor #1b1b1a
	BorderColor #5e5e5e
	FontSize 11
	FontColor #a0a0a0
}


skinparam artifact {
	BorderThickness 10
	BorderColor #5e5e5e
	BackgroundColor #1b1b1a
	FontColor #D8Bc00
}


skinparam component {
		FontColor #C8Ac00
	BorderColor #333333
	BackgroundColor #333333-#333333
}


skinparam interface {
	BackgroundColor  #008400
	BorderColor  #007F00
	FontColor #484848
}


skinparam storage {
	BackgroundColor #ff8000
  	BorderColor #cc6600
	FontColor #222222
}


skinparam node {
	BackgroundColor #333333
	BorderColor #333333
	FontColor #C8Ac00
}


skinparam cloud {
	BackgroundColor #484848-black
	BorderColor #484848
	FontColor #D8Bc00
}


skinparam database {
		FontColor #C8Ac00
	BorderColor #333333
	BackgroundColor #333333-#333333
	BackgroundColor  #333333
}


skinparam class {
		FontColor #C8Ac00
	BorderColor #333333
	BackgroundColor #333333-#333333
	HeaderBackgroundColor #1b1b1a
    BackgroundColor #282828
    BorderColor #5e5e5e
 	StereotypeFontColor #a0a0a0
    StereotypeFontStyle bold
	BorderThickness 1
	AttributeFontColor #D8Bc00
	AttributeFontSize 11
    FontColor #D8Bc00
    FontStyle bold
}


skinparam object {
		FontColor #C8Ac00
	BorderColor #333333
	BackgroundColor #333333-#333333
	StereotypeFontColor #484848
	BorderThickness 1
	AttributeFontColor #fefefe
	AttributeFontSize 11
}


skinparam usecase {
		FontColor #C8Ac00
	BorderColor #333333
	BackgroundColor #333333-#333333
	BorderThickness 2
	StereotypeFontColor #303030
}


skinparam rectangle {
		FontColor #C8Ac00
	BorderColor #333333
	BackgroundColor #333333-#333333
	BackgroundColor #333333
	BorderThickness 2
	StereotypeFontColor #303030
}


skinparam package {
		FontColor #C8Ac00
	BorderColor #333333
	BackgroundColor #333333-#333333
	BackgroundColor #333333
	BorderThickness 2
}


skinparam folder {
	BackgroundColor #6d6d6d
  	BorderColor #ff8000
	FontColor #ff8000
	BorderThickness 2
}


skinparam frame {
	BackgroundColor #6d6d6d
  	BorderColor #0060a8
	FontColor #0060a8
	BorderThickness 2
}


skinparam state {
		FontColor #C8Ac00
	BorderColor #333333
	BackgroundColor #333333-#333333
	StartColor #0060a8
	EndColor #0060a8
	AttributeFontColor #fefefe
	AttributeFontSize 11
}


skinparam queue {
		FontColor #C8Ac00
	BorderColor #333333
	BackgroundColor #333333-#333333
}


skinparam card {
	BackgroundColor #0060a8
	BorderColor #004d86
	FontColor $INFO_TEXT
}


skinparam file {
	BackgroundColor #6d6d6d-#484848
	BorderColor #0060a8
	FontColor #fefefe
}


skinparam stack {
		FontColor #C8Ac00
	BorderColor #333333
	BackgroundColor #333333-#333333
}

    
    title "com.telenav.kivakit.conversion.core.language"
    
    abstract BaseStringConverter
    
    BaseStringConverter <|- - ClassConverter
    class ClassConverter
    {
        - -(constructors)- -
        +ClassConverter(Listener)
    }
    
    BaseStringConverter <|- - EnumConverter
    class EnumConverter<T>
    {
        - -(constructors)- -
        +EnumConverter(Listener, Class<T>)
    }
    
    BaseStringConverter <|- - IdentityConverter
    class IdentityConverter
    {
        - -(constructors)- -
        +IdentityConverter(Listener)
    }
    
    BaseStringConverter <|- - PatternConverter
    class PatternConverter
    {
        - -(constructors)- -
        +PatternConverter(Listener)
    }
    
    BaseStringConverter <|- - ThrowableConverter
    class ThrowableConverter
    {
        - -(constructors)- -
        +ThrowableConverter(Listener)
    }
    
@enduml

PlantUML version 1.2021.01(Tue Feb 02 00:55:08 MST 2021)
(GPL source distribution)
Java Runtime: OpenJDK Runtime Environment
JVM: OpenJDK 64-Bit Server VM
Default Encoding: UTF-8
Language: en
Country: US
--></g></svg>