<?xml version="1.0" encoding="UTF-8" standalone="no"?><svg xmlns="http://www.w3.org/2000/svg" xmlns:xlink="http://www.w3.org/1999/xlink" contentScriptType="application/ecmascript" contentStyleType="text/css" height="254.1667px" preserveAspectRatio="none" style="width:741px;height:254px;background:#333333;" version="1.1" viewBox="0 0 741 254" width="741.6667px" zoomAndPan="magnify"><defs/><g><rect fill="#48494B" height="41.2028" rx="8.3333" ry="8.3333" style="stroke:#545454;stroke-width:1.0416666666666667;" width="211.4583" x="257.8125" y="2.0833"/><text fill="#C0C0C0" font-family="Open Sans,Avenir,Nunito,Arial,Helvetica,SansSerif" font-size="20.8333" lengthAdjust="spacing" textLength="188.5417" x="269.2708" y="30.5583">Converters - Other</text><!--MD5=[9aa687ed59f428548907e723dba1087a]
class BaseStringConverter--><rect codeLine="7" fill="#282828" height="48.055" id="BaseStringConverter" rx="8.3333" ry="8.3333" style="stroke:#5E5E5E;stroke-width:1.0416666666666667;" width="169.7917" x="38.0208" y="53.7028"/><rect fill="#1B1B1A" height="31.3883" rx="8.3333" ry="8.3333" style="stroke:#1B1B1A;stroke-width:1.0416666666666667;" width="169.7917" x="38.0208" y="53.7028"/><rect fill="#1B1B1A" height="8.3333" style="stroke:#1B1B1A;stroke-width:1.0416666666666667;" width="169.7917" x="38.0208" y="76.7578"/><rect codeLine="7" fill="none" height="48.055" id="BaseStringConverter" rx="8.3333" ry="8.3333" style="stroke:#5E5E5E;stroke-width:1.0416666666666667;" width="169.7917" x="38.0208" y="53.7028"/><ellipse cx="52.6042" cy="69.397" fill="#C8AC00" rx="10.4167" ry="10.4167" style="stroke:#D8BC00;stroke-width:1.0416666666666667;"/><path d="M52.1973,66.099 L51.3489,69.8283 L53.0518,69.8283 Z M51.0986,64.4511 L53.302,64.4511 L55.7617,73.5636 L53.9612,73.5636 L53.3997,71.3114 L50.9888,71.3114 L50.4395,73.5636 L48.6389,73.5636 Z " fill="#000000"/><text fill="#D8BC00" font-family="Open Sans,Avenir,Nunito,Arial,Helvetica,SansSerif" font-size="12.5" font-style="italic" font-weight="bold" lengthAdjust="spacing" textLength="132.2917" x="69.2708" y="74.1211">BaseStringConverter</text><line style="stroke:#5E5E5E;stroke-width:1.0416666666666667;" x1="39.0625" x2="206.7708" y1="85.0911" y2="85.0911"/><line style="stroke:#5E5E5E;stroke-width:1.0416666666666667;" x1="39.0625" x2="206.7708" y1="93.4245" y2="93.4245"/><!--MD5=[1a11048a9ced413a95805b99e567d845]
class LongValuedConverter--><rect fill="#282828" height="48.055" id="LongValuedConverter" rx="8.3333" ry="8.3333" style="stroke:#5E5E5E;stroke-width:1.0416666666666667;" width="177.0833" x="406.25" y="53.7028"/><rect fill="#1B1B1A" height="31.3883" rx="8.3333" ry="8.3333" style="stroke:#1B1B1A;stroke-width:1.0416666666666667;" width="177.0833" x="406.25" y="53.7028"/><rect fill="#1B1B1A" height="8.3333" style="stroke:#1B1B1A;stroke-width:1.0416666666666667;" width="177.0833" x="406.25" y="76.7578"/><rect fill="none" height="48.055" id="LongValuedConverter" rx="8.3333" ry="8.3333" style="stroke:#5E5E5E;stroke-width:1.0416666666666667;" width="177.0833" x="406.25" y="53.7028"/><ellipse cx="420.8333" cy="69.397" fill="#0066CF" rx="10.4167" ry="10.4167" style="stroke:#0086EF;stroke-width:1.0416666666666667;"/><path d="M422.7437,73.822 Q422.3165,74.0417 421.8465,74.1516 Q421.3765,74.2615 420.8577,74.2615 Q419.0145,74.2615 418.044,73.0469 Q417.0736,71.8323 417.0736,69.5374 Q417.0736,67.2363 418.044,66.0217 Q419.0145,64.8071 420.8577,64.8071 Q421.3765,64.8071 421.8526,64.917 Q422.3287,65.0269 422.7437,65.2466 L422.7437,67.2485 Q422.2799,66.8213 421.8435,66.6229 Q421.4071,66.4246 420.9432,66.4246 Q419.9544,66.4246 419.4509,67.2089 Q418.9473,67.9932 418.9473,69.5374 Q418.9473,71.0754 419.4509,71.8597 Q419.9544,72.644 420.9432,72.644 Q421.4071,72.644 421.8435,72.4457 Q422.2799,72.2473 422.7437,71.8201 Z " fill="#000000"/><text fill="#D8BC00" font-family="Open Sans,Avenir,Nunito,Arial,Helvetica,SansSerif" font-size="12.5" font-weight="bold" lengthAdjust="spacing" textLength="139.5833" x="437.5" y="74.1211">LongValuedConverter</text><line style="stroke:#5E5E5E;stroke-width:1.0416666666666667;" x1="407.2917" x2="582.2917" y1="85.0911" y2="85.0911"/><line style="stroke:#5E5E5E;stroke-width:1.0416666666666667;" x1="407.2917" x2="582.2917" y1="93.4245" y2="93.4245"/><!--MD5=[4c95cc289e8dd042c6cfaf14211c504d]
class IdentifierConverter--><rect codeLine="10" fill="#282828" height="83.3781" id="IdentifierConverter" rx="8.3333" ry="8.3333" style="stroke:#5E5E5E;stroke-width:1.0416666666666667;" width="191.6667" x="275" y="164.1195"/><rect fill="#1B1B1A" height="31.3883" rx="8.3333" ry="8.3333" style="stroke:#1B1B1A;stroke-width:1.0416666666666667;" width="191.6667" x="275" y="164.1195"/><rect fill="#1B1B1A" height="8.3333" style="stroke:#1B1B1A;stroke-width:1.0416666666666667;" width="191.6667" x="275" y="187.1745"/><rect codeLine="10" fill="none" height="83.3781" id="IdentifierConverter" rx="8.3333" ry="8.3333" style="stroke:#5E5E5E;stroke-width:1.0416666666666667;" width="191.6667" x="275" y="164.1195"/><ellipse cx="303.6458" cy="179.8136" fill="#0066CF" rx="10.4167" ry="10.4167" style="stroke:#0086EF;stroke-width:1.0416666666666667;"/><path d="M305.5562,184.2387 Q305.129,184.4584 304.659,184.5683 Q304.189,184.6781 303.6702,184.6781 Q301.827,184.6781 300.8565,183.4635 Q299.8861,182.2489 299.8861,179.954 Q299.8861,177.653 300.8565,176.4384 Q301.827,175.2238 303.6702,175.2238 Q304.189,175.2238 304.6651,175.3337 Q305.1412,175.4435 305.5562,175.6632 L305.5562,177.6652 Q305.0924,177.238 304.656,177.0396 Q304.2196,176.8412 303.7557,176.8412 Q302.7669,176.8412 302.2634,177.6255 Q301.7598,178.4098 301.7598,179.954 Q301.7598,181.4921 302.2634,182.2764 Q302.7669,183.0607 303.7557,183.0607 Q304.2196,183.0607 304.656,182.8623 Q305.0924,182.664 305.5562,182.2367 Z " fill="#000000"/><text fill="#D8BC00" font-family="Open Sans,Avenir,Nunito,Arial,Helvetica,SansSerif" font-size="12.5" font-weight="bold" lengthAdjust="spacing" textLength="122.9167" x="323.4375" y="184.5378">IdentifierConverter</text><line style="stroke:#5E5E5E;stroke-width:1.5625;" x1="276.0417" x2="465.625" y1="195.5078" y2="195.5078"/><ellipse cx="286.4583" cy="230.8777" fill="#84BE84" rx="3.125" ry="3.125" style="stroke:#038048;stroke-width:1.0416666666666667;"/><text fill="#D8BC00" font-family="Open Sans,Avenir,Nunito,Arial,Helvetica,SansSerif" font-size="11.4583" lengthAdjust="spacing" textLength="159.375" x="297.9167" y="237.7889">IdentifierConverter(Listener)</text><line style="stroke:#5E5E5E;stroke-width:1.0416666666666667;" x1="276.0417" x2="327.0833" y1="213.7136" y2="213.7136"/><text fill="#D8BC00" font-family="Open Sans,Avenir,Nunito,Arial,Helvetica,SansSerif" font-size="11.4583" lengthAdjust="spacing" textLength="81.25" x="330.2083" y="217.5232">(constructors)</text><line style="stroke:#5E5E5E;stroke-width:1.0416666666666667;" x1="414.5833" x2="465.625" y1="213.7136" y2="213.7136"/><!--MD5=[7fd0b31673b3250105811df49a54a793]
class IntegerIdentifierConverter--><rect codeLine="17" fill="#282828" height="83.3781" id="IntegerIdentifierConverter" rx="8.3333" ry="8.3333" style="stroke:#5E5E5E;stroke-width:1.0416666666666667;" width="231.25" x="503.125" y="164.1195"/><rect fill="#1B1B1A" height="31.3883" rx="8.3333" ry="8.3333" style="stroke:#1B1B1A;stroke-width:1.0416666666666667;" width="231.25" x="503.125" y="164.1195"/><rect fill="#1B1B1A" height="8.3333" style="stroke:#1B1B1A;stroke-width:1.0416666666666667;" width="231.25" x="503.125" y="187.1745"/><rect codeLine="17" fill="none" height="83.3781" id="IntegerIdentifierConverter" rx="8.3333" ry="8.3333" style="stroke:#5E5E5E;stroke-width:1.0416666666666667;" width="231.25" x="503.125" y="164.1195"/><ellipse cx="528.9583" cy="179.8136" fill="#0066CF" rx="10.4167" ry="10.4167" style="stroke:#0086EF;stroke-width:1.0416666666666667;"/><path d="M530.8687,184.2387 Q530.4415,184.4584 529.9715,184.5683 Q529.5015,184.6781 528.9827,184.6781 Q527.1395,184.6781 526.169,183.4635 Q525.1986,182.2489 525.1986,179.954 Q525.1986,177.653 526.169,176.4384 Q527.1395,175.2238 528.9827,175.2238 Q529.5015,175.2238 529.9776,175.3337 Q530.4537,175.4435 530.8687,175.6632 L530.8687,177.6652 Q530.4049,177.238 529.9685,177.0396 Q529.5321,176.8412 529.0682,176.8412 Q528.0794,176.8412 527.5759,177.6255 Q527.0723,178.4098 527.0723,179.954 Q527.0723,181.4921 527.5759,182.2764 Q528.0794,183.0607 529.0682,183.0607 Q529.5321,183.0607 529.9685,182.8623 Q530.4049,182.664 530.8687,182.2367 Z " fill="#000000"/><text fill="#D8BC00" font-family="Open Sans,Avenir,Nunito,Arial,Helvetica,SansSerif" font-size="12.5" font-weight="bold" lengthAdjust="spacing" textLength="168.75" x="548.125" y="184.5378">IntegerIdentifierConverter</text><line style="stroke:#5E5E5E;stroke-width:1.5625;" x1="504.1667" x2="733.3333" y1="195.5078" y2="195.5078"/><ellipse cx="514.5833" cy="230.8777" fill="#84BE84" rx="3.125" ry="3.125" style="stroke:#038048;stroke-width:1.0416666666666667;"/><text fill="#D8BC00" font-family="Open Sans,Avenir,Nunito,Arial,Helvetica,SansSerif" font-size="11.4583" lengthAdjust="spacing" textLength="198.9583" x="526.0417" y="237.7889">IntegerIdentifierConverter(Listener)</text><line style="stroke:#5E5E5E;stroke-width:1.0416666666666667;" x1="504.1667" x2="575" y1="213.7136" y2="213.7136"/><text fill="#D8BC00" font-family="Open Sans,Avenir,Nunito,Arial,Helvetica,SansSerif" font-size="11.4583" lengthAdjust="spacing" textLength="81.25" x="578.125" y="217.5232">(constructors)</text><line style="stroke:#5E5E5E;stroke-width:1.0416666666666667;" x1="662.5" x2="733.3333" y1="213.7136" y2="213.7136"/><!--MD5=[4ccff52124138c42191dd0a8f0d8f250]
class LocaleLanguageConverter--><rect codeLine="24" fill="#282828" height="83.3781" id="LocaleLanguageConverter" rx="8.3333" ry="8.3333" style="stroke:#5E5E5E;stroke-width:1.0416666666666667;" width="231.25" x="7.2917" y="164.1195"/><rect fill="#1B1B1A" height="31.3883" rx="8.3333" ry="8.3333" style="stroke:#1B1B1A;stroke-width:1.0416666666666667;" width="231.25" x="7.2917" y="164.1195"/><rect fill="#1B1B1A" height="8.3333" style="stroke:#1B1B1A;stroke-width:1.0416666666666667;" width="231.25" x="7.2917" y="187.1745"/><rect codeLine="24" fill="none" height="83.3781" id="LocaleLanguageConverter" rx="8.3333" ry="8.3333" style="stroke:#5E5E5E;stroke-width:1.0416666666666667;" width="231.25" x="7.2917" y="164.1195"/><ellipse cx="34.0625" cy="179.8136" fill="#0066CF" rx="10.4167" ry="10.4167" style="stroke:#0086EF;stroke-width:1.0416666666666667;"/><path d="M35.9729,184.2387 Q35.5457,184.4584 35.0757,184.5683 Q34.6057,184.6781 34.0869,184.6781 Q32.2437,184.6781 31.2732,183.4635 Q30.3027,182.2489 30.3027,179.954 Q30.3027,177.653 31.2732,176.4384 Q32.2437,175.2238 34.0869,175.2238 Q34.6057,175.2238 35.0818,175.3337 Q35.5579,175.4435 35.9729,175.6632 L35.9729,177.6652 Q35.509,177.238 35.0726,177.0396 Q34.6362,176.8412 34.1724,176.8412 Q33.1836,176.8412 32.6801,177.6255 Q32.1765,178.4098 32.1765,179.954 Q32.1765,181.4921 32.6801,182.2764 Q33.1836,183.0607 34.1724,183.0607 Q34.6362,183.0607 35.0726,182.8623 Q35.509,182.664 35.9729,182.2367 Z " fill="#000000"/><text fill="#D8BC00" font-family="Open Sans,Avenir,Nunito,Arial,Helvetica,SansSerif" font-size="12.5" font-weight="bold" lengthAdjust="spacing" textLength="166.6667" x="53.4375" y="184.5378">LocaleLanguageConverter</text><line style="stroke:#5E5E5E;stroke-width:1.5625;" x1="8.3333" x2="237.5" y1="195.5078" y2="195.5078"/><ellipse cx="18.75" cy="230.8777" fill="#84BE84" rx="3.125" ry="3.125" style="stroke:#038048;stroke-width:1.0416666666666667;"/><text fill="#D8BC00" font-family="Open Sans,Avenir,Nunito,Arial,Helvetica,SansSerif" font-size="11.4583" lengthAdjust="spacing" textLength="198.9583" x="30.2083" y="237.7889">LocaleLanguageConverter(Listener)</text><line style="stroke:#5E5E5E;stroke-width:1.0416666666666667;" x1="8.3333" x2="79.1667" y1="213.7136" y2="213.7136"/><text fill="#D8BC00" font-family="Open Sans,Avenir,Nunito,Arial,Helvetica,SansSerif" font-size="11.4583" lengthAdjust="spacing" textLength="81.25" x="82.2917" y="217.5232">(constructors)</text><line style="stroke:#5E5E5E;stroke-width:1.0416666666666667;" x1="166.6667" x2="237.5" y1="213.7136" y2="213.7136"/><!--MD5=[18f23aad0111fac4e28dab8f8f5d0234]
reverse link LongValuedConverter to IdentifierConverter--><path codeLine="9" d="M457.2292,116.8903 C442.6146,131.7549 425.8438,148.8174 410.9792,163.9215 " fill="none" id="LongValuedConverter-backto-IdentifierConverter" style="stroke:#545454;stroke-width:1.5625;"/><polygon fill="none" points="452.25,111.557,472.0521,101.8174,462.6458,121.7861,452.25,111.557" style="stroke:#545454;stroke-width:1.5625;"/><!--MD5=[57d67d3b231547fe2e5d818b3be25a04]
reverse link LongValuedConverter to IntegerIdentifierConverter--><path codeLine="16" d="M532.3542,116.8903 C546.9688,131.7549 563.7396,148.8174 578.6042,163.9215 " fill="none" id="LongValuedConverter-backto-IntegerIdentifierConverter" style="stroke:#545454;stroke-width:1.5625;"/><polygon fill="none" points="526.9375,121.7861,517.5313,101.8174,537.3333,111.557,526.9375,121.7861" style="stroke:#545454;stroke-width:1.5625;"/><!--MD5=[c9d948f6f4ef7c3cb168c36d6f46f1a4]
reverse link BaseStringConverter to LocaleLanguageConverter--><path codeLine="23" d="M122.9167,122.682 C122.9167,136.0778 122.9167,150.7445 122.9167,163.9215 " fill="none" id="BaseStringConverter-backto-LocaleLanguageConverter" style="stroke:#545454;stroke-width:1.5625;"/><polygon fill="none" points="115.625,122.6507,122.9167,101.8174,130.2083,122.6507,115.625,122.6507" style="stroke:#545454;stroke-width:1.5625;"/><!--MD5=[52c92b597d35e9471f6c7547c1be8433]
@startuml

    !include lexakai.theme
    
    title "Converters - Other"
    
    abstract BaseStringConverter
    
    LongValuedConverter <|- - IdentifierConverter
    class IdentifierConverter
    {
        - -(constructors)- -
        +IdentifierConverter(Listener)
    }
    
    LongValuedConverter <|- - IntegerIdentifierConverter
    class IntegerIdentifierConverter
    {
        - -(constructors)- -
        +IntegerIdentifierConverter(Listener)
    }
    
    BaseStringConverter <|- - LocaleLanguageConverter
    class LocaleLanguageConverter
    {
        - -(constructors)- -
        +LocaleLanguageConverter(Listener)
    }
    
@enduml

@startuml









skinparam backgroundColor #333333






skinparam  {
    defaultFontName   "Open Sans,Avenir,Nunito,Arial,Helvetica,SansSerif"
    defaultFontSize   12
    defaultTextAlignment left
    shadowing false
    RoundCorner 10
    TitleFontSize 18
}

skinparam defaultFontName       "Open Sans,Avenir,Nunito,Arial,Helvetica,SansSerif"
skinparam defaultFontSize       12
skinparam dpi                   100
skinparam shadowing             false
skinparam roundcorner           16
skinparam ParticipantPadding    40
skinparam BoxPadding            40
skinparam Padding               3
skinparam ArrowColor            #545454
skinparam stereotype {
    CBackgroundColor #0066cf
    CBorderColor #0086ef
    ABackgroundColor #C8Ac00
    ABorderColor #D8Bc00
    IBackgroundColor #008400
    IBorderColor #239c23
    EBackgroundColor #cf6300
    EBorderColor #ef8300
    NBackgroundColor #3380b9
    NBorderColor #004d86
}
skinparam title {
	FontColor	                 #c0c0c0
 	BorderColor                  #545454
	FontSize	    	         20
	BorderRoundCorner            16
	BorderThickness 	         1
	BackgroundColor              #48494b
}


skinparam legend {
	BackgroundColor #303030
	BorderColor #404040
	FontColor #a0a0a0
}

	skinparam swimlane {
	BorderColor #5e5e5e
	BorderThickness 2
	TitleBackgroundColor  #6d6d6d-#484848
	TitleFontColor #303030
}

skinparam activity {
		FontColor #C8Ac00
	BorderColor #333333
	BackgroundColor #333333-#333333
	BarColor #00FF00
	StartColor #0060a8
	EndColor #0060a8
	DiamondBackgroundColor #6d6d6d-#3a3a3a
  	DiamondBorderColor #3a3a3a
  	DiamondFontColor #fefefe
}


skinparam participant {
		FontColor #C8Ac00
	BorderColor #333333
	BackgroundColor #333333-#333333
	ParticipantBorderThickness 2
}


skinparam actor {
		FontColor #C8Ac00
	BorderColor #333333
	BackgroundColor #333333-#333333
}


skinparam arrow {
	Thickness 1.5
	Color #545454
	FontColor #a0a0a0
    FontStyle bold
    MessageAlignment center
}



skinparam sequence {
	BorderColor #303030
	TitleFontColor #303030
	BackgroundColor #333333
	StartColor #303030
	EndColor #303030
	BoxBackgroundColor #333333
	BoxBorderColor #484848
	BoxFontColor #484848
	LifeLineBorderColor #484848
	LifeLineBorderThickness 2
	LifeLineBackgroundColor #3a3a3a
	GroupBorderColor #484848
	GroupFontColor #484848
	GroupHeaderFontColor #0060a8
	GroupBackgroundColor #484848
	GroupHeaderBackgroundColor #333333
	DividerBackgroundColor #484848
    DividerBorderColor #484848
    DividerBorderThickness 2
    DividerFontColor #D8Bc00
	ReferenceBackgroundColor #333333
	ReferenceBorderColor #484848
	ReferenceFontColor #fefefe
	ReferenceHeaderBackgroundColor #484848
}


skinparam partition {
	BorderColor #303030
	FontColor #333333
	BackgroundColor #333333
}


skinparam collections {
		FontColor #C8Ac00
	BorderColor #333333
	BackgroundColor #333333-#333333
}


skinparam control {
		FontColor #C8Ac00
	BorderColor #333333
	BackgroundColor #333333-#333333
}


skinparam entity {
		FontColor #C8Ac00
	BorderColor #333333
	BackgroundColor #333333-#333333
}


skinparam boundary {
		FontColor #C8Ac00
	BorderColor #333333
	BackgroundColor #333333-#333333
}


skinparam agent {
	BackgroundColor #ff8000
	BorderColor #ff9933
	FontColor #484848
}


skinparam note {
	BorderThickness 1
	BackgroundColor #1b1b1a
	BorderColor #5e5e5e
	FontSize 11
	FontColor #a0a0a0
}


skinparam artifact {
	BorderThickness 10
	BorderColor #5e5e5e
	BackgroundColor #1b1b1a
	FontColor #D8Bc00
}


skinparam component {
		FontColor #C8Ac00
	BorderColor #333333
	BackgroundColor #333333-#333333
}


skinparam interface {
	BackgroundColor  #008400
	BorderColor  #007F00
	FontColor #484848
}


skinparam storage {
	BackgroundColor #ff8000
  	BorderColor #cc6600
	FontColor #222222
}


skinparam node {
	BackgroundColor #333333
	BorderColor #333333
	FontColor #C8Ac00
}


skinparam cloud {
	BackgroundColor #484848-black
	BorderColor #484848
	FontColor #D8Bc00
}


skinparam database {
		FontColor #C8Ac00
	BorderColor #333333
	BackgroundColor #333333-#333333
	BackgroundColor  #333333
}


skinparam class {
		FontColor #C8Ac00
	BorderColor #333333
	BackgroundColor #333333-#333333
	HeaderBackgroundColor #1b1b1a
    BackgroundColor #282828
    BorderColor #5e5e5e
 	StereotypeFontColor #a0a0a0
    StereotypeFontStyle bold
	BorderThickness 1
	AttributeFontColor #D8Bc00
	AttributeFontSize 11
    FontColor #D8Bc00
    FontStyle bold
}


skinparam object {
		FontColor #C8Ac00
	BorderColor #333333
	BackgroundColor #333333-#333333
	StereotypeFontColor #484848
	BorderThickness 1
	AttributeFontColor #fefefe
	AttributeFontSize 11
}


skinparam usecase {
		FontColor #C8Ac00
	BorderColor #333333
	BackgroundColor #333333-#333333
	BorderThickness 2
	StereotypeFontColor #303030
}


skinparam rectangle {
		FontColor #C8Ac00
	BorderColor #333333
	BackgroundColor #333333-#333333
	BackgroundColor #333333
	BorderThickness 2
	StereotypeFontColor #303030
}


skinparam package {
		FontColor #C8Ac00
	BorderColor #333333
	BackgroundColor #333333-#333333
	BackgroundColor #333333
	BorderThickness 2
}


skinparam folder {
	BackgroundColor #6d6d6d
  	BorderColor #ff8000
	FontColor #ff8000
	BorderThickness 2
}


skinparam frame {
	BackgroundColor #6d6d6d
  	BorderColor #0060a8
	FontColor #0060a8
	BorderThickness 2
}


skinparam state {
		FontColor #C8Ac00
	BorderColor #333333
	BackgroundColor #333333-#333333
	StartColor #0060a8
	EndColor #0060a8
	AttributeFontColor #fefefe
	AttributeFontSize 11
}


skinparam queue {
		FontColor #C8Ac00
	BorderColor #333333
	BackgroundColor #333333-#333333
}


skinparam card {
	BackgroundColor #0060a8
	BorderColor #004d86
	FontColor $INFO_TEXT
}


skinparam file {
	BackgroundColor #6d6d6d-#484848
	BorderColor #0060a8
	FontColor #fefefe
}


skinparam stack {
		FontColor #C8Ac00
	BorderColor #333333
	BackgroundColor #333333-#333333
}

    
    title "Converters - Other"
    
    abstract BaseStringConverter
    
    LongValuedConverter <|- - IdentifierConverter
    class IdentifierConverter
    {
        - -(constructors)- -
        +IdentifierConverter(Listener)
    }
    
    LongValuedConverter <|- - IntegerIdentifierConverter
    class IntegerIdentifierConverter
    {
        - -(constructors)- -
        +IntegerIdentifierConverter(Listener)
    }
    
    BaseStringConverter <|- - LocaleLanguageConverter
    class LocaleLanguageConverter
    {
        - -(constructors)- -
        +LocaleLanguageConverter(Listener)
    }
    
@enduml

PlantUML version 1.2021.01(Tue Feb 02 00:55:08 MST 2021)
(GPL source distribution)
Java Runtime: OpenJDK Runtime Environment
JVM: OpenJDK 64-Bit Server VM
Default Encoding: UTF-8
Language: en
Country: US
--></g></svg>