<?xml version="1.0" encoding="UTF-8" standalone="no"?><svg xmlns="http://www.w3.org/2000/svg" xmlns:xlink="http://www.w3.org/1999/xlink" contentScriptType="application/ecmascript" contentStyleType="text/css" height="533.3333px" preserveAspectRatio="none" style="width:1175px;height:533px;background:#333333;" version="1.1" viewBox="0 0 1175 533" width="1175px" zoomAndPan="magnify"><defs/><g><rect fill="#48494B" height="41.2028" rx="8.3333" ry="8.3333" style="stroke:#545454;stroke-width:1.0416666666666667;" width="280.2083" x="440.1042" y="2.0833"/><text fill="#C0C0C0" font-family="Open Sans,Avenir,Nunito,Arial,Helvetica,SansSerif" font-size="20.8333" lengthAdjust="spacing" textLength="257.2917" x="451.5625" y="30.5583">kivakit-serialization-kryo</text><!--MD5=[4f079977920bf52107586fb847a1e92c]
entity kryo--><rect fill="#1B1B1A" height="44.93" rx="8.3333" ry="8.3333" style="stroke:#5E5E5E;stroke-width:1.5625;" width="63.5417" x="205.7292" y="160.9945"/><polygon fill="#1B1B1A" points="251.5625,166.2028,251.5625,180.7861,264.0625,180.7861,264.0625,172.4528,257.8125,166.2028,251.5625,166.2028" style="stroke:#5E5E5E;stroke-width:1.5625;"/><line style="stroke:#5E5E5E;stroke-width:1.5625;" x1="257.8125" x2="257.8125" y1="166.2028" y2="172.4528"/><line style="stroke:#5E5E5E;stroke-width:1.5625;" x1="264.0625" x2="257.8125" y1="172.4528" y2="172.4528"/><text fill="#D8BC00" font-family="Open Sans,Avenir,Nunito,Arial,Helvetica,SansSerif" font-size="12.5" lengthAdjust="spacing" textLength="26.0417" x="219.2708" y="189.7461">kryo</text><!--MD5=[745ab22dbfa32e29a2660b9e5bc2262a]
entity minlog--><rect fill="#1B1B1A" height="44.93" rx="8.3333" ry="8.3333" style="stroke:#5E5E5E;stroke-width:1.5625;" width="77.0833" x="7.2917" y="268.2861"/><polygon fill="#1B1B1A" points="66.6667,273.4945,66.6667,288.0778,79.1667,288.0778,79.1667,279.7445,72.9167,273.4945,66.6667,273.4945" style="stroke:#5E5E5E;stroke-width:1.5625;"/><line style="stroke:#5E5E5E;stroke-width:1.5625;" x1="72.9167" x2="72.9167" y1="273.4945" y2="279.7445"/><line style="stroke:#5E5E5E;stroke-width:1.5625;" x1="79.1667" x2="72.9167" y1="279.7445" y2="279.7445"/><text fill="#D8BC00" font-family="Open Sans,Avenir,Nunito,Arial,Helvetica,SansSerif" font-size="12.5" lengthAdjust="spacing" textLength="39.5833" x="20.8333" y="297.0378">minlog</text><!--MD5=[5d0bc62e6e2e5a8467f655d5e580826c]
entity reflectasm--><rect fill="#1B1B1A" height="44.93" rx="8.3333" ry="8.3333" style="stroke:#5E5E5E;stroke-width:1.5625;" width="100" x="120.8333" y="268.2861"/><polygon fill="#1B1B1A" points="203.125,273.4945,203.125,288.0778,215.625,288.0778,215.625,279.7445,209.375,273.4945,203.125,273.4945" style="stroke:#5E5E5E;stroke-width:1.5625;"/><line style="stroke:#5E5E5E;stroke-width:1.5625;" x1="209.375" x2="209.375" y1="273.4945" y2="279.7445"/><line style="stroke:#5E5E5E;stroke-width:1.5625;" x1="215.625" x2="209.375" y1="279.7445" y2="279.7445"/><text fill="#D8BC00" font-family="Open Sans,Avenir,Nunito,Arial,Helvetica,SansSerif" font-size="12.5" lengthAdjust="spacing" textLength="62.5" x="134.375" y="297.0378">reflectasm</text><!--MD5=[07375bd6ced801b2ef86c9d3f68eec61]
entity jackson_annotations--><rect fill="#1B1B1A" height="44.93" rx="8.3333" ry="8.3333" style="stroke:#5E5E5E;stroke-width:1.5625;" width="158.3333" x="157.2917" y="375.5778"/><polygon fill="#1B1B1A" points="297.9167,380.7861,297.9167,395.3695,310.4167,395.3695,310.4167,387.0361,304.1667,380.7861,297.9167,380.7861" style="stroke:#5E5E5E;stroke-width:1.5625;"/><line style="stroke:#5E5E5E;stroke-width:1.5625;" x1="304.1667" x2="304.1667" y1="380.7861" y2="387.0361"/><line style="stroke:#5E5E5E;stroke-width:1.5625;" x1="310.4167" x2="304.1667" y1="387.0361" y2="387.0361"/><text fill="#D8BC00" font-family="Open Sans,Avenir,Nunito,Arial,Helvetica,SansSerif" font-size="12.5" lengthAdjust="spacing" textLength="120.8333" x="170.8333" y="404.3294">jackson_annotations</text><!--MD5=[4aa4ddcf3dc6d6219283db0a9fd05165]
entity cactus_build_metadata--><rect fill="#1B1B1A" height="44.93" rx="8.3333" ry="8.3333" style="stroke:#5E5E5E;stroke-width:1.5625;" width="175" x="352.0833" y="375.5778"/><polygon fill="#1B1B1A" points="509.375,380.7861,509.375,395.3695,521.875,395.3695,521.875,387.0361,515.625,380.7861,509.375,380.7861" style="stroke:#5E5E5E;stroke-width:1.5625;"/><line style="stroke:#5E5E5E;stroke-width:1.5625;" x1="515.625" x2="515.625" y1="380.7861" y2="387.0361"/><line style="stroke:#5E5E5E;stroke-width:1.5625;" x1="521.875" x2="515.625" y1="387.0361" y2="387.0361"/><text fill="#D8BC00" font-family="Open Sans,Avenir,Nunito,Arial,Helvetica,SansSerif" font-size="12.5" lengthAdjust="spacing" textLength="137.5" x="365.625" y="404.3294">cactus_build_metadata</text><!--MD5=[17eeaa61da6b3f8cb25de5876b62ec23]
entity kivakit_kernel--><rect fill="#1B1B1A" height="44.93" rx="8.3333" ry="8.3333" style="stroke:#5E5E5E;stroke-width:1.5625;" width="119.7917" x="581.7708" y="268.2861"/><polygon fill="#1B1B1A" points="683.8542,273.4945,683.8542,288.0778,696.3542,288.0778,696.3542,279.7445,690.1042,273.4945,683.8542,273.4945" style="stroke:#5E5E5E;stroke-width:1.5625;"/><line style="stroke:#5E5E5E;stroke-width:1.5625;" x1="690.1042" x2="690.1042" y1="273.4945" y2="279.7445"/><line style="stroke:#5E5E5E;stroke-width:1.5625;" x1="696.3542" x2="690.1042" y1="279.7445" y2="279.7445"/><text fill="#D8BC00" font-family="Open Sans,Avenir,Nunito,Arial,Helvetica,SansSerif" font-size="12.5" lengthAdjust="spacing" textLength="82.2917" x="595.3125" y="297.0378">kivakit_kernel</text><!--MD5=[90c7e8c0eae90f7cdcf1e82754bc9c37]
entity kivakit_serialization_core--><rect fill="#1B1B1A" height="44.93" rx="8.3333" ry="8.3333" style="stroke:#5E5E5E;stroke-width:1.5625;" width="186.4583" x="467.1875" y="160.9945"/><polygon fill="#1B1B1A" points="635.9375,166.2028,635.9375,180.7861,648.4375,180.7861,648.4375,172.4528,642.1875,166.2028,635.9375,166.2028" style="stroke:#5E5E5E;stroke-width:1.5625;"/><line style="stroke:#5E5E5E;stroke-width:1.5625;" x1="642.1875" x2="642.1875" y1="166.2028" y2="172.4528"/><line style="stroke:#5E5E5E;stroke-width:1.5625;" x1="648.4375" x2="642.1875" y1="172.4528" y2="172.4528"/><text fill="#D8BC00" font-family="Open Sans,Avenir,Nunito,Arial,Helvetica,SansSerif" font-size="12.5" lengthAdjust="spacing" textLength="148.9583" x="480.7292" y="189.7461">kivakit_serialization_core</text><!--MD5=[7bf535908c90dd3c1fbc894d9b1c5a2e]
entity kivakit_serialization_kryo--><rect fill="#1B1B1A" height="44.93" rx="8.3333" ry="8.3333" style="stroke:#5E5E5E;stroke-width:1.5625;" width="186.4583" x="557.8125" y="53.7028"/><polygon fill="#1B1B1A" points="726.5625,58.9111,726.5625,73.4945,739.0625,73.4945,739.0625,65.1611,732.8125,58.9111,726.5625,58.9111" style="stroke:#5E5E5E;stroke-width:1.5625;"/><line style="stroke:#5E5E5E;stroke-width:1.5625;" x1="732.8125" x2="732.8125" y1="58.9111" y2="65.1611"/><line style="stroke:#5E5E5E;stroke-width:1.5625;" x1="739.0625" x2="732.8125" y1="65.1611" y2="65.1611"/><text fill="#D8BC00" font-family="Open Sans,Avenir,Nunito,Arial,Helvetica,SansSerif" font-size="12.5" lengthAdjust="spacing" textLength="148.9583" x="571.3542" y="82.4544">kivakit_serialization_kryo</text><!--MD5=[11024e5ca6382b1a0f630f967447af59]
entity kivakit_test--><rect fill="#1B1B1A" height="44.93" rx="8.3333" ry="8.3333" style="stroke:#5E5E5E;stroke-width:1.5625;" width="104.1667" x="690.625" y="160.9945"/><polygon fill="#1B1B1A" points="777.0833,166.2028,777.0833,180.7861,789.5833,180.7861,789.5833,172.4528,783.3333,166.2028,777.0833,166.2028" style="stroke:#5E5E5E;stroke-width:1.5625;"/><line style="stroke:#5E5E5E;stroke-width:1.5625;" x1="783.3333" x2="783.3333" y1="166.2028" y2="172.4528"/><line style="stroke:#5E5E5E;stroke-width:1.5625;" x1="789.5833" x2="783.3333" y1="172.4528" y2="172.4528"/><text fill="#D8BC00" font-family="Open Sans,Avenir,Nunito,Arial,Helvetica,SansSerif" font-size="12.5" lengthAdjust="spacing" textLength="66.6667" x="704.1667" y="189.7461">kivakit_test</text><!--MD5=[7b0fec798d1f32628676dfdf75f1f662]
entity lexakai_annotations--><rect fill="#1B1B1A" height="44.93" rx="8.3333" ry="8.3333" style="stroke:#5E5E5E;stroke-width:1.5625;" width="155.2083" x="564.0625" y="375.5778"/><polygon fill="#1B1B1A" points="701.5625,380.7861,701.5625,395.3695,714.0625,395.3695,714.0625,387.0361,707.8125,380.7861,701.5625,380.7861" style="stroke:#5E5E5E;stroke-width:1.5625;"/><line style="stroke:#5E5E5E;stroke-width:1.5625;" x1="707.8125" x2="707.8125" y1="380.7861" y2="387.0361"/><line style="stroke:#5E5E5E;stroke-width:1.5625;" x1="714.0625" x2="707.8125" y1="387.0361" y2="387.0361"/><text fill="#D8BC00" font-family="Open Sans,Avenir,Nunito,Arial,Helvetica,SansSerif" font-size="12.5" lengthAdjust="spacing" textLength="117.7083" x="577.6042" y="404.3294">lexakai_annotations</text><!--MD5=[b9ccc173c089e3d2abf77c8581e74aca]
entity kryo_serializers--><rect fill="#1B1B1A" height="44.93" rx="8.3333" ry="8.3333" style="stroke:#5E5E5E;stroke-width:1.5625;" width="131.25" x="831.25" y="160.9945"/><polygon fill="#1B1B1A" points="944.7917,166.2028,944.7917,180.7861,957.2917,180.7861,957.2917,172.4528,951.0417,166.2028,944.7917,166.2028" style="stroke:#5E5E5E;stroke-width:1.5625;"/><line style="stroke:#5E5E5E;stroke-width:1.5625;" x1="951.0417" x2="951.0417" y1="166.2028" y2="172.4528"/><line style="stroke:#5E5E5E;stroke-width:1.5625;" x1="957.2917" x2="951.0417" y1="172.4528" y2="172.4528"/><text fill="#D8BC00" font-family="Open Sans,Avenir,Nunito,Arial,Helvetica,SansSerif" font-size="12.5" lengthAdjust="spacing" textLength="93.75" x="844.7917" y="189.7461">kryo_serializers</text><!--MD5=[23cc7f88cfa1ae4b54fca2963c42906f]
entity swagger_annotations--><rect fill="#1B1B1A" height="44.93" rx="8.3333" ry="8.3333" style="stroke:#5E5E5E;stroke-width:1.5625;" width="162.5" x="756.25" y="375.5778"/><polygon fill="#1B1B1A" points="901.0417,380.7861,901.0417,395.3695,913.5417,395.3695,913.5417,387.0361,907.2917,380.7861,901.0417,380.7861" style="stroke:#5E5E5E;stroke-width:1.5625;"/><line style="stroke:#5E5E5E;stroke-width:1.5625;" x1="907.2917" x2="907.2917" y1="380.7861" y2="387.0361"/><line style="stroke:#5E5E5E;stroke-width:1.5625;" x1="913.5417" x2="907.2917" y1="387.0361" y2="387.0361"/><text fill="#D8BC00" font-family="Open Sans,Avenir,Nunito,Arial,Helvetica,SansSerif" font-size="12.5" lengthAdjust="spacing" textLength="125" x="769.7917" y="404.3294">swagger_annotations</text><!--MD5=[ce55b294004802c137560c2930be5b75]
entity junit--><rect fill="#1B1B1A" height="44.93" rx="8.3333" ry="8.3333" style="stroke:#5E5E5E;stroke-width:1.5625;" width="63.5417" x="955.7292" y="375.5778"/><polygon fill="#1B1B1A" points="1001.5625,380.7861,1001.5625,395.3695,1014.0625,395.3695,1014.0625,387.0361,1007.8125,380.7861,1001.5625,380.7861" style="stroke:#5E5E5E;stroke-width:1.5625;"/><line style="stroke:#5E5E5E;stroke-width:1.5625;" x1="1007.8125" x2="1007.8125" y1="380.7861" y2="387.0361"/><line style="stroke:#5E5E5E;stroke-width:1.5625;" x1="1014.0625" x2="1007.8125" y1="387.0361" y2="387.0361"/><text fill="#D8BC00" font-family="Open Sans,Avenir,Nunito,Arial,Helvetica,SansSerif" font-size="12.5" lengthAdjust="spacing" textLength="26.0417" x="969.2708" y="404.3294">junit</text><!--MD5=[7f157d37bc1fd6ac970bb67ffdbc66a3]
entity hamcrest_core--><rect fill="#1B1B1A" height="44.93" rx="8.3333" ry="8.3333" style="stroke:#5E5E5E;stroke-width:1.5625;" width="125" x="925" y="482.8695"/><polygon fill="#1B1B1A" points="1032.2917,488.0778,1032.2917,502.6611,1044.7917,502.6611,1044.7917,494.3278,1038.5417,488.0778,1032.2917,488.0778" style="stroke:#5E5E5E;stroke-width:1.5625;"/><line style="stroke:#5E5E5E;stroke-width:1.5625;" x1="1038.5417" x2="1038.5417" y1="488.0778" y2="494.3278"/><line style="stroke:#5E5E5E;stroke-width:1.5625;" x1="1044.7917" x2="1038.5417" y1="494.3278" y2="494.3278"/><text fill="#D8BC00" font-family="Open Sans,Avenir,Nunito,Arial,Helvetica,SansSerif" font-size="12.5" lengthAdjust="spacing" textLength="87.5" x="938.5417" y="511.6211">hamcrest_core</text><!--MD5=[b728e17b4e4da6aa8cb97e9b2766c5e6]
entity annotations--><rect fill="#1B1B1A" height="44.93" rx="8.3333" ry="8.3333" style="stroke:#5E5E5E;stroke-width:1.5625;" width="106.25" x="1056.25" y="375.5778"/><polygon fill="#1B1B1A" points="1144.7917,380.7861,1144.7917,395.3695,1157.2917,395.3695,1157.2917,387.0361,1151.0417,380.7861,1144.7917,380.7861" style="stroke:#5E5E5E;stroke-width:1.5625;"/><line style="stroke:#5E5E5E;stroke-width:1.5625;" x1="1151.0417" x2="1151.0417" y1="380.7861" y2="387.0361"/><line style="stroke:#5E5E5E;stroke-width:1.5625;" x1="1157.2917" x2="1151.0417" y1="387.0361" y2="387.0361"/><text fill="#D8BC00" font-family="Open Sans,Avenir,Nunito,Arial,Helvetica,SansSerif" font-size="12.5" lengthAdjust="spacing" textLength="68.75" x="1069.7917" y="404.3294">annotations</text><!--MD5=[b3c862d1486667ad9c7edef6529b2202]
entity objenesis--><rect fill="#1B1B1A" height="44.93" rx="8.3333" ry="8.3333" style="stroke:#5E5E5E;stroke-width:1.5625;" width="94.7917" x="257.8125" y="268.2861"/><polygon fill="#1B1B1A" points="334.8958,273.4945,334.8958,288.0778,347.3958,288.0778,347.3958,279.7445,341.1458,273.4945,334.8958,273.4945" style="stroke:#5E5E5E;stroke-width:1.5625;"/><line style="stroke:#5E5E5E;stroke-width:1.5625;" x1="341.1458" x2="341.1458" y1="273.4945" y2="279.7445"/><line style="stroke:#5E5E5E;stroke-width:1.5625;" x1="347.3958" x2="341.1458" y1="279.7445" y2="279.7445"/><text fill="#D8BC00" font-family="Open Sans,Avenir,Nunito,Arial,Helvetica,SansSerif" font-size="12.5" lengthAdjust="spacing" textLength="57.2917" x="271.3542" y="297.0378">objenesis</text><!--MD5=[92e2ad58d19962135e7ff93f22958550]
entity asm--><rect fill="#1B1B1A" height="44.93" rx="8.3333" ry="8.3333" style="stroke:#5E5E5E;stroke-width:1.5625;" width="62.5" x="58.3333" y="375.5778"/><polygon fill="#1B1B1A" points="103.125,380.7861,103.125,395.3695,115.625,395.3695,115.625,387.0361,109.375,380.7861,103.125,380.7861" style="stroke:#5E5E5E;stroke-width:1.5625;"/><line style="stroke:#5E5E5E;stroke-width:1.5625;" x1="109.375" x2="109.375" y1="380.7861" y2="387.0361"/><line style="stroke:#5E5E5E;stroke-width:1.5625;" x1="115.625" x2="109.375" y1="387.0361" y2="387.0361"/><text fill="#D8BC00" font-family="Open Sans,Avenir,Nunito,Arial,Helvetica,SansSerif" font-size="12.5" lengthAdjust="spacing" textLength="25" x="71.875" y="404.3294">asm</text><!--MD5=[d68e7c4b3ca5f037bcb6997a0b4ed16b]
link junit to hamcrest_core--><path d="M987.5,420.8174 C987.5,437.2861 987.5,459.984 987.5,477.5361 " fill="none" id="junit-to-hamcrest_core" style="stroke:#545454;stroke-width:1.5625;"/><polygon fill="#545454" points="987.5,482.8174,991.6667,473.4424,987.5,477.609,983.3333,473.4424,987.5,482.8174" style="stroke:#545454;stroke-width:1.5625;"/><!--MD5=[a2f7c49e80f0067c62cb523636c9f00e]
link kivakit_kernel to annotations--><path d="M701.6979,302.8903 C779.5521,317.7236 919.375,345.5674 1037.5,375.5778 C1041.8542,376.682 1046.3333,377.8799 1050.8438,379.1195 " fill="none" id="kivakit_kernel-to-annotations" style="stroke:#545454;stroke-width:1.5625;"/><polygon fill="#545454" points="1056.125,380.5986,1048.2142,374.0663,1051.1082,379.1993,1045.9752,382.0933,1056.125,380.5986" style="stroke:#545454;stroke-width:1.5625;"/><!--MD5=[4bb5cdf1dd69a57413676b3f513d3923]
link kivakit_kernel to cactus_build_metadata--><path d="M600.2813,313.2653 C567.0417,330.5674 520.3854,354.859 485.9063,372.8174 " fill="none" id="kivakit_kernel-to-cactus_build_metadata" style="stroke:#545454;stroke-width:1.5625;"/><polygon fill="#545454" points="480.9063,375.4215,491.1458,374.7859,485.5255,373.0154,487.2959,367.3951,480.9063,375.4215" style="stroke:#545454;stroke-width:1.5625;"/><!--MD5=[ce1de3a0fcf0456409f45c00bcbf6819]
link kivakit_kernel to jackson_annotations--><path d="M581.4375,307.359 C512.4063,325.2861 398.7813,354.7861 320.9271,375.0049 " fill="none" id="kivakit_kernel-to-jackson_annotations" style="stroke:#545454;stroke-width:1.5625;"/><polygon fill="#545454" points="315.8542,376.3174,325.9753,377.9948,320.8954,375.0087,323.8815,369.9288,315.8542,376.3174" style="stroke:#545454;stroke-width:1.5625;"/><!--MD5=[1866acf2ddf7045e9492d220d182168e]
link kivakit_kernel to junit--><path d="M701.5833,306.3174 C761.8438,321.5465 857.1042,347.1403 937.5,375.5778 C941.7188,377.0674 946.0938,378.7445 950.4167,380.4736 " fill="none" id="kivakit_kernel-to-junit" style="stroke:#545454;stroke-width:1.5625;"/><polygon fill="#545454" points="955.4583,382.5361,948.3679,375.1215,950.6401,380.5583,945.2033,382.8306,955.4583,382.5361" style="stroke:#545454;stroke-width:1.5625;"/><!--MD5=[049e1cbc60d7a94f708d5cd284874347]
link kivakit_kernel to lexakai_annotations--><path d="M641.6667,313.5257 C641.6667,329.9945 641.6667,352.6924 641.6667,370.2445 " fill="none" id="kivakit_kernel-to-lexakai_annotations" style="stroke:#545454;stroke-width:1.5625;"/><polygon fill="#545454" points="641.6667,375.5257,645.8333,366.1507,641.6667,370.3174,637.5,366.1507,641.6667,375.5257" style="stroke:#545454;stroke-width:1.5625;"/><!--MD5=[ceaa58f2fdab01bf1e0ddaf38b77f8a7]
link kivakit_kernel to swagger_annotations--><path d="M681.7708,313.2653 C713.9792,330.5674 759.1979,354.859 792.6146,372.8174 " fill="none" id="kivakit_kernel-to-swagger_annotations" style="stroke:#545454;stroke-width:1.5625;"/><polygon fill="#545454" points="797.4479,375.4215,791.1721,367.3058,792.8631,372.9505,787.2184,374.6415,797.4479,375.4215" style="stroke:#545454;stroke-width:1.5625;"/><!--MD5=[9c9a2778f104e0767a948d41741e71ce]
link kivakit_serialization_core to kivakit_kernel--><path d="M577.25,206.234 C590.1875,222.984 608.1042,246.182 621.7604,263.859 " fill="none" id="kivakit_serialization_core-to-kivakit_kernel" style="stroke:#545454;stroke-width:1.5625;"/><polygon fill="#545454" points="625.1354,268.234,622.7011,258.2678,621.9512,264.1124,616.1066,263.3625,625.1354,268.234" style="stroke:#545454;stroke-width:1.5625;"/><!--MD5=[bd8ffdf9ed53e7a9e4d2b803aca0e58d]
link kivakit_serialization_kryo to kivakit_serialization_core--><path d="M632.2604,98.9424 C617.8333,115.6924 597.8542,138.8903 582.625,156.5674 " fill="none" id="kivakit_serialization_kryo-to-kivakit_serialization_core" style="stroke:#545454;stroke-width:1.5625;"/><polygon fill="#545454" points="578.8646,160.9424,588.147,156.5733,582.27,157.0016,581.8417,151.1246,578.8646,160.9424" style="stroke:#545454;stroke-width:1.5625;"/><!--MD5=[a3a5de1ed4a478fd6edcd6cc9653b0d8]
link kivakit_serialization_kryo to kivakit_test--><path d="M670.0313,98.9424 C684.6354,115.6924 704.8438,138.8903 720.25,156.5674 " fill="none" id="kivakit_serialization_kryo-to-kivakit_test" style="stroke:#545454;stroke-width:1.5625;"/><polygon fill="#545454" points="724.0521,160.9424,721.0566,151.1302,720.6393,157.008,714.7615,156.5907,724.0521,160.9424" style="stroke:#545454;stroke-width:1.5625;"/><!--MD5=[40faeed4b9f18330bf0f83fa88774571]
link kivakit_serialization_kryo to kryo--><path d="M566.8542,98.557 C477.5,121.2861 340.3438,156.182 274.8333,172.8486 " fill="none" id="kivakit_serialization_kryo-to-kryo" style="stroke:#545454;stroke-width:1.5625;"/><polygon fill="#545454" points="269.4896,174.2132,279.6013,175.9467,274.538,172.9325,277.5522,167.8692,269.4896,174.2132" style="stroke:#545454;stroke-width:1.5625;"/><!--MD5=[03df8de183ef6689edc51eb2e13fe23e]
link kivakit_serialization_kryo to kryo_serializers--><path d="M701.0833,98.557 C741.9583,116.0465 799.6667,140.7445 841.8333,158.7965 " fill="none" id="kivakit_serialization_kryo-to-kryo_serializers" style="stroke:#545454;stroke-width:1.5625;"/><polygon fill="#545454" points="846.8958,160.9632,839.9202,153.4405,842.1086,158.9116,836.6375,161.1,846.8958,160.9632" style="stroke:#545454;stroke-width:1.5625;"/><!--MD5=[8c32f0e7b0abeba01afd276f5a66ee84]
link kryo to minlog--><path d="M205.4167,202.0465 C173.5938,219.5049 124.6146,246.3903 89.3125,265.7757 " fill="none" id="kryo-to-minlog" style="stroke:#545454;stroke-width:1.5625;"/><polygon fill="#545454" points="84.6458,268.3382,94.8702,267.4929,89.2148,265.8379,90.8697,260.1826,84.6458,268.3382" style="stroke:#545454;stroke-width:1.5625;"/><!--MD5=[e75c16e47fcf6c43b15d3c25536a9ed0]
link kryo to objenesis--><path d="M251.5313,206.234 C262.2188,222.8486 276.9896,245.7861 288.3229,263.4111 " fill="none" id="kryo-to-objenesis" style="stroke:#545454;stroke-width:1.5625;"/><polygon fill="#545454" points="291.4271,268.234,289.8537,258.0962,288.6069,263.8553,282.8478,262.6085,291.4271,268.234" style="stroke:#545454;stroke-width:1.5625;"/><!--MD5=[e061beb27669383d030ce0c5c656b006]
link kryo to reflectasm--><path d="M223.6875,206.234 C213.1563,222.8486 198.6146,245.7861 187.4583,263.4111 " fill="none" id="kryo-to-reflectasm" style="stroke:#545454;stroke-width:1.5625;"/><polygon fill="#545454" points="184.3958,268.234,192.9393,262.5542,187.1882,263.8375,185.9049,258.0864,184.3958,268.234" style="stroke:#545454;stroke-width:1.5625;"/><!--MD5=[338783537f3f9263e4097f5ff0c514d3]
link reflectasm to asm--><path d="M154,313.5257 C141.0625,330.2757 123.1458,353.4736 109.4896,371.1507 " fill="none" id="reflectasm-to-asm" style="stroke:#545454;stroke-width:1.5625;"/><polygon fill="#545454" points="106.1146,375.5257,115.1434,370.6542,109.2988,371.4041,108.5489,365.5595,106.1146,375.5257" style="stroke:#545454;stroke-width:1.5625;"/><!--MD5=[89c2376a87a087446ac4598052916ac4]
@startuml

    !include lexakai.theme
    
    title "kivakit-serialization-kryo"
    
    artifact kryo
    artifact minlog
    artifact reflectasm
    artifact jackson_annotations
    artifact cactus_build_metadata
    artifact kivakit_kernel
    artifact kivakit_serialization_core
    artifact kivakit_serialization_kryo
    artifact kivakit_test
    artifact lexakai_annotations
    artifact kryo_serializers
    artifact swagger_annotations
    artifact junit
    artifact hamcrest_core
    artifact annotations
    artifact objenesis
    artifact asm
    junit - -> hamcrest_core
    kivakit_kernel - -> annotations
    kivakit_kernel - -> cactus_build_metadata
    kivakit_kernel - -> jackson_annotations
    kivakit_kernel - -> junit
    kivakit_kernel - -> lexakai_annotations
    kivakit_kernel - -> swagger_annotations
    kivakit_serialization_core - -> kivakit_kernel
    kivakit_serialization_kryo - -> kivakit_serialization_core
    kivakit_serialization_kryo - -> kivakit_test
    kivakit_serialization_kryo - -> kryo
    kivakit_serialization_kryo - -> kryo_serializers
    kryo - -> minlog
    kryo - -> objenesis
    kryo - -> reflectasm
    reflectasm - -> asm
    
@enduml

@startuml









skinparam backgroundColor #333333






skinparam  {
    defaultFontName   "Open Sans,Avenir,Nunito,Arial,Helvetica,SansSerif"
    defaultFontSize   12
    defaultTextAlignment left
    shadowing false
    RoundCorner 10
    TitleFontSize 18
}

skinparam defaultFontName       "Open Sans,Avenir,Nunito,Arial,Helvetica,SansSerif"
skinparam defaultFontSize       12
skinparam dpi                   100
skinparam shadowing             false
skinparam roundcorner           16
skinparam ParticipantPadding    40
skinparam BoxPadding            40
skinparam Padding               3
skinparam ArrowColor            #545454
skinparam stereotype {
    CBackgroundColor #0066cf
    CBorderColor #0086ef
    ABackgroundColor #C8Ac00
    ABorderColor #D8Bc00
    IBackgroundColor #008400
    IBorderColor #239c23
    EBackgroundColor #cf6300
    EBorderColor #ef8300
    NBackgroundColor #3380b9
    NBorderColor #004d86
}
skinparam title {
	FontColor	                 #c0c0c0
 	BorderColor                  #545454
	FontSize	    	         20
	BorderRoundCorner            16
	BorderThickness 	         1
	BackgroundColor              #48494b
}


skinparam legend {
	BackgroundColor #303030
	BorderColor #404040
	FontColor #a0a0a0
}

	skinparam swimlane {
	BorderColor #5e5e5e
	BorderThickness 2
	TitleBackgroundColor  #6d6d6d-#484848
	TitleFontColor #303030
}

skinparam activity {
		FontColor #C8Ac00
	BorderColor #333333
	BackgroundColor #333333-#333333
	BarColor #00FF00
	StartColor #0060a8
	EndColor #0060a8
	DiamondBackgroundColor #6d6d6d-#3a3a3a
  	DiamondBorderColor #3a3a3a
  	DiamondFontColor #fefefe
}


skinparam participant {
		FontColor #C8Ac00
	BorderColor #333333
	BackgroundColor #333333-#333333
	ParticipantBorderThickness 2
}


skinparam actor {
		FontColor #C8Ac00
	BorderColor #333333
	BackgroundColor #333333-#333333
}


skinparam arrow {
	Thickness 1.5
	Color #545454
	FontColor #a0a0a0
    FontStyle bold
    MessageAlignment center
}



skinparam sequence {
	BorderColor #303030
	TitleFontColor #303030
	BackgroundColor #333333
	StartColor #303030
	EndColor #303030
	BoxBackgroundColor #333333
	BoxBorderColor #484848
	BoxFontColor #484848
	LifeLineBorderColor #484848
	LifeLineBorderThickness 2
	LifeLineBackgroundColor #3a3a3a
	GroupBorderColor #484848
	GroupFontColor #484848
	GroupHeaderFontColor #0060a8
	GroupBackgroundColor #484848
	GroupHeaderBackgroundColor #333333
	DividerBackgroundColor #484848
    DividerBorderColor #484848
    DividerBorderThickness 2
    DividerFontColor #D8Bc00
	ReferenceBackgroundColor #333333
	ReferenceBorderColor #484848
	ReferenceFontColor #fefefe
	ReferenceHeaderBackgroundColor #484848
}


skinparam partition {
	BorderColor #303030
	FontColor #333333
	BackgroundColor #333333
}


skinparam collections {
		FontColor #C8Ac00
	BorderColor #333333
	BackgroundColor #333333-#333333
}


skinparam control {
		FontColor #C8Ac00
	BorderColor #333333
	BackgroundColor #333333-#333333
}


skinparam entity {
		FontColor #C8Ac00
	BorderColor #333333
	BackgroundColor #333333-#333333
}


skinparam boundary {
		FontColor #C8Ac00
	BorderColor #333333
	BackgroundColor #333333-#333333
}


skinparam agent {
	BackgroundColor #ff8000
	BorderColor #ff9933
	FontColor #484848
}


skinparam note {
	BorderThickness 1
	BackgroundColor #1b1b1a
	BorderColor #5e5e5e
	FontSize 11
	FontColor #a0a0a0
}


skinparam artifact {
	BorderThickness 10
	BorderColor #5e5e5e
	BackgroundColor #1b1b1a
	FontColor #D8Bc00
}


skinparam component {
		FontColor #C8Ac00
	BorderColor #333333
	BackgroundColor #333333-#333333
}


skinparam interface {
	BackgroundColor  #008400
	BorderColor  #007F00
	FontColor #484848
}


skinparam storage {
	BackgroundColor #ff8000
  	BorderColor #cc6600
	FontColor #222222
}


skinparam node {
	BackgroundColor #333333
	BorderColor #333333
	FontColor #C8Ac00
}


skinparam cloud {
	BackgroundColor #484848-black
	BorderColor #484848
	FontColor #D8Bc00
}


skinparam database {
		FontColor #C8Ac00
	BorderColor #333333
	BackgroundColor #333333-#333333
	BackgroundColor  #333333
}


skinparam class {
		FontColor #C8Ac00
	BorderColor #333333
	BackgroundColor #333333-#333333
	HeaderBackgroundColor #1b1b1a
    BackgroundColor #282828
    BorderColor #5e5e5e
 	StereotypeFontColor #a0a0a0
    StereotypeFontStyle bold
	BorderThickness 1
	AttributeFontColor #D8Bc00
	AttributeFontSize 11
    FontColor #D8Bc00
    FontStyle bold
}


skinparam object {
		FontColor #C8Ac00
	BorderColor #333333
	BackgroundColor #333333-#333333
	StereotypeFontColor #484848
	BorderThickness 1
	AttributeFontColor #fefefe
	AttributeFontSize 11
}


skinparam usecase {
		FontColor #C8Ac00
	BorderColor #333333
	BackgroundColor #333333-#333333
	BorderThickness 2
	StereotypeFontColor #303030
}


skinparam rectangle {
		FontColor #C8Ac00
	BorderColor #333333
	BackgroundColor #333333-#333333
	BackgroundColor #333333
	BorderThickness 2
	StereotypeFontColor #303030
}


skinparam package {
		FontColor #C8Ac00
	BorderColor #333333
	BackgroundColor #333333-#333333
	BackgroundColor #333333
	BorderThickness 2
}


skinparam folder {
	BackgroundColor #6d6d6d
  	BorderColor #ff8000
	FontColor #ff8000
	BorderThickness 2
}


skinparam frame {
	BackgroundColor #6d6d6d
  	BorderColor #0060a8
	FontColor #0060a8
	BorderThickness 2
}


skinparam state {
		FontColor #C8Ac00
	BorderColor #333333
	BackgroundColor #333333-#333333
	StartColor #0060a8
	EndColor #0060a8
	AttributeFontColor #fefefe
	AttributeFontSize 11
}


skinparam queue {
		FontColor #C8Ac00
	BorderColor #333333
	BackgroundColor #333333-#333333
}


skinparam card {
	BackgroundColor #0060a8
	BorderColor #004d86
	FontColor $INFO_TEXT
}


skinparam file {
	BackgroundColor #6d6d6d-#484848
	BorderColor #0060a8
	FontColor #fefefe
}


skinparam stack {
		FontColor #C8Ac00
	BorderColor #333333
	BackgroundColor #333333-#333333
}

    
    title "kivakit-serialization-kryo"
    
    artifact kryo
    artifact minlog
    artifact reflectasm
    artifact jackson_annotations
    artifact cactus_build_metadata
    artifact kivakit_kernel
    artifact kivakit_serialization_core
    artifact kivakit_serialization_kryo
    artifact kivakit_test
    artifact lexakai_annotations
    artifact kryo_serializers
    artifact swagger_annotations
    artifact junit
    artifact hamcrest_core
    artifact annotations
    artifact objenesis
    artifact asm
    junit - -> hamcrest_core
    kivakit_kernel - -> annotations
    kivakit_kernel - -> cactus_build_metadata
    kivakit_kernel - -> jackson_annotations
    kivakit_kernel - -> junit
    kivakit_kernel - -> lexakai_annotations
    kivakit_kernel - -> swagger_annotations
    kivakit_serialization_core - -> kivakit_kernel
    kivakit_serialization_kryo - -> kivakit_serialization_core
    kivakit_serialization_kryo - -> kivakit_test
    kivakit_serialization_kryo - -> kryo
    kivakit_serialization_kryo - -> kryo_serializers
    kryo - -> minlog
    kryo - -> objenesis
    kryo - -> reflectasm
    reflectasm - -> asm
    
@enduml

PlantUML version 1.2021.01(Tue Feb 02 00:55:08 MST 2021)
(GPL source distribution)
Java Runtime: Java(TM) SE Runtime Environment
JVM: Java HotSpot(TM) 64-Bit Server VM
Default Encoding: UTF-8
Language: en
Country: US
--></g></svg>