<?xml version="1.0" encoding="UTF-8" standalone="no"?><svg xmlns="http://www.w3.org/2000/svg" xmlns:xlink="http://www.w3.org/1999/xlink" contentScriptType="application/ecmascript" contentStyleType="text/css" height="254.1667px" preserveAspectRatio="none" style="width:1711px;height:254px;background:#333333;" version="1.1" viewBox="0 0 1711 254" width="1711.4583px" zoomAndPan="magnify"><defs/><g><rect fill="#48494B" height="41.2028" rx="8.3333" ry="8.3333" style="stroke:#545454;stroke-width:1.0416666666666667;" width="506.25" x="595.3125" y="2.0833"/><text fill="#C0C0C0" font-family="Open Sans,Avenir,Nunito,Arial,Helvetica,SansSerif" font-size="20.8333" lengthAdjust="spacing" textLength="483.3333" x="606.7708" y="30.5583">com.telenav.kivakit.serialization.gson.serializers</text><!--MD5=[9de60207c76e1bae7fa69c76e15bc4fc]
class JsonSerializerDeserializer--><rect codeLine="7" fill="#282828" height="48.055" id="JsonSerializerDeserializer" rx="8.3333" ry="8.3333" style="stroke:#5E5E5E;stroke-width:1.0416666666666667;" width="203.125" x="80.2083" y="53.7028"/><rect fill="#1B1B1A" height="31.3883" rx="8.3333" ry="8.3333" style="stroke:#1B1B1A;stroke-width:1.0416666666666667;" width="203.125" x="80.2083" y="53.7028"/><rect fill="#1B1B1A" height="8.3333" style="stroke:#1B1B1A;stroke-width:1.0416666666666667;" width="203.125" x="80.2083" y="76.7578"/><rect codeLine="7" fill="none" height="48.055" id="JsonSerializerDeserializer" rx="8.3333" ry="8.3333" style="stroke:#5E5E5E;stroke-width:1.0416666666666667;" width="203.125" x="80.2083" y="53.7028"/><ellipse cx="94.7917" cy="69.397" fill="#008400" rx="10.4167" ry="10.4167" style="stroke:#239C23;stroke-width:1.0416666666666667;"/><path d="M92.1956,66.5588 L92.1956,64.9719 L97.6217,64.9719 L97.6217,66.5588 L95.8089,66.5588 L95.8089,72.4976 L97.6217,72.4976 L97.6217,74.0845 L92.1956,74.0845 L92.1956,72.4976 L94.0084,72.4976 L94.0084,66.5588 Z " fill="#000000"/><text fill="#D8BC00" font-family="Open Sans,Avenir,Nunito,Arial,Helvetica,SansSerif" font-size="12.5" font-style="italic" font-weight="bold" lengthAdjust="spacing" textLength="165.625" x="111.4583" y="74.1211">JsonSerializerDeserializer</text><line style="stroke:#5E5E5E;stroke-width:1.0416666666666667;" x1="81.25" x2="282.2917" y1="85.0911" y2="85.0911"/><line style="stroke:#5E5E5E;stroke-width:1.0416666666666667;" x1="81.25" x2="282.2917" y1="93.4245" y2="93.4245"/><!--MD5=[3a02e24aed122bd624ab5f4d81125687]
class PrimitiveGsonSerializer--><rect fill="#282828" height="48.055" id="PrimitiveGsonSerializer" rx="8.3333" ry="8.3333" style="stroke:#5E5E5E;stroke-width:1.0416666666666667;" width="187.5" x="865.1042" y="53.7028"/><rect fill="#1B1B1A" height="31.3883" rx="8.3333" ry="8.3333" style="stroke:#1B1B1A;stroke-width:1.0416666666666667;" width="187.5" x="865.1042" y="53.7028"/><rect fill="#1B1B1A" height="8.3333" style="stroke:#1B1B1A;stroke-width:1.0416666666666667;" width="187.5" x="865.1042" y="76.7578"/><rect fill="none" height="48.055" id="PrimitiveGsonSerializer" rx="8.3333" ry="8.3333" style="stroke:#5E5E5E;stroke-width:1.0416666666666667;" width="187.5" x="865.1042" y="53.7028"/><ellipse cx="879.6875" cy="69.397" fill="#0066CF" rx="10.4167" ry="10.4167" style="stroke:#0086EF;stroke-width:1.0416666666666667;"/><path d="M881.5979,73.822 Q881.1707,74.0417 880.7007,74.1516 Q880.2307,74.2615 879.7119,74.2615 Q877.8687,74.2615 876.8982,73.0469 Q875.9277,71.8323 875.9277,69.5374 Q875.9277,67.2363 876.8982,66.0217 Q877.8687,64.8071 879.7119,64.8071 Q880.2307,64.8071 880.7068,64.917 Q881.1829,65.0269 881.5979,65.2466 L881.5979,67.2485 Q881.134,66.8213 880.6976,66.6229 Q880.2612,66.4246 879.7974,66.4246 Q878.8086,66.4246 878.3051,67.2089 Q877.8015,67.9932 877.8015,69.5374 Q877.8015,71.0754 878.3051,71.8597 Q878.8086,72.644 879.7974,72.644 Q880.2612,72.644 880.6976,72.4457 Q881.134,72.2473 881.5979,71.8201 Z " fill="#000000"/><text fill="#D8BC00" font-family="Open Sans,Avenir,Nunito,Arial,Helvetica,SansSerif" font-size="12.5" font-weight="bold" lengthAdjust="spacing" textLength="150" x="896.3542" y="74.1211">PrimitiveGsonSerializer</text><line style="stroke:#5E5E5E;stroke-width:1.0416666666666667;" x1="866.1458" x2="1051.5625" y1="85.0911" y2="85.0911"/><line style="stroke:#5E5E5E;stroke-width:1.0416666666666667;" x1="866.1458" x2="1051.5625" y1="93.4245" y2="93.4245"/><!--MD5=[5d666cca30bb25e702868a8c6093b523]
class CountGsonSerializer--><rect codeLine="10" fill="#282828" height="83.3781" id="CountGsonSerializer" rx="8.3333" ry="8.3333" style="stroke:#5E5E5E;stroke-width:1.0416666666666667;" width="169.7917" x="392.7083" y="164.1195"/><rect fill="#1B1B1A" height="31.3883" rx="8.3333" ry="8.3333" style="stroke:#1B1B1A;stroke-width:1.0416666666666667;" width="169.7917" x="392.7083" y="164.1195"/><rect fill="#1B1B1A" height="8.3333" style="stroke:#1B1B1A;stroke-width:1.0416666666666667;" width="169.7917" x="392.7083" y="187.1745"/><rect codeLine="10" fill="none" height="83.3781" id="CountGsonSerializer" rx="8.3333" ry="8.3333" style="stroke:#5E5E5E;stroke-width:1.0416666666666667;" width="169.7917" x="392.7083" y="164.1195"/><ellipse cx="407.2917" cy="179.8136" fill="#0066CF" rx="10.4167" ry="10.4167" style="stroke:#0086EF;stroke-width:1.0416666666666667;"/><path d="M409.2021,184.2387 Q408.7748,184.4584 408.3049,184.5683 Q407.8349,184.6781 407.3161,184.6781 Q405.4728,184.6781 404.5024,183.4635 Q403.5319,182.2489 403.5319,179.954 Q403.5319,177.653 404.5024,176.4384 Q405.4728,175.2238 407.3161,175.2238 Q407.8349,175.2238 408.311,175.3337 Q408.787,175.4435 409.2021,175.6632 L409.2021,177.6652 Q408.7382,177.238 408.3018,177.0396 Q407.8654,176.8412 407.4015,176.8412 Q406.4128,176.8412 405.9092,177.6255 Q405.4057,178.4098 405.4057,179.954 Q405.4057,181.4921 405.9092,182.2764 Q406.4128,183.0607 407.4015,183.0607 Q407.8654,183.0607 408.3018,182.8623 Q408.7382,182.664 409.2021,182.2367 Z " fill="#000000"/><text fill="#D8BC00" font-family="Open Sans,Avenir,Nunito,Arial,Helvetica,SansSerif" font-size="12.5" font-weight="bold" lengthAdjust="spacing" textLength="132.2917" x="423.9583" y="184.5378">CountGsonSerializer</text><line style="stroke:#5E5E5E;stroke-width:1.5625;" x1="393.75" x2="561.4583" y1="195.5078" y2="195.5078"/><ellipse cx="404.1667" cy="230.8777" fill="#84BE84" rx="3.125" ry="3.125" style="stroke:#038048;stroke-width:1.0416666666666667;"/><text fill="#D8BC00" font-family="Open Sans,Avenir,Nunito,Arial,Helvetica,SansSerif" font-size="11.4583" lengthAdjust="spacing" textLength="122.9167" x="415.625" y="237.7889">CountGsonSerializer()</text><line style="stroke:#5E5E5E;stroke-width:1.0416666666666667;" x1="393.75" x2="433.8542" y1="213.7136" y2="213.7136"/><text fill="#D8BC00" font-family="Open Sans,Avenir,Nunito,Arial,Helvetica,SansSerif" font-size="11.4583" lengthAdjust="spacing" textLength="81.25" x="436.9792" y="217.5232">(constructors)</text><line style="stroke:#5E5E5E;stroke-width:1.0416666666666667;" x1="521.3542" x2="561.4583" y1="213.7136" y2="213.7136"/><!--MD5=[e3a76fc29eabf98471c5af9efc903d71]
class LocalTimeGsonSerializer--><rect codeLine="17" fill="#282828" height="83.3781" id="LocalTimeGsonSerializer" rx="8.3333" ry="8.3333" style="stroke:#5E5E5E;stroke-width:1.0416666666666667;" width="195.8333" x="599.4792" y="164.1195"/><rect fill="#1B1B1A" height="31.3883" rx="8.3333" ry="8.3333" style="stroke:#1B1B1A;stroke-width:1.0416666666666667;" width="195.8333" x="599.4792" y="164.1195"/><rect fill="#1B1B1A" height="8.3333" style="stroke:#1B1B1A;stroke-width:1.0416666666666667;" width="195.8333" x="599.4792" y="187.1745"/><rect codeLine="17" fill="none" height="83.3781" id="LocalTimeGsonSerializer" rx="8.3333" ry="8.3333" style="stroke:#5E5E5E;stroke-width:1.0416666666666667;" width="195.8333" x="599.4792" y="164.1195"/><ellipse cx="614.0625" cy="179.8136" fill="#0066CF" rx="10.4167" ry="10.4167" style="stroke:#0086EF;stroke-width:1.0416666666666667;"/><path d="M615.9729,184.2387 Q615.5457,184.4584 615.0757,184.5683 Q614.6057,184.6781 614.0869,184.6781 Q612.2437,184.6781 611.2732,183.4635 Q610.3027,182.2489 610.3027,179.954 Q610.3027,177.653 611.2732,176.4384 Q612.2437,175.2238 614.0869,175.2238 Q614.6057,175.2238 615.0818,175.3337 Q615.5579,175.4435 615.9729,175.6632 L615.9729,177.6652 Q615.509,177.238 615.0726,177.0396 Q614.6362,176.8412 614.1724,176.8412 Q613.1836,176.8412 612.6801,177.6255 Q612.1765,178.4098 612.1765,179.954 Q612.1765,181.4921 612.6801,182.2764 Q613.1836,183.0607 614.1724,183.0607 Q614.6362,183.0607 615.0726,182.8623 Q615.509,182.664 615.9729,182.2367 Z " fill="#000000"/><text fill="#D8BC00" font-family="Open Sans,Avenir,Nunito,Arial,Helvetica,SansSerif" font-size="12.5" font-weight="bold" lengthAdjust="spacing" textLength="158.3333" x="630.7292" y="184.5378">LocalTimeGsonSerializer</text><line style="stroke:#5E5E5E;stroke-width:1.5625;" x1="600.5208" x2="794.2708" y1="195.5078" y2="195.5078"/><ellipse cx="610.9375" cy="230.8777" fill="#84BE84" rx="3.125" ry="3.125" style="stroke:#038048;stroke-width:1.0416666666666667;"/><text fill="#D8BC00" font-family="Open Sans,Avenir,Nunito,Arial,Helvetica,SansSerif" font-size="11.4583" lengthAdjust="spacing" textLength="144.7917" x="622.3958" y="237.7889">LocalTimeGsonSerializer()</text><line style="stroke:#5E5E5E;stroke-width:1.0416666666666667;" x1="600.5208" x2="653.6458" y1="213.7136" y2="213.7136"/><text fill="#D8BC00" font-family="Open Sans,Avenir,Nunito,Arial,Helvetica,SansSerif" font-size="11.4583" lengthAdjust="spacing" textLength="81.25" x="656.7708" y="217.5232">(constructors)</text><line style="stroke:#5E5E5E;stroke-width:1.0416666666666667;" x1="741.1458" x2="794.2708" y1="213.7136" y2="213.7136"/><!--MD5=[fcdb977b0f33c9032085054939d2a7c0]
class ProblemGsonSerializer--><rect codeLine="24" fill="#282828" height="83.3781" id="ProblemGsonSerializer" rx="8.3333" ry="8.3333" style="stroke:#5E5E5E;stroke-width:1.0416666666666667;" width="254.1667" x="831.7708" y="164.1195"/><rect fill="#1B1B1A" height="31.3883" rx="8.3333" ry="8.3333" style="stroke:#1B1B1A;stroke-width:1.0416666666666667;" width="254.1667" x="831.7708" y="164.1195"/><rect fill="#1B1B1A" height="8.3333" style="stroke:#1B1B1A;stroke-width:1.0416666666666667;" width="254.1667" x="831.7708" y="187.1745"/><rect codeLine="24" fill="none" height="83.3781" id="ProblemGsonSerializer" rx="8.3333" ry="8.3333" style="stroke:#5E5E5E;stroke-width:1.0416666666666667;" width="254.1667" x="831.7708" y="164.1195"/><ellipse cx="878.6458" cy="179.8136" fill="#0066CF" rx="10.4167" ry="10.4167" style="stroke:#0086EF;stroke-width:1.0416666666666667;"/><path d="M880.5562,184.2387 Q880.129,184.4584 879.659,184.5683 Q879.189,184.6781 878.6702,184.6781 Q876.827,184.6781 875.8565,183.4635 Q874.8861,182.2489 874.8861,179.954 Q874.8861,177.653 875.8565,176.4384 Q876.827,175.2238 878.6702,175.2238 Q879.189,175.2238 879.6651,175.3337 Q880.1412,175.4435 880.5562,175.6632 L880.5562,177.6652 Q880.0924,177.238 879.656,177.0396 Q879.2196,176.8412 878.7557,176.8412 Q877.7669,176.8412 877.2634,177.6255 Q876.7598,178.4098 876.7598,179.954 Q876.7598,181.4921 877.2634,182.2764 Q877.7669,183.0607 878.7557,183.0607 Q879.2196,183.0607 879.656,182.8623 Q880.0924,182.664 880.5562,182.2367 Z " fill="#000000"/><text fill="#D8BC00" font-family="Open Sans,Avenir,Nunito,Arial,Helvetica,SansSerif" font-size="12.5" font-weight="bold" lengthAdjust="spacing" textLength="145.8333" x="901.5625" y="184.5378">ProblemGsonSerializer</text><line style="stroke:#5E5E5E;stroke-width:1.5625;" x1="832.8125" x2="1084.8958" y1="195.5078" y2="195.5078"/><ellipse cx="843.2292" cy="230.8777" fill="#84BE84" rx="3.125" ry="3.125" style="stroke:#038048;stroke-width:1.0416666666666667;"/><text fill="#D8BC00" font-family="Open Sans,Avenir,Nunito,Arial,Helvetica,SansSerif" font-size="11.4583" lengthAdjust="spacing" textLength="221.875" x="854.6875" y="237.7889">ProblemGsonSerializer(MessageFormat)</text><line style="stroke:#5E5E5E;stroke-width:1.0416666666666667;" x1="832.8125" x2="915.1042" y1="213.7136" y2="213.7136"/><text fill="#D8BC00" font-family="Open Sans,Avenir,Nunito,Arial,Helvetica,SansSerif" font-size="11.4583" lengthAdjust="spacing" textLength="81.25" x="918.2292" y="217.5232">(constructors)</text><line style="stroke:#5E5E5E;stroke-width:1.0416666666666667;" x1="1002.6042" x2="1084.8958" y1="213.7136" y2="213.7136"/><!--MD5=[2c5472d55dc10e6cb3690bf84f88b1d6]
class StringConverterGsonSerializer--><rect codeLine="31" fill="#282828" height="83.3781" id="StringConverterGsonSerializer" rx="8.3333" ry="8.3333" style="stroke:#5E5E5E;stroke-width:1.0416666666666667;" width="348.9583" x="7.2917" y="164.1195"/><rect fill="#1B1B1A" height="31.3883" rx="8.3333" ry="8.3333" style="stroke:#1B1B1A;stroke-width:1.0416666666666667;" width="348.9583" x="7.2917" y="164.1195"/><rect fill="#1B1B1A" height="8.3333" style="stroke:#1B1B1A;stroke-width:1.0416666666666667;" width="348.9583" x="7.2917" y="187.1745"/><rect codeLine="31" fill="none" height="83.3781" id="StringConverterGsonSerializer" rx="8.3333" ry="8.3333" style="stroke:#5E5E5E;stroke-width:1.0416666666666667;" width="348.9583" x="7.2917" y="164.1195"/><ellipse cx="54.1667" cy="179.8136" fill="#0066CF" rx="10.4167" ry="10.4167" style="stroke:#0086EF;stroke-width:1.0416666666666667;"/><path d="M56.0771,184.2387 Q55.6498,184.4584 55.1799,184.5683 Q54.7099,184.6781 54.1911,184.6781 Q52.3478,184.6781 51.3774,183.4635 Q50.4069,182.2489 50.4069,179.954 Q50.4069,177.653 51.3774,176.4384 Q52.3478,175.2238 54.1911,175.2238 Q54.7099,175.2238 55.186,175.3337 Q55.662,175.4435 56.0771,175.6632 L56.0771,177.6652 Q55.6132,177.238 55.1768,177.0396 Q54.7404,176.8412 54.2765,176.8412 Q53.2878,176.8412 52.7842,177.6255 Q52.2807,178.4098 52.2807,179.954 Q52.2807,181.4921 52.7842,182.2764 Q53.2878,183.0607 54.2765,183.0607 Q54.7404,183.0607 55.1768,182.8623 Q55.6132,182.664 56.0771,182.2367 Z " fill="#000000"/><text fill="#D8BC00" font-family="Open Sans,Avenir,Nunito,Arial,Helvetica,SansSerif" font-size="12.5" font-weight="bold" lengthAdjust="spacing" textLength="194.7917" x="77.0833" y="184.5378">StringConverterGsonSerializer</text><rect fill="#333333" height="23.055" style="stroke:#A0A0A0;stroke-width:1.0416666666666667;stroke-dasharray:2.0,2.0;" width="43.75" x="315.625" y="160.9945"/><text fill="#A0A0A0" font-family="Open Sans,Avenir,Nunito,Arial,Helvetica,SansSerif" font-size="12.5" font-weight="bold" lengthAdjust="spacing" textLength="35.4167" x="319.7917" y="177.2461">Value</text><line style="stroke:#5E5E5E;stroke-width:1.5625;" x1="8.3333" x2="355.2083" y1="195.5078" y2="195.5078"/><ellipse cx="18.75" cy="230.8777" fill="#84BE84" rx="3.125" ry="3.125" style="stroke:#038048;stroke-width:1.0416666666666667;"/><text fill="#D8BC00" font-family="Open Sans,Avenir,Nunito,Arial,Helvetica,SansSerif" font-size="11.4583" lengthAdjust="spacing" textLength="316.6667" x="30.2083" y="237.7889">StringConverterGsonSerializer(StringConverter&lt;Value&gt;)</text><line style="stroke:#5E5E5E;stroke-width:1.0416666666666667;" x1="8.3333" x2="138.0208" y1="213.7136" y2="213.7136"/><text fill="#D8BC00" font-family="Open Sans,Avenir,Nunito,Arial,Helvetica,SansSerif" font-size="11.4583" lengthAdjust="spacing" textLength="81.25" x="141.1458" y="217.5232">(constructors)</text><line style="stroke:#5E5E5E;stroke-width:1.0416666666666667;" x1="225.5208" x2="355.2083" y1="213.7136" y2="213.7136"/><!--MD5=[c8b1714211c6b8a8a829178de7d06fb7]
class TimeInMillisecondsGsonSerializer--><rect codeLine="38" fill="#282828" height="83.3781" id="TimeInMillisecondsGsonSerializer" rx="8.3333" ry="8.3333" style="stroke:#5E5E5E;stroke-width:1.0416666666666667;" width="256.25" x="1122.3958" y="164.1195"/><rect fill="#1B1B1A" height="31.3883" rx="8.3333" ry="8.3333" style="stroke:#1B1B1A;stroke-width:1.0416666666666667;" width="256.25" x="1122.3958" y="164.1195"/><rect fill="#1B1B1A" height="8.3333" style="stroke:#1B1B1A;stroke-width:1.0416666666666667;" width="256.25" x="1122.3958" y="187.1745"/><rect codeLine="38" fill="none" height="83.3781" id="TimeInMillisecondsGsonSerializer" rx="8.3333" ry="8.3333" style="stroke:#5E5E5E;stroke-width:1.0416666666666667;" width="256.25" x="1122.3958" y="164.1195"/><ellipse cx="1136.9792" cy="179.8136" fill="#0066CF" rx="10.4167" ry="10.4167" style="stroke:#0086EF;stroke-width:1.0416666666666667;"/><path d="M1138.8896,184.2387 Q1138.4623,184.4584 1137.9924,184.5683 Q1137.5224,184.6781 1137.0036,184.6781 Q1135.1603,184.6781 1134.1899,183.4635 Q1133.2194,182.2489 1133.2194,179.954 Q1133.2194,177.653 1134.1899,176.4384 Q1135.1603,175.2238 1137.0036,175.2238 Q1137.5224,175.2238 1137.9985,175.3337 Q1138.4745,175.4435 1138.8896,175.6632 L1138.8896,177.6652 Q1138.4257,177.238 1137.9893,177.0396 Q1137.5529,176.8412 1137.089,176.8412 Q1136.1003,176.8412 1135.5967,177.6255 Q1135.0932,178.4098 1135.0932,179.954 Q1135.0932,181.4921 1135.5967,182.2764 Q1136.1003,183.0607 1137.089,183.0607 Q1137.5529,183.0607 1137.9893,182.8623 Q1138.4257,182.664 1138.8896,182.2367 Z " fill="#000000"/><text fill="#D8BC00" font-family="Open Sans,Avenir,Nunito,Arial,Helvetica,SansSerif" font-size="12.5" font-weight="bold" lengthAdjust="spacing" textLength="218.75" x="1153.6458" y="184.5378">TimeInMillisecondsGsonSerializer</text><line style="stroke:#5E5E5E;stroke-width:1.5625;" x1="1123.4375" x2="1377.6042" y1="195.5078" y2="195.5078"/><ellipse cx="1133.8542" cy="230.8777" fill="#84BE84" rx="3.125" ry="3.125" style="stroke:#038048;stroke-width:1.0416666666666667;"/><text fill="#D8BC00" font-family="Open Sans,Avenir,Nunito,Arial,Helvetica,SansSerif" font-size="11.4583" lengthAdjust="spacing" textLength="194.7917" x="1145.3125" y="237.7889">TimeInMillisecondsGsonSerializer()</text><line style="stroke:#5E5E5E;stroke-width:1.0416666666666667;" x1="1123.4375" x2="1206.7708" y1="213.7136" y2="213.7136"/><text fill="#D8BC00" font-family="Open Sans,Avenir,Nunito,Arial,Helvetica,SansSerif" font-size="11.4583" lengthAdjust="spacing" textLength="81.25" x="1209.8958" y="217.5232">(constructors)</text><line style="stroke:#5E5E5E;stroke-width:1.0416666666666667;" x1="1294.2708" x2="1377.6042" y1="213.7136" y2="213.7136"/><!--MD5=[5fe4d4ca5a27bb40974969e683626f60]
class UtcTimeInKivaKitFormatGsonSerializer--><rect codeLine="45" fill="#282828" height="83.3781" id="UtcTimeInKivaKitFormatGsonSerializer" rx="8.3333" ry="8.3333" style="stroke:#5E5E5E;stroke-width:1.0416666666666667;" width="288.5417" x="1415.625" y="164.1195"/><rect fill="#1B1B1A" height="31.3883" rx="8.3333" ry="8.3333" style="stroke:#1B1B1A;stroke-width:1.0416666666666667;" width="288.5417" x="1415.625" y="164.1195"/><rect fill="#1B1B1A" height="8.3333" style="stroke:#1B1B1A;stroke-width:1.0416666666666667;" width="288.5417" x="1415.625" y="187.1745"/><rect codeLine="45" fill="none" height="83.3781" id="UtcTimeInKivaKitFormatGsonSerializer" rx="8.3333" ry="8.3333" style="stroke:#5E5E5E;stroke-width:1.0416666666666667;" width="288.5417" x="1415.625" y="164.1195"/><ellipse cx="1430.2083" cy="179.8136" fill="#0066CF" rx="10.4167" ry="10.4167" style="stroke:#0086EF;stroke-width:1.0416666666666667;"/><path d="M1432.1187,184.2387 Q1431.6915,184.4584 1431.2215,184.5683 Q1430.7515,184.6781 1430.2327,184.6781 Q1428.3895,184.6781 1427.419,183.4635 Q1426.4486,182.2489 1426.4486,179.954 Q1426.4486,177.653 1427.419,176.4384 Q1428.3895,175.2238 1430.2327,175.2238 Q1430.7515,175.2238 1431.2276,175.3337 Q1431.7037,175.4435 1432.1187,175.6632 L1432.1187,177.6652 Q1431.6549,177.238 1431.2185,177.0396 Q1430.7821,176.8412 1430.3182,176.8412 Q1429.3294,176.8412 1428.8259,177.6255 Q1428.3223,178.4098 1428.3223,179.954 Q1428.3223,181.4921 1428.8259,182.2764 Q1429.3294,183.0607 1430.3182,183.0607 Q1430.7821,183.0607 1431.2185,182.8623 Q1431.6549,182.664 1432.1187,182.2367 Z " fill="#000000"/><text fill="#D8BC00" font-family="Open Sans,Avenir,Nunito,Arial,Helvetica,SansSerif" font-size="12.5" font-weight="bold" lengthAdjust="spacing" textLength="251.0417" x="1446.875" y="184.5378">UtcTimeInKivaKitFormatGsonSerializer</text><line style="stroke:#5E5E5E;stroke-width:1.5625;" x1="1416.6667" x2="1703.125" y1="195.5078" y2="195.5078"/><ellipse cx="1427.0833" cy="230.8777" fill="#84BE84" rx="3.125" ry="3.125" style="stroke:#038048;stroke-width:1.0416666666666667;"/><text fill="#D8BC00" font-family="Open Sans,Avenir,Nunito,Arial,Helvetica,SansSerif" font-size="11.4583" lengthAdjust="spacing" textLength="221.875" x="1438.5417" y="237.7889">UtcTimeInKivaKitFormatGsonSerializer()</text><line style="stroke:#5E5E5E;stroke-width:1.0416666666666667;" x1="1416.6667" x2="1516.1458" y1="213.7136" y2="213.7136"/><text fill="#D8BC00" font-family="Open Sans,Avenir,Nunito,Arial,Helvetica,SansSerif" font-size="11.4583" lengthAdjust="spacing" textLength="81.25" x="1519.2708" y="217.5232">(constructors)</text><line style="stroke:#5E5E5E;stroke-width:1.0416666666666667;" x1="1603.6458" x2="1703.125" y1="213.7136" y2="213.7136"/><!--MD5=[a47895f0b5db0e8361e06c468f40c27b]
reverse link PrimitiveGsonSerializer to CountGsonSerializer--><path codeLine="9" d="M844.3333,99.8174 C768.7292,114.9215 667.8854,137.2757 580.7292,164.1195 C574.8438,165.932 568.8229,167.9215 562.7813,170.0257 " fill="none" id="PrimitiveGsonSerializer-backto-CountGsonSerializer" style="stroke:#545454;stroke-width:1.5625;"/><polygon fill="none" points="843.1146,92.6299,864.9583,95.7549,845.9271,106.9424,843.1146,92.6299" style="stroke:#545454;stroke-width:1.5625;"/><!--MD5=[ab7482020b8b11870db9995722d22140]
reverse link PrimitiveGsonSerializer to LocalTimeGsonSerializer--><path codeLine="16" d="M892.375,110.7549 C858.75,126.9632 817.5729,146.807 781.7396,164.0778 " fill="none" id="PrimitiveGsonSerializer-backto-LocalTimeGsonSerializer" style="stroke:#545454;stroke-width:1.5625;"/><polygon fill="none" points="889.2708,104.1507,911.1979,101.6715,895.6042,117.2861,889.2708,104.1507" style="stroke:#545454;stroke-width:1.5625;"/><!--MD5=[8b4ce20c765c40962affadae5b3a545e]
reverse link PrimitiveGsonSerializer to ProblemGsonSerializer--><path codeLine="23" d="M958.8542,122.682 C958.8542,136.0778 958.8542,150.7445 958.8542,163.9215 " fill="none" id="PrimitiveGsonSerializer-backto-ProblemGsonSerializer" style="stroke:#545454;stroke-width:1.5625;"/><polygon fill="none" points="951.5625,122.6507,958.8542,101.8174,966.1458,122.6507,951.5625,122.6507" style="stroke:#545454;stroke-width:1.5625;"/><!--MD5=[35cdb9eaa5d07b7e947afe16bae4137d]
reverse link JsonSerializerDeserializer to StringConverterGsonSerializer--><path codeLine="30" d="M181.7708,122.682 C181.7708,136.0778 181.7708,150.7445 181.7708,163.9215 " fill="none" id="JsonSerializerDeserializer-backto-StringConverterGsonSerializer" style="stroke:#545454;stroke-width:1.5625;"/><polygon fill="none" points="174.4792,122.6507,181.7708,101.8174,189.0625,122.6507,174.4792,122.6507" style="stroke:#545454;stroke-width:1.5625;"/><!--MD5=[d2af84b31036c5df97b6920d2959a482]
reverse link PrimitiveGsonSerializer to TimeInMillisecondsGsonSerializer--><path codeLine="37" d="M1031.1771,109.9632 C1069.0208,126.307 1115.8021,146.5257 1156.4271,164.0778 " fill="none" id="PrimitiveGsonSerializer-backto-TimeInMillisecondsGsonSerializer" style="stroke:#545454;stroke-width:1.5625;"/><polygon fill="none" points="1028.2396,116.6299,1012.0104,101.6715,1034.0313,103.2445,1028.2396,116.6299" style="stroke:#545454;stroke-width:1.5625;"/><!--MD5=[375a09daacdafced158bafd787a09c66]
reverse link PrimitiveGsonSerializer to UtcTimeInKivaKitFormatGsonSerializer--><path codeLine="44" d="M1073.4167,99.307 C1162.0938,115.6715 1287.8646,139.7757 1397.3958,164.1195 C1403.3542,165.4424 1409.4375,166.8278 1415.5625,168.2445 " fill="none" id="PrimitiveGsonSerializer-backto-UtcTimeInKivaKitFormatGsonSerializer" style="stroke:#545454;stroke-width:1.5625;"/><polygon fill="none" points="1072,106.4632,1052.8229,95.5257,1074.6354,92.1195,1072,106.4632" style="stroke:#545454;stroke-width:1.5625;"/><!--MD5=[24cd2dff121ae3fa39f9c358177a4f44]
@startuml

    !include lexakai.theme
    
    title "com.telenav.kivakit.serialization.gson.serializers"
    
    interface JsonSerializerDeserializer
    
    PrimitiveGsonSerializer <|- - CountGsonSerializer
    class CountGsonSerializer
    {
        - -(constructors)- -
        +CountGsonSerializer()
    }
    
    PrimitiveGsonSerializer <|- - LocalTimeGsonSerializer
    class LocalTimeGsonSerializer
    {
        - -(constructors)- -
        +LocalTimeGsonSerializer()
    }
    
    PrimitiveGsonSerializer <|- - ProblemGsonSerializer
    class ProblemGsonSerializer
    {
        - -(constructors)- -
        +ProblemGsonSerializer(MessageFormat)
    }
    
    JsonSerializerDeserializer <|- - StringConverterGsonSerializer
    class StringConverterGsonSerializer<Value>
    {
        - -(constructors)- -
        +StringConverterGsonSerializer(StringConverter<Value>)
    }
    
    PrimitiveGsonSerializer <|- - TimeInMillisecondsGsonSerializer
    class TimeInMillisecondsGsonSerializer
    {
        - -(constructors)- -
        +TimeInMillisecondsGsonSerializer()
    }
    
    PrimitiveGsonSerializer <|- - UtcTimeInKivaKitFormatGsonSerializer
    class UtcTimeInKivaKitFormatGsonSerializer
    {
        - -(constructors)- -
        +UtcTimeInKivaKitFormatGsonSerializer()
    }
    
@enduml

@startuml









skinparam backgroundColor #333333






skinparam  {
    defaultFontName   "Open Sans,Avenir,Nunito,Arial,Helvetica,SansSerif"
    defaultFontSize   12
    defaultTextAlignment left
    shadowing false
    RoundCorner 10
    TitleFontSize 18
}

skinparam defaultFontName       "Open Sans,Avenir,Nunito,Arial,Helvetica,SansSerif"
skinparam defaultFontSize       12
skinparam dpi                   100
skinparam shadowing             false
skinparam roundcorner           16
skinparam ParticipantPadding    40
skinparam BoxPadding            40
skinparam Padding               3
skinparam ArrowColor            #545454
skinparam stereotype {
    CBackgroundColor #0066cf
    CBorderColor #0086ef
    ABackgroundColor #C8Ac00
    ABorderColor #D8Bc00
    IBackgroundColor #008400
    IBorderColor #239c23
    EBackgroundColor #cf6300
    EBorderColor #ef8300
    NBackgroundColor #3380b9
    NBorderColor #004d86
}
skinparam title {
	FontColor	                 #c0c0c0
 	BorderColor                  #545454
	FontSize	    	         20
	BorderRoundCorner            16
	BorderThickness 	         1
	BackgroundColor              #48494b
}


skinparam legend {
	BackgroundColor #303030
	BorderColor #404040
	FontColor #a0a0a0
}

	skinparam swimlane {
	BorderColor #5e5e5e
	BorderThickness 2
	TitleBackgroundColor  #6d6d6d-#484848
	TitleFontColor #303030
}

skinparam activity {
		FontColor #C8Ac00
	BorderColor #333333
	BackgroundColor #333333-#333333
	BarColor #00FF00
	StartColor #0060a8
	EndColor #0060a8
	DiamondBackgroundColor #6d6d6d-#3a3a3a
  	DiamondBorderColor #3a3a3a
  	DiamondFontColor #fefefe
}


skinparam participant {
		FontColor #C8Ac00
	BorderColor #333333
	BackgroundColor #333333-#333333
	ParticipantBorderThickness 2
}


skinparam actor {
		FontColor #C8Ac00
	BorderColor #333333
	BackgroundColor #333333-#333333
}


skinparam arrow {
	Thickness 1.5
	Color #545454
	FontColor #a0a0a0
    FontStyle bold
    MessageAlignment center
}



skinparam sequence {
	BorderColor #303030
	TitleFontColor #303030
	BackgroundColor #333333
	StartColor #303030
	EndColor #303030
	BoxBackgroundColor #333333
	BoxBorderColor #484848
	BoxFontColor #484848
	LifeLineBorderColor #484848
	LifeLineBorderThickness 2
	LifeLineBackgroundColor #3a3a3a
	GroupBorderColor #484848
	GroupFontColor #484848
	GroupHeaderFontColor #0060a8
	GroupBackgroundColor #484848
	GroupHeaderBackgroundColor #333333
	DividerBackgroundColor #484848
    DividerBorderColor #484848
    DividerBorderThickness 2
    DividerFontColor #D8Bc00
	ReferenceBackgroundColor #333333
	ReferenceBorderColor #484848
	ReferenceFontColor #fefefe
	ReferenceHeaderBackgroundColor #484848
}


skinparam partition {
	BorderColor #303030
	FontColor #333333
	BackgroundColor #333333
}


skinparam collections {
		FontColor #C8Ac00
	BorderColor #333333
	BackgroundColor #333333-#333333
}


skinparam control {
		FontColor #C8Ac00
	BorderColor #333333
	BackgroundColor #333333-#333333
}


skinparam entity {
		FontColor #C8Ac00
	BorderColor #333333
	BackgroundColor #333333-#333333
}


skinparam boundary {
		FontColor #C8Ac00
	BorderColor #333333
	BackgroundColor #333333-#333333
}


skinparam agent {
	BackgroundColor #ff8000
	BorderColor #ff9933
	FontColor #484848
}


skinparam note {
	BorderThickness 1
	BackgroundColor #1b1b1a
	BorderColor #5e5e5e
	FontSize 11
	FontColor #a0a0a0
}


skinparam artifact {
	BorderThickness 10
	BorderColor #5e5e5e
	BackgroundColor #1b1b1a
	FontColor #D8Bc00
}


skinparam component {
		FontColor #C8Ac00
	BorderColor #333333
	BackgroundColor #333333-#333333
}


skinparam interface {
	BackgroundColor  #008400
	BorderColor  #007F00
	FontColor #484848
}


skinparam storage {
	BackgroundColor #ff8000
  	BorderColor #cc6600
	FontColor #222222
}


skinparam node {
	BackgroundColor #333333
	BorderColor #333333
	FontColor #C8Ac00
}


skinparam cloud {
	BackgroundColor #484848-black
	BorderColor #484848
	FontColor #D8Bc00
}


skinparam database {
		FontColor #C8Ac00
	BorderColor #333333
	BackgroundColor #333333-#333333
	BackgroundColor  #333333
}


skinparam class {
		FontColor #C8Ac00
	BorderColor #333333
	BackgroundColor #333333-#333333
	HeaderBackgroundColor #1b1b1a
    BackgroundColor #282828
    BorderColor #5e5e5e
 	StereotypeFontColor #a0a0a0
    StereotypeFontStyle bold
	BorderThickness 1
	AttributeFontColor #D8Bc00
	AttributeFontSize 11
    FontColor #D8Bc00
    FontStyle bold
}


skinparam object {
		FontColor #C8Ac00
	BorderColor #333333
	BackgroundColor #333333-#333333
	StereotypeFontColor #484848
	BorderThickness 1
	AttributeFontColor #fefefe
	AttributeFontSize 11
}


skinparam usecase {
		FontColor #C8Ac00
	BorderColor #333333
	BackgroundColor #333333-#333333
	BorderThickness 2
	StereotypeFontColor #303030
}


skinparam rectangle {
		FontColor #C8Ac00
	BorderColor #333333
	BackgroundColor #333333-#333333
	BackgroundColor #333333
	BorderThickness 2
	StereotypeFontColor #303030
}


skinparam package {
		FontColor #C8Ac00
	BorderColor #333333
	BackgroundColor #333333-#333333
	BackgroundColor #333333
	BorderThickness 2
}


skinparam folder {
	BackgroundColor #6d6d6d
  	BorderColor #ff8000
	FontColor #ff8000
	BorderThickness 2
}


skinparam frame {
	BackgroundColor #6d6d6d
  	BorderColor #0060a8
	FontColor #0060a8
	BorderThickness 2
}


skinparam state {
		FontColor #C8Ac00
	BorderColor #333333
	BackgroundColor #333333-#333333
	StartColor #0060a8
	EndColor #0060a8
	AttributeFontColor #fefefe
	AttributeFontSize 11
}


skinparam queue {
		FontColor #C8Ac00
	BorderColor #333333
	BackgroundColor #333333-#333333
}


skinparam card {
	BackgroundColor #0060a8
	BorderColor #004d86
	FontColor $INFO_TEXT
}


skinparam file {
	BackgroundColor #6d6d6d-#484848
	BorderColor #0060a8
	FontColor #fefefe
}


skinparam stack {
		FontColor #C8Ac00
	BorderColor #333333
	BackgroundColor #333333-#333333
}

    
    title "com.telenav.kivakit.serialization.gson.serializers"
    
    interface JsonSerializerDeserializer
    
    PrimitiveGsonSerializer <|- - CountGsonSerializer
    class CountGsonSerializer
    {
        - -(constructors)- -
        +CountGsonSerializer()
    }
    
    PrimitiveGsonSerializer <|- - LocalTimeGsonSerializer
    class LocalTimeGsonSerializer
    {
        - -(constructors)- -
        +LocalTimeGsonSerializer()
    }
    
    PrimitiveGsonSerializer <|- - ProblemGsonSerializer
    class ProblemGsonSerializer
    {
        - -(constructors)- -
        +ProblemGsonSerializer(MessageFormat)
    }
    
    JsonSerializerDeserializer <|- - StringConverterGsonSerializer
    class StringConverterGsonSerializer<Value>
    {
        - -(constructors)- -
        +StringConverterGsonSerializer(StringConverter<Value>)
    }
    
    PrimitiveGsonSerializer <|- - TimeInMillisecondsGsonSerializer
    class TimeInMillisecondsGsonSerializer
    {
        - -(constructors)- -
        +TimeInMillisecondsGsonSerializer()
    }
    
    PrimitiveGsonSerializer <|- - UtcTimeInKivaKitFormatGsonSerializer
    class UtcTimeInKivaKitFormatGsonSerializer
    {
        - -(constructors)- -
        +UtcTimeInKivaKitFormatGsonSerializer()
    }
    
@enduml

PlantUML version 1.2021.01(Tue Feb 02 00:55:08 MST 2021)
(GPL source distribution)
Java Runtime: OpenJDK Runtime Environment
JVM: OpenJDK 64-Bit Server VM
Default Encoding: UTF-8
Language: en
Country: US
--></g></svg>