<?xml version="1.0" encoding="UTF-8" standalone="no"?><svg xmlns="http://www.w3.org/2000/svg" xmlns:xlink="http://www.w3.org/1999/xlink" contentScriptType="application/ecmascript" contentStyleType="text/css" height="317.7083px" preserveAspectRatio="none" style="width:885px;height:317px;background:#333333;" version="1.1" viewBox="0 0 885 317" width="885.4167px" zoomAndPan="magnify"><defs/><g><rect fill="#48494B" height="41.2028" rx="8.3333" ry="8.3333" style="stroke:#545454;stroke-width:1.0416666666666667;" width="397.9167" x="236.7188" y="2.0833"/><text fill="#C0C0C0" font-family="Open Sans,Avenir,Nunito,Arial,Helvetica,SansSerif" font-size="20.8333" lengthAdjust="spacing" textLength="375" x="248.1771" y="30.5583">com.telenav.kivakit.serialization.gson</text><!--MD5=[9de60207c76e1bae7fa69c76e15bc4fc]
class JsonSerializerDeserializer--><rect codeLine="7" fill="#282828" height="48.055" id="JsonSerializerDeserializer" rx="8.3333" ry="8.3333" style="stroke:#5E5E5E;stroke-width:1.0416666666666667;" width="203.125" x="43.2292" y="53.7028"/><rect fill="#1B1B1A" height="31.3883" rx="8.3333" ry="8.3333" style="stroke:#1B1B1A;stroke-width:1.0416666666666667;" width="203.125" x="43.2292" y="53.7028"/><rect fill="#1B1B1A" height="8.3333" style="stroke:#1B1B1A;stroke-width:1.0416666666666667;" width="203.125" x="43.2292" y="76.7578"/><rect codeLine="7" fill="none" height="48.055" id="JsonSerializerDeserializer" rx="8.3333" ry="8.3333" style="stroke:#5E5E5E;stroke-width:1.0416666666666667;" width="203.125" x="43.2292" y="53.7028"/><ellipse cx="57.8125" cy="69.397" fill="#008400" rx="10.4167" ry="10.4167" style="stroke:#239C23;stroke-width:1.0416666666666667;"/><path d="M55.2165,66.5588 L55.2165,64.9719 L60.6425,64.9719 L60.6425,66.5588 L58.8298,66.5588 L58.8298,72.4976 L60.6425,72.4976 L60.6425,74.0845 L55.2165,74.0845 L55.2165,72.4976 L57.0292,72.4976 L57.0292,66.5588 Z " fill="#000000"/><text fill="#D8BC00" font-family="Open Sans,Avenir,Nunito,Arial,Helvetica,SansSerif" font-size="12.5" font-style="italic" font-weight="bold" lengthAdjust="spacing" textLength="165.625" x="74.4792" y="74.1211">JsonSerializerDeserializer</text><line style="stroke:#5E5E5E;stroke-width:1.0416666666666667;" x1="44.2708" x2="245.3125" y1="85.0911" y2="85.0911"/><line style="stroke:#5E5E5E;stroke-width:1.0416666666666667;" x1="44.2708" x2="245.3125" y1="93.4245" y2="93.4245"/><!--MD5=[8c595983eb9c43054b99135b603648e6]
class ObjectSerializer--><rect codeLine="8" fill="#282828" height="48.055" id="ObjectSerializer" rx="8.3333" ry="8.3333" style="stroke:#5E5E5E;stroke-width:1.0416666666666667;" width="138.5417" x="282.8125" y="53.7028"/><rect fill="#1B1B1A" height="31.3883" rx="8.3333" ry="8.3333" style="stroke:#1B1B1A;stroke-width:1.0416666666666667;" width="138.5417" x="282.8125" y="53.7028"/><rect fill="#1B1B1A" height="8.3333" style="stroke:#1B1B1A;stroke-width:1.0416666666666667;" width="138.5417" x="282.8125" y="76.7578"/><rect codeLine="8" fill="none" height="48.055" id="ObjectSerializer" rx="8.3333" ry="8.3333" style="stroke:#5E5E5E;stroke-width:1.0416666666666667;" width="138.5417" x="282.8125" y="53.7028"/><ellipse cx="297.3958" cy="69.397" fill="#008400" rx="10.4167" ry="10.4167" style="stroke:#239C23;stroke-width:1.0416666666666667;"/><path d="M294.7998,66.5588 L294.7998,64.9719 L300.2258,64.9719 L300.2258,66.5588 L298.4131,66.5588 L298.4131,72.4976 L300.2258,72.4976 L300.2258,74.0845 L294.7998,74.0845 L294.7998,72.4976 L296.6125,72.4976 L296.6125,66.5588 Z " fill="#000000"/><text fill="#D8BC00" font-family="Open Sans,Avenir,Nunito,Arial,Helvetica,SansSerif" font-size="12.5" font-style="italic" font-weight="bold" lengthAdjust="spacing" textLength="101.0417" x="314.0625" y="74.1211">ObjectSerializer</text><line style="stroke:#5E5E5E;stroke-width:1.0416666666666667;" x1="283.8542" x2="420.3125" y1="85.0911" y2="85.0911"/><line style="stroke:#5E5E5E;stroke-width:1.0416666666666667;" x1="283.8542" x2="420.3125" y1="93.4245" y2="93.4245"/><!--MD5=[d5ffbea224cb66456f52b11f1b43a3e0]
class TryTrait--><rect codeLine="9" fill="#282828" height="48.055" id="TryTrait" rx="8.3333" ry="8.3333" style="stroke:#5E5E5E;stroke-width:1.0416666666666667;" width="88.5417" x="457.8125" y="53.7028"/><rect fill="#1B1B1A" height="31.3883" rx="8.3333" ry="8.3333" style="stroke:#1B1B1A;stroke-width:1.0416666666666667;" width="88.5417" x="457.8125" y="53.7028"/><rect fill="#1B1B1A" height="8.3333" style="stroke:#1B1B1A;stroke-width:1.0416666666666667;" width="88.5417" x="457.8125" y="76.7578"/><rect codeLine="9" fill="none" height="48.055" id="TryTrait" rx="8.3333" ry="8.3333" style="stroke:#5E5E5E;stroke-width:1.0416666666666667;" width="88.5417" x="457.8125" y="53.7028"/><ellipse cx="472.3958" cy="69.397" fill="#008400" rx="10.4167" ry="10.4167" style="stroke:#239C23;stroke-width:1.0416666666666667;"/><path d="M469.7998,66.5588 L469.7998,64.9719 L475.2258,64.9719 L475.2258,66.5588 L473.4131,66.5588 L473.4131,72.4976 L475.2258,72.4976 L475.2258,74.0845 L469.7998,74.0845 L469.7998,72.4976 L471.6125,72.4976 L471.6125,66.5588 Z " fill="#000000"/><text fill="#D8BC00" font-family="Open Sans,Avenir,Nunito,Arial,Helvetica,SansSerif" font-size="12.5" font-style="italic" font-weight="bold" lengthAdjust="spacing" textLength="51.0417" x="489.0625" y="74.1211">TryTrait</text><line style="stroke:#5E5E5E;stroke-width:1.0416666666666667;" x1="458.8542" x2="545.3125" y1="85.0911" y2="85.0911"/><line style="stroke:#5E5E5E;stroke-width:1.0416666666666667;" x1="458.8542" x2="545.3125" y1="93.4245" y2="93.4245"/><!--MD5=[34eb2c3cd1bd084029c026d450c2586e]
class RegistryTrait--><rect codeLine="10" fill="#282828" height="48.055" id="RegistryTrait" rx="8.3333" ry="8.3333" style="stroke:#5E5E5E;stroke-width:1.0416666666666667;" width="120.8333" x="583.3333" y="53.7028"/><rect fill="#1B1B1A" height="31.3883" rx="8.3333" ry="8.3333" style="stroke:#1B1B1A;stroke-width:1.0416666666666667;" width="120.8333" x="583.3333" y="53.7028"/><rect fill="#1B1B1A" height="8.3333" style="stroke:#1B1B1A;stroke-width:1.0416666666666667;" width="120.8333" x="583.3333" y="76.7578"/><rect codeLine="10" fill="none" height="48.055" id="RegistryTrait" rx="8.3333" ry="8.3333" style="stroke:#5E5E5E;stroke-width:1.0416666666666667;" width="120.8333" x="583.3333" y="53.7028"/><ellipse cx="597.9167" cy="69.397" fill="#008400" rx="10.4167" ry="10.4167" style="stroke:#239C23;stroke-width:1.0416666666666667;"/><path d="M595.3206,66.5588 L595.3206,64.9719 L600.7467,64.9719 L600.7467,66.5588 L598.9339,66.5588 L598.9339,72.4976 L600.7467,72.4976 L600.7467,74.0845 L595.3206,74.0845 L595.3206,72.4976 L597.1334,72.4976 L597.1334,66.5588 Z " fill="#000000"/><text fill="#D8BC00" font-family="Open Sans,Avenir,Nunito,Arial,Helvetica,SansSerif" font-size="12.5" font-style="italic" font-weight="bold" lengthAdjust="spacing" textLength="83.3333" x="614.5833" y="74.1211">RegistryTrait</text><line style="stroke:#5E5E5E;stroke-width:1.0416666666666667;" x1="584.375" x2="703.125" y1="85.0911" y2="85.0911"/><line style="stroke:#5E5E5E;stroke-width:1.0416666666666667;" x1="584.375" x2="703.125" y1="93.4245" y2="93.4245"/><!--MD5=[50d1f76de542c51358fdf92d211dba52]
class GsonObjectSerializer--><rect codeLine="15" fill="#282828" height="103.123" id="GsonObjectSerializer" rx="8.3333" ry="8.3333" style="stroke:#5E5E5E;stroke-width:1.0416666666666667;" width="256.25" x="373.9583" y="185.9945"/><rect fill="#1B1B1A" height="31.3883" rx="8.3333" ry="8.3333" style="stroke:#1B1B1A;stroke-width:1.0416666666666667;" width="256.25" x="373.9583" y="185.9945"/><rect fill="#1B1B1A" height="8.3333" style="stroke:#1B1B1A;stroke-width:1.0416666666666667;" width="256.25" x="373.9583" y="209.0495"/><rect codeLine="15" fill="none" height="103.123" id="GsonObjectSerializer" rx="8.3333" ry="8.3333" style="stroke:#5E5E5E;stroke-width:1.0416666666666667;" width="256.25" x="373.9583" y="185.9945"/><ellipse cx="427.6042" cy="201.6886" fill="#0066CF" rx="10.4167" ry="10.4167" style="stroke:#0086EF;stroke-width:1.0416666666666667;"/><path d="M429.5146,206.1137 Q429.0873,206.3334 428.6174,206.4433 Q428.1474,206.5531 427.6286,206.5531 Q425.7853,206.5531 424.8149,205.3385 Q423.8444,204.1239 423.8444,201.829 Q423.8444,199.528 424.8149,198.3134 Q425.7853,197.0988 427.6286,197.0988 Q428.1474,197.0988 428.6235,197.2087 Q429.0995,197.3185 429.5146,197.5382 L429.5146,199.5402 Q429.0507,199.113 428.6143,198.9146 Q428.1779,198.7162 427.714,198.7162 Q426.7253,198.7162 426.2217,199.5005 Q425.7182,200.2848 425.7182,201.829 Q425.7182,203.3671 426.2217,204.1514 Q426.7253,204.9357 427.714,204.9357 Q428.1779,204.9357 428.6143,204.7373 Q429.0507,204.539 429.5146,204.1117 Z " fill="#000000"/><text fill="#D8BC00" font-family="Open Sans,Avenir,Nunito,Arial,Helvetica,SansSerif" font-size="12.5" font-weight="bold" lengthAdjust="spacing" textLength="134.375" x="450.5208" y="206.4128">GsonObjectSerializer</text><line style="stroke:#5E5E5E;stroke-width:1.5625;" x1="375" x2="629.1667" y1="217.3828" y2="217.3828"/><ellipse cx="385.4167" cy="252.7527" fill="#84BE84" rx="3.125" ry="3.125" style="stroke:#038048;stroke-width:1.0416666666666667;"/><text fill="#D8BC00" font-family="Open Sans,Avenir,Nunito,Arial,Helvetica,SansSerif" font-size="11.4583" lengthAdjust="spacing" textLength="125" x="396.875" y="259.6639">GsonObjectSerializer()</text><ellipse cx="385.4167" cy="272.4976" fill="#84BE84" rx="3.125" ry="3.125" style="stroke:#038048;stroke-width:1.0416666666666667;"/><text fill="#D8BC00" font-family="Open Sans,Avenir,Nunito,Arial,Helvetica,SansSerif" font-size="11.4583" lengthAdjust="spacing" textLength="223.9583" x="396.875" y="279.4088">GsonObjectSerializer(ProgressReporter)</text><line style="stroke:#5E5E5E;stroke-width:1.0416666666666667;" x1="375" x2="458.3333" y1="235.5886" y2="235.5886"/><text fill="#D8BC00" font-family="Open Sans,Avenir,Nunito,Arial,Helvetica,SansSerif" font-size="11.4583" lengthAdjust="spacing" textLength="81.25" x="461.4583" y="239.3982">(constructors)</text><line style="stroke:#5E5E5E;stroke-width:1.0416666666666667;" x1="545.8333" x2="629.1667" y1="235.5886" y2="235.5886"/><!--MD5=[79d378210367c0c6ec62ef762ddfbd1b]
class Project--><rect fill="#282828" height="48.055" id="Project" rx="8.3333" ry="8.3333" style="stroke:#5E5E5E;stroke-width:1.0416666666666667;" width="81.25" x="740.625" y="53.7028"/><rect fill="#1B1B1A" height="31.3883" rx="8.3333" ry="8.3333" style="stroke:#1B1B1A;stroke-width:1.0416666666666667;" width="81.25" x="740.625" y="53.7028"/><rect fill="#1B1B1A" height="8.3333" style="stroke:#1B1B1A;stroke-width:1.0416666666666667;" width="81.25" x="740.625" y="76.7578"/><rect fill="none" height="48.055" id="Project" rx="8.3333" ry="8.3333" style="stroke:#5E5E5E;stroke-width:1.0416666666666667;" width="81.25" x="740.625" y="53.7028"/><ellipse cx="755.2083" cy="69.397" fill="#0066CF" rx="10.4167" ry="10.4167" style="stroke:#0086EF;stroke-width:1.0416666666666667;"/><path d="M757.1187,73.822 Q756.6915,74.0417 756.2215,74.1516 Q755.7515,74.2615 755.2327,74.2615 Q753.3895,74.2615 752.419,73.0469 Q751.4486,71.8323 751.4486,69.5374 Q751.4486,67.2363 752.419,66.0217 Q753.3895,64.8071 755.2327,64.8071 Q755.7515,64.8071 756.2276,64.917 Q756.7037,65.0269 757.1187,65.2466 L757.1187,67.2485 Q756.6549,66.8213 756.2185,66.6229 Q755.7821,66.4246 755.3182,66.4246 Q754.3294,66.4246 753.8259,67.2089 Q753.3223,67.9932 753.3223,69.5374 Q753.3223,71.0754 753.8259,71.8597 Q754.3294,72.644 755.3182,72.644 Q755.7821,72.644 756.2185,72.4457 Q756.6549,72.2473 757.1187,71.8201 Z " fill="#000000"/><text fill="#D8BC00" font-family="Open Sans,Avenir,Nunito,Arial,Helvetica,SansSerif" font-size="12.5" font-weight="bold" lengthAdjust="spacing" textLength="43.75" x="771.875" y="74.1211">Project</text><line style="stroke:#5E5E5E;stroke-width:1.0416666666666667;" x1="741.6667" x2="820.8333" y1="85.0911" y2="85.0911"/><line style="stroke:#5E5E5E;stroke-width:1.0416666666666667;" x1="741.6667" x2="820.8333" y1="93.4245" y2="93.4245"/><!--MD5=[9b392c7e96cc3f16e5a17c4c40fb40c2]
class GsonSerializationProject--><rect codeLine="23" fill="#282828" height="48.055" id="GsonSerializationProject" rx="8.3333" ry="8.3333" style="stroke:#5E5E5E;stroke-width:1.0416666666666667;" width="194.7917" x="683.8542" y="213.5986"/><rect fill="#1B1B1A" height="31.3883" rx="8.3333" ry="8.3333" style="stroke:#1B1B1A;stroke-width:1.0416666666666667;" width="194.7917" x="683.8542" y="213.5986"/><rect fill="#1B1B1A" height="8.3333" style="stroke:#1B1B1A;stroke-width:1.0416666666666667;" width="194.7917" x="683.8542" y="236.6536"/><rect codeLine="23" fill="none" height="48.055" id="GsonSerializationProject" rx="8.3333" ry="8.3333" style="stroke:#5E5E5E;stroke-width:1.0416666666666667;" width="194.7917" x="683.8542" y="213.5986"/><ellipse cx="698.4375" cy="229.2928" fill="#0066CF" rx="10.4167" ry="10.4167" style="stroke:#0086EF;stroke-width:1.0416666666666667;"/><path d="M700.3479,233.7179 Q699.9207,233.9376 699.4507,234.0474 Q698.9807,234.1573 698.4619,234.1573 Q696.6187,234.1573 695.6482,232.9427 Q694.6777,231.7281 694.6777,229.4332 Q694.6777,227.1322 695.6482,225.9176 Q696.6187,224.703 698.4619,224.703 Q698.9807,224.703 699.4568,224.8128 Q699.9329,224.9227 700.3479,225.1424 L700.3479,227.1444 Q699.884,226.7171 699.4476,226.5188 Q699.0112,226.3204 698.5474,226.3204 Q697.5586,226.3204 697.0551,227.1047 Q696.5515,227.889 696.5515,229.4332 Q696.5515,230.9713 697.0551,231.7556 Q697.5586,232.5399 698.5474,232.5399 Q699.0112,232.5399 699.4476,232.3415 Q699.884,232.1431 700.3479,231.7159 Z " fill="#000000"/><text fill="#D8BC00" font-family="Open Sans,Avenir,Nunito,Arial,Helvetica,SansSerif" font-size="12.5" font-weight="bold" lengthAdjust="spacing" textLength="157.2917" x="715.1042" y="234.0169">GsonSerializationProject</text><line style="stroke:#5E5E5E;stroke-width:1.0416666666666667;" x1="684.8958" x2="877.6042" y1="244.987" y2="244.987"/><line style="stroke:#5E5E5E;stroke-width:1.0416666666666667;" x1="684.8958" x2="877.6042" y1="253.3203" y2="253.3203"/><!--MD5=[3a02e24aed122bd624ab5f4d81125687]
class PrimitiveGsonSerializer--><rect codeLine="28" fill="#282828" height="146.7794" id="PrimitiveGsonSerializer" rx="8.3333" ry="8.3333" style="stroke:#5E5E5E;stroke-width:1.0416666666666667;" width="270.8333" x="9.375" y="164.1195"/><rect fill="#1B1B1A" height="31.3883" rx="8.3333" ry="8.3333" style="stroke:#1B1B1A;stroke-width:1.0416666666666667;" width="270.8333" x="9.375" y="164.1195"/><rect fill="#1B1B1A" height="8.3333" style="stroke:#1B1B1A;stroke-width:1.0416666666666667;" width="270.8333" x="9.375" y="187.1745"/><rect codeLine="28" fill="none" height="146.7794" id="PrimitiveGsonSerializer" rx="8.3333" ry="8.3333" style="stroke:#5E5E5E;stroke-width:1.0416666666666667;" width="270.8333" x="9.375" y="164.1195"/><ellipse cx="23.9583" cy="179.8136" fill="#C8AC00" rx="10.4167" ry="10.4167" style="stroke:#D8BC00;stroke-width:1.0416666666666667;"/><path d="M23.5514,176.5157 L22.703,180.245 L24.4059,180.245 Z M22.4528,174.8678 L24.6562,174.8678 L27.1159,183.9803 L25.3153,183.9803 L24.7538,181.7281 L22.3429,181.7281 L21.7936,183.9803 L19.9931,183.9803 Z " fill="#000000"/><text fill="#D8BC00" font-family="Open Sans,Avenir,Nunito,Arial,Helvetica,SansSerif" font-size="12.5" font-style="italic" font-weight="bold" lengthAdjust="spacing" textLength="150" x="40.625" y="184.5378">PrimitiveGsonSerializer</text><rect fill="#333333" height="23.055" style="stroke:#A0A0A0;stroke-width:1.0416666666666667;stroke-dasharray:2.0,2.0;" width="81.25" x="202.0833" y="160.9945"/><text fill="#A0A0A0" font-family="Open Sans,Avenir,Nunito,Arial,Helvetica,SansSerif" font-size="12.5" font-weight="bold" lengthAdjust="spacing" textLength="72.9167" x="206.25" y="177.2461">T, Primitive</text><line style="stroke:#5E5E5E;stroke-width:1.5625;" x1="10.4167" x2="279.1667" y1="195.5078" y2="195.5078"/><polygon fill="#FFFF44" points="20.8333,225.6694,25,229.836,20.8333,234.0027,16.6667,229.836" style="stroke:#B38D22;stroke-width:1.0416666666666667;"/><text fill="#D8BC00" font-family="Open Sans,Avenir,Nunito,Arial,Helvetica,SansSerif" font-size="11.4583" lengthAdjust="spacing" textLength="233.3333" x="32.2917" y="237.7889">PrimitiveGsonSerializer(Class&lt;Primitive&gt;)</text><line style="stroke:#5E5E5E;stroke-width:1.0416666666666667;" x1="10.4167" x2="101.0417" y1="213.7136" y2="213.7136"/><text fill="#D8BC00" font-family="Open Sans,Avenir,Nunito,Arial,Helvetica,SansSerif" font-size="11.4583" lengthAdjust="spacing" textLength="81.25" x="104.1667" y="217.5232">(constructors)</text><line style="stroke:#5E5E5E;stroke-width:1.0416666666666667;" x1="188.5417" x2="279.1667" y1="213.7136" y2="213.7136"/><polygon fill="#FFFF44" points="20.8333,269.3258,25,273.4924,20.8333,277.6591,16.6667,273.4924" style="stroke:#B38D22;stroke-width:1.0416666666666667;"/><text fill="#D8BC00" font-family="Open Sans,Avenir,Nunito,Arial,Helvetica,SansSerif" font-size="11.4583" lengthAdjust="spacing" textLength="114.5833" x="32.2917" y="281.4453">T toObject(Primitive)</text><polygon fill="#FFFF44" points="20.8333,289.0706,25,293.2373,20.8333,297.404,16.6667,293.2373" style="stroke:#B38D22;stroke-width:1.0416666666666667;"/><text fill="#D8BC00" font-family="Open Sans,Avenir,Nunito,Arial,Helvetica,SansSerif" font-size="11.4583" lengthAdjust="spacing" textLength="163.5417" x="32.2917" y="301.1902">Primitive toPrimitive(T object)</text><line style="stroke:#5E5E5E;stroke-width:1.0416666666666667;" x1="10.4167" x2="106.25" y1="257.37" y2="257.37"/><text fill="#D8BC00" font-family="Open Sans,Avenir,Nunito,Arial,Helvetica,SansSerif" font-size="11.4583" lengthAdjust="spacing" textLength="70.8333" x="109.375" y="261.1796">(conversion)</text><line style="stroke:#5E5E5E;stroke-width:1.0416666666666667;" x1="183.3333" x2="279.1667" y1="257.37" y2="257.37"/><!--MD5=[2bc9d4f4896640ed607dbecf7c2a713c]
reverse link ObjectSerializer to GsonObjectSerializer--><path codeLine="12" d="M388.4688,116.984 C408.1354,137.6715 432.6667,163.484 453.9063,185.8278 " fill="none" id="ObjectSerializer-backto-GsonObjectSerializer" style="stroke:#545454;stroke-width:1.5625;"/><polygon fill="none" points="382.9583,121.7757,373.8958,101.6507,393.5313,111.7236,382.9583,121.7757" style="stroke:#545454;stroke-width:1.5625;"/><!--MD5=[e585bddad89777545be61145f7705223]
reverse link RegistryTrait to GsonObjectSerializer--><path codeLine="13" d="M609.1146,117.2861 C590.5833,137.9215 567.5417,163.5986 547.5833,185.8278 " fill="none" id="RegistryTrait-backto-GsonObjectSerializer" style="stroke:#545454;stroke-width:1.5625;"/><polygon fill="none" points="603.8125,112.2861,623.1458,101.6507,614.6563,122.0257,603.8125,112.2861" style="stroke:#545454;stroke-width:1.5625;"/><!--MD5=[3ecf4dd6c5a90d57948748c040d40502]
reverse link TryTrait to GsonObjectSerializer--><path codeLine="14" d="M502.0833,122.6299 C502.0833,142.2445 502.0833,165.4736 502.0833,185.8278 " fill="none" id="TryTrait-backto-GsonObjectSerializer" style="stroke:#545454;stroke-width:1.5625;"/><polygon fill="none" points="494.7917,122.484,502.0833,101.6507,509.375,122.484,494.7917,122.484" style="stroke:#545454;stroke-width:1.5625;"/><!--MD5=[d083246075fb6c4d530b7ee1bea9cc24]
reverse link Project to GsonSerializationProject--><path codeLine="22" d="M781.25,122.682 C781.25,152.1715 781.25,189.807 781.25,213.5361 " fill="none" id="Project-backto-GsonSerializationProject" style="stroke:#545454;stroke-width:1.5625;"/><polygon fill="none" points="773.9583,122.484,781.25,101.6507,788.5417,122.484,773.9583,122.484" style="stroke:#545454;stroke-width:1.5625;"/><!--MD5=[908419489a7888a637f6c6fe5a5e9086]
reverse link JsonSerializerDeserializer to PrimitiveGsonSerializer--><path codeLine="27" d="M144.7917,122.6611 C144.7917,135.4736 144.7917,149.8278 144.7917,163.9111 " fill="none" id="JsonSerializerDeserializer-backto-PrimitiveGsonSerializer" style="stroke:#545454;stroke-width:1.5625;"/><polygon fill="none" points="137.5,122.484,144.7917,101.6507,152.0833,122.484,137.5,122.484" style="stroke:#545454;stroke-width:1.5625;"/><!--MD5=[1a55519dd6cc35cf25d926f11481f388]
@startuml

    !include lexakai.theme
    
    title "com.telenav.kivakit.serialization.gson"
    
    interface JsonSerializerDeserializer
    interface ObjectSerializer
    interface TryTrait
    interface RegistryTrait
    
    ObjectSerializer <|- - GsonObjectSerializer
    RegistryTrait <|- - GsonObjectSerializer
    TryTrait <|- - GsonObjectSerializer
    class GsonObjectSerializer
    {
        - -(constructors)- -
        +GsonObjectSerializer()
        +GsonObjectSerializer(ProgressReporter)
    }
    
    Project <|- - GsonSerializationProject
    class GsonSerializationProject
    {
    }
    
    JsonSerializerDeserializer <|- - PrimitiveGsonSerializer
    abstract class PrimitiveGsonSerializer<T, Primitive>
    {
        - -(constructors)- -
        #PrimitiveGsonSerializer(Class<Primitive>)
        - -(conversion)- -
        #T toObject(Primitive)
        #Primitive toPrimitive(T object)
    }
    
@enduml

@startuml









skinparam backgroundColor #333333






skinparam  {
    defaultFontName   "Open Sans,Avenir,Nunito,Arial,Helvetica,SansSerif"
    defaultFontSize   12
    defaultTextAlignment left
    shadowing false
    RoundCorner 10
    TitleFontSize 18
}

skinparam defaultFontName       "Open Sans,Avenir,Nunito,Arial,Helvetica,SansSerif"
skinparam defaultFontSize       12
skinparam dpi                   100
skinparam shadowing             false
skinparam roundcorner           16
skinparam ParticipantPadding    40
skinparam BoxPadding            40
skinparam Padding               3
skinparam ArrowColor            #545454
skinparam stereotype {
    CBackgroundColor #0066cf
    CBorderColor #0086ef
    ABackgroundColor #C8Ac00
    ABorderColor #D8Bc00
    IBackgroundColor #008400
    IBorderColor #239c23
    EBackgroundColor #cf6300
    EBorderColor #ef8300
    NBackgroundColor #3380b9
    NBorderColor #004d86
}
skinparam title {
	FontColor	                 #c0c0c0
 	BorderColor                  #545454
	FontSize	    	         20
	BorderRoundCorner            16
	BorderThickness 	         1
	BackgroundColor              #48494b
}


skinparam legend {
	BackgroundColor #303030
	BorderColor #404040
	FontColor #a0a0a0
}

	skinparam swimlane {
	BorderColor #5e5e5e
	BorderThickness 2
	TitleBackgroundColor  #6d6d6d-#484848
	TitleFontColor #303030
}

skinparam activity {
		FontColor #C8Ac00
	BorderColor #333333
	BackgroundColor #333333-#333333
	BarColor #00FF00
	StartColor #0060a8
	EndColor #0060a8
	DiamondBackgroundColor #6d6d6d-#3a3a3a
  	DiamondBorderColor #3a3a3a
  	DiamondFontColor #fefefe
}


skinparam participant {
		FontColor #C8Ac00
	BorderColor #333333
	BackgroundColor #333333-#333333
	ParticipantBorderThickness 2
}


skinparam actor {
		FontColor #C8Ac00
	BorderColor #333333
	BackgroundColor #333333-#333333
}


skinparam arrow {
	Thickness 1.5
	Color #545454
	FontColor #a0a0a0
    FontStyle bold
    MessageAlignment center
}



skinparam sequence {
	BorderColor #303030
	TitleFontColor #303030
	BackgroundColor #333333
	StartColor #303030
	EndColor #303030
	BoxBackgroundColor #333333
	BoxBorderColor #484848
	BoxFontColor #484848
	LifeLineBorderColor #484848
	LifeLineBorderThickness 2
	LifeLineBackgroundColor #3a3a3a
	GroupBorderColor #484848
	GroupFontColor #484848
	GroupHeaderFontColor #0060a8
	GroupBackgroundColor #484848
	GroupHeaderBackgroundColor #333333
	DividerBackgroundColor #484848
    DividerBorderColor #484848
    DividerBorderThickness 2
    DividerFontColor #D8Bc00
	ReferenceBackgroundColor #333333
	ReferenceBorderColor #484848
	ReferenceFontColor #fefefe
	ReferenceHeaderBackgroundColor #484848
}


skinparam partition {
	BorderColor #303030
	FontColor #333333
	BackgroundColor #333333
}


skinparam collections {
		FontColor #C8Ac00
	BorderColor #333333
	BackgroundColor #333333-#333333
}


skinparam control {
		FontColor #C8Ac00
	BorderColor #333333
	BackgroundColor #333333-#333333
}


skinparam entity {
		FontColor #C8Ac00
	BorderColor #333333
	BackgroundColor #333333-#333333
}


skinparam boundary {
		FontColor #C8Ac00
	BorderColor #333333
	BackgroundColor #333333-#333333
}


skinparam agent {
	BackgroundColor #ff8000
	BorderColor #ff9933
	FontColor #484848
}


skinparam note {
	BorderThickness 1
	BackgroundColor #1b1b1a
	BorderColor #5e5e5e
	FontSize 11
	FontColor #a0a0a0
}


skinparam artifact {
	BorderThickness 10
	BorderColor #5e5e5e
	BackgroundColor #1b1b1a
	FontColor #D8Bc00
}


skinparam component {
		FontColor #C8Ac00
	BorderColor #333333
	BackgroundColor #333333-#333333
}


skinparam interface {
	BackgroundColor  #008400
	BorderColor  #007F00
	FontColor #484848
}


skinparam storage {
	BackgroundColor #ff8000
  	BorderColor #cc6600
	FontColor #222222
}


skinparam node {
	BackgroundColor #333333
	BorderColor #333333
	FontColor #C8Ac00
}


skinparam cloud {
	BackgroundColor #484848-black
	BorderColor #484848
	FontColor #D8Bc00
}


skinparam database {
		FontColor #C8Ac00
	BorderColor #333333
	BackgroundColor #333333-#333333
	BackgroundColor  #333333
}


skinparam class {
		FontColor #C8Ac00
	BorderColor #333333
	BackgroundColor #333333-#333333
	HeaderBackgroundColor #1b1b1a
    BackgroundColor #282828
    BorderColor #5e5e5e
 	StereotypeFontColor #a0a0a0
    StereotypeFontStyle bold
	BorderThickness 1
	AttributeFontColor #D8Bc00
	AttributeFontSize 11
    FontColor #D8Bc00
    FontStyle bold
}


skinparam object {
		FontColor #C8Ac00
	BorderColor #333333
	BackgroundColor #333333-#333333
	StereotypeFontColor #484848
	BorderThickness 1
	AttributeFontColor #fefefe
	AttributeFontSize 11
}


skinparam usecase {
		FontColor #C8Ac00
	BorderColor #333333
	BackgroundColor #333333-#333333
	BorderThickness 2
	StereotypeFontColor #303030
}


skinparam rectangle {
		FontColor #C8Ac00
	BorderColor #333333
	BackgroundColor #333333-#333333
	BackgroundColor #333333
	BorderThickness 2
	StereotypeFontColor #303030
}


skinparam package {
		FontColor #C8Ac00
	BorderColor #333333
	BackgroundColor #333333-#333333
	BackgroundColor #333333
	BorderThickness 2
}


skinparam folder {
	BackgroundColor #6d6d6d
  	BorderColor #ff8000
	FontColor #ff8000
	BorderThickness 2
}


skinparam frame {
	BackgroundColor #6d6d6d
  	BorderColor #0060a8
	FontColor #0060a8
	BorderThickness 2
}


skinparam state {
		FontColor #C8Ac00
	BorderColor #333333
	BackgroundColor #333333-#333333
	StartColor #0060a8
	EndColor #0060a8
	AttributeFontColor #fefefe
	AttributeFontSize 11
}


skinparam queue {
		FontColor #C8Ac00
	BorderColor #333333
	BackgroundColor #333333-#333333
}


skinparam card {
	BackgroundColor #0060a8
	BorderColor #004d86
	FontColor $INFO_TEXT
}


skinparam file {
	BackgroundColor #6d6d6d-#484848
	BorderColor #0060a8
	FontColor #fefefe
}


skinparam stack {
		FontColor #C8Ac00
	BorderColor #333333
	BackgroundColor #333333-#333333
}

    
    title "com.telenav.kivakit.serialization.gson"
    
    interface JsonSerializerDeserializer
    interface ObjectSerializer
    interface TryTrait
    interface RegistryTrait
    
    ObjectSerializer <|- - GsonObjectSerializer
    RegistryTrait <|- - GsonObjectSerializer
    TryTrait <|- - GsonObjectSerializer
    class GsonObjectSerializer
    {
        - -(constructors)- -
        +GsonObjectSerializer()
        +GsonObjectSerializer(ProgressReporter)
    }
    
    Project <|- - GsonSerializationProject
    class GsonSerializationProject
    {
    }
    
    JsonSerializerDeserializer <|- - PrimitiveGsonSerializer
    abstract class PrimitiveGsonSerializer<T, Primitive>
    {
        - -(constructors)- -
        #PrimitiveGsonSerializer(Class<Primitive>)
        - -(conversion)- -
        #T toObject(Primitive)
        #Primitive toPrimitive(T object)
    }
    
@enduml

PlantUML version 1.2021.01(Tue Feb 02 00:55:08 MST 2021)
(GPL source distribution)
Java Runtime: OpenJDK Runtime Environment
JVM: OpenJDK 64-Bit Server VM
Default Encoding: UTF-8
Language: en
Country: US
--></g></svg>