<?xml version="1.0" encoding="UTF-8" standalone="no"?><svg xmlns="http://www.w3.org/2000/svg" xmlns:xlink="http://www.w3.org/1999/xlink" contentScriptType="application/ecmascript" contentStyleType="text/css" height="747.9167px" preserveAspectRatio="none" style="width:1506px;height:747px;background:#333333;" version="1.1" viewBox="0 0 1506 747" width="1506.25px" zoomAndPan="magnify"><defs/><g><rect fill="#48494B" height="41.2028" rx="8.3333" ry="8.3333" style="stroke:#545454;stroke-width:1.0416666666666667;" width="278.125" x="606.7708" y="2.0833"/><text fill="#C0C0C0" font-family="Open Sans,Avenir,Nunito,Arial,Helvetica,SansSerif" font-size="20.8333" lengthAdjust="spacing" textLength="255.2083" x="618.2292" y="30.5583">kivakit-core-network-ftp</text><!--MD5=[4f079977920bf52107586fb847a1e92c]
entity kryo--><rect fill="#1B1B1A" height="44.93" rx="8.3333" ry="8.3333" style="stroke:#5E5E5E;stroke-width:1.5625;" width="63.5417" x="1077.6042" y="482.8695"/><polygon fill="#1B1B1A" points="1123.4375,488.0778,1123.4375,502.6611,1135.9375,502.6611,1135.9375,494.3278,1129.6875,488.0778,1123.4375,488.0778" style="stroke:#5E5E5E;stroke-width:1.5625;"/><line style="stroke:#5E5E5E;stroke-width:1.5625;" x1="1129.6875" x2="1129.6875" y1="488.0778" y2="494.3278"/><line style="stroke:#5E5E5E;stroke-width:1.5625;" x1="1135.9375" x2="1129.6875" y1="494.3278" y2="494.3278"/><text fill="#D8BC00" font-family="Open Sans,Avenir,Nunito,Arial,Helvetica,SansSerif" font-size="12.5" lengthAdjust="spacing" textLength="26.0417" x="1091.1458" y="511.6211">kryo</text><!--MD5=[745ab22dbfa32e29a2660b9e5bc2262a]
entity minlog--><rect fill="#1B1B1A" height="44.93" rx="8.3333" ry="8.3333" style="stroke:#5E5E5E;stroke-width:1.5625;" width="77.0833" x="945.8333" y="590.1611"/><polygon fill="#1B1B1A" points="1005.2083,595.3695,1005.2083,609.9528,1017.7083,609.9528,1017.7083,601.6195,1011.4583,595.3695,1005.2083,595.3695" style="stroke:#5E5E5E;stroke-width:1.5625;"/><line style="stroke:#5E5E5E;stroke-width:1.5625;" x1="1011.4583" x2="1011.4583" y1="595.3695" y2="601.6195"/><line style="stroke:#5E5E5E;stroke-width:1.5625;" x1="1017.7083" x2="1011.4583" y1="601.6195" y2="601.6195"/><text fill="#D8BC00" font-family="Open Sans,Avenir,Nunito,Arial,Helvetica,SansSerif" font-size="12.5" lengthAdjust="spacing" textLength="39.5833" x="959.375" y="618.9128">minlog</text><!--MD5=[5d0bc62e6e2e5a8467f655d5e580826c]
entity reflectasm--><rect fill="#1B1B1A" height="44.93" rx="8.3333" ry="8.3333" style="stroke:#5E5E5E;stroke-width:1.5625;" width="100" x="1059.375" y="590.1611"/><polygon fill="#1B1B1A" points="1141.6667,595.3695,1141.6667,609.9528,1154.1667,609.9528,1154.1667,601.6195,1147.9167,595.3695,1141.6667,595.3695" style="stroke:#5E5E5E;stroke-width:1.5625;"/><line style="stroke:#5E5E5E;stroke-width:1.5625;" x1="1147.9167" x2="1147.9167" y1="595.3695" y2="601.6195"/><line style="stroke:#5E5E5E;stroke-width:1.5625;" x1="1154.1667" x2="1147.9167" y1="601.6195" y2="601.6195"/><text fill="#D8BC00" font-family="Open Sans,Avenir,Nunito,Arial,Helvetica,SansSerif" font-size="12.5" lengthAdjust="spacing" textLength="62.5" x="1072.9167" y="618.9128">reflectasm</text><!--MD5=[07375bd6ced801b2ef86c9d3f68eec61]
entity jackson_annotations--><rect fill="#1B1B1A" height="44.93" rx="8.3333" ry="8.3333" style="stroke:#5E5E5E;stroke-width:1.5625;" width="158.3333" x="7.2917" y="482.8695"/><polygon fill="#1B1B1A" points="147.9167,488.0778,147.9167,502.6611,160.4167,502.6611,160.4167,494.3278,154.1667,488.0778,147.9167,488.0778" style="stroke:#5E5E5E;stroke-width:1.5625;"/><line style="stroke:#5E5E5E;stroke-width:1.5625;" x1="154.1667" x2="154.1667" y1="488.0778" y2="494.3278"/><line style="stroke:#5E5E5E;stroke-width:1.5625;" x1="160.4167" x2="154.1667" y1="494.3278" y2="494.3278"/><text fill="#D8BC00" font-family="Open Sans,Avenir,Nunito,Arial,Helvetica,SansSerif" font-size="12.5" lengthAdjust="spacing" textLength="120.8333" x="20.8333" y="511.6211">jackson_annotations</text><!--MD5=[042d375982806d6245806f438a958054]
entity jsch--><rect fill="#1B1B1A" height="44.93" rx="8.3333" ry="8.3333" style="stroke:#5E5E5E;stroke-width:1.5625;" width="61.4583" x="701.5625" y="160.9945"/><polygon fill="#1B1B1A" points="745.3125,166.2028,745.3125,180.7861,757.8125,180.7861,757.8125,172.4528,751.5625,166.2028,745.3125,166.2028" style="stroke:#5E5E5E;stroke-width:1.5625;"/><line style="stroke:#5E5E5E;stroke-width:1.5625;" x1="751.5625" x2="751.5625" y1="166.2028" y2="172.4528"/><line style="stroke:#5E5E5E;stroke-width:1.5625;" x1="757.8125" x2="751.5625" y1="172.4528" y2="172.4528"/><text fill="#D8BC00" font-family="Open Sans,Avenir,Nunito,Arial,Helvetica,SansSerif" font-size="12.5" lengthAdjust="spacing" textLength="23.9583" x="715.1042" y="189.7461">jsch</text><!--MD5=[d9521c76c2842dca8b8a8d137addb4db]
entity kivakit_build_metadata--><rect fill="#1B1B1A" height="44.93" rx="8.3333" ry="8.3333" style="stroke:#5E5E5E;stroke-width:1.5625;" width="176.0417" x="202.6042" y="482.8695"/><polygon fill="#1B1B1A" points="360.9375,488.0778,360.9375,502.6611,373.4375,502.6611,373.4375,494.3278,367.1875,488.0778,360.9375,488.0778" style="stroke:#5E5E5E;stroke-width:1.5625;"/><line style="stroke:#5E5E5E;stroke-width:1.5625;" x1="367.1875" x2="367.1875" y1="488.0778" y2="494.3278"/><line style="stroke:#5E5E5E;stroke-width:1.5625;" x1="373.4375" x2="367.1875" y1="494.3278" y2="494.3278"/><text fill="#D8BC00" font-family="Open Sans,Avenir,Nunito,Arial,Helvetica,SansSerif" font-size="12.5" lengthAdjust="spacing" textLength="138.5417" x="216.1458" y="511.6211">kivakit_build_metadata</text><!--MD5=[c749d8fbd0ccf88f309a9fa69b45c399]
entity kivakit_core_collections--><rect fill="#1B1B1A" height="44.93" rx="8.3333" ry="8.3333" style="stroke:#5E5E5E;stroke-width:1.5625;" width="176.0417" x="1025.5208" y="268.2861"/><polygon fill="#1B1B1A" points="1183.8542,273.4945,1183.8542,288.0778,1196.3542,288.0778,1196.3542,279.7445,1190.1042,273.4945,1183.8542,273.4945" style="stroke:#5E5E5E;stroke-width:1.5625;"/><line style="stroke:#5E5E5E;stroke-width:1.5625;" x1="1190.1042" x2="1190.1042" y1="273.4945" y2="279.7445"/><line style="stroke:#5E5E5E;stroke-width:1.5625;" x1="1196.3542" x2="1190.1042" y1="279.7445" y2="279.7445"/><text fill="#D8BC00" font-family="Open Sans,Avenir,Nunito,Arial,Helvetica,SansSerif" font-size="12.5" lengthAdjust="spacing" textLength="138.5417" x="1039.0625" y="297.0378">kivakit_core_collections</text><!--MD5=[90cbd57b7ed4cf40beb41e0bb8ca8fc2]
entity kivakit_core_commandline--><rect fill="#1B1B1A" height="44.93" rx="8.3333" ry="8.3333" style="stroke:#5E5E5E;stroke-width:1.5625;" width="194.7917" x="585.9375" y="268.2861"/><polygon fill="#1B1B1A" points="763.0208,273.4945,763.0208,288.0778,775.5208,288.0778,775.5208,279.7445,769.2708,273.4945,763.0208,273.4945" style="stroke:#5E5E5E;stroke-width:1.5625;"/><line style="stroke:#5E5E5E;stroke-width:1.5625;" x1="769.2708" x2="769.2708" y1="273.4945" y2="279.7445"/><line style="stroke:#5E5E5E;stroke-width:1.5625;" x1="775.5208" x2="769.2708" y1="279.7445" y2="279.7445"/><text fill="#D8BC00" font-family="Open Sans,Avenir,Nunito,Arial,Helvetica,SansSerif" font-size="12.5" lengthAdjust="spacing" textLength="157.2917" x="599.4792" y="297.0378">kivakit_core_commandline</text><!--MD5=[688f54af1e374da9fda80b106920514e]
entity kivakit_core_kernel--><rect fill="#1B1B1A" height="44.93" rx="8.3333" ry="8.3333" style="stroke:#5E5E5E;stroke-width:1.5625;" width="152.0833" x="607.2917" y="375.5778"/><polygon fill="#1B1B1A" points="741.6667,380.7861,741.6667,395.3695,754.1667,395.3695,754.1667,387.0361,747.9167,380.7861,741.6667,380.7861" style="stroke:#5E5E5E;stroke-width:1.5625;"/><line style="stroke:#5E5E5E;stroke-width:1.5625;" x1="747.9167" x2="747.9167" y1="380.7861" y2="387.0361"/><line style="stroke:#5E5E5E;stroke-width:1.5625;" x1="754.1667" x2="747.9167" y1="387.0361" y2="387.0361"/><text fill="#D8BC00" font-family="Open Sans,Avenir,Nunito,Arial,Helvetica,SansSerif" font-size="12.5" lengthAdjust="spacing" textLength="114.5833" x="620.8333" y="404.3294">kivakit_core_kernel</text><!--MD5=[5b631a7c13cf598b93db810005140bd8]
entity kivakit_core_network_core--><rect fill="#1B1B1A" height="44.93" rx="8.3333" ry="8.3333" style="stroke:#5E5E5E;stroke-width:1.5625;" width="194.7917" x="799.4792" y="160.9945"/><polygon fill="#1B1B1A" points="976.5625,166.2028,976.5625,180.7861,989.0625,180.7861,989.0625,172.4528,982.8125,166.2028,976.5625,166.2028" style="stroke:#5E5E5E;stroke-width:1.5625;"/><line style="stroke:#5E5E5E;stroke-width:1.5625;" x1="982.8125" x2="982.8125" y1="166.2028" y2="172.4528"/><line style="stroke:#5E5E5E;stroke-width:1.5625;" x1="989.0625" x2="982.8125" y1="172.4528" y2="172.4528"/><text fill="#D8BC00" font-family="Open Sans,Avenir,Nunito,Arial,Helvetica,SansSerif" font-size="12.5" lengthAdjust="spacing" textLength="157.2917" x="813.0208" y="189.7461">kivakit_core_network_core</text><!--MD5=[e7c876055549cf6bfd17802323009a59]
entity kivakit_core_network_ftp--><rect fill="#1B1B1A" height="44.93" rx="8.3333" ry="8.3333" style="stroke:#5E5E5E;stroke-width:1.5625;" width="185.4167" x="1021.875" y="53.7028"/><polygon fill="#1B1B1A" points="1189.5833,58.9111,1189.5833,73.4945,1202.0833,73.4945,1202.0833,65.1611,1195.8333,58.9111,1189.5833,58.9111" style="stroke:#5E5E5E;stroke-width:1.5625;"/><line style="stroke:#5E5E5E;stroke-width:1.5625;" x1="1195.8333" x2="1195.8333" y1="58.9111" y2="65.1611"/><line style="stroke:#5E5E5E;stroke-width:1.5625;" x1="1202.0833" x2="1195.8333" y1="65.1611" y2="65.1611"/><text fill="#D8BC00" font-family="Open Sans,Avenir,Nunito,Arial,Helvetica,SansSerif" font-size="12.5" lengthAdjust="spacing" textLength="147.9167" x="1035.4167" y="82.4544">kivakit_core_network_ftp</text><!--MD5=[96baabbb2bc8385dcde9005719ffbed4]
entity kivakit_core_resource--><rect fill="#1B1B1A" height="44.93" rx="8.3333" ry="8.3333" style="stroke:#5E5E5E;stroke-width:1.5625;" width="166.6667" x="1031.25" y="160.9945"/><polygon fill="#1B1B1A" points="1180.2083,166.2028,1180.2083,180.7861,1192.7083,180.7861,1192.7083,172.4528,1186.4583,166.2028,1180.2083,166.2028" style="stroke:#5E5E5E;stroke-width:1.5625;"/><line style="stroke:#5E5E5E;stroke-width:1.5625;" x1="1186.4583" x2="1186.4583" y1="166.2028" y2="172.4528"/><line style="stroke:#5E5E5E;stroke-width:1.5625;" x1="1192.7083" x2="1186.4583" y1="172.4528" y2="172.4528"/><text fill="#D8BC00" font-family="Open Sans,Avenir,Nunito,Arial,Helvetica,SansSerif" font-size="12.5" lengthAdjust="spacing" textLength="129.1667" x="1044.7917" y="189.7461">kivakit_core_resource</text><!--MD5=[b95351c189380c02c3c9de61c422881e]
entity kivakit_core_security--><rect fill="#1B1B1A" height="44.93" rx="8.3333" ry="8.3333" style="stroke:#5E5E5E;stroke-width:1.5625;" width="160.4167" x="817.7083" y="268.2861"/><polygon fill="#1B1B1A" points="960.4167,273.4945,960.4167,288.0778,972.9167,288.0778,972.9167,279.7445,966.6667,273.4945,960.4167,273.4945" style="stroke:#5E5E5E;stroke-width:1.5625;"/><line style="stroke:#5E5E5E;stroke-width:1.5625;" x1="966.6667" x2="966.6667" y1="273.4945" y2="279.7445"/><line style="stroke:#5E5E5E;stroke-width:1.5625;" x1="972.9167" x2="966.6667" y1="279.7445" y2="279.7445"/><text fill="#D8BC00" font-family="Open Sans,Avenir,Nunito,Arial,Helvetica,SansSerif" font-size="12.5" lengthAdjust="spacing" textLength="122.9167" x="831.25" y="297.0378">kivakit_core_security</text><!--MD5=[98b25bf0c66f95b164f347e9d0e8dc28]
entity kivakit_core_serialization_core--><rect fill="#1B1B1A" height="44.93" rx="8.3333" ry="8.3333" style="stroke:#5E5E5E;stroke-width:1.5625;" width="218.75" x="1238.5417" y="268.2861"/><polygon fill="#1B1B1A" points="1439.5833,273.4945,1439.5833,288.0778,1452.0833,288.0778,1452.0833,279.7445,1445.8333,273.4945,1439.5833,273.4945" style="stroke:#5E5E5E;stroke-width:1.5625;"/><line style="stroke:#5E5E5E;stroke-width:1.5625;" x1="1445.8333" x2="1445.8333" y1="273.4945" y2="279.7445"/><line style="stroke:#5E5E5E;stroke-width:1.5625;" x1="1452.0833" x2="1445.8333" y1="279.7445" y2="279.7445"/><text fill="#D8BC00" font-family="Open Sans,Avenir,Nunito,Arial,Helvetica,SansSerif" font-size="12.5" lengthAdjust="spacing" textLength="181.25" x="1252.0833" y="297.0378">kivakit_core_serialization_core</text><!--MD5=[0a9583a81da34a7dccf2b6c4ad7f5d24]
entity kivakit_core_serialization_kryo--><rect fill="#1B1B1A" height="44.93" rx="8.3333" ry="8.3333" style="stroke:#5E5E5E;stroke-width:1.5625;" width="218.75" x="1004.1667" y="375.5778"/><polygon fill="#1B1B1A" points="1205.2083,380.7861,1205.2083,395.3695,1217.7083,395.3695,1217.7083,387.0361,1211.4583,380.7861,1205.2083,380.7861" style="stroke:#5E5E5E;stroke-width:1.5625;"/><line style="stroke:#5E5E5E;stroke-width:1.5625;" x1="1211.4583" x2="1211.4583" y1="380.7861" y2="387.0361"/><line style="stroke:#5E5E5E;stroke-width:1.5625;" x1="1217.7083" x2="1211.4583" y1="387.0361" y2="387.0361"/><text fill="#D8BC00" font-family="Open Sans,Avenir,Nunito,Arial,Helvetica,SansSerif" font-size="12.5" lengthAdjust="spacing" textLength="181.25" x="1017.7083" y="404.3294">kivakit_core_serialization_kryo</text><!--MD5=[818dec80b2352fb7b5669cdb2944a52b]
entity kivakit_core_test--><rect fill="#1B1B1A" height="44.93" rx="8.3333" ry="8.3333" style="stroke:#5E5E5E;stroke-width:1.5625;" width="136.4583" x="829.6875" y="375.5778"/><polygon fill="#1B1B1A" points="948.4375,380.7861,948.4375,395.3695,960.9375,395.3695,960.9375,387.0361,954.6875,380.7861,948.4375,380.7861" style="stroke:#5E5E5E;stroke-width:1.5625;"/><line style="stroke:#5E5E5E;stroke-width:1.5625;" x1="954.6875" x2="954.6875" y1="380.7861" y2="387.0361"/><line style="stroke:#5E5E5E;stroke-width:1.5625;" x1="960.9375" x2="954.6875" y1="387.0361" y2="387.0361"/><text fill="#D8BC00" font-family="Open Sans,Avenir,Nunito,Arial,Helvetica,SansSerif" font-size="12.5" lengthAdjust="spacing" textLength="98.9583" x="843.2292" y="404.3294">kivakit_core_test</text><!--MD5=[7b0fec798d1f32628676dfdf75f1f662]
entity lexakai_annotations--><rect fill="#1B1B1A" height="44.93" rx="8.3333" ry="8.3333" style="stroke:#5E5E5E;stroke-width:1.5625;" width="155.2083" x="415.1042" y="482.8695"/><polygon fill="#1B1B1A" points="552.6042,488.0778,552.6042,502.6611,565.1042,502.6611,565.1042,494.3278,558.8542,488.0778,552.6042,488.0778" style="stroke:#5E5E5E;stroke-width:1.5625;"/><line style="stroke:#5E5E5E;stroke-width:1.5625;" x1="558.8542" x2="558.8542" y1="488.0778" y2="494.3278"/><line style="stroke:#5E5E5E;stroke-width:1.5625;" x1="565.1042" x2="558.8542" y1="494.3278" y2="494.3278"/><text fill="#D8BC00" font-family="Open Sans,Avenir,Nunito,Arial,Helvetica,SansSerif" font-size="12.5" lengthAdjust="spacing" textLength="117.7083" x="428.6458" y="511.6211">lexakai_annotations</text><!--MD5=[6e907e673cbe20244e3e5a97e073fd29]
entity commons_net--><rect fill="#1B1B1A" height="44.93" rx="8.3333" ry="8.3333" style="stroke:#5E5E5E;stroke-width:1.5625;" width="119.7917" x="1234.8958" y="160.9945"/><polygon fill="#1B1B1A" points="1336.9792,166.2028,1336.9792,180.7861,1349.4792,180.7861,1349.4792,172.4528,1343.2292,166.2028,1336.9792,166.2028" style="stroke:#5E5E5E;stroke-width:1.5625;"/><line style="stroke:#5E5E5E;stroke-width:1.5625;" x1="1343.2292" x2="1343.2292" y1="166.2028" y2="172.4528"/><line style="stroke:#5E5E5E;stroke-width:1.5625;" x1="1349.4792" x2="1343.2292" y1="172.4528" y2="172.4528"/><text fill="#D8BC00" font-family="Open Sans,Avenir,Nunito,Arial,Helvetica,SansSerif" font-size="12.5" lengthAdjust="spacing" textLength="82.2917" x="1248.4375" y="189.7461">commons_net</text><!--MD5=[b9ccc173c089e3d2abf77c8581e74aca]
entity kryo_serializers--><rect fill="#1B1B1A" height="44.93" rx="8.3333" ry="8.3333" style="stroke:#5E5E5E;stroke-width:1.5625;" width="131.25" x="1178.125" y="482.8695"/><polygon fill="#1B1B1A" points="1291.6667,488.0778,1291.6667,502.6611,1304.1667,502.6611,1304.1667,494.3278,1297.9167,488.0778,1291.6667,488.0778" style="stroke:#5E5E5E;stroke-width:1.5625;"/><line style="stroke:#5E5E5E;stroke-width:1.5625;" x1="1297.9167" x2="1297.9167" y1="488.0778" y2="494.3278"/><line style="stroke:#5E5E5E;stroke-width:1.5625;" x1="1304.1667" x2="1297.9167" y1="494.3278" y2="494.3278"/><text fill="#D8BC00" font-family="Open Sans,Avenir,Nunito,Arial,Helvetica,SansSerif" font-size="12.5" lengthAdjust="spacing" textLength="93.75" x="1191.6667" y="511.6211">kryo_serializers</text><!--MD5=[23cc7f88cfa1ae4b54fca2963c42906f]
entity swagger_annotations--><rect fill="#1B1B1A" height="44.93" rx="8.3333" ry="8.3333" style="stroke:#5E5E5E;stroke-width:1.5625;" width="162.5" x="607.2917" y="482.8695"/><polygon fill="#1B1B1A" points="752.0833,488.0778,752.0833,502.6611,764.5833,502.6611,764.5833,494.3278,758.3333,488.0778,752.0833,488.0778" style="stroke:#5E5E5E;stroke-width:1.5625;"/><line style="stroke:#5E5E5E;stroke-width:1.5625;" x1="758.3333" x2="758.3333" y1="488.0778" y2="494.3278"/><line style="stroke:#5E5E5E;stroke-width:1.5625;" x1="764.5833" x2="758.3333" y1="494.3278" y2="494.3278"/><text fill="#D8BC00" font-family="Open Sans,Avenir,Nunito,Arial,Helvetica,SansSerif" font-size="12.5" lengthAdjust="spacing" textLength="125" x="620.8333" y="511.6211">swagger_annotations</text><!--MD5=[ce55b294004802c137560c2930be5b75]
entity junit--><rect fill="#1B1B1A" height="44.93" rx="8.3333" ry="8.3333" style="stroke:#5E5E5E;stroke-width:1.5625;" width="63.5417" x="806.7708" y="482.8695"/><polygon fill="#1B1B1A" points="852.6042,488.0778,852.6042,502.6611,865.1042,502.6611,865.1042,494.3278,858.8542,488.0778,852.6042,488.0778" style="stroke:#5E5E5E;stroke-width:1.5625;"/><line style="stroke:#5E5E5E;stroke-width:1.5625;" x1="858.8542" x2="858.8542" y1="488.0778" y2="494.3278"/><line style="stroke:#5E5E5E;stroke-width:1.5625;" x1="865.1042" x2="858.8542" y1="494.3278" y2="494.3278"/><text fill="#D8BC00" font-family="Open Sans,Avenir,Nunito,Arial,Helvetica,SansSerif" font-size="12.5" lengthAdjust="spacing" textLength="26.0417" x="820.3125" y="511.6211">junit</text><!--MD5=[7f157d37bc1fd6ac970bb67ffdbc66a3]
entity hamcrest_core--><rect fill="#1B1B1A" height="44.93" rx="8.3333" ry="8.3333" style="stroke:#5E5E5E;stroke-width:1.5625;" width="125" x="776.0417" y="590.1611"/><polygon fill="#1B1B1A" points="883.3333,595.3695,883.3333,609.9528,895.8333,609.9528,895.8333,601.6195,889.5833,595.3695,883.3333,595.3695" style="stroke:#5E5E5E;stroke-width:1.5625;"/><line style="stroke:#5E5E5E;stroke-width:1.5625;" x1="889.5833" x2="889.5833" y1="595.3695" y2="601.6195"/><line style="stroke:#5E5E5E;stroke-width:1.5625;" x1="895.8333" x2="889.5833" y1="601.6195" y2="601.6195"/><text fill="#D8BC00" font-family="Open Sans,Avenir,Nunito,Arial,Helvetica,SansSerif" font-size="12.5" lengthAdjust="spacing" textLength="87.5" x="789.5833" y="618.9128">hamcrest_core</text><!--MD5=[b728e17b4e4da6aa8cb97e9b2766c5e6]
entity annotations--><rect fill="#1B1B1A" height="44.93" rx="8.3333" ry="8.3333" style="stroke:#5E5E5E;stroke-width:1.5625;" width="106.25" x="907.2917" y="482.8695"/><polygon fill="#1B1B1A" points="995.8333,488.0778,995.8333,502.6611,1008.3333,502.6611,1008.3333,494.3278,1002.0833,488.0778,995.8333,488.0778" style="stroke:#5E5E5E;stroke-width:1.5625;"/><line style="stroke:#5E5E5E;stroke-width:1.5625;" x1="1002.0833" x2="1002.0833" y1="488.0778" y2="494.3278"/><line style="stroke:#5E5E5E;stroke-width:1.5625;" x1="1008.3333" x2="1002.0833" y1="494.3278" y2="494.3278"/><text fill="#D8BC00" font-family="Open Sans,Avenir,Nunito,Arial,Helvetica,SansSerif" font-size="12.5" lengthAdjust="spacing" textLength="68.75" x="920.8333" y="511.6211">annotations</text><!--MD5=[b3c862d1486667ad9c7edef6529b2202]
entity objenesis--><rect fill="#1B1B1A" height="44.93" rx="8.3333" ry="8.3333" style="stroke:#5E5E5E;stroke-width:1.5625;" width="94.7917" x="1196.3542" y="590.1611"/><polygon fill="#1B1B1A" points="1273.4375,595.3695,1273.4375,609.9528,1285.9375,609.9528,1285.9375,601.6195,1279.6875,595.3695,1273.4375,595.3695" style="stroke:#5E5E5E;stroke-width:1.5625;"/><line style="stroke:#5E5E5E;stroke-width:1.5625;" x1="1279.6875" x2="1279.6875" y1="595.3695" y2="601.6195"/><line style="stroke:#5E5E5E;stroke-width:1.5625;" x1="1285.9375" x2="1279.6875" y1="601.6195" y2="601.6195"/><text fill="#D8BC00" font-family="Open Sans,Avenir,Nunito,Arial,Helvetica,SansSerif" font-size="12.5" lengthAdjust="spacing" textLength="57.2917" x="1209.8958" y="618.9128">objenesis</text><!--MD5=[92e2ad58d19962135e7ff93f22958550]
entity asm--><rect fill="#1B1B1A" height="44.93" rx="8.3333" ry="8.3333" style="stroke:#5E5E5E;stroke-width:1.5625;" width="62.5" x="1078.125" y="697.4528"/><polygon fill="#1B1B1A" points="1122.9167,702.6611,1122.9167,717.2445,1135.4167,717.2445,1135.4167,708.9111,1129.1667,702.6611,1122.9167,702.6611" style="stroke:#5E5E5E;stroke-width:1.5625;"/><line style="stroke:#5E5E5E;stroke-width:1.5625;" x1="1129.1667" x2="1129.1667" y1="702.6611" y2="708.9111"/><line style="stroke:#5E5E5E;stroke-width:1.5625;" x1="1135.4167" x2="1129.1667" y1="708.9111" y2="708.9111"/><text fill="#D8BC00" font-family="Open Sans,Avenir,Nunito,Arial,Helvetica,SansSerif" font-size="12.5" lengthAdjust="spacing" textLength="25" x="1091.6667" y="726.2044">asm</text><!--MD5=[9264889150ecc0a7d92f4abe5886fae7]
entity j2ssh_core--><rect fill="#1B1B1A" height="44.93" rx="8.3333" ry="8.3333" style="stroke:#5E5E5E;stroke-width:1.5625;" width="102.0833" x="1391.6667" y="160.9945"/><polygon fill="#1B1B1A" points="1476.0417,166.2028,1476.0417,180.7861,1488.5417,180.7861,1488.5417,172.4528,1482.2917,166.2028,1476.0417,166.2028" style="stroke:#5E5E5E;stroke-width:1.5625;"/><line style="stroke:#5E5E5E;stroke-width:1.5625;" x1="1482.2917" x2="1482.2917" y1="166.2028" y2="172.4528"/><line style="stroke:#5E5E5E;stroke-width:1.5625;" x1="1488.5417" x2="1482.2917" y1="172.4528" y2="172.4528"/><text fill="#D8BC00" font-family="Open Sans,Avenir,Nunito,Arial,Helvetica,SansSerif" font-size="12.5" lengthAdjust="spacing" textLength="64.5833" x="1405.2083" y="189.7461">j2ssh_core</text><!--MD5=[d68e7c4b3ca5f037bcb6997a0b4ed16b]
link junit to hamcrest_core--><path d="M838.5417,528.109 C838.5417,544.5778 838.5417,567.2757 838.5417,584.8278 " fill="none" id="junit-to-hamcrest_core" style="stroke:#545454;stroke-width:1.5625;"/><polygon fill="#545454" points="838.5417,590.109,842.7083,580.734,838.5417,584.9007,834.375,580.734,838.5417,590.109" style="stroke:#545454;stroke-width:1.5625;"/><!--MD5=[89a440cab1a8a2054a43eb185086c0c4]
link kivakit_core_collections to kivakit_core_serialization_kryo--><path d="M1113.5417,313.5257 C1113.5417,329.9945 1113.5417,352.6924 1113.5417,370.2445 " fill="none" id="kivakit_core_collections-to-kivakit_core_serialization_kryo" style="stroke:#545454;stroke-width:1.5625;"/><polygon fill="#545454" points="1113.5417,375.5257,1117.7083,366.1507,1113.5417,370.3174,1109.375,366.1507,1113.5417,375.5257" style="stroke:#545454;stroke-width:1.5625;"/><!--MD5=[e405cd3841b6b84328a74eb7d1fd93b0]
link kivakit_core_commandline to kivakit_core_kernel--><path d="M683.3333,313.5257 C683.3333,329.9945 683.3333,352.6924 683.3333,370.2445 " fill="none" id="kivakit_core_commandline-to-kivakit_core_kernel" style="stroke:#545454;stroke-width:1.5625;"/><polygon fill="#545454" points="683.3333,375.5257,687.5,366.1507,683.3333,370.3174,679.1667,366.1507,683.3333,375.5257" style="stroke:#545454;stroke-width:1.5625;"/><!--MD5=[952d2988887d0a1a5ab8e547a07453b0]
link kivakit_core_kernel to annotations--><path d="M739.7396,420.432 C786.9167,438.3486 853.9792,463.807 901.7708,481.9528 " fill="none" id="kivakit_core_kernel-to-annotations" style="stroke:#545454;stroke-width:1.5625;"/><polygon fill="#545454" points="906.9167,483.9111,899.6281,476.6911,902.0467,482.0644,896.6734,484.483,906.9167,483.9111" style="stroke:#545454;stroke-width:1.5625;"/><!--MD5=[b7680a521db9e3e37ee2504e235738ce]
link kivakit_core_kernel to jackson_annotations--><path d="M607.0521,410.6611 C508.9896,425.9007 333.5833,454.0778 184.375,482.8695 C180.0208,483.7132 175.5521,484.5986 171.0521,485.5049 " fill="none" id="kivakit_core_kernel-to-jackson_annotations" style="stroke:#545454;stroke-width:1.5625;"/><polygon fill="#545454" points="165.75,486.5882,175.7688,488.7961,170.8531,485.5468,174.1025,480.6311,165.75,486.5882" style="stroke:#545454;stroke-width:1.5625;"/><!--MD5=[b26fa4ddfc815a8311f8076e771ef7d4]
link kivakit_core_kernel to junit--><path d="M715.1146,420.557 C740.4375,437.7236 775.8958,461.7549 802.3125,479.6611 " fill="none" id="kivakit_core_kernel-to-junit" style="stroke:#545454;stroke-width:1.5625;"/><polygon fill="#545454" points="806.8021,482.7132,801.3679,474.0114,802.4869,479.7967,796.7016,480.9157,806.8021,482.7132" style="stroke:#545454;stroke-width:1.5625;"/><!--MD5=[147bacadb2b5082a02772764a83ed950]
link kivakit_core_kernel to kivakit_build_metadata--><path d="M607.1458,419.4215 C540.8438,437.1924 444.8438,462.9111 375.9688,481.359 " fill="none" id="kivakit_core_kernel-to-kivakit_build_metadata" style="stroke:#545454;stroke-width:1.5625;"/><polygon fill="#545454" points="370.6458,482.7861,380.7817,484.3723,375.6751,481.4321,378.6153,476.3255,370.6458,482.7861" style="stroke:#545454;stroke-width:1.5625;"/><!--MD5=[faeafeee9ad3ae3a363b253ef7d19a64]
link kivakit_core_kernel to lexakai_annotations--><path d="M644.3021,420.557 C612.9479,437.859 568.9375,462.1507 536.4063,480.109 " fill="none" id="kivakit_core_kernel-to-lexakai_annotations" style="stroke:#545454;stroke-width:1.5625;"/><polygon fill="#545454" points="531.6875,482.7132,541.9085,481.8282,536.2467,480.1952,537.8797,474.5335,531.6875,482.7132" style="stroke:#545454;stroke-width:1.5625;"/><!--MD5=[99fa47cbfc1fc0fa6998fda90ce70c02]
link kivakit_core_kernel to swagger_annotations--><path d="M684.4167,420.8174 C685.2292,437.2861 686.3542,459.984 687.2188,477.5361 " fill="none" id="kivakit_core_kernel-to-swagger_annotations" style="stroke:#545454;stroke-width:1.5625;"/><polygon fill="#545454" points="687.4792,482.8174,691.1574,473.2402,687.2109,477.616,682.8351,473.6694,687.4792,482.8174" style="stroke:#545454;stroke-width:1.5625;"/><!--MD5=[f75ec449396fb5ee5f76bf441ddbbe5d]
link kivakit_core_network_core to kivakit_core_commandline--><path d="M853.1458,205.9736 C817.875,223.3486 768.3125,247.7757 731.8333,265.7445 " fill="none" id="kivakit_core_network_core-to-kivakit_core_commandline" style="stroke:#545454;stroke-width:1.5625;"/><polygon fill="#545454" points="727,268.1299,737.2519,267.7427,731.6762,265.8365,733.5824,260.2607,727,268.1299" style="stroke:#545454;stroke-width:1.5625;"/><!--MD5=[4897e88fe48b13ac8e9a1231169eb6df]
link kivakit_core_network_core to kivakit_core_security--><path d="M897.0938,206.234 C897.25,222.7028 897.4792,245.4007 897.6563,262.9528 " fill="none" id="kivakit_core_network_core-to-kivakit_core_security" style="stroke:#545454;stroke-width:1.5625;"/><polygon fill="#545454" points="897.7083,268.234,901.7945,258.8237,897.6637,263.0259,893.4615,258.8951,897.7083,268.234" style="stroke:#545454;stroke-width:1.5625;"/><!--MD5=[c8e0440714da0d049d52e5aabf93f014]
link kivakit_core_network_ftp to commons_net--><path d="M1151.4896,98.682 C1181,115.9215 1222.3958,140.0778 1253.1042,158.0153 " fill="none" id="kivakit_core_network_ftp-to-commons_net" style="stroke:#545454;stroke-width:1.5625;"/><polygon fill="#545454" points="1257.9375,160.8382,1251.9442,152.5117,1253.4403,158.2111,1247.7408,159.7072,1257.9375,160.8382" style="stroke:#545454;stroke-width:1.5625;"/><!--MD5=[375639a07f9ec391b2c4dd8370dc31f8]
link kivakit_core_network_ftp to j2ssh_core--><path d="M1181.375,98.557 C1241.7708,117.9215 1329.6667,146.109 1386.5313,164.3382 " fill="none" id="kivakit_core_network_ftp-to-j2ssh_core" style="stroke:#545454;stroke-width:1.5625;"/><polygon fill="#545454" points="1391.5833,165.9528,1383.9324,159.1179,1386.6247,164.3595,1381.3831,167.0517,1391.5833,165.9528" style="stroke:#545454;stroke-width:1.5625;"/><!--MD5=[349089a8b02d6efdccfc5ac7a9d8a1b9]
link kivakit_core_network_ftp to jsch--><path d="M1021.7813,96.1715 C954.2396,111.057 861.0208,133.7757 781.25,160.9945 C776.9583,162.4632 772.5208,164.1403 768.1563,165.9111 " fill="none" id="kivakit_core_network_ftp-to-jsch" style="stroke:#545454;stroke-width:1.5625;"/><polygon fill="#545454" points="763.0625,168.0049,773.3178,168.2882,767.8785,166.0218,770.1449,160.5825,763.0625,168.0049" style="stroke:#545454;stroke-width:1.5625;"/><!--MD5=[5c462fd50ab08b77d2a41222196bf870]
link kivakit_core_network_ftp to kivakit_core_network_core--><path d="M1070.2604,98.557 C1034.2083,115.984 983.375,140.5465 946.0729,158.5778 " fill="none" id="kivakit_core_network_ftp-to-kivakit_core_network_core" style="stroke:#545454;stroke-width:1.5625;"/><polygon fill="#545454" points="941.1354,160.9632,951.3896,160.6416,945.8262,158.6997,947.768,153.1363,941.1354,160.9632" style="stroke:#545454;stroke-width:1.5625;"/><!--MD5=[585ef323eeb85937e59550b2c5c720b6]
link kivakit_core_network_ftp to kivakit_core_resource--><path d="M1114.5833,98.9424 C1114.5833,115.4111 1114.5833,138.109 1114.5833,155.6611 " fill="none" id="kivakit_core_network_ftp-to-kivakit_core_resource" style="stroke:#545454;stroke-width:1.5625;"/><polygon fill="#545454" points="1114.5833,160.9424,1118.75,151.5674,1114.5833,155.734,1110.4167,151.5674,1114.5833,160.9424" style="stroke:#545454;stroke-width:1.5625;"/><!--MD5=[61a50f48d46fb49e436077267c3e261e]
link kivakit_core_resource to kivakit_core_collections--><path d="M1114.3646,206.234 C1114.2083,222.7028 1113.9792,245.4007 1113.8021,262.9528 " fill="none" id="kivakit_core_resource-to-kivakit_core_collections" style="stroke:#545454;stroke-width:1.5625;"/><polygon fill="#545454" points="1113.75,268.234,1117.9969,258.8951,1113.7946,263.0259,1109.6638,258.8237,1113.75,268.234" style="stroke:#545454;stroke-width:1.5625;"/><!--MD5=[a1f0f27ef0eb17168c6cd06fee466f5d]
link kivakit_core_resource to kivakit_core_serialization_core--><path d="M1162.0833,205.8486 C1200.8854,223.3382 1255.6458,248.0361 1295.6771,266.0882 " fill="none" id="kivakit_core_resource-to-kivakit_core_serialization_core" style="stroke:#545454;stroke-width:1.5625;"/><polygon fill="#545454" points="1300.4792,268.2549,1293.6487,260.6,1295.7321,266.112,1290.2201,268.1954,1300.4792,268.2549" style="stroke:#545454;stroke-width:1.5625;"/><!--MD5=[3ff889ce0d1b5c5ada6847f2d94a29ff]
link kivakit_core_security to kivakit_core_test--><path d="M897.9167,313.5257 C897.9167,329.9945 897.9167,352.6924 897.9167,370.2445 " fill="none" id="kivakit_core_security-to-kivakit_core_test" style="stroke:#545454;stroke-width:1.5625;"/><polygon fill="#545454" points="897.9167,375.5257,902.0833,366.1507,897.9167,370.3174,893.75,366.1507,897.9167,375.5257" style="stroke:#545454;stroke-width:1.5625;"/><!--MD5=[a78602a5e159932f58b4090c620edf6f]
link kivakit_core_serialization_kryo to kryo--><path d="M1112.6771,420.8174 C1112.0208,437.2861 1111.125,459.984 1110.4271,477.5361 " fill="none" id="kivakit_core_serialization_kryo-to-kryo" style="stroke:#545454;stroke-width:1.5625;"/><polygon fill="#545454" points="1110.2188,482.8174,1114.7568,473.6164,1110.4269,477.6132,1106.4301,473.2833,1110.2188,482.8174" style="stroke:#545454;stroke-width:1.5625;"/><!--MD5=[929cb75ecd116a31d1013b63d48976ad]
link kivakit_core_serialization_kryo to kryo_serializers--><path d="M1140.2083,420.557 C1161.2708,437.5778 1190.6979,461.359 1212.8021,479.2236 " fill="none" id="kivakit_core_serialization_kryo-to-kryo_serializers" style="stroke:#545454;stroke-width:1.5625;"/><polygon fill="#545454" points="1217.125,482.7132,1212.4561,473.5779,1213.0755,479.4379,1207.2155,480.0572,1217.125,482.7132" style="stroke:#545454;stroke-width:1.5625;"/><!--MD5=[8c32f0e7b0abeba01afd276f5a66ee84]
link kryo to minlog--><path d="M1083.7813,527.8486 C1063.5521,544.8695 1035.3021,568.6507 1014.0833,586.5153 " fill="none" id="kryo-to-minlog" style="stroke:#545454;stroke-width:1.5625;"/><polygon fill="#545454" points="1009.9375,590.0049,1019.7915,587.1498,1013.9203,586.6486,1014.4215,580.7774,1009.9375,590.0049" style="stroke:#545454;stroke-width:1.5625;"/><!--MD5=[e75c16e47fcf6c43b15d3c25536a9ed0]
link kryo to objenesis--><path d="M1136.8958,527.8486 C1158.7188,544.9424 1189.2604,568.8486 1212.0938,586.734 " fill="none" id="kryo-to-objenesis" style="stroke:#545454;stroke-width:1.5625;"/><polygon fill="#545454" points="1216.2708,590.0049,1211.4559,580.9457,1212.1692,586.7949,1206.32,587.5083,1216.2708,590.0049" style="stroke:#545454;stroke-width:1.5625;"/><!--MD5=[e061beb27669383d030ce0c5c656b006]
link kryo to reflectasm--><path d="M1109.375,528.109 C1109.375,544.5778 1109.375,567.2757 1109.375,584.8278 " fill="none" id="kryo-to-reflectasm" style="stroke:#545454;stroke-width:1.5625;"/><polygon fill="#545454" points="1109.375,590.109,1113.5417,580.734,1109.375,584.9007,1105.2083,580.734,1109.375,590.109" style="stroke:#545454;stroke-width:1.5625;"/><!--MD5=[338783537f3f9263e4097f5ff0c514d3]
link reflectasm to asm--><path d="M1109.375,635.4007 C1109.375,651.8695 1109.375,674.5674 1109.375,692.1195 " fill="none" id="reflectasm-to-asm" style="stroke:#545454;stroke-width:1.5625;"/><polygon fill="#545454" points="1109.375,697.4007,1113.5417,688.0257,1109.375,692.1924,1105.2083,688.0257,1109.375,697.4007" style="stroke:#545454;stroke-width:1.5625;"/><!--MD5=[4ab7525fa5391122b72f9256e72349fa]
@startuml

    !include ../lexakai/lexakai.theme
    
    title "kivakit-core-network-ftp"
    
    artifact kryo
    artifact minlog
    artifact reflectasm
    artifact jackson_annotations
    artifact jsch
    artifact kivakit_build_metadata
    artifact kivakit_core_collections
    artifact kivakit_core_commandline
    artifact kivakit_core_kernel
    artifact kivakit_core_network_core
    artifact kivakit_core_network_ftp
    artifact kivakit_core_resource
    artifact kivakit_core_security
    artifact kivakit_core_serialization_core
    artifact kivakit_core_serialization_kryo
    artifact kivakit_core_test
    artifact lexakai_annotations
    artifact commons_net
    artifact kryo_serializers
    artifact swagger_annotations
    artifact junit
    artifact hamcrest_core
    artifact annotations
    artifact objenesis
    artifact asm
    artifact j2ssh_core
    junit - -> hamcrest_core
    kivakit_core_collections - -> kivakit_core_serialization_kryo
    kivakit_core_commandline - -> kivakit_core_kernel
    kivakit_core_kernel - -> annotations
    kivakit_core_kernel - -> jackson_annotations
    kivakit_core_kernel - -> junit
    kivakit_core_kernel - -> kivakit_build_metadata
    kivakit_core_kernel - -> lexakai_annotations
    kivakit_core_kernel - -> swagger_annotations
    kivakit_core_network_core - -> kivakit_core_commandline
    kivakit_core_network_core - -> kivakit_core_security
    kivakit_core_network_ftp - -> commons_net
    kivakit_core_network_ftp - -> j2ssh_core
    kivakit_core_network_ftp - -> jsch
    kivakit_core_network_ftp - -> kivakit_core_network_core
    kivakit_core_network_ftp - -> kivakit_core_resource
    kivakit_core_resource - -> kivakit_core_collections
    kivakit_core_resource - -> kivakit_core_serialization_core
    kivakit_core_security - -> kivakit_core_test
    kivakit_core_serialization_kryo - -> kryo
    kivakit_core_serialization_kryo - -> kryo_serializers
    kryo - -> minlog
    kryo - -> objenesis
    kryo - -> reflectasm
    reflectasm - -> asm
    
@enduml

@startuml









skinparam backgroundColor #333333






skinparam  {
    defaultFontName   "Open Sans,Avenir,Nunito,Arial,Helvetica,SansSerif"
    defaultFontSize   12
    defaultTextAlignment left
    shadowing false
    RoundCorner 10
    TitleFontSize 18
}

skinparam defaultFontName       "Open Sans,Avenir,Nunito,Arial,Helvetica,SansSerif"
skinparam defaultFontSize       12
skinparam dpi                   100
skinparam shadowing             false
skinparam roundcorner           16
skinparam ParticipantPadding    40
skinparam BoxPadding            40
skinparam Padding               3
skinparam ArrowColor            #545454
skinparam stereotype {
    CBackgroundColor #0066cf
    CBorderColor #0086ef
    ABackgroundColor #C8Ac00
    ABorderColor #D8Bc00
    IBackgroundColor #008400
    IBorderColor #239c23
    EBackgroundColor #cf6300
    EBorderColor #ef8300
    NBackgroundColor #3380b9
    NBorderColor #004d86
}
skinparam title {
	FontColor	                 #c0c0c0
 	BorderColor                  #545454
	FontSize	    	         20
	BorderRoundCorner            16
	BorderThickness 	         1
	BackgroundColor              #48494b
}


skinparam legend {
	BackgroundColor #303030
	BorderColor #404040
	FontColor #a0a0a0
}

	skinparam swimlane {
	BorderColor #5e5e5e
	BorderThickness 2
	TitleBackgroundColor  #6d6d6d-#484848
	TitleFontColor #303030
}

skinparam activity {
		FontColor #C8Ac00
	BorderColor #333333
	BackgroundColor #333333-#333333
	BarColor #00FF00
	StartColor #0060a8
	EndColor #0060a8
	DiamondBackgroundColor #6d6d6d-#3a3a3a
  	DiamondBorderColor #3a3a3a
  	DiamondFontColor #fefefe
}


skinparam participant {
		FontColor #C8Ac00
	BorderColor #333333
	BackgroundColor #333333-#333333
	ParticipantBorderThickness 2
}


skinparam actor {
		FontColor #C8Ac00
	BorderColor #333333
	BackgroundColor #333333-#333333
}


skinparam arrow {
	Thickness 1.5
	Color #545454
	FontColor #a0a0a0
    FontStyle bold
    MessageAlignment center
}



skinparam sequence {
	BorderColor #303030
	TitleFontColor #303030
	BackgroundColor #333333
	StartColor #303030
	EndColor #303030
	BoxBackgroundColor #333333
	BoxBorderColor #484848
	BoxFontColor #484848
	LifeLineBorderColor #484848
	LifeLineBorderThickness 2
	LifeLineBackgroundColor #3a3a3a
	GroupBorderColor #484848
	GroupFontColor #484848
	GroupHeaderFontColor #0060a8
	GroupBackgroundColor #484848
	GroupHeaderBackgroundColor #333333
	DividerBackgroundColor #484848
    DividerBorderColor #484848
    DividerBorderThickness 2
    DividerFontColor #D8Bc00
	ReferenceBackgroundColor #333333
	ReferenceBorderColor #484848
	ReferenceFontColor #fefefe
	ReferenceHeaderBackgroundColor #484848
}


skinparam partition {
	BorderColor #303030
	FontColor #333333
	BackgroundColor #333333
}


skinparam collections {
		FontColor #C8Ac00
	BorderColor #333333
	BackgroundColor #333333-#333333
}


skinparam control {
		FontColor #C8Ac00
	BorderColor #333333
	BackgroundColor #333333-#333333
}


skinparam entity {
		FontColor #C8Ac00
	BorderColor #333333
	BackgroundColor #333333-#333333
}


skinparam boundary {
		FontColor #C8Ac00
	BorderColor #333333
	BackgroundColor #333333-#333333
}


skinparam agent {
	BackgroundColor #ff8000
	BorderColor #ff9933
	FontColor #484848
}


skinparam note {
	BorderThickness 1
	BackgroundColor #1b1b1a
	BorderColor #5e5e5e
	FontSize 11
	FontColor #a0a0a0
}


skinparam artifact {
	BorderThickness 10
	BorderColor #5e5e5e
	BackgroundColor #1b1b1a
	FontColor #D8Bc00
}


skinparam component {
		FontColor #C8Ac00
	BorderColor #333333
	BackgroundColor #333333-#333333
}


skinparam interface {
	BackgroundColor  #008400
	BorderColor  #007F00
	FontColor #484848
}


skinparam storage {
	BackgroundColor #ff8000
  	BorderColor #cc6600
	FontColor #222222
}


skinparam node {
	BackgroundColor #333333
	BorderColor #333333
	FontColor #C8Ac00
}


skinparam cloud {
	BackgroundColor #484848-black
	BorderColor #484848
	FontColor #D8Bc00
}


skinparam database {
		FontColor #C8Ac00
	BorderColor #333333
	BackgroundColor #333333-#333333
	BackgroundColor  #333333
}


skinparam class {
		FontColor #C8Ac00
	BorderColor #333333
	BackgroundColor #333333-#333333
	HeaderBackgroundColor #1b1b1a
    BackgroundColor #282828
    BorderColor #5e5e5e
 	StereotypeFontColor #a0a0a0
    StereotypeFontStyle bold
	BorderThickness 1
	AttributeFontColor #D8Bc00
	AttributeFontSize 11
    FontColor #D8Bc00
    FontStyle bold
}


skinparam object {
		FontColor #C8Ac00
	BorderColor #333333
	BackgroundColor #333333-#333333
	StereotypeFontColor #484848
	BorderThickness 1
	AttributeFontColor #fefefe
	AttributeFontSize 11
}


skinparam usecase {
		FontColor #C8Ac00
	BorderColor #333333
	BackgroundColor #333333-#333333
	BorderThickness 2
	StereotypeFontColor #303030
}


skinparam rectangle {
		FontColor #C8Ac00
	BorderColor #333333
	BackgroundColor #333333-#333333
	BackgroundColor #333333
	BorderThickness 2
	StereotypeFontColor #303030
}


skinparam package {
		FontColor #C8Ac00
	BorderColor #333333
	BackgroundColor #333333-#333333
	BackgroundColor #333333
	BorderThickness 2
}


skinparam folder {
	BackgroundColor #6d6d6d
  	BorderColor #ff8000
	FontColor #ff8000
	BorderThickness 2
}


skinparam frame {
	BackgroundColor #6d6d6d
  	BorderColor #0060a8
	FontColor #0060a8
	BorderThickness 2
}


skinparam state {
		FontColor #C8Ac00
	BorderColor #333333
	BackgroundColor #333333-#333333
	StartColor #0060a8
	EndColor #0060a8
	AttributeFontColor #fefefe
	AttributeFontSize 11
}


skinparam queue {
		FontColor #C8Ac00
	BorderColor #333333
	BackgroundColor #333333-#333333
}


skinparam card {
	BackgroundColor #0060a8
	BorderColor #004d86
	FontColor $INFO_TEXT
}


skinparam file {
	BackgroundColor #6d6d6d-#484848
	BorderColor #0060a8
	FontColor #fefefe
}


skinparam stack {
		FontColor #C8Ac00
	BorderColor #333333
	BackgroundColor #333333-#333333
}

    
    title "kivakit-core-network-ftp"
    
    artifact kryo
    artifact minlog
    artifact reflectasm
    artifact jackson_annotations
    artifact jsch
    artifact kivakit_build_metadata
    artifact kivakit_core_collections
    artifact kivakit_core_commandline
    artifact kivakit_core_kernel
    artifact kivakit_core_network_core
    artifact kivakit_core_network_ftp
    artifact kivakit_core_resource
    artifact kivakit_core_security
    artifact kivakit_core_serialization_core
    artifact kivakit_core_serialization_kryo
    artifact kivakit_core_test
    artifact lexakai_annotations
    artifact commons_net
    artifact kryo_serializers
    artifact swagger_annotations
    artifact junit
    artifact hamcrest_core
    artifact annotations
    artifact objenesis
    artifact asm
    artifact j2ssh_core
    junit - -> hamcrest_core
    kivakit_core_collections - -> kivakit_core_serialization_kryo
    kivakit_core_commandline - -> kivakit_core_kernel
    kivakit_core_kernel - -> annotations
    kivakit_core_kernel - -> jackson_annotations
    kivakit_core_kernel - -> junit
    kivakit_core_kernel - -> kivakit_build_metadata
    kivakit_core_kernel - -> lexakai_annotations
    kivakit_core_kernel - -> swagger_annotations
    kivakit_core_network_core - -> kivakit_core_commandline
    kivakit_core_network_core - -> kivakit_core_security
    kivakit_core_network_ftp - -> commons_net
    kivakit_core_network_ftp - -> j2ssh_core
    kivakit_core_network_ftp - -> jsch
    kivakit_core_network_ftp - -> kivakit_core_network_core
    kivakit_core_network_ftp - -> kivakit_core_resource
    kivakit_core_resource - -> kivakit_core_collections
    kivakit_core_resource - -> kivakit_core_serialization_core
    kivakit_core_security - -> kivakit_core_test
    kivakit_core_serialization_kryo - -> kryo
    kivakit_core_serialization_kryo - -> kryo_serializers
    kryo - -> minlog
    kryo - -> objenesis
    kryo - -> reflectasm
    reflectasm - -> asm
    
@enduml

PlantUML version 1.2021.01(Tue Feb 02 00:55:08 MST 2021)
(GPL source distribution)
Java Runtime: Java(TM) SE Runtime Environment
JVM: Java HotSpot(TM) 64-Bit Server VM
Default Encoding: UTF-8
Language: en
Country: US
--></g></svg>