<?xml version="1.0" encoding="UTF-8" standalone="no"?><svg xmlns="http://www.w3.org/2000/svg" xmlns:xlink="http://www.w3.org/1999/xlink" contentScriptType="application/ecmascript" contentStyleType="text/css" height="587.5px" preserveAspectRatio="none" style="width:865px;height:587px;background:#333333;" version="1.1" viewBox="0 0 865 587" width="865.625px" zoomAndPan="magnify"><defs/><g><rect fill="#48494B" height="41.2028" rx="8.3333" ry="8.3333" style="stroke:#545454;stroke-width:1.0416666666666667;" width="464.5833" x="193.4896" y="2.0833"/><text fill="#C0C0C0" font-family="Open Sans,Avenir,Nunito,Arial,Helvetica,SansSerif" font-size="20.8333" lengthAdjust="spacing" textLength="441.6667" x="204.9479" y="30.5583">com.telenav.kivakit.data.formats.library.text</text><!--MD5=[608ff7f27b79d14be709208a9ff52967]
class BaseObjectReader--><rect codeLine="6" fill="#282828" height="48.055" id="BaseObjectReader" rx="8.3333" ry="8.3333" style="stroke:#5E5E5E;stroke-width:1.0416666666666667;" width="153.125" x="271.875" y="53.7028"/><rect fill="#1B1B1A" height="31.3883" rx="8.3333" ry="8.3333" style="stroke:#1B1B1A;stroke-width:1.0416666666666667;" width="153.125" x="271.875" y="53.7028"/><rect fill="#1B1B1A" height="8.3333" style="stroke:#1B1B1A;stroke-width:1.0416666666666667;" width="153.125" x="271.875" y="76.7578"/><rect codeLine="6" fill="none" height="48.055" id="BaseObjectReader" rx="8.3333" ry="8.3333" style="stroke:#5E5E5E;stroke-width:1.0416666666666667;" width="153.125" x="271.875" y="53.7028"/><ellipse cx="286.4583" cy="69.397" fill="#C8AC00" rx="10.4167" ry="10.4167" style="stroke:#D8BC00;stroke-width:1.0416666666666667;"/><path d="M286.5723,66.099 L285.7239,69.8283 L287.4268,69.8283 Z M285.4736,64.4511 L287.677,64.4511 L290.1367,73.5636 L288.3362,73.5636 L287.7747,71.3114 L285.3638,71.3114 L284.8145,73.5636 L283.0139,73.5636 Z " fill="#000000"/><text fill="#D8BC00" font-family="Open Sans,Avenir,Nunito,Arial,Helvetica,SansSerif" font-size="12.5" font-style="italic" font-weight="bold" lengthAdjust="spacing" textLength="115.625" x="303.125" y="74.1211">BaseObjectReader</text><line style="stroke:#5E5E5E;stroke-width:1.0416666666666667;" x1="272.9167" x2="423.9583" y1="85.0911" y2="85.0911"/><line style="stroke:#5E5E5E;stroke-width:1.0416666666666667;" x1="272.9167" x2="423.9583" y1="93.4245" y2="93.4245"/><!--MD5=[7c5c88a606935469d5f89b0b5794816c]
class Named--><rect codeLine="8" fill="#282828" height="48.055" id="Named" rx="8.3333" ry="8.3333" style="stroke:#5E5E5E;stroke-width:1.0416666666666667;" width="82.2917" x="47.9167" y="240.682"/><rect fill="#1B1B1A" height="31.3883" rx="8.3333" ry="8.3333" style="stroke:#1B1B1A;stroke-width:1.0416666666666667;" width="82.2917" x="47.9167" y="240.682"/><rect fill="#1B1B1A" height="8.3333" style="stroke:#1B1B1A;stroke-width:1.0416666666666667;" width="82.2917" x="47.9167" y="263.737"/><rect codeLine="8" fill="none" height="48.055" id="Named" rx="8.3333" ry="8.3333" style="stroke:#5E5E5E;stroke-width:1.0416666666666667;" width="82.2917" x="47.9167" y="240.682"/><ellipse cx="62.5" cy="256.3761" fill="#008400" rx="10.4167" ry="10.4167" style="stroke:#239C23;stroke-width:1.0416666666666667;"/><path d="M59.3831,253.538 L59.3831,251.9511 L64.8092,251.9511 L64.8092,253.538 L62.9964,253.538 L62.9964,259.4767 L64.8092,259.4767 L64.8092,261.0636 L59.3831,261.0636 L59.3831,259.4767 L61.1959,259.4767 L61.1959,253.538 Z " fill="#000000"/><text fill="#D8BC00" font-family="Open Sans,Avenir,Nunito,Arial,Helvetica,SansSerif" font-size="12.5" font-style="italic" font-weight="bold" lengthAdjust="spacing" textLength="44.7917" x="79.1667" y="261.1003">Named</text><line style="stroke:#5E5E5E;stroke-width:1.0416666666666667;" x1="48.9583" x2="129.1667" y1="272.0703" y2="272.0703"/><line style="stroke:#5E5E5E;stroke-width:1.0416666666666667;" x1="48.9583" x2="129.1667" y1="280.4036" y2="280.4036"/><!--MD5=[5a749bbac115553e79dbbc324bba7f62]
class PropertyValueSource--><rect codeLine="9" fill="#282828" height="48.055" id="PropertyValueSource" rx="8.3333" ry="8.3333" style="stroke:#5E5E5E;stroke-width:1.0416666666666667;" width="169.7917" x="552.0833" y="240.682"/><rect fill="#1B1B1A" height="31.3883" rx="8.3333" ry="8.3333" style="stroke:#1B1B1A;stroke-width:1.0416666666666667;" width="169.7917" x="552.0833" y="240.682"/><rect fill="#1B1B1A" height="8.3333" style="stroke:#1B1B1A;stroke-width:1.0416666666666667;" width="169.7917" x="552.0833" y="263.737"/><rect codeLine="9" fill="none" height="48.055" id="PropertyValueSource" rx="8.3333" ry="8.3333" style="stroke:#5E5E5E;stroke-width:1.0416666666666667;" width="169.7917" x="552.0833" y="240.682"/><ellipse cx="566.6667" cy="256.3761" fill="#008400" rx="10.4167" ry="10.4167" style="stroke:#239C23;stroke-width:1.0416666666666667;"/><path d="M563.5498,253.538 L563.5498,251.9511 L568.9758,251.9511 L568.9758,253.538 L567.1631,253.538 L567.1631,259.4767 L568.9758,259.4767 L568.9758,261.0636 L563.5498,261.0636 L563.5498,259.4767 L565.3625,259.4767 L565.3625,253.538 Z " fill="#000000"/><text fill="#D8BC00" font-family="Open Sans,Avenir,Nunito,Arial,Helvetica,SansSerif" font-size="12.5" font-style="italic" font-weight="bold" lengthAdjust="spacing" textLength="132.2917" x="583.3333" y="261.1003">PropertyValueSource</text><line style="stroke:#5E5E5E;stroke-width:1.0416666666666667;" x1="553.125" x2="720.8333" y1="272.0703" y2="272.0703"/><line style="stroke:#5E5E5E;stroke-width:1.0416666666666667;" x1="553.125" x2="720.8333" y1="280.4036" y2="280.4036"/><!--MD5=[763364d56ec725da253949db99c67731]
class TextColumn--><rect codeLine="12" fill="#282828" height="83.3781" id="TextColumn" rx="8.3333" ry="8.3333" style="stroke:#5E5E5E;stroke-width:1.0416666666666667;" width="163.5417" x="7.2917" y="473.4945"/><rect fill="#1B1B1A" height="31.3883" rx="8.3333" ry="8.3333" style="stroke:#1B1B1A;stroke-width:1.0416666666666667;" width="163.5417" x="7.2917" y="473.4945"/><rect fill="#1B1B1A" height="8.3333" style="stroke:#1B1B1A;stroke-width:1.0416666666666667;" width="163.5417" x="7.2917" y="496.5495"/><rect codeLine="12" fill="none" height="83.3781" id="TextColumn" rx="8.3333" ry="8.3333" style="stroke:#5E5E5E;stroke-width:1.0416666666666667;" width="163.5417" x="7.2917" y="473.4945"/><ellipse cx="42.9688" cy="489.1886" fill="#0066CF" rx="10.4167" ry="10.4167" style="stroke:#0086EF;stroke-width:1.0416666666666667;"/><path d="M44.8792,493.6137 Q44.4519,493.8334 43.9819,493.9433 Q43.512,494.0531 42.9932,494.0531 Q41.1499,494.0531 40.1794,492.8385 Q39.209,491.6239 39.209,489.329 Q39.209,487.028 40.1794,485.8134 Q41.1499,484.5988 42.9932,484.5988 Q43.512,484.5988 43.988,484.7087 Q44.4641,484.8185 44.8792,485.0382 L44.8792,487.0402 Q44.4153,486.613 43.9789,486.4146 Q43.5425,486.2162 43.0786,486.2162 Q42.0898,486.2162 41.5863,487.0005 Q41.0828,487.7848 41.0828,489.329 Q41.0828,490.8671 41.5863,491.6514 Q42.0898,492.4357 43.0786,492.4357 Q43.5425,492.4357 43.9789,492.2373 Q44.4153,492.039 44.8792,491.6117 Z " fill="#000000"/><text fill="#D8BC00" font-family="Open Sans,Avenir,Nunito,Arial,Helvetica,SansSerif" font-size="12.5" font-weight="bold" lengthAdjust="spacing" textLength="79.1667" x="64.3229" y="493.9128">TextColumn</text><line style="stroke:#5E5E5E;stroke-width:1.5625;" x1="8.3333" x2="169.7917" y1="504.8828" y2="504.8828"/><ellipse cx="18.75" cy="540.2527" fill="#84BE84" rx="3.125" ry="3.125" style="stroke:#038048;stroke-width:1.0416666666666667;"/><text fill="#D8BC00" font-family="Open Sans,Avenir,Nunito,Arial,Helvetica,SansSerif" font-size="11.4583" lengthAdjust="spacing" textLength="131.25" x="30.2083" y="547.1639">TextColumn(String, int)</text><line style="stroke:#5E5E5E;stroke-width:1.0416666666666667;" x1="8.3333" x2="45.3125" y1="523.0886" y2="523.0886"/><text fill="#D8BC00" font-family="Open Sans,Avenir,Nunito,Arial,Helvetica,SansSerif" font-size="11.4583" lengthAdjust="spacing" textLength="81.25" x="48.4375" y="526.8982">(constructors)</text><line style="stroke:#5E5E5E;stroke-width:1.0416666666666667;" x1="132.8125" x2="169.7917" y1="523.0886" y2="523.0886"/><!--MD5=[44653c4b0556a4375a8e0552cc365974]
class StringList--><rect fill="#282828" height="48.055" id="StringList" rx="8.3333" ry="8.3333" style="stroke:#5E5E5E;stroke-width:1.0416666666666667;" width="100" x="758.8542" y="240.682"/><rect fill="#1B1B1A" height="31.3883" rx="8.3333" ry="8.3333" style="stroke:#1B1B1A;stroke-width:1.0416666666666667;" width="100" x="758.8542" y="240.682"/><rect fill="#1B1B1A" height="8.3333" style="stroke:#1B1B1A;stroke-width:1.0416666666666667;" width="100" x="758.8542" y="263.737"/><rect fill="none" height="48.055" id="StringList" rx="8.3333" ry="8.3333" style="stroke:#5E5E5E;stroke-width:1.0416666666666667;" width="100" x="758.8542" y="240.682"/><ellipse cx="773.4375" cy="256.3761" fill="#0066CF" rx="10.4167" ry="10.4167" style="stroke:#0086EF;stroke-width:1.0416666666666667;"/><path d="M775.3479,260.8012 Q774.9207,261.0209 774.4507,261.1308 Q773.9807,261.2406 773.4619,261.2406 Q771.6187,261.2406 770.6482,260.026 Q769.6777,258.8114 769.6777,256.5165 Q769.6777,254.2155 770.6482,253.0009 Q771.6187,251.7863 773.4619,251.7863 Q773.9807,251.7863 774.4568,251.8962 Q774.9329,252.006 775.3479,252.2257 L775.3479,254.2277 Q774.884,253.8005 774.4476,253.6021 Q774.0112,253.4037 773.5474,253.4037 Q772.5586,253.4037 772.0551,254.188 Q771.5515,254.9723 771.5515,256.5165 Q771.5515,258.0546 772.0551,258.8389 Q772.5586,259.6232 773.5474,259.6232 Q774.0112,259.6232 774.4476,259.4248 Q774.884,259.2265 775.3479,258.7992 Z " fill="#000000"/><text fill="#D8BC00" font-family="Open Sans,Avenir,Nunito,Arial,Helvetica,SansSerif" font-size="12.5" font-weight="bold" lengthAdjust="spacing" textLength="62.5" x="790.1042" y="261.1003">StringList</text><line style="stroke:#5E5E5E;stroke-width:1.0416666666666667;" x1="759.8958" x2="857.8125" y1="272.0703" y2="272.0703"/><line style="stroke:#5E5E5E;stroke-width:1.0416666666666667;" x1="759.8958" x2="857.8125" y1="280.4036" y2="280.4036"/><!--MD5=[f0ccd831ddcdf42e20af10171975d45e]
class TextLine--><rect codeLine="20" fill="#282828" height="131.2012" id="TextLine" rx="8.3333" ry="8.3333" style="stroke:#5E5E5E;stroke-width:1.0416666666666667;" width="257.2917" x="523.9583" y="449.5361"/><rect fill="#1B1B1A" height="31.3883" rx="8.3333" ry="8.3333" style="stroke:#1B1B1A;stroke-width:1.0416666666666667;" width="257.2917" x="523.9583" y="449.5361"/><rect fill="#1B1B1A" height="8.3333" style="stroke:#1B1B1A;stroke-width:1.0416666666666667;" width="257.2917" x="523.9583" y="472.5911"/><rect codeLine="20" fill="none" height="131.2012" id="TextLine" rx="8.3333" ry="8.3333" style="stroke:#5E5E5E;stroke-width:1.0416666666666667;" width="257.2917" x="523.9583" y="449.5361"/><ellipse cx="617.7083" cy="465.2303" fill="#0066CF" rx="10.4167" ry="10.4167" style="stroke:#0086EF;stroke-width:1.0416666666666667;"/><path d="M619.6187,469.6554 Q619.1915,469.8751 618.7215,469.9849 Q618.2515,470.0948 617.7327,470.0948 Q615.8895,470.0948 614.919,468.8802 Q613.9486,467.6656 613.9486,465.3707 Q613.9486,463.0697 614.919,461.8551 Q615.8895,460.6405 617.7327,460.6405 Q618.2515,460.6405 618.7276,460.7503 Q619.2037,460.8602 619.6187,461.0799 L619.6187,463.0819 Q619.1549,462.6546 618.7185,462.4563 Q618.2821,462.2579 617.8182,462.2579 Q616.8294,462.2579 616.3259,463.0422 Q615.8223,463.8265 615.8223,465.3707 Q615.8223,466.9088 616.3259,467.6931 Q616.8294,468.4774 617.8182,468.4774 Q618.2821,468.4774 618.7185,468.279 Q619.1549,468.0806 619.6187,467.6534 Z " fill="#000000"/><text fill="#D8BC00" font-family="Open Sans,Avenir,Nunito,Arial,Helvetica,SansSerif" font-size="12.5" font-weight="bold" lengthAdjust="spacing" textLength="55.2083" x="640.625" y="469.9544">TextLine</text><line style="stroke:#5E5E5E;stroke-width:1.5625;" x1="525" x2="780.2083" y1="480.9245" y2="480.9245"/><line style="stroke:#5E5E5E;stroke-width:1.0416666666666667;" x1="525" x2="780.2083" y1="489.2578" y2="489.2578"/><ellipse cx="535.4167" cy="500.7161" fill="#84BE84" rx="3.125" ry="3.125" style="stroke:#038048;stroke-width:1.0416666666666667;"/><text fill="#D8BC00" font-family="Open Sans,Avenir,Nunito,Arial,Helvetica,SansSerif" font-size="11.4583" lengthAdjust="spacing" textLength="131.25" x="546.875" y="507.6274">String get(TextColumn)</text><ellipse cx="535.4167" cy="544.3726" fill="#84BE84" rx="3.125" ry="3.125" style="stroke:#038048;stroke-width:1.0416666666666667;"/><text fill="#D8BC00" font-family="Open Sans,Avenir,Nunito,Arial,Helvetica,SansSerif" font-size="11.4583" lengthAdjust="spacing" textLength="225" x="546.875" y="551.2838">T as(TextColumn, Converter&lt;String,T&gt;)</text><ellipse cx="535.4167" cy="564.1174" fill="#84BE84" rx="3.125" ry="3.125" style="stroke:#038048;stroke-width:1.0416666666666667;"/><text fill="#D8BC00" font-family="Open Sans,Avenir,Nunito,Arial,Helvetica,SansSerif" font-size="11.4583" lengthAdjust="spacing" textLength="151.0417" x="546.875" y="571.0286">T asObject(Class&lt;T&gt; type)</text><line style="stroke:#5E5E5E;stroke-width:1.0416666666666667;" x1="525" x2="614.0625" y1="527.2085" y2="527.2085"/><text fill="#D8BC00" font-family="Open Sans,Avenir,Nunito,Arial,Helvetica,SansSerif" font-size="11.4583" lengthAdjust="spacing" textLength="70.8333" x="617.1875" y="531.0181">(conversion)</text><line style="stroke:#5E5E5E;stroke-width:1.0416666666666667;" x1="691.1458" x2="780.2083" y1="527.2085" y2="527.2085"/><!--MD5=[23109c2cd2fdb4b6b230dd0b13a8bf93]
class TextReader--><rect codeLine="34" fill="#282828" height="198.7691" id="TextReader" rx="8.3333" ry="8.3333" style="stroke:#5E5E5E;stroke-width:1.0416666666666667;" width="302.0833" x="197.3958" y="165.1611"/><rect fill="#1B1B1A" height="31.3883" rx="8.3333" ry="8.3333" style="stroke:#1B1B1A;stroke-width:1.0416666666666667;" width="302.0833" x="197.3958" y="165.1611"/><rect fill="#1B1B1A" height="8.3333" style="stroke:#1B1B1A;stroke-width:1.0416666666666667;" width="302.0833" x="197.3958" y="188.2161"/><rect codeLine="34" fill="none" height="198.7691" id="TextReader" rx="8.3333" ry="8.3333" style="stroke:#5E5E5E;stroke-width:1.0416666666666667;" width="302.0833" x="197.3958" y="165.1611"/><ellipse cx="305.2083" cy="180.8553" fill="#0066CF" rx="10.4167" ry="10.4167" style="stroke:#0086EF;stroke-width:1.0416666666666667;"/><path d="M307.1187,185.2804 Q306.6915,185.5001 306.2215,185.6099 Q305.7515,185.7198 305.2327,185.7198 Q303.3895,185.7198 302.419,184.5052 Q301.4486,183.2906 301.4486,180.9957 Q301.4486,178.6947 302.419,177.4801 Q303.3895,176.2655 305.2327,176.2655 Q305.7515,176.2655 306.2276,176.3753 Q306.7037,176.4852 307.1187,176.7049 L307.1187,178.7069 Q306.6549,178.2796 306.2185,178.0813 Q305.7821,177.8829 305.3182,177.8829 Q304.3294,177.8829 303.8259,178.6672 Q303.3223,179.4515 303.3223,180.9957 Q303.3223,182.5338 303.8259,183.3181 Q304.3294,184.1024 305.3182,184.1024 Q305.7821,184.1024 306.2185,183.904 Q306.6549,183.7056 307.1187,183.2784 Z " fill="#000000"/><text fill="#D8BC00" font-family="Open Sans,Avenir,Nunito,Arial,Helvetica,SansSerif" font-size="12.5" font-weight="bold" lengthAdjust="spacing" textLength="71.875" x="328.125" y="185.5794">TextReader</text><line style="stroke:#5E5E5E;stroke-width:1.5625;" x1="198.4375" x2="498.4375" y1="196.5495" y2="196.5495"/><ellipse cx="208.8542" cy="231.9194" fill="#84BE84" rx="3.125" ry="3.125" style="stroke:#038048;stroke-width:1.0416666666666667;"/><text fill="#D8BC00" font-family="Open Sans,Avenir,Nunito,Arial,Helvetica,SansSerif" font-size="11.4583" lengthAdjust="spacing" textLength="269.7917" x="220.3125" y="238.8306">TextReader(Reader, List&lt;TextColumn&gt;, Pattern)</text><line style="stroke:#5E5E5E;stroke-width:1.0416666666666667;" x1="198.4375" x2="304.6875" y1="214.7552" y2="214.7552"/><text fill="#D8BC00" font-family="Open Sans,Avenir,Nunito,Arial,Helvetica,SansSerif" font-size="11.4583" lengthAdjust="spacing" textLength="81.25" x="307.8125" y="218.5649">(constructors)</text><line style="stroke:#5E5E5E;stroke-width:1.0416666666666667;" x1="392.1875" x2="498.4375" y1="214.7552" y2="214.7552"/><line style="stroke:#5E5E5E;stroke-width:1.0416666666666667;" x1="198.4375" x2="498.4375" y1="248.5392" y2="248.5392"/><ellipse cx="208.8542" cy="259.9976" fill="#84BE84" rx="3.125" ry="3.125" style="stroke:#038048;stroke-width:1.0416666666666667;"/><text fill="#D8BC00" font-family="Open Sans,Avenir,Nunito,Arial,Helvetica,SansSerif" font-size="11.4583" lengthAdjust="spacing" textLength="229.1667" x="220.3125" y="266.9088">void skipLines(int numberOfLinesToSkip)</text><ellipse cx="208.8542" cy="303.654" fill="#84BE84" rx="3.125" ry="3.125" style="stroke:#038048;stroke-width:1.0416666666666667;"/><text fill="#D8BC00" font-family="Open Sans,Avenir,Nunito,Arial,Helvetica,SansSerif" font-size="11.4583" lengthAdjust="spacing" textLength="238.5417" x="220.3125" y="310.5652">TextColumn columnForName(String name)</text><line style="stroke:#5E5E5E;stroke-width:1.0416666666666667;" x1="198.4375" x2="320.3125" y1="286.4899" y2="286.4899"/><text fill="#D8BC00" font-family="Open Sans,Avenir,Nunito,Arial,Helvetica,SansSerif" font-size="11.4583" lengthAdjust="spacing" textLength="50" x="323.4375" y="290.2995">(naming)</text><line style="stroke:#5E5E5E;stroke-width:1.0416666666666667;" x1="376.5625" x2="498.4375" y1="286.4899" y2="286.4899"/><polygon fill="#FFFF44" points="208.8542,342.1021,213.0208,346.2687,208.8542,350.4354,204.6875,346.2687" style="stroke:#B38D22;stroke-width:1.0416666666666667;"/><text fill="#D8BC00" font-family="Open Sans,Avenir,Nunito,Arial,Helvetica,SansSerif" font-size="11.4583" lengthAdjust="spacing" textLength="160.4167" x="220.3125" y="354.2216">void onPatternMatchFailure()</text><line style="stroke:#5E5E5E;stroke-width:1.0416666666666667;" x1="198.4375" x2="323.9583" y1="330.1463" y2="330.1463"/><text fill="#D8BC00" font-family="Open Sans,Avenir,Nunito,Arial,Helvetica,SansSerif" font-size="11.4583" lengthAdjust="spacing" textLength="42.7083" x="327.0833" y="333.9559">(status)</text><line style="stroke:#5E5E5E;stroke-width:1.0416666666666667;" x1="372.9167" x2="498.4375" y1="330.1463" y2="330.1463"/><!--MD5=[300be8f343901548ef80d6b1f35ca51b]
class LineNumberReader--><rect fill="#282828" height="48.055" id="LineNumberReader" rx="8.3333" ry="8.3333" style="stroke:#5E5E5E;stroke-width:1.0416666666666667;" width="159.375" x="207.2917" y="491.2028"/><rect fill="#1B1B1A" height="31.3883" rx="8.3333" ry="8.3333" style="stroke:#1B1B1A;stroke-width:1.0416666666666667;" width="159.375" x="207.2917" y="491.2028"/><rect fill="#1B1B1A" height="8.3333" style="stroke:#1B1B1A;stroke-width:1.0416666666666667;" width="159.375" x="207.2917" y="514.2578"/><rect fill="none" height="48.055" id="LineNumberReader" rx="8.3333" ry="8.3333" style="stroke:#5E5E5E;stroke-width:1.0416666666666667;" width="159.375" x="207.2917" y="491.2028"/><ellipse cx="221.875" cy="506.897" fill="#0066CF" rx="10.4167" ry="10.4167" style="stroke:#0086EF;stroke-width:1.0416666666666667;"/><path d="M223.7854,511.322 Q223.3582,511.5417 222.8882,511.6516 Q222.4182,511.7615 221.8994,511.7615 Q220.0562,511.7615 219.0857,510.5469 Q218.1152,509.3323 218.1152,507.0374 Q218.1152,504.7363 219.0857,503.5217 Q220.0562,502.3071 221.8994,502.3071 Q222.4182,502.3071 222.8943,502.417 Q223.3704,502.5269 223.7854,502.7466 L223.7854,504.7485 Q223.3215,504.3213 222.8851,504.1229 Q222.4487,503.9246 221.9849,503.9246 Q220.9961,503.9246 220.4926,504.7089 Q219.989,505.4932 219.989,507.0374 Q219.989,508.5754 220.4926,509.3597 Q220.9961,510.144 221.9849,510.144 Q222.4487,510.144 222.8851,509.9457 Q223.3215,509.7473 223.7854,509.3201 Z " fill="#000000"/><text fill="#D8BC00" font-family="Open Sans,Avenir,Nunito,Arial,Helvetica,SansSerif" font-size="12.5" font-weight="bold" lengthAdjust="spacing" textLength="121.875" x="238.5417" y="511.6211">LineNumberReader</text><line style="stroke:#5E5E5E;stroke-width:1.0416666666666667;" x1="208.3333" x2="365.625" y1="522.5911" y2="522.5911"/><line style="stroke:#5E5E5E;stroke-width:1.0416666666666667;" x1="208.3333" x2="365.625" y1="530.9245" y2="530.9245"/><!--MD5=[e57988045781fc9269750b4152037d27]
class Pattern--><rect fill="#282828" height="48.055" id="Pattern" rx="8.3333" ry="8.3333" style="stroke:#5E5E5E;stroke-width:1.0416666666666667;" width="83.3333" x="403.6458" y="491.2028"/><rect fill="#1B1B1A" height="31.3883" rx="8.3333" ry="8.3333" style="stroke:#1B1B1A;stroke-width:1.0416666666666667;" width="83.3333" x="403.6458" y="491.2028"/><rect fill="#1B1B1A" height="8.3333" style="stroke:#1B1B1A;stroke-width:1.0416666666666667;" width="83.3333" x="403.6458" y="514.2578"/><rect fill="none" height="48.055" id="Pattern" rx="8.3333" ry="8.3333" style="stroke:#5E5E5E;stroke-width:1.0416666666666667;" width="83.3333" x="403.6458" y="491.2028"/><ellipse cx="418.2292" cy="506.897" fill="#0066CF" rx="10.4167" ry="10.4167" style="stroke:#0086EF;stroke-width:1.0416666666666667;"/><path d="M420.1396,511.322 Q419.7123,511.5417 419.2424,511.6516 Q418.7724,511.7615 418.2536,511.7615 Q416.4103,511.7615 415.4399,510.5469 Q414.4694,509.3323 414.4694,507.0374 Q414.4694,504.7363 415.4399,503.5217 Q416.4103,502.3071 418.2536,502.3071 Q418.7724,502.3071 419.2485,502.417 Q419.7245,502.5269 420.1396,502.7466 L420.1396,504.7485 Q419.6757,504.3213 419.2393,504.1229 Q418.8029,503.9246 418.339,503.9246 Q417.3503,503.9246 416.8467,504.7089 Q416.3432,505.4932 416.3432,507.0374 Q416.3432,508.5754 416.8467,509.3597 Q417.3503,510.144 418.339,510.144 Q418.8029,510.144 419.2393,509.9457 Q419.6757,509.7473 420.1396,509.3201 Z " fill="#000000"/><text fill="#D8BC00" font-family="Open Sans,Avenir,Nunito,Arial,Helvetica,SansSerif" font-size="12.5" font-weight="bold" lengthAdjust="spacing" textLength="45.8333" x="434.8958" y="511.6211">Pattern</text><line style="stroke:#5E5E5E;stroke-width:1.0416666666666667;" x1="404.6875" x2="485.9375" y1="522.5911" y2="522.5911"/><line style="stroke:#5E5E5E;stroke-width:1.0416666666666667;" x1="404.6875" x2="485.9375" y1="530.9245" y2="530.9245"/><!--MD5=[de057cbf9a2643d65865aca0643f13ab]
reverse link Named to TextColumn--><path codeLine="11" d="M89.0625,309.5882 C89.0625,355.8695 89.0625,428.2132 89.0625,473.307 " fill="none" id="Named-backto-TextColumn" style="stroke:#545454;stroke-width:1.5625;"/><polygon fill="none" points="81.7708,309.4424,89.0625,288.609,96.3542,309.4424,81.7708,309.4424" style="stroke:#545454;stroke-width:1.5625;"/><!--MD5=[7bba717ad09f3b93f8d74c2954a3a6c6]
reverse link StringList to TextLine--><path codeLine="18" d="M783.2604,306.3799 C758.8542,345.1715 721.7188,404.234 693.2604,449.4736 " fill="none" id="StringList-backto-TextLine" style="stroke:#545454;stroke-width:1.5625;"/><polygon fill="none" points="777.1667,302.359,794.4375,288.609,789.5104,310.1299,777.1667,302.359" style="stroke:#545454;stroke-width:1.5625;"/><!--MD5=[a8c048c1984efc1dd4da04f4aa5309c8]
reverse link PropertyValueSource to TextLine--><path codeLine="19" d="M639.7396,309.609 C642.1771,348.4007 645.7708,405.4736 648.5417,449.4736 " fill="none" id="PropertyValueSource-backto-TextLine" style="stroke:#545454;stroke-width:1.5625;"/><polygon fill="none" points="632.4479,309.859,638.4167,288.609,647.0104,308.9424,632.4479,309.859" style="stroke:#545454;stroke-width:1.5625;"/><!--MD5=[3b4507720c5570b363141bc93acc17e8]
reverse link BaseObjectReader to TextReader--><path codeLine="29" d="M348.4375,122.7028 C348.4375,135.5778 348.4375,150.2028 348.4375,165.0361 " fill="none" id="BaseObjectReader-backto-TextReader" style="stroke:#545454;stroke-width:1.5625;"/><polygon fill="none" points="341.1458,122.5778,348.4375,101.7445,355.7292,122.5778,341.1458,122.5778" style="stroke:#545454;stroke-width:1.5625;"/><!--MD5=[76669bb6eeb32650fa3a9ed1ffaa173f]
link TextReader to TextLine--><path codeLine="30" d="M469.0938,364.2236 C502.5833,391.5882 538.1979,420.682 569.0625,445.8799 " fill="none" id="TextReader-to-TextLine" style="stroke:#545454;stroke-width:1.5625;"/><polygon fill="#545454" points="573.1875,449.2549,568.5757,440.0907,569.1585,445.9543,563.2948,446.5371,573.1875,449.2549" style="stroke:#545454;stroke-width:1.5625;"/><text fill="#A0A0A0" font-family="Open Sans,Avenir,Nunito,Arial,Helvetica,SansSerif" font-size="12.5" font-weight="bold" lengthAdjust="spacing" textLength="35.4167" x="531.7708" y="411.6211">reads</text><!--MD5=[c8938a57c8f01e70f017c9cd051182a7]
reverse link TextReader to TextColumn--><path codeLine="31" d="M235.7083,373.6507 C198.7917,409.0153 160.0104,446.1611 131.6146,473.359 " fill="none" id="TextReader-backto-TextColumn" style="stroke:#545454;stroke-width:1.5625;"/><polygon fill="#333333" points="245.5521,364.2236,238.1561,365.5361,236.5229,372.868,243.919,371.5555,245.5521,364.2236" style="stroke:#545454;stroke-width:1.5625;"/><text fill="#A0A0A0" font-family="Open Sans,Avenir,Nunito,Arial,Helvetica,SansSerif" font-size="12.5" font-weight="bold" lengthAdjust="spacing" textLength="8.3333" x="226.0026" y="387.5237">1</text><text fill="#A0A0A0" font-family="Open Sans,Avenir,Nunito,Arial,Helvetica,SansSerif" font-size="12.5" font-weight="bold" lengthAdjust="spacing" textLength="6.25" x="128.0252" y="459.4208">*</text><!--MD5=[015cc2ceab011de9de5023e885eb42e8]
reverse link TextReader to LineNumberReader--><path codeLine="32" d="M320.7396,377.6403 C310.2188,420.182 299.2188,464.6507 292.7396,490.8382 " fill="none" id="TextReader-backto-LineNumberReader" style="stroke:#545454;stroke-width:1.5625;"/><polygon fill="#333333" points="324.0625,364.2236,318.5138,369.2868,321.0534,376.3561,326.6021,371.2929,324.0625,364.2236" style="stroke:#545454;stroke-width:1.5625;"/><!--MD5=[beb906cda62b5728b6b9b2bc4fa1f672]
reverse link TextReader to Pattern--><path codeLine="33" d="M391.8854,377.0882 C408.5313,419.7965 425.9792,464.5361 436.2396,490.8382 " fill="none" id="TextReader-backto-Pattern" style="stroke:#545454;stroke-width:1.5625;"/><polygon fill="#333333" points="386.8646,364.2236,385.2557,371.5609,391.4097,375.868,393.0186,368.5308,386.8646,364.2236" style="stroke:#545454;stroke-width:1.5625;"/><!--MD5=[cf42ff690704187d1058f0ded9c19518]
@startuml

    !include ../lexakai.theme
    
    title "com.telenav.kivakit.data.formats.library.text"
    
    abstract BaseObjectReader
    
    interface Named
    interface PropertyValueSource
    
    Named <|- - TextColumn
    class TextColumn
    {
        - -(constructors)- -
        +TextColumn(String, int)
    }
    
    StringList <|- - TextLine
    PropertyValueSource <|- - TextLine
    class TextLine
    {
        - -
        +String get(TextColumn)
        - -(conversion)- -
        +T as(TextColumn, Converter<String,T>)
        +T asObject(Class<T> type)
    }
    
    BaseObjectReader <|- - TextReader
    TextReader - -> TextLine : "reads"
    TextReader "1" o- - "*" TextColumn
    TextReader o- - LineNumberReader
    TextReader o- - Pattern
    class TextReader
    {
        - -(constructors)- -
        +TextReader(Reader, List<TextColumn>, Pattern)
        - -
        +void skipLines(int numberOfLinesToSkip)
        - -(naming)- -
        +TextColumn columnForName(String name)
        - -(status)- -
        #void onPatternMatchFailure()
    }
    
@enduml

@startuml









skinparam backgroundColor #333333






skinparam  {
    defaultFontName   "Open Sans,Avenir,Nunito,Arial,Helvetica,SansSerif"
    defaultFontSize   12
    defaultTextAlignment left
    shadowing false
    RoundCorner 10
    TitleFontSize 18
}

skinparam defaultFontName       "Open Sans,Avenir,Nunito,Arial,Helvetica,SansSerif"
skinparam defaultFontSize       12
skinparam dpi                   100
skinparam shadowing             false
skinparam roundcorner           16
skinparam ParticipantPadding    40
skinparam BoxPadding            40
skinparam Padding               3
skinparam ArrowColor            #545454
skinparam stereotype {
    CBackgroundColor #0066cf
    CBorderColor #0086ef
    ABackgroundColor #C8Ac00
    ABorderColor #D8Bc00
    IBackgroundColor #008400
    IBorderColor #239c23
    EBackgroundColor #cf6300
    EBorderColor #ef8300
    NBackgroundColor #3380b9
    NBorderColor #004d86
}
skinparam title {
	FontColor	                 #c0c0c0
 	BorderColor                  #545454
	FontSize	    	         20
	BorderRoundCorner            16
	BorderThickness 	         1
	BackgroundColor              #48494b
}


skinparam legend {
	BackgroundColor #303030
	BorderColor #404040
	FontColor #a0a0a0
}

	skinparam swimlane {
	BorderColor #5e5e5e
	BorderThickness 2
	TitleBackgroundColor  #6d6d6d-#484848
	TitleFontColor #303030
}

skinparam activity {
		FontColor #C8Ac00
	BorderColor #333333
	BackgroundColor #333333-#333333
	BarColor #00FF00
	StartColor #0060a8
	EndColor #0060a8
	DiamondBackgroundColor #6d6d6d-#3a3a3a
  	DiamondBorderColor #3a3a3a
  	DiamondFontColor #fefefe
}


skinparam participant {
		FontColor #C8Ac00
	BorderColor #333333
	BackgroundColor #333333-#333333
	ParticipantBorderThickness 2
}


skinparam actor {
		FontColor #C8Ac00
	BorderColor #333333
	BackgroundColor #333333-#333333
}


skinparam arrow {
	Thickness 1.5
	Color #545454
	FontColor #a0a0a0
    FontStyle bold
    MessageAlignment center
}



skinparam sequence {
	BorderColor #303030
	TitleFontColor #303030
	BackgroundColor #333333
	StartColor #303030
	EndColor #303030
	BoxBackgroundColor #333333
	BoxBorderColor #484848
	BoxFontColor #484848
	LifeLineBorderColor #484848
	LifeLineBorderThickness 2
	LifeLineBackgroundColor #3a3a3a
	GroupBorderColor #484848
	GroupFontColor #484848
	GroupHeaderFontColor #0060a8
	GroupBackgroundColor #484848
	GroupHeaderBackgroundColor #333333
	DividerBackgroundColor #484848
    DividerBorderColor #484848
    DividerBorderThickness 2
    DividerFontColor #D8Bc00
	ReferenceBackgroundColor #333333
	ReferenceBorderColor #484848
	ReferenceFontColor #fefefe
	ReferenceHeaderBackgroundColor #484848
}


skinparam partition {
	BorderColor #303030
	FontColor #333333
	BackgroundColor #333333
}


skinparam collections {
		FontColor #C8Ac00
	BorderColor #333333
	BackgroundColor #333333-#333333
}


skinparam control {
		FontColor #C8Ac00
	BorderColor #333333
	BackgroundColor #333333-#333333
}


skinparam entity {
		FontColor #C8Ac00
	BorderColor #333333
	BackgroundColor #333333-#333333
}


skinparam boundary {
		FontColor #C8Ac00
	BorderColor #333333
	BackgroundColor #333333-#333333
}


skinparam agent {
	BackgroundColor #ff8000
	BorderColor #ff9933
	FontColor #484848
}


skinparam note {
	BorderThickness 1
	BackgroundColor #1b1b1a
	BorderColor #5e5e5e
	FontSize 11
	FontColor #a0a0a0
}


skinparam artifact {
	BorderThickness 10
	BorderColor #5e5e5e
	BackgroundColor #1b1b1a
	FontColor #D8Bc00
}


skinparam component {
		FontColor #C8Ac00
	BorderColor #333333
	BackgroundColor #333333-#333333
}


skinparam interface {
	BackgroundColor  #008400
	BorderColor  #007F00
	FontColor #484848
}


skinparam storage {
	BackgroundColor #ff8000
  	BorderColor #cc6600
	FontColor #222222
}


skinparam node {
	BackgroundColor #333333
	BorderColor #333333
	FontColor #C8Ac00
}


skinparam cloud {
	BackgroundColor #484848-black
	BorderColor #484848
	FontColor #D8Bc00
}


skinparam database {
		FontColor #C8Ac00
	BorderColor #333333
	BackgroundColor #333333-#333333
	BackgroundColor  #333333
}


skinparam class {
		FontColor #C8Ac00
	BorderColor #333333
	BackgroundColor #333333-#333333
	HeaderBackgroundColor #1b1b1a
    BackgroundColor #282828
    BorderColor #5e5e5e
 	StereotypeFontColor #a0a0a0
    StereotypeFontStyle bold
	BorderThickness 1
	AttributeFontColor #D8Bc00
	AttributeFontSize 11
    FontColor #D8Bc00
    FontStyle bold
}


skinparam object {
		FontColor #C8Ac00
	BorderColor #333333
	BackgroundColor #333333-#333333
	StereotypeFontColor #484848
	BorderThickness 1
	AttributeFontColor #fefefe
	AttributeFontSize 11
}


skinparam usecase {
		FontColor #C8Ac00
	BorderColor #333333
	BackgroundColor #333333-#333333
	BorderThickness 2
	StereotypeFontColor #303030
}


skinparam rectangle {
		FontColor #C8Ac00
	BorderColor #333333
	BackgroundColor #333333-#333333
	BackgroundColor #333333
	BorderThickness 2
	StereotypeFontColor #303030
}


skinparam package {
		FontColor #C8Ac00
	BorderColor #333333
	BackgroundColor #333333-#333333
	BackgroundColor #333333
	BorderThickness 2
}


skinparam folder {
	BackgroundColor #6d6d6d
  	BorderColor #ff8000
	FontColor #ff8000
	BorderThickness 2
}


skinparam frame {
	BackgroundColor #6d6d6d
  	BorderColor #0060a8
	FontColor #0060a8
	BorderThickness 2
}


skinparam state {
		FontColor #C8Ac00
	BorderColor #333333
	BackgroundColor #333333-#333333
	StartColor #0060a8
	EndColor #0060a8
	AttributeFontColor #fefefe
	AttributeFontSize 11
}


skinparam queue {
		FontColor #C8Ac00
	BorderColor #333333
	BackgroundColor #333333-#333333
}


skinparam card {
	BackgroundColor #0060a8
	BorderColor #004d86
	FontColor $INFO_TEXT
}


skinparam file {
	BackgroundColor #6d6d6d-#484848
	BorderColor #0060a8
	FontColor #fefefe
}


skinparam stack {
		FontColor #C8Ac00
	BorderColor #333333
	BackgroundColor #333333-#333333
}

    
    title "com.telenav.kivakit.data.formats.library.text"
    
    abstract BaseObjectReader
    
    interface Named
    interface PropertyValueSource
    
    Named <|- - TextColumn
    class TextColumn
    {
        - -(constructors)- -
        +TextColumn(String, int)
    }
    
    StringList <|- - TextLine
    PropertyValueSource <|- - TextLine
    class TextLine
    {
        - -
        +String get(TextColumn)
        - -(conversion)- -
        +T as(TextColumn, Converter<String,T>)
        +T asObject(Class<T> type)
    }
    
    BaseObjectReader <|- - TextReader
    TextReader - -> TextLine : "reads"
    TextReader "1" o- - "*" TextColumn
    TextReader o- - LineNumberReader
    TextReader o- - Pattern
    class TextReader
    {
        - -(constructors)- -
        +TextReader(Reader, List<TextColumn>, Pattern)
        - -
        +void skipLines(int numberOfLinesToSkip)
        - -(naming)- -
        +TextColumn columnForName(String name)
        - -(status)- -
        #void onPatternMatchFailure()
    }
    
@enduml

PlantUML version 1.2021.01(Tue Feb 02 00:55:08 MST 2021)
(GPL source distribution)
Java Runtime: Java(TM) SE Runtime Environment
JVM: Java HotSpot(TM) 64-Bit Server VM
Default Encoding: UTF-8
Language: en
Country: US
--></g></svg>