<?xml version="1.0" encoding="UTF-8" standalone="no"?><svg xmlns="http://www.w3.org/2000/svg" xmlns:xlink="http://www.w3.org/1999/xlink" contentScriptType="application/ecmascript" contentStyleType="text/css" height="254.1667px" preserveAspectRatio="none" style="width:584px;height:254px;background:#333333;" version="1.1" viewBox="0 0 584 254" width="584.375px" zoomAndPan="magnify"><defs/><g><rect fill="#48494B" height="41.2028" rx="8.3333" ry="8.3333" style="stroke:#545454;stroke-width:1.0416666666666667;" width="327.0833" x="121.3542" y="2.0833"/><text fill="#C0C0C0" font-family="Open Sans,Avenir,Nunito,Arial,Helvetica,SansSerif" font-size="20.8333" lengthAdjust="spacing" textLength="304.1667" x="132.8125" y="30.5583">com.telenav.kivakit.web.jersey</text><!--MD5=[9e3c317e9bfc85db7837d23c55ced366]
class BaseJettyServlet--><rect codeLine="6" fill="#282828" height="48.055" id="BaseJettyServlet" rx="8.3333" ry="8.3333" style="stroke:#5E5E5E;stroke-width:1.0416666666666667;" width="141.6667" x="30.2083" y="53.7028"/><rect fill="#1B1B1A" height="31.3883" rx="8.3333" ry="8.3333" style="stroke:#1B1B1A;stroke-width:1.0416666666666667;" width="141.6667" x="30.2083" y="53.7028"/><rect fill="#1B1B1A" height="8.3333" style="stroke:#1B1B1A;stroke-width:1.0416666666666667;" width="141.6667" x="30.2083" y="76.7578"/><rect codeLine="6" fill="none" height="48.055" id="BaseJettyServlet" rx="8.3333" ry="8.3333" style="stroke:#5E5E5E;stroke-width:1.0416666666666667;" width="141.6667" x="30.2083" y="53.7028"/><ellipse cx="44.7917" cy="69.397" fill="#C8AC00" rx="10.4167" ry="10.4167" style="stroke:#D8BC00;stroke-width:1.0416666666666667;"/><path d="M44.9056,66.099 L44.0572,69.8283 L45.7601,69.8283 Z M43.807,64.4511 L46.0103,64.4511 L48.4701,73.5636 L46.6695,73.5636 L46.108,71.3114 L43.6971,71.3114 L43.1478,73.5636 L41.3472,73.5636 Z " fill="#000000"/><text fill="#D8BC00" font-family="Open Sans,Avenir,Nunito,Arial,Helvetica,SansSerif" font-size="12.5" font-style="italic" font-weight="bold" lengthAdjust="spacing" textLength="104.1667" x="61.4583" y="74.1211">BaseJettyServlet</text><line style="stroke:#5E5E5E;stroke-width:1.0416666666666667;" x1="31.25" x2="170.8333" y1="85.0911" y2="85.0911"/><line style="stroke:#5E5E5E;stroke-width:1.0416666666666667;" x1="31.25" x2="170.8333" y1="93.4245" y2="93.4245"/><!--MD5=[a0f83224cc48910bf06f7f48df40de46]
class ResourceConfig--><rect fill="#282828" height="48.055" id="ResourceConfig" rx="8.3333" ry="8.3333" style="stroke:#5E5E5E;stroke-width:1.0416666666666667;" width="139.5833" x="246.875" y="53.7028"/><rect fill="#1B1B1A" height="31.3883" rx="8.3333" ry="8.3333" style="stroke:#1B1B1A;stroke-width:1.0416666666666667;" width="139.5833" x="246.875" y="53.7028"/><rect fill="#1B1B1A" height="8.3333" style="stroke:#1B1B1A;stroke-width:1.0416666666666667;" width="139.5833" x="246.875" y="76.7578"/><rect fill="none" height="48.055" id="ResourceConfig" rx="8.3333" ry="8.3333" style="stroke:#5E5E5E;stroke-width:1.0416666666666667;" width="139.5833" x="246.875" y="53.7028"/><ellipse cx="261.4583" cy="69.397" fill="#0066CF" rx="10.4167" ry="10.4167" style="stroke:#0086EF;stroke-width:1.0416666666666667;"/><path d="M263.3687,73.822 Q262.9415,74.0417 262.4715,74.1516 Q262.0015,74.2615 261.4827,74.2615 Q259.6395,74.2615 258.669,73.0469 Q257.6986,71.8323 257.6986,69.5374 Q257.6986,67.2363 258.669,66.0217 Q259.6395,64.8071 261.4827,64.8071 Q262.0015,64.8071 262.4776,64.917 Q262.9537,65.0269 263.3687,65.2466 L263.3687,67.2485 Q262.9049,66.8213 262.4685,66.6229 Q262.0321,66.4246 261.5682,66.4246 Q260.5794,66.4246 260.0759,67.2089 Q259.5723,67.9932 259.5723,69.5374 Q259.5723,71.0754 260.0759,71.8597 Q260.5794,72.644 261.5682,72.644 Q262.0321,72.644 262.4685,72.4457 Q262.9049,72.2473 263.3687,71.8201 Z " fill="#000000"/><text fill="#D8BC00" font-family="Open Sans,Avenir,Nunito,Arial,Helvetica,SansSerif" font-size="12.5" font-weight="bold" lengthAdjust="spacing" textLength="102.0833" x="278.125" y="74.1211">ResourceConfig</text><line style="stroke:#5E5E5E;stroke-width:1.0416666666666667;" x1="247.9167" x2="385.4167" y1="85.0911" y2="85.0911"/><line style="stroke:#5E5E5E;stroke-width:1.0416666666666667;" x1="247.9167" x2="385.4167" y1="93.4245" y2="93.4245"/><!--MD5=[27d213d4ed95fdbe7173cda43aea406f]
class BaseRestApplication--><rect codeLine="9" fill="#282828" height="48.055" id="BaseRestApplication" rx="8.3333" ry="8.3333" style="stroke:#5E5E5E;stroke-width:1.0416666666666667;" width="169.7917" x="231.7708" y="181.8278"/><rect fill="#1B1B1A" height="31.3883" rx="8.3333" ry="8.3333" style="stroke:#1B1B1A;stroke-width:1.0416666666666667;" width="169.7917" x="231.7708" y="181.8278"/><rect fill="#1B1B1A" height="8.3333" style="stroke:#1B1B1A;stroke-width:1.0416666666666667;" width="169.7917" x="231.7708" y="204.8828"/><rect codeLine="9" fill="none" height="48.055" id="BaseRestApplication" rx="8.3333" ry="8.3333" style="stroke:#5E5E5E;stroke-width:1.0416666666666667;" width="169.7917" x="231.7708" y="181.8278"/><ellipse cx="246.3542" cy="197.522" fill="#0066CF" rx="10.4167" ry="10.4167" style="stroke:#0086EF;stroke-width:1.0416666666666667;"/><path d="M248.2646,201.947 Q247.8373,202.1667 247.3674,202.2766 Q246.8974,202.3865 246.3786,202.3865 Q244.5353,202.3865 243.5649,201.1719 Q242.5944,199.9573 242.5944,197.6624 Q242.5944,195.3613 243.5649,194.1467 Q244.5353,192.9321 246.3786,192.9321 Q246.8974,192.9321 247.3735,193.042 Q247.8495,193.1519 248.2646,193.3716 L248.2646,195.3735 Q247.8007,194.9463 247.3643,194.7479 Q246.9279,194.5496 246.464,194.5496 Q245.4753,194.5496 244.9717,195.3339 Q244.4682,196.1182 244.4682,197.6624 Q244.4682,199.2004 244.9717,199.9847 Q245.4753,200.769 246.464,200.769 Q246.9279,200.769 247.3643,200.5707 Q247.8007,200.3723 248.2646,199.9451 Z " fill="#000000"/><text fill="#D8BC00" font-family="Open Sans,Avenir,Nunito,Arial,Helvetica,SansSerif" font-size="12.5" font-weight="bold" lengthAdjust="spacing" textLength="132.2917" x="263.0208" y="202.2461">BaseRestApplication</text><line style="stroke:#5E5E5E;stroke-width:1.0416666666666667;" x1="232.8125" x2="400.5208" y1="213.2161" y2="213.2161"/><line style="stroke:#5E5E5E;stroke-width:1.0416666666666667;" x1="232.8125" x2="400.5208" y1="221.5495" y2="221.5495"/><!--MD5=[928e667f896ed41e23857b4f3f65eea1]
class BaseRestResource--><rect codeLine="13" fill="#282828" height="48.055" id="BaseRestResource" rx="8.3333" ry="8.3333" style="stroke:#5E5E5E;stroke-width:1.0416666666666667;" width="154.1667" x="422.9167" y="53.7028"/><rect fill="#1B1B1A" height="31.3883" rx="8.3333" ry="8.3333" style="stroke:#1B1B1A;stroke-width:1.0416666666666667;" width="154.1667" x="422.9167" y="53.7028"/><rect fill="#1B1B1A" height="8.3333" style="stroke:#1B1B1A;stroke-width:1.0416666666666667;" width="154.1667" x="422.9167" y="76.7578"/><rect codeLine="13" fill="none" height="48.055" id="BaseRestResource" rx="8.3333" ry="8.3333" style="stroke:#5E5E5E;stroke-width:1.0416666666666667;" width="154.1667" x="422.9167" y="53.7028"/><ellipse cx="437.5" cy="69.397" fill="#0066CF" rx="10.4167" ry="10.4167" style="stroke:#0086EF;stroke-width:1.0416666666666667;"/><path d="M439.4104,73.822 Q438.9832,74.0417 438.5132,74.1516 Q438.0432,74.2615 437.5244,74.2615 Q435.6812,74.2615 434.7107,73.0469 Q433.7402,71.8323 433.7402,69.5374 Q433.7402,67.2363 434.7107,66.0217 Q435.6812,64.8071 437.5244,64.8071 Q438.0432,64.8071 438.5193,64.917 Q438.9954,65.0269 439.4104,65.2466 L439.4104,67.2485 Q438.9465,66.8213 438.5101,66.6229 Q438.0737,66.4246 437.6099,66.4246 Q436.6211,66.4246 436.1176,67.2089 Q435.614,67.9932 435.614,69.5374 Q435.614,71.0754 436.1176,71.8597 Q436.6211,72.644 437.6099,72.644 Q438.0737,72.644 438.5101,72.4457 Q438.9465,72.2473 439.4104,71.8201 Z " fill="#000000"/><text fill="#D8BC00" font-family="Open Sans,Avenir,Nunito,Arial,Helvetica,SansSerif" font-size="12.5" font-weight="bold" lengthAdjust="spacing" textLength="116.6667" x="454.1667" y="74.1211">BaseRestResource</text><line style="stroke:#5E5E5E;stroke-width:1.0416666666666667;" x1="423.9583" x2="576.0417" y1="85.0911" y2="85.0911"/><line style="stroke:#5E5E5E;stroke-width:1.0416666666666667;" x1="423.9583" x2="576.0417" y1="93.4245" y2="93.4245"/><!--MD5=[591d38ca3693ee05ea0753d6d33ea959]
class JettyJersey--><rect codeLine="18" fill="#282828" height="83.3781" id="JettyJersey" rx="8.3333" ry="8.3333" style="stroke:#5E5E5E;stroke-width:1.0416666666666667;" width="187.5" x="7.2917" y="164.1195"/><rect fill="#1B1B1A" height="31.3883" rx="8.3333" ry="8.3333" style="stroke:#1B1B1A;stroke-width:1.0416666666666667;" width="187.5" x="7.2917" y="164.1195"/><rect fill="#1B1B1A" height="8.3333" style="stroke:#1B1B1A;stroke-width:1.0416666666666667;" width="187.5" x="7.2917" y="187.1745"/><rect codeLine="18" fill="none" height="83.3781" id="JettyJersey" rx="8.3333" ry="8.3333" style="stroke:#5E5E5E;stroke-width:1.0416666666666667;" width="187.5" x="7.2917" y="164.1195"/><ellipse cx="58.8542" cy="179.8136" fill="#0066CF" rx="10.4167" ry="10.4167" style="stroke:#0086EF;stroke-width:1.0416666666666667;"/><path d="M60.7646,184.2387 Q60.3373,184.4584 59.8674,184.5683 Q59.3974,184.6781 58.8786,184.6781 Q57.0353,184.6781 56.0649,183.4635 Q55.0944,182.2489 55.0944,179.954 Q55.0944,177.653 56.0649,176.4384 Q57.0353,175.2238 58.8786,175.2238 Q59.3974,175.2238 59.8735,175.3337 Q60.3495,175.4435 60.7646,175.6632 L60.7646,177.6652 Q60.3007,177.238 59.8643,177.0396 Q59.4279,176.8412 58.964,176.8412 Q57.9753,176.8412 57.4717,177.6255 Q56.9682,178.4098 56.9682,179.954 Q56.9682,181.4921 57.4717,182.2764 Q57.9753,183.0607 58.964,183.0607 Q59.4279,183.0607 59.8643,182.8623 Q60.3007,182.664 60.7646,182.2367 Z " fill="#000000"/><text fill="#D8BC00" font-family="Open Sans,Avenir,Nunito,Arial,Helvetica,SansSerif" font-size="12.5" font-weight="bold" lengthAdjust="spacing" textLength="69.7917" x="81.7708" y="184.5378">JettyJersey</text><line style="stroke:#5E5E5E;stroke-width:1.5625;" x1="8.3333" x2="193.75" y1="195.5078" y2="195.5078"/><ellipse cx="18.75" cy="230.8777" fill="#84BE84" rx="3.125" ry="3.125" style="stroke:#038048;stroke-width:1.0416666666666667;"/><text fill="#D8BC00" font-family="Open Sans,Avenir,Nunito,Arial,Helvetica,SansSerif" font-size="11.4583" lengthAdjust="spacing" textLength="155.2083" x="30.2083" y="237.7889">JettyJersey(ResourceConfig)</text><line style="stroke:#5E5E5E;stroke-width:1.0416666666666667;" x1="8.3333" x2="57.2917" y1="213.7136" y2="213.7136"/><text fill="#D8BC00" font-family="Open Sans,Avenir,Nunito,Arial,Helvetica,SansSerif" font-size="11.4583" lengthAdjust="spacing" textLength="81.25" x="60.4167" y="217.5232">(constructors)</text><line style="stroke:#5E5E5E;stroke-width:1.0416666666666667;" x1="144.7917" x2="193.75" y1="213.7136" y2="213.7136"/><!--MD5=[204842c10e62df657459b72e763e91c2]
reverse link ResourceConfig to BaseRestApplication--><path codeLine="8" d="M316.6667,122.9528 C316.6667,142.7965 316.6667,165.3799 316.6667,181.7757 " fill="none" id="ResourceConfig-backto-BaseRestApplication" style="stroke:#545454;stroke-width:1.5625;"/><polygon fill="none" points="309.375,122.6507,316.6667,101.8174,323.9583,122.6507,309.375,122.6507" style="stroke:#545454;stroke-width:1.5625;"/><!--MD5=[ab1e6442cadc995bbff13df18515e569]
reverse link BaseJettyServlet to JettyJersey--><path codeLine="17" d="M101.0417,122.682 C101.0417,136.0778 101.0417,150.7445 101.0417,163.9215 " fill="none" id="BaseJettyServlet-backto-JettyJersey" style="stroke:#545454;stroke-width:1.5625;"/><polygon fill="none" points="93.75,122.6507,101.0417,101.8174,108.3333,122.6507,93.75,122.6507" style="stroke:#545454;stroke-width:1.5625;"/><!--MD5=[de8da381a4603fa3fb1c16f60e310f79]
@startuml

    !include ../lexakai/lexakai.theme
    
    title "com.telenav.kivakit.web.jersey"
    
    abstract BaseJettyServlet
    
    ResourceConfig <|- - BaseRestApplication
    class BaseRestApplication
    {
    }
    
    class BaseRestResource
    {
    }
    
    BaseJettyServlet <|- - JettyJersey
    class JettyJersey
    {
        - -(constructors)- -
        +JettyJersey(ResourceConfig)
    }
    
@enduml

@startuml









skinparam backgroundColor #333333






skinparam  {
    defaultFontName   "Open Sans,Avenir,Nunito,Arial,Helvetica,SansSerif"
    defaultFontSize   12
    defaultTextAlignment left
    shadowing false
    RoundCorner 10
    TitleFontSize 18
}

skinparam defaultFontName       "Open Sans,Avenir,Nunito,Arial,Helvetica,SansSerif"
skinparam defaultFontSize       12
skinparam dpi                   100
skinparam shadowing             false
skinparam roundcorner           16
skinparam ParticipantPadding    40
skinparam BoxPadding            40
skinparam Padding               3
skinparam ArrowColor            #545454
skinparam stereotype {
    CBackgroundColor #0066cf
    CBorderColor #0086ef
    ABackgroundColor #C8Ac00
    ABorderColor #D8Bc00
    IBackgroundColor #008400
    IBorderColor #239c23
    EBackgroundColor #cf6300
    EBorderColor #ef8300
    NBackgroundColor #3380b9
    NBorderColor #004d86
}
skinparam title {
	FontColor	                 #c0c0c0
 	BorderColor                  #545454
	FontSize	    	         20
	BorderRoundCorner            16
	BorderThickness 	         1
	BackgroundColor              #48494b
}


skinparam legend {
	BackgroundColor #303030
	BorderColor #404040
	FontColor #a0a0a0
}

	skinparam swimlane {
	BorderColor #5e5e5e
	BorderThickness 2
	TitleBackgroundColor  #6d6d6d-#484848
	TitleFontColor #303030
}

skinparam activity {
		FontColor #C8Ac00
	BorderColor #333333
	BackgroundColor #333333-#333333
	BarColor #00FF00
	StartColor #0060a8
	EndColor #0060a8
	DiamondBackgroundColor #6d6d6d-#3a3a3a
  	DiamondBorderColor #3a3a3a
  	DiamondFontColor #fefefe
}


skinparam participant {
		FontColor #C8Ac00
	BorderColor #333333
	BackgroundColor #333333-#333333
	ParticipantBorderThickness 2
}


skinparam actor {
		FontColor #C8Ac00
	BorderColor #333333
	BackgroundColor #333333-#333333
}


skinparam arrow {
	Thickness 1.5
	Color #545454
	FontColor #a0a0a0
    FontStyle bold
    MessageAlignment center
}



skinparam sequence {
	BorderColor #303030
	TitleFontColor #303030
	BackgroundColor #333333
	StartColor #303030
	EndColor #303030
	BoxBackgroundColor #333333
	BoxBorderColor #484848
	BoxFontColor #484848
	LifeLineBorderColor #484848
	LifeLineBorderThickness 2
	LifeLineBackgroundColor #3a3a3a
	GroupBorderColor #484848
	GroupFontColor #484848
	GroupHeaderFontColor #0060a8
	GroupBackgroundColor #484848
	GroupHeaderBackgroundColor #333333
	DividerBackgroundColor #484848
    DividerBorderColor #484848
    DividerBorderThickness 2
    DividerFontColor #D8Bc00
	ReferenceBackgroundColor #333333
	ReferenceBorderColor #484848
	ReferenceFontColor #fefefe
	ReferenceHeaderBackgroundColor #484848
}


skinparam partition {
	BorderColor #303030
	FontColor #333333
	BackgroundColor #333333
}


skinparam collections {
		FontColor #C8Ac00
	BorderColor #333333
	BackgroundColor #333333-#333333
}


skinparam control {
		FontColor #C8Ac00
	BorderColor #333333
	BackgroundColor #333333-#333333
}


skinparam entity {
		FontColor #C8Ac00
	BorderColor #333333
	BackgroundColor #333333-#333333
}


skinparam boundary {
		FontColor #C8Ac00
	BorderColor #333333
	BackgroundColor #333333-#333333
}


skinparam agent {
	BackgroundColor #ff8000
	BorderColor #ff9933
	FontColor #484848
}


skinparam note {
	BorderThickness 1
	BackgroundColor #1b1b1a
	BorderColor #5e5e5e
	FontSize 11
	FontColor #a0a0a0
}


skinparam artifact {
	BorderThickness 10
	BorderColor #5e5e5e
	BackgroundColor #1b1b1a
	FontColor #D8Bc00
}


skinparam component {
		FontColor #C8Ac00
	BorderColor #333333
	BackgroundColor #333333-#333333
}


skinparam interface {
	BackgroundColor  #008400
	BorderColor  #007F00
	FontColor #484848
}


skinparam storage {
	BackgroundColor #ff8000
  	BorderColor #cc6600
	FontColor #222222
}


skinparam node {
	BackgroundColor #333333
	BorderColor #333333
	FontColor #C8Ac00
}


skinparam cloud {
	BackgroundColor #484848-black
	BorderColor #484848
	FontColor #D8Bc00
}


skinparam database {
		FontColor #C8Ac00
	BorderColor #333333
	BackgroundColor #333333-#333333
	BackgroundColor  #333333
}


skinparam class {
		FontColor #C8Ac00
	BorderColor #333333
	BackgroundColor #333333-#333333
	HeaderBackgroundColor #1b1b1a
    BackgroundColor #282828
    BorderColor #5e5e5e
 	StereotypeFontColor #a0a0a0
    StereotypeFontStyle bold
	BorderThickness 1
	AttributeFontColor #D8Bc00
	AttributeFontSize 11
    FontColor #D8Bc00
    FontStyle bold
}


skinparam object {
		FontColor #C8Ac00
	BorderColor #333333
	BackgroundColor #333333-#333333
	StereotypeFontColor #484848
	BorderThickness 1
	AttributeFontColor #fefefe
	AttributeFontSize 11
}


skinparam usecase {
		FontColor #C8Ac00
	BorderColor #333333
	BackgroundColor #333333-#333333
	BorderThickness 2
	StereotypeFontColor #303030
}


skinparam rectangle {
		FontColor #C8Ac00
	BorderColor #333333
	BackgroundColor #333333-#333333
	BackgroundColor #333333
	BorderThickness 2
	StereotypeFontColor #303030
}


skinparam package {
		FontColor #C8Ac00
	BorderColor #333333
	BackgroundColor #333333-#333333
	BackgroundColor #333333
	BorderThickness 2
}


skinparam folder {
	BackgroundColor #6d6d6d
  	BorderColor #ff8000
	FontColor #ff8000
	BorderThickness 2
}


skinparam frame {
	BackgroundColor #6d6d6d
  	BorderColor #0060a8
	FontColor #0060a8
	BorderThickness 2
}


skinparam state {
		FontColor #C8Ac00
	BorderColor #333333
	BackgroundColor #333333-#333333
	StartColor #0060a8
	EndColor #0060a8
	AttributeFontColor #fefefe
	AttributeFontSize 11
}


skinparam queue {
		FontColor #C8Ac00
	BorderColor #333333
	BackgroundColor #333333-#333333
}


skinparam card {
	BackgroundColor #0060a8
	BorderColor #004d86
	FontColor $INFO_TEXT
}


skinparam file {
	BackgroundColor #6d6d6d-#484848
	BorderColor #0060a8
	FontColor #fefefe
}


skinparam stack {
		FontColor #C8Ac00
	BorderColor #333333
	BackgroundColor #333333-#333333
}

    
    title "com.telenav.kivakit.web.jersey"
    
    abstract BaseJettyServlet
    
    ResourceConfig <|- - BaseRestApplication
    class BaseRestApplication
    {
    }
    
    class BaseRestResource
    {
    }
    
    BaseJettyServlet <|- - JettyJersey
    class JettyJersey
    {
        - -(constructors)- -
        +JettyJersey(ResourceConfig)
    }
    
@enduml

PlantUML version 1.2021.01(Tue Feb 02 00:55:08 MST 2021)
(GPL source distribution)
Java Runtime: Java(TM) SE Runtime Environment
JVM: Java HotSpot(TM) 64-Bit Server VM
Default Encoding: UTF-8
Language: en
Country: US
--></g></svg>