<?xml version="1.0" encoding="UTF-8" standalone="no"?><svg xmlns="http://www.w3.org/2000/svg" xmlns:xlink="http://www.w3.org/1999/xlink" contentScriptType="application/ecmascript" contentStyleType="text/css" height="254.1667px" preserveAspectRatio="none" style="width:643px;height:254px;background:#333333;" version="1.1" viewBox="0 0 643 254" width="643.75px" zoomAndPan="magnify"><defs/><g><rect fill="#48494B" height="41.2028" rx="8.3333" ry="8.3333" style="stroke:#545454;stroke-width:1.0416666666666667;" width="327.0833" x="151.0417" y="2.0833"/><text fill="#C0C0C0" font-family="Open Sans,Avenir,Nunito,Arial,Helvetica,SansSerif" font-size="20.8333" lengthAdjust="spacing" textLength="304.1667" x="162.5" y="30.5583">com.telenav.kivakit.web.jersey</text><!--MD5=[fc7a99885469d0fa056924bc28556d99]
class JettyServlet--><rect fill="#282828" height="48.055" id="JettyServlet" rx="8.3333" ry="8.3333" style="stroke:#5E5E5E;stroke-width:1.0416666666666667;" width="111.4583" x="45.3125" y="53.7028"/><rect fill="#1B1B1A" height="31.3883" rx="8.3333" ry="8.3333" style="stroke:#1B1B1A;stroke-width:1.0416666666666667;" width="111.4583" x="45.3125" y="53.7028"/><rect fill="#1B1B1A" height="8.3333" style="stroke:#1B1B1A;stroke-width:1.0416666666666667;" width="111.4583" x="45.3125" y="76.7578"/><rect fill="none" height="48.055" id="JettyServlet" rx="8.3333" ry="8.3333" style="stroke:#5E5E5E;stroke-width:1.0416666666666667;" width="111.4583" x="45.3125" y="53.7028"/><ellipse cx="59.8958" cy="69.397" fill="#0066CF" rx="10.4167" ry="10.4167" style="stroke:#0086EF;stroke-width:1.0416666666666667;"/><path d="M61.8062,73.822 Q61.379,74.0417 60.909,74.1516 Q60.439,74.2615 59.9202,74.2615 Q58.077,74.2615 57.1065,73.0469 Q56.1361,71.8323 56.1361,69.5374 Q56.1361,67.2363 57.1065,66.0217 Q58.077,64.8071 59.9202,64.8071 Q60.439,64.8071 60.9151,64.917 Q61.3912,65.0269 61.8062,65.2466 L61.8062,67.2485 Q61.3424,66.8213 60.906,66.6229 Q60.4696,66.4246 60.0057,66.4246 Q59.0169,66.4246 58.5134,67.2089 Q58.0098,67.9932 58.0098,69.5374 Q58.0098,71.0754 58.5134,71.8597 Q59.0169,72.644 60.0057,72.644 Q60.4696,72.644 60.906,72.4457 Q61.3424,72.2473 61.8062,71.8201 Z " fill="#000000"/><text fill="#D8BC00" font-family="Open Sans,Avenir,Nunito,Arial,Helvetica,SansSerif" font-size="12.5" font-weight="bold" lengthAdjust="spacing" textLength="73.9583" x="76.5625" y="74.1211">JettyServlet</text><line style="stroke:#5E5E5E;stroke-width:1.0416666666666667;" x1="46.3542" x2="155.7292" y1="85.0911" y2="85.0911"/><line style="stroke:#5E5E5E;stroke-width:1.0416666666666667;" x1="46.3542" x2="155.7292" y1="93.4245" y2="93.4245"/><!--MD5=[591d38ca3693ee05ea0753d6d33ea959]
class JettyJersey--><rect codeLine="7" fill="#282828" height="83.3781" id="JettyJersey" rx="8.3333" ry="8.3333" style="stroke:#5E5E5E;stroke-width:1.0416666666666667;" width="187.5" x="7.2917" y="164.1195"/><rect fill="#1B1B1A" height="31.3883" rx="8.3333" ry="8.3333" style="stroke:#1B1B1A;stroke-width:1.0416666666666667;" width="187.5" x="7.2917" y="164.1195"/><rect fill="#1B1B1A" height="8.3333" style="stroke:#1B1B1A;stroke-width:1.0416666666666667;" width="187.5" x="7.2917" y="187.1745"/><rect codeLine="7" fill="none" height="83.3781" id="JettyJersey" rx="8.3333" ry="8.3333" style="stroke:#5E5E5E;stroke-width:1.0416666666666667;" width="187.5" x="7.2917" y="164.1195"/><ellipse cx="58.8542" cy="179.8136" fill="#0066CF" rx="10.4167" ry="10.4167" style="stroke:#0086EF;stroke-width:1.0416666666666667;"/><path d="M60.7646,184.2387 Q60.3373,184.4584 59.8674,184.5683 Q59.3974,184.6781 58.8786,184.6781 Q57.0353,184.6781 56.0649,183.4635 Q55.0944,182.2489 55.0944,179.954 Q55.0944,177.653 56.0649,176.4384 Q57.0353,175.2238 58.8786,175.2238 Q59.3974,175.2238 59.8735,175.3337 Q60.3495,175.4435 60.7646,175.6632 L60.7646,177.6652 Q60.3007,177.238 59.8643,177.0396 Q59.4279,176.8412 58.964,176.8412 Q57.9753,176.8412 57.4717,177.6255 Q56.9682,178.4098 56.9682,179.954 Q56.9682,181.4921 57.4717,182.2764 Q57.9753,183.0607 58.964,183.0607 Q59.4279,183.0607 59.8643,182.8623 Q60.3007,182.664 60.7646,182.2367 Z " fill="#000000"/><text fill="#D8BC00" font-family="Open Sans,Avenir,Nunito,Arial,Helvetica,SansSerif" font-size="12.5" font-weight="bold" lengthAdjust="spacing" textLength="69.7917" x="81.7708" y="184.5378">JettyJersey</text><line style="stroke:#5E5E5E;stroke-width:1.5625;" x1="8.3333" x2="193.75" y1="195.5078" y2="195.5078"/><ellipse cx="18.75" cy="230.8777" fill="#84BE84" rx="3.125" ry="3.125" style="stroke:#038048;stroke-width:1.0416666666666667;"/><text fill="#D8BC00" font-family="Open Sans,Avenir,Nunito,Arial,Helvetica,SansSerif" font-size="11.4583" lengthAdjust="spacing" textLength="155.2083" x="30.2083" y="237.7889">JettyJersey(ResourceConfig)</text><line style="stroke:#5E5E5E;stroke-width:1.0416666666666667;" x1="8.3333" x2="57.2917" y1="213.7136" y2="213.7136"/><text fill="#D8BC00" font-family="Open Sans,Avenir,Nunito,Arial,Helvetica,SansSerif" font-size="11.4583" lengthAdjust="spacing" textLength="81.25" x="60.4167" y="217.5232">(constructors)</text><line style="stroke:#5E5E5E;stroke-width:1.0416666666666667;" x1="144.7917" x2="193.75" y1="213.7136" y2="213.7136"/><!--MD5=[a0f83224cc48910bf06f7f48df40de46]
class ResourceConfig--><rect fill="#282828" height="48.055" id="ResourceConfig" rx="8.3333" ry="8.3333" style="stroke:#5E5E5E;stroke-width:1.0416666666666667;" width="139.5833" x="266.6667" y="53.7028"/><rect fill="#1B1B1A" height="31.3883" rx="8.3333" ry="8.3333" style="stroke:#1B1B1A;stroke-width:1.0416666666666667;" width="139.5833" x="266.6667" y="53.7028"/><rect fill="#1B1B1A" height="8.3333" style="stroke:#1B1B1A;stroke-width:1.0416666666666667;" width="139.5833" x="266.6667" y="76.7578"/><rect fill="none" height="48.055" id="ResourceConfig" rx="8.3333" ry="8.3333" style="stroke:#5E5E5E;stroke-width:1.0416666666666667;" width="139.5833" x="266.6667" y="53.7028"/><ellipse cx="281.25" cy="69.397" fill="#0066CF" rx="10.4167" ry="10.4167" style="stroke:#0086EF;stroke-width:1.0416666666666667;"/><path d="M283.1604,73.822 Q282.7332,74.0417 282.2632,74.1516 Q281.7932,74.2615 281.2744,74.2615 Q279.4312,74.2615 278.4607,73.0469 Q277.4902,71.8323 277.4902,69.5374 Q277.4902,67.2363 278.4607,66.0217 Q279.4312,64.8071 281.2744,64.8071 Q281.7932,64.8071 282.2693,64.917 Q282.7454,65.0269 283.1604,65.2466 L283.1604,67.2485 Q282.6965,66.8213 282.2601,66.6229 Q281.8237,66.4246 281.3599,66.4246 Q280.3711,66.4246 279.8676,67.2089 Q279.364,67.9932 279.364,69.5374 Q279.364,71.0754 279.8676,71.8597 Q280.3711,72.644 281.3599,72.644 Q281.8237,72.644 282.2601,72.4457 Q282.6965,72.2473 283.1604,71.8201 Z " fill="#000000"/><text fill="#D8BC00" font-family="Open Sans,Avenir,Nunito,Arial,Helvetica,SansSerif" font-size="12.5" font-weight="bold" lengthAdjust="spacing" textLength="102.0833" x="297.9167" y="74.1211">ResourceConfig</text><line style="stroke:#5E5E5E;stroke-width:1.0416666666666667;" x1="267.7083" x2="405.2083" y1="85.0911" y2="85.0911"/><line style="stroke:#5E5E5E;stroke-width:1.0416666666666667;" x1="267.7083" x2="405.2083" y1="93.4245" y2="93.4245"/><!--MD5=[753339a046a13ab3c2c0f9167cfa6f42]
class JettyJerseyRestApplication--><rect codeLine="14" fill="#282828" height="48.055" id="JettyJerseyRestApplication" rx="8.3333" ry="8.3333" style="stroke:#5E5E5E;stroke-width:1.0416666666666667;" width="209.375" x="231.7708" y="181.8278"/><rect fill="#1B1B1A" height="31.3883" rx="8.3333" ry="8.3333" style="stroke:#1B1B1A;stroke-width:1.0416666666666667;" width="209.375" x="231.7708" y="181.8278"/><rect fill="#1B1B1A" height="8.3333" style="stroke:#1B1B1A;stroke-width:1.0416666666666667;" width="209.375" x="231.7708" y="204.8828"/><rect codeLine="14" fill="none" height="48.055" id="JettyJerseyRestApplication" rx="8.3333" ry="8.3333" style="stroke:#5E5E5E;stroke-width:1.0416666666666667;" width="209.375" x="231.7708" y="181.8278"/><ellipse cx="246.3542" cy="197.522" fill="#0066CF" rx="10.4167" ry="10.4167" style="stroke:#0086EF;stroke-width:1.0416666666666667;"/><path d="M248.2646,201.947 Q247.8373,202.1667 247.3674,202.2766 Q246.8974,202.3865 246.3786,202.3865 Q244.5353,202.3865 243.5649,201.1719 Q242.5944,199.9573 242.5944,197.6624 Q242.5944,195.3613 243.5649,194.1467 Q244.5353,192.9321 246.3786,192.9321 Q246.8974,192.9321 247.3735,193.042 Q247.8495,193.1519 248.2646,193.3716 L248.2646,195.3735 Q247.8007,194.9463 247.3643,194.7479 Q246.9279,194.5496 246.464,194.5496 Q245.4753,194.5496 244.9717,195.3339 Q244.4682,196.1182 244.4682,197.6624 Q244.4682,199.2004 244.9717,199.9847 Q245.4753,200.769 246.464,200.769 Q246.9279,200.769 247.3643,200.5707 Q247.8007,200.3723 248.2646,199.9451 Z " fill="#000000"/><text fill="#D8BC00" font-family="Open Sans,Avenir,Nunito,Arial,Helvetica,SansSerif" font-size="12.5" font-weight="bold" lengthAdjust="spacing" textLength="171.875" x="263.0208" y="202.2461">JettyJerseyRestApplication</text><line style="stroke:#5E5E5E;stroke-width:1.0416666666666667;" x1="232.8125" x2="440.1042" y1="213.2161" y2="213.2161"/><line style="stroke:#5E5E5E;stroke-width:1.0416666666666667;" x1="232.8125" x2="440.1042" y1="221.5495" y2="221.5495"/><!--MD5=[278863856cf9e4f78c7934ed34b7113f]
class JettyJerseyRestResource--><rect codeLine="18" fill="#282828" height="48.055" id="JettyJerseyRestResource" rx="8.3333" ry="8.3333" style="stroke:#5E5E5E;stroke-width:1.0416666666666667;" width="193.75" x="442.7083" y="53.7028"/><rect fill="#1B1B1A" height="31.3883" rx="8.3333" ry="8.3333" style="stroke:#1B1B1A;stroke-width:1.0416666666666667;" width="193.75" x="442.7083" y="53.7028"/><rect fill="#1B1B1A" height="8.3333" style="stroke:#1B1B1A;stroke-width:1.0416666666666667;" width="193.75" x="442.7083" y="76.7578"/><rect codeLine="18" fill="none" height="48.055" id="JettyJerseyRestResource" rx="8.3333" ry="8.3333" style="stroke:#5E5E5E;stroke-width:1.0416666666666667;" width="193.75" x="442.7083" y="53.7028"/><ellipse cx="457.2917" cy="69.397" fill="#0066CF" rx="10.4167" ry="10.4167" style="stroke:#0086EF;stroke-width:1.0416666666666667;"/><path d="M459.2021,73.822 Q458.7748,74.0417 458.3049,74.1516 Q457.8349,74.2615 457.3161,74.2615 Q455.4728,74.2615 454.5024,73.0469 Q453.5319,71.8323 453.5319,69.5374 Q453.5319,67.2363 454.5024,66.0217 Q455.4728,64.8071 457.3161,64.8071 Q457.8349,64.8071 458.311,64.917 Q458.787,65.0269 459.2021,65.2466 L459.2021,67.2485 Q458.7382,66.8213 458.3018,66.6229 Q457.8654,66.4246 457.4015,66.4246 Q456.4128,66.4246 455.9092,67.2089 Q455.4057,67.9932 455.4057,69.5374 Q455.4057,71.0754 455.9092,71.8597 Q456.4128,72.644 457.4015,72.644 Q457.8654,72.644 458.3018,72.4457 Q458.7382,72.2473 459.2021,71.8201 Z " fill="#000000"/><text fill="#D8BC00" font-family="Open Sans,Avenir,Nunito,Arial,Helvetica,SansSerif" font-size="12.5" font-weight="bold" lengthAdjust="spacing" textLength="156.25" x="473.9583" y="74.1211">JettyJerseyRestResource</text><line style="stroke:#5E5E5E;stroke-width:1.0416666666666667;" x1="443.75" x2="635.4167" y1="85.0911" y2="85.0911"/><line style="stroke:#5E5E5E;stroke-width:1.0416666666666667;" x1="443.75" x2="635.4167" y1="93.4245" y2="93.4245"/><!--MD5=[d3d4a6059d021388795e3db56c01e579]
reverse link JettyServlet to JettyJersey--><path codeLine="6" d="M101.0417,122.682 C101.0417,136.0778 101.0417,150.7445 101.0417,163.9215 " fill="none" id="JettyServlet-backto-JettyJersey" style="stroke:#545454;stroke-width:1.5625;"/><polygon fill="none" points="93.75,122.6507,101.0417,101.8174,108.3333,122.6507,93.75,122.6507" style="stroke:#545454;stroke-width:1.5625;"/><!--MD5=[527c65976efe86e98a29d44a9c289599]
reverse link ResourceConfig to JettyJerseyRestApplication--><path codeLine="13" d="M336.4583,122.9528 C336.4583,142.7965 336.4583,165.3799 336.4583,181.7757 " fill="none" id="ResourceConfig-backto-JettyJerseyRestApplication" style="stroke:#545454;stroke-width:1.5625;"/><polygon fill="none" points="329.1667,122.6507,336.4583,101.8174,343.75,122.6507,329.1667,122.6507" style="stroke:#545454;stroke-width:1.5625;"/><!--MD5=[1decaa542268d1e657ff96bf43b72d3f]
@startuml

    !include ../lexakai.theme
    
    title "com.telenav.kivakit.web.jersey"
    
    JettyServlet <|- - JettyJersey
    class JettyJersey
    {
        - -(constructors)- -
        +JettyJersey(ResourceConfig)
    }
    
    ResourceConfig <|- - JettyJerseyRestApplication
    class JettyJerseyRestApplication
    {
    }
    
    class JettyJerseyRestResource
    {
    }
    
@enduml

@startuml









skinparam backgroundColor #333333






skinparam  {
    defaultFontName   "Open Sans,Avenir,Nunito,Arial,Helvetica,SansSerif"
    defaultFontSize   12
    defaultTextAlignment left
    shadowing false
    RoundCorner 10
    TitleFontSize 18
}

skinparam defaultFontName       "Open Sans,Avenir,Nunito,Arial,Helvetica,SansSerif"
skinparam defaultFontSize       12
skinparam dpi                   100
skinparam shadowing             false
skinparam roundcorner           16
skinparam ParticipantPadding    40
skinparam BoxPadding            40
skinparam Padding               3
skinparam ArrowColor            #545454
skinparam stereotype {
    CBackgroundColor #0066cf
    CBorderColor #0086ef
    ABackgroundColor #C8Ac00
    ABorderColor #D8Bc00
    IBackgroundColor #008400
    IBorderColor #239c23
    EBackgroundColor #cf6300
    EBorderColor #ef8300
    NBackgroundColor #3380b9
    NBorderColor #004d86
}
skinparam title {
	FontColor	                 #c0c0c0
 	BorderColor                  #545454
	FontSize	    	         20
	BorderRoundCorner            16
	BorderThickness 	         1
	BackgroundColor              #48494b
}


skinparam legend {
	BackgroundColor #303030
	BorderColor #404040
	FontColor #a0a0a0
}

	skinparam swimlane {
	BorderColor #5e5e5e
	BorderThickness 2
	TitleBackgroundColor  #6d6d6d-#484848
	TitleFontColor #303030
}

skinparam activity {
		FontColor #C8Ac00
	BorderColor #333333
	BackgroundColor #333333-#333333
	BarColor #00FF00
	StartColor #0060a8
	EndColor #0060a8
	DiamondBackgroundColor #6d6d6d-#3a3a3a
  	DiamondBorderColor #3a3a3a
  	DiamondFontColor #fefefe
}


skinparam participant {
		FontColor #C8Ac00
	BorderColor #333333
	BackgroundColor #333333-#333333
	ParticipantBorderThickness 2
}


skinparam actor {
		FontColor #C8Ac00
	BorderColor #333333
	BackgroundColor #333333-#333333
}


skinparam arrow {
	Thickness 1.5
	Color #545454
	FontColor #a0a0a0
    FontStyle bold
    MessageAlignment center
}



skinparam sequence {
	BorderColor #303030
	TitleFontColor #303030
	BackgroundColor #333333
	StartColor #303030
	EndColor #303030
	BoxBackgroundColor #333333
	BoxBorderColor #484848
	BoxFontColor #484848
	LifeLineBorderColor #484848
	LifeLineBorderThickness 2
	LifeLineBackgroundColor #3a3a3a
	GroupBorderColor #484848
	GroupFontColor #484848
	GroupHeaderFontColor #0060a8
	GroupBackgroundColor #484848
	GroupHeaderBackgroundColor #333333
	DividerBackgroundColor #484848
    DividerBorderColor #484848
    DividerBorderThickness 2
    DividerFontColor #D8Bc00
	ReferenceBackgroundColor #333333
	ReferenceBorderColor #484848
	ReferenceFontColor #fefefe
	ReferenceHeaderBackgroundColor #484848
}


skinparam partition {
	BorderColor #303030
	FontColor #333333
	BackgroundColor #333333
}


skinparam collections {
		FontColor #C8Ac00
	BorderColor #333333
	BackgroundColor #333333-#333333
}


skinparam control {
		FontColor #C8Ac00
	BorderColor #333333
	BackgroundColor #333333-#333333
}


skinparam entity {
		FontColor #C8Ac00
	BorderColor #333333
	BackgroundColor #333333-#333333
}


skinparam boundary {
		FontColor #C8Ac00
	BorderColor #333333
	BackgroundColor #333333-#333333
}


skinparam agent {
	BackgroundColor #ff8000
	BorderColor #ff9933
	FontColor #484848
}


skinparam note {
	BorderThickness 1
	BackgroundColor #1b1b1a
	BorderColor #5e5e5e
	FontSize 11
	FontColor #a0a0a0
}


skinparam artifact {
	BorderThickness 10
	BorderColor #5e5e5e
	BackgroundColor #1b1b1a
	FontColor #D8Bc00
}


skinparam component {
		FontColor #C8Ac00
	BorderColor #333333
	BackgroundColor #333333-#333333
}


skinparam interface {
	BackgroundColor  #008400
	BorderColor  #007F00
	FontColor #484848
}


skinparam storage {
	BackgroundColor #ff8000
  	BorderColor #cc6600
	FontColor #222222
}


skinparam node {
	BackgroundColor #333333
	BorderColor #333333
	FontColor #C8Ac00
}


skinparam cloud {
	BackgroundColor #484848-black
	BorderColor #484848
	FontColor #D8Bc00
}


skinparam database {
		FontColor #C8Ac00
	BorderColor #333333
	BackgroundColor #333333-#333333
	BackgroundColor  #333333
}


skinparam class {
		FontColor #C8Ac00
	BorderColor #333333
	BackgroundColor #333333-#333333
	HeaderBackgroundColor #1b1b1a
    BackgroundColor #282828
    BorderColor #5e5e5e
 	StereotypeFontColor #a0a0a0
    StereotypeFontStyle bold
	BorderThickness 1
	AttributeFontColor #D8Bc00
	AttributeFontSize 11
    FontColor #D8Bc00
    FontStyle bold
}


skinparam object {
		FontColor #C8Ac00
	BorderColor #333333
	BackgroundColor #333333-#333333
	StereotypeFontColor #484848
	BorderThickness 1
	AttributeFontColor #fefefe
	AttributeFontSize 11
}


skinparam usecase {
		FontColor #C8Ac00
	BorderColor #333333
	BackgroundColor #333333-#333333
	BorderThickness 2
	StereotypeFontColor #303030
}


skinparam rectangle {
		FontColor #C8Ac00
	BorderColor #333333
	BackgroundColor #333333-#333333
	BackgroundColor #333333
	BorderThickness 2
	StereotypeFontColor #303030
}


skinparam package {
		FontColor #C8Ac00
	BorderColor #333333
	BackgroundColor #333333-#333333
	BackgroundColor #333333
	BorderThickness 2
}


skinparam folder {
	BackgroundColor #6d6d6d
  	BorderColor #ff8000
	FontColor #ff8000
	BorderThickness 2
}


skinparam frame {
	BackgroundColor #6d6d6d
  	BorderColor #0060a8
	FontColor #0060a8
	BorderThickness 2
}


skinparam state {
		FontColor #C8Ac00
	BorderColor #333333
	BackgroundColor #333333-#333333
	StartColor #0060a8
	EndColor #0060a8
	AttributeFontColor #fefefe
	AttributeFontSize 11
}


skinparam queue {
		FontColor #C8Ac00
	BorderColor #333333
	BackgroundColor #333333-#333333
}


skinparam card {
	BackgroundColor #0060a8
	BorderColor #004d86
	FontColor $INFO_TEXT
}


skinparam file {
	BackgroundColor #6d6d6d-#484848
	BorderColor #0060a8
	FontColor #fefefe
}


skinparam stack {
		FontColor #C8Ac00
	BorderColor #333333
	BackgroundColor #333333-#333333
}

    
    title "com.telenav.kivakit.web.jersey"
    
    JettyServlet <|- - JettyJersey
    class JettyJersey
    {
        - -(constructors)- -
        +JettyJersey(ResourceConfig)
    }
    
    ResourceConfig <|- - JettyJerseyRestApplication
    class JettyJerseyRestApplication
    {
    }
    
    class JettyJerseyRestResource
    {
    }
    
@enduml

PlantUML version 1.2021.01(Tue Feb 02 00:55:08 MST 2021)
(GPL source distribution)
Java Runtime: Java(TM) SE Runtime Environment
JVM: Java HotSpot(TM) 64-Bit Server VM
Default Encoding: UTF-8
Language: en
Country: US
--></g></svg>