<?xml version="1.0" encoding="UTF-8" standalone="no"?><svg xmlns="http://www.w3.org/2000/svg" xmlns:xlink="http://www.w3.org/1999/xlink" contentScriptType="application/ecmascript" contentStyleType="text/css" height="254.1667px" preserveAspectRatio="none" style="width:680px;height:254px;background:#333333;" version="1.1" viewBox="0 0 680 254" width="680.2083px" zoomAndPan="magnify"><defs/><g><rect fill="#48494B" height="41.2028" rx="8.3333" ry="8.3333" style="stroke:#545454;stroke-width:1.0416666666666667;" width="472.9167" x="96.6146" y="2.0833"/><text fill="#C0C0C0" font-family="Open Sans,Avenir,Nunito,Arial,Helvetica,SansSerif" font-size="20.8333" lengthAdjust="spacing" textLength="450" x="108.0729" y="30.5583">com.telenav.kivakit.network.email.converters</text><!--MD5=[16f3a356fa2b9c34df119c98e186523a]
class BaseTwoWayConverter--><rect codeLine="7" fill="#282828" height="48.055" id="BaseTwoWayConverter" rx="8.3333" ry="8.3333" style="stroke:#5E5E5E;stroke-width:1.0416666666666667;" width="184.375" x="130.7292" y="53.7028"/><rect fill="#1B1B1A" height="31.3883" rx="8.3333" ry="8.3333" style="stroke:#1B1B1A;stroke-width:1.0416666666666667;" width="184.375" x="130.7292" y="53.7028"/><rect fill="#1B1B1A" height="8.3333" style="stroke:#1B1B1A;stroke-width:1.0416666666666667;" width="184.375" x="130.7292" y="76.7578"/><rect codeLine="7" fill="none" height="48.055" id="BaseTwoWayConverter" rx="8.3333" ry="8.3333" style="stroke:#5E5E5E;stroke-width:1.0416666666666667;" width="184.375" x="130.7292" y="53.7028"/><ellipse cx="145.3125" cy="69.397" fill="#C8AC00" rx="10.4167" ry="10.4167" style="stroke:#D8BC00;stroke-width:1.0416666666666667;"/><path d="M144.9056,66.099 L144.0572,69.8283 L145.7601,69.8283 Z M143.807,64.4511 L146.0103,64.4511 L148.4701,73.5636 L146.6695,73.5636 L146.108,71.3114 L143.6971,71.3114 L143.1478,73.5636 L141.3472,73.5636 Z " fill="#000000"/><text fill="#D8BC00" font-family="Open Sans,Avenir,Nunito,Arial,Helvetica,SansSerif" font-size="12.5" font-style="italic" font-weight="bold" lengthAdjust="spacing" textLength="146.875" x="161.9792" y="74.1211">BaseTwoWayConverter</text><line style="stroke:#5E5E5E;stroke-width:1.0416666666666667;" x1="131.7708" x2="314.0625" y1="85.0911" y2="85.0911"/><line style="stroke:#5E5E5E;stroke-width:1.0416666666666667;" x1="131.7708" x2="314.0625" y1="93.4245" y2="93.4245"/><!--MD5=[9aa687ed59f428548907e723dba1087a]
class BaseStringConverter--><rect codeLine="8" fill="#282828" height="48.055" id="BaseStringConverter" rx="8.3333" ry="8.3333" style="stroke:#5E5E5E;stroke-width:1.0416666666666667;" width="169.7917" x="479.6875" y="53.7028"/><rect fill="#1B1B1A" height="31.3883" rx="8.3333" ry="8.3333" style="stroke:#1B1B1A;stroke-width:1.0416666666666667;" width="169.7917" x="479.6875" y="53.7028"/><rect fill="#1B1B1A" height="8.3333" style="stroke:#1B1B1A;stroke-width:1.0416666666666667;" width="169.7917" x="479.6875" y="76.7578"/><rect codeLine="8" fill="none" height="48.055" id="BaseStringConverter" rx="8.3333" ry="8.3333" style="stroke:#5E5E5E;stroke-width:1.0416666666666667;" width="169.7917" x="479.6875" y="53.7028"/><ellipse cx="494.2708" cy="69.397" fill="#C8AC00" rx="10.4167" ry="10.4167" style="stroke:#D8BC00;stroke-width:1.0416666666666667;"/><path d="M493.8639,66.099 L493.0155,69.8283 L494.7184,69.8283 Z M492.7653,64.4511 L494.9687,64.4511 L497.4284,73.5636 L495.6278,73.5636 L495.0663,71.3114 L492.6554,71.3114 L492.1061,73.5636 L490.3056,73.5636 Z " fill="#000000"/><text fill="#D8BC00" font-family="Open Sans,Avenir,Nunito,Arial,Helvetica,SansSerif" font-size="12.5" font-style="italic" font-weight="bold" lengthAdjust="spacing" textLength="132.2917" x="510.9375" y="74.1211">BaseStringConverter</text><line style="stroke:#5E5E5E;stroke-width:1.0416666666666667;" x1="480.7292" x2="648.4375" y1="85.0911" y2="85.0911"/><line style="stroke:#5E5E5E;stroke-width:1.0416666666666667;" x1="480.7292" x2="648.4375" y1="93.4245" y2="93.4245"/><!--MD5=[21b1171d1311d74ff57f2c1b35067879]
class AttachmentConverter--><rect codeLine="11" fill="#282828" height="83.3781" id="AttachmentConverter" rx="8.3333" ry="8.3333" style="stroke:#5E5E5E;stroke-width:1.0416666666666667;" width="206.25" x="7.2917" y="164.1195"/><rect fill="#1B1B1A" height="31.3883" rx="8.3333" ry="8.3333" style="stroke:#1B1B1A;stroke-width:1.0416666666666667;" width="206.25" x="7.2917" y="164.1195"/><rect fill="#1B1B1A" height="8.3333" style="stroke:#1B1B1A;stroke-width:1.0416666666666667;" width="206.25" x="7.2917" y="187.1745"/><rect codeLine="11" fill="none" height="83.3781" id="AttachmentConverter" rx="8.3333" ry="8.3333" style="stroke:#5E5E5E;stroke-width:1.0416666666666667;" width="206.25" x="7.2917" y="164.1195"/><ellipse cx="35.4688" cy="179.8136" fill="#0066CF" rx="10.4167" ry="10.4167" style="stroke:#0086EF;stroke-width:1.0416666666666667;"/><path d="M37.3792,184.2387 Q36.9519,184.4584 36.4819,184.5683 Q36.012,184.6781 35.4932,184.6781 Q33.6499,184.6781 32.6794,183.4635 Q31.709,182.2489 31.709,179.954 Q31.709,177.653 32.6794,176.4384 Q33.6499,175.2238 35.4932,175.2238 Q36.012,175.2238 36.488,175.3337 Q36.9641,175.4435 37.3792,175.6632 L37.3792,177.6652 Q36.9153,177.238 36.4789,177.0396 Q36.0425,176.8412 35.5786,176.8412 Q34.5898,176.8412 34.0863,177.6255 Q33.5828,178.4098 33.5828,179.954 Q33.5828,181.4921 34.0863,182.2764 Q34.5898,183.0607 35.5786,183.0607 Q36.0425,183.0607 36.4789,182.8623 Q36.9153,182.664 37.3792,182.2367 Z " fill="#000000"/><text fill="#D8BC00" font-family="Open Sans,Avenir,Nunito,Arial,Helvetica,SansSerif" font-size="12.5" font-weight="bold" lengthAdjust="spacing" textLength="138.5417" x="55.1563" y="184.5378">AttachmentConverter</text><line style="stroke:#5E5E5E;stroke-width:1.5625;" x1="8.3333" x2="212.5" y1="195.5078" y2="195.5078"/><ellipse cx="18.75" cy="230.8777" fill="#84BE84" rx="3.125" ry="3.125" style="stroke:#038048;stroke-width:1.0416666666666667;"/><text fill="#D8BC00" font-family="Open Sans,Avenir,Nunito,Arial,Helvetica,SansSerif" font-size="11.4583" lengthAdjust="spacing" textLength="173.9583" x="30.2083" y="237.7889">AttachmentConverter(Listener)</text><line style="stroke:#5E5E5E;stroke-width:1.0416666666666667;" x1="8.3333" x2="66.6667" y1="213.7136" y2="213.7136"/><text fill="#D8BC00" font-family="Open Sans,Avenir,Nunito,Arial,Helvetica,SansSerif" font-size="11.4583" lengthAdjust="spacing" textLength="81.25" x="69.7917" y="217.5232">(constructors)</text><line style="stroke:#5E5E5E;stroke-width:1.0416666666666667;" x1="154.1667" x2="212.5" y1="213.7136" y2="213.7136"/><!--MD5=[ed83907ceff06a865e37e6b79b3cce94]
class BodyConverter--><rect codeLine="18" fill="#282828" height="83.3781" id="BodyConverter" rx="8.3333" ry="8.3333" style="stroke:#5E5E5E;stroke-width:1.0416666666666667;" width="168.75" x="250" y="164.1195"/><rect fill="#1B1B1A" height="31.3883" rx="8.3333" ry="8.3333" style="stroke:#1B1B1A;stroke-width:1.0416666666666667;" width="168.75" x="250" y="164.1195"/><rect fill="#1B1B1A" height="8.3333" style="stroke:#1B1B1A;stroke-width:1.0416666666666667;" width="168.75" x="250" y="187.1745"/><rect codeLine="18" fill="none" height="83.3781" id="BodyConverter" rx="8.3333" ry="8.3333" style="stroke:#5E5E5E;stroke-width:1.0416666666666667;" width="168.75" x="250" y="164.1195"/><ellipse cx="280.5208" cy="179.8136" fill="#0066CF" rx="10.4167" ry="10.4167" style="stroke:#0086EF;stroke-width:1.0416666666666667;"/><path d="M282.4312,184.2387 Q282.004,184.4584 281.534,184.5683 Q281.064,184.6781 280.5452,184.6781 Q278.702,184.6781 277.7315,183.4635 Q276.7611,182.2489 276.7611,179.954 Q276.7611,177.653 277.7315,176.4384 Q278.702,175.2238 280.5452,175.2238 Q281.064,175.2238 281.5401,175.3337 Q282.0162,175.4435 282.4312,175.6632 L282.4312,177.6652 Q281.9674,177.238 281.531,177.0396 Q281.0946,176.8412 280.6307,176.8412 Q279.6419,176.8412 279.1384,177.6255 Q278.6348,178.4098 278.6348,179.954 Q278.6348,181.4921 279.1384,182.2764 Q279.6419,183.0607 280.6307,183.0607 Q281.0946,183.0607 281.531,182.8623 Q281.9674,182.664 282.4312,182.2367 Z " fill="#000000"/><text fill="#D8BC00" font-family="Open Sans,Avenir,Nunito,Arial,Helvetica,SansSerif" font-size="12.5" font-weight="bold" lengthAdjust="spacing" textLength="95.8333" x="300.7292" y="184.5378">BodyConverter</text><line style="stroke:#5E5E5E;stroke-width:1.5625;" x1="251.0417" x2="417.7083" y1="195.5078" y2="195.5078"/><ellipse cx="261.4583" cy="230.8777" fill="#84BE84" rx="3.125" ry="3.125" style="stroke:#038048;stroke-width:1.0416666666666667;"/><text fill="#D8BC00" font-family="Open Sans,Avenir,Nunito,Arial,Helvetica,SansSerif" font-size="11.4583" lengthAdjust="spacing" textLength="136.4583" x="272.9167" y="237.7889">BodyConverter(Listener)</text><line style="stroke:#5E5E5E;stroke-width:1.0416666666666667;" x1="251.0417" x2="290.625" y1="213.7136" y2="213.7136"/><text fill="#D8BC00" font-family="Open Sans,Avenir,Nunito,Arial,Helvetica,SansSerif" font-size="11.4583" lengthAdjust="spacing" textLength="81.25" x="293.75" y="217.5232">(constructors)</text><line style="stroke:#5E5E5E;stroke-width:1.0416666666666667;" x1="378.125" x2="417.7083" y1="213.7136" y2="213.7136"/><!--MD5=[16414dbe1412e59c62a8b4d3b0bbd43a]
class EmailAddressConverter--><rect codeLine="25" fill="#282828" height="83.3781" id="EmailAddressConverter" rx="8.3333" ry="8.3333" style="stroke:#5E5E5E;stroke-width:1.0416666666666667;" width="217.7083" x="455.7292" y="164.1195"/><rect fill="#1B1B1A" height="31.3883" rx="8.3333" ry="8.3333" style="stroke:#1B1B1A;stroke-width:1.0416666666666667;" width="217.7083" x="455.7292" y="164.1195"/><rect fill="#1B1B1A" height="8.3333" style="stroke:#1B1B1A;stroke-width:1.0416666666666667;" width="217.7083" x="455.7292" y="187.1745"/><rect codeLine="25" fill="none" height="83.3781" id="EmailAddressConverter" rx="8.3333" ry="8.3333" style="stroke:#5E5E5E;stroke-width:1.0416666666666667;" width="217.7083" x="455.7292" y="164.1195"/><ellipse cx="482.9688" cy="179.8136" fill="#0066CF" rx="10.4167" ry="10.4167" style="stroke:#0086EF;stroke-width:1.0416666666666667;"/><path d="M484.8792,184.2387 Q484.4519,184.4584 483.9819,184.5683 Q483.512,184.6781 482.9932,184.6781 Q481.1499,184.6781 480.1794,183.4635 Q479.209,182.2489 479.209,179.954 Q479.209,177.653 480.1794,176.4384 Q481.1499,175.2238 482.9932,175.2238 Q483.512,175.2238 483.988,175.3337 Q484.4641,175.4435 484.8792,175.6632 L484.8792,177.6652 Q484.4153,177.238 483.9789,177.0396 Q483.5425,176.8412 483.0786,176.8412 Q482.0898,176.8412 481.5863,177.6255 Q481.0828,178.4098 481.0828,179.954 Q481.0828,181.4921 481.5863,182.2764 Q482.0898,183.0607 483.0786,183.0607 Q483.5425,183.0607 483.9789,182.8623 Q484.4153,182.664 484.8792,182.2367 Z " fill="#000000"/><text fill="#D8BC00" font-family="Open Sans,Avenir,Nunito,Arial,Helvetica,SansSerif" font-size="12.5" font-weight="bold" lengthAdjust="spacing" textLength="152.0833" x="502.4479" y="184.5378">EmailAddressConverter</text><line style="stroke:#5E5E5E;stroke-width:1.5625;" x1="456.7708" x2="672.3958" y1="195.5078" y2="195.5078"/><ellipse cx="467.1875" cy="230.8777" fill="#84BE84" rx="3.125" ry="3.125" style="stroke:#038048;stroke-width:1.0416666666666667;"/><text fill="#D8BC00" font-family="Open Sans,Avenir,Nunito,Arial,Helvetica,SansSerif" font-size="11.4583" lengthAdjust="spacing" textLength="185.4167" x="478.6458" y="237.7889">EmailAddressConverter(Listener)</text><line style="stroke:#5E5E5E;stroke-width:1.0416666666666667;" x1="456.7708" x2="520.8333" y1="213.7136" y2="213.7136"/><text fill="#D8BC00" font-family="Open Sans,Avenir,Nunito,Arial,Helvetica,SansSerif" font-size="11.4583" lengthAdjust="spacing" textLength="81.25" x="523.9583" y="217.5232">(constructors)</text><line style="stroke:#5E5E5E;stroke-width:1.0416666666666667;" x1="608.3333" x2="672.3958" y1="213.7136" y2="213.7136"/><!--MD5=[fd14fec2a418fb799d728e84bfd38ad1]
reverse link BaseTwoWayConverter to AttachmentConverter--><path codeLine="10" d="M188.4063,117.3695 C175.2396,132.1195 160.1979,148.9736 146.8542,163.9215 " fill="none" id="BaseTwoWayConverter-backto-AttachmentConverter" style="stroke:#545454;stroke-width:1.5625;"/><polygon fill="none" points="182.9688,112.5049,202.2813,101.8174,193.8542,122.2236,182.9688,112.5049" style="stroke:#545454;stroke-width:1.5625;"/><!--MD5=[a9ffd233e49b8a1e8c897aa7a9fd5c02]
reverse link BaseTwoWayConverter to BodyConverter--><path codeLine="17" d="M257.5313,117.8486 C270.4688,132.484 285.1979,149.1299 298.2708,163.9215 " fill="none" id="BaseTwoWayConverter-backto-BodyConverter" style="stroke:#545454;stroke-width:1.5625;"/><polygon fill="none" points="251.6979,122.2549,243.3646,101.8174,262.625,112.5986,251.6979,122.2549" style="stroke:#545454;stroke-width:1.5625;"/><!--MD5=[9a6ea135ff0f04aff96eff621022eff6]
reverse link BaseStringConverter to EmailAddressConverter--><path codeLine="24" d="M564.5833,122.682 C564.5833,136.0778 564.5833,150.7445 564.5833,163.9215 " fill="none" id="BaseStringConverter-backto-EmailAddressConverter" style="stroke:#545454;stroke-width:1.5625;"/><polygon fill="none" points="557.2917,122.6507,564.5833,101.8174,571.875,122.6507,557.2917,122.6507" style="stroke:#545454;stroke-width:1.5625;"/><!--MD5=[db79dd6e0fd06d4e7a54c94c965d6fa6]
@startuml

    !include lexakai.theme
    
    title "com.telenav.kivakit.network.email.converters"
    
    abstract BaseTwoWayConverter
    abstract BaseStringConverter
    
    BaseTwoWayConverter <|- - AttachmentConverter
    class AttachmentConverter
    {
        - -(constructors)- -
        +AttachmentConverter(Listener)
    }
    
    BaseTwoWayConverter <|- - BodyConverter
    class BodyConverter
    {
        - -(constructors)- -
        +BodyConverter(Listener)
    }
    
    BaseStringConverter <|- - EmailAddressConverter
    class EmailAddressConverter
    {
        - -(constructors)- -
        +EmailAddressConverter(Listener)
    }
    
@enduml

@startuml









skinparam backgroundColor #333333






skinparam  {
    defaultFontName   "Open Sans,Avenir,Nunito,Arial,Helvetica,SansSerif"
    defaultFontSize   12
    defaultTextAlignment left
    shadowing false
    RoundCorner 10
    TitleFontSize 18
}

skinparam defaultFontName       "Open Sans,Avenir,Nunito,Arial,Helvetica,SansSerif"
skinparam defaultFontSize       12
skinparam dpi                   100
skinparam shadowing             false
skinparam roundcorner           16
skinparam ParticipantPadding    40
skinparam BoxPadding            40
skinparam Padding               3
skinparam ArrowColor            #545454
skinparam stereotype {
    CBackgroundColor #0066cf
    CBorderColor #0086ef
    ABackgroundColor #C8Ac00
    ABorderColor #D8Bc00
    IBackgroundColor #008400
    IBorderColor #239c23
    EBackgroundColor #cf6300
    EBorderColor #ef8300
    NBackgroundColor #3380b9
    NBorderColor #004d86
}
skinparam title {
	FontColor	                 #c0c0c0
 	BorderColor                  #545454
	FontSize	    	         20
	BorderRoundCorner            16
	BorderThickness 	         1
	BackgroundColor              #48494b
}


skinparam legend {
	BackgroundColor #303030
	BorderColor #404040
	FontColor #a0a0a0
}

	skinparam swimlane {
	BorderColor #5e5e5e
	BorderThickness 2
	TitleBackgroundColor  #6d6d6d-#484848
	TitleFontColor #303030
}

skinparam activity {
		FontColor #C8Ac00
	BorderColor #333333
	BackgroundColor #333333-#333333
	BarColor #00FF00
	StartColor #0060a8
	EndColor #0060a8
	DiamondBackgroundColor #6d6d6d-#3a3a3a
  	DiamondBorderColor #3a3a3a
  	DiamondFontColor #fefefe
}


skinparam participant {
		FontColor #C8Ac00
	BorderColor #333333
	BackgroundColor #333333-#333333
	ParticipantBorderThickness 2
}


skinparam actor {
		FontColor #C8Ac00
	BorderColor #333333
	BackgroundColor #333333-#333333
}


skinparam arrow {
	Thickness 1.5
	Color #545454
	FontColor #a0a0a0
    FontStyle bold
    MessageAlignment center
}



skinparam sequence {
	BorderColor #303030
	TitleFontColor #303030
	BackgroundColor #333333
	StartColor #303030
	EndColor #303030
	BoxBackgroundColor #333333
	BoxBorderColor #484848
	BoxFontColor #484848
	LifeLineBorderColor #484848
	LifeLineBorderThickness 2
	LifeLineBackgroundColor #3a3a3a
	GroupBorderColor #484848
	GroupFontColor #484848
	GroupHeaderFontColor #0060a8
	GroupBackgroundColor #484848
	GroupHeaderBackgroundColor #333333
	DividerBackgroundColor #484848
    DividerBorderColor #484848
    DividerBorderThickness 2
    DividerFontColor #D8Bc00
	ReferenceBackgroundColor #333333
	ReferenceBorderColor #484848
	ReferenceFontColor #fefefe
	ReferenceHeaderBackgroundColor #484848
}


skinparam partition {
	BorderColor #303030
	FontColor #333333
	BackgroundColor #333333
}


skinparam collections {
		FontColor #C8Ac00
	BorderColor #333333
	BackgroundColor #333333-#333333
}


skinparam control {
		FontColor #C8Ac00
	BorderColor #333333
	BackgroundColor #333333-#333333
}


skinparam entity {
		FontColor #C8Ac00
	BorderColor #333333
	BackgroundColor #333333-#333333
}


skinparam boundary {
		FontColor #C8Ac00
	BorderColor #333333
	BackgroundColor #333333-#333333
}


skinparam agent {
	BackgroundColor #ff8000
	BorderColor #ff9933
	FontColor #484848
}


skinparam note {
	BorderThickness 1
	BackgroundColor #1b1b1a
	BorderColor #5e5e5e
	FontSize 11
	FontColor #a0a0a0
}


skinparam artifact {
	BorderThickness 10
	BorderColor #5e5e5e
	BackgroundColor #1b1b1a
	FontColor #D8Bc00
}


skinparam component {
		FontColor #C8Ac00
	BorderColor #333333
	BackgroundColor #333333-#333333
}


skinparam interface {
	BackgroundColor  #008400
	BorderColor  #007F00
	FontColor #484848
}


skinparam storage {
	BackgroundColor #ff8000
  	BorderColor #cc6600
	FontColor #222222
}


skinparam node {
	BackgroundColor #333333
	BorderColor #333333
	FontColor #C8Ac00
}


skinparam cloud {
	BackgroundColor #484848-black
	BorderColor #484848
	FontColor #D8Bc00
}


skinparam database {
		FontColor #C8Ac00
	BorderColor #333333
	BackgroundColor #333333-#333333
	BackgroundColor  #333333
}


skinparam class {
		FontColor #C8Ac00
	BorderColor #333333
	BackgroundColor #333333-#333333
	HeaderBackgroundColor #1b1b1a
    BackgroundColor #282828
    BorderColor #5e5e5e
 	StereotypeFontColor #a0a0a0
    StereotypeFontStyle bold
	BorderThickness 1
	AttributeFontColor #D8Bc00
	AttributeFontSize 11
    FontColor #D8Bc00
    FontStyle bold
}


skinparam object {
		FontColor #C8Ac00
	BorderColor #333333
	BackgroundColor #333333-#333333
	StereotypeFontColor #484848
	BorderThickness 1
	AttributeFontColor #fefefe
	AttributeFontSize 11
}


skinparam usecase {
		FontColor #C8Ac00
	BorderColor #333333
	BackgroundColor #333333-#333333
	BorderThickness 2
	StereotypeFontColor #303030
}


skinparam rectangle {
		FontColor #C8Ac00
	BorderColor #333333
	BackgroundColor #333333-#333333
	BackgroundColor #333333
	BorderThickness 2
	StereotypeFontColor #303030
}


skinparam package {
		FontColor #C8Ac00
	BorderColor #333333
	BackgroundColor #333333-#333333
	BackgroundColor #333333
	BorderThickness 2
}


skinparam folder {
	BackgroundColor #6d6d6d
  	BorderColor #ff8000
	FontColor #ff8000
	BorderThickness 2
}


skinparam frame {
	BackgroundColor #6d6d6d
  	BorderColor #0060a8
	FontColor #0060a8
	BorderThickness 2
}


skinparam state {
		FontColor #C8Ac00
	BorderColor #333333
	BackgroundColor #333333-#333333
	StartColor #0060a8
	EndColor #0060a8
	AttributeFontColor #fefefe
	AttributeFontSize 11
}


skinparam queue {
		FontColor #C8Ac00
	BorderColor #333333
	BackgroundColor #333333-#333333
}


skinparam card {
	BackgroundColor #0060a8
	BorderColor #004d86
	FontColor $INFO_TEXT
}


skinparam file {
	BackgroundColor #6d6d6d-#484848
	BorderColor #0060a8
	FontColor #fefefe
}


skinparam stack {
		FontColor #C8Ac00
	BorderColor #333333
	BackgroundColor #333333-#333333
}

    
    title "com.telenav.kivakit.network.email.converters"
    
    abstract BaseTwoWayConverter
    abstract BaseStringConverter
    
    BaseTwoWayConverter <|- - AttachmentConverter
    class AttachmentConverter
    {
        - -(constructors)- -
        +AttachmentConverter(Listener)
    }
    
    BaseTwoWayConverter <|- - BodyConverter
    class BodyConverter
    {
        - -(constructors)- -
        +BodyConverter(Listener)
    }
    
    BaseStringConverter <|- - EmailAddressConverter
    class EmailAddressConverter
    {
        - -(constructors)- -
        +EmailAddressConverter(Listener)
    }
    
@enduml

PlantUML version 1.2021.01(Tue Feb 02 00:55:08 MST 2021)
(GPL source distribution)
Java Runtime: OpenJDK Runtime Environment
JVM: OpenJDK 64-Bit Server VM
Default Encoding: UTF-8
Language: en
Country: US
--></g></svg>