<?xml version="1.0" encoding="UTF-8" standalone="no"?><svg xmlns="http://www.w3.org/2000/svg" xmlns:xlink="http://www.w3.org/1999/xlink" contentScriptType="application/ecmascript" contentStyleType="text/css" height="621.875px" preserveAspectRatio="none" style="width:971px;height:621px;background:#333333;" version="1.1" viewBox="0 0 971 621" width="971.875px" zoomAndPan="magnify"><defs/><g><rect fill="#48494B" height="41.2028" rx="8.3333" ry="8.3333" style="stroke:#545454;stroke-width:1.0416666666666667;" width="516.6667" x="220.5729" y="2.0833"/><text fill="#C0C0C0" font-family="Open Sans,Avenir,Nunito,Arial,Helvetica,SansSerif" font-size="20.8333" lengthAdjust="spacing" textLength="493.75" x="232.0313" y="30.5583">com.telenav.kivakit.core.resource.resources.other</text><!--MD5=[a895581b51b0debe0fc56e5f7d686e14]
class BaseReadableResource--><rect codeLine="6" fill="#282828" height="48.055" id="BaseReadableResource" rx="8.3333" ry="8.3333" style="stroke:#5E5E5E;stroke-width:1.0416666666666667;" width="184.375" x="39.0625" y="53.7028"/><rect fill="#1B1B1A" height="31.3883" rx="8.3333" ry="8.3333" style="stroke:#1B1B1A;stroke-width:1.0416666666666667;" width="184.375" x="39.0625" y="53.7028"/><rect fill="#1B1B1A" height="8.3333" style="stroke:#1B1B1A;stroke-width:1.0416666666666667;" width="184.375" x="39.0625" y="76.7578"/><rect codeLine="6" fill="none" height="48.055" id="BaseReadableResource" rx="8.3333" ry="8.3333" style="stroke:#5E5E5E;stroke-width:1.0416666666666667;" width="184.375" x="39.0625" y="53.7028"/><ellipse cx="53.6458" cy="69.397" fill="#C8AC00" rx="10.4167" ry="10.4167" style="stroke:#D8BC00;stroke-width:1.0416666666666667;"/><path d="M53.7598,66.099 L52.9114,69.8283 L54.6143,69.8283 Z M52.6611,64.4511 L54.8645,64.4511 L57.3242,73.5636 L55.5237,73.5636 L54.9622,71.3114 L52.5513,71.3114 L52.002,73.5636 L50.2014,73.5636 Z " fill="#000000"/><text fill="#D8BC00" font-family="Open Sans,Avenir,Nunito,Arial,Helvetica,SansSerif" font-size="12.5" font-style="italic" font-weight="bold" lengthAdjust="spacing" textLength="146.875" x="70.3125" y="74.1211">BaseReadableResource</text><line style="stroke:#5E5E5E;stroke-width:1.0416666666666667;" x1="40.1042" x2="222.3958" y1="85.0911" y2="85.0911"/><line style="stroke:#5E5E5E;stroke-width:1.0416666666666667;" x1="40.1042" x2="222.3958" y1="93.4245" y2="93.4245"/><!--MD5=[8b5151cbe93a9a6942e91a66bba84fb0]
class BaseWritableResource--><rect codeLine="7" fill="#282828" height="48.055" id="BaseWritableResource" rx="8.3333" ry="8.3333" style="stroke:#5E5E5E;stroke-width:1.0416666666666667;" width="179.1667" x="361.4583" y="53.7028"/><rect fill="#1B1B1A" height="31.3883" rx="8.3333" ry="8.3333" style="stroke:#1B1B1A;stroke-width:1.0416666666666667;" width="179.1667" x="361.4583" y="53.7028"/><rect fill="#1B1B1A" height="8.3333" style="stroke:#1B1B1A;stroke-width:1.0416666666666667;" width="179.1667" x="361.4583" y="76.7578"/><rect codeLine="7" fill="none" height="48.055" id="BaseWritableResource" rx="8.3333" ry="8.3333" style="stroke:#5E5E5E;stroke-width:1.0416666666666667;" width="179.1667" x="361.4583" y="53.7028"/><ellipse cx="376.0417" cy="69.397" fill="#C8AC00" rx="10.4167" ry="10.4167" style="stroke:#D8BC00;stroke-width:1.0416666666666667;"/><path d="M376.1556,66.099 L375.3072,69.8283 L377.0101,69.8283 Z M375.057,64.4511 L377.2603,64.4511 L379.7201,73.5636 L377.9195,73.5636 L377.358,71.3114 L374.9471,71.3114 L374.3978,73.5636 L372.5972,73.5636 Z " fill="#000000"/><text fill="#D8BC00" font-family="Open Sans,Avenir,Nunito,Arial,Helvetica,SansSerif" font-size="12.5" font-style="italic" font-weight="bold" lengthAdjust="spacing" textLength="141.6667" x="392.7083" y="74.1211">BaseWritableResource</text><line style="stroke:#5E5E5E;stroke-width:1.0416666666666667;" x1="362.5" x2="539.5833" y1="85.0911" y2="85.0911"/><line style="stroke:#5E5E5E;stroke-width:1.0416666666666667;" x1="362.5" x2="539.5833" y1="93.4245" y2="93.4245"/><!--MD5=[a77eb5e5ec90335ecc93d264db7688d7]
class BitArrayResource--><rect codeLine="10" fill="#282828" height="83.3781" id="BitArrayResource" rx="8.3333" ry="8.3333" style="stroke:#5E5E5E;stroke-width:1.0416666666666667;" width="147.9167" x="291.6667" y="347.9736"/><rect fill="#1B1B1A" height="31.3883" rx="8.3333" ry="8.3333" style="stroke:#1B1B1A;stroke-width:1.0416666666666667;" width="147.9167" x="291.6667" y="347.9736"/><rect fill="#1B1B1A" height="8.3333" style="stroke:#1B1B1A;stroke-width:1.0416666666666667;" width="147.9167" x="291.6667" y="371.0286"/><rect codeLine="10" fill="none" height="83.3781" id="BitArrayResource" rx="8.3333" ry="8.3333" style="stroke:#5E5E5E;stroke-width:1.0416666666666667;" width="147.9167" x="291.6667" y="347.9736"/><ellipse cx="306.25" cy="363.6678" fill="#0066CF" rx="10.4167" ry="10.4167" style="stroke:#0086EF;stroke-width:1.0416666666666667;"/><path d="M308.1604,368.0929 Q307.7332,368.3126 307.2632,368.4224 Q306.7932,368.5323 306.2744,368.5323 Q304.4312,368.5323 303.4607,367.3177 Q302.4902,366.1031 302.4902,363.8082 Q302.4902,361.5072 303.4607,360.2926 Q304.4312,359.078 306.2744,359.078 Q306.7932,359.078 307.2693,359.1878 Q307.7454,359.2977 308.1604,359.5174 L308.1604,361.5194 Q307.6965,361.0921 307.2601,360.8938 Q306.8237,360.6954 306.3599,360.6954 Q305.3711,360.6954 304.8676,361.4797 Q304.364,362.264 304.364,363.8082 Q304.364,365.3463 304.8676,366.1306 Q305.3711,366.9149 306.3599,366.9149 Q306.8237,366.9149 307.2601,366.7165 Q307.6965,366.5181 308.1604,366.0909 Z " fill="#000000"/><text fill="#D8BC00" font-family="Open Sans,Avenir,Nunito,Arial,Helvetica,SansSerif" font-size="12.5" font-weight="bold" lengthAdjust="spacing" textLength="110.4167" x="322.9167" y="368.3919">BitArrayResource</text><line style="stroke:#5E5E5E;stroke-width:1.5625;" x1="292.7083" x2="438.5417" y1="379.362" y2="379.362"/><ellipse cx="303.125" cy="414.7319" fill="#84BE84" rx="3.125" ry="3.125" style="stroke:#038048;stroke-width:1.0416666666666667;"/><text fill="#D8BC00" font-family="Open Sans,Avenir,Nunito,Arial,Helvetica,SansSerif" font-size="11.4583" lengthAdjust="spacing" textLength="105.2083" x="314.5833" y="421.6431">BitArrayResource()</text><line style="stroke:#5E5E5E;stroke-width:1.0416666666666667;" x1="292.7083" x2="321.875" y1="397.5677" y2="397.5677"/><text fill="#D8BC00" font-family="Open Sans,Avenir,Nunito,Arial,Helvetica,SansSerif" font-size="11.4583" lengthAdjust="spacing" textLength="81.25" x="325" y="401.3774">(constructors)</text><line style="stroke:#5E5E5E;stroke-width:1.0416666666666667;" x1="409.375" x2="438.5417" y1="397.5677" y2="397.5677"/><!--MD5=[7fb115a82f660c0d8f26578b4bfa98e6]
class NullResource--><rect codeLine="17" fill="#282828" height="83.3781" id="NullResource" rx="8.3333" ry="8.3333" style="stroke:#5E5E5E;stroke-width:1.0416666666666667;" width="121.875" x="476.5625" y="347.9736"/><rect fill="#1B1B1A" height="31.3883" rx="8.3333" ry="8.3333" style="stroke:#1B1B1A;stroke-width:1.0416666666666667;" width="121.875" x="476.5625" y="347.9736"/><rect fill="#1B1B1A" height="8.3333" style="stroke:#1B1B1A;stroke-width:1.0416666666666667;" width="121.875" x="476.5625" y="371.0286"/><rect codeLine="17" fill="none" height="83.3781" id="NullResource" rx="8.3333" ry="8.3333" style="stroke:#5E5E5E;stroke-width:1.0416666666666667;" width="121.875" x="476.5625" y="347.9736"/><ellipse cx="491.1458" cy="363.6678" fill="#0066CF" rx="10.4167" ry="10.4167" style="stroke:#0086EF;stroke-width:1.0416666666666667;"/><path d="M493.0562,368.0929 Q492.629,368.3126 492.159,368.4224 Q491.689,368.5323 491.1702,368.5323 Q489.327,368.5323 488.3565,367.3177 Q487.3861,366.1031 487.3861,363.8082 Q487.3861,361.5072 488.3565,360.2926 Q489.327,359.078 491.1702,359.078 Q491.689,359.078 492.1651,359.1878 Q492.6412,359.2977 493.0562,359.5174 L493.0562,361.5194 Q492.5924,361.0921 492.156,360.8938 Q491.7196,360.6954 491.2557,360.6954 Q490.2669,360.6954 489.7634,361.4797 Q489.2598,362.264 489.2598,363.8082 Q489.2598,365.3463 489.7634,366.1306 Q490.2669,366.9149 491.2557,366.9149 Q491.7196,366.9149 492.156,366.7165 Q492.5924,366.5181 493.0562,366.0909 Z " fill="#000000"/><text fill="#D8BC00" font-family="Open Sans,Avenir,Nunito,Arial,Helvetica,SansSerif" font-size="12.5" font-weight="bold" lengthAdjust="spacing" textLength="84.375" x="507.8125" y="368.3919">NullResource</text><line style="stroke:#5E5E5E;stroke-width:1.5625;" x1="477.6042" x2="597.3958" y1="379.362" y2="379.362"/><ellipse cx="488.0208" cy="414.7319" fill="#84BE84" rx="3.125" ry="3.125" style="stroke:#038048;stroke-width:1.0416666666666667;"/><text fill="#D8BC00" font-family="Open Sans,Avenir,Nunito,Arial,Helvetica,SansSerif" font-size="11.4583" lengthAdjust="spacing" textLength="82.2917" x="499.4792" y="421.6431">NullResource()</text><line style="stroke:#5E5E5E;stroke-width:1.0416666666666667;" x1="477.6042" x2="493.75" y1="397.5677" y2="397.5677"/><text fill="#D8BC00" font-family="Open Sans,Avenir,Nunito,Arial,Helvetica,SansSerif" font-size="11.4583" lengthAdjust="spacing" textLength="81.25" x="496.875" y="401.3774">(constructors)</text><line style="stroke:#5E5E5E;stroke-width:1.0416666666666667;" x1="581.25" x2="597.3958" y1="397.5677" y2="397.5677"/><!--MD5=[748edca0ce158a3028498566edca97ab]
class VariableMap--><rect fill="#282828" height="48.055" id="VariableMap" rx="8.3333" ry="8.3333" style="stroke:#5E5E5E;stroke-width:1.0416666666666667;" width="116.6667" x="741.6667" y="53.7028"/><rect fill="#1B1B1A" height="31.3883" rx="8.3333" ry="8.3333" style="stroke:#1B1B1A;stroke-width:1.0416666666666667;" width="116.6667" x="741.6667" y="53.7028"/><rect fill="#1B1B1A" height="8.3333" style="stroke:#1B1B1A;stroke-width:1.0416666666666667;" width="116.6667" x="741.6667" y="76.7578"/><rect fill="none" height="48.055" id="VariableMap" rx="8.3333" ry="8.3333" style="stroke:#5E5E5E;stroke-width:1.0416666666666667;" width="116.6667" x="741.6667" y="53.7028"/><ellipse cx="756.25" cy="69.397" fill="#0066CF" rx="10.4167" ry="10.4167" style="stroke:#0086EF;stroke-width:1.0416666666666667;"/><path d="M758.1604,73.822 Q757.7332,74.0417 757.2632,74.1516 Q756.7932,74.2615 756.2744,74.2615 Q754.4312,74.2615 753.4607,73.0469 Q752.4902,71.8323 752.4902,69.5374 Q752.4902,67.2363 753.4607,66.0217 Q754.4312,64.8071 756.2744,64.8071 Q756.7932,64.8071 757.2693,64.917 Q757.7454,65.0269 758.1604,65.2466 L758.1604,67.2485 Q757.6965,66.8213 757.2601,66.6229 Q756.8237,66.4246 756.3599,66.4246 Q755.3711,66.4246 754.8676,67.2089 Q754.364,67.9932 754.364,69.5374 Q754.364,71.0754 754.8676,71.8597 Q755.3711,72.644 756.3599,72.644 Q756.8237,72.644 757.2601,72.4457 Q757.6965,72.2473 758.1604,71.8201 Z " fill="#000000"/><text fill="#D8BC00" font-family="Open Sans,Avenir,Nunito,Arial,Helvetica,SansSerif" font-size="12.5" font-weight="bold" lengthAdjust="spacing" textLength="79.1667" x="772.9167" y="74.1211">VariableMap</text><line style="stroke:#5E5E5E;stroke-width:1.0416666666666667;" x1="742.7083" x2="857.2917" y1="85.0911" y2="85.0911"/><line style="stroke:#5E5E5E;stroke-width:1.0416666666666667;" x1="742.7083" x2="857.2917" y1="93.4245" y2="93.4245"/><!--MD5=[e9c68631d2db108d1e4f6719668fa91b]
class PropertyMap--><rect codeLine="24" fill="#282828" height="451.2858" id="PropertyMap" rx="8.3333" ry="8.3333" style="stroke:#5E5E5E;stroke-width:1.0416666666666667;" width="330.2083" x="634.8958" y="164.1195"/><rect fill="#1B1B1A" height="31.3883" rx="8.3333" ry="8.3333" style="stroke:#1B1B1A;stroke-width:1.0416666666666667;" width="330.2083" x="634.8958" y="164.1195"/><rect fill="#1B1B1A" height="8.3333" style="stroke:#1B1B1A;stroke-width:1.0416666666666667;" width="330.2083" x="634.8958" y="187.1745"/><rect codeLine="24" fill="none" height="451.2858" id="PropertyMap" rx="8.3333" ry="8.3333" style="stroke:#5E5E5E;stroke-width:1.0416666666666667;" width="330.2083" x="634.8958" y="164.1195"/><ellipse cx="752.0833" cy="179.8136" fill="#0066CF" rx="10.4167" ry="10.4167" style="stroke:#0086EF;stroke-width:1.0416666666666667;"/><path d="M753.9937,184.2387 Q753.5665,184.4584 753.0965,184.5683 Q752.6265,184.6781 752.1077,184.6781 Q750.2645,184.6781 749.294,183.4635 Q748.3236,182.2489 748.3236,179.954 Q748.3236,177.653 749.294,176.4384 Q750.2645,175.2238 752.1077,175.2238 Q752.6265,175.2238 753.1026,175.3337 Q753.5787,175.4435 753.9937,175.6632 L753.9937,177.6652 Q753.5299,177.238 753.0935,177.0396 Q752.6571,176.8412 752.1932,176.8412 Q751.2044,176.8412 750.7009,177.6255 Q750.1973,178.4098 750.1973,179.954 Q750.1973,181.4921 750.7009,182.2764 Q751.2044,183.0607 752.1932,183.0607 Q752.6571,183.0607 753.0935,182.8623 Q753.5299,182.664 753.9937,182.2367 Z " fill="#000000"/><text fill="#D8BC00" font-family="Open Sans,Avenir,Nunito,Arial,Helvetica,SansSerif" font-size="12.5" font-weight="bold" lengthAdjust="spacing" textLength="81.25" x="775" y="184.5378">PropertyMap</text><line style="stroke:#5E5E5E;stroke-width:1.5625;" x1="635.9375" x2="964.0625" y1="195.5078" y2="195.5078"/><polygon fill="#FFFF44" points="646.3542,225.6694,650.5208,229.836,646.3542,234.0027,642.1875,229.836" style="stroke:#B38D22;stroke-width:1.0416666666666667;"/><text fill="#D8BC00" font-family="Open Sans,Avenir,Nunito,Arial,Helvetica,SansSerif" font-size="11.4583" lengthAdjust="spacing" textLength="79.1667" x="657.8125" y="237.7889">PropertyMap()</text><line style="stroke:#5E5E5E;stroke-width:1.0416666666666667;" x1="635.9375" x2="756.25" y1="213.7136" y2="213.7136"/><text fill="#D8BC00" font-family="Open Sans,Avenir,Nunito,Arial,Helvetica,SansSerif" font-size="11.4583" lengthAdjust="spacing" textLength="81.25" x="759.375" y="217.5232">(constructors)</text><line style="stroke:#5E5E5E;stroke-width:1.0416666666666667;" x1="843.75" x2="964.0625" y1="213.7136" y2="213.7136"/><ellipse cx="646.3542" cy="274.5341" fill="#84BE84" rx="3.125" ry="3.125" style="stroke:#038048;stroke-width:1.0416666666666667;"/><text fill="#D8BC00" font-family="Open Sans,Avenir,Nunito,Arial,Helvetica,SansSerif" font-size="11.4583" lengthAdjust="spacing" textLength="175" x="657.8125" y="281.4453">void add(Object, PropertyFilter)</text><ellipse cx="646.3542" cy="294.279" fill="#84BE84" rx="3.125" ry="3.125" style="stroke:#038048;stroke-width:1.0416666666666667;"/><text fill="#D8BC00" font-family="Open Sans,Avenir,Nunito,Arial,Helvetica,SansSerif" font-size="11.4583" lengthAdjust="spacing" textLength="147.9167" x="657.8125" y="301.1902">Count asCount(String key)</text><ellipse cx="646.3542" cy="314.0238" fill="#84BE84" rx="3.125" ry="3.125" style="stroke:#038048;stroke-width:1.0416666666666667;"/><text fill="#D8BC00" font-family="Open Sans,Avenir,Nunito,Arial,Helvetica,SansSerif" font-size="11.4583" lengthAdjust="spacing" textLength="284.375" x="657.8125" y="320.9351">PropertyMap comment(String key, String comment)</text><ellipse cx="646.3542" cy="333.7687" fill="#84BE84" rx="3.125" ry="3.125" style="stroke:#038048;stroke-width:1.0416666666666667;"/><text fill="#D8BC00" font-family="Open Sans,Avenir,Nunito,Arial,Helvetica,SansSerif" font-size="11.4583" lengthAdjust="spacing" textLength="116.6667" x="657.8125" y="340.6799">PropertyMap create()</text><ellipse cx="646.3542" cy="353.5136" fill="#84BE84" rx="3.125" ry="3.125" style="stroke:#038048;stroke-width:1.0416666666666667;"/><text fill="#D8BC00" font-family="Open Sans,Avenir,Nunito,Arial,Helvetica,SansSerif" font-size="11.4583" lengthAdjust="spacing" textLength="297.9167" x="657.8125" y="360.4248">PropertyMap load(PackagePath _package, String path)</text><ellipse cx="646.3542" cy="373.2585" fill="#84BE84" rx="3.125" ry="3.125" style="stroke:#038048;stroke-width:1.0416666666666667;"/><text fill="#D8BC00" font-family="Open Sans,Avenir,Nunito,Arial,Helvetica,SansSerif" font-size="11.4583" lengthAdjust="spacing" textLength="283.3333" x="657.8125" y="380.1697">PropertyMap load(Class&lt;?&gt; _package, String path)</text><ellipse cx="646.3542" cy="393.0033" fill="#84BE84" rx="3.125" ry="3.125" style="stroke:#038048;stroke-width:1.0416666666666667;"/><text fill="#D8BC00" font-family="Open Sans,Avenir,Nunito,Arial,Helvetica,SansSerif" font-size="11.4583" lengthAdjust="spacing" textLength="158.3333" x="657.8125" y="399.9146">PropertyMap load(Resource)</text><ellipse cx="646.3542" cy="412.7482" fill="#84BE84" rx="3.125" ry="3.125" style="stroke:#038048;stroke-width:1.0416666666666667;"/><text fill="#D8BC00" font-family="Open Sans,Avenir,Nunito,Arial,Helvetica,SansSerif" font-size="11.4583" lengthAdjust="spacing" textLength="241.6667" x="657.8125" y="419.6594">PropertyMap localized(PackagePath, Locale)</text><ellipse cx="646.3542" cy="432.4931" fill="#84BE84" rx="3.125" ry="3.125" style="stroke:#038048;stroke-width:1.0416666666666667;"/><text fill="#D8BC00" font-family="Open Sans,Avenir,Nunito,Arial,Helvetica,SansSerif" font-size="11.4583" lengthAdjust="spacing" textLength="266.6667" x="657.8125" y="439.4043">PropertyMap of(VariableMap&lt;String&gt; variables)</text><line style="stroke:#5E5E5E;stroke-width:1.0416666666666667;" x1="635.9375" x2="765.625" y1="257.37" y2="257.37"/><text fill="#D8BC00" font-family="Open Sans,Avenir,Nunito,Arial,Helvetica,SansSerif" font-size="11.4583" lengthAdjust="spacing" textLength="62.5" x="768.75" y="261.1796">(collection)</text><line style="stroke:#5E5E5E;stroke-width:1.0416666666666667;" x1="834.375" x2="964.0625" y1="257.37" y2="257.37"/><ellipse cx="646.3542" cy="476.1495" fill="#84BE84" rx="3.125" ry="3.125" style="stroke:#038048;stroke-width:1.0416666666666667;"/><text fill="#D8BC00" font-family="Open Sans,Avenir,Nunito,Arial,Helvetica,SansSerif" font-size="11.4583" lengthAdjust="spacing" textLength="157.2917" x="657.8125" y="483.0607">double asDouble(String key)</text><ellipse cx="646.3542" cy="495.8944" fill="#84BE84" rx="3.125" ry="3.125" style="stroke:#038048;stroke-width:1.0416666666666667;"/><text fill="#D8BC00" font-family="Open Sans,Avenir,Nunito,Arial,Helvetica,SansSerif" font-size="11.4583" lengthAdjust="spacing" textLength="108.3333" x="657.8125" y="502.8056">int asInt(String key)</text><ellipse cx="646.3542" cy="515.6392" fill="#84BE84" rx="3.125" ry="3.125" style="stroke:#038048;stroke-width:1.0416666666666667;"/><text fill="#D8BC00" font-family="Open Sans,Avenir,Nunito,Arial,Helvetica,SansSerif" font-size="11.4583" lengthAdjust="spacing" textLength="132.2917" x="657.8125" y="522.5505">long asLong(String key)</text><ellipse cx="646.3542" cy="535.3841" fill="#84BE84" rx="3.125" ry="3.125" style="stroke:#038048;stroke-width:1.0416666666666667;"/><text fill="#D8BC00" font-family="Open Sans,Avenir,Nunito,Arial,Helvetica,SansSerif" font-size="11.4583" lengthAdjust="spacing" textLength="229.1667" x="657.8125" y="542.2953">Object asObject(Listener, Class&lt;?&gt; type)</text><line style="stroke:#5E5E5E;stroke-width:1.0416666666666667;" x1="635.9375" x2="761.4583" y1="458.9854" y2="458.9854"/><text fill="#D8BC00" font-family="Open Sans,Avenir,Nunito,Arial,Helvetica,SansSerif" font-size="11.4583" lengthAdjust="spacing" textLength="70.8333" x="764.5833" y="462.795">(conversion)</text><line style="stroke:#5E5E5E;stroke-width:1.0416666666666667;" x1="838.5417" x2="964.0625" y1="458.9854" y2="458.9854"/><ellipse cx="646.3542" cy="579.0405" fill="#84BE84" rx="3.125" ry="3.125" style="stroke:#038048;stroke-width:1.0416666666666667;"/><text fill="#D8BC00" font-family="Open Sans,Avenir,Nunito,Arial,Helvetica,SansSerif" font-size="11.4583" lengthAdjust="spacing" textLength="244.7917" x="657.8125" y="585.9517">void save(String heading, WritableResource)</text><ellipse cx="646.3542" cy="598.7854" fill="#84BE84" rx="3.125" ry="3.125" style="stroke:#038048;stroke-width:1.0416666666666667;"/><text fill="#D8BC00" font-family="Open Sans,Avenir,Nunito,Arial,Helvetica,SansSerif" font-size="11.4583" lengthAdjust="spacing" textLength="157.2917" x="657.8125" y="605.6966">void save(WritableResource)</text><line style="stroke:#5E5E5E;stroke-width:1.0416666666666667;" x1="635.9375" x2="779.1667" y1="561.8764" y2="561.8764"/><text fill="#D8BC00" font-family="Open Sans,Avenir,Nunito,Arial,Helvetica,SansSerif" font-size="11.4583" lengthAdjust="spacing" textLength="35.4167" x="782.2917" y="565.686">(write)</text><line style="stroke:#5E5E5E;stroke-width:1.0416666666666667;" x1="820.8333" x2="964.0625" y1="561.8764" y2="561.8764"/><!--MD5=[d8b7091fc71207719cb1ba2b583610df]
class ResourceSection--><rect codeLine="49" fill="#282828" height="83.3781" id="ResourceSection" rx="8.3333" ry="8.3333" style="stroke:#5E5E5E;stroke-width:1.0416666666666667;" width="247.9167" x="7.2917" y="347.9736"/><rect fill="#1B1B1A" height="31.3883" rx="8.3333" ry="8.3333" style="stroke:#1B1B1A;stroke-width:1.0416666666666667;" width="247.9167" x="7.2917" y="347.9736"/><rect fill="#1B1B1A" height="8.3333" style="stroke:#1B1B1A;stroke-width:1.0416666666666667;" width="247.9167" x="7.2917" y="371.0286"/><rect codeLine="49" fill="none" height="83.3781" id="ResourceSection" rx="8.3333" ry="8.3333" style="stroke:#5E5E5E;stroke-width:1.0416666666666667;" width="247.9167" x="7.2917" y="347.9736"/><ellipse cx="71.3542" cy="363.6678" fill="#0066CF" rx="10.4167" ry="10.4167" style="stroke:#0086EF;stroke-width:1.0416666666666667;"/><path d="M73.2646,368.0929 Q72.8373,368.3126 72.3674,368.4224 Q71.8974,368.5323 71.3786,368.5323 Q69.5353,368.5323 68.5649,367.3177 Q67.5944,366.1031 67.5944,363.8082 Q67.5944,361.5072 68.5649,360.2926 Q69.5353,359.078 71.3786,359.078 Q71.8974,359.078 72.3735,359.1878 Q72.8495,359.2977 73.2646,359.5174 L73.2646,361.5194 Q72.8007,361.0921 72.3643,360.8938 Q71.9279,360.6954 71.464,360.6954 Q70.4753,360.6954 69.9717,361.4797 Q69.4682,362.264 69.4682,363.8082 Q69.4682,365.3463 69.9717,366.1306 Q70.4753,366.9149 71.464,366.9149 Q71.9279,366.9149 72.3643,366.7165 Q72.8007,366.5181 73.2646,366.0909 Z " fill="#000000"/><text fill="#D8BC00" font-family="Open Sans,Avenir,Nunito,Arial,Helvetica,SansSerif" font-size="12.5" font-weight="bold" lengthAdjust="spacing" textLength="105.2083" x="94.2708" y="368.3919">ResourceSection</text><line style="stroke:#5E5E5E;stroke-width:1.5625;" x1="8.3333" x2="254.1667" y1="379.362" y2="379.362"/><ellipse cx="18.75" cy="414.7319" fill="#84BE84" rx="3.125" ry="3.125" style="stroke:#038048;stroke-width:1.0416666666666667;"/><text fill="#D8BC00" font-family="Open Sans,Avenir,Nunito,Arial,Helvetica,SansSerif" font-size="11.4583" lengthAdjust="spacing" textLength="215.625" x="30.2083" y="421.6431">ResourceSection(Resource, long, long)</text><line style="stroke:#5E5E5E;stroke-width:1.0416666666666667;" x1="8.3333" x2="87.5" y1="397.5677" y2="397.5677"/><text fill="#D8BC00" font-family="Open Sans,Avenir,Nunito,Arial,Helvetica,SansSerif" font-size="11.4583" lengthAdjust="spacing" textLength="81.25" x="90.625" y="401.3774">(constructors)</text><line style="stroke:#5E5E5E;stroke-width:1.0416666666666667;" x1="175" x2="254.1667" y1="397.5677" y2="397.5677"/><!--MD5=[9d0552d03cbb8d02f283922a4fb71afd]
reverse link BaseWritableResource to BitArrayResource--><path codeLine="9" d="M439.0833,122.0882 C422.5729,181.9945 393.0104,289.2549 376.875,347.7757 " fill="none" id="BaseWritableResource-backto-BitArrayResource" style="stroke:#545454;stroke-width:1.5625;"/><polygon fill="none" points="432.0521,120.1403,444.625,101.9945,446.1146,124.0153,432.0521,120.1403" style="stroke:#545454;stroke-width:1.5625;"/><!--MD5=[9ccf6f1b29adfc037ddc2e002e327a40]
reverse link BaseWritableResource to NullResource--><path codeLine="16" d="M463.1458,122.0882 C479.8646,181.9945 509.7813,289.2549 526.1146,347.7757 " fill="none" id="BaseWritableResource-backto-NullResource" style="stroke:#545454;stroke-width:1.5625;"/><polygon fill="none" points="456.1146,124.0257,457.5417,101.9945,470.1667,120.0986,456.1146,124.0257" style="stroke:#545454;stroke-width:1.5625;"/><!--MD5=[240b308583738c0632992609ec1f6e90]
reverse link VariableMap to PropertyMap--><path codeLine="23" d="M800,123.1924 C800,135.1924 800,149.0257 800,163.9528 " fill="none" id="VariableMap-backto-PropertyMap" style="stroke:#545454;stroke-width:1.5625;"/><polygon fill="none" points="792.7083,122.8278,800,101.9945,807.2917,122.8278,792.7083,122.8278" style="stroke:#545454;stroke-width:1.5625;"/><!--MD5=[7acbd6a81c9084c0aa01c5e4ab5d84a9]
reverse link BaseReadableResource to ResourceSection--><path codeLine="48" d="M131.25,122.8799 C131.25,182.9424 131.25,289.5153 131.25,347.7757 " fill="none" id="BaseReadableResource-backto-ResourceSection" style="stroke:#545454;stroke-width:1.5625;"/><polygon fill="none" points="123.9583,122.8278,131.25,101.9945,138.5417,122.8278,123.9583,122.8278" style="stroke:#545454;stroke-width:1.5625;"/><!--MD5=[8882c3baed183034e3c8cc6f6bebdb23]
@startuml

    !include ../lexakai/lexakai.theme
    
    title "com.telenav.kivakit.core.resource.resources.other"
    
    abstract BaseReadableResource
    abstract BaseWritableResource
    
    BaseWritableResource <|- - BitArrayResource
    class BitArrayResource
    {
        - -(constructors)- -
        +BitArrayResource()
    }
    
    BaseWritableResource <|- - NullResource
    class NullResource
    {
        - -(constructors)- -
        +NullResource()
    }
    
    VariableMap <|- - PropertyMap
    class PropertyMap
    {
        - -(constructors)- -
        #PropertyMap()
        - -(collection)- -
        +void add(Object, PropertyFilter)
        +Count asCount(String key)
        +PropertyMap comment(String key, String comment)
        +PropertyMap create()
        +PropertyMap load(PackagePath _package, String path)
        +PropertyMap load(Class<?> _package, String path)
        +PropertyMap load(Resource)
        +PropertyMap localized(PackagePath, Locale)
        +PropertyMap of(VariableMap<String> variables)
        - -(conversion)- -
        +double asDouble(String key)
        +int asInt(String key)
        +long asLong(String key)
        +Object asObject(Listener, Class<?> type)
        - -(write)- -
        +void save(String heading, WritableResource)
        +void save(WritableResource)
    }
    
    BaseReadableResource <|- - ResourceSection
    class ResourceSection
    {
        - -(constructors)- -
        +ResourceSection(Resource, long, long)
    }
    
@enduml

@startuml









skinparam backgroundColor #333333






skinparam  {
    defaultFontName   "Open Sans,Avenir,Nunito,Arial,Helvetica,SansSerif"
    defaultFontSize   12
    defaultTextAlignment left
    shadowing false
    RoundCorner 10
    TitleFontSize 18
}

skinparam defaultFontName       "Open Sans,Avenir,Nunito,Arial,Helvetica,SansSerif"
skinparam defaultFontSize       12
skinparam dpi                   100
skinparam shadowing             false
skinparam roundcorner           16
skinparam ParticipantPadding    40
skinparam BoxPadding            40
skinparam Padding               3
skinparam ArrowColor            #545454
skinparam stereotype {
    CBackgroundColor #0066cf
    CBorderColor #0086ef
    ABackgroundColor #C8Ac00
    ABorderColor #D8Bc00
    IBackgroundColor #008400
    IBorderColor #239c23
    EBackgroundColor #cf6300
    EBorderColor #ef8300
    NBackgroundColor #3380b9
    NBorderColor #004d86
}
skinparam title {
	FontColor	                 #c0c0c0
 	BorderColor                  #545454
	FontSize	    	         20
	BorderRoundCorner            16
	BorderThickness 	         1
	BackgroundColor              #48494b
}


skinparam legend {
	BackgroundColor #303030
	BorderColor #404040
	FontColor #a0a0a0
}

	skinparam swimlane {
	BorderColor #5e5e5e
	BorderThickness 2
	TitleBackgroundColor  #6d6d6d-#484848
	TitleFontColor #303030
}

skinparam activity {
		FontColor #C8Ac00
	BorderColor #333333
	BackgroundColor #333333-#333333
	BarColor #00FF00
	StartColor #0060a8
	EndColor #0060a8
	DiamondBackgroundColor #6d6d6d-#3a3a3a
  	DiamondBorderColor #3a3a3a
  	DiamondFontColor #fefefe
}


skinparam participant {
		FontColor #C8Ac00
	BorderColor #333333
	BackgroundColor #333333-#333333
	ParticipantBorderThickness 2
}


skinparam actor {
		FontColor #C8Ac00
	BorderColor #333333
	BackgroundColor #333333-#333333
}


skinparam arrow {
	Thickness 1.5
	Color #545454
	FontColor #a0a0a0
    FontStyle bold
    MessageAlignment center
}



skinparam sequence {
	BorderColor #303030
	TitleFontColor #303030
	BackgroundColor #333333
	StartColor #303030
	EndColor #303030
	BoxBackgroundColor #333333
	BoxBorderColor #484848
	BoxFontColor #484848
	LifeLineBorderColor #484848
	LifeLineBorderThickness 2
	LifeLineBackgroundColor #3a3a3a
	GroupBorderColor #484848
	GroupFontColor #484848
	GroupHeaderFontColor #0060a8
	GroupBackgroundColor #484848
	GroupHeaderBackgroundColor #333333
	DividerBackgroundColor #484848
    DividerBorderColor #484848
    DividerBorderThickness 2
    DividerFontColor #D8Bc00
	ReferenceBackgroundColor #333333
	ReferenceBorderColor #484848
	ReferenceFontColor #fefefe
	ReferenceHeaderBackgroundColor #484848
}


skinparam partition {
	BorderColor #303030
	FontColor #333333
	BackgroundColor #333333
}


skinparam collections {
		FontColor #C8Ac00
	BorderColor #333333
	BackgroundColor #333333-#333333
}


skinparam control {
		FontColor #C8Ac00
	BorderColor #333333
	BackgroundColor #333333-#333333
}


skinparam entity {
		FontColor #C8Ac00
	BorderColor #333333
	BackgroundColor #333333-#333333
}


skinparam boundary {
		FontColor #C8Ac00
	BorderColor #333333
	BackgroundColor #333333-#333333
}


skinparam agent {
	BackgroundColor #ff8000
	BorderColor #ff9933
	FontColor #484848
}


skinparam note {
	BorderThickness 1
	BackgroundColor #1b1b1a
	BorderColor #5e5e5e
	FontSize 11
	FontColor #a0a0a0
}


skinparam artifact {
	BorderThickness 10
	BorderColor #5e5e5e
	BackgroundColor #1b1b1a
	FontColor #D8Bc00
}


skinparam component {
		FontColor #C8Ac00
	BorderColor #333333
	BackgroundColor #333333-#333333
}


skinparam interface {
	BackgroundColor  #008400
	BorderColor  #007F00
	FontColor #484848
}


skinparam storage {
	BackgroundColor #ff8000
  	BorderColor #cc6600
	FontColor #222222
}


skinparam node {
	BackgroundColor #333333
	BorderColor #333333
	FontColor #C8Ac00
}


skinparam cloud {
	BackgroundColor #484848-black
	BorderColor #484848
	FontColor #D8Bc00
}


skinparam database {
		FontColor #C8Ac00
	BorderColor #333333
	BackgroundColor #333333-#333333
	BackgroundColor  #333333
}


skinparam class {
		FontColor #C8Ac00
	BorderColor #333333
	BackgroundColor #333333-#333333
	HeaderBackgroundColor #1b1b1a
    BackgroundColor #282828
    BorderColor #5e5e5e
 	StereotypeFontColor #a0a0a0
    StereotypeFontStyle bold
	BorderThickness 1
	AttributeFontColor #D8Bc00
	AttributeFontSize 11
    FontColor #D8Bc00
    FontStyle bold
}


skinparam object {
		FontColor #C8Ac00
	BorderColor #333333
	BackgroundColor #333333-#333333
	StereotypeFontColor #484848
	BorderThickness 1
	AttributeFontColor #fefefe
	AttributeFontSize 11
}


skinparam usecase {
		FontColor #C8Ac00
	BorderColor #333333
	BackgroundColor #333333-#333333
	BorderThickness 2
	StereotypeFontColor #303030
}


skinparam rectangle {
		FontColor #C8Ac00
	BorderColor #333333
	BackgroundColor #333333-#333333
	BackgroundColor #333333
	BorderThickness 2
	StereotypeFontColor #303030
}


skinparam package {
		FontColor #C8Ac00
	BorderColor #333333
	BackgroundColor #333333-#333333
	BackgroundColor #333333
	BorderThickness 2
}


skinparam folder {
	BackgroundColor #6d6d6d
  	BorderColor #ff8000
	FontColor #ff8000
	BorderThickness 2
}


skinparam frame {
	BackgroundColor #6d6d6d
  	BorderColor #0060a8
	FontColor #0060a8
	BorderThickness 2
}


skinparam state {
		FontColor #C8Ac00
	BorderColor #333333
	BackgroundColor #333333-#333333
	StartColor #0060a8
	EndColor #0060a8
	AttributeFontColor #fefefe
	AttributeFontSize 11
}


skinparam queue {
		FontColor #C8Ac00
	BorderColor #333333
	BackgroundColor #333333-#333333
}


skinparam card {
	BackgroundColor #0060a8
	BorderColor #004d86
	FontColor $INFO_TEXT
}


skinparam file {
	BackgroundColor #6d6d6d-#484848
	BorderColor #0060a8
	FontColor #fefefe
}


skinparam stack {
		FontColor #C8Ac00
	BorderColor #333333
	BackgroundColor #333333-#333333
}

    
    title "com.telenav.kivakit.core.resource.resources.other"
    
    abstract BaseReadableResource
    abstract BaseWritableResource
    
    BaseWritableResource <|- - BitArrayResource
    class BitArrayResource
    {
        - -(constructors)- -
        +BitArrayResource()
    }
    
    BaseWritableResource <|- - NullResource
    class NullResource
    {
        - -(constructors)- -
        +NullResource()
    }
    
    VariableMap <|- - PropertyMap
    class PropertyMap
    {
        - -(constructors)- -
        #PropertyMap()
        - -(collection)- -
        +void add(Object, PropertyFilter)
        +Count asCount(String key)
        +PropertyMap comment(String key, String comment)
        +PropertyMap create()
        +PropertyMap load(PackagePath _package, String path)
        +PropertyMap load(Class<?> _package, String path)
        +PropertyMap load(Resource)
        +PropertyMap localized(PackagePath, Locale)
        +PropertyMap of(VariableMap<String> variables)
        - -(conversion)- -
        +double asDouble(String key)
        +int asInt(String key)
        +long asLong(String key)
        +Object asObject(Listener, Class<?> type)
        - -(write)- -
        +void save(String heading, WritableResource)
        +void save(WritableResource)
    }
    
    BaseReadableResource <|- - ResourceSection
    class ResourceSection
    {
        - -(constructors)- -
        +ResourceSection(Resource, long, long)
    }
    
@enduml

PlantUML version 1.2021.01(Tue Feb 02 00:55:08 MST 2021)
(GPL source distribution)
Java Runtime: Java(TM) SE Runtime Environment
JVM: Java HotSpot(TM) 64-Bit Server VM
Default Encoding: UTF-8
Language: en
Country: US
--></g></svg>