<?xml version="1.0" encoding="UTF-8" standalone="no"?><svg xmlns="http://www.w3.org/2000/svg" xmlns:xlink="http://www.w3.org/1999/xlink" contentScriptType="application/ecmascript" contentStyleType="text/css" height="282.2917px" preserveAspectRatio="none" style="width:444px;height:282px;background:#333333;" version="1.1" viewBox="0 0 444 282" width="444.7917px" zoomAndPan="magnify"><defs/><g><rect fill="#48494B" height="41.2028" rx="8.3333" ry="8.3333" style="stroke:#545454;stroke-width:1.0416666666666667;" width="432.2917" x="2.0833" y="2.0833"/><text fill="#C0C0C0" font-family="Open Sans,Avenir,Nunito,Arial,Helvetica,SansSerif" font-size="20.8333" lengthAdjust="spacing" textLength="409.375" x="13.5417" y="30.5583">com.telenav.kivakit.core.resource.project</text><!--MD5=[d776228a55af1f9e7dd99d395538019c]
class KryoTypes--><rect fill="#282828" height="48.055" id="KryoTypes" rx="8.3333" ry="8.3333" style="stroke:#5E5E5E;stroke-width:1.0416666666666667;" width="106.25" x="64.3229" y="53.7028"/><rect fill="#1B1B1A" height="31.3883" rx="8.3333" ry="8.3333" style="stroke:#1B1B1A;stroke-width:1.0416666666666667;" width="106.25" x="64.3229" y="53.7028"/><rect fill="#1B1B1A" height="8.3333" style="stroke:#1B1B1A;stroke-width:1.0416666666666667;" width="106.25" x="64.3229" y="76.7578"/><rect fill="none" height="48.055" id="KryoTypes" rx="8.3333" ry="8.3333" style="stroke:#5E5E5E;stroke-width:1.0416666666666667;" width="106.25" x="64.3229" y="53.7028"/><ellipse cx="78.9063" cy="69.397" fill="#0066CF" rx="10.4167" ry="10.4167" style="stroke:#0086EF;stroke-width:1.0416666666666667;"/><path d="M80.8167,73.822 Q80.3894,74.0417 79.9194,74.1516 Q79.4495,74.2615 78.9307,74.2615 Q77.0874,74.2615 76.1169,73.0469 Q75.1465,71.8323 75.1465,69.5374 Q75.1465,67.2363 76.1169,66.0217 Q77.0874,64.8071 78.9307,64.8071 Q79.4495,64.8071 79.9255,64.917 Q80.4016,65.0269 80.8167,65.2466 L80.8167,67.2485 Q80.3528,66.8213 79.9164,66.6229 Q79.48,66.4246 79.0161,66.4246 Q78.0273,66.4246 77.5238,67.2089 Q77.0203,67.9932 77.0203,69.5374 Q77.0203,71.0754 77.5238,71.8597 Q78.0273,72.644 79.0161,72.644 Q79.48,72.644 79.9164,72.4457 Q80.3528,72.2473 80.8167,71.8201 Z " fill="#000000"/><text fill="#D8BC00" font-family="Open Sans,Avenir,Nunito,Arial,Helvetica,SansSerif" font-size="12.5" font-weight="bold" lengthAdjust="spacing" textLength="68.75" x="95.5729" y="74.1211">KryoTypes</text><line style="stroke:#5E5E5E;stroke-width:1.0416666666666667;" x1="65.3646" x2="169.5313" y1="85.0911" y2="85.0911"/><line style="stroke:#5E5E5E;stroke-width:1.0416666666666667;" x1="65.3646" x2="169.5313" y1="93.4245" y2="93.4245"/><!--MD5=[64a6ce8fd86ea8052c20d550a3d093c6]
class CoreResourceKryoTypes--><rect codeLine="7" fill="#282828" height="83.3781" id="CoreResourceKryoTypes" rx="8.3333" ry="8.3333" style="stroke:#5E5E5E;stroke-width:1.0416666666666667;" width="194.7917" x="20.0521" y="178.182"/><rect fill="#1B1B1A" height="31.3883" rx="8.3333" ry="8.3333" style="stroke:#1B1B1A;stroke-width:1.0416666666666667;" width="194.7917" x="20.0521" y="178.182"/><rect fill="#1B1B1A" height="8.3333" style="stroke:#1B1B1A;stroke-width:1.0416666666666667;" width="194.7917" x="20.0521" y="201.237"/><rect codeLine="7" fill="none" height="83.3781" id="CoreResourceKryoTypes" rx="8.3333" ry="8.3333" style="stroke:#5E5E5E;stroke-width:1.0416666666666667;" width="194.7917" x="20.0521" y="178.182"/><ellipse cx="34.6354" cy="193.8761" fill="#0066CF" rx="10.4167" ry="10.4167" style="stroke:#0086EF;stroke-width:1.0416666666666667;"/><path d="M36.5458,198.3012 Q36.1186,198.5209 35.6486,198.6308 Q35.1786,198.7406 34.6598,198.7406 Q32.8166,198.7406 31.8461,197.526 Q30.8757,196.3114 30.8757,194.0165 Q30.8757,191.7155 31.8461,190.5009 Q32.8166,189.2863 34.6598,189.2863 Q35.1786,189.2863 35.6547,189.3962 Q36.1308,189.506 36.5458,189.7257 L36.5458,191.7277 Q36.0819,191.3005 35.6455,191.1021 Q35.2091,190.9037 34.7453,190.9037 Q33.7565,190.9037 33.253,191.688 Q32.7494,192.4723 32.7494,194.0165 Q32.7494,195.5546 33.253,196.3389 Q33.7565,197.1232 34.7453,197.1232 Q35.2091,197.1232 35.6455,196.9248 Q36.0819,196.7265 36.5458,196.2992 Z " fill="#000000"/><text fill="#D8BC00" font-family="Open Sans,Avenir,Nunito,Arial,Helvetica,SansSerif" font-size="12.5" font-weight="bold" lengthAdjust="spacing" textLength="157.2917" x="51.3021" y="198.6003">CoreResourceKryoTypes</text><line style="stroke:#5E5E5E;stroke-width:1.5625;" x1="21.0938" x2="213.8021" y1="209.5703" y2="209.5703"/><ellipse cx="31.5104" cy="244.9402" fill="#84BE84" rx="3.125" ry="3.125" style="stroke:#038048;stroke-width:1.0416666666666667;"/><text fill="#D8BC00" font-family="Open Sans,Avenir,Nunito,Arial,Helvetica,SansSerif" font-size="11.4583" lengthAdjust="spacing" textLength="146.875" x="42.9688" y="251.8514">CoreResourceKryoTypes()</text><line style="stroke:#5E5E5E;stroke-width:1.0416666666666667;" x1="21.0938" x2="73.6979" y1="227.7761" y2="227.7761"/><text fill="#D8BC00" font-family="Open Sans,Avenir,Nunito,Arial,Helvetica,SansSerif" font-size="11.4583" lengthAdjust="spacing" textLength="81.25" x="76.8229" y="231.5857">(constructors)</text><line style="stroke:#5E5E5E;stroke-width:1.0416666666666667;" x1="161.1979" x2="213.8021" y1="227.7761" y2="227.7761"/><!--MD5=[79d378210367c0c6ec62ef762ddfbd1b]
class Project--><rect fill="#282828" height="48.055" id="Project" rx="8.3333" ry="8.3333" style="stroke:#5E5E5E;stroke-width:1.0416666666666667;" width="81.25" x="300.7813" y="53.7028"/><rect fill="#1B1B1A" height="31.3883" rx="8.3333" ry="8.3333" style="stroke:#1B1B1A;stroke-width:1.0416666666666667;" width="81.25" x="300.7813" y="53.7028"/><rect fill="#1B1B1A" height="8.3333" style="stroke:#1B1B1A;stroke-width:1.0416666666666667;" width="81.25" x="300.7813" y="76.7578"/><rect fill="none" height="48.055" id="Project" rx="8.3333" ry="8.3333" style="stroke:#5E5E5E;stroke-width:1.0416666666666667;" width="81.25" x="300.7813" y="53.7028"/><ellipse cx="315.3646" cy="69.397" fill="#0066CF" rx="10.4167" ry="10.4167" style="stroke:#0086EF;stroke-width:1.0416666666666667;"/><path d="M317.275,73.822 Q316.8477,74.0417 316.3778,74.1516 Q315.9078,74.2615 315.389,74.2615 Q313.5457,74.2615 312.5753,73.0469 Q311.6048,71.8323 311.6048,69.5374 Q311.6048,67.2363 312.5753,66.0217 Q313.5457,64.8071 315.389,64.8071 Q315.9078,64.8071 316.3839,64.917 Q316.8599,65.0269 317.275,65.2466 L317.275,67.2485 Q316.8111,66.8213 316.3747,66.6229 Q315.9383,66.4246 315.4744,66.4246 Q314.4857,66.4246 313.9821,67.2089 Q313.4786,67.9932 313.4786,69.5374 Q313.4786,71.0754 313.9821,71.8597 Q314.4857,72.644 315.4744,72.644 Q315.9383,72.644 316.3747,72.4457 Q316.8111,72.2473 317.275,71.8201 Z " fill="#000000"/><text fill="#D8BC00" font-family="Open Sans,Avenir,Nunito,Arial,Helvetica,SansSerif" font-size="12.5" font-weight="bold" lengthAdjust="spacing" textLength="43.75" x="332.0313" y="74.1211">Project</text><line style="stroke:#5E5E5E;stroke-width:1.0416666666666667;" x1="301.8229" x2="380.9896" y1="85.0911" y2="85.0911"/><line style="stroke:#5E5E5E;stroke-width:1.0416666666666667;" x1="301.8229" x2="380.9896" y1="93.4245" y2="93.4245"/><!--MD5=[aa3ab8f43e5cf3b28de114396467781e]
class CoreResourceProject--><rect codeLine="14" fill="#282828" height="111.4563" id="CoreResourceProject" rx="8.3333" ry="8.3333" style="stroke:#5E5E5E;stroke-width:1.0416666666666667;" width="179.1667" x="251.8229" y="164.1195"/><rect fill="#1B1B1A" height="31.3883" rx="8.3333" ry="8.3333" style="stroke:#1B1B1A;stroke-width:1.0416666666666667;" width="179.1667" x="251.8229" y="164.1195"/><rect fill="#1B1B1A" height="8.3333" style="stroke:#1B1B1A;stroke-width:1.0416666666666667;" width="179.1667" x="251.8229" y="187.1745"/><rect codeLine="14" fill="none" height="111.4563" id="CoreResourceProject" rx="8.3333" ry="8.3333" style="stroke:#5E5E5E;stroke-width:1.0416666666666667;" width="179.1667" x="251.8229" y="164.1195"/><ellipse cx="270.625" cy="179.8136" fill="#0066CF" rx="10.4167" ry="10.4167" style="stroke:#0086EF;stroke-width:1.0416666666666667;"/><path d="M272.5354,184.2387 Q272.1082,184.4584 271.6382,184.5683 Q271.1682,184.6781 270.6494,184.6781 Q268.8062,184.6781 267.8357,183.4635 Q266.8652,182.2489 266.8652,179.954 Q266.8652,177.653 267.8357,176.4384 Q268.8062,175.2238 270.6494,175.2238 Q271.1682,175.2238 271.6443,175.3337 Q272.1204,175.4435 272.5354,175.6632 L272.5354,177.6652 Q272.0715,177.238 271.6351,177.0396 Q271.1987,176.8412 270.7349,176.8412 Q269.7461,176.8412 269.2426,177.6255 Q268.739,178.4098 268.739,179.954 Q268.739,181.4921 269.2426,182.2764 Q269.7461,183.0607 270.7349,183.0607 Q271.1987,183.0607 271.6351,182.8623 Q272.0715,182.664 272.5354,182.2367 Z " fill="#000000"/><text fill="#D8BC00" font-family="Open Sans,Avenir,Nunito,Arial,Helvetica,SansSerif" font-size="12.5" font-weight="bold" lengthAdjust="spacing" textLength="132.2917" x="288.2292" y="184.5378">CoreResourceProject</text><line style="stroke:#5E5E5E;stroke-width:1.5625;" x1="252.8646" x2="429.9479" y1="195.5078" y2="195.5078"/><polygon fill="#FFFF44" points="263.2813,225.6694,267.4479,229.836,263.2813,234.0027,259.1146,229.836" style="stroke:#B38D22;stroke-width:1.0416666666666667;"/><text fill="#D8BC00" font-family="Open Sans,Avenir,Nunito,Arial,Helvetica,SansSerif" font-size="11.4583" lengthAdjust="spacing" textLength="126.0417" x="274.7396" y="237.7889">CoreResourceProject()</text><line style="stroke:#5E5E5E;stroke-width:1.0416666666666667;" x1="252.8646" x2="297.6563" y1="213.7136" y2="213.7136"/><text fill="#D8BC00" font-family="Open Sans,Avenir,Nunito,Arial,Helvetica,SansSerif" font-size="11.4583" lengthAdjust="spacing" textLength="81.25" x="300.7813" y="217.5232">(constructors)</text><line style="stroke:#5E5E5E;stroke-width:1.0416666666666667;" x1="385.1563" x2="429.9479" y1="213.7136" y2="213.7136"/><line style="stroke:#5E5E5E;stroke-width:1.0416666666666667;" x1="252.8646" x2="429.9479" y1="247.4976" y2="247.4976"/><ellipse cx="263.2813" cy="258.9559" fill="#84BE84" rx="3.125" ry="3.125" style="stroke:#038048;stroke-width:1.0416666666666667;"/><text fill="#D8BC00" font-family="Open Sans,Avenir,Nunito,Arial,Helvetica,SansSerif" font-size="11.4583" lengthAdjust="spacing" textLength="146.875" x="274.7396" y="265.8671">CoreResourceProject get()</text><!--MD5=[b66479ee693cd7f0e05bbe3ddd627277]
reverse link KryoTypes to CoreResourceKryoTypes--><path codeLine="6" d="M117.4479,122.7965 C117.4479,140.4736 117.4479,160.734 117.4479,178.0674 " fill="none" id="KryoTypes-backto-CoreResourceKryoTypes" style="stroke:#545454;stroke-width:1.5625;"/><polygon fill="none" points="110.1563,122.6715,117.4479,101.8382,124.7396,122.6715,110.1563,122.6715" style="stroke:#545454;stroke-width:1.5625;"/><!--MD5=[cd2437e7c98652535b521ee48085c2d4]
reverse link Project to CoreResourceProject--><path codeLine="13" d="M341.4063,122.7028 C341.4063,135.7549 341.4063,150.2028 341.4063,163.859 " fill="none" id="Project-backto-CoreResourceProject" style="stroke:#545454;stroke-width:1.5625;"/><polygon fill="none" points="334.1146,122.6715,341.4063,101.8382,348.6979,122.6715,334.1146,122.6715" style="stroke:#545454;stroke-width:1.5625;"/><!--MD5=[54e7c8393c8999b1403312e75d207fa6]
@startuml

    !include ../lexakai/lexakai.theme
    
    title "com.telenav.kivakit.core.resource.project"
    
    KryoTypes <|- - CoreResourceKryoTypes
    class CoreResourceKryoTypes
    {
        - -(constructors)- -
        +CoreResourceKryoTypes()
    }
    
    Project <|- - CoreResourceProject
    class CoreResourceProject
    {
        - -(constructors)- -
        #CoreResourceProject()
        - -
        +CoreResourceProject get()
    }
    
@enduml

@startuml









skinparam backgroundColor #333333






skinparam  {
    defaultFontName   "Open Sans,Avenir,Nunito,Arial,Helvetica,SansSerif"
    defaultFontSize   12
    defaultTextAlignment left
    shadowing false
    RoundCorner 10
    TitleFontSize 18
}

skinparam defaultFontName       "Open Sans,Avenir,Nunito,Arial,Helvetica,SansSerif"
skinparam defaultFontSize       12
skinparam dpi                   100
skinparam shadowing             false
skinparam roundcorner           16
skinparam ParticipantPadding    40
skinparam BoxPadding            40
skinparam Padding               3
skinparam ArrowColor            #545454
skinparam stereotype {
    CBackgroundColor #0066cf
    CBorderColor #0086ef
    ABackgroundColor #C8Ac00
    ABorderColor #D8Bc00
    IBackgroundColor #008400
    IBorderColor #239c23
    EBackgroundColor #cf6300
    EBorderColor #ef8300
    NBackgroundColor #3380b9
    NBorderColor #004d86
}
skinparam title {
	FontColor	                 #c0c0c0
 	BorderColor                  #545454
	FontSize	    	         20
	BorderRoundCorner            16
	BorderThickness 	         1
	BackgroundColor              #48494b
}


skinparam legend {
	BackgroundColor #303030
	BorderColor #404040
	FontColor #a0a0a0
}

	skinparam swimlane {
	BorderColor #5e5e5e
	BorderThickness 2
	TitleBackgroundColor  #6d6d6d-#484848
	TitleFontColor #303030
}

skinparam activity {
		FontColor #C8Ac00
	BorderColor #333333
	BackgroundColor #333333-#333333
	BarColor #00FF00
	StartColor #0060a8
	EndColor #0060a8
	DiamondBackgroundColor #6d6d6d-#3a3a3a
  	DiamondBorderColor #3a3a3a
  	DiamondFontColor #fefefe
}


skinparam participant {
		FontColor #C8Ac00
	BorderColor #333333
	BackgroundColor #333333-#333333
	ParticipantBorderThickness 2
}


skinparam actor {
		FontColor #C8Ac00
	BorderColor #333333
	BackgroundColor #333333-#333333
}


skinparam arrow {
	Thickness 1.5
	Color #545454
	FontColor #a0a0a0
    FontStyle bold
    MessageAlignment center
}



skinparam sequence {
	BorderColor #303030
	TitleFontColor #303030
	BackgroundColor #333333
	StartColor #303030
	EndColor #303030
	BoxBackgroundColor #333333
	BoxBorderColor #484848
	BoxFontColor #484848
	LifeLineBorderColor #484848
	LifeLineBorderThickness 2
	LifeLineBackgroundColor #3a3a3a
	GroupBorderColor #484848
	GroupFontColor #484848
	GroupHeaderFontColor #0060a8
	GroupBackgroundColor #484848
	GroupHeaderBackgroundColor #333333
	DividerBackgroundColor #484848
    DividerBorderColor #484848
    DividerBorderThickness 2
    DividerFontColor #D8Bc00
	ReferenceBackgroundColor #333333
	ReferenceBorderColor #484848
	ReferenceFontColor #fefefe
	ReferenceHeaderBackgroundColor #484848
}


skinparam partition {
	BorderColor #303030
	FontColor #333333
	BackgroundColor #333333
}


skinparam collections {
		FontColor #C8Ac00
	BorderColor #333333
	BackgroundColor #333333-#333333
}


skinparam control {
		FontColor #C8Ac00
	BorderColor #333333
	BackgroundColor #333333-#333333
}


skinparam entity {
		FontColor #C8Ac00
	BorderColor #333333
	BackgroundColor #333333-#333333
}


skinparam boundary {
		FontColor #C8Ac00
	BorderColor #333333
	BackgroundColor #333333-#333333
}


skinparam agent {
	BackgroundColor #ff8000
	BorderColor #ff9933
	FontColor #484848
}


skinparam note {
	BorderThickness 1
	BackgroundColor #1b1b1a
	BorderColor #5e5e5e
	FontSize 11
	FontColor #a0a0a0
}


skinparam artifact {
	BorderThickness 10
	BorderColor #5e5e5e
	BackgroundColor #1b1b1a
	FontColor #D8Bc00
}


skinparam component {
		FontColor #C8Ac00
	BorderColor #333333
	BackgroundColor #333333-#333333
}


skinparam interface {
	BackgroundColor  #008400
	BorderColor  #007F00
	FontColor #484848
}


skinparam storage {
	BackgroundColor #ff8000
  	BorderColor #cc6600
	FontColor #222222
}


skinparam node {
	BackgroundColor #333333
	BorderColor #333333
	FontColor #C8Ac00
}


skinparam cloud {
	BackgroundColor #484848-black
	BorderColor #484848
	FontColor #D8Bc00
}


skinparam database {
		FontColor #C8Ac00
	BorderColor #333333
	BackgroundColor #333333-#333333
	BackgroundColor  #333333
}


skinparam class {
		FontColor #C8Ac00
	BorderColor #333333
	BackgroundColor #333333-#333333
	HeaderBackgroundColor #1b1b1a
    BackgroundColor #282828
    BorderColor #5e5e5e
 	StereotypeFontColor #a0a0a0
    StereotypeFontStyle bold
	BorderThickness 1
	AttributeFontColor #D8Bc00
	AttributeFontSize 11
    FontColor #D8Bc00
    FontStyle bold
}


skinparam object {
		FontColor #C8Ac00
	BorderColor #333333
	BackgroundColor #333333-#333333
	StereotypeFontColor #484848
	BorderThickness 1
	AttributeFontColor #fefefe
	AttributeFontSize 11
}


skinparam usecase {
		FontColor #C8Ac00
	BorderColor #333333
	BackgroundColor #333333-#333333
	BorderThickness 2
	StereotypeFontColor #303030
}


skinparam rectangle {
		FontColor #C8Ac00
	BorderColor #333333
	BackgroundColor #333333-#333333
	BackgroundColor #333333
	BorderThickness 2
	StereotypeFontColor #303030
}


skinparam package {
		FontColor #C8Ac00
	BorderColor #333333
	BackgroundColor #333333-#333333
	BackgroundColor #333333
	BorderThickness 2
}


skinparam folder {
	BackgroundColor #6d6d6d
  	BorderColor #ff8000
	FontColor #ff8000
	BorderThickness 2
}


skinparam frame {
	BackgroundColor #6d6d6d
  	BorderColor #0060a8
	FontColor #0060a8
	BorderThickness 2
}


skinparam state {
		FontColor #C8Ac00
	BorderColor #333333
	BackgroundColor #333333-#333333
	StartColor #0060a8
	EndColor #0060a8
	AttributeFontColor #fefefe
	AttributeFontSize 11
}


skinparam queue {
		FontColor #C8Ac00
	BorderColor #333333
	BackgroundColor #333333-#333333
}


skinparam card {
	BackgroundColor #0060a8
	BorderColor #004d86
	FontColor $INFO_TEXT
}


skinparam file {
	BackgroundColor #6d6d6d-#484848
	BorderColor #0060a8
	FontColor #fefefe
}


skinparam stack {
		FontColor #C8Ac00
	BorderColor #333333
	BackgroundColor #333333-#333333
}

    
    title "com.telenav.kivakit.core.resource.project"
    
    KryoTypes <|- - CoreResourceKryoTypes
    class CoreResourceKryoTypes
    {
        - -(constructors)- -
        +CoreResourceKryoTypes()
    }
    
    Project <|- - CoreResourceProject
    class CoreResourceProject
    {
        - -(constructors)- -
        #CoreResourceProject()
        - -
        +CoreResourceProject get()
    }
    
@enduml

PlantUML version 1.2021.01(Tue Feb 02 00:55:08 MST 2021)
(GPL source distribution)
Java Runtime: Java(TM) SE Runtime Environment
JVM: Java HotSpot(TM) 64-Bit Server VM
Default Encoding: UTF-8
Language: en
Country: US
--></g></svg>