<?xml version="1.0" encoding="UTF-8" standalone="no"?><svg xmlns="http://www.w3.org/2000/svg" xmlns:xlink="http://www.w3.org/1999/xlink" contentScriptType="application/ecmascript" contentStyleType="text/css" height="582.2917px" preserveAspectRatio="none" style="width:959px;height:582px;background:#333333;" version="1.1" viewBox="0 0 959 582" width="959.375px" zoomAndPan="magnify"><defs/><g><rect fill="#48494B" height="41.2028" rx="8.3333" ry="8.3333" style="stroke:#545454;stroke-width:1.0416666666666667;" width="516.6667" x="214.0625" y="2.0833"/><text fill="#C0C0C0" font-family="Open Sans,Avenir,Nunito,Arial,Helvetica,SansSerif" font-size="20.8333" lengthAdjust="spacing" textLength="493.75" x="225.5208" y="30.5583">com.telenav.kivakit.core.resource.resources.other</text><!--MD5=[a895581b51b0debe0fc56e5f7d686e14]
class BaseReadableResource--><rect codeLine="6" fill="#282828" height="48.055" id="BaseReadableResource" rx="8.3333" ry="8.3333" style="stroke:#5E5E5E;stroke-width:1.0416666666666667;" width="184.375" x="39.0625" y="53.7028"/><rect fill="#1B1B1A" height="31.3883" rx="8.3333" ry="8.3333" style="stroke:#1B1B1A;stroke-width:1.0416666666666667;" width="184.375" x="39.0625" y="53.7028"/><rect fill="#1B1B1A" height="8.3333" style="stroke:#1B1B1A;stroke-width:1.0416666666666667;" width="184.375" x="39.0625" y="76.7578"/><rect codeLine="6" fill="none" height="48.055" id="BaseReadableResource" rx="8.3333" ry="8.3333" style="stroke:#5E5E5E;stroke-width:1.0416666666666667;" width="184.375" x="39.0625" y="53.7028"/><ellipse cx="53.6458" cy="69.397" fill="#C8AC00" rx="10.4167" ry="10.4167" style="stroke:#D8BC00;stroke-width:1.0416666666666667;"/><path d="M53.7598,66.099 L52.9114,69.8283 L54.6143,69.8283 Z M52.6611,64.4511 L54.8645,64.4511 L57.3242,73.5636 L55.5237,73.5636 L54.9622,71.3114 L52.5513,71.3114 L52.002,73.5636 L50.2014,73.5636 Z " fill="#000000"/><text fill="#D8BC00" font-family="Open Sans,Avenir,Nunito,Arial,Helvetica,SansSerif" font-size="12.5" font-style="italic" font-weight="bold" lengthAdjust="spacing" textLength="146.875" x="70.3125" y="74.1211">BaseReadableResource</text><line style="stroke:#5E5E5E;stroke-width:1.0416666666666667;" x1="40.1042" x2="222.3958" y1="85.0911" y2="85.0911"/><line style="stroke:#5E5E5E;stroke-width:1.0416666666666667;" x1="40.1042" x2="222.3958" y1="93.4245" y2="93.4245"/><!--MD5=[8b5151cbe93a9a6942e91a66bba84fb0]
class BaseWritableResource--><rect codeLine="7" fill="#282828" height="48.055" id="BaseWritableResource" rx="8.3333" ry="8.3333" style="stroke:#5E5E5E;stroke-width:1.0416666666666667;" width="179.1667" x="361.4583" y="53.7028"/><rect fill="#1B1B1A" height="31.3883" rx="8.3333" ry="8.3333" style="stroke:#1B1B1A;stroke-width:1.0416666666666667;" width="179.1667" x="361.4583" y="53.7028"/><rect fill="#1B1B1A" height="8.3333" style="stroke:#1B1B1A;stroke-width:1.0416666666666667;" width="179.1667" x="361.4583" y="76.7578"/><rect codeLine="7" fill="none" height="48.055" id="BaseWritableResource" rx="8.3333" ry="8.3333" style="stroke:#5E5E5E;stroke-width:1.0416666666666667;" width="179.1667" x="361.4583" y="53.7028"/><ellipse cx="376.0417" cy="69.397" fill="#C8AC00" rx="10.4167" ry="10.4167" style="stroke:#D8BC00;stroke-width:1.0416666666666667;"/><path d="M376.1556,66.099 L375.3072,69.8283 L377.0101,69.8283 Z M375.057,64.4511 L377.2603,64.4511 L379.7201,73.5636 L377.9195,73.5636 L377.358,71.3114 L374.9471,71.3114 L374.3978,73.5636 L372.5972,73.5636 Z " fill="#000000"/><text fill="#D8BC00" font-family="Open Sans,Avenir,Nunito,Arial,Helvetica,SansSerif" font-size="12.5" font-style="italic" font-weight="bold" lengthAdjust="spacing" textLength="141.6667" x="392.7083" y="74.1211">BaseWritableResource</text><line style="stroke:#5E5E5E;stroke-width:1.0416666666666667;" x1="362.5" x2="539.5833" y1="85.0911" y2="85.0911"/><line style="stroke:#5E5E5E;stroke-width:1.0416666666666667;" x1="362.5" x2="539.5833" y1="93.4245" y2="93.4245"/><!--MD5=[a77eb5e5ec90335ecc93d264db7688d7]
class BitArrayResource--><rect codeLine="10" fill="#282828" height="83.3781" id="BitArrayResource" rx="8.3333" ry="8.3333" style="stroke:#5E5E5E;stroke-width:1.0416666666666667;" width="147.9167" x="291.6667" y="328.182"/><rect fill="#1B1B1A" height="31.3883" rx="8.3333" ry="8.3333" style="stroke:#1B1B1A;stroke-width:1.0416666666666667;" width="147.9167" x="291.6667" y="328.182"/><rect fill="#1B1B1A" height="8.3333" style="stroke:#1B1B1A;stroke-width:1.0416666666666667;" width="147.9167" x="291.6667" y="351.237"/><rect codeLine="10" fill="none" height="83.3781" id="BitArrayResource" rx="8.3333" ry="8.3333" style="stroke:#5E5E5E;stroke-width:1.0416666666666667;" width="147.9167" x="291.6667" y="328.182"/><ellipse cx="306.25" cy="343.8761" fill="#0066CF" rx="10.4167" ry="10.4167" style="stroke:#0086EF;stroke-width:1.0416666666666667;"/><path d="M308.1604,348.3012 Q307.7332,348.5209 307.2632,348.6308 Q306.7932,348.7406 306.2744,348.7406 Q304.4312,348.7406 303.4607,347.526 Q302.4902,346.3114 302.4902,344.0165 Q302.4902,341.7155 303.4607,340.5009 Q304.4312,339.2863 306.2744,339.2863 Q306.7932,339.2863 307.2693,339.3962 Q307.7454,339.506 308.1604,339.7257 L308.1604,341.7277 Q307.6965,341.3005 307.2601,341.1021 Q306.8237,340.9037 306.3599,340.9037 Q305.3711,340.9037 304.8676,341.688 Q304.364,342.4723 304.364,344.0165 Q304.364,345.5546 304.8676,346.3389 Q305.3711,347.1232 306.3599,347.1232 Q306.8237,347.1232 307.2601,346.9248 Q307.6965,346.7265 308.1604,346.2992 Z " fill="#000000"/><text fill="#D8BC00" font-family="Open Sans,Avenir,Nunito,Arial,Helvetica,SansSerif" font-size="12.5" font-weight="bold" lengthAdjust="spacing" textLength="110.4167" x="322.9167" y="348.6003">BitArrayResource</text><line style="stroke:#5E5E5E;stroke-width:1.5625;" x1="292.7083" x2="438.5417" y1="359.5703" y2="359.5703"/><ellipse cx="303.125" cy="394.9402" fill="#84BE84" rx="3.125" ry="3.125" style="stroke:#038048;stroke-width:1.0416666666666667;"/><text fill="#D8BC00" font-family="Open Sans,Avenir,Nunito,Arial,Helvetica,SansSerif" font-size="11.4583" lengthAdjust="spacing" textLength="105.2083" x="314.5833" y="401.8514">BitArrayResource()</text><line style="stroke:#5E5E5E;stroke-width:1.0416666666666667;" x1="292.7083" x2="321.875" y1="377.7761" y2="377.7761"/><text fill="#D8BC00" font-family="Open Sans,Avenir,Nunito,Arial,Helvetica,SansSerif" font-size="11.4583" lengthAdjust="spacing" textLength="81.25" x="325" y="381.5857">(constructors)</text><line style="stroke:#5E5E5E;stroke-width:1.0416666666666667;" x1="409.375" x2="438.5417" y1="377.7761" y2="377.7761"/><!--MD5=[7fb115a82f660c0d8f26578b4bfa98e6]
class NullResource--><rect codeLine="17" fill="#282828" height="83.3781" id="NullResource" rx="8.3333" ry="8.3333" style="stroke:#5E5E5E;stroke-width:1.0416666666666667;" width="121.875" x="476.5625" y="328.182"/><rect fill="#1B1B1A" height="31.3883" rx="8.3333" ry="8.3333" style="stroke:#1B1B1A;stroke-width:1.0416666666666667;" width="121.875" x="476.5625" y="328.182"/><rect fill="#1B1B1A" height="8.3333" style="stroke:#1B1B1A;stroke-width:1.0416666666666667;" width="121.875" x="476.5625" y="351.237"/><rect codeLine="17" fill="none" height="83.3781" id="NullResource" rx="8.3333" ry="8.3333" style="stroke:#5E5E5E;stroke-width:1.0416666666666667;" width="121.875" x="476.5625" y="328.182"/><ellipse cx="491.1458" cy="343.8761" fill="#0066CF" rx="10.4167" ry="10.4167" style="stroke:#0086EF;stroke-width:1.0416666666666667;"/><path d="M493.0562,348.3012 Q492.629,348.5209 492.159,348.6308 Q491.689,348.7406 491.1702,348.7406 Q489.327,348.7406 488.3565,347.526 Q487.3861,346.3114 487.3861,344.0165 Q487.3861,341.7155 488.3565,340.5009 Q489.327,339.2863 491.1702,339.2863 Q491.689,339.2863 492.1651,339.3962 Q492.6412,339.506 493.0562,339.7257 L493.0562,341.7277 Q492.5924,341.3005 492.156,341.1021 Q491.7196,340.9037 491.2557,340.9037 Q490.2669,340.9037 489.7634,341.688 Q489.2598,342.4723 489.2598,344.0165 Q489.2598,345.5546 489.7634,346.3389 Q490.2669,347.1232 491.2557,347.1232 Q491.7196,347.1232 492.156,346.9248 Q492.5924,346.7265 493.0562,346.2992 Z " fill="#000000"/><text fill="#D8BC00" font-family="Open Sans,Avenir,Nunito,Arial,Helvetica,SansSerif" font-size="12.5" font-weight="bold" lengthAdjust="spacing" textLength="84.375" x="507.8125" y="348.6003">NullResource</text><line style="stroke:#5E5E5E;stroke-width:1.5625;" x1="477.6042" x2="597.3958" y1="359.5703" y2="359.5703"/><ellipse cx="488.0208" cy="394.9402" fill="#84BE84" rx="3.125" ry="3.125" style="stroke:#038048;stroke-width:1.0416666666666667;"/><text fill="#D8BC00" font-family="Open Sans,Avenir,Nunito,Arial,Helvetica,SansSerif" font-size="11.4583" lengthAdjust="spacing" textLength="82.2917" x="499.4792" y="401.8514">NullResource()</text><line style="stroke:#5E5E5E;stroke-width:1.0416666666666667;" x1="477.6042" x2="493.75" y1="377.7761" y2="377.7761"/><text fill="#D8BC00" font-family="Open Sans,Avenir,Nunito,Arial,Helvetica,SansSerif" font-size="11.4583" lengthAdjust="spacing" textLength="81.25" x="496.875" y="381.5857">(constructors)</text><line style="stroke:#5E5E5E;stroke-width:1.0416666666666667;" x1="581.25" x2="597.3958" y1="377.7761" y2="377.7761"/><!--MD5=[748edca0ce158a3028498566edca97ab]
class VariableMap--><rect fill="#282828" height="48.055" id="VariableMap" rx="8.3333" ry="8.3333" style="stroke:#5E5E5E;stroke-width:1.0416666666666667;" width="116.6667" x="735.4167" y="53.7028"/><rect fill="#1B1B1A" height="31.3883" rx="8.3333" ry="8.3333" style="stroke:#1B1B1A;stroke-width:1.0416666666666667;" width="116.6667" x="735.4167" y="53.7028"/><rect fill="#1B1B1A" height="8.3333" style="stroke:#1B1B1A;stroke-width:1.0416666666666667;" width="116.6667" x="735.4167" y="76.7578"/><rect fill="none" height="48.055" id="VariableMap" rx="8.3333" ry="8.3333" style="stroke:#5E5E5E;stroke-width:1.0416666666666667;" width="116.6667" x="735.4167" y="53.7028"/><ellipse cx="750" cy="69.397" fill="#0066CF" rx="10.4167" ry="10.4167" style="stroke:#0086EF;stroke-width:1.0416666666666667;"/><path d="M751.9104,73.822 Q751.4832,74.0417 751.0132,74.1516 Q750.5432,74.2615 750.0244,74.2615 Q748.1812,74.2615 747.2107,73.0469 Q746.2402,71.8323 746.2402,69.5374 Q746.2402,67.2363 747.2107,66.0217 Q748.1812,64.8071 750.0244,64.8071 Q750.5432,64.8071 751.0193,64.917 Q751.4954,65.0269 751.9104,65.2466 L751.9104,67.2485 Q751.4465,66.8213 751.0101,66.6229 Q750.5737,66.4246 750.1099,66.4246 Q749.1211,66.4246 748.6176,67.2089 Q748.114,67.9932 748.114,69.5374 Q748.114,71.0754 748.6176,71.8597 Q749.1211,72.644 750.1099,72.644 Q750.5737,72.644 751.0101,72.4457 Q751.4465,72.2473 751.9104,71.8201 Z " fill="#000000"/><text fill="#D8BC00" font-family="Open Sans,Avenir,Nunito,Arial,Helvetica,SansSerif" font-size="12.5" font-weight="bold" lengthAdjust="spacing" textLength="79.1667" x="766.6667" y="74.1211">VariableMap</text><line style="stroke:#5E5E5E;stroke-width:1.0416666666666667;" x1="736.4583" x2="851.0417" y1="85.0911" y2="85.0911"/><line style="stroke:#5E5E5E;stroke-width:1.0416666666666667;" x1="736.4583" x2="851.0417" y1="93.4245" y2="93.4245"/><!--MD5=[e9c68631d2db108d1e4f6719668fa91b]
class PropertyMap--><rect codeLine="24" fill="#282828" height="411.7961" id="PropertyMap" rx="8.3333" ry="8.3333" style="stroke:#5E5E5E;stroke-width:1.0416666666666667;" width="316.6667" x="635.4167" y="164.1195"/><rect fill="#1B1B1A" height="31.3883" rx="8.3333" ry="8.3333" style="stroke:#1B1B1A;stroke-width:1.0416666666666667;" width="316.6667" x="635.4167" y="164.1195"/><rect fill="#1B1B1A" height="8.3333" style="stroke:#1B1B1A;stroke-width:1.0416666666666667;" width="316.6667" x="635.4167" y="187.1745"/><rect codeLine="24" fill="none" height="411.7961" id="PropertyMap" rx="8.3333" ry="8.3333" style="stroke:#5E5E5E;stroke-width:1.0416666666666667;" width="316.6667" x="635.4167" y="164.1195"/><ellipse cx="745.8333" cy="179.8136" fill="#0066CF" rx="10.4167" ry="10.4167" style="stroke:#0086EF;stroke-width:1.0416666666666667;"/><path d="M747.7437,184.2387 Q747.3165,184.4584 746.8465,184.5683 Q746.3765,184.6781 745.8577,184.6781 Q744.0145,184.6781 743.044,183.4635 Q742.0736,182.2489 742.0736,179.954 Q742.0736,177.653 743.044,176.4384 Q744.0145,175.2238 745.8577,175.2238 Q746.3765,175.2238 746.8526,175.3337 Q747.3287,175.4435 747.7437,175.6632 L747.7437,177.6652 Q747.2799,177.238 746.8435,177.0396 Q746.4071,176.8412 745.9432,176.8412 Q744.9544,176.8412 744.4509,177.6255 Q743.9473,178.4098 743.9473,179.954 Q743.9473,181.4921 744.4509,182.2764 Q744.9544,183.0607 745.9432,183.0607 Q746.4071,183.0607 746.8435,182.8623 Q747.2799,182.664 747.7437,182.2367 Z " fill="#000000"/><text fill="#D8BC00" font-family="Open Sans,Avenir,Nunito,Arial,Helvetica,SansSerif" font-size="12.5" font-weight="bold" lengthAdjust="spacing" textLength="81.25" x="768.75" y="184.5378">PropertyMap</text><line style="stroke:#5E5E5E;stroke-width:1.5625;" x1="636.4583" x2="951.0417" y1="195.5078" y2="195.5078"/><polygon fill="#FFFF44" points="646.875,225.6694,651.0417,229.836,646.875,234.0027,642.7083,229.836" style="stroke:#B38D22;stroke-width:1.0416666666666667;"/><text fill="#D8BC00" font-family="Open Sans,Avenir,Nunito,Arial,Helvetica,SansSerif" font-size="11.4583" lengthAdjust="spacing" textLength="79.1667" x="658.3333" y="237.7889">PropertyMap()</text><line style="stroke:#5E5E5E;stroke-width:1.0416666666666667;" x1="636.4583" x2="750" y1="213.7136" y2="213.7136"/><text fill="#D8BC00" font-family="Open Sans,Avenir,Nunito,Arial,Helvetica,SansSerif" font-size="11.4583" lengthAdjust="spacing" textLength="81.25" x="753.125" y="217.5232">(constructors)</text><line style="stroke:#5E5E5E;stroke-width:1.0416666666666667;" x1="837.5" x2="951.0417" y1="213.7136" y2="213.7136"/><ellipse cx="646.875" cy="274.5341" fill="#84BE84" rx="3.125" ry="3.125" style="stroke:#038048;stroke-width:1.0416666666666667;"/><text fill="#D8BC00" font-family="Open Sans,Avenir,Nunito,Arial,Helvetica,SansSerif" font-size="11.4583" lengthAdjust="spacing" textLength="175" x="658.3333" y="281.4453">void add(Object, PropertyFilter)</text><ellipse cx="646.875" cy="294.279" fill="#84BE84" rx="3.125" ry="3.125" style="stroke:#038048;stroke-width:1.0416666666666667;"/><text fill="#D8BC00" font-family="Open Sans,Avenir,Nunito,Arial,Helvetica,SansSerif" font-size="11.4583" lengthAdjust="spacing" textLength="147.9167" x="658.3333" y="301.1902">Count asCount(String key)</text><ellipse cx="646.875" cy="314.0238" fill="#84BE84" rx="3.125" ry="3.125" style="stroke:#038048;stroke-width:1.0416666666666667;"/><text fill="#D8BC00" font-family="Open Sans,Avenir,Nunito,Arial,Helvetica,SansSerif" font-size="11.4583" lengthAdjust="spacing" textLength="284.375" x="658.3333" y="320.9351">PropertyMap comment(String key, String comment)</text><ellipse cx="646.875" cy="333.7687" fill="#84BE84" rx="3.125" ry="3.125" style="stroke:#038048;stroke-width:1.0416666666666667;"/><text fill="#D8BC00" font-family="Open Sans,Avenir,Nunito,Arial,Helvetica,SansSerif" font-size="11.4583" lengthAdjust="spacing" textLength="116.6667" x="658.3333" y="340.6799">PropertyMap create()</text><ellipse cx="646.875" cy="353.5136" fill="#84BE84" rx="3.125" ry="3.125" style="stroke:#038048;stroke-width:1.0416666666666667;"/><text fill="#D8BC00" font-family="Open Sans,Avenir,Nunito,Arial,Helvetica,SansSerif" font-size="11.4583" lengthAdjust="spacing" textLength="158.3333" x="658.3333" y="360.4248">PropertyMap load(Resource)</text><ellipse cx="646.875" cy="373.2585" fill="#84BE84" rx="3.125" ry="3.125" style="stroke:#038048;stroke-width:1.0416666666666667;"/><text fill="#D8BC00" font-family="Open Sans,Avenir,Nunito,Arial,Helvetica,SansSerif" font-size="11.4583" lengthAdjust="spacing" textLength="241.6667" x="658.3333" y="380.1697">PropertyMap localized(PackagePath, Locale)</text><ellipse cx="646.875" cy="393.0033" fill="#84BE84" rx="3.125" ry="3.125" style="stroke:#038048;stroke-width:1.0416666666666667;"/><text fill="#D8BC00" font-family="Open Sans,Avenir,Nunito,Arial,Helvetica,SansSerif" font-size="11.4583" lengthAdjust="spacing" textLength="266.6667" x="658.3333" y="399.9146">PropertyMap of(VariableMap&lt;String&gt; variables)</text><line style="stroke:#5E5E5E;stroke-width:1.0416666666666667;" x1="636.4583" x2="759.375" y1="257.37" y2="257.37"/><text fill="#D8BC00" font-family="Open Sans,Avenir,Nunito,Arial,Helvetica,SansSerif" font-size="11.4583" lengthAdjust="spacing" textLength="62.5" x="762.5" y="261.1796">(collection)</text><line style="stroke:#5E5E5E;stroke-width:1.0416666666666667;" x1="828.125" x2="951.0417" y1="257.37" y2="257.37"/><ellipse cx="646.875" cy="436.6597" fill="#84BE84" rx="3.125" ry="3.125" style="stroke:#038048;stroke-width:1.0416666666666667;"/><text fill="#D8BC00" font-family="Open Sans,Avenir,Nunito,Arial,Helvetica,SansSerif" font-size="11.4583" lengthAdjust="spacing" textLength="157.2917" x="658.3333" y="443.571">double asDouble(String key)</text><ellipse cx="646.875" cy="456.4046" fill="#84BE84" rx="3.125" ry="3.125" style="stroke:#038048;stroke-width:1.0416666666666667;"/><text fill="#D8BC00" font-family="Open Sans,Avenir,Nunito,Arial,Helvetica,SansSerif" font-size="11.4583" lengthAdjust="spacing" textLength="108.3333" x="658.3333" y="463.3158">int asInt(String key)</text><ellipse cx="646.875" cy="476.1495" fill="#84BE84" rx="3.125" ry="3.125" style="stroke:#038048;stroke-width:1.0416666666666667;"/><text fill="#D8BC00" font-family="Open Sans,Avenir,Nunito,Arial,Helvetica,SansSerif" font-size="11.4583" lengthAdjust="spacing" textLength="132.2917" x="658.3333" y="483.0607">long asLong(String key)</text><ellipse cx="646.875" cy="495.8944" fill="#84BE84" rx="3.125" ry="3.125" style="stroke:#038048;stroke-width:1.0416666666666667;"/><text fill="#D8BC00" font-family="Open Sans,Avenir,Nunito,Arial,Helvetica,SansSerif" font-size="11.4583" lengthAdjust="spacing" textLength="229.1667" x="658.3333" y="502.8056">Object asObject(Listener, Class&lt;?&gt; type)</text><line style="stroke:#5E5E5E;stroke-width:1.0416666666666667;" x1="636.4583" x2="755.2083" y1="419.4956" y2="419.4956"/><text fill="#D8BC00" font-family="Open Sans,Avenir,Nunito,Arial,Helvetica,SansSerif" font-size="11.4583" lengthAdjust="spacing" textLength="70.8333" x="758.3333" y="423.3053">(conversion)</text><line style="stroke:#5E5E5E;stroke-width:1.0416666666666667;" x1="832.2917" x2="951.0417" y1="419.4956" y2="419.4956"/><ellipse cx="646.875" cy="539.5508" fill="#84BE84" rx="3.125" ry="3.125" style="stroke:#038048;stroke-width:1.0416666666666667;"/><text fill="#D8BC00" font-family="Open Sans,Avenir,Nunito,Arial,Helvetica,SansSerif" font-size="11.4583" lengthAdjust="spacing" textLength="244.7917" x="658.3333" y="546.462">void save(String heading, WritableResource)</text><ellipse cx="646.875" cy="559.2957" fill="#84BE84" rx="3.125" ry="3.125" style="stroke:#038048;stroke-width:1.0416666666666667;"/><text fill="#D8BC00" font-family="Open Sans,Avenir,Nunito,Arial,Helvetica,SansSerif" font-size="11.4583" lengthAdjust="spacing" textLength="157.2917" x="658.3333" y="566.2069">void save(WritableResource)</text><line style="stroke:#5E5E5E;stroke-width:1.0416666666666667;" x1="636.4583" x2="772.9167" y1="522.3867" y2="522.3867"/><text fill="#D8BC00" font-family="Open Sans,Avenir,Nunito,Arial,Helvetica,SansSerif" font-size="11.4583" lengthAdjust="spacing" textLength="35.4167" x="776.0417" y="526.1963">(write)</text><line style="stroke:#5E5E5E;stroke-width:1.0416666666666667;" x1="814.5833" x2="951.0417" y1="522.3867" y2="522.3867"/><!--MD5=[d8b7091fc71207719cb1ba2b583610df]
class ResourceSection--><rect codeLine="47" fill="#282828" height="83.3781" id="ResourceSection" rx="8.3333" ry="8.3333" style="stroke:#5E5E5E;stroke-width:1.0416666666666667;" width="247.9167" x="7.2917" y="328.182"/><rect fill="#1B1B1A" height="31.3883" rx="8.3333" ry="8.3333" style="stroke:#1B1B1A;stroke-width:1.0416666666666667;" width="247.9167" x="7.2917" y="328.182"/><rect fill="#1B1B1A" height="8.3333" style="stroke:#1B1B1A;stroke-width:1.0416666666666667;" width="247.9167" x="7.2917" y="351.237"/><rect codeLine="47" fill="none" height="83.3781" id="ResourceSection" rx="8.3333" ry="8.3333" style="stroke:#5E5E5E;stroke-width:1.0416666666666667;" width="247.9167" x="7.2917" y="328.182"/><ellipse cx="71.3542" cy="343.8761" fill="#0066CF" rx="10.4167" ry="10.4167" style="stroke:#0086EF;stroke-width:1.0416666666666667;"/><path d="M73.2646,348.3012 Q72.8373,348.5209 72.3674,348.6308 Q71.8974,348.7406 71.3786,348.7406 Q69.5353,348.7406 68.5649,347.526 Q67.5944,346.3114 67.5944,344.0165 Q67.5944,341.7155 68.5649,340.5009 Q69.5353,339.2863 71.3786,339.2863 Q71.8974,339.2863 72.3735,339.3962 Q72.8495,339.506 73.2646,339.7257 L73.2646,341.7277 Q72.8007,341.3005 72.3643,341.1021 Q71.9279,340.9037 71.464,340.9037 Q70.4753,340.9037 69.9717,341.688 Q69.4682,342.4723 69.4682,344.0165 Q69.4682,345.5546 69.9717,346.3389 Q70.4753,347.1232 71.464,347.1232 Q71.9279,347.1232 72.3643,346.9248 Q72.8007,346.7265 73.2646,346.2992 Z " fill="#000000"/><text fill="#D8BC00" font-family="Open Sans,Avenir,Nunito,Arial,Helvetica,SansSerif" font-size="12.5" font-weight="bold" lengthAdjust="spacing" textLength="105.2083" x="94.2708" y="348.6003">ResourceSection</text><line style="stroke:#5E5E5E;stroke-width:1.5625;" x1="8.3333" x2="254.1667" y1="359.5703" y2="359.5703"/><ellipse cx="18.75" cy="394.9402" fill="#84BE84" rx="3.125" ry="3.125" style="stroke:#038048;stroke-width:1.0416666666666667;"/><text fill="#D8BC00" font-family="Open Sans,Avenir,Nunito,Arial,Helvetica,SansSerif" font-size="11.4583" lengthAdjust="spacing" textLength="215.625" x="30.2083" y="401.8514">ResourceSection(Resource, long, long)</text><line style="stroke:#5E5E5E;stroke-width:1.0416666666666667;" x1="8.3333" x2="87.5" y1="377.7761" y2="377.7761"/><text fill="#D8BC00" font-family="Open Sans,Avenir,Nunito,Arial,Helvetica,SansSerif" font-size="11.4583" lengthAdjust="spacing" textLength="81.25" x="90.625" y="381.5857">(constructors)</text><line style="stroke:#5E5E5E;stroke-width:1.0416666666666667;" x1="175" x2="254.1667" y1="377.7761" y2="377.7761"/><!--MD5=[9d0552d03cbb8d02f283922a4fb71afd]
reverse link BaseWritableResource to BitArrayResource--><path codeLine="9" d="M438.25,122.1507 C421.8438,177.859 393.6146,273.734 377.6146,328.0882 " fill="none" id="BaseWritableResource-backto-BitArrayResource" style="stroke:#545454;stroke-width:1.5625;"/><polygon fill="none" points="431.3125,119.8799,444.1979,101.9528,445.3021,123.9945,431.3125,119.8799" style="stroke:#545454;stroke-width:1.5625;"/><!--MD5=[9ccf6f1b29adfc037ddc2e002e327a40]
reverse link BaseWritableResource to NullResource--><path codeLine="16" d="M463.9896,122.1507 C480.5938,177.859 509.1667,273.734 525.3646,328.0882 " fill="none" id="BaseWritableResource-backto-NullResource" style="stroke:#545454;stroke-width:1.5625;"/><polygon fill="none" points="456.9375,124.0049,457.9688,101.9528,470.9063,119.8382,456.9375,124.0049" style="stroke:#545454;stroke-width:1.5625;"/><!--MD5=[240b308583738c0632992609ec1f6e90]
reverse link VariableMap to PropertyMap--><path codeLine="23" d="M793.75,123.2028 C793.75,135.2132 793.75,149.0257 793.75,163.859 " fill="none" id="VariableMap-backto-PropertyMap" style="stroke:#545454;stroke-width:1.5625;"/><polygon fill="none" points="786.4583,122.7861,793.75,101.9528,801.0417,122.7861,786.4583,122.7861" style="stroke:#545454;stroke-width:1.5625;"/><!--MD5=[7acbd6a81c9084c0aa01c5e4ab5d84a9]
reverse link BaseReadableResource to ResourceSection--><path codeLine="46" d="M131.25,122.8903 C131.25,178.7028 131.25,273.9736 131.25,328.0882 " fill="none" id="BaseReadableResource-backto-ResourceSection" style="stroke:#545454;stroke-width:1.5625;"/><polygon fill="none" points="123.9583,122.7861,131.25,101.9528,138.5417,122.7861,123.9583,122.7861" style="stroke:#545454;stroke-width:1.5625;"/><!--MD5=[ecb0f0f2ade8c664d46225cd714aa249]
@startuml

    !include ../lexakai/lexakai.theme
    
    title "com.telenav.kivakit.core.resource.resources.other"
    
    abstract BaseReadableResource
    abstract BaseWritableResource
    
    BaseWritableResource <|- - BitArrayResource
    class BitArrayResource
    {
        - -(constructors)- -
        +BitArrayResource()
    }
    
    BaseWritableResource <|- - NullResource
    class NullResource
    {
        - -(constructors)- -
        +NullResource()
    }
    
    VariableMap <|- - PropertyMap
    class PropertyMap
    {
        - -(constructors)- -
        #PropertyMap()
        - -(collection)- -
        +void add(Object, PropertyFilter)
        +Count asCount(String key)
        +PropertyMap comment(String key, String comment)
        +PropertyMap create()
        +PropertyMap load(Resource)
        +PropertyMap localized(PackagePath, Locale)
        +PropertyMap of(VariableMap<String> variables)
        - -(conversion)- -
        +double asDouble(String key)
        +int asInt(String key)
        +long asLong(String key)
        +Object asObject(Listener, Class<?> type)
        - -(write)- -
        +void save(String heading, WritableResource)
        +void save(WritableResource)
    }
    
    BaseReadableResource <|- - ResourceSection
    class ResourceSection
    {
        - -(constructors)- -
        +ResourceSection(Resource, long, long)
    }
    
@enduml

@startuml









skinparam backgroundColor #333333






skinparam  {
    defaultFontName   "Open Sans,Avenir,Nunito,Arial,Helvetica,SansSerif"
    defaultFontSize   12
    defaultTextAlignment left
    shadowing false
    RoundCorner 10
    TitleFontSize 18
}

skinparam defaultFontName       "Open Sans,Avenir,Nunito,Arial,Helvetica,SansSerif"
skinparam defaultFontSize       12
skinparam dpi                   100
skinparam shadowing             false
skinparam roundcorner           16
skinparam ParticipantPadding    40
skinparam BoxPadding            40
skinparam Padding               3
skinparam ArrowColor            #545454
skinparam stereotype {
    CBackgroundColor #0066cf
    CBorderColor #0086ef
    ABackgroundColor #C8Ac00
    ABorderColor #D8Bc00
    IBackgroundColor #008400
    IBorderColor #239c23
    EBackgroundColor #cf6300
    EBorderColor #ef8300
    NBackgroundColor #3380b9
    NBorderColor #004d86
}
skinparam title {
	FontColor	                 #c0c0c0
 	BorderColor                  #545454
	FontSize	    	         20
	BorderRoundCorner            16
	BorderThickness 	         1
	BackgroundColor              #48494b
}


skinparam legend {
	BackgroundColor #303030
	BorderColor #404040
	FontColor #a0a0a0
}

	skinparam swimlane {
	BorderColor #5e5e5e
	BorderThickness 2
	TitleBackgroundColor  #6d6d6d-#484848
	TitleFontColor #303030
}

skinparam activity {
		FontColor #C8Ac00
	BorderColor #333333
	BackgroundColor #333333-#333333
	BarColor #00FF00
	StartColor #0060a8
	EndColor #0060a8
	DiamondBackgroundColor #6d6d6d-#3a3a3a
  	DiamondBorderColor #3a3a3a
  	DiamondFontColor #fefefe
}


skinparam participant {
		FontColor #C8Ac00
	BorderColor #333333
	BackgroundColor #333333-#333333
	ParticipantBorderThickness 2
}


skinparam actor {
		FontColor #C8Ac00
	BorderColor #333333
	BackgroundColor #333333-#333333
}


skinparam arrow {
	Thickness 1.5
	Color #545454
	FontColor #a0a0a0
    FontStyle bold
    MessageAlignment center
}



skinparam sequence {
	BorderColor #303030
	TitleFontColor #303030
	BackgroundColor #333333
	StartColor #303030
	EndColor #303030
	BoxBackgroundColor #333333
	BoxBorderColor #484848
	BoxFontColor #484848
	LifeLineBorderColor #484848
	LifeLineBorderThickness 2
	LifeLineBackgroundColor #3a3a3a
	GroupBorderColor #484848
	GroupFontColor #484848
	GroupHeaderFontColor #0060a8
	GroupBackgroundColor #484848
	GroupHeaderBackgroundColor #333333
	DividerBackgroundColor #484848
    DividerBorderColor #484848
    DividerBorderThickness 2
    DividerFontColor #D8Bc00
	ReferenceBackgroundColor #333333
	ReferenceBorderColor #484848
	ReferenceFontColor #fefefe
	ReferenceHeaderBackgroundColor #484848
}


skinparam partition {
	BorderColor #303030
	FontColor #333333
	BackgroundColor #333333
}


skinparam collections {
		FontColor #C8Ac00
	BorderColor #333333
	BackgroundColor #333333-#333333
}


skinparam control {
		FontColor #C8Ac00
	BorderColor #333333
	BackgroundColor #333333-#333333
}


skinparam entity {
		FontColor #C8Ac00
	BorderColor #333333
	BackgroundColor #333333-#333333
}


skinparam boundary {
		FontColor #C8Ac00
	BorderColor #333333
	BackgroundColor #333333-#333333
}


skinparam agent {
	BackgroundColor #ff8000
	BorderColor #ff9933
	FontColor #484848
}


skinparam note {
	BorderThickness 1
	BackgroundColor #1b1b1a
	BorderColor #5e5e5e
	FontSize 11
	FontColor #a0a0a0
}


skinparam artifact {
	BorderThickness 10
	BorderColor #5e5e5e
	BackgroundColor #1b1b1a
	FontColor #D8Bc00
}


skinparam component {
		FontColor #C8Ac00
	BorderColor #333333
	BackgroundColor #333333-#333333
}


skinparam interface {
	BackgroundColor  #008400
	BorderColor  #007F00
	FontColor #484848
}


skinparam storage {
	BackgroundColor #ff8000
  	BorderColor #cc6600
	FontColor #222222
}


skinparam node {
	BackgroundColor #333333
	BorderColor #333333
	FontColor #C8Ac00
}


skinparam cloud {
	BackgroundColor #484848-black
	BorderColor #484848
	FontColor #D8Bc00
}


skinparam database {
		FontColor #C8Ac00
	BorderColor #333333
	BackgroundColor #333333-#333333
	BackgroundColor  #333333
}


skinparam class {
		FontColor #C8Ac00
	BorderColor #333333
	BackgroundColor #333333-#333333
	HeaderBackgroundColor #1b1b1a
    BackgroundColor #282828
    BorderColor #5e5e5e
 	StereotypeFontColor #a0a0a0
    StereotypeFontStyle bold
	BorderThickness 1
	AttributeFontColor #D8Bc00
	AttributeFontSize 11
    FontColor #D8Bc00
    FontStyle bold
}


skinparam object {
		FontColor #C8Ac00
	BorderColor #333333
	BackgroundColor #333333-#333333
	StereotypeFontColor #484848
	BorderThickness 1
	AttributeFontColor #fefefe
	AttributeFontSize 11
}


skinparam usecase {
		FontColor #C8Ac00
	BorderColor #333333
	BackgroundColor #333333-#333333
	BorderThickness 2
	StereotypeFontColor #303030
}


skinparam rectangle {
		FontColor #C8Ac00
	BorderColor #333333
	BackgroundColor #333333-#333333
	BackgroundColor #333333
	BorderThickness 2
	StereotypeFontColor #303030
}


skinparam package {
		FontColor #C8Ac00
	BorderColor #333333
	BackgroundColor #333333-#333333
	BackgroundColor #333333
	BorderThickness 2
}


skinparam folder {
	BackgroundColor #6d6d6d
  	BorderColor #ff8000
	FontColor #ff8000
	BorderThickness 2
}


skinparam frame {
	BackgroundColor #6d6d6d
  	BorderColor #0060a8
	FontColor #0060a8
	BorderThickness 2
}


skinparam state {
		FontColor #C8Ac00
	BorderColor #333333
	BackgroundColor #333333-#333333
	StartColor #0060a8
	EndColor #0060a8
	AttributeFontColor #fefefe
	AttributeFontSize 11
}


skinparam queue {
		FontColor #C8Ac00
	BorderColor #333333
	BackgroundColor #333333-#333333
}


skinparam card {
	BackgroundColor #0060a8
	BorderColor #004d86
	FontColor $INFO_TEXT
}


skinparam file {
	BackgroundColor #6d6d6d-#484848
	BorderColor #0060a8
	FontColor #fefefe
}


skinparam stack {
		FontColor #C8Ac00
	BorderColor #333333
	BackgroundColor #333333-#333333
}

    
    title "com.telenav.kivakit.core.resource.resources.other"
    
    abstract BaseReadableResource
    abstract BaseWritableResource
    
    BaseWritableResource <|- - BitArrayResource
    class BitArrayResource
    {
        - -(constructors)- -
        +BitArrayResource()
    }
    
    BaseWritableResource <|- - NullResource
    class NullResource
    {
        - -(constructors)- -
        +NullResource()
    }
    
    VariableMap <|- - PropertyMap
    class PropertyMap
    {
        - -(constructors)- -
        #PropertyMap()
        - -(collection)- -
        +void add(Object, PropertyFilter)
        +Count asCount(String key)
        +PropertyMap comment(String key, String comment)
        +PropertyMap create()
        +PropertyMap load(Resource)
        +PropertyMap localized(PackagePath, Locale)
        +PropertyMap of(VariableMap<String> variables)
        - -(conversion)- -
        +double asDouble(String key)
        +int asInt(String key)
        +long asLong(String key)
        +Object asObject(Listener, Class<?> type)
        - -(write)- -
        +void save(String heading, WritableResource)
        +void save(WritableResource)
    }
    
    BaseReadableResource <|- - ResourceSection
    class ResourceSection
    {
        - -(constructors)- -
        +ResourceSection(Resource, long, long)
    }
    
@enduml

PlantUML version 1.2021.01(Tue Feb 02 00:55:08 MST 2021)
(GPL source distribution)
Java Runtime: Java(TM) SE Runtime Environment
JVM: Java HotSpot(TM) 64-Bit Server VM
Default Encoding: UTF-8
Language: en
Country: US
--></g></svg>