<?xml version="1.0" encoding="UTF-8" standalone="no"?><svg xmlns="http://www.w3.org/2000/svg" xmlns:xlink="http://www.w3.org/1999/xlink" contentScriptType="application/ecmascript" contentStyleType="text/css" height="337.5px" preserveAspectRatio="none" style="width:1765px;height:337px;background:#333333;" version="1.1" viewBox="0 0 1765 337" width="1765.625px" zoomAndPan="magnify"><defs/><g><rect fill="#48494B" height="41.2028" rx="8.3333" ry="8.3333" style="stroke:#545454;stroke-width:1.0416666666666667;" width="507.2917" x="621.875" y="2.0833"/><text fill="#C0C0C0" font-family="Open Sans,Avenir,Nunito,Arial,Helvetica,SansSerif" font-size="20.8333" lengthAdjust="spacing" textLength="484.375" x="633.3333" y="30.5583">com.telenav.kivakit.collections.iteration.iterators</text><!--MD5=[6d914cbc3c068362115e7a36db2eae5b]
class BaseIterator--><rect codeLine="6" fill="#282828" height="48.055" id="BaseIterator" rx="8.3333" ry="8.3333" style="stroke:#5E5E5E;stroke-width:1.0416666666666667;" width="115.625" x="477.0833" y="53.7028"/><rect fill="#1B1B1A" height="31.3883" rx="8.3333" ry="8.3333" style="stroke:#1B1B1A;stroke-width:1.0416666666666667;" width="115.625" x="477.0833" y="53.7028"/><rect fill="#1B1B1A" height="8.3333" style="stroke:#1B1B1A;stroke-width:1.0416666666666667;" width="115.625" x="477.0833" y="76.7578"/><rect codeLine="6" fill="none" height="48.055" id="BaseIterator" rx="8.3333" ry="8.3333" style="stroke:#5E5E5E;stroke-width:1.0416666666666667;" width="115.625" x="477.0833" y="53.7028"/><ellipse cx="491.6667" cy="69.397" fill="#C8AC00" rx="10.4167" ry="10.4167" style="stroke:#D8BC00;stroke-width:1.0416666666666667;"/><path d="M491.7806,66.099 L490.9322,69.8283 L492.6351,69.8283 Z M490.682,64.4511 L492.8853,64.4511 L495.3451,73.5636 L493.5445,73.5636 L492.983,71.3114 L490.5721,71.3114 L490.0228,73.5636 L488.2222,73.5636 Z " fill="#000000"/><text fill="#D8BC00" font-family="Open Sans,Avenir,Nunito,Arial,Helvetica,SansSerif" font-size="12.5" font-style="italic" font-weight="bold" lengthAdjust="spacing" textLength="78.125" x="508.3333" y="74.1211">BaseIterator</text><line style="stroke:#5E5E5E;stroke-width:1.0416666666666667;" x1="478.125" x2="591.6667" y1="85.0911" y2="85.0911"/><line style="stroke:#5E5E5E;stroke-width:1.0416666666666667;" x1="478.125" x2="591.6667" y1="93.4245" y2="93.4245"/><!--MD5=[023ecf6702e3ca2ce47ae747eafb20f1]
class Iterator--><rect codeLine="8" fill="#282828" height="48.055" id="Iterator" rx="8.3333" ry="8.3333" style="stroke:#5E5E5E;stroke-width:1.0416666666666667;" width="85.4167" x="1251.5625" y="53.7028"/><rect fill="#1B1B1A" height="31.3883" rx="8.3333" ry="8.3333" style="stroke:#1B1B1A;stroke-width:1.0416666666666667;" width="85.4167" x="1251.5625" y="53.7028"/><rect fill="#1B1B1A" height="8.3333" style="stroke:#1B1B1A;stroke-width:1.0416666666666667;" width="85.4167" x="1251.5625" y="76.7578"/><rect codeLine="8" fill="none" height="48.055" id="Iterator" rx="8.3333" ry="8.3333" style="stroke:#5E5E5E;stroke-width:1.0416666666666667;" width="85.4167" x="1251.5625" y="53.7028"/><ellipse cx="1266.1458" cy="69.397" fill="#008400" rx="10.4167" ry="10.4167" style="stroke:#239C23;stroke-width:1.0416666666666667;"/><path d="M1263.029,66.5588 L1263.029,64.9719 L1268.455,64.9719 L1268.455,66.5588 L1266.6423,66.5588 L1266.6423,72.4976 L1268.455,72.4976 L1268.455,74.0845 L1263.029,74.0845 L1263.029,72.4976 L1264.8417,72.4976 L1264.8417,66.5588 Z " fill="#000000"/><text fill="#D8BC00" font-family="Open Sans,Avenir,Nunito,Arial,Helvetica,SansSerif" font-size="12.5" font-style="italic" font-weight="bold" lengthAdjust="spacing" textLength="47.9167" x="1282.8125" y="74.1211">Iterator</text><line style="stroke:#5E5E5E;stroke-width:1.0416666666666667;" x1="1252.6042" x2="1335.9375" y1="85.0911" y2="85.0911"/><line style="stroke:#5E5E5E;stroke-width:1.0416666666666667;" x1="1252.6042" x2="1335.9375" y1="93.4245" y2="93.4245"/><!--MD5=[82ae059750b71d2f2ea5c2d13a8dbeca]
class CompoundIterator--><rect codeLine="11" fill="#282828" height="166.5243" id="CompoundIterator" rx="8.3333" ry="8.3333" style="stroke:#5E5E5E;stroke-width:1.0416666666666667;" width="359.375" x="7.2917" y="164.1195"/><rect fill="#1B1B1A" height="31.3883" rx="8.3333" ry="8.3333" style="stroke:#1B1B1A;stroke-width:1.0416666666666667;" width="359.375" x="7.2917" y="164.1195"/><rect fill="#1B1B1A" height="8.3333" style="stroke:#1B1B1A;stroke-width:1.0416666666666667;" width="359.375" x="7.2917" y="187.1745"/><rect codeLine="11" fill="none" height="166.5243" id="CompoundIterator" rx="8.3333" ry="8.3333" style="stroke:#5E5E5E;stroke-width:1.0416666666666667;" width="359.375" x="7.2917" y="164.1195"/><ellipse cx="88.5417" cy="179.8136" fill="#0066CF" rx="10.4167" ry="10.4167" style="stroke:#0086EF;stroke-width:1.0416666666666667;"/><path d="M90.4521,184.2387 Q90.0248,184.4584 89.5549,184.5683 Q89.0849,184.6781 88.5661,184.6781 Q86.7228,184.6781 85.7524,183.4635 Q84.7819,182.2489 84.7819,179.954 Q84.7819,177.653 85.7524,176.4384 Q86.7228,175.2238 88.5661,175.2238 Q89.0849,175.2238 89.561,175.3337 Q90.037,175.4435 90.4521,175.6632 L90.4521,177.6652 Q89.9882,177.238 89.5518,177.0396 Q89.1154,176.8412 88.6515,176.8412 Q87.6628,176.8412 87.1592,177.6255 Q86.6557,178.4098 86.6557,179.954 Q86.6557,181.4921 87.1592,182.2764 Q87.6628,183.0607 88.6515,183.0607 Q89.1154,183.0607 89.5518,182.8623 Q89.9882,182.664 90.4521,182.2367 Z " fill="#000000"/><text fill="#D8BC00" font-family="Open Sans,Avenir,Nunito,Arial,Helvetica,SansSerif" font-size="12.5" font-weight="bold" lengthAdjust="spacing" textLength="119.7917" x="111.4583" y="184.5378">CompoundIterator</text><rect fill="#333333" height="23.055" style="stroke:#A0A0A0;stroke-width:1.0416666666666667;stroke-dasharray:2.0,2.0;" width="60.4167" x="309.375" y="160.9945"/><text fill="#A0A0A0" font-family="Open Sans,Avenir,Nunito,Arial,Helvetica,SansSerif" font-size="12.5" font-weight="bold" lengthAdjust="spacing" textLength="52.0833" x="313.5417" y="177.2461">Element</text><line style="stroke:#5E5E5E;stroke-width:1.5625;" x1="8.3333" x2="365.625" y1="195.5078" y2="195.5078"/><ellipse cx="18.75" cy="230.8777" fill="#84BE84" rx="3.125" ry="3.125" style="stroke:#038048;stroke-width:1.0416666666666667;"/><text fill="#D8BC00" font-family="Open Sans,Avenir,Nunito,Arial,Helvetica,SansSerif" font-size="11.4583" lengthAdjust="spacing" textLength="112.5" x="30.2083" y="237.7889">CompoundIterator()</text><ellipse cx="18.75" cy="250.6226" fill="#84BE84" rx="3.125" ry="3.125" style="stroke:#038048;stroke-width:1.0416666666666667;"/><text fill="#D8BC00" font-family="Open Sans,Avenir,Nunito,Arial,Helvetica,SansSerif" font-size="11.4583" lengthAdjust="spacing" textLength="327.0833" x="30.2083" y="257.5338">CompoundIterator(Iterator&lt;Element&gt;, Iterator&lt;Element&gt;)</text><line style="stroke:#5E5E5E;stroke-width:1.0416666666666667;" x1="8.3333" x2="143.2292" y1="213.7136" y2="213.7136"/><text fill="#D8BC00" font-family="Open Sans,Avenir,Nunito,Arial,Helvetica,SansSerif" font-size="11.4583" lengthAdjust="spacing" textLength="81.25" x="146.3542" y="217.5232">(constructors)</text><line style="stroke:#5E5E5E;stroke-width:1.0416666666666667;" x1="230.7292" x2="365.625" y1="213.7136" y2="213.7136"/><ellipse cx="18.75" cy="294.279" fill="#84BE84" rx="3.125" ry="3.125" style="stroke:#038048;stroke-width:1.0416666666666667;"/><text fill="#D8BC00" font-family="Open Sans,Avenir,Nunito,Arial,Helvetica,SansSerif" font-size="11.4583" lengthAdjust="spacing" textLength="160.4167" x="30.2083" y="301.1902">void add(Iterator&lt;Element&gt;)</text><ellipse cx="18.75" cy="314.0238" fill="#84BE84" rx="3.125" ry="3.125" style="stroke:#038048;stroke-width:1.0416666666666667;"/><text fill="#D8BC00" font-family="Open Sans,Avenir,Nunito,Arial,Helvetica,SansSerif" font-size="11.4583" lengthAdjust="spacing" textLength="301.0417" x="30.2083" y="320.9351">void addAll(Collection&lt;Iterator&lt;Element&gt;&gt; iterators)</text><line style="stroke:#5E5E5E;stroke-width:1.0416666666666667;" x1="8.3333" x2="152.6042" y1="277.1149" y2="277.1149"/><text fill="#D8BC00" font-family="Open Sans,Avenir,Nunito,Arial,Helvetica,SansSerif" font-size="11.4583" lengthAdjust="spacing" textLength="62.5" x="155.7292" y="280.9245">(collection)</text><line style="stroke:#5E5E5E;stroke-width:1.0416666666666667;" x1="221.3542" x2="365.625" y1="277.1149" y2="277.1149"/><!--MD5=[8dafd24e4f27dd2ee7b518c74e31518c]
class DeduplicatingIterator--><rect codeLine="22" fill="#282828" height="83.3781" id="DeduplicatingIterator" rx="8.3333" ry="8.3333" style="stroke:#5E5E5E;stroke-width:1.0416666666666667;" width="263.5417" x="403.125" y="205.7861"/><rect fill="#1B1B1A" height="31.3883" rx="8.3333" ry="8.3333" style="stroke:#1B1B1A;stroke-width:1.0416666666666667;" width="263.5417" x="403.125" y="205.7861"/><rect fill="#1B1B1A" height="8.3333" style="stroke:#1B1B1A;stroke-width:1.0416666666666667;" width="263.5417" x="403.125" y="228.8411"/><rect codeLine="22" fill="none" height="83.3781" id="DeduplicatingIterator" rx="8.3333" ry="8.3333" style="stroke:#5E5E5E;stroke-width:1.0416666666666667;" width="263.5417" x="403.125" y="205.7861"/><ellipse cx="428.9583" cy="221.4803" fill="#0066CF" rx="10.4167" ry="10.4167" style="stroke:#0086EF;stroke-width:1.0416666666666667;"/><path d="M430.8687,225.9054 Q430.4415,226.1251 429.9715,226.2349 Q429.5015,226.3448 428.9827,226.3448 Q427.1395,226.3448 426.169,225.1302 Q425.1986,223.9156 425.1986,221.6207 Q425.1986,219.3197 426.169,218.1051 Q427.1395,216.8905 428.9827,216.8905 Q429.5015,216.8905 429.9776,217.0003 Q430.4537,217.1102 430.8687,217.3299 L430.8687,219.3319 Q430.4049,218.9046 429.9685,218.7063 Q429.5321,218.5079 429.0682,218.5079 Q428.0794,218.5079 427.5759,219.2922 Q427.0723,220.0765 427.0723,221.6207 Q427.0723,223.1588 427.5759,223.9431 Q428.0794,224.7274 429.0682,224.7274 Q429.5321,224.7274 429.9685,224.529 Q430.4049,224.3306 430.8687,223.9034 Z " fill="#000000"/><text fill="#D8BC00" font-family="Open Sans,Avenir,Nunito,Arial,Helvetica,SansSerif" font-size="12.5" font-weight="bold" lengthAdjust="spacing" textLength="138.5417" x="448.125" y="226.2044">DeduplicatingIterator</text><rect fill="#333333" height="23.055" style="stroke:#A0A0A0;stroke-width:1.0416666666666667;stroke-dasharray:2.0,2.0;" width="60.4167" x="609.375" y="202.6611"/><text fill="#A0A0A0" font-family="Open Sans,Avenir,Nunito,Arial,Helvetica,SansSerif" font-size="12.5" font-weight="bold" lengthAdjust="spacing" textLength="52.0833" x="613.5417" y="218.9128">Element</text><line style="stroke:#5E5E5E;stroke-width:1.5625;" x1="404.1667" x2="665.625" y1="237.1745" y2="237.1745"/><ellipse cx="414.5833" cy="272.5444" fill="#84BE84" rx="3.125" ry="3.125" style="stroke:#038048;stroke-width:1.0416666666666667;"/><text fill="#D8BC00" font-family="Open Sans,Avenir,Nunito,Arial,Helvetica,SansSerif" font-size="11.4583" lengthAdjust="spacing" textLength="231.25" x="426.0417" y="279.4556">DeduplicatingIterator(Iterator&lt;Element&gt;)</text><line style="stroke:#5E5E5E;stroke-width:1.0416666666666667;" x1="404.1667" x2="491.1458" y1="255.3802" y2="255.3802"/><text fill="#D8BC00" font-family="Open Sans,Avenir,Nunito,Arial,Helvetica,SansSerif" font-size="11.4583" lengthAdjust="spacing" textLength="81.25" x="494.2708" y="259.1899">(constructors)</text><line style="stroke:#5E5E5E;stroke-width:1.0416666666666667;" x1="578.6458" x2="665.625" y1="255.3802" y2="255.3802"/><!--MD5=[faee9abc5170ad77d93f31c7448afcf5]
class EmptyIterator--><rect codeLine="29" fill="#282828" height="48.055" id="EmptyIterator" rx="8.3333" ry="8.3333" style="stroke:#5E5E5E;stroke-width:1.0416666666666667;" width="188.5417" x="1082.2917" y="223.4945"/><rect fill="#1B1B1A" height="31.3883" rx="8.3333" ry="8.3333" style="stroke:#1B1B1A;stroke-width:1.0416666666666667;" width="188.5417" x="1082.2917" y="223.4945"/><rect fill="#1B1B1A" height="8.3333" style="stroke:#1B1B1A;stroke-width:1.0416666666666667;" width="188.5417" x="1082.2917" y="246.5495"/><rect codeLine="29" fill="none" height="48.055" id="EmptyIterator" rx="8.3333" ry="8.3333" style="stroke:#5E5E5E;stroke-width:1.0416666666666667;" width="188.5417" x="1082.2917" y="223.4945"/><ellipse cx="1096.875" cy="239.1886" fill="#0066CF" rx="10.4167" ry="10.4167" style="stroke:#0086EF;stroke-width:1.0416666666666667;"/><path d="M1098.7854,243.6137 Q1098.3582,243.8334 1097.8882,243.9433 Q1097.4182,244.0531 1096.8994,244.0531 Q1095.0562,244.0531 1094.0857,242.8385 Q1093.1152,241.6239 1093.1152,239.329 Q1093.1152,237.028 1094.0857,235.8134 Q1095.0562,234.5988 1096.8994,234.5988 Q1097.4182,234.5988 1097.8943,234.7087 Q1098.3704,234.8185 1098.7854,235.0382 L1098.7854,237.0402 Q1098.3215,236.613 1097.8851,236.4146 Q1097.4487,236.2162 1096.9849,236.2162 Q1095.9961,236.2162 1095.4926,237.0005 Q1094.989,237.7848 1094.989,239.329 Q1094.989,240.8671 1095.4926,241.6514 Q1095.9961,242.4357 1096.9849,242.4357 Q1097.4487,242.4357 1097.8851,242.2373 Q1098.3215,242.039 1098.7854,241.6117 Z " fill="#000000"/><text fill="#D8BC00" font-family="Open Sans,Avenir,Nunito,Arial,Helvetica,SansSerif" font-size="12.5" font-weight="bold" lengthAdjust="spacing" textLength="88.5417" x="1113.5417" y="243.9128">EmptyIterator</text><rect fill="#333333" height="23.055" style="stroke:#A0A0A0;stroke-width:1.0416666666666667;stroke-dasharray:2.0,2.0;" width="60.4167" x="1213.5417" y="220.3695"/><text fill="#A0A0A0" font-family="Open Sans,Avenir,Nunito,Arial,Helvetica,SansSerif" font-size="12.5" font-weight="bold" lengthAdjust="spacing" textLength="52.0833" x="1217.7083" y="236.6211">Element</text><line style="stroke:#5E5E5E;stroke-width:1.0416666666666667;" x1="1083.3333" x2="1269.7917" y1="254.8828" y2="254.8828"/><line style="stroke:#5E5E5E;stroke-width:1.0416666666666667;" x1="1083.3333" x2="1269.7917" y1="263.2161" y2="263.2161"/><!--MD5=[dc74f3fa6aa9591e758aef20fac8d1c2]
class FilteredIterator--><rect codeLine="34" fill="#282828" height="83.3781" id="FilteredIterator" rx="8.3333" ry="8.3333" style="stroke:#5E5E5E;stroke-width:1.0416666666666667;" width="341.6667" x="703.6458" y="205.7861"/><rect fill="#1B1B1A" height="31.3883" rx="8.3333" ry="8.3333" style="stroke:#1B1B1A;stroke-width:1.0416666666666667;" width="341.6667" x="703.6458" y="205.7861"/><rect fill="#1B1B1A" height="8.3333" style="stroke:#1B1B1A;stroke-width:1.0416666666666667;" width="341.6667" x="703.6458" y="228.8411"/><rect codeLine="34" fill="none" height="83.3781" id="FilteredIterator" rx="8.3333" ry="8.3333" style="stroke:#5E5E5E;stroke-width:1.0416666666666667;" width="341.6667" x="703.6458" y="205.7861"/><ellipse cx="787.5" cy="221.4803" fill="#0066CF" rx="10.4167" ry="10.4167" style="stroke:#0086EF;stroke-width:1.0416666666666667;"/><path d="M789.4104,225.9054 Q788.9832,226.1251 788.5132,226.2349 Q788.0432,226.3448 787.5244,226.3448 Q785.6812,226.3448 784.7107,225.1302 Q783.7402,223.9156 783.7402,221.6207 Q783.7402,219.3197 784.7107,218.1051 Q785.6812,216.8905 787.5244,216.8905 Q788.0432,216.8905 788.5193,217.0003 Q788.9954,217.1102 789.4104,217.3299 L789.4104,219.3319 Q788.9465,218.9046 788.5101,218.7063 Q788.0737,218.5079 787.6099,218.5079 Q786.6211,218.5079 786.1176,219.2922 Q785.614,220.0765 785.614,221.6207 Q785.614,223.1588 786.1176,223.9431 Q786.6211,224.7274 787.6099,224.7274 Q788.0737,224.7274 788.5101,224.529 Q788.9465,224.3306 789.4104,223.9034 Z " fill="#000000"/><text fill="#D8BC00" font-family="Open Sans,Avenir,Nunito,Arial,Helvetica,SansSerif" font-size="12.5" font-weight="bold" lengthAdjust="spacing" textLength="96.875" x="810.4167" y="226.2044">FilteredIterator</text><rect fill="#333333" height="23.055" style="stroke:#A0A0A0;stroke-width:1.0416666666666667;stroke-dasharray:2.0,2.0;" width="60.4167" x="988.0208" y="202.6611"/><text fill="#A0A0A0" font-family="Open Sans,Avenir,Nunito,Arial,Helvetica,SansSerif" font-size="12.5" font-weight="bold" lengthAdjust="spacing" textLength="52.0833" x="992.1875" y="218.9128">Element</text><line style="stroke:#5E5E5E;stroke-width:1.5625;" x1="704.6875" x2="1044.2708" y1="237.1745" y2="237.1745"/><ellipse cx="715.1042" cy="272.5444" fill="#84BE84" rx="3.125" ry="3.125" style="stroke:#038048;stroke-width:1.0416666666666667;"/><text fill="#D8BC00" font-family="Open Sans,Avenir,Nunito,Arial,Helvetica,SansSerif" font-size="11.4583" lengthAdjust="spacing" textLength="309.375" x="726.5625" y="279.4556">FilteredIterator(Iterator&lt;Element&gt;, Matcher&lt;Element&gt;)</text><line style="stroke:#5E5E5E;stroke-width:1.0416666666666667;" x1="704.6875" x2="830.7292" y1="255.3802" y2="255.3802"/><text fill="#D8BC00" font-family="Open Sans,Avenir,Nunito,Arial,Helvetica,SansSerif" font-size="11.4583" lengthAdjust="spacing" textLength="81.25" x="833.8542" y="259.1899">(constructors)</text><line style="stroke:#5E5E5E;stroke-width:1.0416666666666667;" x1="918.2292" x2="1044.2708" y1="255.3802" y2="255.3802"/><!--MD5=[e0da8f4d90840555e1b42310e8fb997c]
class CoreCollectionsUnitTest--><rect fill="#282828" height="48.055" id="CoreCollectionsUnitTest" rx="8.3333" ry="8.3333" style="stroke:#5E5E5E;stroke-width:1.0416666666666667;" width="195.8333" x="1557.8125" y="53.7028"/><rect fill="#1B1B1A" height="31.3883" rx="8.3333" ry="8.3333" style="stroke:#1B1B1A;stroke-width:1.0416666666666667;" width="195.8333" x="1557.8125" y="53.7028"/><rect fill="#1B1B1A" height="8.3333" style="stroke:#1B1B1A;stroke-width:1.0416666666666667;" width="195.8333" x="1557.8125" y="76.7578"/><rect fill="none" height="48.055" id="CoreCollectionsUnitTest" rx="8.3333" ry="8.3333" style="stroke:#5E5E5E;stroke-width:1.0416666666666667;" width="195.8333" x="1557.8125" y="53.7028"/><ellipse cx="1572.3958" cy="69.397" fill="#0066CF" rx="10.4167" ry="10.4167" style="stroke:#0086EF;stroke-width:1.0416666666666667;"/><path d="M1574.3062,73.822 Q1573.879,74.0417 1573.409,74.1516 Q1572.939,74.2615 1572.4202,74.2615 Q1570.577,74.2615 1569.6065,73.0469 Q1568.6361,71.8323 1568.6361,69.5374 Q1568.6361,67.2363 1569.6065,66.0217 Q1570.577,64.8071 1572.4202,64.8071 Q1572.939,64.8071 1573.4151,64.917 Q1573.8912,65.0269 1574.3062,65.2466 L1574.3062,67.2485 Q1573.8424,66.8213 1573.406,66.6229 Q1572.9696,66.4246 1572.5057,66.4246 Q1571.5169,66.4246 1571.0134,67.2089 Q1570.5098,67.9932 1570.5098,69.5374 Q1570.5098,71.0754 1571.0134,71.8597 Q1571.5169,72.644 1572.5057,72.644 Q1572.9696,72.644 1573.406,72.4457 Q1573.8424,72.2473 1574.3062,71.8201 Z " fill="#000000"/><text fill="#D8BC00" font-family="Open Sans,Avenir,Nunito,Arial,Helvetica,SansSerif" font-size="12.5" font-weight="bold" lengthAdjust="spacing" textLength="158.3333" x="1589.0625" y="74.1211">CoreCollectionsUnitTest</text><line style="stroke:#5E5E5E;stroke-width:1.0416666666666667;" x1="1558.8542" x2="1752.6042" y1="85.0911" y2="85.0911"/><line style="stroke:#5E5E5E;stroke-width:1.0416666666666667;" x1="1558.8542" x2="1752.6042" y1="93.4245" y2="93.4245"/><!--MD5=[72748cd64ec30b165da42337f14b5146]
class IteratorTest--><rect codeLine="41" fill="#282828" height="142.6127" id="IteratorTest" rx="8.3333" ry="8.3333" style="stroke:#5E5E5E;stroke-width:1.0416666666666667;" width="205.2083" x="1553.125" y="176.0986"/><rect fill="#1B1B1A" height="31.3883" rx="8.3333" ry="8.3333" style="stroke:#1B1B1A;stroke-width:1.0416666666666667;" width="205.2083" x="1553.125" y="176.0986"/><rect fill="#1B1B1A" height="8.3333" style="stroke:#1B1B1A;stroke-width:1.0416666666666667;" width="205.2083" x="1553.125" y="199.1536"/><rect codeLine="41" fill="none" height="142.6127" id="IteratorTest" rx="8.3333" ry="8.3333" style="stroke:#5E5E5E;stroke-width:1.0416666666666667;" width="205.2083" x="1553.125" y="176.0986"/><ellipse cx="1610.4167" cy="191.7928" fill="#0066CF" rx="10.4167" ry="10.4167" style="stroke:#0086EF;stroke-width:1.0416666666666667;"/><path d="M1612.3271,196.2179 Q1611.8998,196.4376 1611.4299,196.5474 Q1610.9599,196.6573 1610.4411,196.6573 Q1608.5978,196.6573 1607.6274,195.4427 Q1606.6569,194.2281 1606.6569,191.9332 Q1606.6569,189.6322 1607.6274,188.4176 Q1608.5978,187.203 1610.4411,187.203 Q1610.9599,187.203 1611.436,187.3128 Q1611.912,187.4227 1612.3271,187.6424 L1612.3271,189.6444 Q1611.8632,189.2171 1611.4268,189.0188 Q1610.9904,188.8204 1610.5265,188.8204 Q1609.5378,188.8204 1609.0342,189.6047 Q1608.5307,190.389 1608.5307,191.9332 Q1608.5307,193.4713 1609.0342,194.2556 Q1609.5378,195.0399 1610.5265,195.0399 Q1610.9904,195.0399 1611.4268,194.8415 Q1611.8632,194.6431 1612.3271,194.2159 Z " fill="#000000"/><text fill="#D8BC00" font-family="Open Sans,Avenir,Nunito,Arial,Helvetica,SansSerif" font-size="12.5" font-weight="bold" lengthAdjust="spacing" textLength="76.0417" x="1633.3333" y="196.5169">IteratorTest</text><line style="stroke:#5E5E5E;stroke-width:1.5625;" x1="1554.1667" x2="1757.2917" y1="207.487" y2="207.487"/><ellipse cx="1564.5833" cy="242.8569" fill="#84BE84" rx="3.125" ry="3.125" style="stroke:#038048;stroke-width:1.0416666666666667;"/><text fill="#D8BC00" font-family="Open Sans,Avenir,Nunito,Arial,Helvetica,SansSerif" font-size="11.4583" lengthAdjust="spacing" textLength="146.875" x="1576.0417" y="249.7681">void abstractIterableTest()</text><ellipse cx="1564.5833" cy="262.6017" fill="#84BE84" rx="3.125" ry="3.125" style="stroke:#038048;stroke-width:1.0416666666666667;"/><text fill="#D8BC00" font-family="Open Sans,Avenir,Nunito,Arial,Helvetica,SansSerif" font-size="11.4583" lengthAdjust="spacing" textLength="146.875" x="1576.0417" y="269.5129">void abstractIteratorTest()</text><ellipse cx="1564.5833" cy="282.3466" fill="#84BE84" rx="3.125" ry="3.125" style="stroke:#038048;stroke-width:1.0416666666666667;"/><text fill="#D8BC00" font-family="Open Sans,Avenir,Nunito,Arial,Helvetica,SansSerif" font-size="11.4583" lengthAdjust="spacing" textLength="161.4583" x="1576.0417" y="289.2578">void compoundIteratorTest()</text><ellipse cx="1564.5833" cy="302.0915" fill="#84BE84" rx="3.125" ry="3.125" style="stroke:#038048;stroke-width:1.0416666666666667;"/><text fill="#D8BC00" font-family="Open Sans,Avenir,Nunito,Arial,Helvetica,SansSerif" font-size="11.4583" lengthAdjust="spacing" textLength="172.9167" x="1576.0417" y="309.0027">void deduplicatedIteratorTest()</text><line style="stroke:#5E5E5E;stroke-width:1.0416666666666667;" x1="1554.1667" x2="1621.3542" y1="225.6927" y2="225.6927"/><text fill="#D8BC00" font-family="Open Sans,Avenir,Nunito,Arial,Helvetica,SansSerif" font-size="11.4583" lengthAdjust="spacing" textLength="62.5" x="1624.4792" y="229.5024">(collection)</text><line style="stroke:#5E5E5E;stroke-width:1.0416666666666667;" x1="1690.1042" x2="1757.2917" y1="225.6927" y2="225.6927"/><!--MD5=[59e0ac1a3c62d1fbaa74c73e70e7a982]
class SingletonIterator--><rect codeLine="51" fill="#282828" height="83.3781" id="SingletonIterator" rx="8.3333" ry="8.3333" style="stroke:#5E5E5E;stroke-width:1.0416666666666667;" width="209.375" x="1307.2917" y="205.7861"/><rect fill="#1B1B1A" height="31.3883" rx="8.3333" ry="8.3333" style="stroke:#1B1B1A;stroke-width:1.0416666666666667;" width="209.375" x="1307.2917" y="205.7861"/><rect fill="#1B1B1A" height="8.3333" style="stroke:#1B1B1A;stroke-width:1.0416666666666667;" width="209.375" x="1307.2917" y="228.8411"/><rect codeLine="51" fill="none" height="83.3781" id="SingletonIterator" rx="8.3333" ry="8.3333" style="stroke:#5E5E5E;stroke-width:1.0416666666666667;" width="209.375" x="1307.2917" y="205.7861"/><ellipse cx="1321.875" cy="221.4803" fill="#0066CF" rx="10.4167" ry="10.4167" style="stroke:#0086EF;stroke-width:1.0416666666666667;"/><path d="M1323.7854,225.9054 Q1323.3582,226.1251 1322.8882,226.2349 Q1322.4182,226.3448 1321.8994,226.3448 Q1320.0562,226.3448 1319.0857,225.1302 Q1318.1152,223.9156 1318.1152,221.6207 Q1318.1152,219.3197 1319.0857,218.1051 Q1320.0562,216.8905 1321.8994,216.8905 Q1322.4182,216.8905 1322.8943,217.0003 Q1323.3704,217.1102 1323.7854,217.3299 L1323.7854,219.3319 Q1323.3215,218.9046 1322.8851,218.7063 Q1322.4487,218.5079 1321.9849,218.5079 Q1320.9961,218.5079 1320.4926,219.2922 Q1319.989,220.0765 1319.989,221.6207 Q1319.989,223.1588 1320.4926,223.9431 Q1320.9961,224.7274 1321.9849,224.7274 Q1322.4487,224.7274 1322.8851,224.529 Q1323.3215,224.3306 1323.7854,223.9034 Z " fill="#000000"/><text fill="#D8BC00" font-family="Open Sans,Avenir,Nunito,Arial,Helvetica,SansSerif" font-size="12.5" font-weight="bold" lengthAdjust="spacing" textLength="109.375" x="1338.5417" y="226.2044">SingletonIterator</text><rect fill="#333333" height="23.055" style="stroke:#A0A0A0;stroke-width:1.0416666666666667;stroke-dasharray:2.0,2.0;" width="60.4167" x="1459.375" y="202.6611"/><text fill="#A0A0A0" font-family="Open Sans,Avenir,Nunito,Arial,Helvetica,SansSerif" font-size="12.5" font-weight="bold" lengthAdjust="spacing" textLength="52.0833" x="1463.5417" y="218.9128">Element</text><line style="stroke:#5E5E5E;stroke-width:1.5625;" x1="1308.3333" x2="1515.625" y1="237.1745" y2="237.1745"/><ellipse cx="1318.75" cy="272.5444" fill="#84BE84" rx="3.125" ry="3.125" style="stroke:#038048;stroke-width:1.0416666666666667;"/><text fill="#D8BC00" font-family="Open Sans,Avenir,Nunito,Arial,Helvetica,SansSerif" font-size="11.4583" lengthAdjust="spacing" textLength="145.8333" x="1330.2083" y="279.4556">SingletonIterator(Element)</text><line style="stroke:#5E5E5E;stroke-width:1.0416666666666667;" x1="1308.3333" x2="1368.2292" y1="255.3802" y2="255.3802"/><text fill="#D8BC00" font-family="Open Sans,Avenir,Nunito,Arial,Helvetica,SansSerif" font-size="11.4583" lengthAdjust="spacing" textLength="81.25" x="1371.3542" y="259.1899">(constructors)</text><line style="stroke:#5E5E5E;stroke-width:1.0416666666666667;" x1="1455.7292" x2="1515.625" y1="255.3802" y2="255.3802"/><!--MD5=[f091590ace8f5eec72a42d5cbb7b3ffa]
reverse link BaseIterator to CompoundIterator--><path codeLine="10" d="M468.125,110.8903 C436.4583,126.1507 397.0208,145.1611 357.7917,164.0674 " fill="none" id="BaseIterator-backto-CompoundIterator" style="stroke:#545454;stroke-width:1.5625;"/><polygon fill="none" points="465.3125,104.1507,487.25,101.6715,471.6458,117.2861,465.3125,104.1507" style="stroke:#545454;stroke-width:1.5625;"/><!--MD5=[fc5f73e62277fb51c9cefdd7287731b0]
reverse link BaseIterator to DeduplicatingIterator--><path codeLine="21" d="M534.8958,122.6403 C534.8958,148.3486 534.8958,180.5778 534.8958,205.7028 " fill="none" id="BaseIterator-backto-DeduplicatingIterator" style="stroke:#545454;stroke-width:1.5625;"/><polygon fill="none" points="527.6042,122.5049,534.8958,101.6715,542.1875,122.5049,527.6042,122.5049" style="stroke:#545454;stroke-width:1.5625;"/><!--MD5=[a467c28b04b9632abee55c4d4c903ba2]
reverse link Iterator to EmptyIterator--><path codeLine="28" d="M1266.1146,118.8278 C1243.1563,151.5257 1211.5521,196.557 1192.6771,223.4528 " fill="none" id="Iterator-backto-EmptyIterator" style="stroke:#545454;stroke-width:1.5625;"/><polygon fill="none" points="1260.2188,114.5361,1278.1458,101.6715,1272.1458,122.9111,1260.2188,114.5361" style="stroke:#545454;stroke-width:1.5625;"/><!--MD5=[0d862e822d0a9091639641b884a44513]
reverse link BaseIterator to FilteredIterator--><path codeLine="33" d="M600.3854,111.0465 C655.0208,138.0257 733.1667,176.6195 792.0521,205.7028 " fill="none" id="BaseIterator-backto-FilteredIterator" style="stroke:#545454;stroke-width:1.5625;"/><polygon fill="none" points="596.8542,117.432,581.4063,101.6715,603.3125,104.359,596.8542,117.432" style="stroke:#545454;stroke-width:1.5625;"/><!--MD5=[3ce50c6b3f84fef3634ede9e92d4575b]
reverse link CoreCollectionsUnitTest to IteratorTest--><path codeLine="40" d="M1655.7292,122.5986 C1655.7292,138.9007 1655.7292,157.8278 1655.7292,175.9007 " fill="none" id="CoreCollectionsUnitTest-backto-IteratorTest" style="stroke:#545454;stroke-width:1.5625;"/><polygon fill="none" points="1648.4375,122.5049,1655.7292,101.6715,1663.0208,122.5049,1648.4375,122.5049" style="stroke:#545454;stroke-width:1.5625;"/><!--MD5=[7e0bcce815a29d39556f61b71cb1bb6b]
reverse link Iterator to SingletonIterator--><path codeLine="50" d="M1322.3958,118.7757 C1340.8438,145.057 1364.875,179.2965 1383.4063,205.7028 " fill="none" id="Iterator-backto-SingletonIterator" style="stroke:#545454;stroke-width:1.5625;"/><polygon fill="none" points="1316.3958,122.9111,1310.3958,101.6715,1328.3229,114.5361,1316.3958,122.9111" style="stroke:#545454;stroke-width:1.5625;"/><!--MD5=[ca7450b2e53c52f50d620f8bf5a0c671]
@startuml

    !include lexakai.theme
    
    title "com.telenav.kivakit.collections.iteration.iterators"
    
    abstract BaseIterator
    
    interface Iterator
    
    BaseIterator <|- - CompoundIterator
    class CompoundIterator<Element>
    {
        - -(constructors)- -
        +CompoundIterator()
        +CompoundIterator(Iterator<Element>, Iterator<Element>)
        - -(collection)- -
        +void add(Iterator<Element>)
        +void addAll(Collection<Iterator<Element>> iterators)
    }
    
    BaseIterator <|- - DeduplicatingIterator
    class DeduplicatingIterator<Element>
    {
        - -(constructors)- -
        +DeduplicatingIterator(Iterator<Element>)
    }
    
    Iterator <|- - EmptyIterator
    class EmptyIterator<Element>
    {
    }
    
    BaseIterator <|- - FilteredIterator
    class FilteredIterator<Element>
    {
        - -(constructors)- -
        +FilteredIterator(Iterator<Element>, Matcher<Element>)
    }
    
    CoreCollectionsUnitTest <|- - IteratorTest
    class IteratorTest
    {
        - -(collection)- -
        +void abstractIterableTest()
        +void abstractIteratorTest()
        +void compoundIteratorTest()
        +void deduplicatedIteratorTest()
    }
    
    Iterator <|- - SingletonIterator
    class SingletonIterator<Element>
    {
        - -(constructors)- -
        +SingletonIterator(Element)
    }
    
@enduml

@startuml









skinparam backgroundColor #333333






skinparam  {
    defaultFontName   "Open Sans,Avenir,Nunito,Arial,Helvetica,SansSerif"
    defaultFontSize   12
    defaultTextAlignment left
    shadowing false
    RoundCorner 10
    TitleFontSize 18
}

skinparam defaultFontName       "Open Sans,Avenir,Nunito,Arial,Helvetica,SansSerif"
skinparam defaultFontSize       12
skinparam dpi                   100
skinparam shadowing             false
skinparam roundcorner           16
skinparam ParticipantPadding    40
skinparam BoxPadding            40
skinparam Padding               3
skinparam ArrowColor            #545454
skinparam stereotype {
    CBackgroundColor #0066cf
    CBorderColor #0086ef
    ABackgroundColor #C8Ac00
    ABorderColor #D8Bc00
    IBackgroundColor #008400
    IBorderColor #239c23
    EBackgroundColor #cf6300
    EBorderColor #ef8300
    NBackgroundColor #3380b9
    NBorderColor #004d86
}
skinparam title {
	FontColor	                 #c0c0c0
 	BorderColor                  #545454
	FontSize	    	         20
	BorderRoundCorner            16
	BorderThickness 	         1
	BackgroundColor              #48494b
}


skinparam legend {
	BackgroundColor #303030
	BorderColor #404040
	FontColor #a0a0a0
}

	skinparam swimlane {
	BorderColor #5e5e5e
	BorderThickness 2
	TitleBackgroundColor  #6d6d6d-#484848
	TitleFontColor #303030
}

skinparam activity {
		FontColor #C8Ac00
	BorderColor #333333
	BackgroundColor #333333-#333333
	BarColor #00FF00
	StartColor #0060a8
	EndColor #0060a8
	DiamondBackgroundColor #6d6d6d-#3a3a3a
  	DiamondBorderColor #3a3a3a
  	DiamondFontColor #fefefe
}


skinparam participant {
		FontColor #C8Ac00
	BorderColor #333333
	BackgroundColor #333333-#333333
	ParticipantBorderThickness 2
}


skinparam actor {
		FontColor #C8Ac00
	BorderColor #333333
	BackgroundColor #333333-#333333
}


skinparam arrow {
	Thickness 1.5
	Color #545454
	FontColor #a0a0a0
    FontStyle bold
    MessageAlignment center
}



skinparam sequence {
	BorderColor #303030
	TitleFontColor #303030
	BackgroundColor #333333
	StartColor #303030
	EndColor #303030
	BoxBackgroundColor #333333
	BoxBorderColor #484848
	BoxFontColor #484848
	LifeLineBorderColor #484848
	LifeLineBorderThickness 2
	LifeLineBackgroundColor #3a3a3a
	GroupBorderColor #484848
	GroupFontColor #484848
	GroupHeaderFontColor #0060a8
	GroupBackgroundColor #484848
	GroupHeaderBackgroundColor #333333
	DividerBackgroundColor #484848
    DividerBorderColor #484848
    DividerBorderThickness 2
    DividerFontColor #D8Bc00
	ReferenceBackgroundColor #333333
	ReferenceBorderColor #484848
	ReferenceFontColor #fefefe
	ReferenceHeaderBackgroundColor #484848
}


skinparam partition {
	BorderColor #303030
	FontColor #333333
	BackgroundColor #333333
}


skinparam collections {
		FontColor #C8Ac00
	BorderColor #333333
	BackgroundColor #333333-#333333
}


skinparam control {
		FontColor #C8Ac00
	BorderColor #333333
	BackgroundColor #333333-#333333
}


skinparam entity {
		FontColor #C8Ac00
	BorderColor #333333
	BackgroundColor #333333-#333333
}


skinparam boundary {
		FontColor #C8Ac00
	BorderColor #333333
	BackgroundColor #333333-#333333
}


skinparam agent {
	BackgroundColor #ff8000
	BorderColor #ff9933
	FontColor #484848
}


skinparam note {
	BorderThickness 1
	BackgroundColor #1b1b1a
	BorderColor #5e5e5e
	FontSize 11
	FontColor #a0a0a0
}


skinparam artifact {
	BorderThickness 10
	BorderColor #5e5e5e
	BackgroundColor #1b1b1a
	FontColor #D8Bc00
}


skinparam component {
		FontColor #C8Ac00
	BorderColor #333333
	BackgroundColor #333333-#333333
}


skinparam interface {
	BackgroundColor  #008400
	BorderColor  #007F00
	FontColor #484848
}


skinparam storage {
	BackgroundColor #ff8000
  	BorderColor #cc6600
	FontColor #222222
}


skinparam node {
	BackgroundColor #333333
	BorderColor #333333
	FontColor #C8Ac00
}


skinparam cloud {
	BackgroundColor #484848-black
	BorderColor #484848
	FontColor #D8Bc00
}


skinparam database {
		FontColor #C8Ac00
	BorderColor #333333
	BackgroundColor #333333-#333333
	BackgroundColor  #333333
}


skinparam class {
		FontColor #C8Ac00
	BorderColor #333333
	BackgroundColor #333333-#333333
	HeaderBackgroundColor #1b1b1a
    BackgroundColor #282828
    BorderColor #5e5e5e
 	StereotypeFontColor #a0a0a0
    StereotypeFontStyle bold
	BorderThickness 1
	AttributeFontColor #D8Bc00
	AttributeFontSize 11
    FontColor #D8Bc00
    FontStyle bold
}


skinparam object {
		FontColor #C8Ac00
	BorderColor #333333
	BackgroundColor #333333-#333333
	StereotypeFontColor #484848
	BorderThickness 1
	AttributeFontColor #fefefe
	AttributeFontSize 11
}


skinparam usecase {
		FontColor #C8Ac00
	BorderColor #333333
	BackgroundColor #333333-#333333
	BorderThickness 2
	StereotypeFontColor #303030
}


skinparam rectangle {
		FontColor #C8Ac00
	BorderColor #333333
	BackgroundColor #333333-#333333
	BackgroundColor #333333
	BorderThickness 2
	StereotypeFontColor #303030
}


skinparam package {
		FontColor #C8Ac00
	BorderColor #333333
	BackgroundColor #333333-#333333
	BackgroundColor #333333
	BorderThickness 2
}


skinparam folder {
	BackgroundColor #6d6d6d
  	BorderColor #ff8000
	FontColor #ff8000
	BorderThickness 2
}


skinparam frame {
	BackgroundColor #6d6d6d
  	BorderColor #0060a8
	FontColor #0060a8
	BorderThickness 2
}


skinparam state {
		FontColor #C8Ac00
	BorderColor #333333
	BackgroundColor #333333-#333333
	StartColor #0060a8
	EndColor #0060a8
	AttributeFontColor #fefefe
	AttributeFontSize 11
}


skinparam queue {
		FontColor #C8Ac00
	BorderColor #333333
	BackgroundColor #333333-#333333
}


skinparam card {
	BackgroundColor #0060a8
	BorderColor #004d86
	FontColor $INFO_TEXT
}


skinparam file {
	BackgroundColor #6d6d6d-#484848
	BorderColor #0060a8
	FontColor #fefefe
}


skinparam stack {
		FontColor #C8Ac00
	BorderColor #333333
	BackgroundColor #333333-#333333
}

    
    title "com.telenav.kivakit.collections.iteration.iterators"
    
    abstract BaseIterator
    
    interface Iterator
    
    BaseIterator <|- - CompoundIterator
    class CompoundIterator<Element>
    {
        - -(constructors)- -
        +CompoundIterator()
        +CompoundIterator(Iterator<Element>, Iterator<Element>)
        - -(collection)- -
        +void add(Iterator<Element>)
        +void addAll(Collection<Iterator<Element>> iterators)
    }
    
    BaseIterator <|- - DeduplicatingIterator
    class DeduplicatingIterator<Element>
    {
        - -(constructors)- -
        +DeduplicatingIterator(Iterator<Element>)
    }
    
    Iterator <|- - EmptyIterator
    class EmptyIterator<Element>
    {
    }
    
    BaseIterator <|- - FilteredIterator
    class FilteredIterator<Element>
    {
        - -(constructors)- -
        +FilteredIterator(Iterator<Element>, Matcher<Element>)
    }
    
    CoreCollectionsUnitTest <|- - IteratorTest
    class IteratorTest
    {
        - -(collection)- -
        +void abstractIterableTest()
        +void abstractIteratorTest()
        +void compoundIteratorTest()
        +void deduplicatedIteratorTest()
    }
    
    Iterator <|- - SingletonIterator
    class SingletonIterator<Element>
    {
        - -(constructors)- -
        +SingletonIterator(Element)
    }
    
@enduml

PlantUML version 1.2021.01(Tue Feb 02 00:55:08 MST 2021)
(GPL source distribution)
Java Runtime: Java(TM) SE Runtime Environment
JVM: Java HotSpot(TM) 64-Bit Server VM
Default Encoding: UTF-8
Language: en
Country: US
--></g></svg>