<?xml version="1.0" encoding="UTF-8" standalone="no"?><svg xmlns="http://www.w3.org/2000/svg" xmlns:xlink="http://www.w3.org/1999/xlink" contentScriptType="application/ecmascript" contentStyleType="text/css" height="261.4583px" preserveAspectRatio="none" style="width:1162px;height:261px;background:#333333;" version="1.1" viewBox="0 0 1162 261" width="1162.5px" zoomAndPan="magnify"><defs/><g><rect fill="#48494B" height="41.2028" rx="8.3333" ry="8.3333" style="stroke:#545454;stroke-width:1.0416666666666667;" width="351.0417" x="398.6979" y="2.0833"/><text fill="#C0C0C0" font-family="Open Sans,Avenir,Nunito,Arial,Helvetica,SansSerif" font-size="20.8333" lengthAdjust="spacing" textLength="328.125" x="410.1563" y="30.5583">com.telenav.kivakit.web.swagger</text><!--MD5=[8454f78d39087bda2a2448b1a4f41e7d]
cluster JettySwaggerIndex--><polygon fill="#333333" points="16.6667,132.8695,148.9583,132.8695,156.25,160.0911,203.125,160.0911,203.125,254.7445,16.6667,254.7445,16.6667,132.8695" style="stroke:#333333;stroke-width:2.0833333333333335;"/><line style="stroke:#333333;stroke-width:2.0833333333333335;" x1="16.6667" x2="156.25" y1="160.0911" y2="160.0911"/><text fill="#C8AC00" font-family="Open Sans,Avenir,Nunito,Arial,Helvetica,SansSerif" font-size="12.5" font-weight="bold" lengthAdjust="spacing" textLength="119.7917" x="23.9583" y="150.1628">JettySwaggerIndex</text><!--MD5=[0c446884e6cf300ba09c00836c9033cb]
class JettySwaggerIndex.IndexServlet--><rect codeLine="7" fill="#282828" height="48.055" id="JettySwaggerIndex.IndexServlet" rx="8.3333" ry="8.3333" style="stroke:#5E5E5E;stroke-width:1.0416666666666667;" width="116.6667" x="61.4583" y="181.8278"/><rect fill="#1B1B1A" height="31.3883" rx="8.3333" ry="8.3333" style="stroke:#1B1B1A;stroke-width:1.0416666666666667;" width="116.6667" x="61.4583" y="181.8278"/><rect fill="#1B1B1A" height="8.3333" style="stroke:#1B1B1A;stroke-width:1.0416666666666667;" width="116.6667" x="61.4583" y="204.8828"/><rect codeLine="7" fill="none" height="48.055" id="JettySwaggerIndex.IndexServlet" rx="8.3333" ry="8.3333" style="stroke:#5E5E5E;stroke-width:1.0416666666666667;" width="116.6667" x="61.4583" y="181.8278"/><ellipse cx="76.0417" cy="197.522" fill="#0066CF" rx="10.4167" ry="10.4167" style="stroke:#0086EF;stroke-width:1.0416666666666667;"/><path d="M77.9521,201.947 Q77.5248,202.1667 77.0549,202.2766 Q76.5849,202.3865 76.0661,202.3865 Q74.2228,202.3865 73.2524,201.1719 Q72.2819,199.9573 72.2819,197.6624 Q72.2819,195.3613 73.2524,194.1467 Q74.2228,192.9321 76.0661,192.9321 Q76.5849,192.9321 77.061,193.042 Q77.537,193.1519 77.9521,193.3716 L77.9521,195.3735 Q77.4882,194.9463 77.0518,194.7479 Q76.6154,194.5496 76.1515,194.5496 Q75.1628,194.5496 74.6592,195.3339 Q74.1557,196.1182 74.1557,197.6624 Q74.1557,199.2004 74.6592,199.9847 Q75.1628,200.769 76.1515,200.769 Q76.6154,200.769 77.0518,200.5707 Q77.4882,200.3723 77.9521,199.9451 Z " fill="#000000"/><text fill="#D8BC00" font-family="Open Sans,Avenir,Nunito,Arial,Helvetica,SansSerif" font-size="12.5" font-weight="bold" lengthAdjust="spacing" textLength="79.1667" x="92.7083" y="202.2461">IndexServlet</text><line style="stroke:#5E5E5E;stroke-width:1.0416666666666667;" x1="62.5" x2="177.0833" y1="213.2161" y2="213.2161"/><line style="stroke:#5E5E5E;stroke-width:1.0416666666666667;" x1="62.5" x2="177.0833" y1="221.5495" y2="221.5495"/><!--MD5=[97579af86a7440af5e74c6047349c48c]
class HttpServlet--><rect fill="#282828" height="48.055" id="HttpServlet" rx="8.3333" ry="8.3333" style="stroke:#5E5E5E;stroke-width:1.0416666666666667;" width="109.375" x="65.1042" y="53.7028"/><rect fill="#1B1B1A" height="31.3883" rx="8.3333" ry="8.3333" style="stroke:#1B1B1A;stroke-width:1.0416666666666667;" width="109.375" x="65.1042" y="53.7028"/><rect fill="#1B1B1A" height="8.3333" style="stroke:#1B1B1A;stroke-width:1.0416666666666667;" width="109.375" x="65.1042" y="76.7578"/><rect fill="none" height="48.055" id="HttpServlet" rx="8.3333" ry="8.3333" style="stroke:#5E5E5E;stroke-width:1.0416666666666667;" width="109.375" x="65.1042" y="53.7028"/><ellipse cx="79.6875" cy="69.397" fill="#0066CF" rx="10.4167" ry="10.4167" style="stroke:#0086EF;stroke-width:1.0416666666666667;"/><path d="M81.5979,73.822 Q81.1707,74.0417 80.7007,74.1516 Q80.2307,74.2615 79.7119,74.2615 Q77.8687,74.2615 76.8982,73.0469 Q75.9277,71.8323 75.9277,69.5374 Q75.9277,67.2363 76.8982,66.0217 Q77.8687,64.8071 79.7119,64.8071 Q80.2307,64.8071 80.7068,64.917 Q81.1829,65.0269 81.5979,65.2466 L81.5979,67.2485 Q81.134,66.8213 80.6976,66.6229 Q80.2612,66.4246 79.7974,66.4246 Q78.8086,66.4246 78.3051,67.2089 Q77.8015,67.9932 77.8015,69.5374 Q77.8015,71.0754 78.3051,71.8597 Q78.8086,72.644 79.7974,72.644 Q80.2612,72.644 80.6976,72.4457 Q81.134,72.2473 81.5979,71.8201 Z " fill="#000000"/><text fill="#D8BC00" font-family="Open Sans,Avenir,Nunito,Arial,Helvetica,SansSerif" font-size="12.5" font-weight="bold" lengthAdjust="spacing" textLength="71.875" x="96.3542" y="74.1211">HttpServlet</text><line style="stroke:#5E5E5E;stroke-width:1.0416666666666667;" x1="66.1458" x2="173.4375" y1="85.0911" y2="85.0911"/><line style="stroke:#5E5E5E;stroke-width:1.0416666666666667;" x1="66.1458" x2="173.4375" y1="93.4245" y2="93.4245"/><!--MD5=[9d830c16315f7e02e4f468093a963216]
class JettyResource--><rect fill="#282828" height="48.055" id="JettyResource" rx="8.3333" ry="8.3333" style="stroke:#5E5E5E;stroke-width:1.0416666666666667;" width="126.0417" x="471.3542" y="53.7028"/><rect fill="#1B1B1A" height="31.3883" rx="8.3333" ry="8.3333" style="stroke:#1B1B1A;stroke-width:1.0416666666666667;" width="126.0417" x="471.3542" y="53.7028"/><rect fill="#1B1B1A" height="8.3333" style="stroke:#1B1B1A;stroke-width:1.0416666666666667;" width="126.0417" x="471.3542" y="76.7578"/><rect fill="none" height="48.055" id="JettyResource" rx="8.3333" ry="8.3333" style="stroke:#5E5E5E;stroke-width:1.0416666666666667;" width="126.0417" x="471.3542" y="53.7028"/><ellipse cx="485.9375" cy="69.397" fill="#0066CF" rx="10.4167" ry="10.4167" style="stroke:#0086EF;stroke-width:1.0416666666666667;"/><path d="M487.8479,73.822 Q487.4207,74.0417 486.9507,74.1516 Q486.4807,74.2615 485.9619,74.2615 Q484.1187,74.2615 483.1482,73.0469 Q482.1777,71.8323 482.1777,69.5374 Q482.1777,67.2363 483.1482,66.0217 Q484.1187,64.8071 485.9619,64.8071 Q486.4807,64.8071 486.9568,64.917 Q487.4329,65.0269 487.8479,65.2466 L487.8479,67.2485 Q487.384,66.8213 486.9476,66.6229 Q486.5112,66.4246 486.0474,66.4246 Q485.0586,66.4246 484.5551,67.2089 Q484.0515,67.9932 484.0515,69.5374 Q484.0515,71.0754 484.5551,71.8597 Q485.0586,72.644 486.0474,72.644 Q486.5112,72.644 486.9476,72.4457 Q487.384,72.2473 487.8479,71.8201 Z " fill="#000000"/><text fill="#D8BC00" font-family="Open Sans,Avenir,Nunito,Arial,Helvetica,SansSerif" font-size="12.5" font-weight="bold" lengthAdjust="spacing" textLength="88.5417" x="502.6042" y="74.1211">JettyResource</text><line style="stroke:#5E5E5E;stroke-width:1.0416666666666667;" x1="472.3958" x2="596.3542" y1="85.0911" y2="85.0911"/><line style="stroke:#5E5E5E;stroke-width:1.0416666666666667;" x1="472.3958" x2="596.3542" y1="93.4245" y2="93.4245"/><!--MD5=[d525bcc7f3173907679d17b632dc650d]
class JettySwaggerIndex--><rect codeLine="12" fill="#282828" height="83.3781" id="JettySwaggerIndex" rx="8.3333" ry="8.3333" style="stroke:#5E5E5E;stroke-width:1.0416666666666667;" width="157.2917" x="228.6458" y="164.1195"/><rect fill="#1B1B1A" height="31.3883" rx="8.3333" ry="8.3333" style="stroke:#1B1B1A;stroke-width:1.0416666666666667;" width="157.2917" x="228.6458" y="164.1195"/><rect fill="#1B1B1A" height="8.3333" style="stroke:#1B1B1A;stroke-width:1.0416666666666667;" width="157.2917" x="228.6458" y="187.1745"/><rect codeLine="12" fill="none" height="83.3781" id="JettySwaggerIndex" rx="8.3333" ry="8.3333" style="stroke:#5E5E5E;stroke-width:1.0416666666666667;" width="157.2917" x="228.6458" y="164.1195"/><ellipse cx="243.2292" cy="179.8136" fill="#0066CF" rx="10.4167" ry="10.4167" style="stroke:#0086EF;stroke-width:1.0416666666666667;"/><path d="M245.1396,184.2387 Q244.7123,184.4584 244.2424,184.5683 Q243.7724,184.6781 243.2536,184.6781 Q241.4103,184.6781 240.4399,183.4635 Q239.4694,182.2489 239.4694,179.954 Q239.4694,177.653 240.4399,176.4384 Q241.4103,175.2238 243.2536,175.2238 Q243.7724,175.2238 244.2485,175.3337 Q244.7245,175.4435 245.1396,175.6632 L245.1396,177.6652 Q244.6757,177.238 244.2393,177.0396 Q243.8029,176.8412 243.339,176.8412 Q242.3503,176.8412 241.8467,177.6255 Q241.3432,178.4098 241.3432,179.954 Q241.3432,181.4921 241.8467,182.2764 Q242.3503,183.0607 243.339,183.0607 Q243.8029,183.0607 244.2393,182.8623 Q244.6757,182.664 245.1396,182.2367 Z " fill="#000000"/><text fill="#D8BC00" font-family="Open Sans,Avenir,Nunito,Arial,Helvetica,SansSerif" font-size="12.5" font-weight="bold" lengthAdjust="spacing" textLength="119.7917" x="259.8958" y="184.5378">JettySwaggerIndex</text><line style="stroke:#5E5E5E;stroke-width:1.5625;" x1="229.6875" x2="384.8958" y1="195.5078" y2="195.5078"/><ellipse cx="240.1042" cy="230.8777" fill="#84BE84" rx="3.125" ry="3.125" style="stroke:#038048;stroke-width:1.0416666666666667;"/><text fill="#D8BC00" font-family="Open Sans,Avenir,Nunito,Arial,Helvetica,SansSerif" font-size="11.4583" lengthAdjust="spacing" textLength="125" x="251.5625" y="237.7889">JettySwaggerIndex(int)</text><line style="stroke:#5E5E5E;stroke-width:1.0416666666666667;" x1="229.6875" x2="263.5417" y1="213.7136" y2="213.7136"/><text fill="#D8BC00" font-family="Open Sans,Avenir,Nunito,Arial,Helvetica,SansSerif" font-size="11.4583" lengthAdjust="spacing" textLength="81.25" x="266.6667" y="217.5232">(constructors)</text><line style="stroke:#5E5E5E;stroke-width:1.0416666666666667;" x1="351.0417" x2="384.8958" y1="213.7136" y2="213.7136"/><!--MD5=[fc7a99885469d0fa056924bc28556d99]
class JettyServlet--><rect fill="#282828" height="48.055" id="JettyServlet" rx="8.3333" ry="8.3333" style="stroke:#5E5E5E;stroke-width:1.0416666666666667;" width="111.4583" x="988.0208" y="53.7028"/><rect fill="#1B1B1A" height="31.3883" rx="8.3333" ry="8.3333" style="stroke:#1B1B1A;stroke-width:1.0416666666666667;" width="111.4583" x="988.0208" y="53.7028"/><rect fill="#1B1B1A" height="8.3333" style="stroke:#1B1B1A;stroke-width:1.0416666666666667;" width="111.4583" x="988.0208" y="76.7578"/><rect fill="none" height="48.055" id="JettyServlet" rx="8.3333" ry="8.3333" style="stroke:#5E5E5E;stroke-width:1.0416666666666667;" width="111.4583" x="988.0208" y="53.7028"/><ellipse cx="1002.6042" cy="69.397" fill="#0066CF" rx="10.4167" ry="10.4167" style="stroke:#0086EF;stroke-width:1.0416666666666667;"/><path d="M1004.5146,73.822 Q1004.0873,74.0417 1003.6174,74.1516 Q1003.1474,74.2615 1002.6286,74.2615 Q1000.7853,74.2615 999.8149,73.0469 Q998.8444,71.8323 998.8444,69.5374 Q998.8444,67.2363 999.8149,66.0217 Q1000.7853,64.8071 1002.6286,64.8071 Q1003.1474,64.8071 1003.6235,64.917 Q1004.0995,65.0269 1004.5146,65.2466 L1004.5146,67.2485 Q1004.0507,66.8213 1003.6143,66.6229 Q1003.1779,66.4246 1002.714,66.4246 Q1001.7253,66.4246 1001.2217,67.2089 Q1000.7182,67.9932 1000.7182,69.5374 Q1000.7182,71.0754 1001.2217,71.8597 Q1001.7253,72.644 1002.714,72.644 Q1003.1779,72.644 1003.6143,72.4457 Q1004.0507,72.2473 1004.5146,71.8201 Z " fill="#000000"/><text fill="#D8BC00" font-family="Open Sans,Avenir,Nunito,Arial,Helvetica,SansSerif" font-size="12.5" font-weight="bold" lengthAdjust="spacing" textLength="73.9583" x="1019.2708" y="74.1211">JettyServlet</text><line style="stroke:#5E5E5E;stroke-width:1.0416666666666667;" x1="989.0625" x2="1098.4375" y1="85.0911" y2="85.0911"/><line style="stroke:#5E5E5E;stroke-width:1.0416666666666667;" x1="989.0625" x2="1098.4375" y1="93.4245" y2="93.4245"/><!--MD5=[ca3a45808c7325fe9eeba654d4bec00a]
class JettySwaggerOpenApi--><rect codeLine="19" fill="#282828" height="83.3781" id="JettySwaggerOpenApi" rx="8.3333" ry="8.3333" style="stroke:#5E5E5E;stroke-width:1.0416666666666667;" width="223.9583" x="931.7708" y="164.1195"/><rect fill="#1B1B1A" height="31.3883" rx="8.3333" ry="8.3333" style="stroke:#1B1B1A;stroke-width:1.0416666666666667;" width="223.9583" x="931.7708" y="164.1195"/><rect fill="#1B1B1A" height="8.3333" style="stroke:#1B1B1A;stroke-width:1.0416666666666667;" width="223.9583" x="931.7708" y="187.1745"/><rect codeLine="19" fill="none" height="83.3781" id="JettySwaggerOpenApi" rx="8.3333" ry="8.3333" style="stroke:#5E5E5E;stroke-width:1.0416666666666667;" width="223.9583" x="931.7708" y="164.1195"/><ellipse cx="966.9792" cy="179.8136" fill="#0066CF" rx="10.4167" ry="10.4167" style="stroke:#0086EF;stroke-width:1.0416666666666667;"/><path d="M968.8896,184.2387 Q968.4623,184.4584 967.9924,184.5683 Q967.5224,184.6781 967.0036,184.6781 Q965.1603,184.6781 964.1899,183.4635 Q963.2194,182.2489 963.2194,179.954 Q963.2194,177.653 964.1899,176.4384 Q965.1603,175.2238 967.0036,175.2238 Q967.5224,175.2238 967.9985,175.3337 Q968.4745,175.4435 968.8896,175.6632 L968.8896,177.6652 Q968.4257,177.238 967.9893,177.0396 Q967.5529,176.8412 967.089,176.8412 Q966.1003,176.8412 965.5967,177.6255 Q965.0932,178.4098 965.0932,179.954 Q965.0932,181.4921 965.5967,182.2764 Q966.1003,183.0607 967.089,183.0607 Q967.5529,183.0607 967.9893,182.8623 Q968.4257,182.664 968.8896,182.2367 Z " fill="#000000"/><text fill="#D8BC00" font-family="Open Sans,Avenir,Nunito,Arial,Helvetica,SansSerif" font-size="12.5" font-weight="bold" lengthAdjust="spacing" textLength="140.625" x="988.2292" y="184.5378">JettySwaggerOpenApi</text><line style="stroke:#5E5E5E;stroke-width:1.5625;" x1="932.8125" x2="1154.6875" y1="195.5078" y2="195.5078"/><ellipse cx="943.2292" cy="230.8777" fill="#84BE84" rx="3.125" ry="3.125" style="stroke:#038048;stroke-width:1.0416666666666667;"/><text fill="#D8BC00" font-family="Open Sans,Avenir,Nunito,Arial,Helvetica,SansSerif" font-size="11.4583" lengthAdjust="spacing" textLength="191.6667" x="954.6875" y="237.7889">JettySwaggerOpenApi(Application)</text><line style="stroke:#5E5E5E;stroke-width:1.0416666666666667;" x1="932.8125" x2="1000" y1="213.7136" y2="213.7136"/><text fill="#D8BC00" font-family="Open Sans,Avenir,Nunito,Arial,Helvetica,SansSerif" font-size="11.4583" lengthAdjust="spacing" textLength="81.25" x="1003.125" y="217.5232">(constructors)</text><line style="stroke:#5E5E5E;stroke-width:1.0416666666666667;" x1="1087.5" x2="1154.6875" y1="213.7136" y2="213.7136"/><!--MD5=[f06aa4b966c851400d51ebc9187f3a70]
class JettySwaggerStaticResources--><rect codeLine="26" fill="#282828" height="83.3781" id="JettySwaggerStaticResources" rx="8.3333" ry="8.3333" style="stroke:#5E5E5E;stroke-width:1.0416666666666667;" width="222.9167" x="422.9167" y="164.1195"/><rect fill="#1B1B1A" height="31.3883" rx="8.3333" ry="8.3333" style="stroke:#1B1B1A;stroke-width:1.0416666666666667;" width="222.9167" x="422.9167" y="164.1195"/><rect fill="#1B1B1A" height="8.3333" style="stroke:#1B1B1A;stroke-width:1.0416666666666667;" width="222.9167" x="422.9167" y="187.1745"/><rect codeLine="26" fill="none" height="83.3781" id="JettySwaggerStaticResources" rx="8.3333" ry="8.3333" style="stroke:#5E5E5E;stroke-width:1.0416666666666667;" width="222.9167" x="422.9167" y="164.1195"/><ellipse cx="437.5" cy="179.8136" fill="#0066CF" rx="10.4167" ry="10.4167" style="stroke:#0086EF;stroke-width:1.0416666666666667;"/><path d="M439.4104,184.2387 Q438.9832,184.4584 438.5132,184.5683 Q438.0432,184.6781 437.5244,184.6781 Q435.6812,184.6781 434.7107,183.4635 Q433.7402,182.2489 433.7402,179.954 Q433.7402,177.653 434.7107,176.4384 Q435.6812,175.2238 437.5244,175.2238 Q438.0432,175.2238 438.5193,175.3337 Q438.9954,175.4435 439.4104,175.6632 L439.4104,177.6652 Q438.9465,177.238 438.5101,177.0396 Q438.0737,176.8412 437.6099,176.8412 Q436.6211,176.8412 436.1176,177.6255 Q435.614,178.4098 435.614,179.954 Q435.614,181.4921 436.1176,182.2764 Q436.6211,183.0607 437.6099,183.0607 Q438.0737,183.0607 438.5101,182.8623 Q438.9465,182.664 439.4104,182.2367 Z " fill="#000000"/><text fill="#D8BC00" font-family="Open Sans,Avenir,Nunito,Arial,Helvetica,SansSerif" font-size="12.5" font-weight="bold" lengthAdjust="spacing" textLength="185.4167" x="454.1667" y="184.5378">JettySwaggerStaticResources</text><line style="stroke:#5E5E5E;stroke-width:1.5625;" x1="423.9583" x2="644.7917" y1="195.5078" y2="195.5078"/><ellipse cx="434.375" cy="230.8777" fill="#84BE84" rx="3.125" ry="3.125" style="stroke:#038048;stroke-width:1.0416666666666667;"/><text fill="#D8BC00" font-family="Open Sans,Avenir,Nunito,Arial,Helvetica,SansSerif" font-size="11.4583" lengthAdjust="spacing" textLength="167.7083" x="445.8333" y="237.7889">JettySwaggerStaticResources()</text><line style="stroke:#5E5E5E;stroke-width:1.0416666666666667;" x1="423.9583" x2="490.625" y1="213.7136" y2="213.7136"/><text fill="#D8BC00" font-family="Open Sans,Avenir,Nunito,Arial,Helvetica,SansSerif" font-size="11.4583" lengthAdjust="spacing" textLength="81.25" x="493.75" y="217.5232">(constructors)</text><line style="stroke:#5E5E5E;stroke-width:1.0416666666666667;" x1="578.125" x2="644.7917" y1="213.7136" y2="213.7136"/><!--MD5=[28d32c63294a752b620ded90e1165b99]
class JettySwaggerWebJar--><rect codeLine="33" fill="#282828" height="83.3781" id="JettySwaggerWebJar" rx="8.3333" ry="8.3333" style="stroke:#5E5E5E;stroke-width:1.0416666666666667;" width="212.5" x="682.2917" y="164.1195"/><rect fill="#1B1B1A" height="31.3883" rx="8.3333" ry="8.3333" style="stroke:#1B1B1A;stroke-width:1.0416666666666667;" width="212.5" x="682.2917" y="164.1195"/><rect fill="#1B1B1A" height="8.3333" style="stroke:#1B1B1A;stroke-width:1.0416666666666667;" width="212.5" x="682.2917" y="187.1745"/><rect codeLine="33" fill="none" height="83.3781" id="JettySwaggerWebJar" rx="8.3333" ry="8.3333" style="stroke:#5E5E5E;stroke-width:1.0416666666666667;" width="212.5" x="682.2917" y="164.1195"/><ellipse cx="717.5" cy="179.8136" fill="#0066CF" rx="10.4167" ry="10.4167" style="stroke:#0086EF;stroke-width:1.0416666666666667;"/><path d="M719.4104,184.2387 Q718.9832,184.4584 718.5132,184.5683 Q718.0432,184.6781 717.5244,184.6781 Q715.6812,184.6781 714.7107,183.4635 Q713.7402,182.2489 713.7402,179.954 Q713.7402,177.653 714.7107,176.4384 Q715.6812,175.2238 717.5244,175.2238 Q718.0432,175.2238 718.5193,175.3337 Q718.9954,175.4435 719.4104,175.6632 L719.4104,177.6652 Q718.9465,177.238 718.5101,177.0396 Q718.0737,176.8412 717.6099,176.8412 Q716.6211,176.8412 716.1176,177.6255 Q715.614,178.4098 715.614,179.954 Q715.614,181.4921 716.1176,182.2764 Q716.6211,183.0607 717.6099,183.0607 Q718.0737,183.0607 718.5101,182.8623 Q718.9465,182.664 719.4104,182.2367 Z " fill="#000000"/><text fill="#D8BC00" font-family="Open Sans,Avenir,Nunito,Arial,Helvetica,SansSerif" font-size="12.5" font-weight="bold" lengthAdjust="spacing" textLength="129.1667" x="738.75" y="184.5378">JettySwaggerWebJar</text><line style="stroke:#5E5E5E;stroke-width:1.5625;" x1="683.3333" x2="893.75" y1="195.5078" y2="195.5078"/><ellipse cx="693.75" cy="230.8777" fill="#84BE84" rx="3.125" ry="3.125" style="stroke:#038048;stroke-width:1.0416666666666667;"/><text fill="#D8BC00" font-family="Open Sans,Avenir,Nunito,Arial,Helvetica,SansSerif" font-size="11.4583" lengthAdjust="spacing" textLength="180.2083" x="705.2083" y="237.7889">JettySwaggerWebJar(Application)</text><line style="stroke:#5E5E5E;stroke-width:1.0416666666666667;" x1="683.3333" x2="744.7917" y1="213.7136" y2="213.7136"/><text fill="#D8BC00" font-family="Open Sans,Avenir,Nunito,Arial,Helvetica,SansSerif" font-size="11.4583" lengthAdjust="spacing" textLength="81.25" x="747.9167" y="217.5232">(constructors)</text><line style="stroke:#5E5E5E;stroke-width:1.0416666666666667;" x1="832.2917" x2="893.75" y1="213.7136" y2="213.7136"/><!--MD5=[4e613e8ee807fd885a6b07f8f50ddc71]
reverse link HttpServlet to JettySwaggerIndex.IndexServlet--><path codeLine="6" d="M119.7917,122.9528 C119.7917,142.7965 119.7917,165.3799 119.7917,181.7757 " fill="none" id="HttpServlet-backto-JettySwaggerIndex.IndexServlet" style="stroke:#545454;stroke-width:1.5625;"/><polygon fill="none" points="112.5,122.6507,119.7917,101.8174,127.0833,122.6507,112.5,122.6507" style="stroke:#545454;stroke-width:1.5625;"/><!--MD5=[b67077a107001f86299366bf7f2f14cc]
reverse link JettyResource to JettySwaggerIndex--><path codeLine="11" d="M451.0208,96.5153 C434.9271,101.6507 418.5938,108.1195 404.1667,116.2028 C381.8958,128.6715 360.5729,147.1715 343.625,164.0465 " fill="none" id="JettyResource-backto-JettySwaggerIndex" style="stroke:#545454;stroke-width:1.5625;"/><polygon fill="none" points="449.0729,89.484,471.1146,90.7028,453.125,103.4945,449.0729,89.484" style="stroke:#545454;stroke-width:1.5625;"/><!--MD5=[c12923475576d3f9a3940c2c5c203f18]
reverse link JettyServlet to JettySwaggerOpenApi--><path codeLine="18" d="M1043.75,122.682 C1043.75,136.0778 1043.75,150.7445 1043.75,163.9215 " fill="none" id="JettyServlet-backto-JettySwaggerOpenApi" style="stroke:#545454;stroke-width:1.5625;"/><polygon fill="none" points="1036.4583,122.6507,1043.75,101.8174,1051.0417,122.6507,1036.4583,122.6507" style="stroke:#545454;stroke-width:1.5625;"/><!--MD5=[e83af2e0446662d4fb8dd3e390e74f04]
reverse link JettyResource to JettySwaggerStaticResources--><path codeLine="25" d="M534.375,122.682 C534.375,136.0778 534.375,150.7445 534.375,163.9215 " fill="none" id="JettyResource-backto-JettySwaggerStaticResources" style="stroke:#545454;stroke-width:1.5625;"/><polygon fill="none" points="527.0833,122.6507,534.375,101.8174,541.6667,122.6507,527.0833,122.6507" style="stroke:#545454;stroke-width:1.5625;"/><!--MD5=[8f3e4d99f42e50a9ad42a96632666201]
reverse link JettyResource to JettySwaggerWebJar--><path codeLine="32" d="M617.7604,98.1403 C633.6667,103.1195 649.9271,109.1195 664.5833,116.2028 C691.0104,128.984 717.8229,147.3278 739.7292,164.0049 " fill="none" id="JettyResource-backto-JettySwaggerWebJar" style="stroke:#545454;stroke-width:1.5625;"/><polygon fill="none" points="615.5417,105.0882,597.5625,92.2757,619.6042,91.0882,615.5417,105.0882" style="stroke:#545454;stroke-width:1.5625;"/><!--MD5=[3dfb3b01654a8f6f4e76f626cea727ef]
@startuml

    !include ../lexakai/lexakai.theme
    
    title "com.telenav.kivakit.web.swagger"
    
    HttpServlet <|- - JettySwaggerIndex.IndexServlet
    class JettySwaggerIndex.IndexServlet
    {
    }
    
    JettyResource <|- - JettySwaggerIndex
    class JettySwaggerIndex
    {
        - -(constructors)- -
        +JettySwaggerIndex(int)
    }
    
    JettyServlet <|- - JettySwaggerOpenApi
    class JettySwaggerOpenApi
    {
        - -(constructors)- -
        +JettySwaggerOpenApi(Application)
    }
    
    JettyResource <|- - JettySwaggerStaticResources
    class JettySwaggerStaticResources
    {
        - -(constructors)- -
        +JettySwaggerStaticResources()
    }
    
    JettyResource <|- - JettySwaggerWebJar
    class JettySwaggerWebJar
    {
        - -(constructors)- -
        +JettySwaggerWebJar(Application)
    }
    
@enduml

@startuml









skinparam backgroundColor #333333






skinparam  {
    defaultFontName   "Open Sans,Avenir,Nunito,Arial,Helvetica,SansSerif"
    defaultFontSize   12
    defaultTextAlignment left
    shadowing false
    RoundCorner 10
    TitleFontSize 18
}

skinparam defaultFontName       "Open Sans,Avenir,Nunito,Arial,Helvetica,SansSerif"
skinparam defaultFontSize       12
skinparam dpi                   100
skinparam shadowing             false
skinparam roundcorner           16
skinparam ParticipantPadding    40
skinparam BoxPadding            40
skinparam Padding               3
skinparam ArrowColor            #545454
skinparam stereotype {
    CBackgroundColor #0066cf
    CBorderColor #0086ef
    ABackgroundColor #C8Ac00
    ABorderColor #D8Bc00
    IBackgroundColor #008400
    IBorderColor #239c23
    EBackgroundColor #cf6300
    EBorderColor #ef8300
    NBackgroundColor #3380b9
    NBorderColor #004d86
}
skinparam title {
	FontColor	                 #c0c0c0
 	BorderColor                  #545454
	FontSize	    	         20
	BorderRoundCorner            16
	BorderThickness 	         1
	BackgroundColor              #48494b
}


skinparam legend {
	BackgroundColor #303030
	BorderColor #404040
	FontColor #a0a0a0
}

	skinparam swimlane {
	BorderColor #5e5e5e
	BorderThickness 2
	TitleBackgroundColor  #6d6d6d-#484848
	TitleFontColor #303030
}

skinparam activity {
		FontColor #C8Ac00
	BorderColor #333333
	BackgroundColor #333333-#333333
	BarColor #00FF00
	StartColor #0060a8
	EndColor #0060a8
	DiamondBackgroundColor #6d6d6d-#3a3a3a
  	DiamondBorderColor #3a3a3a
  	DiamondFontColor #fefefe
}


skinparam participant {
		FontColor #C8Ac00
	BorderColor #333333
	BackgroundColor #333333-#333333
	ParticipantBorderThickness 2
}


skinparam actor {
		FontColor #C8Ac00
	BorderColor #333333
	BackgroundColor #333333-#333333
}


skinparam arrow {
	Thickness 1.5
	Color #545454
	FontColor #a0a0a0
    FontStyle bold
    MessageAlignment center
}



skinparam sequence {
	BorderColor #303030
	TitleFontColor #303030
	BackgroundColor #333333
	StartColor #303030
	EndColor #303030
	BoxBackgroundColor #333333
	BoxBorderColor #484848
	BoxFontColor #484848
	LifeLineBorderColor #484848
	LifeLineBorderThickness 2
	LifeLineBackgroundColor #3a3a3a
	GroupBorderColor #484848
	GroupFontColor #484848
	GroupHeaderFontColor #0060a8
	GroupBackgroundColor #484848
	GroupHeaderBackgroundColor #333333
	DividerBackgroundColor #484848
    DividerBorderColor #484848
    DividerBorderThickness 2
    DividerFontColor #D8Bc00
	ReferenceBackgroundColor #333333
	ReferenceBorderColor #484848
	ReferenceFontColor #fefefe
	ReferenceHeaderBackgroundColor #484848
}


skinparam partition {
	BorderColor #303030
	FontColor #333333
	BackgroundColor #333333
}


skinparam collections {
		FontColor #C8Ac00
	BorderColor #333333
	BackgroundColor #333333-#333333
}


skinparam control {
		FontColor #C8Ac00
	BorderColor #333333
	BackgroundColor #333333-#333333
}


skinparam entity {
		FontColor #C8Ac00
	BorderColor #333333
	BackgroundColor #333333-#333333
}


skinparam boundary {
		FontColor #C8Ac00
	BorderColor #333333
	BackgroundColor #333333-#333333
}


skinparam agent {
	BackgroundColor #ff8000
	BorderColor #ff9933
	FontColor #484848
}


skinparam note {
	BorderThickness 1
	BackgroundColor #1b1b1a
	BorderColor #5e5e5e
	FontSize 11
	FontColor #a0a0a0
}


skinparam artifact {
	BorderThickness 10
	BorderColor #5e5e5e
	BackgroundColor #1b1b1a
	FontColor #D8Bc00
}


skinparam component {
		FontColor #C8Ac00
	BorderColor #333333
	BackgroundColor #333333-#333333
}


skinparam interface {
	BackgroundColor  #008400
	BorderColor  #007F00
	FontColor #484848
}


skinparam storage {
	BackgroundColor #ff8000
  	BorderColor #cc6600
	FontColor #222222
}


skinparam node {
	BackgroundColor #333333
	BorderColor #333333
	FontColor #C8Ac00
}


skinparam cloud {
	BackgroundColor #484848-black
	BorderColor #484848
	FontColor #D8Bc00
}


skinparam database {
		FontColor #C8Ac00
	BorderColor #333333
	BackgroundColor #333333-#333333
	BackgroundColor  #333333
}


skinparam class {
		FontColor #C8Ac00
	BorderColor #333333
	BackgroundColor #333333-#333333
	HeaderBackgroundColor #1b1b1a
    BackgroundColor #282828
    BorderColor #5e5e5e
 	StereotypeFontColor #a0a0a0
    StereotypeFontStyle bold
	BorderThickness 1
	AttributeFontColor #D8Bc00
	AttributeFontSize 11
    FontColor #D8Bc00
    FontStyle bold
}


skinparam object {
		FontColor #C8Ac00
	BorderColor #333333
	BackgroundColor #333333-#333333
	StereotypeFontColor #484848
	BorderThickness 1
	AttributeFontColor #fefefe
	AttributeFontSize 11
}


skinparam usecase {
		FontColor #C8Ac00
	BorderColor #333333
	BackgroundColor #333333-#333333
	BorderThickness 2
	StereotypeFontColor #303030
}


skinparam rectangle {
		FontColor #C8Ac00
	BorderColor #333333
	BackgroundColor #333333-#333333
	BackgroundColor #333333
	BorderThickness 2
	StereotypeFontColor #303030
}


skinparam package {
		FontColor #C8Ac00
	BorderColor #333333
	BackgroundColor #333333-#333333
	BackgroundColor #333333
	BorderThickness 2
}


skinparam folder {
	BackgroundColor #6d6d6d
  	BorderColor #ff8000
	FontColor #ff8000
	BorderThickness 2
}


skinparam frame {
	BackgroundColor #6d6d6d
  	BorderColor #0060a8
	FontColor #0060a8
	BorderThickness 2
}


skinparam state {
		FontColor #C8Ac00
	BorderColor #333333
	BackgroundColor #333333-#333333
	StartColor #0060a8
	EndColor #0060a8
	AttributeFontColor #fefefe
	AttributeFontSize 11
}


skinparam queue {
		FontColor #C8Ac00
	BorderColor #333333
	BackgroundColor #333333-#333333
}


skinparam card {
	BackgroundColor #0060a8
	BorderColor #004d86
	FontColor $INFO_TEXT
}


skinparam file {
	BackgroundColor #6d6d6d-#484848
	BorderColor #0060a8
	FontColor #fefefe
}


skinparam stack {
		FontColor #C8Ac00
	BorderColor #333333
	BackgroundColor #333333-#333333
}

    
    title "com.telenav.kivakit.web.swagger"
    
    HttpServlet <|- - JettySwaggerIndex.IndexServlet
    class JettySwaggerIndex.IndexServlet
    {
    }
    
    JettyResource <|- - JettySwaggerIndex
    class JettySwaggerIndex
    {
        - -(constructors)- -
        +JettySwaggerIndex(int)
    }
    
    JettyServlet <|- - JettySwaggerOpenApi
    class JettySwaggerOpenApi
    {
        - -(constructors)- -
        +JettySwaggerOpenApi(Application)
    }
    
    JettyResource <|- - JettySwaggerStaticResources
    class JettySwaggerStaticResources
    {
        - -(constructors)- -
        +JettySwaggerStaticResources()
    }
    
    JettyResource <|- - JettySwaggerWebJar
    class JettySwaggerWebJar
    {
        - -(constructors)- -
        +JettySwaggerWebJar(Application)
    }
    
@enduml

PlantUML version 1.2021.01(Tue Feb 02 00:55:08 MST 2021)
(GPL source distribution)
Java Runtime: Java(TM) SE Runtime Environment
JVM: Java HotSpot(TM) 64-Bit Server VM
Default Encoding: UTF-8
Language: en
Country: US
--></g></svg>