<?xml version="1.0" encoding="UTF-8" standalone="no"?><svg xmlns="http://www.w3.org/2000/svg" xmlns:xlink="http://www.w3.org/1999/xlink" contentScriptType="application/ecmascript" contentStyleType="text/css" height="261.4583px" preserveAspectRatio="none" style="width:1165px;height:261px;background:#333333;" version="1.1" viewBox="0 0 1165 261" width="1165.625px" zoomAndPan="magnify"><defs/><g><rect fill="#48494B" height="41.2028" rx="8.3333" ry="8.3333" style="stroke:#545454;stroke-width:1.0416666666666667;" width="351.0417" x="400.2604" y="2.0833"/><text fill="#C0C0C0" font-family="Open Sans,Avenir,Nunito,Arial,Helvetica,SansSerif" font-size="20.8333" lengthAdjust="spacing" textLength="328.125" x="411.7188" y="30.5583">com.telenav.kivakit.web.swagger</text><!--MD5=[8454f78d39087bda2a2448b1a4f41e7d]
cluster JettySwaggerIndex--><polygon fill="#333333" points="961.9792,132.8695,1094.2708,132.8695,1101.5625,160.0911,1148.4375,160.0911,1148.4375,254.7445,961.9792,254.7445,961.9792,132.8695" style="stroke:#333333;stroke-width:2.0833333333333335;"/><line style="stroke:#333333;stroke-width:2.0833333333333335;" x1="961.9792" x2="1101.5625" y1="160.0911" y2="160.0911"/><text fill="#C8AC00" font-family="Open Sans,Avenir,Nunito,Arial,Helvetica,SansSerif" font-size="12.5" font-weight="bold" lengthAdjust="spacing" textLength="119.7917" x="969.2708" y="150.1628">JettySwaggerIndex</text><!--MD5=[0c446884e6cf300ba09c00836c9033cb]
class JettySwaggerIndex.IndexServlet--><rect codeLine="10" fill="#282828" height="48.055" id="JettySwaggerIndex.IndexServlet" rx="8.3333" ry="8.3333" style="stroke:#5E5E5E;stroke-width:1.0416666666666667;" width="116.6667" x="1006.7708" y="181.8278"/><rect fill="#1B1B1A" height="31.3883" rx="8.3333" ry="8.3333" style="stroke:#1B1B1A;stroke-width:1.0416666666666667;" width="116.6667" x="1006.7708" y="181.8278"/><rect fill="#1B1B1A" height="8.3333" style="stroke:#1B1B1A;stroke-width:1.0416666666666667;" width="116.6667" x="1006.7708" y="204.8828"/><rect codeLine="10" fill="none" height="48.055" id="JettySwaggerIndex.IndexServlet" rx="8.3333" ry="8.3333" style="stroke:#5E5E5E;stroke-width:1.0416666666666667;" width="116.6667" x="1006.7708" y="181.8278"/><ellipse cx="1021.3542" cy="197.522" fill="#0066CF" rx="10.4167" ry="10.4167" style="stroke:#0086EF;stroke-width:1.0416666666666667;"/><path d="M1023.2646,201.947 Q1022.8373,202.1667 1022.3674,202.2766 Q1021.8974,202.3865 1021.3786,202.3865 Q1019.5353,202.3865 1018.5649,201.1719 Q1017.5944,199.9573 1017.5944,197.6624 Q1017.5944,195.3613 1018.5649,194.1467 Q1019.5353,192.9321 1021.3786,192.9321 Q1021.8974,192.9321 1022.3735,193.042 Q1022.8495,193.1519 1023.2646,193.3716 L1023.2646,195.3735 Q1022.8007,194.9463 1022.3643,194.7479 Q1021.9279,194.5496 1021.464,194.5496 Q1020.4753,194.5496 1019.9717,195.3339 Q1019.4682,196.1182 1019.4682,197.6624 Q1019.4682,199.2004 1019.9717,199.9847 Q1020.4753,200.769 1021.464,200.769 Q1021.9279,200.769 1022.3643,200.5707 Q1022.8007,200.3723 1023.2646,199.9451 Z " fill="#000000"/><text fill="#D8BC00" font-family="Open Sans,Avenir,Nunito,Arial,Helvetica,SansSerif" font-size="12.5" font-weight="bold" lengthAdjust="spacing" textLength="79.1667" x="1038.0208" y="202.2461">IndexServlet</text><line style="stroke:#5E5E5E;stroke-width:1.0416666666666667;" x1="1007.8125" x2="1122.3958" y1="213.2161" y2="213.2161"/><line style="stroke:#5E5E5E;stroke-width:1.0416666666666667;" x1="1007.8125" x2="1122.3958" y1="221.5495" y2="221.5495"/><!--MD5=[9e3c317e9bfc85db7837d23c55ced366]
class BaseJettyServlet--><rect codeLine="6" fill="#282828" height="48.055" id="BaseJettyServlet" rx="8.3333" ry="8.3333" style="stroke:#5E5E5E;stroke-width:1.0416666666666667;" width="141.6667" x="48.4375" y="53.7028"/><rect fill="#1B1B1A" height="31.3883" rx="8.3333" ry="8.3333" style="stroke:#1B1B1A;stroke-width:1.0416666666666667;" width="141.6667" x="48.4375" y="53.7028"/><rect fill="#1B1B1A" height="8.3333" style="stroke:#1B1B1A;stroke-width:1.0416666666666667;" width="141.6667" x="48.4375" y="76.7578"/><rect codeLine="6" fill="none" height="48.055" id="BaseJettyServlet" rx="8.3333" ry="8.3333" style="stroke:#5E5E5E;stroke-width:1.0416666666666667;" width="141.6667" x="48.4375" y="53.7028"/><ellipse cx="63.0208" cy="69.397" fill="#C8AC00" rx="10.4167" ry="10.4167" style="stroke:#D8BC00;stroke-width:1.0416666666666667;"/><path d="M63.1348,66.099 L62.2864,69.8283 L63.9893,69.8283 Z M62.0361,64.4511 L64.2395,64.4511 L66.6992,73.5636 L64.8987,73.5636 L64.3372,71.3114 L61.9263,71.3114 L61.377,73.5636 L59.5764,73.5636 Z " fill="#000000"/><text fill="#D8BC00" font-family="Open Sans,Avenir,Nunito,Arial,Helvetica,SansSerif" font-size="12.5" font-style="italic" font-weight="bold" lengthAdjust="spacing" textLength="104.1667" x="79.6875" y="74.1211">BaseJettyServlet</text><line style="stroke:#5E5E5E;stroke-width:1.0416666666666667;" x1="49.4792" x2="189.0625" y1="85.0911" y2="85.0911"/><line style="stroke:#5E5E5E;stroke-width:1.0416666666666667;" x1="49.4792" x2="189.0625" y1="93.4245" y2="93.4245"/><!--MD5=[7635bf16d61b2b7f389dfd19b33f7dbc]
class BaseJettyResource--><rect codeLine="7" fill="#282828" height="48.055" id="BaseJettyResource" rx="8.3333" ry="8.3333" style="stroke:#5E5E5E;stroke-width:1.0416666666666667;" width="156.25" x="495.3125" y="53.7028"/><rect fill="#1B1B1A" height="31.3883" rx="8.3333" ry="8.3333" style="stroke:#1B1B1A;stroke-width:1.0416666666666667;" width="156.25" x="495.3125" y="53.7028"/><rect fill="#1B1B1A" height="8.3333" style="stroke:#1B1B1A;stroke-width:1.0416666666666667;" width="156.25" x="495.3125" y="76.7578"/><rect codeLine="7" fill="none" height="48.055" id="BaseJettyResource" rx="8.3333" ry="8.3333" style="stroke:#5E5E5E;stroke-width:1.0416666666666667;" width="156.25" x="495.3125" y="53.7028"/><ellipse cx="509.8958" cy="69.397" fill="#C8AC00" rx="10.4167" ry="10.4167" style="stroke:#D8BC00;stroke-width:1.0416666666666667;"/><path d="M510.0098,66.099 L509.1614,69.8283 L510.8643,69.8283 Z M508.9111,64.4511 L511.1145,64.4511 L513.5742,73.5636 L511.7737,73.5636 L511.2122,71.3114 L508.8013,71.3114 L508.252,73.5636 L506.4514,73.5636 Z " fill="#000000"/><text fill="#D8BC00" font-family="Open Sans,Avenir,Nunito,Arial,Helvetica,SansSerif" font-size="12.5" font-style="italic" font-weight="bold" lengthAdjust="spacing" textLength="118.75" x="526.5625" y="74.1211">BaseJettyResource</text><line style="stroke:#5E5E5E;stroke-width:1.0416666666666667;" x1="496.3542" x2="650.5208" y1="85.0911" y2="85.0911"/><line style="stroke:#5E5E5E;stroke-width:1.0416666666666667;" x1="496.3542" x2="650.5208" y1="93.4245" y2="93.4245"/><!--MD5=[97579af86a7440af5e74c6047349c48c]
class HttpServlet--><rect fill="#282828" height="48.055" id="HttpServlet" rx="8.3333" ry="8.3333" style="stroke:#5E5E5E;stroke-width:1.0416666666666667;" width="109.375" x="1010.4167" y="53.7028"/><rect fill="#1B1B1A" height="31.3883" rx="8.3333" ry="8.3333" style="stroke:#1B1B1A;stroke-width:1.0416666666666667;" width="109.375" x="1010.4167" y="53.7028"/><rect fill="#1B1B1A" height="8.3333" style="stroke:#1B1B1A;stroke-width:1.0416666666666667;" width="109.375" x="1010.4167" y="76.7578"/><rect fill="none" height="48.055" id="HttpServlet" rx="8.3333" ry="8.3333" style="stroke:#5E5E5E;stroke-width:1.0416666666666667;" width="109.375" x="1010.4167" y="53.7028"/><ellipse cx="1025" cy="69.397" fill="#0066CF" rx="10.4167" ry="10.4167" style="stroke:#0086EF;stroke-width:1.0416666666666667;"/><path d="M1026.9104,73.822 Q1026.4832,74.0417 1026.0132,74.1516 Q1025.5432,74.2615 1025.0244,74.2615 Q1023.1812,74.2615 1022.2107,73.0469 Q1021.2402,71.8323 1021.2402,69.5374 Q1021.2402,67.2363 1022.2107,66.0217 Q1023.1812,64.8071 1025.0244,64.8071 Q1025.5432,64.8071 1026.0193,64.917 Q1026.4954,65.0269 1026.9104,65.2466 L1026.9104,67.2485 Q1026.4465,66.8213 1026.0101,66.6229 Q1025.5737,66.4246 1025.1099,66.4246 Q1024.1211,66.4246 1023.6176,67.2089 Q1023.114,67.9932 1023.114,69.5374 Q1023.114,71.0754 1023.6176,71.8597 Q1024.1211,72.644 1025.1099,72.644 Q1025.5737,72.644 1026.0101,72.4457 Q1026.4465,72.2473 1026.9104,71.8201 Z " fill="#000000"/><text fill="#D8BC00" font-family="Open Sans,Avenir,Nunito,Arial,Helvetica,SansSerif" font-size="12.5" font-weight="bold" lengthAdjust="spacing" textLength="71.875" x="1041.6667" y="74.1211">HttpServlet</text><line style="stroke:#5E5E5E;stroke-width:1.0416666666666667;" x1="1011.4583" x2="1118.75" y1="85.0911" y2="85.0911"/><line style="stroke:#5E5E5E;stroke-width:1.0416666666666667;" x1="1011.4583" x2="1118.75" y1="93.4245" y2="93.4245"/><!--MD5=[d525bcc7f3173907679d17b632dc650d]
class JettySwaggerIndex--><rect codeLine="15" fill="#282828" height="83.3781" id="JettySwaggerIndex" rx="8.3333" ry="8.3333" style="stroke:#5E5E5E;stroke-width:1.0416666666666667;" width="157.2917" x="267.7083" y="164.1195"/><rect fill="#1B1B1A" height="31.3883" rx="8.3333" ry="8.3333" style="stroke:#1B1B1A;stroke-width:1.0416666666666667;" width="157.2917" x="267.7083" y="164.1195"/><rect fill="#1B1B1A" height="8.3333" style="stroke:#1B1B1A;stroke-width:1.0416666666666667;" width="157.2917" x="267.7083" y="187.1745"/><rect codeLine="15" fill="none" height="83.3781" id="JettySwaggerIndex" rx="8.3333" ry="8.3333" style="stroke:#5E5E5E;stroke-width:1.0416666666666667;" width="157.2917" x="267.7083" y="164.1195"/><ellipse cx="282.2917" cy="179.8136" fill="#0066CF" rx="10.4167" ry="10.4167" style="stroke:#0086EF;stroke-width:1.0416666666666667;"/><path d="M284.2021,184.2387 Q283.7748,184.4584 283.3049,184.5683 Q282.8349,184.6781 282.3161,184.6781 Q280.4728,184.6781 279.5024,183.4635 Q278.5319,182.2489 278.5319,179.954 Q278.5319,177.653 279.5024,176.4384 Q280.4728,175.2238 282.3161,175.2238 Q282.8349,175.2238 283.311,175.3337 Q283.787,175.4435 284.2021,175.6632 L284.2021,177.6652 Q283.7382,177.238 283.3018,177.0396 Q282.8654,176.8412 282.4015,176.8412 Q281.4128,176.8412 280.9092,177.6255 Q280.4057,178.4098 280.4057,179.954 Q280.4057,181.4921 280.9092,182.2764 Q281.4128,183.0607 282.4015,183.0607 Q282.8654,183.0607 283.3018,182.8623 Q283.7382,182.664 284.2021,182.2367 Z " fill="#000000"/><text fill="#D8BC00" font-family="Open Sans,Avenir,Nunito,Arial,Helvetica,SansSerif" font-size="12.5" font-weight="bold" lengthAdjust="spacing" textLength="119.7917" x="298.9583" y="184.5378">JettySwaggerIndex</text><line style="stroke:#5E5E5E;stroke-width:1.5625;" x1="268.75" x2="423.9583" y1="195.5078" y2="195.5078"/><ellipse cx="279.1667" cy="230.8777" fill="#84BE84" rx="3.125" ry="3.125" style="stroke:#038048;stroke-width:1.0416666666666667;"/><text fill="#D8BC00" font-family="Open Sans,Avenir,Nunito,Arial,Helvetica,SansSerif" font-size="11.4583" lengthAdjust="spacing" textLength="125" x="290.625" y="237.7889">JettySwaggerIndex(int)</text><line style="stroke:#5E5E5E;stroke-width:1.0416666666666667;" x1="268.75" x2="302.6042" y1="213.7136" y2="213.7136"/><text fill="#D8BC00" font-family="Open Sans,Avenir,Nunito,Arial,Helvetica,SansSerif" font-size="11.4583" lengthAdjust="spacing" textLength="81.25" x="305.7292" y="217.5232">(constructors)</text><line style="stroke:#5E5E5E;stroke-width:1.0416666666666667;" x1="390.1042" x2="423.9583" y1="213.7136" y2="213.7136"/><!--MD5=[ca3a45808c7325fe9eeba654d4bec00a]
class JettySwaggerOpenApi--><rect codeLine="22" fill="#282828" height="83.3781" id="JettySwaggerOpenApi" rx="8.3333" ry="8.3333" style="stroke:#5E5E5E;stroke-width:1.0416666666666667;" width="223.9583" x="7.2917" y="164.1195"/><rect fill="#1B1B1A" height="31.3883" rx="8.3333" ry="8.3333" style="stroke:#1B1B1A;stroke-width:1.0416666666666667;" width="223.9583" x="7.2917" y="164.1195"/><rect fill="#1B1B1A" height="8.3333" style="stroke:#1B1B1A;stroke-width:1.0416666666666667;" width="223.9583" x="7.2917" y="187.1745"/><rect codeLine="22" fill="none" height="83.3781" id="JettySwaggerOpenApi" rx="8.3333" ry="8.3333" style="stroke:#5E5E5E;stroke-width:1.0416666666666667;" width="223.9583" x="7.2917" y="164.1195"/><ellipse cx="42.5" cy="179.8136" fill="#0066CF" rx="10.4167" ry="10.4167" style="stroke:#0086EF;stroke-width:1.0416666666666667;"/><path d="M44.4104,184.2387 Q43.9832,184.4584 43.5132,184.5683 Q43.0432,184.6781 42.5244,184.6781 Q40.6812,184.6781 39.7107,183.4635 Q38.7402,182.2489 38.7402,179.954 Q38.7402,177.653 39.7107,176.4384 Q40.6812,175.2238 42.5244,175.2238 Q43.0432,175.2238 43.5193,175.3337 Q43.9954,175.4435 44.4104,175.6632 L44.4104,177.6652 Q43.9465,177.238 43.5101,177.0396 Q43.0737,176.8412 42.6099,176.8412 Q41.6211,176.8412 41.1176,177.6255 Q40.614,178.4098 40.614,179.954 Q40.614,181.4921 41.1176,182.2764 Q41.6211,183.0607 42.6099,183.0607 Q43.0737,183.0607 43.5101,182.8623 Q43.9465,182.664 44.4104,182.2367 Z " fill="#000000"/><text fill="#D8BC00" font-family="Open Sans,Avenir,Nunito,Arial,Helvetica,SansSerif" font-size="12.5" font-weight="bold" lengthAdjust="spacing" textLength="140.625" x="63.75" y="184.5378">JettySwaggerOpenApi</text><line style="stroke:#5E5E5E;stroke-width:1.5625;" x1="8.3333" x2="230.2083" y1="195.5078" y2="195.5078"/><ellipse cx="18.75" cy="230.8777" fill="#84BE84" rx="3.125" ry="3.125" style="stroke:#038048;stroke-width:1.0416666666666667;"/><text fill="#D8BC00" font-family="Open Sans,Avenir,Nunito,Arial,Helvetica,SansSerif" font-size="11.4583" lengthAdjust="spacing" textLength="191.6667" x="30.2083" y="237.7889">JettySwaggerOpenApi(Application)</text><line style="stroke:#5E5E5E;stroke-width:1.0416666666666667;" x1="8.3333" x2="75.5208" y1="213.7136" y2="213.7136"/><text fill="#D8BC00" font-family="Open Sans,Avenir,Nunito,Arial,Helvetica,SansSerif" font-size="11.4583" lengthAdjust="spacing" textLength="81.25" x="78.6458" y="217.5232">(constructors)</text><line style="stroke:#5E5E5E;stroke-width:1.0416666666666667;" x1="163.0208" x2="230.2083" y1="213.7136" y2="213.7136"/><!--MD5=[f06aa4b966c851400d51ebc9187f3a70]
class JettySwaggerStaticResources--><rect codeLine="29" fill="#282828" height="83.3781" id="JettySwaggerStaticResources" rx="8.3333" ry="8.3333" style="stroke:#5E5E5E;stroke-width:1.0416666666666667;" width="222.9167" x="461.9792" y="164.1195"/><rect fill="#1B1B1A" height="31.3883" rx="8.3333" ry="8.3333" style="stroke:#1B1B1A;stroke-width:1.0416666666666667;" width="222.9167" x="461.9792" y="164.1195"/><rect fill="#1B1B1A" height="8.3333" style="stroke:#1B1B1A;stroke-width:1.0416666666666667;" width="222.9167" x="461.9792" y="187.1745"/><rect codeLine="29" fill="none" height="83.3781" id="JettySwaggerStaticResources" rx="8.3333" ry="8.3333" style="stroke:#5E5E5E;stroke-width:1.0416666666666667;" width="222.9167" x="461.9792" y="164.1195"/><ellipse cx="476.5625" cy="179.8136" fill="#0066CF" rx="10.4167" ry="10.4167" style="stroke:#0086EF;stroke-width:1.0416666666666667;"/><path d="M478.4729,184.2387 Q478.0457,184.4584 477.5757,184.5683 Q477.1057,184.6781 476.5869,184.6781 Q474.7437,184.6781 473.7732,183.4635 Q472.8027,182.2489 472.8027,179.954 Q472.8027,177.653 473.7732,176.4384 Q474.7437,175.2238 476.5869,175.2238 Q477.1057,175.2238 477.5818,175.3337 Q478.0579,175.4435 478.4729,175.6632 L478.4729,177.6652 Q478.009,177.238 477.5726,177.0396 Q477.1362,176.8412 476.6724,176.8412 Q475.6836,176.8412 475.1801,177.6255 Q474.6765,178.4098 474.6765,179.954 Q474.6765,181.4921 475.1801,182.2764 Q475.6836,183.0607 476.6724,183.0607 Q477.1362,183.0607 477.5726,182.8623 Q478.009,182.664 478.4729,182.2367 Z " fill="#000000"/><text fill="#D8BC00" font-family="Open Sans,Avenir,Nunito,Arial,Helvetica,SansSerif" font-size="12.5" font-weight="bold" lengthAdjust="spacing" textLength="185.4167" x="493.2292" y="184.5378">JettySwaggerStaticResources</text><line style="stroke:#5E5E5E;stroke-width:1.5625;" x1="463.0208" x2="683.8542" y1="195.5078" y2="195.5078"/><ellipse cx="473.4375" cy="230.8777" fill="#84BE84" rx="3.125" ry="3.125" style="stroke:#038048;stroke-width:1.0416666666666667;"/><text fill="#D8BC00" font-family="Open Sans,Avenir,Nunito,Arial,Helvetica,SansSerif" font-size="11.4583" lengthAdjust="spacing" textLength="167.7083" x="484.8958" y="237.7889">JettySwaggerStaticResources()</text><line style="stroke:#5E5E5E;stroke-width:1.0416666666666667;" x1="463.0208" x2="529.6875" y1="213.7136" y2="213.7136"/><text fill="#D8BC00" font-family="Open Sans,Avenir,Nunito,Arial,Helvetica,SansSerif" font-size="11.4583" lengthAdjust="spacing" textLength="81.25" x="532.8125" y="217.5232">(constructors)</text><line style="stroke:#5E5E5E;stroke-width:1.0416666666666667;" x1="617.1875" x2="683.8542" y1="213.7136" y2="213.7136"/><!--MD5=[28d32c63294a752b620ded90e1165b99]
class JettySwaggerWebJar--><rect codeLine="36" fill="#282828" height="83.3781" id="JettySwaggerWebJar" rx="8.3333" ry="8.3333" style="stroke:#5E5E5E;stroke-width:1.0416666666666667;" width="212.5" x="721.3542" y="164.1195"/><rect fill="#1B1B1A" height="31.3883" rx="8.3333" ry="8.3333" style="stroke:#1B1B1A;stroke-width:1.0416666666666667;" width="212.5" x="721.3542" y="164.1195"/><rect fill="#1B1B1A" height="8.3333" style="stroke:#1B1B1A;stroke-width:1.0416666666666667;" width="212.5" x="721.3542" y="187.1745"/><rect codeLine="36" fill="none" height="83.3781" id="JettySwaggerWebJar" rx="8.3333" ry="8.3333" style="stroke:#5E5E5E;stroke-width:1.0416666666666667;" width="212.5" x="721.3542" y="164.1195"/><ellipse cx="756.5625" cy="179.8136" fill="#0066CF" rx="10.4167" ry="10.4167" style="stroke:#0086EF;stroke-width:1.0416666666666667;"/><path d="M758.4729,184.2387 Q758.0457,184.4584 757.5757,184.5683 Q757.1057,184.6781 756.5869,184.6781 Q754.7437,184.6781 753.7732,183.4635 Q752.8027,182.2489 752.8027,179.954 Q752.8027,177.653 753.7732,176.4384 Q754.7437,175.2238 756.5869,175.2238 Q757.1057,175.2238 757.5818,175.3337 Q758.0579,175.4435 758.4729,175.6632 L758.4729,177.6652 Q758.009,177.238 757.5726,177.0396 Q757.1362,176.8412 756.6724,176.8412 Q755.6836,176.8412 755.1801,177.6255 Q754.6765,178.4098 754.6765,179.954 Q754.6765,181.4921 755.1801,182.2764 Q755.6836,183.0607 756.6724,183.0607 Q757.1362,183.0607 757.5726,182.8623 Q758.009,182.664 758.4729,182.2367 Z " fill="#000000"/><text fill="#D8BC00" font-family="Open Sans,Avenir,Nunito,Arial,Helvetica,SansSerif" font-size="12.5" font-weight="bold" lengthAdjust="spacing" textLength="129.1667" x="777.8125" y="184.5378">JettySwaggerWebJar</text><line style="stroke:#5E5E5E;stroke-width:1.5625;" x1="722.3958" x2="932.8125" y1="195.5078" y2="195.5078"/><ellipse cx="732.8125" cy="230.8777" fill="#84BE84" rx="3.125" ry="3.125" style="stroke:#038048;stroke-width:1.0416666666666667;"/><text fill="#D8BC00" font-family="Open Sans,Avenir,Nunito,Arial,Helvetica,SansSerif" font-size="11.4583" lengthAdjust="spacing" textLength="180.2083" x="744.2708" y="237.7889">JettySwaggerWebJar(Application)</text><line style="stroke:#5E5E5E;stroke-width:1.0416666666666667;" x1="722.3958" x2="783.8542" y1="213.7136" y2="213.7136"/><text fill="#D8BC00" font-family="Open Sans,Avenir,Nunito,Arial,Helvetica,SansSerif" font-size="11.4583" lengthAdjust="spacing" textLength="81.25" x="786.9792" y="217.5232">(constructors)</text><line style="stroke:#5E5E5E;stroke-width:1.0416666666666667;" x1="871.3542" x2="932.8125" y1="213.7136" y2="213.7136"/><!--MD5=[4e613e8ee807fd885a6b07f8f50ddc71]
reverse link HttpServlet to JettySwaggerIndex.IndexServlet--><path codeLine="9" d="M1065.1042,122.9528 C1065.1042,142.7965 1065.1042,165.3799 1065.1042,181.7757 " fill="none" id="HttpServlet-backto-JettySwaggerIndex.IndexServlet" style="stroke:#545454;stroke-width:1.5625;"/><polygon fill="none" points="1057.8125,122.6507,1065.1042,101.8174,1072.3958,122.6507,1057.8125,122.6507" style="stroke:#545454;stroke-width:1.5625;"/><!--MD5=[bd81d7f5fe338a1b07bf134f3f4447e8]
reverse link BaseJettyResource to JettySwaggerIndex--><path codeLine="14" d="M475.0521,101.7028 C464.0104,105.8278 453.1667,110.6403 443.2292,116.2028 C420.9583,128.6715 399.6354,147.1715 382.6875,164.0465 " fill="none" id="BaseJettyResource-backto-JettySwaggerIndex" style="stroke:#545454;stroke-width:1.5625;"/><polygon fill="none" points="472.9375,94.7236,495.0104,94.984,477.5938,108.5465,472.9375,94.7236" style="stroke:#545454;stroke-width:1.5625;"/><!--MD5=[285cde4bbd34d0efa742dbd8831ffc5f]
reverse link BaseJettyServlet to JettySwaggerOpenApi--><path codeLine="21" d="M119.2708,122.682 C119.2708,136.0778 119.2708,150.7445 119.2708,163.9215 " fill="none" id="BaseJettyServlet-backto-JettySwaggerOpenApi" style="stroke:#545454;stroke-width:1.5625;"/><polygon fill="none" points="111.9792,122.6507,119.2708,101.8174,126.5625,122.6507,111.9792,122.6507" style="stroke:#545454;stroke-width:1.5625;"/><!--MD5=[0beb771868c68caca28454a1c9af99a0]
reverse link BaseJettyResource to JettySwaggerStaticResources--><path codeLine="28" d="M573.4375,122.682 C573.4375,136.0778 573.4375,150.7445 573.4375,163.9215 " fill="none" id="BaseJettyResource-backto-JettySwaggerStaticResources" style="stroke:#545454;stroke-width:1.5625;"/><polygon fill="none" points="566.1458,122.6507,573.4375,101.8174,580.7292,122.6507,566.1458,122.6507" style="stroke:#545454;stroke-width:1.5625;"/><!--MD5=[e87de4736b3f66cdc3e779d0f9ea4629]
reverse link BaseJettyResource to JettySwaggerWebJar--><path codeLine="35" d="M671.6563,103.4424 C682.2917,107.2236 692.8021,111.4736 702.6042,116.2028 C729.1875,129.0257 756.2188,147.3799 778.3125,164.0465 " fill="none" id="BaseJettyResource-backto-JettySwaggerWebJar" style="stroke:#545454;stroke-width:1.5625;"/><polygon fill="none" points="669.3542,110.359,651.8438,96.9215,673.9167,96.5049,669.3542,110.359" style="stroke:#545454;stroke-width:1.5625;"/><!--MD5=[a48d344b26e7ba0e9c9d5ba61612e3c7]
@startuml

    !include ../lexakai/lexakai.theme
    
    title "com.telenav.kivakit.web.swagger"
    
    abstract BaseJettyServlet
    abstract BaseJettyResource
    
    HttpServlet <|- - JettySwaggerIndex.IndexServlet
    class JettySwaggerIndex.IndexServlet
    {
    }
    
    BaseJettyResource <|- - JettySwaggerIndex
    class JettySwaggerIndex
    {
        - -(constructors)- -
        +JettySwaggerIndex(int)
    }
    
    BaseJettyServlet <|- - JettySwaggerOpenApi
    class JettySwaggerOpenApi
    {
        - -(constructors)- -
        +JettySwaggerOpenApi(Application)
    }
    
    BaseJettyResource <|- - JettySwaggerStaticResources
    class JettySwaggerStaticResources
    {
        - -(constructors)- -
        +JettySwaggerStaticResources()
    }
    
    BaseJettyResource <|- - JettySwaggerWebJar
    class JettySwaggerWebJar
    {
        - -(constructors)- -
        +JettySwaggerWebJar(Application)
    }
    
@enduml

@startuml









skinparam backgroundColor #333333






skinparam  {
    defaultFontName   "Open Sans,Avenir,Nunito,Arial,Helvetica,SansSerif"
    defaultFontSize   12
    defaultTextAlignment left
    shadowing false
    RoundCorner 10
    TitleFontSize 18
}

skinparam defaultFontName       "Open Sans,Avenir,Nunito,Arial,Helvetica,SansSerif"
skinparam defaultFontSize       12
skinparam dpi                   100
skinparam shadowing             false
skinparam roundcorner           16
skinparam ParticipantPadding    40
skinparam BoxPadding            40
skinparam Padding               3
skinparam ArrowColor            #545454
skinparam stereotype {
    CBackgroundColor #0066cf
    CBorderColor #0086ef
    ABackgroundColor #C8Ac00
    ABorderColor #D8Bc00
    IBackgroundColor #008400
    IBorderColor #239c23
    EBackgroundColor #cf6300
    EBorderColor #ef8300
    NBackgroundColor #3380b9
    NBorderColor #004d86
}
skinparam title {
	FontColor	                 #c0c0c0
 	BorderColor                  #545454
	FontSize	    	         20
	BorderRoundCorner            16
	BorderThickness 	         1
	BackgroundColor              #48494b
}


skinparam legend {
	BackgroundColor #303030
	BorderColor #404040
	FontColor #a0a0a0
}

	skinparam swimlane {
	BorderColor #5e5e5e
	BorderThickness 2
	TitleBackgroundColor  #6d6d6d-#484848
	TitleFontColor #303030
}

skinparam activity {
		FontColor #C8Ac00
	BorderColor #333333
	BackgroundColor #333333-#333333
	BarColor #00FF00
	StartColor #0060a8
	EndColor #0060a8
	DiamondBackgroundColor #6d6d6d-#3a3a3a
  	DiamondBorderColor #3a3a3a
  	DiamondFontColor #fefefe
}


skinparam participant {
		FontColor #C8Ac00
	BorderColor #333333
	BackgroundColor #333333-#333333
	ParticipantBorderThickness 2
}


skinparam actor {
		FontColor #C8Ac00
	BorderColor #333333
	BackgroundColor #333333-#333333
}


skinparam arrow {
	Thickness 1.5
	Color #545454
	FontColor #a0a0a0
    FontStyle bold
    MessageAlignment center
}



skinparam sequence {
	BorderColor #303030
	TitleFontColor #303030
	BackgroundColor #333333
	StartColor #303030
	EndColor #303030
	BoxBackgroundColor #333333
	BoxBorderColor #484848
	BoxFontColor #484848
	LifeLineBorderColor #484848
	LifeLineBorderThickness 2
	LifeLineBackgroundColor #3a3a3a
	GroupBorderColor #484848
	GroupFontColor #484848
	GroupHeaderFontColor #0060a8
	GroupBackgroundColor #484848
	GroupHeaderBackgroundColor #333333
	DividerBackgroundColor #484848
    DividerBorderColor #484848
    DividerBorderThickness 2
    DividerFontColor #D8Bc00
	ReferenceBackgroundColor #333333
	ReferenceBorderColor #484848
	ReferenceFontColor #fefefe
	ReferenceHeaderBackgroundColor #484848
}


skinparam partition {
	BorderColor #303030
	FontColor #333333
	BackgroundColor #333333
}


skinparam collections {
		FontColor #C8Ac00
	BorderColor #333333
	BackgroundColor #333333-#333333
}


skinparam control {
		FontColor #C8Ac00
	BorderColor #333333
	BackgroundColor #333333-#333333
}


skinparam entity {
		FontColor #C8Ac00
	BorderColor #333333
	BackgroundColor #333333-#333333
}


skinparam boundary {
		FontColor #C8Ac00
	BorderColor #333333
	BackgroundColor #333333-#333333
}


skinparam agent {
	BackgroundColor #ff8000
	BorderColor #ff9933
	FontColor #484848
}


skinparam note {
	BorderThickness 1
	BackgroundColor #1b1b1a
	BorderColor #5e5e5e
	FontSize 11
	FontColor #a0a0a0
}


skinparam artifact {
	BorderThickness 10
	BorderColor #5e5e5e
	BackgroundColor #1b1b1a
	FontColor #D8Bc00
}


skinparam component {
		FontColor #C8Ac00
	BorderColor #333333
	BackgroundColor #333333-#333333
}


skinparam interface {
	BackgroundColor  #008400
	BorderColor  #007F00
	FontColor #484848
}


skinparam storage {
	BackgroundColor #ff8000
  	BorderColor #cc6600
	FontColor #222222
}


skinparam node {
	BackgroundColor #333333
	BorderColor #333333
	FontColor #C8Ac00
}


skinparam cloud {
	BackgroundColor #484848-black
	BorderColor #484848
	FontColor #D8Bc00
}


skinparam database {
		FontColor #C8Ac00
	BorderColor #333333
	BackgroundColor #333333-#333333
	BackgroundColor  #333333
}


skinparam class {
		FontColor #C8Ac00
	BorderColor #333333
	BackgroundColor #333333-#333333
	HeaderBackgroundColor #1b1b1a
    BackgroundColor #282828
    BorderColor #5e5e5e
 	StereotypeFontColor #a0a0a0
    StereotypeFontStyle bold
	BorderThickness 1
	AttributeFontColor #D8Bc00
	AttributeFontSize 11
    FontColor #D8Bc00
    FontStyle bold
}


skinparam object {
		FontColor #C8Ac00
	BorderColor #333333
	BackgroundColor #333333-#333333
	StereotypeFontColor #484848
	BorderThickness 1
	AttributeFontColor #fefefe
	AttributeFontSize 11
}


skinparam usecase {
		FontColor #C8Ac00
	BorderColor #333333
	BackgroundColor #333333-#333333
	BorderThickness 2
	StereotypeFontColor #303030
}


skinparam rectangle {
		FontColor #C8Ac00
	BorderColor #333333
	BackgroundColor #333333-#333333
	BackgroundColor #333333
	BorderThickness 2
	StereotypeFontColor #303030
}


skinparam package {
		FontColor #C8Ac00
	BorderColor #333333
	BackgroundColor #333333-#333333
	BackgroundColor #333333
	BorderThickness 2
}


skinparam folder {
	BackgroundColor #6d6d6d
  	BorderColor #ff8000
	FontColor #ff8000
	BorderThickness 2
}


skinparam frame {
	BackgroundColor #6d6d6d
  	BorderColor #0060a8
	FontColor #0060a8
	BorderThickness 2
}


skinparam state {
		FontColor #C8Ac00
	BorderColor #333333
	BackgroundColor #333333-#333333
	StartColor #0060a8
	EndColor #0060a8
	AttributeFontColor #fefefe
	AttributeFontSize 11
}


skinparam queue {
		FontColor #C8Ac00
	BorderColor #333333
	BackgroundColor #333333-#333333
}


skinparam card {
	BackgroundColor #0060a8
	BorderColor #004d86
	FontColor $INFO_TEXT
}


skinparam file {
	BackgroundColor #6d6d6d-#484848
	BorderColor #0060a8
	FontColor #fefefe
}


skinparam stack {
		FontColor #C8Ac00
	BorderColor #333333
	BackgroundColor #333333-#333333
}

    
    title "com.telenav.kivakit.web.swagger"
    
    abstract BaseJettyServlet
    abstract BaseJettyResource
    
    HttpServlet <|- - JettySwaggerIndex.IndexServlet
    class JettySwaggerIndex.IndexServlet
    {
    }
    
    BaseJettyResource <|- - JettySwaggerIndex
    class JettySwaggerIndex
    {
        - -(constructors)- -
        +JettySwaggerIndex(int)
    }
    
    BaseJettyServlet <|- - JettySwaggerOpenApi
    class JettySwaggerOpenApi
    {
        - -(constructors)- -
        +JettySwaggerOpenApi(Application)
    }
    
    BaseJettyResource <|- - JettySwaggerStaticResources
    class JettySwaggerStaticResources
    {
        - -(constructors)- -
        +JettySwaggerStaticResources()
    }
    
    BaseJettyResource <|- - JettySwaggerWebJar
    class JettySwaggerWebJar
    {
        - -(constructors)- -
        +JettySwaggerWebJar(Application)
    }
    
@enduml

PlantUML version 1.2021.01(Tue Feb 02 00:55:08 MST 2021)
(GPL source distribution)
Java Runtime: Java(TM) SE Runtime Environment
JVM: Java HotSpot(TM) 64-Bit Server VM
Default Encoding: UTF-8
Language: en
Country: US
--></g></svg>