<?xml version="1.0" encoding="UTF-8" standalone="no"?><svg xmlns="http://www.w3.org/2000/svg" xmlns:xlink="http://www.w3.org/1999/xlink" contentScriptType="application/ecmascript" contentStyleType="text/css" height="290.625px" preserveAspectRatio="none" style="width:528px;height:290px;background:#333333;" version="1.1" viewBox="0 0 528 290" width="528.125px" zoomAndPan="magnify"><defs/><g><rect fill="#48494B" height="41.2028" rx="8.3333" ry="8.3333" style="stroke:#545454;stroke-width:1.0416666666666667;" width="495.8333" x="8.8542" y="2.0833"/><text fill="#C0C0C0" font-family="Open Sans,Avenir,Nunito,Arial,Helvetica,SansSerif" font-size="20.8333" lengthAdjust="spacing" textLength="472.9167" x="20.3125" y="30.5583">com.telenav.kivakit.core.security.authentication</text><!--MD5=[5bf2218a1146ce70f263116c5bbec88a]
cluster UserName--><polygon fill="#333333" points="16.6667,126.6195,94.7917,126.6195,102.0833,153.8411,228.125,153.8411,228.125,283.9111,16.6667,283.9111,16.6667,126.6195" style="stroke:#333333;stroke-width:2.0833333333333335;"/><line style="stroke:#333333;stroke-width:2.0833333333333335;" x1="16.6667" x2="102.0833" y1="153.8411" y2="153.8411"/><text fill="#C8AC00" font-family="Open Sans,Avenir,Nunito,Arial,Helvetica,SansSerif" font-size="12.5" font-weight="bold" lengthAdjust="spacing" textLength="65.625" x="23.9583" y="143.9128">UserName</text><!--MD5=[f2d509442f4c5d7c63d4d058faf0cb0a]
class UserName.Converter--><rect codeLine="9" fill="#282828" height="83.3781" id="UserName.Converter" rx="8.3333" ry="8.3333" style="stroke:#5E5E5E;stroke-width:1.0416666666666667;" width="141.6667" x="61.4583" y="175.5778"/><rect fill="#1B1B1A" height="31.3883" rx="8.3333" ry="8.3333" style="stroke:#1B1B1A;stroke-width:1.0416666666666667;" width="141.6667" x="61.4583" y="175.5778"/><rect fill="#1B1B1A" height="8.3333" style="stroke:#1B1B1A;stroke-width:1.0416666666666667;" width="141.6667" x="61.4583" y="198.6328"/><rect codeLine="9" fill="none" height="83.3781" id="UserName.Converter" rx="8.3333" ry="8.3333" style="stroke:#5E5E5E;stroke-width:1.0416666666666667;" width="141.6667" x="61.4583" y="175.5778"/><ellipse cx="94.3229" cy="191.272" fill="#0066CF" rx="10.4167" ry="10.4167" style="stroke:#0086EF;stroke-width:1.0416666666666667;"/><path d="M96.2333,195.697 Q95.8061,195.9167 95.3361,196.0266 Q94.8661,196.1365 94.3473,196.1365 Q92.5041,196.1365 91.5336,194.9219 Q90.5632,193.7073 90.5632,191.4124 Q90.5632,189.1113 91.5336,187.8967 Q92.5041,186.6821 94.3473,186.6821 Q94.8661,186.6821 95.3422,186.792 Q95.8183,186.9019 96.2333,187.1216 L96.2333,189.1235 Q95.7694,188.6963 95.333,188.4979 Q94.8966,188.2996 94.4328,188.2996 Q93.444,188.2996 92.9405,189.0839 Q92.4369,189.8682 92.4369,191.4124 Q92.4369,192.9504 92.9405,193.7347 Q93.444,194.519 94.4328,194.519 Q94.8966,194.519 95.333,194.3207 Q95.7694,194.1223 96.2333,193.6951 Z " fill="#000000"/><text fill="#D8BC00" font-family="Open Sans,Avenir,Nunito,Arial,Helvetica,SansSerif" font-size="12.5" font-weight="bold" lengthAdjust="spacing" textLength="63.5417" x="115.0521" y="195.9961">Converter</text><line style="stroke:#5E5E5E;stroke-width:1.5625;" x1="62.5" x2="202.0833" y1="206.9661" y2="206.9661"/><ellipse cx="72.9167" cy="242.336" fill="#84BE84" rx="3.125" ry="3.125" style="stroke:#038048;stroke-width:1.0416666666666667;"/><text fill="#D8BC00" font-family="Open Sans,Avenir,Nunito,Arial,Helvetica,SansSerif" font-size="11.4583" lengthAdjust="spacing" textLength="109.375" x="84.375" y="249.2472">Converter(Listener)</text><line style="stroke:#5E5E5E;stroke-width:1.0416666666666667;" x1="62.5" x2="88.5417" y1="225.1719" y2="225.1719"/><text fill="#D8BC00" font-family="Open Sans,Avenir,Nunito,Arial,Helvetica,SansSerif" font-size="11.4583" lengthAdjust="spacing" textLength="81.25" x="91.6667" y="228.9815">(constructors)</text><line style="stroke:#5E5E5E;stroke-width:1.0416666666666667;" x1="176.0417" x2="202.0833" y1="225.1719" y2="225.1719"/><!--MD5=[9aa687ed59f428548907e723dba1087a]
class BaseStringConverter--><rect codeLine="6" fill="#282828" height="48.055" id="BaseStringConverter" rx="8.3333" ry="8.3333" style="stroke:#5E5E5E;stroke-width:1.0416666666666667;" width="169.7917" x="47.3958" y="53.7028"/><rect fill="#1B1B1A" height="31.3883" rx="8.3333" ry="8.3333" style="stroke:#1B1B1A;stroke-width:1.0416666666666667;" width="169.7917" x="47.3958" y="53.7028"/><rect fill="#1B1B1A" height="8.3333" style="stroke:#1B1B1A;stroke-width:1.0416666666666667;" width="169.7917" x="47.3958" y="76.7578"/><rect codeLine="6" fill="none" height="48.055" id="BaseStringConverter" rx="8.3333" ry="8.3333" style="stroke:#5E5E5E;stroke-width:1.0416666666666667;" width="169.7917" x="47.3958" y="53.7028"/><ellipse cx="61.9792" cy="69.397" fill="#C8AC00" rx="10.4167" ry="10.4167" style="stroke:#D8BC00;stroke-width:1.0416666666666667;"/><path d="M62.0931,66.099 L61.2447,69.8283 L62.9476,69.8283 Z M60.9945,64.4511 L63.1978,64.4511 L65.6576,73.5636 L63.857,73.5636 L63.2955,71.3114 L60.8846,71.3114 L60.3353,73.5636 L58.5347,73.5636 Z " fill="#000000"/><text fill="#D8BC00" font-family="Open Sans,Avenir,Nunito,Arial,Helvetica,SansSerif" font-size="12.5" font-style="italic" font-weight="bold" lengthAdjust="spacing" textLength="132.2917" x="78.6458" y="74.1211">BaseStringConverter</text><line style="stroke:#5E5E5E;stroke-width:1.0416666666666667;" x1="48.4375" x2="216.1458" y1="85.0911" y2="85.0911"/><line style="stroke:#5E5E5E;stroke-width:1.0416666666666667;" x1="48.4375" x2="216.1458" y1="93.4245" y2="93.4245"/><!--MD5=[c249847c086044a14a4ecd1d09905030]
class Matcher--><rect codeLine="15" fill="#282828" height="48.055" id="Matcher" rx="8.3333" ry="8.3333" style="stroke:#5E5E5E;stroke-width:1.0416666666666667;" width="88.5417" x="258.8542" y="53.7028"/><rect fill="#1B1B1A" height="31.3883" rx="8.3333" ry="8.3333" style="stroke:#1B1B1A;stroke-width:1.0416666666666667;" width="88.5417" x="258.8542" y="53.7028"/><rect fill="#1B1B1A" height="8.3333" style="stroke:#1B1B1A;stroke-width:1.0416666666666667;" width="88.5417" x="258.8542" y="76.7578"/><rect codeLine="15" fill="none" height="48.055" id="Matcher" rx="8.3333" ry="8.3333" style="stroke:#5E5E5E;stroke-width:1.0416666666666667;" width="88.5417" x="258.8542" y="53.7028"/><ellipse cx="273.4375" cy="69.397" fill="#008400" rx="10.4167" ry="10.4167" style="stroke:#239C23;stroke-width:1.0416666666666667;"/><path d="M270.3206,66.5588 L270.3206,64.9719 L275.7467,64.9719 L275.7467,66.5588 L273.9339,66.5588 L273.9339,72.4976 L275.7467,72.4976 L275.7467,74.0845 L270.3206,74.0845 L270.3206,72.4976 L272.1334,72.4976 L272.1334,66.5588 Z " fill="#000000"/><text fill="#D8BC00" font-family="Open Sans,Avenir,Nunito,Arial,Helvetica,SansSerif" font-size="12.5" font-style="italic" font-weight="bold" lengthAdjust="spacing" textLength="51.0417" x="290.1042" y="74.1211">Matcher</text><line style="stroke:#5E5E5E;stroke-width:1.0416666666666667;" x1="259.8958" x2="346.3542" y1="85.0911" y2="85.0911"/><line style="stroke:#5E5E5E;stroke-width:1.0416666666666667;" x1="259.8958" x2="346.3542" y1="93.4245" y2="93.4245"/><!--MD5=[2f01b1126ff33a0669651ec2488a5ef9]
class Password--><rect codeLine="17" fill="#282828" height="48.055" id="Password" rx="8.3333" ry="8.3333" style="stroke:#5E5E5E;stroke-width:1.0416666666666667;" width="98.9583" x="253.6458" y="193.2861"/><rect fill="#1B1B1A" height="31.3883" rx="8.3333" ry="8.3333" style="stroke:#1B1B1A;stroke-width:1.0416666666666667;" width="98.9583" x="253.6458" y="193.2861"/><rect fill="#1B1B1A" height="8.3333" style="stroke:#1B1B1A;stroke-width:1.0416666666666667;" width="98.9583" x="253.6458" y="216.3411"/><rect codeLine="17" fill="none" height="48.055" id="Password" rx="8.3333" ry="8.3333" style="stroke:#5E5E5E;stroke-width:1.0416666666666667;" width="98.9583" x="253.6458" y="193.2861"/><ellipse cx="268.2292" cy="208.9803" fill="#008400" rx="10.4167" ry="10.4167" style="stroke:#239C23;stroke-width:1.0416666666666667;"/><path d="M265.1123,206.1422 L265.1123,204.5553 L270.5383,204.5553 L270.5383,206.1422 L268.7256,206.1422 L268.7256,212.0809 L270.5383,212.0809 L270.5383,213.6678 L265.1123,213.6678 L265.1123,212.0809 L266.925,212.0809 L266.925,206.1422 Z " fill="#000000"/><text fill="#D8BC00" font-family="Open Sans,Avenir,Nunito,Arial,Helvetica,SansSerif" font-size="12.5" font-style="italic" font-weight="bold" lengthAdjust="spacing" textLength="61.4583" x="284.8958" y="213.7044">Password</text><line style="stroke:#5E5E5E;stroke-width:1.0416666666666667;" x1="254.6875" x2="351.5625" y1="224.6745" y2="224.6745"/><line style="stroke:#5E5E5E;stroke-width:1.0416666666666667;" x1="254.6875" x2="351.5625" y1="233.0078" y2="233.0078"/><!--MD5=[53f6a92bd21ca2f2960392a061f3a1c6]
class Name--><rect fill="#282828" height="48.055" id="Name" rx="8.3333" ry="8.3333" style="stroke:#5E5E5E;stroke-width:1.0416666666666667;" width="73.9583" x="418.2292" y="53.7028"/><rect fill="#1B1B1A" height="31.3883" rx="8.3333" ry="8.3333" style="stroke:#1B1B1A;stroke-width:1.0416666666666667;" width="73.9583" x="418.2292" y="53.7028"/><rect fill="#1B1B1A" height="8.3333" style="stroke:#1B1B1A;stroke-width:1.0416666666666667;" width="73.9583" x="418.2292" y="76.7578"/><rect fill="none" height="48.055" id="Name" rx="8.3333" ry="8.3333" style="stroke:#5E5E5E;stroke-width:1.0416666666666667;" width="73.9583" x="418.2292" y="53.7028"/><ellipse cx="432.8125" cy="69.397" fill="#0066CF" rx="10.4167" ry="10.4167" style="stroke:#0086EF;stroke-width:1.0416666666666667;"/><path d="M434.7229,73.822 Q434.2957,74.0417 433.8257,74.1516 Q433.3557,74.2615 432.8369,74.2615 Q430.9937,74.2615 430.0232,73.0469 Q429.0527,71.8323 429.0527,69.5374 Q429.0527,67.2363 430.0232,66.0217 Q430.9937,64.8071 432.8369,64.8071 Q433.3557,64.8071 433.8318,64.917 Q434.3079,65.0269 434.7229,65.2466 L434.7229,67.2485 Q434.259,66.8213 433.8226,66.6229 Q433.3862,66.4246 432.9224,66.4246 Q431.9336,66.4246 431.4301,67.2089 Q430.9265,67.9932 430.9265,69.5374 Q430.9265,71.0754 431.4301,71.8597 Q431.9336,72.644 432.9224,72.644 Q433.3862,72.644 433.8226,72.4457 Q434.259,72.2473 434.7229,71.8201 Z " fill="#000000"/><text fill="#D8BC00" font-family="Open Sans,Avenir,Nunito,Arial,Helvetica,SansSerif" font-size="12.5" font-weight="bold" lengthAdjust="spacing" textLength="36.4583" x="449.4792" y="74.1211">Name</text><line style="stroke:#5E5E5E;stroke-width:1.0416666666666667;" x1="419.2708" x2="491.1458" y1="85.0911" y2="85.0911"/><line style="stroke:#5E5E5E;stroke-width:1.0416666666666667;" x1="419.2708" x2="491.1458" y1="93.4245" y2="93.4245"/><!--MD5=[9a6e98b13a389138a8ee3cd2798f9215]
class UserName--><rect codeLine="22" fill="#282828" height="83.3781" id="UserName" rx="8.3333" ry="8.3333" style="stroke:#5E5E5E;stroke-width:1.0416666666666667;" width="131.25" x="389.5833" y="175.5778"/><rect fill="#1B1B1A" height="31.3883" rx="8.3333" ry="8.3333" style="stroke:#1B1B1A;stroke-width:1.0416666666666667;" width="131.25" x="389.5833" y="175.5778"/><rect fill="#1B1B1A" height="8.3333" style="stroke:#1B1B1A;stroke-width:1.0416666666666667;" width="131.25" x="389.5833" y="198.6328"/><rect codeLine="22" fill="none" height="83.3781" id="UserName" rx="8.3333" ry="8.3333" style="stroke:#5E5E5E;stroke-width:1.0416666666666667;" width="131.25" x="389.5833" y="175.5778"/><ellipse cx="416.8229" cy="191.272" fill="#0066CF" rx="10.4167" ry="10.4167" style="stroke:#0086EF;stroke-width:1.0416666666666667;"/><path d="M418.7333,195.697 Q418.3061,195.9167 417.8361,196.0266 Q417.3661,196.1365 416.8473,196.1365 Q415.0041,196.1365 414.0336,194.9219 Q413.0632,193.7073 413.0632,191.4124 Q413.0632,189.1113 414.0336,187.8967 Q415.0041,186.6821 416.8473,186.6821 Q417.3661,186.6821 417.8422,186.792 Q418.3183,186.9019 418.7333,187.1216 L418.7333,189.1235 Q418.2694,188.6963 417.833,188.4979 Q417.3966,188.2996 416.9328,188.2996 Q415.944,188.2996 415.4405,189.0839 Q414.9369,189.8682 414.9369,191.4124 Q414.9369,192.9504 415.4405,193.7347 Q415.944,194.519 416.9328,194.519 Q417.3966,194.519 417.833,194.3207 Q418.2694,194.1223 418.7333,193.6951 Z " fill="#000000"/><text fill="#D8BC00" font-family="Open Sans,Avenir,Nunito,Arial,Helvetica,SansSerif" font-size="12.5" font-weight="bold" lengthAdjust="spacing" textLength="65.625" x="436.3021" y="195.9961">UserName</text><line style="stroke:#5E5E5E;stroke-width:1.5625;" x1="390.625" x2="519.7917" y1="206.9661" y2="206.9661"/><ellipse cx="401.0417" cy="242.336" fill="#84BE84" rx="3.125" ry="3.125" style="stroke:#038048;stroke-width:1.0416666666666667;"/><text fill="#D8BC00" font-family="Open Sans,Avenir,Nunito,Arial,Helvetica,SansSerif" font-size="11.4583" lengthAdjust="spacing" textLength="98.9583" x="412.5" y="249.2472">UserName(String)</text><line style="stroke:#5E5E5E;stroke-width:1.0416666666666667;" x1="390.625" x2="411.4583" y1="225.1719" y2="225.1719"/><text fill="#D8BC00" font-family="Open Sans,Avenir,Nunito,Arial,Helvetica,SansSerif" font-size="11.4583" lengthAdjust="spacing" textLength="81.25" x="414.5833" y="228.9815">(constructors)</text><line style="stroke:#5E5E5E;stroke-width:1.0416666666666667;" x1="498.9583" x2="519.7917" y1="225.1719" y2="225.1719"/><!--MD5=[b25c60a9d09bc8abd222bae9b7868beb]
reverse link BaseStringConverter to UserName.Converter--><path codeLine="8" d="M132.2917,122.6195 C132.2917,139.5986 132.2917,158.9215 132.2917,175.5778 " fill="none" id="BaseStringConverter-backto-UserName.Converter" style="stroke:#545454;stroke-width:1.5625;"/><polygon fill="none" points="125,122.5465,132.2917,101.7132,139.5833,122.5465,125,122.5465" style="stroke:#545454;stroke-width:1.5625;"/><!--MD5=[036dbf88fe21588b167464dfd06d0a82]
reverse link Matcher to Password--><path codeLine="16" d="M303.125,122.7653 C303.125,146.1611 303.125,173.9528 303.125,193.109 " fill="none" id="Matcher-backto-Password" style="stroke:#545454;stroke-width:1.5625;"/><polygon fill="none" points="295.8333,122.5465,303.125,101.7132,310.4167,122.5465,295.8333,122.5465" style="stroke:#545454;stroke-width:1.5625;"/><!--MD5=[4d3229fda4852fb7e4dfe4503a4a9021]
reverse link Name to UserName--><path codeLine="21" d="M455.2083,122.6195 C455.2083,139.5986 455.2083,158.9215 455.2083,175.5778 " fill="none" id="Name-backto-UserName" style="stroke:#545454;stroke-width:1.5625;"/><polygon fill="none" points="447.9167,122.5465,455.2083,101.7132,462.5,122.5465,447.9167,122.5465" style="stroke:#545454;stroke-width:1.5625;"/><!--MD5=[5efb491a78582c1a07450fed49b09a49]
@startuml

    !include ../lexakai/lexakai.theme
    
    title "com.telenav.kivakit.core.security.authentication"
    
    abstract BaseStringConverter
    
    BaseStringConverter <|- - UserName.Converter
    class UserName.Converter
    {
        - -(constructors)- -
        +Converter(Listener)
    }
    
    interface Matcher
    Matcher <|- - Password
    interface Password
    {
    }
    
    Name <|- - UserName
    class UserName
    {
        - -(constructors)- -
        +UserName(String)
    }
    
@enduml

@startuml









skinparam backgroundColor #333333






skinparam  {
    defaultFontName   "Open Sans,Avenir,Nunito,Arial,Helvetica,SansSerif"
    defaultFontSize   12
    defaultTextAlignment left
    shadowing false
    RoundCorner 10
    TitleFontSize 18
}

skinparam defaultFontName       "Open Sans,Avenir,Nunito,Arial,Helvetica,SansSerif"
skinparam defaultFontSize       12
skinparam dpi                   100
skinparam shadowing             false
skinparam roundcorner           16
skinparam ParticipantPadding    40
skinparam BoxPadding            40
skinparam Padding               3
skinparam ArrowColor            #545454
skinparam stereotype {
    CBackgroundColor #0066cf
    CBorderColor #0086ef
    ABackgroundColor #C8Ac00
    ABorderColor #D8Bc00
    IBackgroundColor #008400
    IBorderColor #239c23
    EBackgroundColor #cf6300
    EBorderColor #ef8300
    NBackgroundColor #3380b9
    NBorderColor #004d86
}
skinparam title {
	FontColor	                 #c0c0c0
 	BorderColor                  #545454
	FontSize	    	         20
	BorderRoundCorner            16
	BorderThickness 	         1
	BackgroundColor              #48494b
}


skinparam legend {
	BackgroundColor #303030
	BorderColor #404040
	FontColor #a0a0a0
}

	skinparam swimlane {
	BorderColor #5e5e5e
	BorderThickness 2
	TitleBackgroundColor  #6d6d6d-#484848
	TitleFontColor #303030
}

skinparam activity {
		FontColor #C8Ac00
	BorderColor #333333
	BackgroundColor #333333-#333333
	BarColor #00FF00
	StartColor #0060a8
	EndColor #0060a8
	DiamondBackgroundColor #6d6d6d-#3a3a3a
  	DiamondBorderColor #3a3a3a
  	DiamondFontColor #fefefe
}


skinparam participant {
		FontColor #C8Ac00
	BorderColor #333333
	BackgroundColor #333333-#333333
	ParticipantBorderThickness 2
}


skinparam actor {
		FontColor #C8Ac00
	BorderColor #333333
	BackgroundColor #333333-#333333
}


skinparam arrow {
	Thickness 1.5
	Color #545454
	FontColor #a0a0a0
    FontStyle bold
    MessageAlignment center
}



skinparam sequence {
	BorderColor #303030
	TitleFontColor #303030
	BackgroundColor #333333
	StartColor #303030
	EndColor #303030
	BoxBackgroundColor #333333
	BoxBorderColor #484848
	BoxFontColor #484848
	LifeLineBorderColor #484848
	LifeLineBorderThickness 2
	LifeLineBackgroundColor #3a3a3a
	GroupBorderColor #484848
	GroupFontColor #484848
	GroupHeaderFontColor #0060a8
	GroupBackgroundColor #484848
	GroupHeaderBackgroundColor #333333
	DividerBackgroundColor #484848
    DividerBorderColor #484848
    DividerBorderThickness 2
    DividerFontColor #D8Bc00
	ReferenceBackgroundColor #333333
	ReferenceBorderColor #484848
	ReferenceFontColor #fefefe
	ReferenceHeaderBackgroundColor #484848
}


skinparam partition {
	BorderColor #303030
	FontColor #333333
	BackgroundColor #333333
}


skinparam collections {
		FontColor #C8Ac00
	BorderColor #333333
	BackgroundColor #333333-#333333
}


skinparam control {
		FontColor #C8Ac00
	BorderColor #333333
	BackgroundColor #333333-#333333
}


skinparam entity {
		FontColor #C8Ac00
	BorderColor #333333
	BackgroundColor #333333-#333333
}


skinparam boundary {
		FontColor #C8Ac00
	BorderColor #333333
	BackgroundColor #333333-#333333
}


skinparam agent {
	BackgroundColor #ff8000
	BorderColor #ff9933
	FontColor #484848
}


skinparam note {
	BorderThickness 1
	BackgroundColor #1b1b1a
	BorderColor #5e5e5e
	FontSize 11
	FontColor #a0a0a0
}


skinparam artifact {
	BorderThickness 10
	BorderColor #5e5e5e
	BackgroundColor #1b1b1a
	FontColor #D8Bc00
}


skinparam component {
		FontColor #C8Ac00
	BorderColor #333333
	BackgroundColor #333333-#333333
}


skinparam interface {
	BackgroundColor  #008400
	BorderColor  #007F00
	FontColor #484848
}


skinparam storage {
	BackgroundColor #ff8000
  	BorderColor #cc6600
	FontColor #222222
}


skinparam node {
	BackgroundColor #333333
	BorderColor #333333
	FontColor #C8Ac00
}


skinparam cloud {
	BackgroundColor #484848-black
	BorderColor #484848
	FontColor #D8Bc00
}


skinparam database {
		FontColor #C8Ac00
	BorderColor #333333
	BackgroundColor #333333-#333333
	BackgroundColor  #333333
}


skinparam class {
		FontColor #C8Ac00
	BorderColor #333333
	BackgroundColor #333333-#333333
	HeaderBackgroundColor #1b1b1a
    BackgroundColor #282828
    BorderColor #5e5e5e
 	StereotypeFontColor #a0a0a0
    StereotypeFontStyle bold
	BorderThickness 1
	AttributeFontColor #D8Bc00
	AttributeFontSize 11
    FontColor #D8Bc00
    FontStyle bold
}


skinparam object {
		FontColor #C8Ac00
	BorderColor #333333
	BackgroundColor #333333-#333333
	StereotypeFontColor #484848
	BorderThickness 1
	AttributeFontColor #fefefe
	AttributeFontSize 11
}


skinparam usecase {
		FontColor #C8Ac00
	BorderColor #333333
	BackgroundColor #333333-#333333
	BorderThickness 2
	StereotypeFontColor #303030
}


skinparam rectangle {
		FontColor #C8Ac00
	BorderColor #333333
	BackgroundColor #333333-#333333
	BackgroundColor #333333
	BorderThickness 2
	StereotypeFontColor #303030
}


skinparam package {
		FontColor #C8Ac00
	BorderColor #333333
	BackgroundColor #333333-#333333
	BackgroundColor #333333
	BorderThickness 2
}


skinparam folder {
	BackgroundColor #6d6d6d
  	BorderColor #ff8000
	FontColor #ff8000
	BorderThickness 2
}


skinparam frame {
	BackgroundColor #6d6d6d
  	BorderColor #0060a8
	FontColor #0060a8
	BorderThickness 2
}


skinparam state {
		FontColor #C8Ac00
	BorderColor #333333
	BackgroundColor #333333-#333333
	StartColor #0060a8
	EndColor #0060a8
	AttributeFontColor #fefefe
	AttributeFontSize 11
}


skinparam queue {
		FontColor #C8Ac00
	BorderColor #333333
	BackgroundColor #333333-#333333
}


skinparam card {
	BackgroundColor #0060a8
	BorderColor #004d86
	FontColor $INFO_TEXT
}


skinparam file {
	BackgroundColor #6d6d6d-#484848
	BorderColor #0060a8
	FontColor #fefefe
}


skinparam stack {
		FontColor #C8Ac00
	BorderColor #333333
	BackgroundColor #333333-#333333
}

    
    title "com.telenav.kivakit.core.security.authentication"
    
    abstract BaseStringConverter
    
    BaseStringConverter <|- - UserName.Converter
    class UserName.Converter
    {
        - -(constructors)- -
        +Converter(Listener)
    }
    
    interface Matcher
    Matcher <|- - Password
    interface Password
    {
    }
    
    Name <|- - UserName
    class UserName
    {
        - -(constructors)- -
        +UserName(String)
    }
    
@enduml

PlantUML version 1.2021.01(Tue Feb 02 00:55:08 MST 2021)
(GPL source distribution)
Java Runtime: Java(TM) SE Runtime Environment
JVM: Java HotSpot(TM) 64-Bit Server VM
Default Encoding: UTF-8
Language: en
Country: US
--></g></svg>