<?xml version="1.0" encoding="UTF-8" standalone="no"?><svg xmlns="http://www.w3.org/2000/svg" xmlns:xlink="http://www.w3.org/1999/xlink" contentScriptType="application/ecmascript" contentStyleType="text/css" height="443.75px" preserveAspectRatio="none" style="width:620px;height:443px;background:#333333;" version="1.1" viewBox="0 0 620 443" width="620.8333px" zoomAndPan="magnify"><defs/><g><rect fill="#48494B" height="41.2028" rx="8.3333" ry="8.3333" style="stroke:#545454;stroke-width:1.0416666666666667;" width="608.3333" x="2.0833" y="2.0833"/><text fill="#C0C0C0" font-family="Open Sans,Avenir,Nunito,Arial,Helvetica,SansSerif" font-size="20.8333" lengthAdjust="spacing" textLength="585.4167" x="13.5417" y="30.5583">com.telenav.kivakit.core.security.authentication.passwords</text><!--MD5=[3e1cc9135f4eb298e164a69f57a7cc1d]
cluster PlainTextPassword--><polygon fill="#333333" points="64.8438,137.0361,198.1771,137.0361,205.4688,164.2578,276.3021,164.2578,276.3021,294.3278,64.8438,294.3278,64.8438,137.0361" style="stroke:#333333;stroke-width:2.0833333333333335;"/><line style="stroke:#333333;stroke-width:2.0833333333333335;" x1="64.8438" x2="205.4688" y1="164.2578" y2="164.2578"/><text fill="#C8AC00" font-family="Open Sans,Avenir,Nunito,Arial,Helvetica,SansSerif" font-size="12.5" font-weight="bold" lengthAdjust="spacing" textLength="120.8333" x="72.1354" y="154.3294">PlainTextPassword</text><!--MD5=[c4b5297c44c7d43a33dc0e848a8a6091]
class PlainTextPassword.Converter--><rect codeLine="11" fill="#282828" height="83.3781" id="PlainTextPassword.Converter" rx="8.3333" ry="8.3333" style="stroke:#5E5E5E;stroke-width:1.0416666666666667;" width="141.6667" x="109.6354" y="185.9945"/><rect fill="#1B1B1A" height="31.3883" rx="8.3333" ry="8.3333" style="stroke:#1B1B1A;stroke-width:1.0416666666666667;" width="141.6667" x="109.6354" y="185.9945"/><rect fill="#1B1B1A" height="8.3333" style="stroke:#1B1B1A;stroke-width:1.0416666666666667;" width="141.6667" x="109.6354" y="209.0495"/><rect codeLine="11" fill="none" height="83.3781" id="PlainTextPassword.Converter" rx="8.3333" ry="8.3333" style="stroke:#5E5E5E;stroke-width:1.0416666666666667;" width="141.6667" x="109.6354" y="185.9945"/><ellipse cx="142.5" cy="201.6886" fill="#0066CF" rx="10.4167" ry="10.4167" style="stroke:#0086EF;stroke-width:1.0416666666666667;"/><path d="M144.4104,206.1137 Q143.9832,206.3334 143.5132,206.4433 Q143.0432,206.5531 142.5244,206.5531 Q140.6812,206.5531 139.7107,205.3385 Q138.7402,204.1239 138.7402,201.829 Q138.7402,199.528 139.7107,198.3134 Q140.6812,197.0988 142.5244,197.0988 Q143.0432,197.0988 143.5193,197.2087 Q143.9954,197.3185 144.4104,197.5382 L144.4104,199.5402 Q143.9465,199.113 143.5101,198.9146 Q143.0737,198.7162 142.6099,198.7162 Q141.6211,198.7162 141.1176,199.5005 Q140.614,200.2848 140.614,201.829 Q140.614,203.3671 141.1176,204.1514 Q141.6211,204.9357 142.6099,204.9357 Q143.0737,204.9357 143.5101,204.7373 Q143.9465,204.539 144.4104,204.1117 Z " fill="#000000"/><text fill="#D8BC00" font-family="Open Sans,Avenir,Nunito,Arial,Helvetica,SansSerif" font-size="12.5" font-weight="bold" lengthAdjust="spacing" textLength="63.5417" x="163.2292" y="206.4128">Converter</text><line style="stroke:#5E5E5E;stroke-width:1.5625;" x1="110.6771" x2="250.2604" y1="217.3828" y2="217.3828"/><ellipse cx="121.0938" cy="252.7527" fill="#84BE84" rx="3.125" ry="3.125" style="stroke:#038048;stroke-width:1.0416666666666667;"/><text fill="#D8BC00" font-family="Open Sans,Avenir,Nunito,Arial,Helvetica,SansSerif" font-size="11.4583" lengthAdjust="spacing" textLength="109.375" x="132.5521" y="259.6639">Converter(Listener)</text><line style="stroke:#5E5E5E;stroke-width:1.0416666666666667;" x1="110.6771" x2="136.7188" y1="235.5886" y2="235.5886"/><text fill="#D8BC00" font-family="Open Sans,Avenir,Nunito,Arial,Helvetica,SansSerif" font-size="11.4583" lengthAdjust="spacing" textLength="81.25" x="139.8438" y="239.3982">(constructors)</text><line style="stroke:#5E5E5E;stroke-width:1.0416666666666667;" x1="224.2188" x2="250.2604" y1="235.5886" y2="235.5886"/><!--MD5=[9aa687ed59f428548907e723dba1087a]
class BaseStringConverter--><rect codeLine="6" fill="#282828" height="48.055" id="BaseStringConverter" rx="8.3333" ry="8.3333" style="stroke:#5E5E5E;stroke-width:1.0416666666666667;" width="169.7917" x="95.5729" y="53.7028"/><rect fill="#1B1B1A" height="31.3883" rx="8.3333" ry="8.3333" style="stroke:#1B1B1A;stroke-width:1.0416666666666667;" width="169.7917" x="95.5729" y="53.7028"/><rect fill="#1B1B1A" height="8.3333" style="stroke:#1B1B1A;stroke-width:1.0416666666666667;" width="169.7917" x="95.5729" y="76.7578"/><rect codeLine="6" fill="none" height="48.055" id="BaseStringConverter" rx="8.3333" ry="8.3333" style="stroke:#5E5E5E;stroke-width:1.0416666666666667;" width="169.7917" x="95.5729" y="53.7028"/><ellipse cx="110.1563" cy="69.397" fill="#C8AC00" rx="10.4167" ry="10.4167" style="stroke:#D8BC00;stroke-width:1.0416666666666667;"/><path d="M110.2702,66.099 L109.4218,69.8283 L111.1247,69.8283 Z M109.1715,64.4511 L111.3749,64.4511 L113.8346,73.5636 L112.0341,73.5636 L111.4726,71.3114 L109.0617,71.3114 L108.5124,73.5636 L106.7118,73.5636 Z " fill="#000000"/><text fill="#D8BC00" font-family="Open Sans,Avenir,Nunito,Arial,Helvetica,SansSerif" font-size="12.5" font-style="italic" font-weight="bold" lengthAdjust="spacing" textLength="132.2917" x="126.8229" y="74.1211">BaseStringConverter</text><line style="stroke:#5E5E5E;stroke-width:1.0416666666666667;" x1="96.6146" x2="264.3229" y1="85.0911" y2="85.0911"/><line style="stroke:#5E5E5E;stroke-width:1.0416666666666667;" x1="96.6146" x2="264.3229" y1="93.4245" y2="93.4245"/><!--MD5=[2f01b1126ff33a0669651ec2488a5ef9]
class Password--><rect codeLine="8" fill="#282828" height="48.055" id="Password" rx="8.3333" ry="8.3333" style="stroke:#5E5E5E;stroke-width:1.0416666666666667;" width="98.9583" x="387.2396" y="53.7028"/><rect fill="#1B1B1A" height="31.3883" rx="8.3333" ry="8.3333" style="stroke:#1B1B1A;stroke-width:1.0416666666666667;" width="98.9583" x="387.2396" y="53.7028"/><rect fill="#1B1B1A" height="8.3333" style="stroke:#1B1B1A;stroke-width:1.0416666666666667;" width="98.9583" x="387.2396" y="76.7578"/><rect codeLine="8" fill="none" height="48.055" id="Password" rx="8.3333" ry="8.3333" style="stroke:#5E5E5E;stroke-width:1.0416666666666667;" width="98.9583" x="387.2396" y="53.7028"/><ellipse cx="401.8229" cy="69.397" fill="#008400" rx="10.4167" ry="10.4167" style="stroke:#239C23;stroke-width:1.0416666666666667;"/><path d="M398.7061,66.5588 L398.7061,64.9719 L404.1321,64.9719 L404.1321,66.5588 L402.3193,66.5588 L402.3193,72.4976 L404.1321,72.4976 L404.1321,74.0845 L398.7061,74.0845 L398.7061,72.4976 L400.5188,72.4976 L400.5188,66.5588 Z " fill="#000000"/><text fill="#D8BC00" font-family="Open Sans,Avenir,Nunito,Arial,Helvetica,SansSerif" font-size="12.5" font-style="italic" font-weight="bold" lengthAdjust="spacing" textLength="61.4583" x="418.4896" y="74.1211">Password</text><line style="stroke:#5E5E5E;stroke-width:1.0416666666666667;" x1="388.2813" x2="485.1563" y1="85.0911" y2="85.0911"/><line style="stroke:#5E5E5E;stroke-width:1.0416666666666667;" x1="388.2813" x2="485.1563" y1="93.4245" y2="93.4245"/><!--MD5=[aa56c61dbba11fc464ede4fe00272aac]
class DigestPassword--><rect codeLine="18" fill="#282828" height="83.3781" id="DigestPassword" rx="8.3333" ry="8.3333" style="stroke:#5E5E5E;stroke-width:1.0416666666666667;" width="162.5" x="355.4688" y="353.7028"/><rect fill="#1B1B1A" height="31.3883" rx="8.3333" ry="8.3333" style="stroke:#1B1B1A;stroke-width:1.0416666666666667;" width="162.5" x="355.4688" y="353.7028"/><rect fill="#1B1B1A" height="8.3333" style="stroke:#1B1B1A;stroke-width:1.0416666666666667;" width="162.5" x="355.4688" y="376.7578"/><rect codeLine="18" fill="none" height="83.3781" id="DigestPassword" rx="8.3333" ry="8.3333" style="stroke:#5E5E5E;stroke-width:1.0416666666666667;" width="162.5" x="355.4688" y="353.7028"/><ellipse cx="379.4271" cy="369.397" fill="#0066CF" rx="10.4167" ry="10.4167" style="stroke:#0086EF;stroke-width:1.0416666666666667;"/><path d="M381.3375,373.822 Q380.9102,374.0417 380.4403,374.1516 Q379.9703,374.2615 379.4515,374.2615 Q377.6082,374.2615 376.6378,373.0469 Q375.6673,371.8323 375.6673,369.5374 Q375.6673,367.2363 376.6378,366.0217 Q377.6082,364.8071 379.4515,364.8071 Q379.9703,364.8071 380.4464,364.917 Q380.9224,365.0269 381.3375,365.2466 L381.3375,367.2485 Q380.8736,366.8213 380.4372,366.6229 Q380.0008,366.4246 379.5369,366.4246 Q378.5482,366.4246 378.0446,367.2089 Q377.5411,367.9932 377.5411,369.5374 Q377.5411,371.0754 378.0446,371.8597 Q378.5482,372.644 379.5369,372.644 Q380.0008,372.644 380.4372,372.4457 Q380.8736,372.2473 381.3375,371.8201 Z " fill="#000000"/><text fill="#D8BC00" font-family="Open Sans,Avenir,Nunito,Arial,Helvetica,SansSerif" font-size="12.5" font-weight="bold" lengthAdjust="spacing" textLength="104.1667" x="398.1771" y="374.1211">DigestPassword</text><line style="stroke:#5E5E5E;stroke-width:1.5625;" x1="356.5104" x2="516.9271" y1="385.0911" y2="385.0911"/><ellipse cx="366.9271" cy="420.461" fill="#84BE84" rx="3.125" ry="3.125" style="stroke:#038048;stroke-width:1.0416666666666667;"/><text fill="#D8BC00" font-family="Open Sans,Avenir,Nunito,Arial,Helvetica,SansSerif" font-size="11.4583" lengthAdjust="spacing" textLength="130.2083" x="378.3854" y="427.3722">DigestPassword(String)</text><line style="stroke:#5E5E5E;stroke-width:1.0416666666666667;" x1="356.5104" x2="392.9688" y1="403.2969" y2="403.2969"/><text fill="#D8BC00" font-family="Open Sans,Avenir,Nunito,Arial,Helvetica,SansSerif" font-size="11.4583" lengthAdjust="spacing" textLength="81.25" x="396.0938" y="407.1065">(constructors)</text><line style="stroke:#5E5E5E;stroke-width:1.0416666666666667;" x1="480.4688" x2="516.9271" y1="403.2969" y2="403.2969"/><!--MD5=[114a269c9049b2c2dec090c34e8cbb7c]
class PlainTextPassword--><rect codeLine="25" fill="#282828" height="127.0345" id="PlainTextPassword" rx="8.3333" ry="8.3333" style="stroke:#5E5E5E;stroke-width:1.0416666666666667;" width="269.7917" x="301.8229" y="164.1195"/><rect fill="#1B1B1A" height="31.3883" rx="8.3333" ry="8.3333" style="stroke:#1B1B1A;stroke-width:1.0416666666666667;" width="269.7917" x="301.8229" y="164.1195"/><rect fill="#1B1B1A" height="8.3333" style="stroke:#1B1B1A;stroke-width:1.0416666666666667;" width="269.7917" x="301.8229" y="187.1745"/><rect codeLine="25" fill="none" height="127.0345" id="PlainTextPassword" rx="8.3333" ry="8.3333" style="stroke:#5E5E5E;stroke-width:1.0416666666666667;" width="269.7917" x="301.8229" y="164.1195"/><ellipse cx="369.0104" cy="179.8136" fill="#0066CF" rx="10.4167" ry="10.4167" style="stroke:#0086EF;stroke-width:1.0416666666666667;"/><path d="M370.9208,184.2387 Q370.4936,184.4584 370.0236,184.5683 Q369.5536,184.6781 369.0348,184.6781 Q367.1916,184.6781 366.2211,183.4635 Q365.2507,182.2489 365.2507,179.954 Q365.2507,177.653 366.2211,176.4384 Q367.1916,175.2238 369.0348,175.2238 Q369.5536,175.2238 370.0297,175.3337 Q370.5058,175.4435 370.9208,175.6632 L370.9208,177.6652 Q370.4569,177.238 370.0205,177.0396 Q369.5841,176.8412 369.1203,176.8412 Q368.1315,176.8412 367.628,177.6255 Q367.1244,178.4098 367.1244,179.954 Q367.1244,181.4921 367.628,182.2764 Q368.1315,183.0607 369.1203,183.0607 Q369.5841,183.0607 370.0205,182.8623 Q370.4569,182.664 370.9208,182.2367 Z " fill="#000000"/><text fill="#D8BC00" font-family="Open Sans,Avenir,Nunito,Arial,Helvetica,SansSerif" font-size="12.5" font-weight="bold" lengthAdjust="spacing" textLength="120.8333" x="391.9271" y="184.5378">PlainTextPassword</text><line style="stroke:#5E5E5E;stroke-width:1.5625;" x1="302.8646" x2="570.5729" y1="195.5078" y2="195.5078"/><polygon fill="#FFFF44" points="313.2813,225.6694,317.4479,229.836,313.2813,234.0027,309.1146,229.836" style="stroke:#B38D22;stroke-width:1.0416666666666667;"/><text fill="#D8BC00" font-family="Open Sans,Avenir,Nunito,Arial,Helvetica,SansSerif" font-size="11.4583" lengthAdjust="spacing" textLength="145.8333" x="324.7396" y="237.7889">PlainTextPassword(String)</text><line style="stroke:#5E5E5E;stroke-width:1.0416666666666667;" x1="302.8646" x2="392.9688" y1="213.7136" y2="213.7136"/><text fill="#D8BC00" font-family="Open Sans,Avenir,Nunito,Arial,Helvetica,SansSerif" font-size="11.4583" lengthAdjust="spacing" textLength="81.25" x="396.0938" y="217.5232">(constructors)</text><line style="stroke:#5E5E5E;stroke-width:1.0416666666666667;" x1="480.4688" x2="570.5729" y1="213.7136" y2="213.7136"/><ellipse cx="313.2813" cy="274.5341" fill="#84BE84" rx="3.125" ry="3.125" style="stroke:#038048;stroke-width:1.0416666666666667;"/><text fill="#D8BC00" font-family="Open Sans,Avenir,Nunito,Arial,Helvetica,SansSerif" font-size="11.4583" lengthAdjust="spacing" textLength="237.5" x="324.7396" y="281.4453">PlainTextPassword parse(String password)</text><line style="stroke:#5E5E5E;stroke-width:1.0416666666666667;" x1="302.8646" x2="408.0729" y1="257.37" y2="257.37"/><text fill="#D8BC00" font-family="Open Sans,Avenir,Nunito,Arial,Helvetica,SansSerif" font-size="11.4583" lengthAdjust="spacing" textLength="51.0417" x="411.1979" y="261.1796">(parsing)</text><line style="stroke:#5E5E5E;stroke-width:1.0416666666666667;" x1="465.3646" x2="570.5729" y1="257.37" y2="257.37"/><!--MD5=[fe2af3ff2077a46f4fb02f20fe6e025c]
reverse link BaseStringConverter to PlainTextPassword.Converter--><path codeLine="10" d="M180.4688,122.8486 C180.4688,142.807 180.4688,166.2549 180.4688,185.807 " fill="none" id="BaseStringConverter-backto-PlainTextPassword.Converter" style="stroke:#545454;stroke-width:1.5625;"/><polygon fill="none" points="173.1771,122.6507,180.4688,101.8174,187.7604,122.6507,173.1771,122.6507" style="stroke:#545454;stroke-width:1.5625;"/><!--MD5=[2e9b830b971b066d7b5339520985d499]
reverse link PlainTextPassword to DigestPassword--><path codeLine="17" d="M436.7188,291.3174 C436.7188,312.2028 436.7188,334.9111 436.7188,353.682 " fill="none" id="PlainTextPassword-backto-DigestPassword" style="stroke:#545454;stroke-width:1.5625;"/><polygon fill="none" points="" style="stroke:#545454;stroke-width:1.5625;"/><!--MD5=[ed560bf051555b58ce317faf923aefe0]
reverse link Password to PlainTextPassword--><path codeLine="24" d="M436.7188,123.057 C436.7188,135.9632 436.7188,150.307 436.7188,164.109 " fill="none" id="Password-backto-PlainTextPassword" style="stroke:#545454;stroke-width:1.5625;"/><polygon fill="none" points="429.4271,122.6507,436.7188,101.8174,444.0104,122.6507,429.4271,122.6507" style="stroke:#545454;stroke-width:1.5625;"/><!--MD5=[f15329b24456ba771a1de38704c2a94f]
@startuml

    !include ../lexakai/lexakai.theme
    
    title "com.telenav.kivakit.core.security.authentication.passwords"
    
    abstract BaseStringConverter
    
    interface Password
    
    BaseStringConverter <|- - PlainTextPassword.Converter
    class PlainTextPassword.Converter
    {
        - -(constructors)- -
        +Converter(Listener)
    }
    
    PlainTextPassword <|- - DigestPassword
    class DigestPassword
    {
        - -(constructors)- -
        +DigestPassword(String)
    }
    
    Password <|- - PlainTextPassword
    class PlainTextPassword
    {
        - -(constructors)- -
        #PlainTextPassword(String)
        - -(parsing)- -
        +PlainTextPassword parse(String password)
    }
    
@enduml

@startuml









skinparam backgroundColor #333333






skinparam  {
    defaultFontName   "Open Sans,Avenir,Nunito,Arial,Helvetica,SansSerif"
    defaultFontSize   12
    defaultTextAlignment left
    shadowing false
    RoundCorner 10
    TitleFontSize 18
}

skinparam defaultFontName       "Open Sans,Avenir,Nunito,Arial,Helvetica,SansSerif"
skinparam defaultFontSize       12
skinparam dpi                   100
skinparam shadowing             false
skinparam roundcorner           16
skinparam ParticipantPadding    40
skinparam BoxPadding            40
skinparam Padding               3
skinparam ArrowColor            #545454
skinparam stereotype {
    CBackgroundColor #0066cf
    CBorderColor #0086ef
    ABackgroundColor #C8Ac00
    ABorderColor #D8Bc00
    IBackgroundColor #008400
    IBorderColor #239c23
    EBackgroundColor #cf6300
    EBorderColor #ef8300
    NBackgroundColor #3380b9
    NBorderColor #004d86
}
skinparam title {
	FontColor	                 #c0c0c0
 	BorderColor                  #545454
	FontSize	    	         20
	BorderRoundCorner            16
	BorderThickness 	         1
	BackgroundColor              #48494b
}


skinparam legend {
	BackgroundColor #303030
	BorderColor #404040
	FontColor #a0a0a0
}

	skinparam swimlane {
	BorderColor #5e5e5e
	BorderThickness 2
	TitleBackgroundColor  #6d6d6d-#484848
	TitleFontColor #303030
}

skinparam activity {
		FontColor #C8Ac00
	BorderColor #333333
	BackgroundColor #333333-#333333
	BarColor #00FF00
	StartColor #0060a8
	EndColor #0060a8
	DiamondBackgroundColor #6d6d6d-#3a3a3a
  	DiamondBorderColor #3a3a3a
  	DiamondFontColor #fefefe
}


skinparam participant {
		FontColor #C8Ac00
	BorderColor #333333
	BackgroundColor #333333-#333333
	ParticipantBorderThickness 2
}


skinparam actor {
		FontColor #C8Ac00
	BorderColor #333333
	BackgroundColor #333333-#333333
}


skinparam arrow {
	Thickness 1.5
	Color #545454
	FontColor #a0a0a0
    FontStyle bold
    MessageAlignment center
}



skinparam sequence {
	BorderColor #303030
	TitleFontColor #303030
	BackgroundColor #333333
	StartColor #303030
	EndColor #303030
	BoxBackgroundColor #333333
	BoxBorderColor #484848
	BoxFontColor #484848
	LifeLineBorderColor #484848
	LifeLineBorderThickness 2
	LifeLineBackgroundColor #3a3a3a
	GroupBorderColor #484848
	GroupFontColor #484848
	GroupHeaderFontColor #0060a8
	GroupBackgroundColor #484848
	GroupHeaderBackgroundColor #333333
	DividerBackgroundColor #484848
    DividerBorderColor #484848
    DividerBorderThickness 2
    DividerFontColor #D8Bc00
	ReferenceBackgroundColor #333333
	ReferenceBorderColor #484848
	ReferenceFontColor #fefefe
	ReferenceHeaderBackgroundColor #484848
}


skinparam partition {
	BorderColor #303030
	FontColor #333333
	BackgroundColor #333333
}


skinparam collections {
		FontColor #C8Ac00
	BorderColor #333333
	BackgroundColor #333333-#333333
}


skinparam control {
		FontColor #C8Ac00
	BorderColor #333333
	BackgroundColor #333333-#333333
}


skinparam entity {
		FontColor #C8Ac00
	BorderColor #333333
	BackgroundColor #333333-#333333
}


skinparam boundary {
		FontColor #C8Ac00
	BorderColor #333333
	BackgroundColor #333333-#333333
}


skinparam agent {
	BackgroundColor #ff8000
	BorderColor #ff9933
	FontColor #484848
}


skinparam note {
	BorderThickness 1
	BackgroundColor #1b1b1a
	BorderColor #5e5e5e
	FontSize 11
	FontColor #a0a0a0
}


skinparam artifact {
	BorderThickness 10
	BorderColor #5e5e5e
	BackgroundColor #1b1b1a
	FontColor #D8Bc00
}


skinparam component {
		FontColor #C8Ac00
	BorderColor #333333
	BackgroundColor #333333-#333333
}


skinparam interface {
	BackgroundColor  #008400
	BorderColor  #007F00
	FontColor #484848
}


skinparam storage {
	BackgroundColor #ff8000
  	BorderColor #cc6600
	FontColor #222222
}


skinparam node {
	BackgroundColor #333333
	BorderColor #333333
	FontColor #C8Ac00
}


skinparam cloud {
	BackgroundColor #484848-black
	BorderColor #484848
	FontColor #D8Bc00
}


skinparam database {
		FontColor #C8Ac00
	BorderColor #333333
	BackgroundColor #333333-#333333
	BackgroundColor  #333333
}


skinparam class {
		FontColor #C8Ac00
	BorderColor #333333
	BackgroundColor #333333-#333333
	HeaderBackgroundColor #1b1b1a
    BackgroundColor #282828
    BorderColor #5e5e5e
 	StereotypeFontColor #a0a0a0
    StereotypeFontStyle bold
	BorderThickness 1
	AttributeFontColor #D8Bc00
	AttributeFontSize 11
    FontColor #D8Bc00
    FontStyle bold
}


skinparam object {
		FontColor #C8Ac00
	BorderColor #333333
	BackgroundColor #333333-#333333
	StereotypeFontColor #484848
	BorderThickness 1
	AttributeFontColor #fefefe
	AttributeFontSize 11
}


skinparam usecase {
		FontColor #C8Ac00
	BorderColor #333333
	BackgroundColor #333333-#333333
	BorderThickness 2
	StereotypeFontColor #303030
}


skinparam rectangle {
		FontColor #C8Ac00
	BorderColor #333333
	BackgroundColor #333333-#333333
	BackgroundColor #333333
	BorderThickness 2
	StereotypeFontColor #303030
}


skinparam package {
		FontColor #C8Ac00
	BorderColor #333333
	BackgroundColor #333333-#333333
	BackgroundColor #333333
	BorderThickness 2
}


skinparam folder {
	BackgroundColor #6d6d6d
  	BorderColor #ff8000
	FontColor #ff8000
	BorderThickness 2
}


skinparam frame {
	BackgroundColor #6d6d6d
  	BorderColor #0060a8
	FontColor #0060a8
	BorderThickness 2
}


skinparam state {
		FontColor #C8Ac00
	BorderColor #333333
	BackgroundColor #333333-#333333
	StartColor #0060a8
	EndColor #0060a8
	AttributeFontColor #fefefe
	AttributeFontSize 11
}


skinparam queue {
		FontColor #C8Ac00
	BorderColor #333333
	BackgroundColor #333333-#333333
}


skinparam card {
	BackgroundColor #0060a8
	BorderColor #004d86
	FontColor $INFO_TEXT
}


skinparam file {
	BackgroundColor #6d6d6d-#484848
	BorderColor #0060a8
	FontColor #fefefe
}


skinparam stack {
		FontColor #C8Ac00
	BorderColor #333333
	BackgroundColor #333333-#333333
}

    
    title "com.telenav.kivakit.core.security.authentication.passwords"
    
    abstract BaseStringConverter
    
    interface Password
    
    BaseStringConverter <|- - PlainTextPassword.Converter
    class PlainTextPassword.Converter
    {
        - -(constructors)- -
        +Converter(Listener)
    }
    
    PlainTextPassword <|- - DigestPassword
    class DigestPassword
    {
        - -(constructors)- -
        +DigestPassword(String)
    }
    
    Password <|- - PlainTextPassword
    class PlainTextPassword
    {
        - -(constructors)- -
        #PlainTextPassword(String)
        - -(parsing)- -
        +PlainTextPassword parse(String password)
    }
    
@enduml

PlantUML version 1.2021.01(Tue Feb 02 00:55:08 MST 2021)
(GPL source distribution)
Java Runtime: Java(TM) SE Runtime Environment
JVM: Java HotSpot(TM) 64-Bit Server VM
Default Encoding: UTF-8
Language: en
Country: US
--></g></svg>