<?xml version="1.0" encoding="UTF-8" standalone="no"?><svg xmlns="http://www.w3.org/2000/svg" xmlns:xlink="http://www.w3.org/1999/xlink" contentScriptType="application/ecmascript" contentStyleType="text/css" height="545.8333px" preserveAspectRatio="none" style="width:320px;height:545px;background:#333333;" version="1.1" viewBox="0 0 320 545" width="320.8333px" zoomAndPan="magnify"><defs/><g><rect fill="#48494B" height="41.2028" rx="8.3333" ry="8.3333" style="stroke:#545454;stroke-width:1.0416666666666667;" width="101.0417" x="102.8646" y="2.0833"/><text fill="#C0C0C0" font-family="Open Sans,Avenir,Nunito,Arial,Helvetica,SansSerif" font-size="20.8333" lengthAdjust="spacing" textLength="78.125" x="114.3229" y="30.5583">Security</text><!--MD5=[2f01b1126ff33a0669651ec2488a5ef9]
class Password--><rect codeLine="17" fill="#282828" height="48.055" id="Password" rx="8.3333" ry="8.3333" style="stroke:#5E5E5E;stroke-width:1.0416666666666667;" width="98.9583" x="46.875" y="181.8278"/><rect fill="#1B1B1A" height="31.3883" rx="8.3333" ry="8.3333" style="stroke:#1B1B1A;stroke-width:1.0416666666666667;" width="98.9583" x="46.875" y="181.8278"/><rect fill="#1B1B1A" height="8.3333" style="stroke:#1B1B1A;stroke-width:1.0416666666666667;" width="98.9583" x="46.875" y="204.8828"/><rect codeLine="17" fill="none" height="48.055" id="Password" rx="8.3333" ry="8.3333" style="stroke:#5E5E5E;stroke-width:1.0416666666666667;" width="98.9583" x="46.875" y="181.8278"/><ellipse cx="61.4583" cy="197.522" fill="#008400" rx="10.4167" ry="10.4167" style="stroke:#239C23;stroke-width:1.0416666666666667;"/><path d="M58.3415,194.6838 L58.3415,193.0969 L63.7675,193.0969 L63.7675,194.6838 L61.9548,194.6838 L61.9548,200.6226 L63.7675,200.6226 L63.7675,202.2095 L58.3415,202.2095 L58.3415,200.6226 L60.1542,200.6226 L60.1542,194.6838 Z " fill="#000000"/><text fill="#D8BC00" font-family="Open Sans,Avenir,Nunito,Arial,Helvetica,SansSerif" font-size="12.5" font-style="italic" font-weight="bold" lengthAdjust="spacing" textLength="61.4583" x="78.125" y="202.2461">Password</text><line style="stroke:#5E5E5E;stroke-width:1.0416666666666667;" x1="47.9167" x2="144.7917" y1="213.2161" y2="213.2161"/><line style="stroke:#5E5E5E;stroke-width:1.0416666666666667;" x1="47.9167" x2="144.7917" y1="221.5495" y2="221.5495"/><!--MD5=[114a269c9049b2c2dec090c34e8cbb7c]
class PlainTextPassword--><rect codeLine="22" fill="#282828" height="83.3781" id="PlainTextPassword" rx="8.3333" ry="8.3333" style="stroke:#5E5E5E;stroke-width:1.0416666666666667;" width="178.125" x="7.2917" y="309.9528"/><rect fill="#1B1B1A" height="31.3883" rx="8.3333" ry="8.3333" style="stroke:#1B1B1A;stroke-width:1.0416666666666667;" width="178.125" x="7.2917" y="309.9528"/><rect fill="#1B1B1A" height="8.3333" style="stroke:#1B1B1A;stroke-width:1.0416666666666667;" width="178.125" x="7.2917" y="333.0078"/><rect codeLine="22" fill="none" height="83.3781" id="PlainTextPassword" rx="8.3333" ry="8.3333" style="stroke:#5E5E5E;stroke-width:1.0416666666666667;" width="178.125" x="7.2917" y="309.9528"/><ellipse cx="30.7813" cy="325.647" fill="#0066CF" rx="10.4167" ry="10.4167" style="stroke:#0086EF;stroke-width:1.0416666666666667;"/><path d="M32.6917,330.072 Q32.2644,330.2917 31.7944,330.4016 Q31.3245,330.5115 30.8057,330.5115 Q28.9624,330.5115 27.9919,329.2969 Q27.0215,328.0823 27.0215,325.7874 Q27.0215,323.4863 27.9919,322.2717 Q28.9624,321.0571 30.8057,321.0571 Q31.3245,321.0571 31.8005,321.167 Q32.2766,321.2769 32.6917,321.4966 L32.6917,323.4985 Q32.2278,323.0713 31.7914,322.8729 Q31.355,322.6746 30.8911,322.6746 Q29.9023,322.6746 29.3988,323.4589 Q28.8953,324.2432 28.8953,325.7874 Q28.8953,327.3254 29.3988,328.1097 Q29.9023,328.894 30.8911,328.894 Q31.355,328.894 31.7914,328.6957 Q32.2278,328.4973 32.6917,328.0701 Z " fill="#000000"/><text fill="#D8BC00" font-family="Open Sans,Avenir,Nunito,Arial,Helvetica,SansSerif" font-size="12.5" font-weight="bold" lengthAdjust="spacing" textLength="120.8333" x="49.4271" y="330.3711">PlainTextPassword</text><line style="stroke:#5E5E5E;stroke-width:1.5625;" x1="8.3333" x2="184.375" y1="341.3411" y2="341.3411"/><ellipse cx="18.75" cy="376.711" fill="#84BE84" rx="3.125" ry="3.125" style="stroke:#038048;stroke-width:1.0416666666666667;"/><text fill="#D8BC00" font-family="Open Sans,Avenir,Nunito,Arial,Helvetica,SansSerif" font-size="11.4583" lengthAdjust="spacing" textLength="145.8333" x="30.2083" y="383.6222">PlainTextPassword(String)</text><line style="stroke:#5E5E5E;stroke-width:1.0416666666666667;" x1="8.3333" x2="52.6042" y1="359.5469" y2="359.5469"/><text fill="#D8BC00" font-family="Open Sans,Avenir,Nunito,Arial,Helvetica,SansSerif" font-size="11.4583" lengthAdjust="spacing" textLength="81.25" x="55.7292" y="363.3565">(constructors)</text><line style="stroke:#5E5E5E;stroke-width:1.0416666666666667;" x1="140.1042" x2="184.375" y1="359.5469" y2="359.5469"/><!--MD5=[aa56c61dbba11fc464ede4fe00272aac]
class DigestPassword--><rect codeLine="9" fill="#282828" height="83.3781" id="DigestPassword" rx="8.3333" ry="8.3333" style="stroke:#5E5E5E;stroke-width:1.0416666666666667;" width="162.5" x="15.1042" y="455.7861"/><rect fill="#1B1B1A" height="31.3883" rx="8.3333" ry="8.3333" style="stroke:#1B1B1A;stroke-width:1.0416666666666667;" width="162.5" x="15.1042" y="455.7861"/><rect fill="#1B1B1A" height="8.3333" style="stroke:#1B1B1A;stroke-width:1.0416666666666667;" width="162.5" x="15.1042" y="478.8411"/><rect codeLine="9" fill="none" height="83.3781" id="DigestPassword" rx="8.3333" ry="8.3333" style="stroke:#5E5E5E;stroke-width:1.0416666666666667;" width="162.5" x="15.1042" y="455.7861"/><ellipse cx="39.0625" cy="471.4803" fill="#0066CF" rx="10.4167" ry="10.4167" style="stroke:#0086EF;stroke-width:1.0416666666666667;"/><path d="M40.9729,475.9054 Q40.5457,476.1251 40.0757,476.2349 Q39.6057,476.3448 39.0869,476.3448 Q37.2437,476.3448 36.2732,475.1302 Q35.3027,473.9156 35.3027,471.6207 Q35.3027,469.3197 36.2732,468.1051 Q37.2437,466.8905 39.0869,466.8905 Q39.6057,466.8905 40.0818,467.0003 Q40.5579,467.1102 40.9729,467.3299 L40.9729,469.3319 Q40.509,468.9046 40.0726,468.7063 Q39.6362,468.5079 39.1724,468.5079 Q38.1836,468.5079 37.6801,469.2922 Q37.1765,470.0765 37.1765,471.6207 Q37.1765,473.1588 37.6801,473.9431 Q38.1836,474.7274 39.1724,474.7274 Q39.6362,474.7274 40.0726,474.529 Q40.509,474.3306 40.9729,473.9034 Z " fill="#000000"/><text fill="#D8BC00" font-family="Open Sans,Avenir,Nunito,Arial,Helvetica,SansSerif" font-size="12.5" font-weight="bold" lengthAdjust="spacing" textLength="104.1667" x="57.8125" y="476.2044">DigestPassword</text><line style="stroke:#5E5E5E;stroke-width:1.5625;" x1="16.1458" x2="176.5625" y1="487.1745" y2="487.1745"/><ellipse cx="26.5625" cy="522.5444" fill="#84BE84" rx="3.125" ry="3.125" style="stroke:#038048;stroke-width:1.0416666666666667;"/><text fill="#D8BC00" font-family="Open Sans,Avenir,Nunito,Arial,Helvetica,SansSerif" font-size="11.4583" lengthAdjust="spacing" textLength="130.2083" x="38.0208" y="529.4556">DigestPassword(String)</text><line style="stroke:#5E5E5E;stroke-width:1.0416666666666667;" x1="16.1458" x2="52.6042" y1="505.3802" y2="505.3802"/><text fill="#D8BC00" font-family="Open Sans,Avenir,Nunito,Arial,Helvetica,SansSerif" font-size="11.4583" lengthAdjust="spacing" textLength="81.25" x="55.7292" y="509.1899">(constructors)</text><line style="stroke:#5E5E5E;stroke-width:1.0416666666666667;" x1="140.1042" x2="176.5625" y1="505.3802" y2="505.3802"/><!--MD5=[c249847c086044a14a4ecd1d09905030]
class Matcher--><rect codeLine="15" fill="#282828" height="48.055" id="Matcher" rx="8.3333" ry="8.3333" style="stroke:#5E5E5E;stroke-width:1.0416666666666667;" width="88.5417" x="52.0833" y="53.7028"/><rect fill="#1B1B1A" height="31.3883" rx="8.3333" ry="8.3333" style="stroke:#1B1B1A;stroke-width:1.0416666666666667;" width="88.5417" x="52.0833" y="53.7028"/><rect fill="#1B1B1A" height="8.3333" style="stroke:#1B1B1A;stroke-width:1.0416666666666667;" width="88.5417" x="52.0833" y="76.7578"/><rect codeLine="15" fill="none" height="48.055" id="Matcher" rx="8.3333" ry="8.3333" style="stroke:#5E5E5E;stroke-width:1.0416666666666667;" width="88.5417" x="52.0833" y="53.7028"/><ellipse cx="66.6667" cy="69.397" fill="#008400" rx="10.4167" ry="10.4167" style="stroke:#239C23;stroke-width:1.0416666666666667;"/><path d="M63.5498,66.5588 L63.5498,64.9719 L68.9758,64.9719 L68.9758,66.5588 L67.1631,66.5588 L67.1631,72.4976 L68.9758,72.4976 L68.9758,74.0845 L63.5498,74.0845 L63.5498,72.4976 L65.3625,72.4976 L65.3625,66.5588 Z " fill="#000000"/><text fill="#D8BC00" font-family="Open Sans,Avenir,Nunito,Arial,Helvetica,SansSerif" font-size="12.5" font-style="italic" font-weight="bold" lengthAdjust="spacing" textLength="51.0417" x="83.3333" y="74.1211">Matcher</text><line style="stroke:#5E5E5E;stroke-width:1.0416666666666667;" x1="53.125" x2="139.5833" y1="85.0911" y2="85.0911"/><line style="stroke:#5E5E5E;stroke-width:1.0416666666666667;" x1="53.125" x2="139.5833" y1="93.4245" y2="93.4245"/><!--MD5=[53f6a92bd21ca2f2960392a061f3a1c6]
class Name--><rect fill="#282828" height="48.055" id="Name" rx="8.3333" ry="8.3333" style="stroke:#5E5E5E;stroke-width:1.0416666666666667;" width="73.9583" x="211.4583" y="53.7028"/><rect fill="#1B1B1A" height="31.3883" rx="8.3333" ry="8.3333" style="stroke:#1B1B1A;stroke-width:1.0416666666666667;" width="73.9583" x="211.4583" y="53.7028"/><rect fill="#1B1B1A" height="8.3333" style="stroke:#1B1B1A;stroke-width:1.0416666666666667;" width="73.9583" x="211.4583" y="76.7578"/><rect fill="none" height="48.055" id="Name" rx="8.3333" ry="8.3333" style="stroke:#5E5E5E;stroke-width:1.0416666666666667;" width="73.9583" x="211.4583" y="53.7028"/><ellipse cx="226.0417" cy="69.397" fill="#0066CF" rx="10.4167" ry="10.4167" style="stroke:#0086EF;stroke-width:1.0416666666666667;"/><path d="M227.9521,73.822 Q227.5248,74.0417 227.0549,74.1516 Q226.5849,74.2615 226.0661,74.2615 Q224.2228,74.2615 223.2524,73.0469 Q222.2819,71.8323 222.2819,69.5374 Q222.2819,67.2363 223.2524,66.0217 Q224.2228,64.8071 226.0661,64.8071 Q226.5849,64.8071 227.061,64.917 Q227.537,65.0269 227.9521,65.2466 L227.9521,67.2485 Q227.4882,66.8213 227.0518,66.6229 Q226.6154,66.4246 226.1515,66.4246 Q225.1628,66.4246 224.6592,67.2089 Q224.1557,67.9932 224.1557,69.5374 Q224.1557,71.0754 224.6592,71.8597 Q225.1628,72.644 226.1515,72.644 Q226.6154,72.644 227.0518,72.4457 Q227.4882,72.2473 227.9521,71.8201 Z " fill="#000000"/><text fill="#D8BC00" font-family="Open Sans,Avenir,Nunito,Arial,Helvetica,SansSerif" font-size="12.5" font-weight="bold" lengthAdjust="spacing" textLength="36.4583" x="242.7083" y="74.1211">Name</text><line style="stroke:#5E5E5E;stroke-width:1.0416666666666667;" x1="212.5" x2="284.375" y1="85.0911" y2="85.0911"/><line style="stroke:#5E5E5E;stroke-width:1.0416666666666667;" x1="212.5" x2="284.375" y1="93.4245" y2="93.4245"/><!--MD5=[9a6e98b13a389138a8ee3cd2798f9215]
class UserName--><rect codeLine="29" fill="#282828" height="83.3781" id="UserName" rx="8.3333" ry="8.3333" style="stroke:#5E5E5E;stroke-width:1.0416666666666667;" width="131.25" x="182.8125" y="164.1195"/><rect fill="#1B1B1A" height="31.3883" rx="8.3333" ry="8.3333" style="stroke:#1B1B1A;stroke-width:1.0416666666666667;" width="131.25" x="182.8125" y="164.1195"/><rect fill="#1B1B1A" height="8.3333" style="stroke:#1B1B1A;stroke-width:1.0416666666666667;" width="131.25" x="182.8125" y="187.1745"/><rect codeLine="29" fill="none" height="83.3781" id="UserName" rx="8.3333" ry="8.3333" style="stroke:#5E5E5E;stroke-width:1.0416666666666667;" width="131.25" x="182.8125" y="164.1195"/><ellipse cx="210.0521" cy="179.8136" fill="#0066CF" rx="10.4167" ry="10.4167" style="stroke:#0086EF;stroke-width:1.0416666666666667;"/><path d="M211.9625,184.2387 Q211.5352,184.4584 211.0653,184.5683 Q210.5953,184.6781 210.0765,184.6781 Q208.2332,184.6781 207.2628,183.4635 Q206.2923,182.2489 206.2923,179.954 Q206.2923,177.653 207.2628,176.4384 Q208.2332,175.2238 210.0765,175.2238 Q210.5953,175.2238 211.0714,175.3337 Q211.5474,175.4435 211.9625,175.6632 L211.9625,177.6652 Q211.4986,177.238 211.0622,177.0396 Q210.6258,176.8412 210.1619,176.8412 Q209.1732,176.8412 208.6696,177.6255 Q208.1661,178.4098 208.1661,179.954 Q208.1661,181.4921 208.6696,182.2764 Q209.1732,183.0607 210.1619,183.0607 Q210.6258,183.0607 211.0622,182.8623 Q211.4986,182.664 211.9625,182.2367 Z " fill="#000000"/><text fill="#D8BC00" font-family="Open Sans,Avenir,Nunito,Arial,Helvetica,SansSerif" font-size="12.5" font-weight="bold" lengthAdjust="spacing" textLength="65.625" x="229.5313" y="184.5378">UserName</text><line style="stroke:#5E5E5E;stroke-width:1.5625;" x1="183.8542" x2="313.0208" y1="195.5078" y2="195.5078"/><ellipse cx="194.2708" cy="230.8777" fill="#84BE84" rx="3.125" ry="3.125" style="stroke:#038048;stroke-width:1.0416666666666667;"/><text fill="#D8BC00" font-family="Open Sans,Avenir,Nunito,Arial,Helvetica,SansSerif" font-size="11.4583" lengthAdjust="spacing" textLength="98.9583" x="205.7292" y="237.7889">UserName(String)</text><line style="stroke:#5E5E5E;stroke-width:1.0416666666666667;" x1="183.8542" x2="204.6875" y1="213.7136" y2="213.7136"/><text fill="#D8BC00" font-family="Open Sans,Avenir,Nunito,Arial,Helvetica,SansSerif" font-size="11.4583" lengthAdjust="spacing" textLength="81.25" x="207.8125" y="217.5232">(constructors)</text><line style="stroke:#5E5E5E;stroke-width:1.0416666666666667;" x1="292.1875" x2="313.0208" y1="213.7136" y2="213.7136"/><!--MD5=[2e9b830b971b066d7b5339520985d499]
reverse link PlainTextPassword to DigestPassword--><path codeLine="8" d="M96.3542,414.5257 C96.3542,428.3799 96.3542,442.7445 96.3542,455.5049 " fill="none" id="PlainTextPassword-backto-DigestPassword" style="stroke:#545454;stroke-width:1.5625;"/><polygon fill="none" points="89.0625,414.307,96.3542,393.4736,103.6458,414.307,89.0625,414.307" style="stroke:#545454;stroke-width:1.5625;"/><!--MD5=[036dbf88fe21588b167464dfd06d0a82]
reverse link Matcher to Password--><path codeLine="16" d="M96.3542,122.9528 C96.3542,142.7965 96.3542,165.3799 96.3542,181.7757 " fill="none" id="Matcher-backto-Password" style="stroke:#545454;stroke-width:1.5625;"/><polygon fill="none" points="89.0625,122.6507,96.3542,101.8174,103.6458,122.6507,89.0625,122.6507" style="stroke:#545454;stroke-width:1.5625;"/><!--MD5=[ed560bf051555b58ce317faf923aefe0]
reverse link Password to PlainTextPassword--><path codeLine="21" d="M96.3542,250.9111 C96.3542,269.6924 96.3542,291.4528 96.3542,309.8382 " fill="none" id="Password-backto-PlainTextPassword" style="stroke:#545454;stroke-width:1.5625;"/><polygon fill="none" points="89.0625,250.7549,96.3542,229.9215,103.6458,250.7549,89.0625,250.7549" style="stroke:#545454;stroke-width:1.5625;"/><!--MD5=[4d3229fda4852fb7e4dfe4503a4a9021]
reverse link Name to UserName--><path codeLine="28" d="M248.4375,122.682 C248.4375,136.0778 248.4375,150.7445 248.4375,163.9215 " fill="none" id="Name-backto-UserName" style="stroke:#545454;stroke-width:1.5625;"/><polygon fill="none" points="241.1458,122.6507,248.4375,101.8174,255.7292,122.6507,241.1458,122.6507" style="stroke:#545454;stroke-width:1.5625;"/><!--MD5=[cd7fc507bbf1b6c9b13258f6ba25b6e3]
@startuml

    !include ../lexakai.theme
    
    title "Security"
    
    interface Password
    
    PlainTextPassword <|- - DigestPassword
    class DigestPassword
    {
        - -(constructors)- -
        +DigestPassword(String)
    }
    
    interface Matcher
    Matcher <|- - Password
    interface Password
    {
    }
    
    Password <|- - PlainTextPassword
    class PlainTextPassword
    {
        - -(constructors)- -
        +PlainTextPassword(String)
    }
    
    Name <|- - UserName
    class UserName
    {
        - -(constructors)- -
        +UserName(String)
    }
    
@enduml

@startuml









skinparam backgroundColor #333333






skinparam  {
    defaultFontName   "Open Sans,Avenir,Nunito,Arial,Helvetica,SansSerif"
    defaultFontSize   12
    defaultTextAlignment left
    shadowing false
    RoundCorner 10
    TitleFontSize 18
}

skinparam defaultFontName       "Open Sans,Avenir,Nunito,Arial,Helvetica,SansSerif"
skinparam defaultFontSize       12
skinparam dpi                   100
skinparam shadowing             false
skinparam roundcorner           16
skinparam ParticipantPadding    40
skinparam BoxPadding            40
skinparam Padding               3
skinparam ArrowColor            #545454
skinparam stereotype {
    CBackgroundColor #0066cf
    CBorderColor #0086ef
    ABackgroundColor #C8Ac00
    ABorderColor #D8Bc00
    IBackgroundColor #008400
    IBorderColor #239c23
    EBackgroundColor #cf6300
    EBorderColor #ef8300
    NBackgroundColor #3380b9
    NBorderColor #004d86
}
skinparam title {
	FontColor	                 #c0c0c0
 	BorderColor                  #545454
	FontSize	    	         20
	BorderRoundCorner            16
	BorderThickness 	         1
	BackgroundColor              #48494b
}


skinparam legend {
	BackgroundColor #303030
	BorderColor #404040
	FontColor #a0a0a0
}

	skinparam swimlane {
	BorderColor #5e5e5e
	BorderThickness 2
	TitleBackgroundColor  #6d6d6d-#484848
	TitleFontColor #303030
}

skinparam activity {
		FontColor #C8Ac00
	BorderColor #333333
	BackgroundColor #333333-#333333
	BarColor #00FF00
	StartColor #0060a8
	EndColor #0060a8
	DiamondBackgroundColor #6d6d6d-#3a3a3a
  	DiamondBorderColor #3a3a3a
  	DiamondFontColor #fefefe
}


skinparam participant {
		FontColor #C8Ac00
	BorderColor #333333
	BackgroundColor #333333-#333333
	ParticipantBorderThickness 2
}


skinparam actor {
		FontColor #C8Ac00
	BorderColor #333333
	BackgroundColor #333333-#333333
}


skinparam arrow {
	Thickness 1.5
	Color #545454
	FontColor #a0a0a0
    FontStyle bold
    MessageAlignment center
}



skinparam sequence {
	BorderColor #303030
	TitleFontColor #303030
	BackgroundColor #333333
	StartColor #303030
	EndColor #303030
	BoxBackgroundColor #333333
	BoxBorderColor #484848
	BoxFontColor #484848
	LifeLineBorderColor #484848
	LifeLineBorderThickness 2
	LifeLineBackgroundColor #3a3a3a
	GroupBorderColor #484848
	GroupFontColor #484848
	GroupHeaderFontColor #0060a8
	GroupBackgroundColor #484848
	GroupHeaderBackgroundColor #333333
	DividerBackgroundColor #484848
    DividerBorderColor #484848
    DividerBorderThickness 2
    DividerFontColor #D8Bc00
	ReferenceBackgroundColor #333333
	ReferenceBorderColor #484848
	ReferenceFontColor #fefefe
	ReferenceHeaderBackgroundColor #484848
}


skinparam partition {
	BorderColor #303030
	FontColor #333333
	BackgroundColor #333333
}


skinparam collections {
		FontColor #C8Ac00
	BorderColor #333333
	BackgroundColor #333333-#333333
}


skinparam control {
		FontColor #C8Ac00
	BorderColor #333333
	BackgroundColor #333333-#333333
}


skinparam entity {
		FontColor #C8Ac00
	BorderColor #333333
	BackgroundColor #333333-#333333
}


skinparam boundary {
		FontColor #C8Ac00
	BorderColor #333333
	BackgroundColor #333333-#333333
}


skinparam agent {
	BackgroundColor #ff8000
	BorderColor #ff9933
	FontColor #484848
}


skinparam note {
	BorderThickness 1
	BackgroundColor #1b1b1a
	BorderColor #5e5e5e
	FontSize 11
	FontColor #a0a0a0
}


skinparam artifact {
	BorderThickness 10
	BorderColor #5e5e5e
	BackgroundColor #1b1b1a
	FontColor #D8Bc00
}


skinparam component {
		FontColor #C8Ac00
	BorderColor #333333
	BackgroundColor #333333-#333333
}


skinparam interface {
	BackgroundColor  #008400
	BorderColor  #007F00
	FontColor #484848
}


skinparam storage {
	BackgroundColor #ff8000
  	BorderColor #cc6600
	FontColor #222222
}


skinparam node {
	BackgroundColor #333333
	BorderColor #333333
	FontColor #C8Ac00
}


skinparam cloud {
	BackgroundColor #484848-black
	BorderColor #484848
	FontColor #D8Bc00
}


skinparam database {
		FontColor #C8Ac00
	BorderColor #333333
	BackgroundColor #333333-#333333
	BackgroundColor  #333333
}


skinparam class {
		FontColor #C8Ac00
	BorderColor #333333
	BackgroundColor #333333-#333333
	HeaderBackgroundColor #1b1b1a
    BackgroundColor #282828
    BorderColor #5e5e5e
 	StereotypeFontColor #a0a0a0
    StereotypeFontStyle bold
	BorderThickness 1
	AttributeFontColor #D8Bc00
	AttributeFontSize 11
    FontColor #D8Bc00
    FontStyle bold
}


skinparam object {
		FontColor #C8Ac00
	BorderColor #333333
	BackgroundColor #333333-#333333
	StereotypeFontColor #484848
	BorderThickness 1
	AttributeFontColor #fefefe
	AttributeFontSize 11
}


skinparam usecase {
		FontColor #C8Ac00
	BorderColor #333333
	BackgroundColor #333333-#333333
	BorderThickness 2
	StereotypeFontColor #303030
}


skinparam rectangle {
		FontColor #C8Ac00
	BorderColor #333333
	BackgroundColor #333333-#333333
	BackgroundColor #333333
	BorderThickness 2
	StereotypeFontColor #303030
}


skinparam package {
		FontColor #C8Ac00
	BorderColor #333333
	BackgroundColor #333333-#333333
	BackgroundColor #333333
	BorderThickness 2
}


skinparam folder {
	BackgroundColor #6d6d6d
  	BorderColor #ff8000
	FontColor #ff8000
	BorderThickness 2
}


skinparam frame {
	BackgroundColor #6d6d6d
  	BorderColor #0060a8
	FontColor #0060a8
	BorderThickness 2
}


skinparam state {
		FontColor #C8Ac00
	BorderColor #333333
	BackgroundColor #333333-#333333
	StartColor #0060a8
	EndColor #0060a8
	AttributeFontColor #fefefe
	AttributeFontSize 11
}


skinparam queue {
		FontColor #C8Ac00
	BorderColor #333333
	BackgroundColor #333333-#333333
}


skinparam card {
	BackgroundColor #0060a8
	BorderColor #004d86
	FontColor $INFO_TEXT
}


skinparam file {
	BackgroundColor #6d6d6d-#484848
	BorderColor #0060a8
	FontColor #fefefe
}


skinparam stack {
		FontColor #C8Ac00
	BorderColor #333333
	BackgroundColor #333333-#333333
}

    
    title "Security"
    
    interface Password
    
    PlainTextPassword <|- - DigestPassword
    class DigestPassword
    {
        - -(constructors)- -
        +DigestPassword(String)
    }
    
    interface Matcher
    Matcher <|- - Password
    interface Password
    {
    }
    
    Password <|- - PlainTextPassword
    class PlainTextPassword
    {
        - -(constructors)- -
        +PlainTextPassword(String)
    }
    
    Name <|- - UserName
    class UserName
    {
        - -(constructors)- -
        +UserName(String)
    }
    
@enduml

PlantUML version 1.2021.01(Tue Feb 02 00:55:08 MST 2021)
(GPL source distribution)
Java Runtime: Java(TM) SE Runtime Environment
JVM: Java HotSpot(TM) 64-Bit Server VM
Default Encoding: UTF-8
Language: en
Country: US
--></g></svg>