<?xml version="1.0" encoding="UTF-8" standalone="no"?><svg xmlns="http://www.w3.org/2000/svg" xmlns:xlink="http://www.w3.org/1999/xlink" contentScriptType="application/ecmascript" contentStyleType="text/css" height="254.1667px" preserveAspectRatio="none" style="width:806px;height:254px;background:#333333;" version="1.1" viewBox="0 0 806 254" width="806.25px" zoomAndPan="magnify"><defs/><g><rect fill="#48494B" height="41.2028" rx="8.3333" ry="8.3333" style="stroke:#545454;stroke-width:1.0416666666666667;" width="608.3333" x="91.9271" y="2.0833"/><text fill="#C0C0C0" font-family="Open Sans,Avenir,Nunito,Arial,Helvetica,SansSerif" font-size="20.8333" lengthAdjust="spacing" textLength="585.4167" x="103.3854" y="30.5583">com.telenav.kivakit.service.registry.serialization.serializers</text><!--MD5=[3a02e24aed122bd624ab5f4d81125687]
class PrimitiveGsonSerializer--><rect fill="#282828" height="48.055" id="PrimitiveGsonSerializer" rx="8.3333" ry="8.3333" style="stroke:#5E5E5E;stroke-width:1.0416666666666667;" width="187.5" x="354.6875" y="53.7028"/><rect fill="#1B1B1A" height="31.3883" rx="8.3333" ry="8.3333" style="stroke:#1B1B1A;stroke-width:1.0416666666666667;" width="187.5" x="354.6875" y="53.7028"/><rect fill="#1B1B1A" height="8.3333" style="stroke:#1B1B1A;stroke-width:1.0416666666666667;" width="187.5" x="354.6875" y="76.7578"/><rect fill="none" height="48.055" id="PrimitiveGsonSerializer" rx="8.3333" ry="8.3333" style="stroke:#5E5E5E;stroke-width:1.0416666666666667;" width="187.5" x="354.6875" y="53.7028"/><ellipse cx="369.2708" cy="69.397" fill="#0066CF" rx="10.4167" ry="10.4167" style="stroke:#0086EF;stroke-width:1.0416666666666667;"/><path d="M371.1812,73.822 Q370.754,74.0417 370.284,74.1516 Q369.814,74.2615 369.2952,74.2615 Q367.452,74.2615 366.4815,73.0469 Q365.5111,71.8323 365.5111,69.5374 Q365.5111,67.2363 366.4815,66.0217 Q367.452,64.8071 369.2952,64.8071 Q369.814,64.8071 370.2901,64.917 Q370.7662,65.0269 371.1812,65.2466 L371.1812,67.2485 Q370.7174,66.8213 370.281,66.6229 Q369.8446,66.4246 369.3807,66.4246 Q368.3919,66.4246 367.8884,67.2089 Q367.3848,67.9932 367.3848,69.5374 Q367.3848,71.0754 367.8884,71.8597 Q368.3919,72.644 369.3807,72.644 Q369.8446,72.644 370.281,72.4457 Q370.7174,72.2473 371.1812,71.8201 Z " fill="#000000"/><text fill="#D8BC00" font-family="Open Sans,Avenir,Nunito,Arial,Helvetica,SansSerif" font-size="12.5" font-weight="bold" lengthAdjust="spacing" textLength="150" x="385.9375" y="74.1211">PrimitiveGsonSerializer</text><line style="stroke:#5E5E5E;stroke-width:1.0416666666666667;" x1="355.7292" x2="541.1458" y1="85.0911" y2="85.0911"/><line style="stroke:#5E5E5E;stroke-width:1.0416666666666667;" x1="355.7292" x2="541.1458" y1="93.4245" y2="93.4245"/><!--MD5=[daf319fc58c530f8887f9d9f14bc79b1]
class ApplicationIdentifierSerializer--><rect codeLine="7" fill="#282828" height="83.3781" id="ApplicationIdentifierSerializer" rx="8.3333" ry="8.3333" style="stroke:#5E5E5E;stroke-width:1.0416666666666667;" width="230.2083" x="7.2917" y="164.1195"/><rect fill="#1B1B1A" height="31.3883" rx="8.3333" ry="8.3333" style="stroke:#1B1B1A;stroke-width:1.0416666666666667;" width="230.2083" x="7.2917" y="164.1195"/><rect fill="#1B1B1A" height="8.3333" style="stroke:#1B1B1A;stroke-width:1.0416666666666667;" width="230.2083" x="7.2917" y="187.1745"/><rect codeLine="7" fill="none" height="83.3781" id="ApplicationIdentifierSerializer" rx="8.3333" ry="8.3333" style="stroke:#5E5E5E;stroke-width:1.0416666666666667;" width="230.2083" x="7.2917" y="164.1195"/><ellipse cx="21.875" cy="179.8136" fill="#0066CF" rx="10.4167" ry="10.4167" style="stroke:#0086EF;stroke-width:1.0416666666666667;"/><path d="M23.7854,184.2387 Q23.3582,184.4584 22.8882,184.5683 Q22.4182,184.6781 21.8994,184.6781 Q20.0562,184.6781 19.0857,183.4635 Q18.1152,182.2489 18.1152,179.954 Q18.1152,177.653 19.0857,176.4384 Q20.0562,175.2238 21.8994,175.2238 Q22.4182,175.2238 22.8943,175.3337 Q23.3704,175.4435 23.7854,175.6632 L23.7854,177.6652 Q23.3215,177.238 22.8851,177.0396 Q22.4487,176.8412 21.9849,176.8412 Q20.9961,176.8412 20.4926,177.6255 Q19.989,178.4098 19.989,179.954 Q19.989,181.4921 20.4926,182.2764 Q20.9961,183.0607 21.9849,183.0607 Q22.4487,183.0607 22.8851,182.8623 Q23.3215,182.664 23.7854,182.2367 Z " fill="#000000"/><text fill="#D8BC00" font-family="Open Sans,Avenir,Nunito,Arial,Helvetica,SansSerif" font-size="12.5" font-weight="bold" lengthAdjust="spacing" textLength="192.7083" x="38.5417" y="184.5378">ApplicationIdentifierSerializer</text><line style="stroke:#5E5E5E;stroke-width:1.5625;" x1="8.3333" x2="236.4583" y1="195.5078" y2="195.5078"/><ellipse cx="18.75" cy="230.8777" fill="#84BE84" rx="3.125" ry="3.125" style="stroke:#038048;stroke-width:1.0416666666666667;"/><text fill="#D8BC00" font-family="Open Sans,Avenir,Nunito,Arial,Helvetica,SansSerif" font-size="11.4583" lengthAdjust="spacing" textLength="172.9167" x="30.2083" y="237.7889">ApplicationIdentifierSerializer()</text><line style="stroke:#5E5E5E;stroke-width:1.0416666666666667;" x1="8.3333" x2="78.6458" y1="213.7136" y2="213.7136"/><text fill="#D8BC00" font-family="Open Sans,Avenir,Nunito,Arial,Helvetica,SansSerif" font-size="11.4583" lengthAdjust="spacing" textLength="81.25" x="81.7708" y="217.5232">(constructors)</text><line style="stroke:#5E5E5E;stroke-width:1.0416666666666667;" x1="166.1458" x2="236.4583" y1="213.7136" y2="213.7136"/><!--MD5=[ec0576183f87ab756030ab95498bba82]
class ProblemSerializer--><rect codeLine="14" fill="#282828" height="83.3781" id="ProblemSerializer" rx="8.3333" ry="8.3333" style="stroke:#5E5E5E;stroke-width:1.0416666666666667;" width="150" x="274.4792" y="164.1195"/><rect fill="#1B1B1A" height="31.3883" rx="8.3333" ry="8.3333" style="stroke:#1B1B1A;stroke-width:1.0416666666666667;" width="150" x="274.4792" y="164.1195"/><rect fill="#1B1B1A" height="8.3333" style="stroke:#1B1B1A;stroke-width:1.0416666666666667;" width="150" x="274.4792" y="187.1745"/><rect codeLine="14" fill="none" height="83.3781" id="ProblemSerializer" rx="8.3333" ry="8.3333" style="stroke:#5E5E5E;stroke-width:1.0416666666666667;" width="150" x="274.4792" y="164.1195"/><ellipse cx="289.0625" cy="179.8136" fill="#0066CF" rx="10.4167" ry="10.4167" style="stroke:#0086EF;stroke-width:1.0416666666666667;"/><path d="M290.9729,184.2387 Q290.5457,184.4584 290.0757,184.5683 Q289.6057,184.6781 289.0869,184.6781 Q287.2437,184.6781 286.2732,183.4635 Q285.3027,182.2489 285.3027,179.954 Q285.3027,177.653 286.2732,176.4384 Q287.2437,175.2238 289.0869,175.2238 Q289.6057,175.2238 290.0818,175.3337 Q290.5579,175.4435 290.9729,175.6632 L290.9729,177.6652 Q290.509,177.238 290.0726,177.0396 Q289.6362,176.8412 289.1724,176.8412 Q288.1836,176.8412 287.6801,177.6255 Q287.1765,178.4098 287.1765,179.954 Q287.1765,181.4921 287.6801,182.2764 Q288.1836,183.0607 289.1724,183.0607 Q289.6362,183.0607 290.0726,182.8623 Q290.509,182.664 290.9729,182.2367 Z " fill="#000000"/><text fill="#D8BC00" font-family="Open Sans,Avenir,Nunito,Arial,Helvetica,SansSerif" font-size="12.5" font-weight="bold" lengthAdjust="spacing" textLength="112.5" x="305.7292" y="184.5378">ProblemSerializer</text><line style="stroke:#5E5E5E;stroke-width:1.5625;" x1="275.5208" x2="423.4375" y1="195.5078" y2="195.5078"/><ellipse cx="285.9375" cy="230.8777" fill="#84BE84" rx="3.125" ry="3.125" style="stroke:#038048;stroke-width:1.0416666666666667;"/><text fill="#D8BC00" font-family="Open Sans,Avenir,Nunito,Arial,Helvetica,SansSerif" font-size="11.4583" lengthAdjust="spacing" textLength="105.2083" x="297.3958" y="237.7889">ProblemSerializer()</text><line style="stroke:#5E5E5E;stroke-width:1.0416666666666667;" x1="275.5208" x2="305.7292" y1="213.7136" y2="213.7136"/><text fill="#D8BC00" font-family="Open Sans,Avenir,Nunito,Arial,Helvetica,SansSerif" font-size="11.4583" lengthAdjust="spacing" textLength="81.25" x="308.8542" y="217.5232">(constructors)</text><line style="stroke:#5E5E5E;stroke-width:1.0416666666666667;" x1="393.2292" x2="423.4375" y1="213.7136" y2="213.7136"/><!--MD5=[4d1b751dfa880b3a21d0bb9c99de0887]
class ServiceTypeSerializer--><rect codeLine="21" fill="#282828" height="83.3781" id="ServiceTypeSerializer" rx="8.3333" ry="8.3333" style="stroke:#5E5E5E;stroke-width:1.0416666666666667;" width="172.9167" x="460.9375" y="164.1195"/><rect fill="#1B1B1A" height="31.3883" rx="8.3333" ry="8.3333" style="stroke:#1B1B1A;stroke-width:1.0416666666666667;" width="172.9167" x="460.9375" y="164.1195"/><rect fill="#1B1B1A" height="8.3333" style="stroke:#1B1B1A;stroke-width:1.0416666666666667;" width="172.9167" x="460.9375" y="187.1745"/><rect codeLine="21" fill="none" height="83.3781" id="ServiceTypeSerializer" rx="8.3333" ry="8.3333" style="stroke:#5E5E5E;stroke-width:1.0416666666666667;" width="172.9167" x="460.9375" y="164.1195"/><ellipse cx="475.5208" cy="179.8136" fill="#0066CF" rx="10.4167" ry="10.4167" style="stroke:#0086EF;stroke-width:1.0416666666666667;"/><path d="M477.4312,184.2387 Q477.004,184.4584 476.534,184.5683 Q476.064,184.6781 475.5452,184.6781 Q473.702,184.6781 472.7315,183.4635 Q471.7611,182.2489 471.7611,179.954 Q471.7611,177.653 472.7315,176.4384 Q473.702,175.2238 475.5452,175.2238 Q476.064,175.2238 476.5401,175.3337 Q477.0162,175.4435 477.4312,175.6632 L477.4312,177.6652 Q476.9674,177.238 476.531,177.0396 Q476.0946,176.8412 475.6307,176.8412 Q474.6419,176.8412 474.1384,177.6255 Q473.6348,178.4098 473.6348,179.954 Q473.6348,181.4921 474.1384,182.2764 Q474.6419,183.0607 475.6307,183.0607 Q476.0946,183.0607 476.531,182.8623 Q476.9674,182.664 477.4312,182.2367 Z " fill="#000000"/><text fill="#D8BC00" font-family="Open Sans,Avenir,Nunito,Arial,Helvetica,SansSerif" font-size="12.5" font-weight="bold" lengthAdjust="spacing" textLength="135.4167" x="492.1875" y="184.5378">ServiceTypeSerializer</text><line style="stroke:#5E5E5E;stroke-width:1.5625;" x1="461.9792" x2="632.8125" y1="195.5078" y2="195.5078"/><ellipse cx="472.3958" cy="230.8777" fill="#84BE84" rx="3.125" ry="3.125" style="stroke:#038048;stroke-width:1.0416666666666667;"/><text fill="#D8BC00" font-family="Open Sans,Avenir,Nunito,Arial,Helvetica,SansSerif" font-size="11.4583" lengthAdjust="spacing" textLength="126.0417" x="483.8542" y="237.7889">ServiceTypeSerializer()</text><line style="stroke:#5E5E5E;stroke-width:1.0416666666666667;" x1="461.9792" x2="503.6458" y1="213.7136" y2="213.7136"/><text fill="#D8BC00" font-family="Open Sans,Avenir,Nunito,Arial,Helvetica,SansSerif" font-size="11.4583" lengthAdjust="spacing" textLength="81.25" x="506.7708" y="217.5232">(constructors)</text><line style="stroke:#5E5E5E;stroke-width:1.0416666666666667;" x1="591.1458" x2="632.8125" y1="213.7136" y2="213.7136"/><!--MD5=[2935106d0e687eaa8eb598865d7d1e40]
class TimeSerializer--><rect codeLine="28" fill="#282828" height="83.3781" id="TimeSerializer" rx="8.3333" ry="8.3333" style="stroke:#5E5E5E;stroke-width:1.0416666666666667;" width="129.1667" x="670.3125" y="164.1195"/><rect fill="#1B1B1A" height="31.3883" rx="8.3333" ry="8.3333" style="stroke:#1B1B1A;stroke-width:1.0416666666666667;" width="129.1667" x="670.3125" y="164.1195"/><rect fill="#1B1B1A" height="8.3333" style="stroke:#1B1B1A;stroke-width:1.0416666666666667;" width="129.1667" x="670.3125" y="187.1745"/><rect codeLine="28" fill="none" height="83.3781" id="TimeSerializer" rx="8.3333" ry="8.3333" style="stroke:#5E5E5E;stroke-width:1.0416666666666667;" width="129.1667" x="670.3125" y="164.1195"/><ellipse cx="684.8958" cy="179.8136" fill="#0066CF" rx="10.4167" ry="10.4167" style="stroke:#0086EF;stroke-width:1.0416666666666667;"/><path d="M686.8062,184.2387 Q686.379,184.4584 685.909,184.5683 Q685.439,184.6781 684.9202,184.6781 Q683.077,184.6781 682.1065,183.4635 Q681.1361,182.2489 681.1361,179.954 Q681.1361,177.653 682.1065,176.4384 Q683.077,175.2238 684.9202,175.2238 Q685.439,175.2238 685.9151,175.3337 Q686.3912,175.4435 686.8062,175.6632 L686.8062,177.6652 Q686.3424,177.238 685.906,177.0396 Q685.4696,176.8412 685.0057,176.8412 Q684.0169,176.8412 683.5134,177.6255 Q683.0098,178.4098 683.0098,179.954 Q683.0098,181.4921 683.5134,182.2764 Q684.0169,183.0607 685.0057,183.0607 Q685.4696,183.0607 685.906,182.8623 Q686.3424,182.664 686.8062,182.2367 Z " fill="#000000"/><text fill="#D8BC00" font-family="Open Sans,Avenir,Nunito,Arial,Helvetica,SansSerif" font-size="12.5" font-weight="bold" lengthAdjust="spacing" textLength="91.6667" x="701.5625" y="184.5378">TimeSerializer</text><line style="stroke:#5E5E5E;stroke-width:1.5625;" x1="671.3542" x2="798.4375" y1="195.5078" y2="195.5078"/><ellipse cx="681.7708" cy="230.8777" fill="#84BE84" rx="3.125" ry="3.125" style="stroke:#038048;stroke-width:1.0416666666666667;"/><text fill="#D8BC00" font-family="Open Sans,Avenir,Nunito,Arial,Helvetica,SansSerif" font-size="11.4583" lengthAdjust="spacing" textLength="86.4583" x="693.2292" y="237.7889">TimeSerializer()</text><line style="stroke:#5E5E5E;stroke-width:1.0416666666666667;" x1="671.3542" x2="691.1458" y1="213.7136" y2="213.7136"/><text fill="#D8BC00" font-family="Open Sans,Avenir,Nunito,Arial,Helvetica,SansSerif" font-size="11.4583" lengthAdjust="spacing" textLength="81.25" x="694.2708" y="217.5232">(constructors)</text><line style="stroke:#5E5E5E;stroke-width:1.0416666666666667;" x1="778.6458" x2="798.4375" y1="213.7136" y2="213.7136"/><!--MD5=[0c46361bf14052b535d82c9c8483e946]
reverse link PrimitiveGsonSerializer to ApplicationIdentifierSerializer--><path codeLine="6" d="M369.3333,109.2861 C326.7292,125.7549 273.6146,146.2861 227.5833,164.0778 " fill="none" id="PrimitiveGsonSerializer-backto-ApplicationIdentifierSerializer" style="stroke:#545454;stroke-width:1.5625;"/><polygon fill="none" points="366.9583,102.3903,389.0104,101.6715,372.2083,115.984,366.9583,102.3903" style="stroke:#545454;stroke-width:1.5625;"/><!--MD5=[e6cfe4833b060d58ba1f0a2c1f5bd240]
reverse link PrimitiveGsonSerializer to ProblemSerializer--><path codeLine="13" d="M417.3333,118.3174 C405.9271,132.8382 393.0104,149.2965 381.5313,163.9215 " fill="none" id="PrimitiveGsonSerializer-backto-ProblemSerializer" style="stroke:#545454;stroke-width:1.5625;"/><polygon fill="none" points="411.6875,113.7028,430.2917,101.8174,423.1563,122.7132,411.6875,113.7028" style="stroke:#545454;stroke-width:1.5625;"/><!--MD5=[f179f381dbaf3763483cdfea13e0fe84]
reverse link PrimitiveGsonSerializer to ServiceTypeSerializer--><path codeLine="20" d="M479.5417,118.3174 C490.9479,132.8382 503.8646,149.2965 515.3438,163.9215 " fill="none" id="PrimitiveGsonSerializer-backto-ServiceTypeSerializer" style="stroke:#545454;stroke-width:1.5625;"/><polygon fill="none" points="473.7188,122.7132,466.5833,101.8174,485.1875,113.7028,473.7188,122.7132" style="stroke:#545454;stroke-width:1.5625;"/><!--MD5=[7210ea2efae2c0f8c1c3cebe974d334e]
reverse link PrimitiveGsonSerializer to TimeSerializer--><path codeLine="27" d="M525.5729,109.6507 C564,125.4007 611.0104,145.1715 652.6042,164.1195 C658.2604,166.6924 664.1042,169.432 669.9375,172.2132 " fill="none" id="PrimitiveGsonSerializer-backto-TimeSerializer" style="stroke:#545454;stroke-width:1.5625;"/><polygon fill="none" points="522.5938,116.307,506.0521,101.6924,528.0938,102.7965,522.5938,116.307" style="stroke:#545454;stroke-width:1.5625;"/><!--MD5=[a8d704bf2aa0ce98381bc7bbea630895]
@startuml

    !include ../lexakai/lexakai.theme
    
    title "com.telenav.kivakit.service.registry.serialization.serializers"
    
    PrimitiveGsonSerializer <|- - ApplicationIdentifierSerializer
    class ApplicationIdentifierSerializer
    {
        - -(constructors)- -
        +ApplicationIdentifierSerializer()
    }
    
    PrimitiveGsonSerializer <|- - ProblemSerializer
    class ProblemSerializer
    {
        - -(constructors)- -
        +ProblemSerializer()
    }
    
    PrimitiveGsonSerializer <|- - ServiceTypeSerializer
    class ServiceTypeSerializer
    {
        - -(constructors)- -
        +ServiceTypeSerializer()
    }
    
    PrimitiveGsonSerializer <|- - TimeSerializer
    class TimeSerializer
    {
        - -(constructors)- -
        +TimeSerializer()
    }
    
@enduml

@startuml









skinparam backgroundColor #333333






skinparam  {
    defaultFontName   "Open Sans,Avenir,Nunito,Arial,Helvetica,SansSerif"
    defaultFontSize   12
    defaultTextAlignment left
    shadowing false
    RoundCorner 10
    TitleFontSize 18
}

skinparam defaultFontName       "Open Sans,Avenir,Nunito,Arial,Helvetica,SansSerif"
skinparam defaultFontSize       12
skinparam dpi                   100
skinparam shadowing             false
skinparam roundcorner           16
skinparam ParticipantPadding    40
skinparam BoxPadding            40
skinparam Padding               3
skinparam ArrowColor            #545454
skinparam stereotype {
    CBackgroundColor #0066cf
    CBorderColor #0086ef
    ABackgroundColor #C8Ac00
    ABorderColor #D8Bc00
    IBackgroundColor #008400
    IBorderColor #239c23
    EBackgroundColor #cf6300
    EBorderColor #ef8300
    NBackgroundColor #3380b9
    NBorderColor #004d86
}
skinparam title {
	FontColor	                 #c0c0c0
 	BorderColor                  #545454
	FontSize	    	         20
	BorderRoundCorner            16
	BorderThickness 	         1
	BackgroundColor              #48494b
}


skinparam legend {
	BackgroundColor #303030
	BorderColor #404040
	FontColor #a0a0a0
}

	skinparam swimlane {
	BorderColor #5e5e5e
	BorderThickness 2
	TitleBackgroundColor  #6d6d6d-#484848
	TitleFontColor #303030
}

skinparam activity {
		FontColor #C8Ac00
	BorderColor #333333
	BackgroundColor #333333-#333333
	BarColor #00FF00
	StartColor #0060a8
	EndColor #0060a8
	DiamondBackgroundColor #6d6d6d-#3a3a3a
  	DiamondBorderColor #3a3a3a
  	DiamondFontColor #fefefe
}


skinparam participant {
		FontColor #C8Ac00
	BorderColor #333333
	BackgroundColor #333333-#333333
	ParticipantBorderThickness 2
}


skinparam actor {
		FontColor #C8Ac00
	BorderColor #333333
	BackgroundColor #333333-#333333
}


skinparam arrow {
	Thickness 1.5
	Color #545454
	FontColor #a0a0a0
    FontStyle bold
    MessageAlignment center
}



skinparam sequence {
	BorderColor #303030
	TitleFontColor #303030
	BackgroundColor #333333
	StartColor #303030
	EndColor #303030
	BoxBackgroundColor #333333
	BoxBorderColor #484848
	BoxFontColor #484848
	LifeLineBorderColor #484848
	LifeLineBorderThickness 2
	LifeLineBackgroundColor #3a3a3a
	GroupBorderColor #484848
	GroupFontColor #484848
	GroupHeaderFontColor #0060a8
	GroupBackgroundColor #484848
	GroupHeaderBackgroundColor #333333
	DividerBackgroundColor #484848
    DividerBorderColor #484848
    DividerBorderThickness 2
    DividerFontColor #D8Bc00
	ReferenceBackgroundColor #333333
	ReferenceBorderColor #484848
	ReferenceFontColor #fefefe
	ReferenceHeaderBackgroundColor #484848
}


skinparam partition {
	BorderColor #303030
	FontColor #333333
	BackgroundColor #333333
}


skinparam collections {
		FontColor #C8Ac00
	BorderColor #333333
	BackgroundColor #333333-#333333
}


skinparam control {
		FontColor #C8Ac00
	BorderColor #333333
	BackgroundColor #333333-#333333
}


skinparam entity {
		FontColor #C8Ac00
	BorderColor #333333
	BackgroundColor #333333-#333333
}


skinparam boundary {
		FontColor #C8Ac00
	BorderColor #333333
	BackgroundColor #333333-#333333
}


skinparam agent {
	BackgroundColor #ff8000
	BorderColor #ff9933
	FontColor #484848
}


skinparam note {
	BorderThickness 1
	BackgroundColor #1b1b1a
	BorderColor #5e5e5e
	FontSize 11
	FontColor #a0a0a0
}


skinparam artifact {
	BorderThickness 10
	BorderColor #5e5e5e
	BackgroundColor #1b1b1a
	FontColor #D8Bc00
}


skinparam component {
		FontColor #C8Ac00
	BorderColor #333333
	BackgroundColor #333333-#333333
}


skinparam interface {
	BackgroundColor  #008400
	BorderColor  #007F00
	FontColor #484848
}


skinparam storage {
	BackgroundColor #ff8000
  	BorderColor #cc6600
	FontColor #222222
}


skinparam node {
	BackgroundColor #333333
	BorderColor #333333
	FontColor #C8Ac00
}


skinparam cloud {
	BackgroundColor #484848-black
	BorderColor #484848
	FontColor #D8Bc00
}


skinparam database {
		FontColor #C8Ac00
	BorderColor #333333
	BackgroundColor #333333-#333333
	BackgroundColor  #333333
}


skinparam class {
		FontColor #C8Ac00
	BorderColor #333333
	BackgroundColor #333333-#333333
	HeaderBackgroundColor #1b1b1a
    BackgroundColor #282828
    BorderColor #5e5e5e
 	StereotypeFontColor #a0a0a0
    StereotypeFontStyle bold
	BorderThickness 1
	AttributeFontColor #D8Bc00
	AttributeFontSize 11
    FontColor #D8Bc00
    FontStyle bold
}


skinparam object {
		FontColor #C8Ac00
	BorderColor #333333
	BackgroundColor #333333-#333333
	StereotypeFontColor #484848
	BorderThickness 1
	AttributeFontColor #fefefe
	AttributeFontSize 11
}


skinparam usecase {
		FontColor #C8Ac00
	BorderColor #333333
	BackgroundColor #333333-#333333
	BorderThickness 2
	StereotypeFontColor #303030
}


skinparam rectangle {
		FontColor #C8Ac00
	BorderColor #333333
	BackgroundColor #333333-#333333
	BackgroundColor #333333
	BorderThickness 2
	StereotypeFontColor #303030
}


skinparam package {
		FontColor #C8Ac00
	BorderColor #333333
	BackgroundColor #333333-#333333
	BackgroundColor #333333
	BorderThickness 2
}


skinparam folder {
	BackgroundColor #6d6d6d
  	BorderColor #ff8000
	FontColor #ff8000
	BorderThickness 2
}


skinparam frame {
	BackgroundColor #6d6d6d
  	BorderColor #0060a8
	FontColor #0060a8
	BorderThickness 2
}


skinparam state {
		FontColor #C8Ac00
	BorderColor #333333
	BackgroundColor #333333-#333333
	StartColor #0060a8
	EndColor #0060a8
	AttributeFontColor #fefefe
	AttributeFontSize 11
}


skinparam queue {
		FontColor #C8Ac00
	BorderColor #333333
	BackgroundColor #333333-#333333
}


skinparam card {
	BackgroundColor #0060a8
	BorderColor #004d86
	FontColor $INFO_TEXT
}


skinparam file {
	BackgroundColor #6d6d6d-#484848
	BorderColor #0060a8
	FontColor #fefefe
}


skinparam stack {
		FontColor #C8Ac00
	BorderColor #333333
	BackgroundColor #333333-#333333
}

    
    title "com.telenav.kivakit.service.registry.serialization.serializers"
    
    PrimitiveGsonSerializer <|- - ApplicationIdentifierSerializer
    class ApplicationIdentifierSerializer
    {
        - -(constructors)- -
        +ApplicationIdentifierSerializer()
    }
    
    PrimitiveGsonSerializer <|- - ProblemSerializer
    class ProblemSerializer
    {
        - -(constructors)- -
        +ProblemSerializer()
    }
    
    PrimitiveGsonSerializer <|- - ServiceTypeSerializer
    class ServiceTypeSerializer
    {
        - -(constructors)- -
        +ServiceTypeSerializer()
    }
    
    PrimitiveGsonSerializer <|- - TimeSerializer
    class TimeSerializer
    {
        - -(constructors)- -
        +TimeSerializer()
    }
    
@enduml

PlantUML version 1.2021.01(Tue Feb 02 00:55:08 MST 2021)
(GPL source distribution)
Java Runtime: Java(TM) SE Runtime Environment
JVM: Java HotSpot(TM) 64-Bit Server VM
Default Encoding: UTF-8
Language: en
Country: US
--></g></svg>