<?xml version="1.0" encoding="UTF-8" standalone="no"?><svg xmlns="http://www.w3.org/2000/svg" xmlns:xlink="http://www.w3.org/1999/xlink" contentScriptType="application/ecmascript" contentStyleType="text/css" height="297.9167px" preserveAspectRatio="none" style="width:535px;height:297px;background:#333333;" version="1.1" viewBox="0 0 535 297" width="535.4167px" zoomAndPan="magnify"><defs/><g><rect fill="#48494B" height="41.2028" rx="8.3333" ry="8.3333" style="stroke:#545454;stroke-width:1.0416666666666667;" width="447.9167" x="36.7188" y="2.0833"/><text fill="#C0C0C0" font-family="Open Sans,Avenir,Nunito,Arial,Helvetica,SansSerif" font-size="20.8333" lengthAdjust="spacing" textLength="425" x="48.1771" y="30.5583">com.telenav.kivakit.service.registry.project</text><!--MD5=[d776228a55af1f9e7dd99d395538019c]
class KryoTypes--><rect fill="#282828" height="48.055" id="KryoTypes" rx="8.3333" ry="8.3333" style="stroke:#5E5E5E;stroke-width:1.0416666666666667;" width="106.25" x="56.25" y="53.7028"/><rect fill="#1B1B1A" height="31.3883" rx="8.3333" ry="8.3333" style="stroke:#1B1B1A;stroke-width:1.0416666666666667;" width="106.25" x="56.25" y="53.7028"/><rect fill="#1B1B1A" height="8.3333" style="stroke:#1B1B1A;stroke-width:1.0416666666666667;" width="106.25" x="56.25" y="76.7578"/><rect fill="none" height="48.055" id="KryoTypes" rx="8.3333" ry="8.3333" style="stroke:#5E5E5E;stroke-width:1.0416666666666667;" width="106.25" x="56.25" y="53.7028"/><ellipse cx="70.8333" cy="69.397" fill="#0066CF" rx="10.4167" ry="10.4167" style="stroke:#0086EF;stroke-width:1.0416666666666667;"/><path d="M72.7437,73.822 Q72.3165,74.0417 71.8465,74.1516 Q71.3765,74.2615 70.8577,74.2615 Q69.0145,74.2615 68.044,73.0469 Q67.0736,71.8323 67.0736,69.5374 Q67.0736,67.2363 68.044,66.0217 Q69.0145,64.8071 70.8577,64.8071 Q71.3765,64.8071 71.8526,64.917 Q72.3287,65.0269 72.7437,65.2466 L72.7437,67.2485 Q72.2799,66.8213 71.8435,66.6229 Q71.4071,66.4246 70.9432,66.4246 Q69.9544,66.4246 69.4509,67.2089 Q68.9473,67.9932 68.9473,69.5374 Q68.9473,71.0754 69.4509,71.8597 Q69.9544,72.644 70.9432,72.644 Q71.4071,72.644 71.8435,72.4457 Q72.2799,72.2473 72.7437,71.8201 Z " fill="#000000"/><text fill="#D8BC00" font-family="Open Sans,Avenir,Nunito,Arial,Helvetica,SansSerif" font-size="12.5" font-weight="bold" lengthAdjust="spacing" textLength="68.75" x="87.5" y="74.1211">KryoTypes</text><line style="stroke:#5E5E5E;stroke-width:1.0416666666666667;" x1="57.2917" x2="161.4583" y1="85.0911" y2="85.0911"/><line style="stroke:#5E5E5E;stroke-width:1.0416666666666667;" x1="57.2917" x2="161.4583" y1="93.4245" y2="93.4245"/><!--MD5=[5c14331d38b066776dce1c99d1773f2b]
class ServiceRegistryKryoTypes--><rect codeLine="7" fill="#282828" height="83.3781" id="ServiceRegistryKryoTypes" rx="8.3333" ry="8.3333" style="stroke:#5E5E5E;stroke-width:1.0416666666666667;" width="204.1667" x="7.2917" y="185.9945"/><rect fill="#1B1B1A" height="31.3883" rx="8.3333" ry="8.3333" style="stroke:#1B1B1A;stroke-width:1.0416666666666667;" width="204.1667" x="7.2917" y="185.9945"/><rect fill="#1B1B1A" height="8.3333" style="stroke:#1B1B1A;stroke-width:1.0416666666666667;" width="204.1667" x="7.2917" y="209.0495"/><rect codeLine="7" fill="none" height="83.3781" id="ServiceRegistryKryoTypes" rx="8.3333" ry="8.3333" style="stroke:#5E5E5E;stroke-width:1.0416666666666667;" width="204.1667" x="7.2917" y="185.9945"/><ellipse cx="21.875" cy="201.6886" fill="#0066CF" rx="10.4167" ry="10.4167" style="stroke:#0086EF;stroke-width:1.0416666666666667;"/><path d="M23.7854,206.1137 Q23.3582,206.3334 22.8882,206.4433 Q22.4182,206.5531 21.8994,206.5531 Q20.0562,206.5531 19.0857,205.3385 Q18.1152,204.1239 18.1152,201.829 Q18.1152,199.528 19.0857,198.3134 Q20.0562,197.0988 21.8994,197.0988 Q22.4182,197.0988 22.8943,197.2087 Q23.3704,197.3185 23.7854,197.5382 L23.7854,199.5402 Q23.3215,199.113 22.8851,198.9146 Q22.4487,198.7162 21.9849,198.7162 Q20.9961,198.7162 20.4926,199.5005 Q19.989,200.2848 19.989,201.829 Q19.989,203.3671 20.4926,204.1514 Q20.9961,204.9357 21.9849,204.9357 Q22.4487,204.9357 22.8851,204.7373 Q23.3215,204.539 23.7854,204.1117 Z " fill="#000000"/><text fill="#D8BC00" font-family="Open Sans,Avenir,Nunito,Arial,Helvetica,SansSerif" font-size="12.5" font-weight="bold" lengthAdjust="spacing" textLength="166.6667" x="38.5417" y="206.4128">ServiceRegistryKryoTypes</text><line style="stroke:#5E5E5E;stroke-width:1.5625;" x1="8.3333" x2="210.4167" y1="217.3828" y2="217.3828"/><ellipse cx="18.75" cy="252.7527" fill="#84BE84" rx="3.125" ry="3.125" style="stroke:#038048;stroke-width:1.0416666666666667;"/><text fill="#D8BC00" font-family="Open Sans,Avenir,Nunito,Arial,Helvetica,SansSerif" font-size="11.4583" lengthAdjust="spacing" textLength="153.125" x="30.2083" y="259.6639">ServiceRegistryKryoTypes()</text><line style="stroke:#5E5E5E;stroke-width:1.0416666666666667;" x1="8.3333" x2="65.625" y1="235.5886" y2="235.5886"/><text fill="#D8BC00" font-family="Open Sans,Avenir,Nunito,Arial,Helvetica,SansSerif" font-size="11.4583" lengthAdjust="spacing" textLength="81.25" x="68.75" y="239.3982">(constructors)</text><line style="stroke:#5E5E5E;stroke-width:1.0416666666666667;" x1="153.125" x2="210.4167" y1="235.5886" y2="235.5886"/><!--MD5=[79d378210367c0c6ec62ef762ddfbd1b]
class Project--><rect fill="#282828" height="48.055" id="Project" rx="8.3333" ry="8.3333" style="stroke:#5E5E5E;stroke-width:1.0416666666666667;" width="81.25" x="347.9167" y="53.7028"/><rect fill="#1B1B1A" height="31.3883" rx="8.3333" ry="8.3333" style="stroke:#1B1B1A;stroke-width:1.0416666666666667;" width="81.25" x="347.9167" y="53.7028"/><rect fill="#1B1B1A" height="8.3333" style="stroke:#1B1B1A;stroke-width:1.0416666666666667;" width="81.25" x="347.9167" y="76.7578"/><rect fill="none" height="48.055" id="Project" rx="8.3333" ry="8.3333" style="stroke:#5E5E5E;stroke-width:1.0416666666666667;" width="81.25" x="347.9167" y="53.7028"/><ellipse cx="362.5" cy="69.397" fill="#0066CF" rx="10.4167" ry="10.4167" style="stroke:#0086EF;stroke-width:1.0416666666666667;"/><path d="M364.4104,73.822 Q363.9832,74.0417 363.5132,74.1516 Q363.0432,74.2615 362.5244,74.2615 Q360.6812,74.2615 359.7107,73.0469 Q358.7402,71.8323 358.7402,69.5374 Q358.7402,67.2363 359.7107,66.0217 Q360.6812,64.8071 362.5244,64.8071 Q363.0432,64.8071 363.5193,64.917 Q363.9954,65.0269 364.4104,65.2466 L364.4104,67.2485 Q363.9465,66.8213 363.5101,66.6229 Q363.0737,66.4246 362.6099,66.4246 Q361.6211,66.4246 361.1176,67.2089 Q360.614,67.9932 360.614,69.5374 Q360.614,71.0754 361.1176,71.8597 Q361.6211,72.644 362.6099,72.644 Q363.0737,72.644 363.5101,72.4457 Q363.9465,72.2473 364.4104,71.8201 Z " fill="#000000"/><text fill="#D8BC00" font-family="Open Sans,Avenir,Nunito,Arial,Helvetica,SansSerif" font-size="12.5" font-weight="bold" lengthAdjust="spacing" textLength="43.75" x="379.1667" y="74.1211">Project</text><line style="stroke:#5E5E5E;stroke-width:1.0416666666666667;" x1="348.9583" x2="428.125" y1="85.0911" y2="85.0911"/><line style="stroke:#5E5E5E;stroke-width:1.0416666666666667;" x1="348.9583" x2="428.125" y1="93.4245" y2="93.4245"/><!--MD5=[4741149557d327cef8e7562c36e80187]
class ServiceRegistryProject--><rect codeLine="14" fill="#282828" height="127.0345" id="ServiceRegistryProject" rx="8.3333" ry="8.3333" style="stroke:#5E5E5E;stroke-width:1.0416666666666667;" width="280.2083" x="248.4375" y="164.1195"/><rect fill="#1B1B1A" height="31.3883" rx="8.3333" ry="8.3333" style="stroke:#1B1B1A;stroke-width:1.0416666666666667;" width="280.2083" x="248.4375" y="164.1195"/><rect fill="#1B1B1A" height="8.3333" style="stroke:#1B1B1A;stroke-width:1.0416666666666667;" width="280.2083" x="248.4375" y="187.1745"/><rect codeLine="14" fill="none" height="127.0345" id="ServiceRegistryProject" rx="8.3333" ry="8.3333" style="stroke:#5E5E5E;stroke-width:1.0416666666666667;" width="280.2083" x="248.4375" y="164.1195"/><ellipse cx="310.4167" cy="179.8136" fill="#0066CF" rx="10.4167" ry="10.4167" style="stroke:#0086EF;stroke-width:1.0416666666666667;"/><path d="M312.3271,184.2387 Q311.8998,184.4584 311.4299,184.5683 Q310.9599,184.6781 310.4411,184.6781 Q308.5978,184.6781 307.6274,183.4635 Q306.6569,182.2489 306.6569,179.954 Q306.6569,177.653 307.6274,176.4384 Q308.5978,175.2238 310.4411,175.2238 Q310.9599,175.2238 311.436,175.3337 Q311.912,175.4435 312.3271,175.6632 L312.3271,177.6652 Q311.8632,177.238 311.4268,177.0396 Q310.9904,176.8412 310.5265,176.8412 Q309.5378,176.8412 309.0342,177.6255 Q308.5307,178.4098 308.5307,179.954 Q308.5307,181.4921 309.0342,182.2764 Q309.5378,183.0607 310.5265,183.0607 Q310.9904,183.0607 311.4268,182.8623 Q311.8632,182.664 312.3271,182.2367 Z " fill="#000000"/><text fill="#D8BC00" font-family="Open Sans,Avenir,Nunito,Arial,Helvetica,SansSerif" font-size="12.5" font-weight="bold" lengthAdjust="spacing" textLength="141.6667" x="333.3333" y="184.5378">ServiceRegistryProject</text><line style="stroke:#5E5E5E;stroke-width:1.5625;" x1="249.4792" x2="527.6042" y1="195.5078" y2="195.5078"/><ellipse cx="259.8958" cy="230.8777" fill="#84BE84" rx="3.125" ry="3.125" style="stroke:#038048;stroke-width:1.0416666666666667;"/><text fill="#D8BC00" font-family="Open Sans,Avenir,Nunito,Arial,Helvetica,SansSerif" font-size="11.4583" lengthAdjust="spacing" textLength="247.9167" x="271.3542" y="237.7889">SerializationSessionFactory sessionFactory()</text><line style="stroke:#5E5E5E;stroke-width:1.0416666666666667;" x1="249.4792" x2="347.3958" y1="213.7136" y2="213.7136"/><text fill="#D8BC00" font-family="Open Sans,Avenir,Nunito,Arial,Helvetica,SansSerif" font-size="11.4583" lengthAdjust="spacing" textLength="76.0417" x="350.5208" y="217.5232">(serialization)</text><line style="stroke:#5E5E5E;stroke-width:1.0416666666666667;" x1="429.6875" x2="527.6042" y1="213.7136" y2="213.7136"/><ellipse cx="259.8958" cy="274.5341" fill="#84BE84" rx="3.125" ry="3.125" style="stroke:#038048;stroke-width:1.0416666666666667;"/><text fill="#D8BC00" font-family="Open Sans,Avenir,Nunito,Arial,Helvetica,SansSerif" font-size="11.4583" lengthAdjust="spacing" textLength="153.125" x="271.3542" y="281.4453">ServiceRegistryProject get()</text><line style="stroke:#5E5E5E;stroke-width:1.0416666666666667;" x1="249.4792" x2="361.4583" y1="257.37" y2="257.37"/><text fill="#D8BC00" font-family="Open Sans,Avenir,Nunito,Arial,Helvetica,SansSerif" font-size="11.4583" lengthAdjust="spacing" textLength="47.9167" x="364.5833" y="261.1796">(service)</text><line style="stroke:#5E5E5E;stroke-width:1.0416666666666667;" x1="415.625" x2="527.6042" y1="257.37" y2="257.37"/><!--MD5=[189dad1c3747d883af4d52edab2423b6]
reverse link KryoTypes to ServiceRegistryKryoTypes--><path codeLine="6" d="M109.375,122.8486 C109.375,142.807 109.375,166.2549 109.375,185.807 " fill="none" id="KryoTypes-backto-ServiceRegistryKryoTypes" style="stroke:#545454;stroke-width:1.5625;"/><polygon fill="none" points="102.0833,122.6507,109.375,101.8174,116.6667,122.6507,102.0833,122.6507" style="stroke:#545454;stroke-width:1.5625;"/><!--MD5=[12d3582e922560c1ddd24b181c716e55]
reverse link Project to ServiceRegistryProject--><path codeLine="13" d="M388.5417,123.057 C388.5417,135.9632 388.5417,150.307 388.5417,164.109 " fill="none" id="Project-backto-ServiceRegistryProject" style="stroke:#545454;stroke-width:1.5625;"/><polygon fill="none" points="381.25,122.6507,388.5417,101.8174,395.8333,122.6507,381.25,122.6507" style="stroke:#545454;stroke-width:1.5625;"/><!--MD5=[73118753dd1b1ab4f594ae5224edbbe3]
@startuml

    !include ../lexakai/lexakai.theme
    
    title "com.telenav.kivakit.service.registry.project"
    
    KryoTypes <|- - ServiceRegistryKryoTypes
    class ServiceRegistryKryoTypes
    {
        - -(constructors)- -
        +ServiceRegistryKryoTypes()
    }
    
    Project <|- - ServiceRegistryProject
    class ServiceRegistryProject
    {
        - -(serialization)- -
        +SerializationSessionFactory sessionFactory()
        - -(service)- -
        +ServiceRegistryProject get()
    }
    
@enduml

@startuml









skinparam backgroundColor #333333






skinparam  {
    defaultFontName   "Open Sans,Avenir,Nunito,Arial,Helvetica,SansSerif"
    defaultFontSize   12
    defaultTextAlignment left
    shadowing false
    RoundCorner 10
    TitleFontSize 18
}

skinparam defaultFontName       "Open Sans,Avenir,Nunito,Arial,Helvetica,SansSerif"
skinparam defaultFontSize       12
skinparam dpi                   100
skinparam shadowing             false
skinparam roundcorner           16
skinparam ParticipantPadding    40
skinparam BoxPadding            40
skinparam Padding               3
skinparam ArrowColor            #545454
skinparam stereotype {
    CBackgroundColor #0066cf
    CBorderColor #0086ef
    ABackgroundColor #C8Ac00
    ABorderColor #D8Bc00
    IBackgroundColor #008400
    IBorderColor #239c23
    EBackgroundColor #cf6300
    EBorderColor #ef8300
    NBackgroundColor #3380b9
    NBorderColor #004d86
}
skinparam title {
	FontColor	                 #c0c0c0
 	BorderColor                  #545454
	FontSize	    	         20
	BorderRoundCorner            16
	BorderThickness 	         1
	BackgroundColor              #48494b
}


skinparam legend {
	BackgroundColor #303030
	BorderColor #404040
	FontColor #a0a0a0
}

	skinparam swimlane {
	BorderColor #5e5e5e
	BorderThickness 2
	TitleBackgroundColor  #6d6d6d-#484848
	TitleFontColor #303030
}

skinparam activity {
		FontColor #C8Ac00
	BorderColor #333333
	BackgroundColor #333333-#333333
	BarColor #00FF00
	StartColor #0060a8
	EndColor #0060a8
	DiamondBackgroundColor #6d6d6d-#3a3a3a
  	DiamondBorderColor #3a3a3a
  	DiamondFontColor #fefefe
}


skinparam participant {
		FontColor #C8Ac00
	BorderColor #333333
	BackgroundColor #333333-#333333
	ParticipantBorderThickness 2
}


skinparam actor {
		FontColor #C8Ac00
	BorderColor #333333
	BackgroundColor #333333-#333333
}


skinparam arrow {
	Thickness 1.5
	Color #545454
	FontColor #a0a0a0
    FontStyle bold
    MessageAlignment center
}



skinparam sequence {
	BorderColor #303030
	TitleFontColor #303030
	BackgroundColor #333333
	StartColor #303030
	EndColor #303030
	BoxBackgroundColor #333333
	BoxBorderColor #484848
	BoxFontColor #484848
	LifeLineBorderColor #484848
	LifeLineBorderThickness 2
	LifeLineBackgroundColor #3a3a3a
	GroupBorderColor #484848
	GroupFontColor #484848
	GroupHeaderFontColor #0060a8
	GroupBackgroundColor #484848
	GroupHeaderBackgroundColor #333333
	DividerBackgroundColor #484848
    DividerBorderColor #484848
    DividerBorderThickness 2
    DividerFontColor #D8Bc00
	ReferenceBackgroundColor #333333
	ReferenceBorderColor #484848
	ReferenceFontColor #fefefe
	ReferenceHeaderBackgroundColor #484848
}


skinparam partition {
	BorderColor #303030
	FontColor #333333
	BackgroundColor #333333
}


skinparam collections {
		FontColor #C8Ac00
	BorderColor #333333
	BackgroundColor #333333-#333333
}


skinparam control {
		FontColor #C8Ac00
	BorderColor #333333
	BackgroundColor #333333-#333333
}


skinparam entity {
		FontColor #C8Ac00
	BorderColor #333333
	BackgroundColor #333333-#333333
}


skinparam boundary {
		FontColor #C8Ac00
	BorderColor #333333
	BackgroundColor #333333-#333333
}


skinparam agent {
	BackgroundColor #ff8000
	BorderColor #ff9933
	FontColor #484848
}


skinparam note {
	BorderThickness 1
	BackgroundColor #1b1b1a
	BorderColor #5e5e5e
	FontSize 11
	FontColor #a0a0a0
}


skinparam artifact {
	BorderThickness 10
	BorderColor #5e5e5e
	BackgroundColor #1b1b1a
	FontColor #D8Bc00
}


skinparam component {
		FontColor #C8Ac00
	BorderColor #333333
	BackgroundColor #333333-#333333
}


skinparam interface {
	BackgroundColor  #008400
	BorderColor  #007F00
	FontColor #484848
}


skinparam storage {
	BackgroundColor #ff8000
  	BorderColor #cc6600
	FontColor #222222
}


skinparam node {
	BackgroundColor #333333
	BorderColor #333333
	FontColor #C8Ac00
}


skinparam cloud {
	BackgroundColor #484848-black
	BorderColor #484848
	FontColor #D8Bc00
}


skinparam database {
		FontColor #C8Ac00
	BorderColor #333333
	BackgroundColor #333333-#333333
	BackgroundColor  #333333
}


skinparam class {
		FontColor #C8Ac00
	BorderColor #333333
	BackgroundColor #333333-#333333
	HeaderBackgroundColor #1b1b1a
    BackgroundColor #282828
    BorderColor #5e5e5e
 	StereotypeFontColor #a0a0a0
    StereotypeFontStyle bold
	BorderThickness 1
	AttributeFontColor #D8Bc00
	AttributeFontSize 11
    FontColor #D8Bc00
    FontStyle bold
}


skinparam object {
		FontColor #C8Ac00
	BorderColor #333333
	BackgroundColor #333333-#333333
	StereotypeFontColor #484848
	BorderThickness 1
	AttributeFontColor #fefefe
	AttributeFontSize 11
}


skinparam usecase {
		FontColor #C8Ac00
	BorderColor #333333
	BackgroundColor #333333-#333333
	BorderThickness 2
	StereotypeFontColor #303030
}


skinparam rectangle {
		FontColor #C8Ac00
	BorderColor #333333
	BackgroundColor #333333-#333333
	BackgroundColor #333333
	BorderThickness 2
	StereotypeFontColor #303030
}


skinparam package {
		FontColor #C8Ac00
	BorderColor #333333
	BackgroundColor #333333-#333333
	BackgroundColor #333333
	BorderThickness 2
}


skinparam folder {
	BackgroundColor #6d6d6d
  	BorderColor #ff8000
	FontColor #ff8000
	BorderThickness 2
}


skinparam frame {
	BackgroundColor #6d6d6d
  	BorderColor #0060a8
	FontColor #0060a8
	BorderThickness 2
}


skinparam state {
		FontColor #C8Ac00
	BorderColor #333333
	BackgroundColor #333333-#333333
	StartColor #0060a8
	EndColor #0060a8
	AttributeFontColor #fefefe
	AttributeFontSize 11
}


skinparam queue {
		FontColor #C8Ac00
	BorderColor #333333
	BackgroundColor #333333-#333333
}


skinparam card {
	BackgroundColor #0060a8
	BorderColor #004d86
	FontColor $INFO_TEXT
}


skinparam file {
	BackgroundColor #6d6d6d-#484848
	BorderColor #0060a8
	FontColor #fefefe
}


skinparam stack {
		FontColor #C8Ac00
	BorderColor #333333
	BackgroundColor #333333-#333333
}

    
    title "com.telenav.kivakit.service.registry.project"
    
    KryoTypes <|- - ServiceRegistryKryoTypes
    class ServiceRegistryKryoTypes
    {
        - -(constructors)- -
        +ServiceRegistryKryoTypes()
    }
    
    Project <|- - ServiceRegistryProject
    class ServiceRegistryProject
    {
        - -(serialization)- -
        +SerializationSessionFactory sessionFactory()
        - -(service)- -
        +ServiceRegistryProject get()
    }
    
@enduml

PlantUML version 1.2021.01(Tue Feb 02 00:55:08 MST 2021)
(GPL source distribution)
Java Runtime: Java(TM) SE Runtime Environment
JVM: Java HotSpot(TM) 64-Bit Server VM
Default Encoding: UTF-8
Language: en
Country: US
--></g></svg>