<?xml version="1.0" encoding="UTF-8" standalone="no"?><svg xmlns="http://www.w3.org/2000/svg" xmlns:xlink="http://www.w3.org/1999/xlink" contentScriptType="application/ecmascript" contentStyleType="text/css" height="508.3333px" preserveAspectRatio="none" style="width:2233px;height:508px;background:#333333;" version="1.1" viewBox="0 0 2233 508" width="2233.3333px" zoomAndPan="magnify"><defs/><g><rect fill="#48494B" height="41.2028" rx="8.3333" ry="8.3333" style="stroke:#545454;stroke-width:1.0416666666666667;" width="551.0417" x="833.8542" y="2.0833"/><text fill="#C0C0C0" font-family="Open Sans,Avenir,Nunito,Arial,Helvetica,SansSerif" font-size="20.8333" lengthAdjust="spacing" textLength="528.125" x="845.3125" y="30.5583">com.telenav.kivakit.service.registry.protocol.discover</text><!--MD5=[0ba50eed8dcc5bc836644890e3c89438]
class BaseResponse--><rect codeLine="6" fill="#282828" height="48.055" id="BaseResponse" rx="8.3333" ry="8.3333" style="stroke:#5E5E5E;stroke-width:1.0416666666666667;" width="130.2083" x="627.6042" y="83.3903"/><rect fill="#1B1B1A" height="31.3883" rx="8.3333" ry="8.3333" style="stroke:#1B1B1A;stroke-width:1.0416666666666667;" width="130.2083" x="627.6042" y="83.3903"/><rect fill="#1B1B1A" height="8.3333" style="stroke:#1B1B1A;stroke-width:1.0416666666666667;" width="130.2083" x="627.6042" y="106.4453"/><rect codeLine="6" fill="none" height="48.055" id="BaseResponse" rx="8.3333" ry="8.3333" style="stroke:#5E5E5E;stroke-width:1.0416666666666667;" width="130.2083" x="627.6042" y="83.3903"/><ellipse cx="642.1875" cy="99.0845" fill="#C8AC00" rx="10.4167" ry="10.4167" style="stroke:#D8BC00;stroke-width:1.0416666666666667;"/><path d="M642.3014,95.7865 L641.453,99.5158 L643.1559,99.5158 Z M641.2028,94.1386 L643.4062,94.1386 L645.8659,103.2511 L644.0653,103.2511 L643.5038,100.9989 L641.0929,100.9989 L640.5436,103.2511 L638.7431,103.2511 Z " fill="#000000"/><text fill="#D8BC00" font-family="Open Sans,Avenir,Nunito,Arial,Helvetica,SansSerif" font-size="12.5" font-style="italic" font-weight="bold" lengthAdjust="spacing" textLength="92.7083" x="658.8542" y="103.8086">BaseResponse</text><line style="stroke:#5E5E5E;stroke-width:1.0416666666666667;" x1="628.6458" x2="756.7708" y1="114.7786" y2="114.7786"/><line style="stroke:#5E5E5E;stroke-width:1.0416666666666667;" x1="628.6458" x2="756.7708" y1="123.112" y2="123.112"/><!--MD5=[11f5e9fe9b4a9573a69e59630d326e1e]
class BaseRequest--><rect codeLine="7" fill="#282828" height="48.055" id="BaseRequest" rx="8.3333" ry="8.3333" style="stroke:#5E5E5E;stroke-width:1.0416666666666667;" width="119.7917" x="1647.3958" y="83.3903"/><rect fill="#1B1B1A" height="31.3883" rx="8.3333" ry="8.3333" style="stroke:#1B1B1A;stroke-width:1.0416666666666667;" width="119.7917" x="1647.3958" y="83.3903"/><rect fill="#1B1B1A" height="8.3333" style="stroke:#1B1B1A;stroke-width:1.0416666666666667;" width="119.7917" x="1647.3958" y="106.4453"/><rect codeLine="7" fill="none" height="48.055" id="BaseRequest" rx="8.3333" ry="8.3333" style="stroke:#5E5E5E;stroke-width:1.0416666666666667;" width="119.7917" x="1647.3958" y="83.3903"/><ellipse cx="1661.9792" cy="99.0845" fill="#C8AC00" rx="10.4167" ry="10.4167" style="stroke:#D8BC00;stroke-width:1.0416666666666667;"/><path d="M1662.0931,95.7865 L1661.2447,99.5158 L1662.9476,99.5158 Z M1660.9945,94.1386 L1663.1978,94.1386 L1665.6576,103.2511 L1663.857,103.2511 L1663.2955,100.9989 L1660.8846,100.9989 L1660.3353,103.2511 L1658.5347,103.2511 Z " fill="#000000"/><text fill="#D8BC00" font-family="Open Sans,Avenir,Nunito,Arial,Helvetica,SansSerif" font-size="12.5" font-style="italic" font-weight="bold" lengthAdjust="spacing" textLength="82.2917" x="1678.6458" y="103.8086">BaseRequest</text><line style="stroke:#5E5E5E;stroke-width:1.0416666666666667;" x1="1648.4375" x2="1766.1458" y1="114.7786" y2="114.7786"/><line style="stroke:#5E5E5E;stroke-width:1.0416666666666667;" x1="1648.4375" x2="1766.1458" y1="123.112" y2="123.112"/><!--MD5=[6ea22e70c44a3cdf9f846c73bbbec74d]
class DiscoverApplicationsRequest--><rect codeLine="10" fill="#282828" height="111.4563" id="DiscoverApplicationsRequest" rx="8.3333" ry="8.3333" style="stroke:#5E5E5E;stroke-width:1.0416666666666667;" width="273.9583" x="1273.4375" y="306.8278"/><rect fill="#1B1B1A" height="31.3883" rx="8.3333" ry="8.3333" style="stroke:#1B1B1A;stroke-width:1.0416666666666667;" width="273.9583" x="1273.4375" y="306.8278"/><rect fill="#1B1B1A" height="8.3333" style="stroke:#1B1B1A;stroke-width:1.0416666666666667;" width="273.9583" x="1273.4375" y="329.8828"/><rect codeLine="10" fill="none" height="111.4563" id="DiscoverApplicationsRequest" rx="8.3333" ry="8.3333" style="stroke:#5E5E5E;stroke-width:1.0416666666666667;" width="273.9583" x="1273.4375" y="306.8278"/><ellipse cx="1309.1146" cy="322.522" fill="#0066CF" rx="10.4167" ry="10.4167" style="stroke:#0086EF;stroke-width:1.0416666666666667;"/><path d="M1311.025,326.947 Q1310.5977,327.1667 1310.1278,327.2766 Q1309.6578,327.3865 1309.139,327.3865 Q1307.2957,327.3865 1306.3253,326.1719 Q1305.3548,324.9573 1305.3548,322.6624 Q1305.3548,320.3613 1306.3253,319.1467 Q1307.2957,317.9321 1309.139,317.9321 Q1309.6578,317.9321 1310.1339,318.042 Q1310.6099,318.1519 1311.025,318.3716 L1311.025,320.3735 Q1310.5611,319.9463 1310.1247,319.7479 Q1309.6883,319.5496 1309.2244,319.5496 Q1308.2357,319.5496 1307.7321,320.3339 Q1307.2286,321.1182 1307.2286,322.6624 Q1307.2286,324.2004 1307.7321,324.9847 Q1308.2357,325.769 1309.2244,325.769 Q1309.6883,325.769 1310.1247,325.5707 Q1310.5611,325.3723 1311.025,324.9451 Z " fill="#000000"/><text fill="#D8BC00" font-family="Open Sans,Avenir,Nunito,Arial,Helvetica,SansSerif" font-size="12.5" font-weight="bold" lengthAdjust="spacing" textLength="189.5833" x="1330.4688" y="327.2461">DiscoverApplicationsRequest</text><line style="stroke:#5E5E5E;stroke-width:1.5625;" x1="1274.4792" x2="1546.3542" y1="338.2161" y2="338.2161"/><line style="stroke:#5E5E5E;stroke-width:1.0416666666666667;" x1="1274.4792" x2="1546.3542" y1="346.5495" y2="346.5495"/><ellipse cx="1284.8958" cy="358.0078" fill="#84BE84" rx="3.125" ry="3.125" style="stroke:#038048;stroke-width:1.0416666666666667;"/><text fill="#D8BC00" font-family="Open Sans,Avenir,Nunito,Arial,Helvetica,SansSerif" font-size="11.4583" lengthAdjust="spacing" textLength="78.125" x="1296.3542" y="364.919">Scope scope()</text><ellipse cx="1284.8958" cy="401.6642" fill="#84BE84" rx="3.125" ry="3.125" style="stroke:#038048;stroke-width:1.0416666666666667;"/><text fill="#D8BC00" font-family="Open Sans,Avenir,Nunito,Arial,Helvetica,SansSerif" font-size="11.4583" lengthAdjust="spacing" textLength="241.6667" x="1296.3542" y="408.5754">DiscoverApplicationsRequest scope(Scope)</text><line style="stroke:#5E5E5E;stroke-width:1.0416666666666667;" x1="1274.4792" x2="1384.375" y1="384.5001" y2="384.5001"/><text fill="#D8BC00" font-family="Open Sans,Avenir,Nunito,Arial,Helvetica,SansSerif" font-size="11.4583" lengthAdjust="spacing" textLength="45.8333" x="1387.5" y="388.3097">(search)</text><line style="stroke:#5E5E5E;stroke-width:1.0416666666666667;" x1="1436.4583" x2="1546.3542" y1="384.5001" y2="384.5001"/><!--MD5=[e6d0d76d5bfba9114030b5ca924bc3e7]
class DiscoverApplicationsResponse--><rect codeLine="19" fill="#282828" height="127.0345" id="DiscoverApplicationsResponse" rx="8.3333" ry="8.3333" style="stroke:#5E5E5E;stroke-width:1.0416666666666667;" width="504.1667" x="7.2917" y="299.0153"/><rect fill="#1B1B1A" height="31.3883" rx="8.3333" ry="8.3333" style="stroke:#1B1B1A;stroke-width:1.0416666666666667;" width="504.1667" x="7.2917" y="299.0153"/><rect fill="#1B1B1A" height="8.3333" style="stroke:#1B1B1A;stroke-width:1.0416666666666667;" width="504.1667" x="7.2917" y="322.0703"/><rect codeLine="19" fill="none" height="127.0345" id="DiscoverApplicationsResponse" rx="8.3333" ry="8.3333" style="stroke:#5E5E5E;stroke-width:1.0416666666666667;" width="504.1667" x="7.2917" y="299.0153"/><ellipse cx="152.0833" cy="314.7095" fill="#0066CF" rx="10.4167" ry="10.4167" style="stroke:#0086EF;stroke-width:1.0416666666666667;"/><path d="M153.9937,319.1345 Q153.5665,319.3542 153.0965,319.4641 Q152.6265,319.574 152.1077,319.574 Q150.2645,319.574 149.294,318.3594 Q148.3236,317.1448 148.3236,314.8499 Q148.3236,312.5488 149.294,311.3342 Q150.2645,310.1196 152.1077,310.1196 Q152.6265,310.1196 153.1026,310.2295 Q153.5787,310.3394 153.9937,310.5591 L153.9937,312.561 Q153.5299,312.1338 153.0935,311.9354 Q152.6571,311.7371 152.1932,311.7371 Q151.2044,311.7371 150.7009,312.5214 Q150.1973,313.3057 150.1973,314.8499 Q150.1973,316.3879 150.7009,317.1722 Q151.2044,317.9565 152.1932,317.9565 Q152.6571,317.9565 153.0935,317.7582 Q153.5299,317.5598 153.9937,317.1326 Z " fill="#000000"/><text fill="#D8BC00" font-family="Open Sans,Avenir,Nunito,Arial,Helvetica,SansSerif" font-size="12.5" font-weight="bold" lengthAdjust="spacing" textLength="200" x="175" y="319.4336">DiscoverApplicationsResponse</text><line style="stroke:#5E5E5E;stroke-width:1.5625;" x1="8.3333" x2="510.4167" y1="330.4036" y2="330.4036"/><ellipse cx="18.75" cy="365.7735" fill="#84BE84" rx="3.125" ry="3.125" style="stroke:#038048;stroke-width:1.0416666666666667;"/><text fill="#D8BC00" font-family="Open Sans,Avenir,Nunito,Arial,Helvetica,SansSerif" font-size="11.4583" lengthAdjust="spacing" textLength="228.125" x="30.2083" y="372.6847">Set&lt;ApplicationIdentifier&gt; applications()</text><line style="stroke:#5E5E5E;stroke-width:1.0416666666666667;" x1="8.3333" x2="231.25" y1="348.6094" y2="348.6094"/><text fill="#D8BC00" font-family="Open Sans,Avenir,Nunito,Arial,Helvetica,SansSerif" font-size="11.4583" lengthAdjust="spacing" textLength="50" x="234.375" y="352.419">(identity)</text><line style="stroke:#5E5E5E;stroke-width:1.0416666666666667;" x1="287.5" x2="510.4167" y1="348.6094" y2="348.6094"/><ellipse cx="18.75" cy="409.4299" fill="#84BE84" rx="3.125" ry="3.125" style="stroke:#038048;stroke-width:1.0416666666666667;"/><text fill="#D8BC00" font-family="Open Sans,Avenir,Nunito,Arial,Helvetica,SansSerif" font-size="11.4583" lengthAdjust="spacing" textLength="471.875" x="30.2083" y="416.3411">DiscoverApplicationsResponse applications(Set&lt;ApplicationIdentifier&gt; applications)</text><line style="stroke:#5E5E5E;stroke-width:1.0416666666666667;" x1="8.3333" x2="233.3333" y1="392.2658" y2="392.2658"/><text fill="#D8BC00" font-family="Open Sans,Avenir,Nunito,Arial,Helvetica,SansSerif" font-size="11.4583" lengthAdjust="spacing" textLength="45.8333" x="236.4583" y="396.0754">(search)</text><line style="stroke:#5E5E5E;stroke-width:1.0416666666666667;" x1="285.4167" x2="510.4167" y1="392.2658" y2="392.2658"/><!--MD5=[697c7dd06f5bf304a778b8669f3df19f]
class DiscoverPortServiceRequest--><rect codeLine="28" fill="#282828" height="103.123" id="DiscoverPortServiceRequest" rx="8.3333" ry="8.3333" style="stroke:#5E5E5E;stroke-width:1.0416666666666667;" width="246.875" x="1583.8542" y="310.9945"/><rect fill="#1B1B1A" height="31.3883" rx="8.3333" ry="8.3333" style="stroke:#1B1B1A;stroke-width:1.0416666666666667;" width="246.875" x="1583.8542" y="310.9945"/><rect fill="#1B1B1A" height="8.3333" style="stroke:#1B1B1A;stroke-width:1.0416666666666667;" width="246.875" x="1583.8542" y="334.0495"/><rect codeLine="28" fill="none" height="103.123" id="DiscoverPortServiceRequest" rx="8.3333" ry="8.3333" style="stroke:#5E5E5E;stroke-width:1.0416666666666667;" width="246.875" x="1583.8542" y="310.9945"/><ellipse cx="1612.0313" cy="326.6886" fill="#0066CF" rx="10.4167" ry="10.4167" style="stroke:#0086EF;stroke-width:1.0416666666666667;"/><path d="M1613.9417,331.1137 Q1613.5144,331.3334 1613.0444,331.4433 Q1612.5745,331.5531 1612.0557,331.5531 Q1610.2124,331.5531 1609.2419,330.3385 Q1608.2715,329.1239 1608.2715,326.829 Q1608.2715,324.528 1609.2419,323.3134 Q1610.2124,322.0988 1612.0557,322.0988 Q1612.5745,322.0988 1613.0505,322.2087 Q1613.5266,322.3185 1613.9417,322.5382 L1613.9417,324.5402 Q1613.4778,324.113 1613.0414,323.9146 Q1612.605,323.7162 1612.1411,323.7162 Q1611.1523,323.7162 1610.6488,324.5005 Q1610.1453,325.2848 1610.1453,326.829 Q1610.1453,328.3671 1610.6488,329.1514 Q1611.1523,329.9357 1612.1411,329.9357 Q1612.605,329.9357 1613.0414,329.7373 Q1613.4778,329.539 1613.9417,329.1117 Z " fill="#000000"/><text fill="#D8BC00" font-family="Open Sans,Avenir,Nunito,Arial,Helvetica,SansSerif" font-size="12.5" font-weight="bold" lengthAdjust="spacing" textLength="179.1667" x="1631.7188" y="331.4128">DiscoverPortServiceRequest</text><line style="stroke:#5E5E5E;stroke-width:1.5625;" x1="1584.8958" x2="1829.6875" y1="342.3828" y2="342.3828"/><ellipse cx="1595.3125" cy="377.7527" fill="#84BE84" rx="3.125" ry="3.125" style="stroke:#038048;stroke-width:1.0416666666666667;"/><text fill="#D8BC00" font-family="Open Sans,Avenir,Nunito,Arial,Helvetica,SansSerif" font-size="11.4583" lengthAdjust="spacing" textLength="214.5833" x="1606.7708" y="384.6639">DiscoverPortServiceRequest port(Port)</text><ellipse cx="1595.3125" cy="397.4976" fill="#84BE84" rx="3.125" ry="3.125" style="stroke:#038048;stroke-width:1.0416666666666667;"/><text fill="#D8BC00" font-family="Open Sans,Avenir,Nunito,Arial,Helvetica,SansSerif" font-size="11.4583" lengthAdjust="spacing" textLength="58.3333" x="1606.7708" y="404.4088">Port port()</text><line style="stroke:#5E5E5E;stroke-width:1.0416666666666667;" x1="1584.8958" x2="1677.6042" y1="360.5886" y2="360.5886"/><text fill="#D8BC00" font-family="Open Sans,Avenir,Nunito,Arial,Helvetica,SansSerif" font-size="11.4583" lengthAdjust="spacing" textLength="53.125" x="1680.7292" y="364.3982">(network)</text><line style="stroke:#5E5E5E;stroke-width:1.0416666666666667;" x1="1736.9792" x2="1829.6875" y1="360.5886" y2="360.5886"/><!--MD5=[41d9343571aa7f4017a31d50771a8b56]
class DiscoverPortServiceResponse--><rect codeLine="36" fill="#282828" height="103.123" id="DiscoverPortServiceResponse" rx="8.3333" ry="8.3333" style="stroke:#5E5E5E;stroke-width:1.0416666666666667;" width="288.5417" x="548.4375" y="310.9945"/><rect fill="#1B1B1A" height="31.3883" rx="8.3333" ry="8.3333" style="stroke:#1B1B1A;stroke-width:1.0416666666666667;" width="288.5417" x="548.4375" y="310.9945"/><rect fill="#1B1B1A" height="8.3333" style="stroke:#1B1B1A;stroke-width:1.0416666666666667;" width="288.5417" x="548.4375" y="334.0495"/><rect codeLine="36" fill="none" height="103.123" id="DiscoverPortServiceResponse" rx="8.3333" ry="8.3333" style="stroke:#5E5E5E;stroke-width:1.0416666666666667;" width="288.5417" x="548.4375" y="310.9945"/><ellipse cx="590.6771" cy="326.6886" fill="#0066CF" rx="10.4167" ry="10.4167" style="stroke:#0086EF;stroke-width:1.0416666666666667;"/><path d="M592.5875,331.1137 Q592.1602,331.3334 591.6903,331.4433 Q591.2203,331.5531 590.7015,331.5531 Q588.8582,331.5531 587.8878,330.3385 Q586.9173,329.1239 586.9173,326.829 Q586.9173,324.528 587.8878,323.3134 Q588.8582,322.0988 590.7015,322.0988 Q591.2203,322.0988 591.6964,322.2087 Q592.1724,322.3185 592.5875,322.5382 L592.5875,324.5402 Q592.1236,324.113 591.6872,323.9146 Q591.2508,323.7162 590.7869,323.7162 Q589.7982,323.7162 589.2946,324.5005 Q588.7911,325.2848 588.7911,326.829 Q588.7911,328.3671 589.2946,329.1514 Q589.7982,329.9357 590.7869,329.9357 Q591.2508,329.9357 591.6872,329.7373 Q592.1236,329.539 592.5875,329.1117 Z " fill="#000000"/><text fill="#D8BC00" font-family="Open Sans,Avenir,Nunito,Arial,Helvetica,SansSerif" font-size="12.5" font-weight="bold" lengthAdjust="spacing" textLength="189.5833" x="613.4896" y="331.4128">DiscoverPortServiceResponse</text><line style="stroke:#5E5E5E;stroke-width:1.5625;" x1="549.4792" x2="835.9375" y1="342.3828" y2="342.3828"/><ellipse cx="559.8958" cy="377.7527" fill="#84BE84" rx="3.125" ry="3.125" style="stroke:#038048;stroke-width:1.0416666666666667;"/><text fill="#D8BC00" font-family="Open Sans,Avenir,Nunito,Arial,Helvetica,SansSerif" font-size="11.4583" lengthAdjust="spacing" textLength="90.625" x="571.3542" y="384.6639">Service service()</text><ellipse cx="559.8958" cy="397.4976" fill="#84BE84" rx="3.125" ry="3.125" style="stroke:#038048;stroke-width:1.0416666666666667;"/><text fill="#D8BC00" font-family="Open Sans,Avenir,Nunito,Arial,Helvetica,SansSerif" font-size="11.4583" lengthAdjust="spacing" textLength="256.25" x="571.3542" y="404.4088">DiscoverPortServiceResponse service(Service)</text><line style="stroke:#5E5E5E;stroke-width:1.0416666666666667;" x1="549.4792" x2="665.625" y1="360.5886" y2="360.5886"/><text fill="#D8BC00" font-family="Open Sans,Avenir,Nunito,Arial,Helvetica,SansSerif" font-size="11.4583" lengthAdjust="spacing" textLength="47.9167" x="668.75" y="364.3982">(service)</text><line style="stroke:#5E5E5E;stroke-width:1.0416666666666667;" x1="719.7917" x2="835.9375" y1="360.5886" y2="360.5886"/><!--MD5=[a8616506a7fdac30973f53056ff6d965]
class DiscoverServicesRequest--><rect codeLine="44" fill="#282828" height="277.7486" id="DiscoverServicesRequest" rx="8.3333" ry="8.3333" style="stroke:#5E5E5E;stroke-width:1.0416666666666667;" width="358.3333" x="1867.7083" y="223.4945"/><rect fill="#1B1B1A" height="31.3883" rx="8.3333" ry="8.3333" style="stroke:#1B1B1A;stroke-width:1.0416666666666667;" width="358.3333" x="1867.7083" y="223.4945"/><rect fill="#1B1B1A" height="8.3333" style="stroke:#1B1B1A;stroke-width:1.0416666666666667;" width="358.3333" x="1867.7083" y="246.5495"/><rect codeLine="44" fill="none" height="277.7486" id="DiscoverServicesRequest" rx="8.3333" ry="8.3333" style="stroke:#5E5E5E;stroke-width:1.0416666666666667;" width="358.3333" x="1867.7083" y="223.4945"/><ellipse cx="1959.375" cy="239.1886" fill="#0066CF" rx="10.4167" ry="10.4167" style="stroke:#0086EF;stroke-width:1.0416666666666667;"/><path d="M1961.2854,243.6137 Q1960.8582,243.8334 1960.3882,243.9433 Q1959.9182,244.0531 1959.3994,244.0531 Q1957.5562,244.0531 1956.5857,242.8385 Q1955.6152,241.6239 1955.6152,239.329 Q1955.6152,237.028 1956.5857,235.8134 Q1957.5562,234.5988 1959.3994,234.5988 Q1959.9182,234.5988 1960.3943,234.7087 Q1960.8704,234.8185 1961.2854,235.0382 L1961.2854,237.0402 Q1960.8215,236.613 1960.3851,236.4146 Q1959.9487,236.2162 1959.4849,236.2162 Q1958.4961,236.2162 1957.9926,237.0005 Q1957.489,237.7848 1957.489,239.329 Q1957.489,240.8671 1957.9926,241.6514 Q1958.4961,242.4357 1959.4849,242.4357 Q1959.9487,242.4357 1960.3851,242.2373 Q1960.8215,242.039 1961.2854,241.6117 Z " fill="#000000"/><text fill="#D8BC00" font-family="Open Sans,Avenir,Nunito,Arial,Helvetica,SansSerif" font-size="12.5" font-weight="bold" lengthAdjust="spacing" textLength="160.4167" x="1982.2917" y="243.9128">DiscoverServicesRequest</text><line style="stroke:#5E5E5E;stroke-width:1.5625;" x1="1868.75" x2="2225" y1="254.8828" y2="254.8828"/><line style="stroke:#5E5E5E;stroke-width:1.0416666666666667;" x1="1868.75" x2="2225" y1="263.2161" y2="263.2161"/><ellipse cx="1879.1667" cy="274.6745" fill="#84BE84" rx="3.125" ry="3.125" style="stroke:#038048;stroke-width:1.0416666666666667;"/><text fill="#D8BC00" font-family="Open Sans,Avenir,Nunito,Arial,Helvetica,SansSerif" font-size="11.4583" lengthAdjust="spacing" textLength="78.125" x="1890.625" y="281.5857">Scope scope()</text><ellipse cx="1879.1667" cy="318.3309" fill="#84BE84" rx="3.125" ry="3.125" style="stroke:#038048;stroke-width:1.0416666666666667;"/><text fill="#D8BC00" font-family="Open Sans,Avenir,Nunito,Arial,Helvetica,SansSerif" font-size="11.4583" lengthAdjust="spacing" textLength="186.4583" x="1890.625" y="325.2421">ApplicationIdentifier application()</text><line style="stroke:#5E5E5E;stroke-width:1.0416666666666667;" x1="1868.75" x2="2018.75" y1="301.1668" y2="301.1668"/><text fill="#D8BC00" font-family="Open Sans,Avenir,Nunito,Arial,Helvetica,SansSerif" font-size="11.4583" lengthAdjust="spacing" textLength="50" x="2021.875" y="304.9764">(identity)</text><line style="stroke:#5E5E5E;stroke-width:1.0416666666666667;" x1="2075" x2="2225" y1="301.1668" y2="301.1668"/><ellipse cx="1879.1667" cy="361.9873" fill="#84BE84" rx="3.125" ry="3.125" style="stroke:#038048;stroke-width:1.0416666666666667;"/><text fill="#D8BC00" font-family="Open Sans,Avenir,Nunito,Arial,Helvetica,SansSerif" font-size="11.4583" lengthAdjust="spacing" textLength="326.0417" x="1890.625" y="368.8985">DiscoverServicesRequest application(ApplicationIdentifier)</text><ellipse cx="1879.1667" cy="381.7322" fill="#84BE84" rx="3.125" ry="3.125" style="stroke:#038048;stroke-width:1.0416666666666667;"/><text fill="#D8BC00" font-family="Open Sans,Avenir,Nunito,Arial,Helvetica,SansSerif" font-size="11.4583" lengthAdjust="spacing" textLength="217.7083" x="1890.625" y="388.6434">DiscoverServicesRequest scope(Scope)</text><ellipse cx="1879.1667" cy="401.4771" fill="#84BE84" rx="3.125" ry="3.125" style="stroke:#038048;stroke-width:1.0416666666666667;"/><text fill="#D8BC00" font-family="Open Sans,Avenir,Nunito,Arial,Helvetica,SansSerif" font-size="11.4583" lengthAdjust="spacing" textLength="284.375" x="1890.625" y="408.3883">DiscoverServicesRequest serviceType(ServiceType)</text><ellipse cx="1879.1667" cy="421.2219" fill="#84BE84" rx="3.125" ry="3.125" style="stroke:#038048;stroke-width:1.0416666666666667;"/><text fill="#D8BC00" font-family="Open Sans,Avenir,Nunito,Arial,Helvetica,SansSerif" font-size="11.4583" lengthAdjust="spacing" textLength="100" x="1890.625" y="428.1331">SearchType type()</text><ellipse cx="1879.1667" cy="440.9668" fill="#84BE84" rx="3.125" ry="3.125" style="stroke:#038048;stroke-width:1.0416666666666667;"/><text fill="#D8BC00" font-family="Open Sans,Avenir,Nunito,Arial,Helvetica,SansSerif" font-size="11.4583" lengthAdjust="spacing" textLength="239.5833" x="1890.625" y="447.878">DiscoverServicesRequest type(SearchType)</text><line style="stroke:#5E5E5E;stroke-width:1.0416666666666667;" x1="1868.75" x2="2020.8333" y1="344.8232" y2="344.8232"/><text fill="#D8BC00" font-family="Open Sans,Avenir,Nunito,Arial,Helvetica,SansSerif" font-size="11.4583" lengthAdjust="spacing" textLength="45.8333" x="2023.9583" y="348.6328">(search)</text><line style="stroke:#5E5E5E;stroke-width:1.0416666666666667;" x1="2072.9167" x2="2225" y1="344.8232" y2="344.8232"/><ellipse cx="1879.1667" cy="484.6232" fill="#84BE84" rx="3.125" ry="3.125" style="stroke:#038048;stroke-width:1.0416666666666667;"/><text fill="#D8BC00" font-family="Open Sans,Avenir,Nunito,Arial,Helvetica,SansSerif" font-size="11.4583" lengthAdjust="spacing" textLength="144.7917" x="1890.625" y="491.5344">ServiceType serviceType()</text><line style="stroke:#5E5E5E;stroke-width:1.0416666666666667;" x1="1868.75" x2="2019.7917" y1="467.4591" y2="467.4591"/><text fill="#D8BC00" font-family="Open Sans,Avenir,Nunito,Arial,Helvetica,SansSerif" font-size="11.4583" lengthAdjust="spacing" textLength="47.9167" x="2022.9167" y="471.2687">(service)</text><line style="stroke:#5E5E5E;stroke-width:1.0416666666666667;" x1="2073.9583" x2="2225" y1="467.4591" y2="467.4591"/><!--MD5=[f449f6a7f34cd97e8244b34515c0f50f]
class DiscoverServicesResponse--><rect codeLine="61" fill="#282828" height="146.7794" id="DiscoverServicesResponse" rx="8.3333" ry="8.3333" style="stroke:#5E5E5E;stroke-width:1.0416666666666667;" width="362.5" x="873.9583" y="289.1195"/><rect fill="#1B1B1A" height="31.3883" rx="8.3333" ry="8.3333" style="stroke:#1B1B1A;stroke-width:1.0416666666666667;" width="362.5" x="873.9583" y="289.1195"/><rect fill="#1B1B1A" height="8.3333" style="stroke:#1B1B1A;stroke-width:1.0416666666666667;" width="362.5" x="873.9583" y="312.1745"/><rect codeLine="61" fill="none" height="146.7794" id="DiscoverServicesResponse" rx="8.3333" ry="8.3333" style="stroke:#5E5E5E;stroke-width:1.0416666666666667;" width="362.5" x="873.9583" y="289.1195"/><ellipse cx="962.5" cy="304.8136" fill="#0066CF" rx="10.4167" ry="10.4167" style="stroke:#0086EF;stroke-width:1.0416666666666667;"/><path d="M964.4104,309.2387 Q963.9832,309.4584 963.5132,309.5683 Q963.0432,309.6781 962.5244,309.6781 Q960.6812,309.6781 959.7107,308.4635 Q958.7402,307.2489 958.7402,304.954 Q958.7402,302.653 959.7107,301.4384 Q960.6812,300.2238 962.5244,300.2238 Q963.0432,300.2238 963.5193,300.3337 Q963.9954,300.4435 964.4104,300.6632 L964.4104,302.6652 Q963.9465,302.238 963.5101,302.0396 Q963.0737,301.8412 962.6099,301.8412 Q961.6211,301.8412 961.1176,302.6255 Q960.614,303.4098 960.614,304.954 Q960.614,306.4921 961.1176,307.2764 Q961.6211,308.0607 962.6099,308.0607 Q963.0737,308.0607 963.5101,307.8623 Q963.9465,307.664 964.4104,307.2367 Z " fill="#000000"/><text fill="#D8BC00" font-family="Open Sans,Avenir,Nunito,Arial,Helvetica,SansSerif" font-size="12.5" font-weight="bold" lengthAdjust="spacing" textLength="170.8333" x="985.4167" y="309.5378">DiscoverServicesResponse</text><line style="stroke:#5E5E5E;stroke-width:1.5625;" x1="875" x2="1235.4167" y1="320.5078" y2="320.5078"/><ellipse cx="885.4167" cy="355.8777" fill="#84BE84" rx="3.125" ry="3.125" style="stroke:#038048;stroke-width:1.0416666666666667;"/><text fill="#D8BC00" font-family="Open Sans,Avenir,Nunito,Arial,Helvetica,SansSerif" font-size="11.4583" lengthAdjust="spacing" textLength="330.2083" x="896.875" y="362.7889">DiscoverServicesResponse services(Set&lt;Service&gt; services)</text><line style="stroke:#5E5E5E;stroke-width:1.0416666666666667;" x1="875" x2="1029.1667" y1="338.7136" y2="338.7136"/><text fill="#D8BC00" font-family="Open Sans,Avenir,Nunito,Arial,Helvetica,SansSerif" font-size="11.4583" lengthAdjust="spacing" textLength="45.8333" x="1032.2917" y="342.5232">(search)</text><line style="stroke:#5E5E5E;stroke-width:1.0416666666666667;" x1="1081.25" x2="1235.4167" y1="338.7136" y2="338.7136"/><ellipse cx="885.4167" cy="399.5341" fill="#84BE84" rx="3.125" ry="3.125" style="stroke:#038048;stroke-width:1.0416666666666667;"/><text fill="#D8BC00" font-family="Open Sans,Avenir,Nunito,Arial,Helvetica,SansSerif" font-size="11.4583" lengthAdjust="spacing" textLength="90.625" x="896.875" y="406.4453">Service service()</text><ellipse cx="885.4167" cy="419.279" fill="#84BE84" rx="3.125" ry="3.125" style="stroke:#038048;stroke-width:1.0416666666666667;"/><text fill="#D8BC00" font-family="Open Sans,Avenir,Nunito,Arial,Helvetica,SansSerif" font-size="11.4583" lengthAdjust="spacing" textLength="132.2917" x="896.875" y="426.1902">Set&lt;Service&gt; services()</text><line style="stroke:#5E5E5E;stroke-width:1.0416666666666667;" x1="875" x2="1028.125" y1="382.37" y2="382.37"/><text fill="#D8BC00" font-family="Open Sans,Avenir,Nunito,Arial,Helvetica,SansSerif" font-size="11.4583" lengthAdjust="spacing" textLength="47.9167" x="1031.25" y="386.1796">(service)</text><line style="stroke:#5E5E5E;stroke-width:1.0416666666666667;" x1="1082.2917" x2="1235.4167" y1="382.37" y2="382.37"/><!--MD5=[6cca1b42674df1179525eda55ce6cea5]
class DiscoverServicesRequest.SearchType--><rect codeLine="70" fill="#282828" height="107.2896" id="DiscoverServicesRequest.SearchType" rx="8.3333" ry="8.3333" style="stroke:#5E5E5E;stroke-width:1.0416666666666667;" width="273.9583" x="1803.6458" y="53.7028"/><rect fill="#1B1B1A" height="31.3883" rx="8.3333" ry="8.3333" style="stroke:#1B1B1A;stroke-width:1.0416666666666667;" width="273.9583" x="1803.6458" y="53.7028"/><rect fill="#1B1B1A" height="8.3333" style="stroke:#1B1B1A;stroke-width:1.0416666666666667;" width="273.9583" x="1803.6458" y="76.7578"/><rect codeLine="70" fill="none" height="107.2896" id="DiscoverServicesRequest.SearchType" rx="8.3333" ry="8.3333" style="stroke:#5E5E5E;stroke-width:1.0416666666666667;" width="273.9583" x="1803.6458" y="53.7028"/><ellipse cx="1818.2292" cy="69.397" fill="#CF6300" rx="10.4167" ry="10.4167" style="stroke:#EF8300;stroke-width:1.0416666666666667;"/><path d="M1821.285,74.0845 L1815.6087,74.0845 L1815.6087,64.9719 L1821.285,64.9719 L1821.285,66.5588 L1817.4093,66.5588 L1817.4093,68.5242 L1820.9188,68.5242 L1820.9188,70.1111 L1817.4093,70.1111 L1817.4093,72.4976 L1821.285,72.4976 Z " fill="#000000"/><text fill="#D8BC00" font-family="Open Sans,Avenir,Nunito,Arial,Helvetica,SansSerif" font-size="12.5" font-weight="bold" lengthAdjust="spacing" textLength="236.4583" x="1834.8958" y="74.1211">DiscoverServicesRequest.SearchType</text><line style="stroke:#5E5E5E;stroke-width:1.0416666666666667;" x1="1804.6875" x2="2076.5625" y1="85.0911" y2="85.0911"/><text fill="#D8BC00" font-family="Open Sans,Avenir,Nunito,Arial,Helvetica,SansSerif" font-size="11.4583" lengthAdjust="spacing" textLength="78.125" x="1813.0208" y="103.4607">ALL_SERVICES</text><text fill="#D8BC00" font-family="Open Sans,Avenir,Nunito,Arial,Helvetica,SansSerif" font-size="11.4583" lengthAdjust="spacing" textLength="132.2917" x="1813.0208" y="123.2056">APPLICATION_SERVICES</text><text fill="#D8BC00" font-family="Open Sans,Avenir,Nunito,Arial,Helvetica,SansSerif" font-size="11.4583" lengthAdjust="spacing" textLength="106.25" x="1813.0208" y="142.9504">SERVICES_OF_TYPE</text><line style="stroke:#5E5E5E;stroke-width:1.0416666666666667;" x1="1804.6875" x2="2076.5625" y1="152.6591" y2="152.6591"/><!--MD5=[ffbc60c7c7d8006179c67cf61f0f47a0]
reverse link BaseRequest to DiscoverApplicationsRequest--><path codeLine="9" d="M1661.6042,144.6611 C1633.6354,167.0674 1597.2708,196.5986 1565.625,223.4945 C1533.8958,250.4736 1499.1979,281.2028 1470.6771,306.807 " fill="none" id="BaseRequest-backto-DiscoverApplicationsRequest" style="stroke:#545454;stroke-width:1.5625;"/><polygon fill="none" points="1657.3958,138.6924,1678.2188,131.3903,1666.4896,150.0882,1657.3958,138.6924" style="stroke:#545454;stroke-width:1.5625;"/><!--MD5=[f99827c1f03786c233def2074614ca23]
reverse link BaseResponse to DiscoverApplicationsResponse--><path codeLine="18" d="M634.6979,142.2757 C566.2917,182.234 451.1771,249.4736 366.4375,298.9736 " fill="none" id="BaseResponse-backto-DiscoverApplicationsResponse" style="stroke:#545454;stroke-width:1.5625;"/><polygon fill="none" points="631.4375,135.734,653.1042,131.5257,638.7917,148.3278,631.4375,135.734" style="stroke:#545454;stroke-width:1.5625;"/><!--MD5=[ef8f29b295ea0057cbc0832c245ed3a1]
reverse link BaseRequest to DiscoverPortServiceRequest--><path codeLine="27" d="M1707.2917,152.7445 C1707.2917,196.9007 1707.2917,264.609 1707.2917,310.859 " fill="none" id="BaseRequest-backto-DiscoverPortServiceRequest" style="stroke:#545454;stroke-width:1.5625;"/><polygon fill="none" points="1700,152.5882,1707.2917,131.7549,1714.5833,152.5882,1700,152.5882" style="stroke:#545454;stroke-width:1.5625;"/><!--MD5=[89f225cddb3d0a41cf82cc9e893cdb09]
reverse link BaseResponse to DiscoverPortServiceResponse--><path codeLine="35" d="M692.7083,152.7445 C692.7083,196.9007 692.7083,264.609 692.7083,310.859 " fill="none" id="BaseResponse-backto-DiscoverPortServiceResponse" style="stroke:#545454;stroke-width:1.5625;"/><polygon fill="none" points="685.4167,152.5882,692.7083,131.7549,700,152.5882,685.4167,152.5882" style="stroke:#545454;stroke-width:1.5625;"/><!--MD5=[e338a839b6d3dd43e9fbd6ab370229b5]
reverse link BaseRequest to DiscoverServicesRequest--><path codeLine="43" d="M1755.1146,144.0361 C1785.1458,166.4215 1825.9583,196.8486 1867.5417,227.8382 " fill="none" id="BaseRequest-backto-DiscoverServicesRequest" style="stroke:#545454;stroke-width:1.5625;"/><polygon fill="none" points="1750.6771,149.8174,1738.3229,131.5257,1759.3854,138.1299,1750.6771,149.8174" style="stroke:#545454;stroke-width:1.5625;"/><!--MD5=[9d01f7383d4effe8a9db501ed283c72e]
reverse link BaseResponse to DiscoverServicesResponse--><path codeLine="60" d="M743.0208,143.5257 C796.625,180.9528 883.0104,241.2757 951.3333,288.984 " fill="none" id="BaseResponse-backto-DiscoverServicesResponse" style="stroke:#545454;stroke-width:1.5625;"/><polygon fill="none" points="738.75,149.432,725.8438,131.5257,747.0938,137.4736,738.75,149.432" style="stroke:#545454;stroke-width:1.5625;"/><!--MD5=[2db5274eeec16782e75fe1c80853d2b3]
@startuml

    !include ../lexakai/lexakai.theme
    
    title "com.telenav.kivakit.service.registry.protocol.discover"
    
    abstract BaseResponse
    abstract BaseRequest
    
    BaseRequest <|- - DiscoverApplicationsRequest
    class DiscoverApplicationsRequest
    {
        - -
        +Scope scope()
        - -(search)- -
        +DiscoverApplicationsRequest scope(Scope)
    }
    
    BaseResponse <|- - DiscoverApplicationsResponse
    class DiscoverApplicationsResponse
    {
        - -(identity)- -
        +Set<ApplicationIdentifier> applications()
        - -(search)- -
        +DiscoverApplicationsResponse applications(Set<ApplicationIdentifier> applications)
    }
    
    BaseRequest <|- - DiscoverPortServiceRequest
    class DiscoverPortServiceRequest
    {
        - -(network)- -
        +DiscoverPortServiceRequest port(Port)
        +Port port()
    }
    
    BaseResponse <|- - DiscoverPortServiceResponse
    class DiscoverPortServiceResponse
    {
        - -(service)- -
        +Service service()
        +DiscoverPortServiceResponse service(Service)
    }
    
    BaseRequest <|- - DiscoverServicesRequest
    class DiscoverServicesRequest
    {
        - -
        +Scope scope()
        - -(identity)- -
        +ApplicationIdentifier application()
        - -(search)- -
        +DiscoverServicesRequest application(ApplicationIdentifier)
        +DiscoverServicesRequest scope(Scope)
        +DiscoverServicesRequest serviceType(ServiceType)
        +SearchType type()
        +DiscoverServicesRequest type(SearchType)
        - -(service)- -
        +ServiceType serviceType()
    }
    
    BaseResponse <|- - DiscoverServicesResponse
    class DiscoverServicesResponse
    {
        - -(search)- -
        +DiscoverServicesResponse services(Set<Service> services)
        - -(service)- -
        +Service service()
        +Set<Service> services()
    }
    
    enum DiscoverServicesRequest.SearchType
    {
        ALL_SERVICES
        APPLICATION_SERVICES
        SERVICES_OF_TYPE
    }
    
@enduml

@startuml









skinparam backgroundColor #333333






skinparam  {
    defaultFontName   "Open Sans,Avenir,Nunito,Arial,Helvetica,SansSerif"
    defaultFontSize   12
    defaultTextAlignment left
    shadowing false
    RoundCorner 10
    TitleFontSize 18
}

skinparam defaultFontName       "Open Sans,Avenir,Nunito,Arial,Helvetica,SansSerif"
skinparam defaultFontSize       12
skinparam dpi                   100
skinparam shadowing             false
skinparam roundcorner           16
skinparam ParticipantPadding    40
skinparam BoxPadding            40
skinparam Padding               3
skinparam ArrowColor            #545454
skinparam stereotype {
    CBackgroundColor #0066cf
    CBorderColor #0086ef
    ABackgroundColor #C8Ac00
    ABorderColor #D8Bc00
    IBackgroundColor #008400
    IBorderColor #239c23
    EBackgroundColor #cf6300
    EBorderColor #ef8300
    NBackgroundColor #3380b9
    NBorderColor #004d86
}
skinparam title {
	FontColor	                 #c0c0c0
 	BorderColor                  #545454
	FontSize	    	         20
	BorderRoundCorner            16
	BorderThickness 	         1
	BackgroundColor              #48494b
}


skinparam legend {
	BackgroundColor #303030
	BorderColor #404040
	FontColor #a0a0a0
}

	skinparam swimlane {
	BorderColor #5e5e5e
	BorderThickness 2
	TitleBackgroundColor  #6d6d6d-#484848
	TitleFontColor #303030
}

skinparam activity {
		FontColor #C8Ac00
	BorderColor #333333
	BackgroundColor #333333-#333333
	BarColor #00FF00
	StartColor #0060a8
	EndColor #0060a8
	DiamondBackgroundColor #6d6d6d-#3a3a3a
  	DiamondBorderColor #3a3a3a
  	DiamondFontColor #fefefe
}


skinparam participant {
		FontColor #C8Ac00
	BorderColor #333333
	BackgroundColor #333333-#333333
	ParticipantBorderThickness 2
}


skinparam actor {
		FontColor #C8Ac00
	BorderColor #333333
	BackgroundColor #333333-#333333
}


skinparam arrow {
	Thickness 1.5
	Color #545454
	FontColor #a0a0a0
    FontStyle bold
    MessageAlignment center
}



skinparam sequence {
	BorderColor #303030
	TitleFontColor #303030
	BackgroundColor #333333
	StartColor #303030
	EndColor #303030
	BoxBackgroundColor #333333
	BoxBorderColor #484848
	BoxFontColor #484848
	LifeLineBorderColor #484848
	LifeLineBorderThickness 2
	LifeLineBackgroundColor #3a3a3a
	GroupBorderColor #484848
	GroupFontColor #484848
	GroupHeaderFontColor #0060a8
	GroupBackgroundColor #484848
	GroupHeaderBackgroundColor #333333
	DividerBackgroundColor #484848
    DividerBorderColor #484848
    DividerBorderThickness 2
    DividerFontColor #D8Bc00
	ReferenceBackgroundColor #333333
	ReferenceBorderColor #484848
	ReferenceFontColor #fefefe
	ReferenceHeaderBackgroundColor #484848
}


skinparam partition {
	BorderColor #303030
	FontColor #333333
	BackgroundColor #333333
}


skinparam collections {
		FontColor #C8Ac00
	BorderColor #333333
	BackgroundColor #333333-#333333
}


skinparam control {
		FontColor #C8Ac00
	BorderColor #333333
	BackgroundColor #333333-#333333
}


skinparam entity {
		FontColor #C8Ac00
	BorderColor #333333
	BackgroundColor #333333-#333333
}


skinparam boundary {
		FontColor #C8Ac00
	BorderColor #333333
	BackgroundColor #333333-#333333
}


skinparam agent {
	BackgroundColor #ff8000
	BorderColor #ff9933
	FontColor #484848
}


skinparam note {
	BorderThickness 1
	BackgroundColor #1b1b1a
	BorderColor #5e5e5e
	FontSize 11
	FontColor #a0a0a0
}


skinparam artifact {
	BorderThickness 10
	BorderColor #5e5e5e
	BackgroundColor #1b1b1a
	FontColor #D8Bc00
}


skinparam component {
		FontColor #C8Ac00
	BorderColor #333333
	BackgroundColor #333333-#333333
}


skinparam interface {
	BackgroundColor  #008400
	BorderColor  #007F00
	FontColor #484848
}


skinparam storage {
	BackgroundColor #ff8000
  	BorderColor #cc6600
	FontColor #222222
}


skinparam node {
	BackgroundColor #333333
	BorderColor #333333
	FontColor #C8Ac00
}


skinparam cloud {
	BackgroundColor #484848-black
	BorderColor #484848
	FontColor #D8Bc00
}


skinparam database {
		FontColor #C8Ac00
	BorderColor #333333
	BackgroundColor #333333-#333333
	BackgroundColor  #333333
}


skinparam class {
		FontColor #C8Ac00
	BorderColor #333333
	BackgroundColor #333333-#333333
	HeaderBackgroundColor #1b1b1a
    BackgroundColor #282828
    BorderColor #5e5e5e
 	StereotypeFontColor #a0a0a0
    StereotypeFontStyle bold
	BorderThickness 1
	AttributeFontColor #D8Bc00
	AttributeFontSize 11
    FontColor #D8Bc00
    FontStyle bold
}


skinparam object {
		FontColor #C8Ac00
	BorderColor #333333
	BackgroundColor #333333-#333333
	StereotypeFontColor #484848
	BorderThickness 1
	AttributeFontColor #fefefe
	AttributeFontSize 11
}


skinparam usecase {
		FontColor #C8Ac00
	BorderColor #333333
	BackgroundColor #333333-#333333
	BorderThickness 2
	StereotypeFontColor #303030
}


skinparam rectangle {
		FontColor #C8Ac00
	BorderColor #333333
	BackgroundColor #333333-#333333
	BackgroundColor #333333
	BorderThickness 2
	StereotypeFontColor #303030
}


skinparam package {
		FontColor #C8Ac00
	BorderColor #333333
	BackgroundColor #333333-#333333
	BackgroundColor #333333
	BorderThickness 2
}


skinparam folder {
	BackgroundColor #6d6d6d
  	BorderColor #ff8000
	FontColor #ff8000
	BorderThickness 2
}


skinparam frame {
	BackgroundColor #6d6d6d
  	BorderColor #0060a8
	FontColor #0060a8
	BorderThickness 2
}


skinparam state {
		FontColor #C8Ac00
	BorderColor #333333
	BackgroundColor #333333-#333333
	StartColor #0060a8
	EndColor #0060a8
	AttributeFontColor #fefefe
	AttributeFontSize 11
}


skinparam queue {
		FontColor #C8Ac00
	BorderColor #333333
	BackgroundColor #333333-#333333
}


skinparam card {
	BackgroundColor #0060a8
	BorderColor #004d86
	FontColor $INFO_TEXT
}


skinparam file {
	BackgroundColor #6d6d6d-#484848
	BorderColor #0060a8
	FontColor #fefefe
}


skinparam stack {
		FontColor #C8Ac00
	BorderColor #333333
	BackgroundColor #333333-#333333
}

    
    title "com.telenav.kivakit.service.registry.protocol.discover"
    
    abstract BaseResponse
    abstract BaseRequest
    
    BaseRequest <|- - DiscoverApplicationsRequest
    class DiscoverApplicationsRequest
    {
        - -
        +Scope scope()
        - -(search)- -
        +DiscoverApplicationsRequest scope(Scope)
    }
    
    BaseResponse <|- - DiscoverApplicationsResponse
    class DiscoverApplicationsResponse
    {
        - -(identity)- -
        +Set<ApplicationIdentifier> applications()
        - -(search)- -
        +DiscoverApplicationsResponse applications(Set<ApplicationIdentifier> applications)
    }
    
    BaseRequest <|- - DiscoverPortServiceRequest
    class DiscoverPortServiceRequest
    {
        - -(network)- -
        +DiscoverPortServiceRequest port(Port)
        +Port port()
    }
    
    BaseResponse <|- - DiscoverPortServiceResponse
    class DiscoverPortServiceResponse
    {
        - -(service)- -
        +Service service()
        +DiscoverPortServiceResponse service(Service)
    }
    
    BaseRequest <|- - DiscoverServicesRequest
    class DiscoverServicesRequest
    {
        - -
        +Scope scope()
        - -(identity)- -
        +ApplicationIdentifier application()
        - -(search)- -
        +DiscoverServicesRequest application(ApplicationIdentifier)
        +DiscoverServicesRequest scope(Scope)
        +DiscoverServicesRequest serviceType(ServiceType)
        +SearchType type()
        +DiscoverServicesRequest type(SearchType)
        - -(service)- -
        +ServiceType serviceType()
    }
    
    BaseResponse <|- - DiscoverServicesResponse
    class DiscoverServicesResponse
    {
        - -(search)- -
        +DiscoverServicesResponse services(Set<Service> services)
        - -(service)- -
        +Service service()
        +Set<Service> services()
    }
    
    enum DiscoverServicesRequest.SearchType
    {
        ALL_SERVICES
        APPLICATION_SERVICES
        SERVICES_OF_TYPE
    }
    
@enduml

PlantUML version 1.2021.01(Tue Feb 02 00:55:08 MST 2021)
(GPL source distribution)
Java Runtime: Java(TM) SE Runtime Environment
JVM: Java HotSpot(TM) 64-Bit Server VM
Default Encoding: UTF-8
Language: en
Country: US
--></g></svg>