<?xml version="1.0" encoding="UTF-8" standalone="no"?><svg xmlns="http://www.w3.org/2000/svg" xmlns:xlink="http://www.w3.org/1999/xlink" contentScriptType="application/ecmascript" contentStyleType="text/css" height="254.1667px" preserveAspectRatio="none" style="width:523px;height:254px;background:#333333;" version="1.1" viewBox="0 0 523 254" width="523.9583px" zoomAndPan="magnify"><defs/><g><rect fill="#48494B" height="41.2028" rx="8.3333" ry="8.3333" style="stroke:#545454;stroke-width:1.0416666666666667;" width="500" x="4.6875" y="2.0833"/><text fill="#C0C0C0" font-family="Open Sans,Avenir,Nunito,Arial,Helvetica,SansSerif" font-size="20.8333" lengthAdjust="spacing" textLength="477.0833" x="16.1458" y="30.5583">com.telenav.kivakit.service.registry.serialization</text><!--MD5=[2f6b322feb96bb2631e1a0e875047f13]
class GsonFactory--><rect fill="#282828" height="48.055" id="GsonFactory" rx="8.3333" ry="8.3333" style="stroke:#5E5E5E;stroke-width:1.0416666666666667;" width="117.7083" x="56.25" y="53.7028"/><rect fill="#1B1B1A" height="31.3883" rx="8.3333" ry="8.3333" style="stroke:#1B1B1A;stroke-width:1.0416666666666667;" width="117.7083" x="56.25" y="53.7028"/><rect fill="#1B1B1A" height="8.3333" style="stroke:#1B1B1A;stroke-width:1.0416666666666667;" width="117.7083" x="56.25" y="76.7578"/><rect fill="none" height="48.055" id="GsonFactory" rx="8.3333" ry="8.3333" style="stroke:#5E5E5E;stroke-width:1.0416666666666667;" width="117.7083" x="56.25" y="53.7028"/><ellipse cx="70.8333" cy="69.397" fill="#0066CF" rx="10.4167" ry="10.4167" style="stroke:#0086EF;stroke-width:1.0416666666666667;"/><path d="M72.7437,73.822 Q72.3165,74.0417 71.8465,74.1516 Q71.3765,74.2615 70.8577,74.2615 Q69.0145,74.2615 68.044,73.0469 Q67.0736,71.8323 67.0736,69.5374 Q67.0736,67.2363 68.044,66.0217 Q69.0145,64.8071 70.8577,64.8071 Q71.3765,64.8071 71.8526,64.917 Q72.3287,65.0269 72.7437,65.2466 L72.7437,67.2485 Q72.2799,66.8213 71.8435,66.6229 Q71.4071,66.4246 70.9432,66.4246 Q69.9544,66.4246 69.4509,67.2089 Q68.9473,67.9932 68.9473,69.5374 Q68.9473,71.0754 69.4509,71.8597 Q69.9544,72.644 70.9432,72.644 Q71.4071,72.644 71.8435,72.4457 Q72.2799,72.2473 72.7437,71.8201 Z " fill="#000000"/><text fill="#D8BC00" font-family="Open Sans,Avenir,Nunito,Arial,Helvetica,SansSerif" font-size="12.5" font-weight="bold" lengthAdjust="spacing" textLength="80.2083" x="87.5" y="74.1211">GsonFactory</text><line style="stroke:#5E5E5E;stroke-width:1.0416666666666667;" x1="57.2917" x2="172.9167" y1="85.0911" y2="85.0911"/><line style="stroke:#5E5E5E;stroke-width:1.0416666666666667;" x1="57.2917" x2="172.9167" y1="93.4245" y2="93.4245"/><!--MD5=[df6d29c1b827e3420acab0c599d75d2a]
class ServiceRegistryGsonFactory--><rect codeLine="7" fill="#282828" height="48.055" id="ServiceRegistryGsonFactory" rx="8.3333" ry="8.3333" style="stroke:#5E5E5E;stroke-width:1.0416666666666667;" width="215.625" x="7.2917" y="181.8278"/><rect fill="#1B1B1A" height="31.3883" rx="8.3333" ry="8.3333" style="stroke:#1B1B1A;stroke-width:1.0416666666666667;" width="215.625" x="7.2917" y="181.8278"/><rect fill="#1B1B1A" height="8.3333" style="stroke:#1B1B1A;stroke-width:1.0416666666666667;" width="215.625" x="7.2917" y="204.8828"/><rect codeLine="7" fill="none" height="48.055" id="ServiceRegistryGsonFactory" rx="8.3333" ry="8.3333" style="stroke:#5E5E5E;stroke-width:1.0416666666666667;" width="215.625" x="7.2917" y="181.8278"/><ellipse cx="21.875" cy="197.522" fill="#0066CF" rx="10.4167" ry="10.4167" style="stroke:#0086EF;stroke-width:1.0416666666666667;"/><path d="M23.7854,201.947 Q23.3582,202.1667 22.8882,202.2766 Q22.4182,202.3865 21.8994,202.3865 Q20.0562,202.3865 19.0857,201.1719 Q18.1152,199.9573 18.1152,197.6624 Q18.1152,195.3613 19.0857,194.1467 Q20.0562,192.9321 21.8994,192.9321 Q22.4182,192.9321 22.8943,193.042 Q23.3704,193.1519 23.7854,193.3716 L23.7854,195.3735 Q23.3215,194.9463 22.8851,194.7479 Q22.4487,194.5496 21.9849,194.5496 Q20.9961,194.5496 20.4926,195.3339 Q19.989,196.1182 19.989,197.6624 Q19.989,199.2004 20.4926,199.9847 Q20.9961,200.769 21.9849,200.769 Q22.4487,200.769 22.8851,200.5707 Q23.3215,200.3723 23.7854,199.9451 Z " fill="#000000"/><text fill="#D8BC00" font-family="Open Sans,Avenir,Nunito,Arial,Helvetica,SansSerif" font-size="12.5" font-weight="bold" lengthAdjust="spacing" textLength="178.125" x="38.5417" y="202.2461">ServiceRegistryGsonFactory</text><line style="stroke:#5E5E5E;stroke-width:1.0416666666666667;" x1="8.3333" x2="221.875" y1="213.2161" y2="213.2161"/><line style="stroke:#5E5E5E;stroke-width:1.0416666666666667;" x1="8.3333" x2="221.875" y1="221.5495" y2="221.5495"/><!--MD5=[6e78f5e404093da70a701b47f6b74a22]
class JerseyGsonSerializer--><rect fill="#282828" height="48.055" id="JerseyGsonSerializer" rx="8.3333" ry="8.3333" style="stroke:#5E5E5E;stroke-width:1.0416666666666667;" width="169.7917" x="301.0417" y="53.7028"/><rect fill="#1B1B1A" height="31.3883" rx="8.3333" ry="8.3333" style="stroke:#1B1B1A;stroke-width:1.0416666666666667;" width="169.7917" x="301.0417" y="53.7028"/><rect fill="#1B1B1A" height="8.3333" style="stroke:#1B1B1A;stroke-width:1.0416666666666667;" width="169.7917" x="301.0417" y="76.7578"/><rect fill="none" height="48.055" id="JerseyGsonSerializer" rx="8.3333" ry="8.3333" style="stroke:#5E5E5E;stroke-width:1.0416666666666667;" width="169.7917" x="301.0417" y="53.7028"/><ellipse cx="315.625" cy="69.397" fill="#0066CF" rx="10.4167" ry="10.4167" style="stroke:#0086EF;stroke-width:1.0416666666666667;"/><path d="M317.5354,73.822 Q317.1082,74.0417 316.6382,74.1516 Q316.1682,74.2615 315.6494,74.2615 Q313.8062,74.2615 312.8357,73.0469 Q311.8652,71.8323 311.8652,69.5374 Q311.8652,67.2363 312.8357,66.0217 Q313.8062,64.8071 315.6494,64.8071 Q316.1682,64.8071 316.6443,64.917 Q317.1204,65.0269 317.5354,65.2466 L317.5354,67.2485 Q317.0715,66.8213 316.6351,66.6229 Q316.1987,66.4246 315.7349,66.4246 Q314.7461,66.4246 314.2426,67.2089 Q313.739,67.9932 313.739,69.5374 Q313.739,71.0754 314.2426,71.8597 Q314.7461,72.644 315.7349,72.644 Q316.1987,72.644 316.6351,72.4457 Q317.0715,72.2473 317.5354,71.8201 Z " fill="#000000"/><text fill="#D8BC00" font-family="Open Sans,Avenir,Nunito,Arial,Helvetica,SansSerif" font-size="12.5" font-weight="bold" lengthAdjust="spacing" textLength="132.2917" x="332.2917" y="74.1211">JerseyGsonSerializer</text><line style="stroke:#5E5E5E;stroke-width:1.0416666666666667;" x1="302.0833" x2="469.7917" y1="85.0911" y2="85.0911"/><line style="stroke:#5E5E5E;stroke-width:1.0416666666666667;" x1="302.0833" x2="469.7917" y1="93.4245" y2="93.4245"/><!--MD5=[530d46b23b564e2dfcf5014e098503f1]
class ServiceRegistryJerseySerializer--><rect codeLine="12" fill="#282828" height="83.3781" id="ServiceRegistryJerseySerializer" rx="8.3333" ry="8.3333" style="stroke:#5E5E5E;stroke-width:1.0416666666666667;" width="253.125" x="259.375" y="164.1195"/><rect fill="#1B1B1A" height="31.3883" rx="8.3333" ry="8.3333" style="stroke:#1B1B1A;stroke-width:1.0416666666666667;" width="253.125" x="259.375" y="164.1195"/><rect fill="#1B1B1A" height="8.3333" style="stroke:#1B1B1A;stroke-width:1.0416666666666667;" width="253.125" x="259.375" y="187.1745"/><rect codeLine="12" fill="none" height="83.3781" id="ServiceRegistryJerseySerializer" rx="8.3333" ry="8.3333" style="stroke:#5E5E5E;stroke-width:1.0416666666666667;" width="253.125" x="259.375" y="164.1195"/><ellipse cx="273.9583" cy="179.8136" fill="#0066CF" rx="10.4167" ry="10.4167" style="stroke:#0086EF;stroke-width:1.0416666666666667;"/><path d="M275.8687,184.2387 Q275.4415,184.4584 274.9715,184.5683 Q274.5015,184.6781 273.9827,184.6781 Q272.1395,184.6781 271.169,183.4635 Q270.1986,182.2489 270.1986,179.954 Q270.1986,177.653 271.169,176.4384 Q272.1395,175.2238 273.9827,175.2238 Q274.5015,175.2238 274.9776,175.3337 Q275.4537,175.4435 275.8687,175.6632 L275.8687,177.6652 Q275.4049,177.238 274.9685,177.0396 Q274.5321,176.8412 274.0682,176.8412 Q273.0794,176.8412 272.5759,177.6255 Q272.0723,178.4098 272.0723,179.954 Q272.0723,181.4921 272.5759,182.2764 Q273.0794,183.0607 274.0682,183.0607 Q274.5321,183.0607 274.9685,182.8623 Q275.4049,182.664 275.8687,182.2367 Z " fill="#000000"/><text fill="#D8BC00" font-family="Open Sans,Avenir,Nunito,Arial,Helvetica,SansSerif" font-size="12.5" font-weight="bold" lengthAdjust="spacing" textLength="196.875" x="290.625" y="184.5378">ServiceRegistryJerseySerializer</text><rect fill="#333333" height="23.055" style="stroke:#A0A0A0;stroke-width:1.0416666666666667;stroke-dasharray:2.0,2.0;" width="16.6667" x="498.9583" y="160.9945"/><text fill="#A0A0A0" font-family="Open Sans,Avenir,Nunito,Arial,Helvetica,SansSerif" font-size="12.5" font-weight="bold" lengthAdjust="spacing" textLength="8.3333" x="503.125" y="177.2461">T</text><line style="stroke:#5E5E5E;stroke-width:1.5625;" x1="260.4167" x2="511.4583" y1="195.5078" y2="195.5078"/><ellipse cx="270.8333" cy="230.8777" fill="#84BE84" rx="3.125" ry="3.125" style="stroke:#038048;stroke-width:1.0416666666666667;"/><text fill="#D8BC00" font-family="Open Sans,Avenir,Nunito,Arial,Helvetica,SansSerif" font-size="11.4583" lengthAdjust="spacing" textLength="178.125" x="282.2917" y="237.7889">ServiceRegistryJerseySerializer()</text><line style="stroke:#5E5E5E;stroke-width:1.0416666666666667;" x1="260.4167" x2="342.1875" y1="213.7136" y2="213.7136"/><text fill="#D8BC00" font-family="Open Sans,Avenir,Nunito,Arial,Helvetica,SansSerif" font-size="11.4583" lengthAdjust="spacing" textLength="81.25" x="345.3125" y="217.5232">(constructors)</text><line style="stroke:#5E5E5E;stroke-width:1.0416666666666667;" x1="429.6875" x2="511.4583" y1="213.7136" y2="213.7136"/><!--MD5=[a4b6ce87de61a802644dc451eb4a6753]
reverse link GsonFactory to ServiceRegistryGsonFactory--><path codeLine="6" d="M115.1042,122.9528 C115.1042,142.7965 115.1042,165.3799 115.1042,181.7757 " fill="none" id="GsonFactory-backto-ServiceRegistryGsonFactory" style="stroke:#545454;stroke-width:1.5625;"/><polygon fill="none" points="107.8125,122.6507,115.1042,101.8174,122.3958,122.6507,107.8125,122.6507" style="stroke:#545454;stroke-width:1.5625;"/><!--MD5=[cb43d9f19d96741cae54308f3b0a9d01]
reverse link JerseyGsonSerializer to ServiceRegistryJerseySerializer--><path codeLine="11" d="M385.9375,122.682 C385.9375,136.0778 385.9375,150.7445 385.9375,163.9215 " fill="none" id="JerseyGsonSerializer-backto-ServiceRegistryJerseySerializer" style="stroke:#545454;stroke-width:1.5625;"/><polygon fill="none" points="378.6458,122.6507,385.9375,101.8174,393.2292,122.6507,378.6458,122.6507" style="stroke:#545454;stroke-width:1.5625;"/><!--MD5=[89c5bf773a8abfa66211d1a2c9e3e42e]
@startuml

    !include ../lexakai/lexakai.theme
    
    title "com.telenav.kivakit.service.registry.serialization"
    
    GsonFactory <|- - ServiceRegistryGsonFactory
    class ServiceRegistryGsonFactory
    {
    }
    
    JerseyGsonSerializer <|- - ServiceRegistryJerseySerializer
    class ServiceRegistryJerseySerializer<T>
    {
        - -(constructors)- -
        +ServiceRegistryJerseySerializer()
    }
    
@enduml

@startuml









skinparam backgroundColor #333333






skinparam  {
    defaultFontName   "Open Sans,Avenir,Nunito,Arial,Helvetica,SansSerif"
    defaultFontSize   12
    defaultTextAlignment left
    shadowing false
    RoundCorner 10
    TitleFontSize 18
}

skinparam defaultFontName       "Open Sans,Avenir,Nunito,Arial,Helvetica,SansSerif"
skinparam defaultFontSize       12
skinparam dpi                   100
skinparam shadowing             false
skinparam roundcorner           16
skinparam ParticipantPadding    40
skinparam BoxPadding            40
skinparam Padding               3
skinparam ArrowColor            #545454
skinparam stereotype {
    CBackgroundColor #0066cf
    CBorderColor #0086ef
    ABackgroundColor #C8Ac00
    ABorderColor #D8Bc00
    IBackgroundColor #008400
    IBorderColor #239c23
    EBackgroundColor #cf6300
    EBorderColor #ef8300
    NBackgroundColor #3380b9
    NBorderColor #004d86
}
skinparam title {
	FontColor	                 #c0c0c0
 	BorderColor                  #545454
	FontSize	    	         20
	BorderRoundCorner            16
	BorderThickness 	         1
	BackgroundColor              #48494b
}


skinparam legend {
	BackgroundColor #303030
	BorderColor #404040
	FontColor #a0a0a0
}

	skinparam swimlane {
	BorderColor #5e5e5e
	BorderThickness 2
	TitleBackgroundColor  #6d6d6d-#484848
	TitleFontColor #303030
}

skinparam activity {
		FontColor #C8Ac00
	BorderColor #333333
	BackgroundColor #333333-#333333
	BarColor #00FF00
	StartColor #0060a8
	EndColor #0060a8
	DiamondBackgroundColor #6d6d6d-#3a3a3a
  	DiamondBorderColor #3a3a3a
  	DiamondFontColor #fefefe
}


skinparam participant {
		FontColor #C8Ac00
	BorderColor #333333
	BackgroundColor #333333-#333333
	ParticipantBorderThickness 2
}


skinparam actor {
		FontColor #C8Ac00
	BorderColor #333333
	BackgroundColor #333333-#333333
}


skinparam arrow {
	Thickness 1.5
	Color #545454
	FontColor #a0a0a0
    FontStyle bold
    MessageAlignment center
}



skinparam sequence {
	BorderColor #303030
	TitleFontColor #303030
	BackgroundColor #333333
	StartColor #303030
	EndColor #303030
	BoxBackgroundColor #333333
	BoxBorderColor #484848
	BoxFontColor #484848
	LifeLineBorderColor #484848
	LifeLineBorderThickness 2
	LifeLineBackgroundColor #3a3a3a
	GroupBorderColor #484848
	GroupFontColor #484848
	GroupHeaderFontColor #0060a8
	GroupBackgroundColor #484848
	GroupHeaderBackgroundColor #333333
	DividerBackgroundColor #484848
    DividerBorderColor #484848
    DividerBorderThickness 2
    DividerFontColor #D8Bc00
	ReferenceBackgroundColor #333333
	ReferenceBorderColor #484848
	ReferenceFontColor #fefefe
	ReferenceHeaderBackgroundColor #484848
}


skinparam partition {
	BorderColor #303030
	FontColor #333333
	BackgroundColor #333333
}


skinparam collections {
		FontColor #C8Ac00
	BorderColor #333333
	BackgroundColor #333333-#333333
}


skinparam control {
		FontColor #C8Ac00
	BorderColor #333333
	BackgroundColor #333333-#333333
}


skinparam entity {
		FontColor #C8Ac00
	BorderColor #333333
	BackgroundColor #333333-#333333
}


skinparam boundary {
		FontColor #C8Ac00
	BorderColor #333333
	BackgroundColor #333333-#333333
}


skinparam agent {
	BackgroundColor #ff8000
	BorderColor #ff9933
	FontColor #484848
}


skinparam note {
	BorderThickness 1
	BackgroundColor #1b1b1a
	BorderColor #5e5e5e
	FontSize 11
	FontColor #a0a0a0
}


skinparam artifact {
	BorderThickness 10
	BorderColor #5e5e5e
	BackgroundColor #1b1b1a
	FontColor #D8Bc00
}


skinparam component {
		FontColor #C8Ac00
	BorderColor #333333
	BackgroundColor #333333-#333333
}


skinparam interface {
	BackgroundColor  #008400
	BorderColor  #007F00
	FontColor #484848
}


skinparam storage {
	BackgroundColor #ff8000
  	BorderColor #cc6600
	FontColor #222222
}


skinparam node {
	BackgroundColor #333333
	BorderColor #333333
	FontColor #C8Ac00
}


skinparam cloud {
	BackgroundColor #484848-black
	BorderColor #484848
	FontColor #D8Bc00
}


skinparam database {
		FontColor #C8Ac00
	BorderColor #333333
	BackgroundColor #333333-#333333
	BackgroundColor  #333333
}


skinparam class {
		FontColor #C8Ac00
	BorderColor #333333
	BackgroundColor #333333-#333333
	HeaderBackgroundColor #1b1b1a
    BackgroundColor #282828
    BorderColor #5e5e5e
 	StereotypeFontColor #a0a0a0
    StereotypeFontStyle bold
	BorderThickness 1
	AttributeFontColor #D8Bc00
	AttributeFontSize 11
    FontColor #D8Bc00
    FontStyle bold
}


skinparam object {
		FontColor #C8Ac00
	BorderColor #333333
	BackgroundColor #333333-#333333
	StereotypeFontColor #484848
	BorderThickness 1
	AttributeFontColor #fefefe
	AttributeFontSize 11
}


skinparam usecase {
		FontColor #C8Ac00
	BorderColor #333333
	BackgroundColor #333333-#333333
	BorderThickness 2
	StereotypeFontColor #303030
}


skinparam rectangle {
		FontColor #C8Ac00
	BorderColor #333333
	BackgroundColor #333333-#333333
	BackgroundColor #333333
	BorderThickness 2
	StereotypeFontColor #303030
}


skinparam package {
		FontColor #C8Ac00
	BorderColor #333333
	BackgroundColor #333333-#333333
	BackgroundColor #333333
	BorderThickness 2
}


skinparam folder {
	BackgroundColor #6d6d6d
  	BorderColor #ff8000
	FontColor #ff8000
	BorderThickness 2
}


skinparam frame {
	BackgroundColor #6d6d6d
  	BorderColor #0060a8
	FontColor #0060a8
	BorderThickness 2
}


skinparam state {
		FontColor #C8Ac00
	BorderColor #333333
	BackgroundColor #333333-#333333
	StartColor #0060a8
	EndColor #0060a8
	AttributeFontColor #fefefe
	AttributeFontSize 11
}


skinparam queue {
		FontColor #C8Ac00
	BorderColor #333333
	BackgroundColor #333333-#333333
}


skinparam card {
	BackgroundColor #0060a8
	BorderColor #004d86
	FontColor $INFO_TEXT
}


skinparam file {
	BackgroundColor #6d6d6d-#484848
	BorderColor #0060a8
	FontColor #fefefe
}


skinparam stack {
		FontColor #C8Ac00
	BorderColor #333333
	BackgroundColor #333333-#333333
}

    
    title "com.telenav.kivakit.service.registry.serialization"
    
    GsonFactory <|- - ServiceRegistryGsonFactory
    class ServiceRegistryGsonFactory
    {
    }
    
    JerseyGsonSerializer <|- - ServiceRegistryJerseySerializer
    class ServiceRegistryJerseySerializer<T>
    {
        - -(constructors)- -
        +ServiceRegistryJerseySerializer()
    }
    
@enduml

PlantUML version 1.2021.01(Tue Feb 02 00:55:08 MST 2021)
(GPL source distribution)
Java Runtime: Java(TM) SE Runtime Environment
JVM: Java HotSpot(TM) 64-Bit Server VM
Default Encoding: UTF-8
Language: en
Country: US
--></g></svg>