<?xml version="1.0" encoding="UTF-8" standalone="no"?><svg xmlns="http://www.w3.org/2000/svg" xmlns:xlink="http://www.w3.org/1999/xlink" contentScriptType="application/ecmascript" contentStyleType="text/css" height="348.9583px" preserveAspectRatio="none" style="width:567px;height:348px;background:#333333;" version="1.1" viewBox="0 0 567 348" width="567.7083px" zoomAndPan="magnify"><defs/><g><rect fill="#48494B" height="41.2028" rx="8.3333" ry="8.3333" style="stroke:#545454;stroke-width:1.0416666666666667;" width="334.375" x="109.6354" y="2.0833"/><text fill="#C0C0C0" font-family="Open Sans,Avenir,Nunito,Arial,Helvetica,SansSerif" font-size="20.8333" lengthAdjust="spacing" textLength="311.4583" x="121.0938" y="30.5583">com.telenav.kivakit.component</text><!--MD5=[762aa3d0df6a9d47bd8e105afbd066b5]
class BaseRepeater--><rect codeLine="7" fill="#282828" height="48.055" id="BaseRepeater" rx="8.3333" ry="8.3333" style="stroke:#5E5E5E;stroke-width:1.0416666666666667;" width="123.9583" x="11.4583" y="164.1195"/><rect fill="#1B1B1A" height="31.3883" rx="8.3333" ry="8.3333" style="stroke:#1B1B1A;stroke-width:1.0416666666666667;" width="123.9583" x="11.4583" y="164.1195"/><rect fill="#1B1B1A" height="8.3333" style="stroke:#1B1B1A;stroke-width:1.0416666666666667;" width="123.9583" x="11.4583" y="187.1745"/><rect codeLine="7" fill="none" height="48.055" id="BaseRepeater" rx="8.3333" ry="8.3333" style="stroke:#5E5E5E;stroke-width:1.0416666666666667;" width="123.9583" x="11.4583" y="164.1195"/><ellipse cx="26.0417" cy="179.8136" fill="#C8AC00" rx="10.4167" ry="10.4167" style="stroke:#D8BC00;stroke-width:1.0416666666666667;"/><path d="M25.6348,176.5157 L24.7864,180.245 L26.4893,180.245 Z M24.5361,174.8678 L26.7395,174.8678 L29.1992,183.9803 L27.3987,183.9803 L26.8372,181.7281 L24.4263,181.7281 L23.877,183.9803 L22.0764,183.9803 Z " fill="#000000"/><text fill="#D8BC00" font-family="Open Sans,Avenir,Nunito,Arial,Helvetica,SansSerif" font-size="12.5" font-style="italic" font-weight="bold" lengthAdjust="spacing" textLength="86.4583" x="42.7083" y="184.5378">BaseRepeater</text><line style="stroke:#5E5E5E;stroke-width:1.0416666666666667;" x1="12.5" x2="134.375" y1="195.5078" y2="195.5078"/><line style="stroke:#5E5E5E;stroke-width:1.0416666666666667;" x1="12.5" x2="134.375" y1="203.8411" y2="203.8411"/><!--MD5=[4e13963c9dc916a21a8436ef39422b32]
class Component--><rect codeLine="27" fill="#282828" height="48.055" id="Component" rx="8.3333" ry="8.3333" style="stroke:#5E5E5E;stroke-width:1.0416666666666667;" width="113.5417" x="171.875" y="164.1195"/><rect fill="#1B1B1A" height="31.3883" rx="8.3333" ry="8.3333" style="stroke:#1B1B1A;stroke-width:1.0416666666666667;" width="113.5417" x="171.875" y="164.1195"/><rect fill="#1B1B1A" height="8.3333" style="stroke:#1B1B1A;stroke-width:1.0416666666666667;" width="113.5417" x="171.875" y="187.1745"/><rect codeLine="27" fill="none" height="48.055" id="Component" rx="8.3333" ry="8.3333" style="stroke:#5E5E5E;stroke-width:1.0416666666666667;" width="113.5417" x="171.875" y="164.1195"/><ellipse cx="186.4583" cy="179.8136" fill="#008400" rx="10.4167" ry="10.4167" style="stroke:#239C23;stroke-width:1.0416666666666667;"/><path d="M183.8623,176.9755 L183.8623,175.3886 L189.2883,175.3886 L189.2883,176.9755 L187.4756,176.9755 L187.4756,182.9142 L189.2883,182.9142 L189.2883,184.5011 L183.8623,184.5011 L183.8623,182.9142 L185.675,182.9142 L185.675,176.9755 Z " fill="#000000"/><text fill="#D8BC00" font-family="Open Sans,Avenir,Nunito,Arial,Helvetica,SansSerif" font-size="12.5" font-style="italic" font-weight="bold" lengthAdjust="spacing" textLength="76.0417" x="203.125" y="184.5378">Component</text><line style="stroke:#5E5E5E;stroke-width:1.0416666666666667;" x1="172.9167" x2="284.375" y1="195.5078" y2="195.5078"/><line style="stroke:#5E5E5E;stroke-width:1.0416666666666667;" x1="172.9167" x2="284.375" y1="203.8411" y2="203.8411"/><!--MD5=[784d533083758286c885e86b9fe3090e]
class BaseComponent--><rect codeLine="13" fill="#282828" height="48.055" id="BaseComponent" rx="8.3333" ry="8.3333" style="stroke:#5E5E5E;stroke-width:1.0416666666666667;" width="143.75" x="41.1458" y="284.432"/><rect fill="#1B1B1A" height="31.3883" rx="8.3333" ry="8.3333" style="stroke:#1B1B1A;stroke-width:1.0416666666666667;" width="143.75" x="41.1458" y="284.432"/><rect fill="#1B1B1A" height="8.3333" style="stroke:#1B1B1A;stroke-width:1.0416666666666667;" width="143.75" x="41.1458" y="307.487"/><rect codeLine="13" fill="none" height="48.055" id="BaseComponent" rx="8.3333" ry="8.3333" style="stroke:#5E5E5E;stroke-width:1.0416666666666667;" width="143.75" x="41.1458" y="284.432"/><ellipse cx="55.7292" cy="300.1261" fill="#0066CF" rx="10.4167" ry="10.4167" style="stroke:#0086EF;stroke-width:1.0416666666666667;"/><path d="M57.6396,304.5512 Q57.2123,304.7709 56.7424,304.8808 Q56.2724,304.9906 55.7536,304.9906 Q53.9103,304.9906 52.9399,303.776 Q51.9694,302.5614 51.9694,300.2665 Q51.9694,297.9655 52.9399,296.7509 Q53.9103,295.5363 55.7536,295.5363 Q56.2724,295.5363 56.7485,295.6462 Q57.2245,295.756 57.6396,295.9757 L57.6396,297.9777 Q57.1757,297.5505 56.7393,297.3521 Q56.3029,297.1537 55.839,297.1537 Q54.8503,297.1537 54.3467,297.938 Q53.8432,298.7223 53.8432,300.2665 Q53.8432,301.8046 54.3467,302.5889 Q54.8503,303.3732 55.839,303.3732 Q56.3029,303.3732 56.7393,303.1748 Q57.1757,302.9765 57.6396,302.5492 Z " fill="#000000"/><text fill="#D8BC00" font-family="Open Sans,Avenir,Nunito,Arial,Helvetica,SansSerif" font-size="12.5" font-weight="bold" lengthAdjust="spacing" textLength="106.25" x="72.3958" y="304.8503">BaseComponent</text><line style="stroke:#5E5E5E;stroke-width:1.0416666666666667;" x1="42.1875" x2="183.8542" y1="315.8203" y2="315.8203"/><line style="stroke:#5E5E5E;stroke-width:1.0416666666666667;" x1="42.1875" x2="183.8542" y1="324.1536" y2="324.1536"/><!--MD5=[5cc06ecdd9480702b567e3f11ad511a4]
class NamedObject--><rect codeLine="17" fill="#282828" height="48.055" id="NamedObject" rx="8.3333" ry="8.3333" style="stroke:#5E5E5E;stroke-width:1.0416666666666667;" width="123.9583" x="7.2917" y="53.7028"/><rect fill="#1B1B1A" height="31.3883" rx="8.3333" ry="8.3333" style="stroke:#1B1B1A;stroke-width:1.0416666666666667;" width="123.9583" x="7.2917" y="53.7028"/><rect fill="#1B1B1A" height="8.3333" style="stroke:#1B1B1A;stroke-width:1.0416666666666667;" width="123.9583" x="7.2917" y="76.7578"/><rect codeLine="17" fill="none" height="48.055" id="NamedObject" rx="8.3333" ry="8.3333" style="stroke:#5E5E5E;stroke-width:1.0416666666666667;" width="123.9583" x="7.2917" y="53.7028"/><ellipse cx="21.875" cy="69.397" fill="#008400" rx="10.4167" ry="10.4167" style="stroke:#239C23;stroke-width:1.0416666666666667;"/><path d="M19.279,66.5588 L19.279,64.9719 L24.705,64.9719 L24.705,66.5588 L22.8923,66.5588 L22.8923,72.4976 L24.705,72.4976 L24.705,74.0845 L19.279,74.0845 L19.279,72.4976 L21.0917,72.4976 L21.0917,66.5588 Z " fill="#000000"/><text fill="#D8BC00" font-family="Open Sans,Avenir,Nunito,Arial,Helvetica,SansSerif" font-size="12.5" font-style="italic" font-weight="bold" lengthAdjust="spacing" textLength="86.4583" x="38.5417" y="74.1211">NamedObject</text><line style="stroke:#5E5E5E;stroke-width:1.0416666666666667;" x1="8.3333" x2="130.2083" y1="85.0911" y2="85.0911"/><line style="stroke:#5E5E5E;stroke-width:1.0416666666666667;" x1="8.3333" x2="130.2083" y1="93.4245" y2="93.4245"/><!--MD5=[34eb2c3cd1bd084029c026d450c2586e]
class RegistryTrait--><rect codeLine="18" fill="#282828" height="48.055" id="RegistryTrait" rx="8.3333" ry="8.3333" style="stroke:#5E5E5E;stroke-width:1.0416666666666667;" width="120.8333" x="168.2292" y="53.7028"/><rect fill="#1B1B1A" height="31.3883" rx="8.3333" ry="8.3333" style="stroke:#1B1B1A;stroke-width:1.0416666666666667;" width="120.8333" x="168.2292" y="53.7028"/><rect fill="#1B1B1A" height="8.3333" style="stroke:#1B1B1A;stroke-width:1.0416666666666667;" width="120.8333" x="168.2292" y="76.7578"/><rect codeLine="18" fill="none" height="48.055" id="RegistryTrait" rx="8.3333" ry="8.3333" style="stroke:#5E5E5E;stroke-width:1.0416666666666667;" width="120.8333" x="168.2292" y="53.7028"/><ellipse cx="182.8125" cy="69.397" fill="#008400" rx="10.4167" ry="10.4167" style="stroke:#239C23;stroke-width:1.0416666666666667;"/><path d="M180.2165,66.5588 L180.2165,64.9719 L185.6425,64.9719 L185.6425,66.5588 L183.8298,66.5588 L183.8298,72.4976 L185.6425,72.4976 L185.6425,74.0845 L180.2165,74.0845 L180.2165,72.4976 L182.0292,72.4976 L182.0292,66.5588 Z " fill="#000000"/><text fill="#D8BC00" font-family="Open Sans,Avenir,Nunito,Arial,Helvetica,SansSerif" font-size="12.5" font-style="italic" font-weight="bold" lengthAdjust="spacing" textLength="83.3333" x="199.4792" y="74.1211">RegistryTrait</text><line style="stroke:#5E5E5E;stroke-width:1.0416666666666667;" x1="169.2708" x2="288.0208" y1="85.0911" y2="85.0911"/><line style="stroke:#5E5E5E;stroke-width:1.0416666666666667;" x1="169.2708" x2="288.0208" y1="93.4245" y2="93.4245"/><!--MD5=[5ec8c00c13391aeaac8c08bdf7a77295]
class Repeater--><rect codeLine="19" fill="#282828" height="48.055" id="Repeater" rx="8.3333" ry="8.3333" style="stroke:#5E5E5E;stroke-width:1.0416666666666667;" width="93.75" x="325.5208" y="53.7028"/><rect fill="#1B1B1A" height="31.3883" rx="8.3333" ry="8.3333" style="stroke:#1B1B1A;stroke-width:1.0416666666666667;" width="93.75" x="325.5208" y="53.7028"/><rect fill="#1B1B1A" height="8.3333" style="stroke:#1B1B1A;stroke-width:1.0416666666666667;" width="93.75" x="325.5208" y="76.7578"/><rect codeLine="19" fill="none" height="48.055" id="Repeater" rx="8.3333" ry="8.3333" style="stroke:#5E5E5E;stroke-width:1.0416666666666667;" width="93.75" x="325.5208" y="53.7028"/><ellipse cx="340.1042" cy="69.397" fill="#008400" rx="10.4167" ry="10.4167" style="stroke:#239C23;stroke-width:1.0416666666666667;"/><path d="M337.5081,66.5588 L337.5081,64.9719 L342.9342,64.9719 L342.9342,66.5588 L341.1214,66.5588 L341.1214,72.4976 L342.9342,72.4976 L342.9342,74.0845 L337.5081,74.0845 L337.5081,72.4976 L339.3209,72.4976 L339.3209,66.5588 Z " fill="#000000"/><text fill="#D8BC00" font-family="Open Sans,Avenir,Nunito,Arial,Helvetica,SansSerif" font-size="12.5" font-style="italic" font-weight="bold" lengthAdjust="spacing" textLength="56.25" x="356.7708" y="74.1211">Repeater</text><line style="stroke:#5E5E5E;stroke-width:1.0416666666666667;" x1="326.5625" x2="418.2292" y1="85.0911" y2="85.0911"/><line style="stroke:#5E5E5E;stroke-width:1.0416666666666667;" x1="326.5625" x2="418.2292" y1="93.4245" y2="93.4245"/><!--MD5=[c7fc90dea65bb0d50ca297923bfb51cf]
class Mixin--><rect codeLine="28" fill="#282828" height="48.055" id="Mixin" rx="8.3333" ry="8.3333" style="stroke:#5E5E5E;stroke-width:1.0416666666666667;" width="72.9167" x="322.3958" y="164.1195"/><rect fill="#1B1B1A" height="31.3883" rx="8.3333" ry="8.3333" style="stroke:#1B1B1A;stroke-width:1.0416666666666667;" width="72.9167" x="322.3958" y="164.1195"/><rect fill="#1B1B1A" height="8.3333" style="stroke:#1B1B1A;stroke-width:1.0416666666666667;" width="72.9167" x="322.3958" y="187.1745"/><rect codeLine="28" fill="none" height="48.055" id="Mixin" rx="8.3333" ry="8.3333" style="stroke:#5E5E5E;stroke-width:1.0416666666666667;" width="72.9167" x="322.3958" y="164.1195"/><ellipse cx="336.9792" cy="179.8136" fill="#008400" rx="10.4167" ry="10.4167" style="stroke:#239C23;stroke-width:1.0416666666666667;"/><path d="M334.3831,176.9755 L334.3831,175.3886 L339.8092,175.3886 L339.8092,176.9755 L337.9964,176.9755 L337.9964,182.9142 L339.8092,182.9142 L339.8092,184.5011 L334.3831,184.5011 L334.3831,182.9142 L336.1959,182.9142 L336.1959,176.9755 Z " fill="#000000"/><text fill="#D8BC00" font-family="Open Sans,Avenir,Nunito,Arial,Helvetica,SansSerif" font-size="12.5" font-style="italic" font-weight="bold" lengthAdjust="spacing" textLength="35.4167" x="353.6458" y="184.5378">Mixin</text><line style="stroke:#5E5E5E;stroke-width:1.0416666666666667;" x1="323.4375" x2="394.2708" y1="195.5078" y2="195.5078"/><line style="stroke:#5E5E5E;stroke-width:1.0416666666666667;" x1="323.4375" x2="394.2708" y1="203.8411" y2="203.8411"/><!--MD5=[0543f1fea1dfbc84657cf745773c4fab]
class RepeaterMixin--><rect codeLine="29" fill="#282828" height="48.055" id="RepeaterMixin" rx="8.3333" ry="8.3333" style="stroke:#5E5E5E;stroke-width:1.0416666666666667;" width="129.1667" x="431.7708" y="164.1195"/><rect fill="#1B1B1A" height="31.3883" rx="8.3333" ry="8.3333" style="stroke:#1B1B1A;stroke-width:1.0416666666666667;" width="129.1667" x="431.7708" y="164.1195"/><rect fill="#1B1B1A" height="8.3333" style="stroke:#1B1B1A;stroke-width:1.0416666666666667;" width="129.1667" x="431.7708" y="187.1745"/><rect codeLine="29" fill="none" height="48.055" id="RepeaterMixin" rx="8.3333" ry="8.3333" style="stroke:#5E5E5E;stroke-width:1.0416666666666667;" width="129.1667" x="431.7708" y="164.1195"/><ellipse cx="446.3542" cy="179.8136" fill="#008400" rx="10.4167" ry="10.4167" style="stroke:#239C23;stroke-width:1.0416666666666667;"/><path d="M443.7581,176.9755 L443.7581,175.3886 L449.1842,175.3886 L449.1842,176.9755 L447.3714,176.9755 L447.3714,182.9142 L449.1842,182.9142 L449.1842,184.5011 L443.7581,184.5011 L443.7581,182.9142 L445.5709,182.9142 L445.5709,176.9755 Z " fill="#000000"/><text fill="#D8BC00" font-family="Open Sans,Avenir,Nunito,Arial,Helvetica,SansSerif" font-size="12.5" font-style="italic" font-weight="bold" lengthAdjust="spacing" textLength="91.6667" x="463.0208" y="184.5378">RepeaterMixin</text><line style="stroke:#5E5E5E;stroke-width:1.0416666666666667;" x1="432.8125" x2="559.8958" y1="195.5078" y2="195.5078"/><line style="stroke:#5E5E5E;stroke-width:1.0416666666666667;" x1="432.8125" x2="559.8958" y1="203.8411" y2="203.8411"/><!--MD5=[46acbc008168529f3349206642520903]
class ComponentMixin--><rect codeLine="33" fill="#282828" height="67.7999" id="ComponentMixin" rx="8.3333" ry="8.3333" style="stroke:#5E5E5E;stroke-width:1.0416666666666667;" width="197.9167" x="259.8958" y="274.5361"/><rect fill="#1B1B1A" height="31.3883" rx="8.3333" ry="8.3333" style="stroke:#1B1B1A;stroke-width:1.0416666666666667;" width="197.9167" x="259.8958" y="274.5361"/><rect fill="#1B1B1A" height="8.3333" style="stroke:#1B1B1A;stroke-width:1.0416666666666667;" width="197.9167" x="259.8958" y="297.5911"/><rect codeLine="33" fill="none" height="67.7999" id="ComponentMixin" rx="8.3333" ry="8.3333" style="stroke:#5E5E5E;stroke-width:1.0416666666666667;" width="197.9167" x="259.8958" y="274.5361"/><ellipse cx="296.5104" cy="290.2303" fill="#008400" rx="10.4167" ry="10.4167" style="stroke:#239C23;stroke-width:1.0416666666666667;"/><path d="M293.9144,287.3922 L293.9144,285.8053 L299.3404,285.8053 L299.3404,287.3922 L297.5277,287.3922 L297.5277,293.3309 L299.3404,293.3309 L299.3404,294.9178 L293.9144,294.9178 L293.9144,293.3309 L295.7271,293.3309 L295.7271,287.3922 Z " fill="#000000"/><text fill="#D8BC00" font-family="Open Sans,Avenir,Nunito,Arial,Helvetica,SansSerif" font-size="12.5" font-style="italic" font-weight="bold" lengthAdjust="spacing" textLength="111.4583" x="318.0729" y="294.9544">ComponentMixin</text><line style="stroke:#5E5E5E;stroke-width:1.5625;" x1="260.9375" x2="456.7708" y1="305.9245" y2="305.9245"/><line style="stroke:#5E5E5E;stroke-width:1.0416666666666667;" x1="260.9375" x2="456.7708" y1="314.2578" y2="314.2578"/><ellipse cx="271.3542" cy="325.7161" fill="#84BE84" rx="3.125" ry="3.125" style="stroke:#038048;stroke-width:1.0416666666666667;"/><text fill="#D8BC00" font-family="Open Sans,Avenir,Nunito,Arial,Helvetica,SansSerif" font-size="11.4583" lengthAdjust="spacing" textLength="165.625" x="282.8125" y="332.6274">BaseComponent component()</text><!--MD5=[56a06dcacdd0977d8e508d929b074a7d]
reverse link BaseRepeater to BaseComponent--><path codeLine="11" d="M87.8646,232.2132 C93.7708,249.8486 100.3646,269.5361 105.3125,284.3278 " fill="none" id="BaseRepeater-backto-BaseComponent" style="stroke:#545454;stroke-width:1.5625;"/><polygon fill="none" points="80.8646,234.2653,81.1667,212.1924,94.6875,229.6403,80.8646,234.2653" style="stroke:#545454;stroke-width:1.5625;"/><!--MD5=[5138e1726e9722808680e9cc81e45b35]
reverse link Component to BaseComponent--><path codeLine="12" d="M191.2708,227.3382 C172.8958,246.1299 151.3542,268.1507 135.5313,284.3278 " fill="none" id="Component-backto-BaseComponent" style="stroke:#545454;stroke-width:1.5625;"/><polygon fill="none" points="186.3021,221.9945,206.0729,212.1924,196.7292,232.1924,186.3021,221.9945" style="stroke:#545454;stroke-width:1.5625;"/><!--MD5=[ed0b01190b9ed1e95b54b2ec8146a95f]
reverse link Repeater to Component--><path codeLine="20" d="M325.0417,114.3903 C303.3333,130.7549 278.2292,149.6715 259.0833,164.0986 " fill="none" id="Repeater-backto-Component" style="stroke:#545454;stroke-width:1.5625;"/><polygon fill="none" points="320.8854,108.3903,341.9063,101.682,329.6563,120.0361,320.8854,108.3903" style="stroke:#545454;stroke-width:1.5625;"/><!--MD5=[6e86638afbdf70f7743c30ac2a93a9f4]
reverse link RegistryTrait to Component--><path codeLine="21" d="M228.6458,122.6195 C228.6458,136.8382 228.6458,152.0361 228.6458,164.0986 " fill="none" id="RegistryTrait-backto-Component" style="stroke:#545454;stroke-width:1.5625;"/><polygon fill="none" points="221.3542,122.5153,228.6458,101.682,235.9375,122.5153,221.3542,122.5153" style="stroke:#545454;stroke-width:1.5625;"/><!--MD5=[3d2605e5417b832be85d80f8bad94bb9]
reverse link NamedObject to Component--><path codeLine="22" d="M120.3438,113.4111 C144.7292,129.9945 173.25,149.3799 194.8958,164.0986 " fill="none" id="NamedObject-backto-Component" style="stroke:#545454;stroke-width:1.5625;"/><polygon fill="none" points="116.1979,119.4215,103.0729,101.682,124.3958,107.359,116.1979,119.4215" style="stroke:#545454;stroke-width:1.5625;"/><!--MD5=[14aa37badfa087ea7c6ab95a853539f9]
reverse link Component to ComponentMixin--><path codeLine="30" d="M269.6875,226.3903 C286.6875,241.8174 306.2188,259.557 322.6667,274.484 " fill="none" id="Component-backto-ComponentMixin" style="stroke:#545454;stroke-width:1.5625;"/><polygon fill="none" points="264.5833,231.5986,254.0625,212.1924,274.3854,220.807,264.5833,231.5986" style="stroke:#545454;stroke-width:1.5625;"/><!--MD5=[d83e488207a3771bcec22902623684fb]
reverse link Mixin to ComponentMixin--><path codeLine="31" d="M358.8542,233.484 C358.8542,247.0882 358.8542,261.7965 358.8542,274.484 " fill="none" id="Mixin-backto-ComponentMixin" style="stroke:#545454;stroke-width:1.5625;"/><polygon fill="none" points="351.5625,233.0257,358.8542,212.1924,366.1458,233.0257,351.5625,233.0257" style="stroke:#545454;stroke-width:1.5625;"/><!--MD5=[c29e8aef7bef827eaf782556ceeed6bb]
reverse link RepeaterMixin to ComponentMixin--><path codeLine="32" d="M453.5729,225.9111 C435.5,241.4528 414.6146,259.4007 397.0729,274.484 " fill="none" id="RepeaterMixin-backto-ComponentMixin" style="stroke:#545454;stroke-width:1.5625;"/><polygon fill="none" points="448.9688,220.2549,469.5208,212.1924,458.4688,231.307,448.9688,220.2549" style="stroke:#545454;stroke-width:1.5625;"/><!--MD5=[58d266a46bb2042fa9d3118bd2ec7b43]
@startuml

    !include lexakai.theme
    
    title "com.telenav.kivakit.component"
    
    abstract BaseRepeater
    
    interface Component
    
    BaseRepeater <|- - BaseComponent
    Component <|- - BaseComponent
    class BaseComponent
    {
    }
    
    interface NamedObject
    interface RegistryTrait
    interface Repeater
    Repeater <|- - Component
    RegistryTrait <|- - Component
    NamedObject <|- - Component
    interface Component
    {
    }
    
    interface Component
    interface Mixin
    interface RepeaterMixin
    Component <|- - ComponentMixin
    Mixin <|- - ComponentMixin
    RepeaterMixin <|- - ComponentMixin
    interface ComponentMixin
    {
        - -
        +BaseComponent component()
    }
    
@enduml

@startuml









skinparam backgroundColor #333333






skinparam  {
    defaultFontName   "Open Sans,Avenir,Nunito,Arial,Helvetica,SansSerif"
    defaultFontSize   12
    defaultTextAlignment left
    shadowing false
    RoundCorner 10
    TitleFontSize 18
}

skinparam defaultFontName       "Open Sans,Avenir,Nunito,Arial,Helvetica,SansSerif"
skinparam defaultFontSize       12
skinparam dpi                   100
skinparam shadowing             false
skinparam roundcorner           16
skinparam ParticipantPadding    40
skinparam BoxPadding            40
skinparam Padding               3
skinparam ArrowColor            #545454
skinparam stereotype {
    CBackgroundColor #0066cf
    CBorderColor #0086ef
    ABackgroundColor #C8Ac00
    ABorderColor #D8Bc00
    IBackgroundColor #008400
    IBorderColor #239c23
    EBackgroundColor #cf6300
    EBorderColor #ef8300
    NBackgroundColor #3380b9
    NBorderColor #004d86
}
skinparam title {
	FontColor	                 #c0c0c0
 	BorderColor                  #545454
	FontSize	    	         20
	BorderRoundCorner            16
	BorderThickness 	         1
	BackgroundColor              #48494b
}


skinparam legend {
	BackgroundColor #303030
	BorderColor #404040
	FontColor #a0a0a0
}

	skinparam swimlane {
	BorderColor #5e5e5e
	BorderThickness 2
	TitleBackgroundColor  #6d6d6d-#484848
	TitleFontColor #303030
}

skinparam activity {
		FontColor #C8Ac00
	BorderColor #333333
	BackgroundColor #333333-#333333
	BarColor #00FF00
	StartColor #0060a8
	EndColor #0060a8
	DiamondBackgroundColor #6d6d6d-#3a3a3a
  	DiamondBorderColor #3a3a3a
  	DiamondFontColor #fefefe
}


skinparam participant {
		FontColor #C8Ac00
	BorderColor #333333
	BackgroundColor #333333-#333333
	ParticipantBorderThickness 2
}


skinparam actor {
		FontColor #C8Ac00
	BorderColor #333333
	BackgroundColor #333333-#333333
}


skinparam arrow {
	Thickness 1.5
	Color #545454
	FontColor #a0a0a0
    FontStyle bold
    MessageAlignment center
}



skinparam sequence {
	BorderColor #303030
	TitleFontColor #303030
	BackgroundColor #333333
	StartColor #303030
	EndColor #303030
	BoxBackgroundColor #333333
	BoxBorderColor #484848
	BoxFontColor #484848
	LifeLineBorderColor #484848
	LifeLineBorderThickness 2
	LifeLineBackgroundColor #3a3a3a
	GroupBorderColor #484848
	GroupFontColor #484848
	GroupHeaderFontColor #0060a8
	GroupBackgroundColor #484848
	GroupHeaderBackgroundColor #333333
	DividerBackgroundColor #484848
    DividerBorderColor #484848
    DividerBorderThickness 2
    DividerFontColor #D8Bc00
	ReferenceBackgroundColor #333333
	ReferenceBorderColor #484848
	ReferenceFontColor #fefefe
	ReferenceHeaderBackgroundColor #484848
}


skinparam partition {
	BorderColor #303030
	FontColor #333333
	BackgroundColor #333333
}


skinparam collections {
		FontColor #C8Ac00
	BorderColor #333333
	BackgroundColor #333333-#333333
}


skinparam control {
		FontColor #C8Ac00
	BorderColor #333333
	BackgroundColor #333333-#333333
}


skinparam entity {
		FontColor #C8Ac00
	BorderColor #333333
	BackgroundColor #333333-#333333
}


skinparam boundary {
		FontColor #C8Ac00
	BorderColor #333333
	BackgroundColor #333333-#333333
}


skinparam agent {
	BackgroundColor #ff8000
	BorderColor #ff9933
	FontColor #484848
}


skinparam note {
	BorderThickness 1
	BackgroundColor #1b1b1a
	BorderColor #5e5e5e
	FontSize 11
	FontColor #a0a0a0
}


skinparam artifact {
	BorderThickness 10
	BorderColor #5e5e5e
	BackgroundColor #1b1b1a
	FontColor #D8Bc00
}


skinparam component {
		FontColor #C8Ac00
	BorderColor #333333
	BackgroundColor #333333-#333333
}


skinparam interface {
	BackgroundColor  #008400
	BorderColor  #007F00
	FontColor #484848
}


skinparam storage {
	BackgroundColor #ff8000
  	BorderColor #cc6600
	FontColor #222222
}


skinparam node {
	BackgroundColor #333333
	BorderColor #333333
	FontColor #C8Ac00
}


skinparam cloud {
	BackgroundColor #484848-black
	BorderColor #484848
	FontColor #D8Bc00
}


skinparam database {
		FontColor #C8Ac00
	BorderColor #333333
	BackgroundColor #333333-#333333
	BackgroundColor  #333333
}


skinparam class {
		FontColor #C8Ac00
	BorderColor #333333
	BackgroundColor #333333-#333333
	HeaderBackgroundColor #1b1b1a
    BackgroundColor #282828
    BorderColor #5e5e5e
 	StereotypeFontColor #a0a0a0
    StereotypeFontStyle bold
	BorderThickness 1
	AttributeFontColor #D8Bc00
	AttributeFontSize 11
    FontColor #D8Bc00
    FontStyle bold
}


skinparam object {
		FontColor #C8Ac00
	BorderColor #333333
	BackgroundColor #333333-#333333
	StereotypeFontColor #484848
	BorderThickness 1
	AttributeFontColor #fefefe
	AttributeFontSize 11
}


skinparam usecase {
		FontColor #C8Ac00
	BorderColor #333333
	BackgroundColor #333333-#333333
	BorderThickness 2
	StereotypeFontColor #303030
}


skinparam rectangle {
		FontColor #C8Ac00
	BorderColor #333333
	BackgroundColor #333333-#333333
	BackgroundColor #333333
	BorderThickness 2
	StereotypeFontColor #303030
}


skinparam package {
		FontColor #C8Ac00
	BorderColor #333333
	BackgroundColor #333333-#333333
	BackgroundColor #333333
	BorderThickness 2
}


skinparam folder {
	BackgroundColor #6d6d6d
  	BorderColor #ff8000
	FontColor #ff8000
	BorderThickness 2
}


skinparam frame {
	BackgroundColor #6d6d6d
  	BorderColor #0060a8
	FontColor #0060a8
	BorderThickness 2
}


skinparam state {
		FontColor #C8Ac00
	BorderColor #333333
	BackgroundColor #333333-#333333
	StartColor #0060a8
	EndColor #0060a8
	AttributeFontColor #fefefe
	AttributeFontSize 11
}


skinparam queue {
		FontColor #C8Ac00
	BorderColor #333333
	BackgroundColor #333333-#333333
}


skinparam card {
	BackgroundColor #0060a8
	BorderColor #004d86
	FontColor $INFO_TEXT
}


skinparam file {
	BackgroundColor #6d6d6d-#484848
	BorderColor #0060a8
	FontColor #fefefe
}


skinparam stack {
		FontColor #C8Ac00
	BorderColor #333333
	BackgroundColor #333333-#333333
}

    
    title "com.telenav.kivakit.component"
    
    abstract BaseRepeater
    
    interface Component
    
    BaseRepeater <|- - BaseComponent
    Component <|- - BaseComponent
    class BaseComponent
    {
    }
    
    interface NamedObject
    interface RegistryTrait
    interface Repeater
    Repeater <|- - Component
    RegistryTrait <|- - Component
    NamedObject <|- - Component
    interface Component
    {
    }
    
    interface Component
    interface Mixin
    interface RepeaterMixin
    Component <|- - ComponentMixin
    Mixin <|- - ComponentMixin
    RepeaterMixin <|- - ComponentMixin
    interface ComponentMixin
    {
        - -
        +BaseComponent component()
    }
    
@enduml

PlantUML version 1.2021.01(Tue Feb 02 00:55:08 MST 2021)
(GPL source distribution)
Java Runtime: OpenJDK Runtime Environment
JVM: OpenJDK 64-Bit Server VM
Default Encoding: UTF-8
Language: en
Country: US
--></g></svg>