<?xml version="1.0" encoding="UTF-8" standalone="no"?><svg xmlns="http://www.w3.org/2000/svg" xmlns:xlink="http://www.w3.org/1999/xlink" contentScriptType="application/ecmascript" contentStyleType="text/css" height="619.7917px" preserveAspectRatio="none" style="width:1055px;height:619px;background:#333333;" version="1.1" viewBox="0 0 1055 619" width="1055.2083px" zoomAndPan="magnify"><defs/><g><rect fill="#48494B" height="41.2028" rx="8.3333" ry="8.3333" style="stroke:#545454;stroke-width:1.0416666666666667;" width="439.5833" x="300.7813" y="2.0833"/><text fill="#C0C0C0" font-family="Open Sans,Avenir,Nunito,Arial,Helvetica,SansSerif" font-size="20.8333" lengthAdjust="spacing" textLength="416.6667" x="312.2396" y="30.5583">com.telenav.kivakit.commandline.parsing</text><!--MD5=[05f231054ff7d80edd2cc8c2d33cfbb5]
class BaseValidator--><rect codeLine="7" fill="#282828" height="48.055" id="BaseValidator" rx="8.3333" ry="8.3333" style="stroke:#5E5E5E;stroke-width:1.0416666666666667;" width="126.0417" x="484.8958" y="53.7028"/><rect fill="#1B1B1A" height="31.3883" rx="8.3333" ry="8.3333" style="stroke:#1B1B1A;stroke-width:1.0416666666666667;" width="126.0417" x="484.8958" y="53.7028"/><rect fill="#1B1B1A" height="8.3333" style="stroke:#1B1B1A;stroke-width:1.0416666666666667;" width="126.0417" x="484.8958" y="76.7578"/><rect codeLine="7" fill="none" height="48.055" id="BaseValidator" rx="8.3333" ry="8.3333" style="stroke:#5E5E5E;stroke-width:1.0416666666666667;" width="126.0417" x="484.8958" y="53.7028"/><ellipse cx="499.4792" cy="69.397" fill="#C8AC00" rx="10.4167" ry="10.4167" style="stroke:#D8BC00;stroke-width:1.0416666666666667;"/><path d="M499.0723,66.099 L498.2239,69.8283 L499.9268,69.8283 Z M497.9736,64.4511 L500.177,64.4511 L502.6367,73.5636 L500.8362,73.5636 L500.2747,71.3114 L497.8638,71.3114 L497.3145,73.5636 L495.5139,73.5636 Z " fill="#000000"/><text fill="#D8BC00" font-family="Open Sans,Avenir,Nunito,Arial,Helvetica,SansSerif" font-size="12.5" font-style="italic" font-weight="bold" lengthAdjust="spacing" textLength="88.5417" x="516.1458" y="74.1211">BaseValidator</text><line style="stroke:#5E5E5E;stroke-width:1.0416666666666667;" x1="485.9375" x2="609.8958" y1="85.0911" y2="85.0911"/><line style="stroke:#5E5E5E;stroke-width:1.0416666666666667;" x1="485.9375" x2="609.8958" y1="93.4245" y2="93.4245"/><!--MD5=[ec778ccbb765df8024b5a39fd9402581]
class ArgumentParserList--><rect codeLine="10" fill="#282828" height="131.2012" id="ArgumentParserList" rx="8.3333" ry="8.3333" style="stroke:#5E5E5E;stroke-width:1.0416666666666667;" width="225" x="7.2917" y="331.307"/><rect fill="#1B1B1A" height="31.3883" rx="8.3333" ry="8.3333" style="stroke:#1B1B1A;stroke-width:1.0416666666666667;" width="225" x="7.2917" y="331.307"/><rect fill="#1B1B1A" height="8.3333" style="stroke:#1B1B1A;stroke-width:1.0416666666666667;" width="225" x="7.2917" y="354.362"/><rect codeLine="10" fill="none" height="131.2012" id="ArgumentParserList" rx="8.3333" ry="8.3333" style="stroke:#5E5E5E;stroke-width:1.0416666666666667;" width="225" x="7.2917" y="331.307"/><ellipse cx="43.4375" cy="347.0011" fill="#0066CF" rx="10.4167" ry="10.4167" style="stroke:#0086EF;stroke-width:1.0416666666666667;"/><path d="M45.3479,351.4262 Q44.9207,351.6459 44.4507,351.7558 Q43.9807,351.8656 43.4619,351.8656 Q41.6187,351.8656 40.6482,350.651 Q39.6777,349.4364 39.6777,347.1415 Q39.6777,344.8405 40.6482,343.6259 Q41.6187,342.4113 43.4619,342.4113 Q43.9807,342.4113 44.4568,342.5212 Q44.9329,342.631 45.3479,342.8507 L45.3479,344.8527 Q44.884,344.4255 44.4476,344.2271 Q44.0112,344.0287 43.5474,344.0287 Q42.5586,344.0287 42.0551,344.813 Q41.5515,345.5973 41.5515,347.1415 Q41.5515,348.6796 42.0551,349.4639 Q42.5586,350.2482 43.5474,350.2482 Q44.0112,350.2482 44.4476,350.0498 Q44.884,349.8515 45.3479,349.4242 Z " fill="#000000"/><rect fill="#F24D5C" height="6.25" style="stroke:#C82930;stroke-width:1.0416666666666667;" width="6.25" x="63.8542" y="343.3553"/><text fill="#D8BC00" font-family="Open Sans,Avenir,Nunito,Arial,Helvetica,SansSerif" font-size="12.5" font-weight="bold" lengthAdjust="spacing" textLength="128.125" x="76.3542" y="351.7253">ArgumentParserList</text><line style="stroke:#5E5E5E;stroke-width:1.5625;" x1="8.3333" x2="231.25" y1="362.6953" y2="362.6953"/><line style="stroke:#5E5E5E;stroke-width:1.0416666666666667;" x1="8.3333" x2="231.25" y1="371.0286" y2="371.0286"/><ellipse cx="18.75" cy="382.487" fill="#84BE84" rx="3.125" ry="3.125" style="stroke:#038048;stroke-width:1.0416666666666667;"/><text fill="#D8BC00" font-family="Open Sans,Avenir,Nunito,Arial,Helvetica,SansSerif" font-size="11.4583" lengthAdjust="spacing" textLength="68.75" x="30.2083" y="389.3982">String help()</text><ellipse cx="18.75" cy="426.1434" fill="#84BE84" rx="3.125" ry="3.125" style="stroke:#038048;stroke-width:1.0416666666666667;"/><text fill="#D8BC00" font-family="Open Sans,Avenir,Nunito,Arial,Helvetica,SansSerif" font-size="11.4583" lengthAdjust="spacing" textLength="192.7083" x="30.2083" y="433.0546">boolean add(ArgumentParser&lt;?&gt;)</text><ellipse cx="18.75" cy="445.8883" fill="#84BE84" rx="3.125" ry="3.125" style="stroke:#038048;stroke-width:1.0416666666666667;"/><text fill="#D8BC00" font-family="Open Sans,Avenir,Nunito,Arial,Helvetica,SansSerif" font-size="11.4583" lengthAdjust="spacing" textLength="100" x="30.2083" y="452.7995">boolean isEmpty()</text><line style="stroke:#5E5E5E;stroke-width:1.0416666666666667;" x1="8.3333" x2="85.4167" y1="408.9793" y2="408.9793"/><text fill="#D8BC00" font-family="Open Sans,Avenir,Nunito,Arial,Helvetica,SansSerif" font-size="11.4583" lengthAdjust="spacing" textLength="62.5" x="88.5417" y="412.7889">(collection)</text><line style="stroke:#5E5E5E;stroke-width:1.0416666666666667;" x1="154.1667" x2="231.25" y1="408.9793" y2="408.9793"/><!--MD5=[239870acd720d8168579fa28d1912432]
class ArgumentParser--><rect fill="#282828" height="48.055" id="ArgumentParser" rx="8.3333" ry="8.3333" style="stroke:#5E5E5E;stroke-width:1.0416666666666667;" width="141.6667" x="48.9583" y="565.1611"/><rect fill="#1B1B1A" height="31.3883" rx="8.3333" ry="8.3333" style="stroke:#1B1B1A;stroke-width:1.0416666666666667;" width="141.6667" x="48.9583" y="565.1611"/><rect fill="#1B1B1A" height="8.3333" style="stroke:#1B1B1A;stroke-width:1.0416666666666667;" width="141.6667" x="48.9583" y="588.2161"/><rect fill="none" height="48.055" id="ArgumentParser" rx="8.3333" ry="8.3333" style="stroke:#5E5E5E;stroke-width:1.0416666666666667;" width="141.6667" x="48.9583" y="565.1611"/><ellipse cx="63.5417" cy="580.8553" fill="#0066CF" rx="10.4167" ry="10.4167" style="stroke:#0086EF;stroke-width:1.0416666666666667;"/><path d="M65.4521,585.2804 Q65.0248,585.5001 64.5549,585.6099 Q64.0849,585.7198 63.5661,585.7198 Q61.7228,585.7198 60.7524,584.5052 Q59.7819,583.2906 59.7819,580.9957 Q59.7819,578.6947 60.7524,577.4801 Q61.7228,576.2655 63.5661,576.2655 Q64.0849,576.2655 64.561,576.3753 Q65.037,576.4852 65.4521,576.7049 L65.4521,578.7069 Q64.9882,578.2796 64.5518,578.0813 Q64.1154,577.8829 63.6515,577.8829 Q62.6628,577.8829 62.1592,578.6672 Q61.6557,579.4515 61.6557,580.9957 Q61.6557,582.5338 62.1592,583.3181 Q62.6628,584.1024 63.6515,584.1024 Q64.1154,584.1024 64.5518,583.904 Q64.9882,583.7056 65.4521,583.2784 Z " fill="#000000"/><text fill="#D8BC00" font-family="Open Sans,Avenir,Nunito,Arial,Helvetica,SansSerif" font-size="12.5" font-weight="bold" lengthAdjust="spacing" textLength="104.1667" x="80.2083" y="585.5794">ArgumentParser</text><line style="stroke:#5E5E5E;stroke-width:1.0416666666666667;" x1="50" x2="189.5833" y1="596.5495" y2="596.5495"/><line style="stroke:#5E5E5E;stroke-width:1.0416666666666667;" x1="50" x2="189.5833" y1="604.8828" y2="604.8828"/><!--MD5=[127e479918b805159f1fc675a742e042]
class ArgumentValueListValidator--><rect codeLine="22" fill="#282828" height="83.3781" id="ArgumentValueListValidator" rx="8.3333" ry="8.3333" style="stroke:#5E5E5E;stroke-width:1.0416666666666667;" width="420.8333" x="125" y="164.1195"/><rect fill="#1B1B1A" height="31.3883" rx="8.3333" ry="8.3333" style="stroke:#1B1B1A;stroke-width:1.0416666666666667;" width="420.8333" x="125" y="164.1195"/><rect fill="#1B1B1A" height="8.3333" style="stroke:#1B1B1A;stroke-width:1.0416666666666667;" width="420.8333" x="125" y="187.1745"/><rect codeLine="22" fill="none" height="83.3781" id="ArgumentValueListValidator" rx="8.3333" ry="8.3333" style="stroke:#5E5E5E;stroke-width:1.0416666666666667;" width="420.8333" x="125" y="164.1195"/><ellipse cx="231.25" cy="179.8136" fill="#0066CF" rx="10.4167" ry="10.4167" style="stroke:#0086EF;stroke-width:1.0416666666666667;"/><path d="M233.1604,184.2387 Q232.7332,184.4584 232.2632,184.5683 Q231.7932,184.6781 231.2744,184.6781 Q229.4312,184.6781 228.4607,183.4635 Q227.4902,182.2489 227.4902,179.954 Q227.4902,177.653 228.4607,176.4384 Q229.4312,175.2238 231.2744,175.2238 Q231.7932,175.2238 232.2693,175.3337 Q232.7454,175.4435 233.1604,175.6632 L233.1604,177.6652 Q232.6965,177.238 232.2601,177.0396 Q231.8237,176.8412 231.3599,176.8412 Q230.3711,176.8412 229.8676,177.6255 Q229.364,178.4098 229.364,179.954 Q229.364,181.4921 229.8676,182.2764 Q230.3711,183.0607 231.3599,183.0607 Q231.8237,183.0607 232.2601,182.8623 Q232.6965,182.664 233.1604,182.2367 Z " fill="#000000"/><rect fill="#F24D5C" height="6.25" style="stroke:#C82930;stroke-width:1.0416666666666667;" width="6.25" x="253.125" y="176.1678"/><text fill="#D8BC00" font-family="Open Sans,Avenir,Nunito,Arial,Helvetica,SansSerif" font-size="12.5" font-weight="bold" lengthAdjust="spacing" textLength="182.2917" x="265.625" y="184.5378">ArgumentValueListValidator</text><line style="stroke:#5E5E5E;stroke-width:1.5625;" x1="126.0417" x2="544.7917" y1="195.5078" y2="195.5078"/><ellipse cx="136.4583" cy="230.8777" fill="#84BE84" rx="3.125" ry="3.125" style="stroke:#038048;stroke-width:1.0416666666666667;"/><text fill="#D8BC00" font-family="Open Sans,Avenir,Nunito,Arial,Helvetica,SansSerif" font-size="11.4583" lengthAdjust="spacing" textLength="388.5417" x="147.9167" y="237.7889">ArgumentValueListValidator(ArgumentParserList, ArgumentValueList)</text><line style="stroke:#5E5E5E;stroke-width:1.0416666666666667;" x1="126.0417" x2="291.6667" y1="213.7136" y2="213.7136"/><text fill="#D8BC00" font-family="Open Sans,Avenir,Nunito,Arial,Helvetica,SansSerif" font-size="11.4583" lengthAdjust="spacing" textLength="81.25" x="294.7917" y="217.5232">(constructors)</text><line style="stroke:#5E5E5E;stroke-width:1.0416666666666667;" x1="379.1667" x2="544.7917" y1="213.7136" y2="213.7136"/><!--MD5=[a4689747da3dafe8cfcaea78bbcc3bfe]
class ArgumentValueList--><rect fill="#282828" height="48.055" id="ArgumentValueList" rx="8.3333" ry="8.3333" style="stroke:#5E5E5E;stroke-width:1.0416666666666667;" width="161.4583" x="294.2708" y="371.932"/><rect fill="#1B1B1A" height="31.3883" rx="8.3333" ry="8.3333" style="stroke:#1B1B1A;stroke-width:1.0416666666666667;" width="161.4583" x="294.2708" y="371.932"/><rect fill="#1B1B1A" height="8.3333" style="stroke:#1B1B1A;stroke-width:1.0416666666666667;" width="161.4583" x="294.2708" y="394.987"/><rect fill="none" height="48.055" id="ArgumentValueList" rx="8.3333" ry="8.3333" style="stroke:#5E5E5E;stroke-width:1.0416666666666667;" width="161.4583" x="294.2708" y="371.932"/><ellipse cx="308.8542" cy="387.6261" fill="#0066CF" rx="10.4167" ry="10.4167" style="stroke:#0086EF;stroke-width:1.0416666666666667;"/><path d="M310.7646,392.0512 Q310.3373,392.2709 309.8674,392.3808 Q309.3974,392.4906 308.8786,392.4906 Q307.0353,392.4906 306.0649,391.276 Q305.0944,390.0614 305.0944,387.7665 Q305.0944,385.4655 306.0649,384.2509 Q307.0353,383.0363 308.8786,383.0363 Q309.3974,383.0363 309.8735,383.1462 Q310.3495,383.256 310.7646,383.4757 L310.7646,385.4777 Q310.3007,385.0505 309.8643,384.8521 Q309.4279,384.6537 308.964,384.6537 Q307.9753,384.6537 307.4717,385.438 Q306.9682,386.2223 306.9682,387.7665 Q306.9682,389.3046 307.4717,390.0889 Q307.9753,390.8732 308.964,390.8732 Q309.4279,390.8732 309.8643,390.6748 Q310.3007,390.4765 310.7646,390.0492 Z " fill="#000000"/><text fill="#D8BC00" font-family="Open Sans,Avenir,Nunito,Arial,Helvetica,SansSerif" font-size="12.5" font-weight="bold" lengthAdjust="spacing" textLength="123.9583" x="325.5208" y="392.3503">ArgumentValueList</text><line style="stroke:#5E5E5E;stroke-width:1.0416666666666667;" x1="295.3125" x2="454.6875" y1="403.3203" y2="403.3203"/><line style="stroke:#5E5E5E;stroke-width:1.0416666666666667;" x1="295.3125" x2="454.6875" y1="411.6536" y2="411.6536"/><!--MD5=[3657e01ac3a18ee041b9119eaf665aca]
class SwitchParserList--><rect codeLine="29" fill="#282828" height="131.2012" id="SwitchParserList" rx="8.3333" ry="8.3333" style="stroke:#5E5E5E;stroke-width:1.0416666666666667;" width="253.125" x="595.8333" y="331.307"/><rect fill="#1B1B1A" height="31.3883" rx="8.3333" ry="8.3333" style="stroke:#1B1B1A;stroke-width:1.0416666666666667;" width="253.125" x="595.8333" y="331.307"/><rect fill="#1B1B1A" height="8.3333" style="stroke:#1B1B1A;stroke-width:1.0416666666666667;" width="253.125" x="595.8333" y="354.362"/><rect codeLine="29" fill="none" height="131.2012" id="SwitchParserList" rx="8.3333" ry="8.3333" style="stroke:#5E5E5E;stroke-width:1.0416666666666667;" width="253.125" x="595.8333" y="331.307"/><ellipse cx="656.7708" cy="347.0011" fill="#0066CF" rx="10.4167" ry="10.4167" style="stroke:#0086EF;stroke-width:1.0416666666666667;"/><path d="M658.6812,351.4262 Q658.254,351.6459 657.784,351.7558 Q657.314,351.8656 656.7952,351.8656 Q654.952,351.8656 653.9815,350.651 Q653.0111,349.4364 653.0111,347.1415 Q653.0111,344.8405 653.9815,343.6259 Q654.952,342.4113 656.7952,342.4113 Q657.314,342.4113 657.7901,342.5212 Q658.2662,342.631 658.6812,342.8507 L658.6812,344.8527 Q658.2174,344.4255 657.781,344.2271 Q657.3446,344.0287 656.8807,344.0287 Q655.8919,344.0287 655.3884,344.813 Q654.8848,345.5973 654.8848,347.1415 Q654.8848,348.6796 655.3884,349.4639 Q655.8919,350.2482 656.8807,350.2482 Q657.3446,350.2482 657.781,350.0498 Q658.2174,349.8515 658.6812,349.4242 Z " fill="#000000"/><rect fill="#F24D5C" height="6.25" style="stroke:#C82930;stroke-width:1.0416666666666667;" width="6.25" x="678.6458" y="343.3553"/><text fill="#D8BC00" font-family="Open Sans,Avenir,Nunito,Arial,Helvetica,SansSerif" font-size="12.5" font-weight="bold" lengthAdjust="spacing" textLength="105.2083" x="691.1458" y="351.7253">SwitchParserList</text><line style="stroke:#5E5E5E;stroke-width:1.5625;" x1="596.875" x2="847.9167" y1="362.6953" y2="362.6953"/><line style="stroke:#5E5E5E;stroke-width:1.0416666666666667;" x1="596.875" x2="847.9167" y1="371.0286" y2="371.0286"/><ellipse cx="607.2917" cy="382.487" fill="#84BE84" rx="3.125" ry="3.125" style="stroke:#038048;stroke-width:1.0416666666666667;"/><text fill="#D8BC00" font-family="Open Sans,Avenir,Nunito,Arial,Helvetica,SansSerif" font-size="11.4583" lengthAdjust="spacing" textLength="68.75" x="618.75" y="389.3982">String help()</text><ellipse cx="607.2917" cy="426.1434" fill="#84BE84" rx="3.125" ry="3.125" style="stroke:#038048;stroke-width:1.0416666666666667;"/><text fill="#D8BC00" font-family="Open Sans,Avenir,Nunito,Arial,Helvetica,SansSerif" font-size="11.4583" lengthAdjust="spacing" textLength="151.0417" x="618.75" y="433.0546">void add(SwitchParser&lt;?&gt;)</text><ellipse cx="607.2917" cy="445.8883" fill="#84BE84" rx="3.125" ry="3.125" style="stroke:#038048;stroke-width:1.0416666666666667;"/><text fill="#D8BC00" font-family="Open Sans,Avenir,Nunito,Arial,Helvetica,SansSerif" font-size="11.4583" lengthAdjust="spacing" textLength="220.8333" x="618.75" y="452.7995">SwitchParser&lt;?&gt; forName(String name)</text><line style="stroke:#5E5E5E;stroke-width:1.0416666666666667;" x1="596.875" x2="653.125" y1="408.9793" y2="408.9793"/><text fill="#D8BC00" font-family="Open Sans,Avenir,Nunito,Arial,Helvetica,SansSerif" font-size="11.4583" lengthAdjust="spacing" textLength="132.2917" x="656.25" y="412.7889">(command line parsing)</text><line style="stroke:#5E5E5E;stroke-width:1.0416666666666667;" x1="791.6667" x2="847.9167" y1="408.9793" y2="408.9793"/><!--MD5=[49c21b141dc5065c45dd2910f7f58d16]
class SwitchParser--><rect fill="#282828" height="48.055" id="SwitchParser" rx="8.3333" ry="8.3333" style="stroke:#5E5E5E;stroke-width:1.0416666666666667;" width="118.75" x="663.5417" y="565.1611"/><rect fill="#1B1B1A" height="31.3883" rx="8.3333" ry="8.3333" style="stroke:#1B1B1A;stroke-width:1.0416666666666667;" width="118.75" x="663.5417" y="565.1611"/><rect fill="#1B1B1A" height="8.3333" style="stroke:#1B1B1A;stroke-width:1.0416666666666667;" width="118.75" x="663.5417" y="588.2161"/><rect fill="none" height="48.055" id="SwitchParser" rx="8.3333" ry="8.3333" style="stroke:#5E5E5E;stroke-width:1.0416666666666667;" width="118.75" x="663.5417" y="565.1611"/><ellipse cx="678.125" cy="580.8553" fill="#0066CF" rx="10.4167" ry="10.4167" style="stroke:#0086EF;stroke-width:1.0416666666666667;"/><path d="M680.0354,585.2804 Q679.6082,585.5001 679.1382,585.6099 Q678.6682,585.7198 678.1494,585.7198 Q676.3062,585.7198 675.3357,584.5052 Q674.3652,583.2906 674.3652,580.9957 Q674.3652,578.6947 675.3357,577.4801 Q676.3062,576.2655 678.1494,576.2655 Q678.6682,576.2655 679.1443,576.3753 Q679.6204,576.4852 680.0354,576.7049 L680.0354,578.7069 Q679.5715,578.2796 679.1351,578.0813 Q678.6987,577.8829 678.2349,577.8829 Q677.2461,577.8829 676.7426,578.6672 Q676.239,579.4515 676.239,580.9957 Q676.239,582.5338 676.7426,583.3181 Q677.2461,584.1024 678.2349,584.1024 Q678.6987,584.1024 679.1351,583.904 Q679.5715,583.7056 680.0354,583.2784 Z " fill="#000000"/><text fill="#D8BC00" font-family="Open Sans,Avenir,Nunito,Arial,Helvetica,SansSerif" font-size="12.5" font-weight="bold" lengthAdjust="spacing" textLength="81.25" x="694.7917" y="585.5794">SwitchParser</text><line style="stroke:#5E5E5E;stroke-width:1.0416666666666667;" x1="664.5833" x2="781.25" y1="596.5495" y2="596.5495"/><line style="stroke:#5E5E5E;stroke-width:1.0416666666666667;" x1="664.5833" x2="781.25" y1="604.8828" y2="604.8828"/><!--MD5=[74a260bc61dd93c8e5cdcba09d6dc471]
class SwitchValueListValidator--><rect codeLine="41" fill="#282828" height="83.3781" id="SwitchValueListValidator" rx="8.3333" ry="8.3333" style="stroke:#5E5E5E;stroke-width:1.0416666666666667;" width="358.3333" x="582.2917" y="164.1195"/><rect fill="#1B1B1A" height="31.3883" rx="8.3333" ry="8.3333" style="stroke:#1B1B1A;stroke-width:1.0416666666666667;" width="358.3333" x="582.2917" y="164.1195"/><rect fill="#1B1B1A" height="8.3333" style="stroke:#1B1B1A;stroke-width:1.0416666666666667;" width="358.3333" x="582.2917" y="187.1745"/><rect codeLine="41" fill="none" height="83.3781" id="SwitchValueListValidator" rx="8.3333" ry="8.3333" style="stroke:#5E5E5E;stroke-width:1.0416666666666667;" width="358.3333" x="582.2917" y="164.1195"/><ellipse cx="668.75" cy="179.8136" fill="#0066CF" rx="10.4167" ry="10.4167" style="stroke:#0086EF;stroke-width:1.0416666666666667;"/><path d="M670.6604,184.2387 Q670.2332,184.4584 669.7632,184.5683 Q669.2932,184.6781 668.7744,184.6781 Q666.9312,184.6781 665.9607,183.4635 Q664.9902,182.2489 664.9902,179.954 Q664.9902,177.653 665.9607,176.4384 Q666.9312,175.2238 668.7744,175.2238 Q669.2932,175.2238 669.7693,175.3337 Q670.2454,175.4435 670.6604,175.6632 L670.6604,177.6652 Q670.1965,177.238 669.7601,177.0396 Q669.3237,176.8412 668.8599,176.8412 Q667.8711,176.8412 667.3676,177.6255 Q666.864,178.4098 666.864,179.954 Q666.864,181.4921 667.3676,182.2764 Q667.8711,183.0607 668.8599,183.0607 Q669.3237,183.0607 669.7601,182.8623 Q670.1965,182.664 670.6604,182.2367 Z " fill="#000000"/><rect fill="#F24D5C" height="6.25" style="stroke:#C82930;stroke-width:1.0416666666666667;" width="6.25" x="690.625" y="176.1678"/><text fill="#D8BC00" font-family="Open Sans,Avenir,Nunito,Arial,Helvetica,SansSerif" font-size="12.5" font-weight="bold" lengthAdjust="spacing" textLength="159.375" x="703.125" y="184.5378">SwitchValueListValidator</text><line style="stroke:#5E5E5E;stroke-width:1.5625;" x1="583.3333" x2="939.5833" y1="195.5078" y2="195.5078"/><ellipse cx="593.75" cy="230.8777" fill="#84BE84" rx="3.125" ry="3.125" style="stroke:#038048;stroke-width:1.0416666666666667;"/><text fill="#D8BC00" font-family="Open Sans,Avenir,Nunito,Arial,Helvetica,SansSerif" font-size="11.4583" lengthAdjust="spacing" textLength="326.0417" x="605.2083" y="237.7889">SwitchValueListValidator(SwitchParserList, SwitchValueList)</text><line style="stroke:#5E5E5E;stroke-width:1.0416666666666667;" x1="583.3333" x2="717.7083" y1="213.7136" y2="213.7136"/><text fill="#D8BC00" font-family="Open Sans,Avenir,Nunito,Arial,Helvetica,SansSerif" font-size="11.4583" lengthAdjust="spacing" textLength="81.25" x="720.8333" y="217.5232">(constructors)</text><line style="stroke:#5E5E5E;stroke-width:1.0416666666666667;" x1="805.2083" x2="939.5833" y1="213.7136" y2="213.7136"/><!--MD5=[b874894da0d346c2f977b91d560aeaf3]
class SwitchValueList--><rect fill="#282828" height="48.055" id="SwitchValueList" rx="8.3333" ry="8.3333" style="stroke:#5E5E5E;stroke-width:1.0416666666666667;" width="138.5417" x="909.8958" y="371.932"/><rect fill="#1B1B1A" height="31.3883" rx="8.3333" ry="8.3333" style="stroke:#1B1B1A;stroke-width:1.0416666666666667;" width="138.5417" x="909.8958" y="371.932"/><rect fill="#1B1B1A" height="8.3333" style="stroke:#1B1B1A;stroke-width:1.0416666666666667;" width="138.5417" x="909.8958" y="394.987"/><rect fill="none" height="48.055" id="SwitchValueList" rx="8.3333" ry="8.3333" style="stroke:#5E5E5E;stroke-width:1.0416666666666667;" width="138.5417" x="909.8958" y="371.932"/><ellipse cx="924.4792" cy="387.6261" fill="#0066CF" rx="10.4167" ry="10.4167" style="stroke:#0086EF;stroke-width:1.0416666666666667;"/><path d="M926.3896,392.0512 Q925.9623,392.2709 925.4924,392.3808 Q925.0224,392.4906 924.5036,392.4906 Q922.6603,392.4906 921.6899,391.276 Q920.7194,390.0614 920.7194,387.7665 Q920.7194,385.4655 921.6899,384.2509 Q922.6603,383.0363 924.5036,383.0363 Q925.0224,383.0363 925.4985,383.1462 Q925.9745,383.256 926.3896,383.4757 L926.3896,385.4777 Q925.9257,385.0505 925.4893,384.8521 Q925.0529,384.6537 924.589,384.6537 Q923.6003,384.6537 923.0967,385.438 Q922.5932,386.2223 922.5932,387.7665 Q922.5932,389.3046 923.0967,390.0889 Q923.6003,390.8732 924.589,390.8732 Q925.0529,390.8732 925.4893,390.6748 Q925.9257,390.4765 926.3896,390.0492 Z " fill="#000000"/><text fill="#D8BC00" font-family="Open Sans,Avenir,Nunito,Arial,Helvetica,SansSerif" font-size="12.5" font-weight="bold" lengthAdjust="spacing" textLength="101.0417" x="941.1458" y="392.3503">SwitchValueList</text><line style="stroke:#5E5E5E;stroke-width:1.0416666666666667;" x1="910.9375" x2="1047.3958" y1="403.3203" y2="403.3203"/><line style="stroke:#5E5E5E;stroke-width:1.0416666666666667;" x1="910.9375" x2="1047.3958" y1="411.6536" y2="411.6536"/><!--MD5=[a5d5779c7841f6670e1afafe27df2e00]
reverse link ArgumentParserList to ArgumentParser--><path codeLine="9" d="M119.7917,475.1611 C119.7917,507.4632 119.7917,542.6195 119.7917,564.984 " fill="none" id="ArgumentParserList-backto-ArgumentParser" style="stroke:#545454;stroke-width:1.5625;"/><polygon fill="#333333" points="119.7917,461.5361,115.625,467.7861,119.7917,474.0361,123.9583,467.7861,119.7917,461.5361" style="stroke:#545454;stroke-width:1.5625;"/><text fill="#A0A0A0" font-family="Open Sans,Avenir,Nunito,Arial,Helvetica,SansSerif" font-size="12.5" font-weight="bold" lengthAdjust="spacing" textLength="8.3333" x="107.4447" y="485.9007">1</text><text fill="#A0A0A0" font-family="Open Sans,Avenir,Nunito,Arial,Helvetica,SansSerif" font-size="12.5" font-weight="bold" lengthAdjust="spacing" textLength="6.25" x="108.8932" y="550.9386">*</text><!--MD5=[63364d61fd49064edc6497a807315209]
reverse link BaseValidator to ArgumentValueListValidator--><path codeLine="19" d="M491.0104,112.4528 C464.3125,128.2861 432.2917,147.2861 404.2396,163.9215 " fill="none" id="BaseValidator-backto-ArgumentValueListValidator" style="stroke:#545454;stroke-width:1.5625;"/><polygon fill="none" points="487.3021,106.182,508.9375,101.8174,494.7396,118.7236,487.3021,106.182" style="stroke:#545454;stroke-width:1.5625;"/><!--MD5=[7ed48416f734b8a9e696a5d7aa033c0d]
reverse link ArgumentValueListValidator to ArgumentValueList--><path codeLine="20" d="M346.8542,261.1507 C354.5833,297.8695 364.3958,344.4736 370.1563,371.8382 " fill="none" id="ArgumentValueListValidator-backto-ArgumentValueList" style="stroke:#545454;stroke-width:1.5625;"/><polygon fill="#333333" points="344.0104,247.6299,341.2164,254.6025,346.5779,259.8634,349.372,252.8908,344.0104,247.6299" style="stroke:#545454;stroke-width:1.5625;"/><!--MD5=[6fdaeca1c3817c878db29472c3c1bcea]
reverse link ArgumentValueListValidator to ArgumentParserList--><path codeLine="21" d="M278.4896,256.7445 C252.5521,279.484 221.5104,306.7028 193.7917,331.0049 " fill="none" id="ArgumentValueListValidator-backto-ArgumentParserList" style="stroke:#545454;stroke-width:1.5625;"/><polygon fill="#333333" points="288.8958,247.6195,281.4497,248.6086,279.4988,255.8624,286.945,254.8733,288.8958,247.6195" style="stroke:#545454;stroke-width:1.5625;"/><!--MD5=[1a29bcafcc50fe9ee2a17f2093ad6460]
reverse link SwitchParserList to SwitchParser--><path codeLine="28" d="M722.9167,475.1611 C722.9167,507.4632 722.9167,542.6195 722.9167,564.984 " fill="none" id="SwitchParserList-backto-SwitchParser" style="stroke:#545454;stroke-width:1.5625;"/><polygon fill="#333333" points="722.9167,461.5361,718.75,467.7861,722.9167,474.0361,727.0833,467.7861,722.9167,461.5361" style="stroke:#545454;stroke-width:1.5625;"/><text fill="#A0A0A0" font-family="Open Sans,Avenir,Nunito,Arial,Helvetica,SansSerif" font-size="12.5" font-weight="bold" lengthAdjust="spacing" textLength="8.3333" x="710.6331" y="485.9007">1</text><text fill="#A0A0A0" font-family="Open Sans,Avenir,Nunito,Arial,Helvetica,SansSerif" font-size="12.5" font-weight="bold" lengthAdjust="spacing" textLength="6.25" x="712.0182" y="550.9386">*</text><!--MD5=[9601fe12efb61d1a5a80e9850d453f33]
reverse link BaseValidator to SwitchValueListValidator--><path codeLine="38" d="M605.1042,112.4528 C631.9271,128.2861 664.1146,147.2861 692.2917,163.9215 " fill="none" id="BaseValidator-backto-SwitchValueListValidator" style="stroke:#545454;stroke-width:1.5625;"/><polygon fill="none" points="601.3229,118.6924,587.0833,101.8174,608.7292,106.1299,601.3229,118.6924" style="stroke:#545454;stroke-width:1.5625;"/><!--MD5=[5796628abc01d9a1aca97188086ddfef]
reverse link SwitchValueListValidator to SwitchValueList--><path codeLine="39" d="M826.2083,256.0361 C847.4375,272.7132 870.8958,291.734 891.6667,309.9528 C914.5833,330.057 939.3958,354.4007 956.7292,371.859 " fill="none" id="SwitchValueListValidator-backto-SwitchValueList" style="stroke:#545454;stroke-width:1.5625;"/><polygon fill="#333333" points="815.3438,247.5465,817.7095,254.6758,825.2003,255.2341,822.8345,248.1048,815.3438,247.5465" style="stroke:#545454;stroke-width:1.5625;"/><!--MD5=[d72e121201bc0c289398fc19e1d819b1]
reverse link SwitchValueListValidator to SwitchParserList--><path codeLine="40" d="M750.3542,261.2757 C745.9063,283.0882 740.75,308.4111 736.1146,331.1611 " fill="none" id="SwitchValueListValidator-backto-SwitchParserList" style="stroke:#545454;stroke-width:1.5625;"/><polygon fill="#333333" points="753.0938,247.8486,747.7606,253.1383,750.5921,260.0957,755.9253,254.8061,753.0938,247.8486" style="stroke:#545454;stroke-width:1.5625;"/><!--MD5=[313eb8f95ab4b40131c0958bcf497db6]
@startuml

    !include lexakai.theme
    
    title "com.telenav.kivakit.commandline.parsing"
    
    abstract BaseValidator
    
    ArgumentParserList "1" o- - "*" ArgumentParser
    -class ArgumentParserList
    {
        - -
        +String help()
        - -(collection)- -
        +boolean add(ArgumentParser<?>)
        +boolean isEmpty()
    }
    
    BaseValidator <|- - ArgumentValueListValidator
    ArgumentValueListValidator o- - ArgumentValueList
    ArgumentValueListValidator o- - ArgumentParserList
    -class ArgumentValueListValidator
    {
        - -(constructors)- -
        +ArgumentValueListValidator(ArgumentParserList, ArgumentValueList)
    }
    
    SwitchParserList "1" o- - "*" SwitchParser
    -class SwitchParserList
    {
        - -
        +String help()
        - -(command line parsing)- -
        +void add(SwitchParser<?>)
        +SwitchParser<?> forName(String name)
    }
    
    BaseValidator <|- - SwitchValueListValidator
    SwitchValueListValidator o- - SwitchValueList
    SwitchValueListValidator o- - SwitchParserList
    -class SwitchValueListValidator
    {
        - -(constructors)- -
        +SwitchValueListValidator(SwitchParserList, SwitchValueList)
    }
    
@enduml

@startuml









skinparam backgroundColor #333333






skinparam  {
    defaultFontName   "Open Sans,Avenir,Nunito,Arial,Helvetica,SansSerif"
    defaultFontSize   12
    defaultTextAlignment left
    shadowing false
    RoundCorner 10
    TitleFontSize 18
}

skinparam defaultFontName       "Open Sans,Avenir,Nunito,Arial,Helvetica,SansSerif"
skinparam defaultFontSize       12
skinparam dpi                   100
skinparam shadowing             false
skinparam roundcorner           16
skinparam ParticipantPadding    40
skinparam BoxPadding            40
skinparam Padding               3
skinparam ArrowColor            #545454
skinparam stereotype {
    CBackgroundColor #0066cf
    CBorderColor #0086ef
    ABackgroundColor #C8Ac00
    ABorderColor #D8Bc00
    IBackgroundColor #008400
    IBorderColor #239c23
    EBackgroundColor #cf6300
    EBorderColor #ef8300
    NBackgroundColor #3380b9
    NBorderColor #004d86
}
skinparam title {
	FontColor	                 #c0c0c0
 	BorderColor                  #545454
	FontSize	    	         20
	BorderRoundCorner            16
	BorderThickness 	         1
	BackgroundColor              #48494b
}


skinparam legend {
	BackgroundColor #303030
	BorderColor #404040
	FontColor #a0a0a0
}

	skinparam swimlane {
	BorderColor #5e5e5e
	BorderThickness 2
	TitleBackgroundColor  #6d6d6d-#484848
	TitleFontColor #303030
}

skinparam activity {
		FontColor #C8Ac00
	BorderColor #333333
	BackgroundColor #333333-#333333
	BarColor #00FF00
	StartColor #0060a8
	EndColor #0060a8
	DiamondBackgroundColor #6d6d6d-#3a3a3a
  	DiamondBorderColor #3a3a3a
  	DiamondFontColor #fefefe
}


skinparam participant {
		FontColor #C8Ac00
	BorderColor #333333
	BackgroundColor #333333-#333333
	ParticipantBorderThickness 2
}


skinparam actor {
		FontColor #C8Ac00
	BorderColor #333333
	BackgroundColor #333333-#333333
}


skinparam arrow {
	Thickness 1.5
	Color #545454
	FontColor #a0a0a0
    FontStyle bold
    MessageAlignment center
}



skinparam sequence {
	BorderColor #303030
	TitleFontColor #303030
	BackgroundColor #333333
	StartColor #303030
	EndColor #303030
	BoxBackgroundColor #333333
	BoxBorderColor #484848
	BoxFontColor #484848
	LifeLineBorderColor #484848
	LifeLineBorderThickness 2
	LifeLineBackgroundColor #3a3a3a
	GroupBorderColor #484848
	GroupFontColor #484848
	GroupHeaderFontColor #0060a8
	GroupBackgroundColor #484848
	GroupHeaderBackgroundColor #333333
	DividerBackgroundColor #484848
    DividerBorderColor #484848
    DividerBorderThickness 2
    DividerFontColor #D8Bc00
	ReferenceBackgroundColor #333333
	ReferenceBorderColor #484848
	ReferenceFontColor #fefefe
	ReferenceHeaderBackgroundColor #484848
}


skinparam partition {
	BorderColor #303030
	FontColor #333333
	BackgroundColor #333333
}


skinparam collections {
		FontColor #C8Ac00
	BorderColor #333333
	BackgroundColor #333333-#333333
}


skinparam control {
		FontColor #C8Ac00
	BorderColor #333333
	BackgroundColor #333333-#333333
}


skinparam entity {
		FontColor #C8Ac00
	BorderColor #333333
	BackgroundColor #333333-#333333
}


skinparam boundary {
		FontColor #C8Ac00
	BorderColor #333333
	BackgroundColor #333333-#333333
}


skinparam agent {
	BackgroundColor #ff8000
	BorderColor #ff9933
	FontColor #484848
}


skinparam note {
	BorderThickness 1
	BackgroundColor #1b1b1a
	BorderColor #5e5e5e
	FontSize 11
	FontColor #a0a0a0
}


skinparam artifact {
	BorderThickness 10
	BorderColor #5e5e5e
	BackgroundColor #1b1b1a
	FontColor #D8Bc00
}


skinparam component {
		FontColor #C8Ac00
	BorderColor #333333
	BackgroundColor #333333-#333333
}


skinparam interface {
	BackgroundColor  #008400
	BorderColor  #007F00
	FontColor #484848
}


skinparam storage {
	BackgroundColor #ff8000
  	BorderColor #cc6600
	FontColor #222222
}


skinparam node {
	BackgroundColor #333333
	BorderColor #333333
	FontColor #C8Ac00
}


skinparam cloud {
	BackgroundColor #484848-black
	BorderColor #484848
	FontColor #D8Bc00
}


skinparam database {
		FontColor #C8Ac00
	BorderColor #333333
	BackgroundColor #333333-#333333
	BackgroundColor  #333333
}


skinparam class {
		FontColor #C8Ac00
	BorderColor #333333
	BackgroundColor #333333-#333333
	HeaderBackgroundColor #1b1b1a
    BackgroundColor #282828
    BorderColor #5e5e5e
 	StereotypeFontColor #a0a0a0
    StereotypeFontStyle bold
	BorderThickness 1
	AttributeFontColor #D8Bc00
	AttributeFontSize 11
    FontColor #D8Bc00
    FontStyle bold
}


skinparam object {
		FontColor #C8Ac00
	BorderColor #333333
	BackgroundColor #333333-#333333
	StereotypeFontColor #484848
	BorderThickness 1
	AttributeFontColor #fefefe
	AttributeFontSize 11
}


skinparam usecase {
		FontColor #C8Ac00
	BorderColor #333333
	BackgroundColor #333333-#333333
	BorderThickness 2
	StereotypeFontColor #303030
}


skinparam rectangle {
		FontColor #C8Ac00
	BorderColor #333333
	BackgroundColor #333333-#333333
	BackgroundColor #333333
	BorderThickness 2
	StereotypeFontColor #303030
}


skinparam package {
		FontColor #C8Ac00
	BorderColor #333333
	BackgroundColor #333333-#333333
	BackgroundColor #333333
	BorderThickness 2
}


skinparam folder {
	BackgroundColor #6d6d6d
  	BorderColor #ff8000
	FontColor #ff8000
	BorderThickness 2
}


skinparam frame {
	BackgroundColor #6d6d6d
  	BorderColor #0060a8
	FontColor #0060a8
	BorderThickness 2
}


skinparam state {
		FontColor #C8Ac00
	BorderColor #333333
	BackgroundColor #333333-#333333
	StartColor #0060a8
	EndColor #0060a8
	AttributeFontColor #fefefe
	AttributeFontSize 11
}


skinparam queue {
		FontColor #C8Ac00
	BorderColor #333333
	BackgroundColor #333333-#333333
}


skinparam card {
	BackgroundColor #0060a8
	BorderColor #004d86
	FontColor $INFO_TEXT
}


skinparam file {
	BackgroundColor #6d6d6d-#484848
	BorderColor #0060a8
	FontColor #fefefe
}


skinparam stack {
		FontColor #C8Ac00
	BorderColor #333333
	BackgroundColor #333333-#333333
}

    
    title "com.telenav.kivakit.commandline.parsing"
    
    abstract BaseValidator
    
    ArgumentParserList "1" o- - "*" ArgumentParser
    -class ArgumentParserList
    {
        - -
        +String help()
        - -(collection)- -
        +boolean add(ArgumentParser<?>)
        +boolean isEmpty()
    }
    
    BaseValidator <|- - ArgumentValueListValidator
    ArgumentValueListValidator o- - ArgumentValueList
    ArgumentValueListValidator o- - ArgumentParserList
    -class ArgumentValueListValidator
    {
        - -(constructors)- -
        +ArgumentValueListValidator(ArgumentParserList, ArgumentValueList)
    }
    
    SwitchParserList "1" o- - "*" SwitchParser
    -class SwitchParserList
    {
        - -
        +String help()
        - -(command line parsing)- -
        +void add(SwitchParser<?>)
        +SwitchParser<?> forName(String name)
    }
    
    BaseValidator <|- - SwitchValueListValidator
    SwitchValueListValidator o- - SwitchValueList
    SwitchValueListValidator o- - SwitchParserList
    -class SwitchValueListValidator
    {
        - -(constructors)- -
        +SwitchValueListValidator(SwitchParserList, SwitchValueList)
    }
    
@enduml

PlantUML version 1.2021.01(Tue Feb 02 00:55:08 MST 2021)
(GPL source distribution)
Java Runtime: OpenJDK Runtime Environment
JVM: OpenJDK 64-Bit Server VM
Default Encoding: UTF-8
Language: en
Country: US
--></g></svg>