<?xml version="1.0" encoding="UTF-8" standalone="no"?><svg xmlns="http://www.w3.org/2000/svg" xmlns:xlink="http://www.w3.org/1999/xlink" contentScriptType="application/ecmascript" contentStyleType="text/css" height="1098.9583px" preserveAspectRatio="none" style="width:581px;height:1098px;background:#333333;" version="1.1" viewBox="0 0 581 1098" width="581.25px" zoomAndPan="magnify"><defs/><g><rect fill="#48494B" height="41.2028" rx="8.3333" ry="8.3333" style="stroke:#545454;stroke-width:1.0416666666666667;" width="165.625" x="200.5208" y="2.0833"/><text fill="#C0C0C0" font-family="Open Sans,Avenir,Nunito,Arial,Helvetica,SansSerif" font-size="20.8333" lengthAdjust="spacing" textLength="142.7083" x="211.9792" y="30.5583">Switch Parsing</text><!--MD5=[7c5c88a606935469d5f89b0b5794816c]
class Named--><rect codeLine="7" fill="#282828" height="48.055" id="Named" rx="8.3333" ry="8.3333" style="stroke:#5E5E5E;stroke-width:1.0416666666666667;" width="82.2917" x="51.5625" y="102.6611"/><rect fill="#1B1B1A" height="31.3883" rx="8.3333" ry="8.3333" style="stroke:#1B1B1A;stroke-width:1.0416666666666667;" width="82.2917" x="51.5625" y="102.6611"/><rect fill="#1B1B1A" height="8.3333" style="stroke:#1B1B1A;stroke-width:1.0416666666666667;" width="82.2917" x="51.5625" y="125.7161"/><rect codeLine="7" fill="none" height="48.055" id="Named" rx="8.3333" ry="8.3333" style="stroke:#5E5E5E;stroke-width:1.0416666666666667;" width="82.2917" x="51.5625" y="102.6611"/><ellipse cx="66.1458" cy="118.3553" fill="#008400" rx="10.4167" ry="10.4167" style="stroke:#239C23;stroke-width:1.0416666666666667;"/><path d="M63.5498,115.5172 L63.5498,113.9303 L68.9758,113.9303 L68.9758,115.5172 L67.1631,115.5172 L67.1631,121.4559 L68.9758,121.4559 L68.9758,123.0428 L63.5498,123.0428 L63.5498,121.4559 L65.3625,121.4559 L65.3625,115.5172 Z " fill="#000000"/><text fill="#D8BC00" font-family="Open Sans,Avenir,Nunito,Arial,Helvetica,SansSerif" font-size="12.5" font-style="italic" font-weight="bold" lengthAdjust="spacing" textLength="44.7917" x="82.8125" y="123.0794">Named</text><line style="stroke:#5E5E5E;stroke-width:1.0416666666666667;" x1="52.6042" x2="132.8125" y1="134.0495" y2="134.0495"/><line style="stroke:#5E5E5E;stroke-width:1.0416666666666667;" x1="52.6042" x2="132.8125" y1="142.3828" y2="142.3828"/><!--MD5=[5b9dd678cf52098b17b5634893b3c97e]
class Quantifier--><rect codeLine="9" fill="#282828" height="127.0345" id="Quantifier" rx="8.3333" ry="8.3333" style="stroke:#5E5E5E;stroke-width:1.0416666666666667;" width="110.4167" x="7.2917" y="965.1611"/><rect fill="#1B1B1A" height="31.3883" rx="8.3333" ry="8.3333" style="stroke:#1B1B1A;stroke-width:1.0416666666666667;" width="110.4167" x="7.2917" y="965.1611"/><rect fill="#1B1B1A" height="8.3333" style="stroke:#1B1B1A;stroke-width:1.0416666666666667;" width="110.4167" x="7.2917" y="988.2161"/><rect codeLine="9" fill="none" height="127.0345" id="Quantifier" rx="8.3333" ry="8.3333" style="stroke:#5E5E5E;stroke-width:1.0416666666666667;" width="110.4167" x="7.2917" y="965.1611"/><ellipse cx="25.1563" cy="980.8553" fill="#CF6300" rx="10.4167" ry="10.4167" style="stroke:#EF8300;stroke-width:1.0416666666666667;"/><path d="M28.2121,985.5428 L22.5358,985.5428 L22.5358,976.4303 L28.2121,976.4303 L28.2121,978.0172 L24.3363,978.0172 L24.3363,979.9825 L27.8459,979.9825 L27.8459,981.5694 L24.3363,981.5694 L24.3363,983.9559 L28.2121,983.9559 Z " fill="#000000"/><text fill="#D8BC00" font-family="Open Sans,Avenir,Nunito,Arial,Helvetica,SansSerif" font-size="12.5" font-weight="bold" lengthAdjust="spacing" textLength="65.625" x="42.5521" y="985.5794">Quantifier</text><line style="stroke:#5E5E5E;stroke-width:1.0416666666666667;" x1="8.3333" x2="116.6667" y1="996.5495" y2="996.5495"/><text fill="#D8BC00" font-family="Open Sans,Avenir,Nunito,Arial,Helvetica,SansSerif" font-size="11.4583" lengthAdjust="spacing" textLength="85.4167" x="16.6667" y="1014.919">ONE_OR_MORE</text><text fill="#D8BC00" font-family="Open Sans,Avenir,Nunito,Arial,Helvetica,SansSerif" font-size="11.4583" lengthAdjust="spacing" textLength="58.3333" x="16.6667" y="1034.6639">OPTIONAL</text><text fill="#D8BC00" font-family="Open Sans,Avenir,Nunito,Arial,Helvetica,SansSerif" font-size="11.4583" lengthAdjust="spacing" textLength="56.25" x="16.6667" y="1054.4088">REQUIRED</text><text fill="#D8BC00" font-family="Open Sans,Avenir,Nunito,Arial,Helvetica,SansSerif" font-size="11.4583" lengthAdjust="spacing" textLength="91.6667" x="16.6667" y="1074.1536">ZERO_OR_MORE</text><line style="stroke:#5E5E5E;stroke-width:1.0416666666666667;" x1="8.3333" x2="116.6667" y1="1083.8623" y2="1083.8623"/><!--MD5=[49c21b141dc5065c45dd2910f7f58d16]
class SwitchParser--><rect codeLine="23" fill="#282828" height="301.6602" id="SwitchParser" rx="8.3333" ry="8.3333" style="stroke:#5E5E5E;stroke-width:1.0416666666666667;" width="346.875" x="65.625" y="558.3903"/><rect fill="#1B1B1A" height="31.3883" rx="8.3333" ry="8.3333" style="stroke:#1B1B1A;stroke-width:1.0416666666666667;" width="346.875" x="65.625" y="558.3903"/><rect fill="#1B1B1A" height="8.3333" style="stroke:#1B1B1A;stroke-width:1.0416666666666667;" width="346.875" x="65.625" y="581.4453"/><rect codeLine="23" fill="none" height="301.6602" id="SwitchParser" rx="8.3333" ry="8.3333" style="stroke:#5E5E5E;stroke-width:1.0416666666666667;" width="346.875" x="65.625" y="558.3903"/><ellipse cx="181.7708" cy="574.0845" fill="#0066CF" rx="10.4167" ry="10.4167" style="stroke:#0086EF;stroke-width:1.0416666666666667;"/><path d="M183.6812,578.5095 Q183.254,578.7292 182.784,578.8391 Q182.314,578.949 181.7952,578.949 Q179.952,578.949 178.9815,577.7344 Q178.0111,576.5198 178.0111,574.2249 Q178.0111,571.9238 178.9815,570.7092 Q179.952,569.4946 181.7952,569.4946 Q182.314,569.4946 182.7901,569.6045 Q183.2662,569.7144 183.6812,569.9341 L183.6812,571.936 Q183.2174,571.5088 182.781,571.3104 Q182.3446,571.1121 181.8807,571.1121 Q180.8919,571.1121 180.3884,571.8964 Q179.8848,572.6807 179.8848,574.2249 Q179.8848,575.7629 180.3884,576.5472 Q180.8919,577.3315 181.8807,577.3315 Q182.3446,577.3315 182.781,577.1332 Q183.2174,576.9348 183.6812,576.5076 Z " fill="#000000"/><text fill="#D8BC00" font-family="Open Sans,Avenir,Nunito,Arial,Helvetica,SansSerif" font-size="12.5" font-weight="bold" lengthAdjust="spacing" textLength="81.25" x="204.6875" y="578.8086">SwitchParser</text><rect fill="#333333" height="23.055" style="stroke:#A0A0A0;stroke-width:1.0416666666666667;stroke-dasharray:2.0,2.0;" width="16.6667" x="398.9583" y="555.2653"/><text fill="#A0A0A0" font-family="Open Sans,Avenir,Nunito,Arial,Helvetica,SansSerif" font-size="12.5" font-weight="bold" lengthAdjust="spacing" textLength="8.3333" x="403.125" y="571.5169">T</text><line style="stroke:#5E5E5E;stroke-width:1.5625;" x1="66.6667" x2="411.4583" y1="589.7786" y2="589.7786"/><line style="stroke:#5E5E5E;stroke-width:1.0416666666666667;" x1="66.6667" x2="411.4583" y1="598.112" y2="598.112"/><ellipse cx="77.0833" cy="609.5703" fill="#84BE84" rx="3.125" ry="3.125" style="stroke:#038048;stroke-width:1.0416666666666667;"/><text fill="#D8BC00" font-family="Open Sans,Avenir,Nunito,Arial,Helvetica,SansSerif" font-size="11.4583" lengthAdjust="spacing" textLength="314.5833" x="88.5417" y="616.4815">ObjectSet&lt;T&gt; assignValue(SwitchValue, String delimiter)</text><ellipse cx="77.0833" cy="629.3152" fill="#84BE84" rx="3.125" ry="3.125" style="stroke:#038048;stroke-width:1.0416666666666667;"/><text fill="#D8BC00" font-family="Open Sans,Avenir,Nunito,Arial,Helvetica,SansSerif" font-size="11.4583" lengthAdjust="spacing" textLength="87.5" x="88.5417" y="636.2264">T defaultValue()</text><ellipse cx="77.0833" cy="649.0601" fill="#84BE84" rx="3.125" ry="3.125" style="stroke:#038048;stroke-width:1.0416666666666667;"/><text fill="#D8BC00" font-family="Open Sans,Avenir,Nunito,Arial,Helvetica,SansSerif" font-size="11.4583" lengthAdjust="spacing" textLength="68.75" x="88.5417" y="655.9713">String help()</text><ellipse cx="77.0833" cy="692.7165" fill="#84BE84" rx="3.125" ry="3.125" style="stroke:#038048;stroke-width:1.0416666666666667;"/><text fill="#D8BC00" font-family="Open Sans,Avenir,Nunito,Arial,Helvetica,SansSerif" font-size="11.4583" lengthAdjust="spacing" textLength="115.625" x="88.5417" y="699.6277">boolean isRequired()</text><line style="stroke:#5E5E5E;stroke-width:1.0416666666666667;" x1="66.6667" x2="212.5" y1="675.5524" y2="675.5524"/><text fill="#D8BC00" font-family="Open Sans,Avenir,Nunito,Arial,Helvetica,SansSerif" font-size="11.4583" lengthAdjust="spacing" textLength="46.875" x="215.625" y="679.362">(checks)</text><line style="stroke:#5E5E5E;stroke-width:1.0416666666666667;" x1="265.625" x2="411.4583" y1="675.5524" y2="675.5524"/><ellipse cx="77.0833" cy="736.3729" fill="#84BE84" rx="3.125" ry="3.125" style="stroke:#038048;stroke-width:1.0416666666666667;"/><text fill="#D8BC00" font-family="Open Sans,Avenir,Nunito,Arial,Helvetica,SansSerif" font-size="11.4583" lengthAdjust="spacing" textLength="191.6667" x="88.5417" y="743.2841">ObjectList&lt;T&gt; asList(SwitchValue)</text><ellipse cx="77.0833" cy="756.1178" fill="#84BE84" rx="3.125" ry="3.125" style="stroke:#038048;stroke-width:1.0416666666666667;"/><text fill="#D8BC00" font-family="Open Sans,Avenir,Nunito,Arial,Helvetica,SansSerif" font-size="11.4583" lengthAdjust="spacing" textLength="153.125" x="88.5417" y="763.029">ObjectSet&lt;T&gt; validValues()</text><line style="stroke:#5E5E5E;stroke-width:1.0416666666666667;" x1="66.6667" x2="204.6875" y1="719.2088" y2="719.2088"/><text fill="#D8BC00" font-family="Open Sans,Avenir,Nunito,Arial,Helvetica,SansSerif" font-size="11.4583" lengthAdjust="spacing" textLength="62.5" x="207.8125" y="723.0184">(collection)</text><line style="stroke:#5E5E5E;stroke-width:1.0416666666666667;" x1="273.4375" x2="411.4583" y1="719.2088" y2="719.2088"/><ellipse cx="77.0833" cy="799.7742" fill="#84BE84" rx="3.125" ry="3.125" style="stroke:#038048;stroke-width:1.0416666666666667;"/><text fill="#D8BC00" font-family="Open Sans,Avenir,Nunito,Arial,Helvetica,SansSerif" font-size="11.4583" lengthAdjust="spacing" textLength="230.2083" x="88.5417" y="806.6854">Builder&lt;T&gt; switchParser(Class&lt;T&gt; type)</text><line style="stroke:#5E5E5E;stroke-width:1.0416666666666667;" x1="66.6667" x2="169.7917" y1="782.6101" y2="782.6101"/><text fill="#D8BC00" font-family="Open Sans,Avenir,Nunito,Arial,Helvetica,SansSerif" font-size="11.4583" lengthAdjust="spacing" textLength="132.2917" x="172.9167" y="786.4197">(command line parsing)</text><line style="stroke:#5E5E5E;stroke-width:1.0416666666666667;" x1="308.3333" x2="411.4583" y1="782.6101" y2="782.6101"/><ellipse cx="77.0833" cy="843.4306" fill="#84BE84" rx="3.125" ry="3.125" style="stroke:#038048;stroke-width:1.0416666666666667;"/><text fill="#D8BC00" font-family="Open Sans,Avenir,Nunito,Arial,Helvetica,SansSerif" font-size="11.4583" lengthAdjust="spacing" textLength="133.3333" x="88.5417" y="850.3418">T asObject(SwitchValue)</text><line style="stroke:#5E5E5E;stroke-width:1.0416666666666667;" x1="66.6667" x2="200.5208" y1="826.2665" y2="826.2665"/><text fill="#D8BC00" font-family="Open Sans,Avenir,Nunito,Arial,Helvetica,SansSerif" font-size="11.4583" lengthAdjust="spacing" textLength="70.8333" x="203.6458" y="830.0761">(conversion)</text><line style="stroke:#5E5E5E;stroke-width:1.0416666666666667;" x1="277.6042" x2="411.4583" y1="826.2665" y2="826.2665"/><!--MD5=[56e4c9075fa7c9f4c09ef0a20c49f72c]
class T--><rect fill="#282828" height="48.055" id="T" rx="8.3333" ry="8.3333" style="stroke:#5E5E5E;stroke-width:1.0416666666666667;" width="45.8333" x="217.7083" y="1004.7445"/><rect fill="#1B1B1A" height="31.3883" rx="8.3333" ry="8.3333" style="stroke:#1B1B1A;stroke-width:1.0416666666666667;" width="45.8333" x="217.7083" y="1004.7445"/><rect fill="#1B1B1A" height="8.3333" style="stroke:#1B1B1A;stroke-width:1.0416666666666667;" width="45.8333" x="217.7083" y="1027.7995"/><rect fill="none" height="48.055" id="T" rx="8.3333" ry="8.3333" style="stroke:#5E5E5E;stroke-width:1.0416666666666667;" width="45.8333" x="217.7083" y="1004.7445"/><ellipse cx="232.2917" cy="1020.4386" fill="#0066CF" rx="10.4167" ry="10.4167" style="stroke:#0086EF;stroke-width:1.0416666666666667;"/><path d="M234.2021,1024.8637 Q233.7748,1025.0834 233.3049,1025.1933 Q232.8349,1025.3031 232.3161,1025.3031 Q230.4728,1025.3031 229.5024,1024.0885 Q228.5319,1022.8739 228.5319,1020.579 Q228.5319,1018.278 229.5024,1017.0634 Q230.4728,1015.8488 232.3161,1015.8488 Q232.8349,1015.8488 233.311,1015.9587 Q233.787,1016.0685 234.2021,1016.2882 L234.2021,1018.2902 Q233.7382,1017.863 233.3018,1017.6646 Q232.8654,1017.4662 232.4015,1017.4662 Q231.4128,1017.4662 230.9092,1018.2505 Q230.4057,1019.0348 230.4057,1020.579 Q230.4057,1022.1171 230.9092,1022.9014 Q231.4128,1023.6857 232.4015,1023.6857 Q232.8654,1023.6857 233.3018,1023.4873 Q233.7382,1023.289 234.2021,1022.8617 Z " fill="#000000"/><text fill="#D8BC00" font-family="Open Sans,Avenir,Nunito,Arial,Helvetica,SansSerif" font-size="12.5" font-weight="bold" lengthAdjust="spacing" textLength="8.3333" x="248.9583" y="1025.1628">T</text><line style="stroke:#5E5E5E;stroke-width:1.0416666666666667;" x1="218.75" x2="262.5" y1="1036.1328" y2="1036.1328"/><line style="stroke:#5E5E5E;stroke-width:1.0416666666666667;" x1="218.75" x2="262.5" y1="1044.4661" y2="1044.4661"/><!--MD5=[ba073b66973f43d8829c343bee2ec4ff]
class StringConverter--><rect fill="#282828" height="48.055" id="StringConverter" rx="8.3333" ry="8.3333" style="stroke:#5E5E5E;stroke-width:1.0416666666666667;" width="139.5833" x="421.875" y="1004.7445"/><rect fill="#1B1B1A" height="31.3883" rx="8.3333" ry="8.3333" style="stroke:#1B1B1A;stroke-width:1.0416666666666667;" width="139.5833" x="421.875" y="1004.7445"/><rect fill="#1B1B1A" height="8.3333" style="stroke:#1B1B1A;stroke-width:1.0416666666666667;" width="139.5833" x="421.875" y="1027.7995"/><rect fill="none" height="48.055" id="StringConverter" rx="8.3333" ry="8.3333" style="stroke:#5E5E5E;stroke-width:1.0416666666666667;" width="139.5833" x="421.875" y="1004.7445"/><ellipse cx="436.4583" cy="1020.4386" fill="#0066CF" rx="10.4167" ry="10.4167" style="stroke:#0086EF;stroke-width:1.0416666666666667;"/><path d="M438.3687,1024.8637 Q437.9415,1025.0834 437.4715,1025.1933 Q437.0015,1025.3031 436.4827,1025.3031 Q434.6395,1025.3031 433.669,1024.0885 Q432.6986,1022.8739 432.6986,1020.579 Q432.6986,1018.278 433.669,1017.0634 Q434.6395,1015.8488 436.4827,1015.8488 Q437.0015,1015.8488 437.4776,1015.9587 Q437.9537,1016.0685 438.3687,1016.2882 L438.3687,1018.2902 Q437.9049,1017.863 437.4685,1017.6646 Q437.0321,1017.4662 436.5682,1017.4662 Q435.5794,1017.4662 435.0759,1018.2505 Q434.5723,1019.0348 434.5723,1020.579 Q434.5723,1022.1171 435.0759,1022.9014 Q435.5794,1023.6857 436.5682,1023.6857 Q437.0321,1023.6857 437.4685,1023.4873 Q437.9049,1023.289 438.3687,1022.8617 Z " fill="#000000"/><text fill="#D8BC00" font-family="Open Sans,Avenir,Nunito,Arial,Helvetica,SansSerif" font-size="12.5" font-weight="bold" lengthAdjust="spacing" textLength="102.0833" x="453.125" y="1025.1628">StringConverter</text><line style="stroke:#5E5E5E;stroke-width:1.0416666666666667;" x1="422.9167" x2="560.4167" y1="1036.1328" y2="1036.1328"/><line style="stroke:#5E5E5E;stroke-width:1.0416666666666667;" x1="422.9167" x2="560.4167" y1="1044.4661" y2="1044.4661"/><!--MD5=[50368f2d0247cf0205291d467e93df7d]
class ArgumentValue--><rect fill="#282828" height="48.055" id="ArgumentValue" rx="8.3333" ry="8.3333" style="stroke:#5E5E5E;stroke-width:1.0416666666666667;" width="137.5" x="170.8333" y="102.6611"/><rect fill="#1B1B1A" height="31.3883" rx="8.3333" ry="8.3333" style="stroke:#1B1B1A;stroke-width:1.0416666666666667;" width="137.5" x="170.8333" y="102.6611"/><rect fill="#1B1B1A" height="8.3333" style="stroke:#1B1B1A;stroke-width:1.0416666666666667;" width="137.5" x="170.8333" y="125.7161"/><rect fill="none" height="48.055" id="ArgumentValue" rx="8.3333" ry="8.3333" style="stroke:#5E5E5E;stroke-width:1.0416666666666667;" width="137.5" x="170.8333" y="102.6611"/><ellipse cx="185.4167" cy="118.3553" fill="#0066CF" rx="10.4167" ry="10.4167" style="stroke:#0086EF;stroke-width:1.0416666666666667;"/><path d="M187.3271,122.7804 Q186.8998,123.0001 186.4299,123.1099 Q185.9599,123.2198 185.4411,123.2198 Q183.5978,123.2198 182.6274,122.0052 Q181.6569,120.7906 181.6569,118.4957 Q181.6569,116.1947 182.6274,114.9801 Q183.5978,113.7655 185.4411,113.7655 Q185.9599,113.7655 186.436,113.8753 Q186.912,113.9852 187.3271,114.2049 L187.3271,116.2069 Q186.8632,115.7796 186.4268,115.5813 Q185.9904,115.3829 185.5265,115.3829 Q184.5378,115.3829 184.0342,116.1672 Q183.5307,116.9515 183.5307,118.4957 Q183.5307,120.0338 184.0342,120.8181 Q184.5378,121.6024 185.5265,121.6024 Q185.9904,121.6024 186.4268,121.404 Q186.8632,121.2056 187.3271,120.7784 Z " fill="#000000"/><text fill="#D8BC00" font-family="Open Sans,Avenir,Nunito,Arial,Helvetica,SansSerif" font-size="12.5" font-weight="bold" lengthAdjust="spacing" textLength="100" x="202.0833" y="123.0794">ArgumentValue</text><line style="stroke:#5E5E5E;stroke-width:1.0416666666666667;" x1="171.875" x2="307.2917" y1="134.0495" y2="134.0495"/><line style="stroke:#5E5E5E;stroke-width:1.0416666666666667;" x1="171.875" x2="307.2917" y1="142.3828" y2="142.3828"/><!--MD5=[dac6ec610c604a23bc3a6d3a0daa3395]
class SwitchValue--><rect codeLine="43" fill="#282828" height="127.0345" id="SwitchValue" rx="8.3333" ry="8.3333" style="stroke:#5E5E5E;stroke-width:1.0416666666666667;" width="179.1667" x="150" y="305.2653"/><rect fill="#1B1B1A" height="31.3883" rx="8.3333" ry="8.3333" style="stroke:#1B1B1A;stroke-width:1.0416666666666667;" width="179.1667" x="150" y="305.2653"/><rect fill="#1B1B1A" height="8.3333" style="stroke:#1B1B1A;stroke-width:1.0416666666666667;" width="179.1667" x="150" y="328.3203"/><rect codeLine="43" fill="none" height="127.0345" id="SwitchValue" rx="8.3333" ry="8.3333" style="stroke:#5E5E5E;stroke-width:1.0416666666666667;" width="179.1667" x="150" y="305.2653"/><ellipse cx="193.75" cy="320.9595" fill="#0066CF" rx="10.4167" ry="10.4167" style="stroke:#0086EF;stroke-width:1.0416666666666667;"/><path d="M195.6604,325.3845 Q195.2332,325.6042 194.7632,325.7141 Q194.2932,325.824 193.7744,325.824 Q191.9312,325.824 190.9607,324.6094 Q189.9902,323.3948 189.9902,321.0999 Q189.9902,318.7988 190.9607,317.5842 Q191.9312,316.3696 193.7744,316.3696 Q194.2932,316.3696 194.7693,316.4795 Q195.2454,316.5894 195.6604,316.8091 L195.6604,318.811 Q195.1965,318.3838 194.7601,318.1854 Q194.3237,317.9871 193.8599,317.9871 Q192.8711,317.9871 192.3676,318.7714 Q191.864,319.5557 191.864,321.0999 Q191.864,322.6379 192.3676,323.4222 Q192.8711,324.2065 193.8599,324.2065 Q194.3237,324.2065 194.7601,324.0082 Q195.1965,323.8098 195.6604,323.3826 Z " fill="#000000"/><text fill="#D8BC00" font-family="Open Sans,Avenir,Nunito,Arial,Helvetica,SansSerif" font-size="12.5" font-weight="bold" lengthAdjust="spacing" textLength="77.0833" x="216.6667" y="325.6836">SwitchValue</text><line style="stroke:#5E5E5E;stroke-width:1.5625;" x1="151.0417" x2="328.125" y1="336.6536" y2="336.6536"/><ellipse cx="161.4583" cy="372.0235" fill="#84BE84" rx="3.125" ry="3.125" style="stroke:#038048;stroke-width:1.0416666666666667;"/><text fill="#D8BC00" font-family="Open Sans,Avenir,Nunito,Arial,Helvetica,SansSerif" font-size="11.4583" lengthAdjust="spacing" textLength="146.875" x="172.9167" y="378.9347">SwitchValue(String, String)</text><line style="stroke:#5E5E5E;stroke-width:1.0416666666666667;" x1="151.0417" x2="195.8333" y1="354.8594" y2="354.8594"/><text fill="#D8BC00" font-family="Open Sans,Avenir,Nunito,Arial,Helvetica,SansSerif" font-size="11.4583" lengthAdjust="spacing" textLength="81.25" x="198.9583" y="358.669">(constructors)</text><line style="stroke:#5E5E5E;stroke-width:1.0416666666666667;" x1="283.3333" x2="328.125" y1="354.8594" y2="354.8594"/><ellipse cx="161.4583" cy="415.6799" fill="#84BE84" rx="3.125" ry="3.125" style="stroke:#038048;stroke-width:1.0416666666666667;"/><text fill="#D8BC00" font-family="Open Sans,Avenir,Nunito,Arial,Helvetica,SansSerif" font-size="11.4583" lengthAdjust="spacing" textLength="133.3333" x="172.9167" y="422.5911">T get(SwitchParser&lt;T&gt;)</text><line style="stroke:#5E5E5E;stroke-width:1.0416666666666667;" x1="151.0417" x2="170.3125" y1="398.5158" y2="398.5158"/><text fill="#D8BC00" font-family="Open Sans,Avenir,Nunito,Arial,Helvetica,SansSerif" font-size="11.4583" lengthAdjust="spacing" textLength="132.2917" x="173.4375" y="402.3254">(command line parsing)</text><line style="stroke:#5E5E5E;stroke-width:1.0416666666666667;" x1="308.8542" x2="328.125" y1="398.5158" y2="398.5158"/><!--MD5=[b874894da0d346c2f977b91d560aeaf3]
class SwitchValueList--><rect codeLine="52" fill="#282828" height="146.7794" id="SwitchValueList" rx="8.3333" ry="8.3333" style="stroke:#5E5E5E;stroke-width:1.0416666666666667;" width="203.125" x="370.8333" y="53.7028"/><rect fill="#1B1B1A" height="31.3883" rx="8.3333" ry="8.3333" style="stroke:#1B1B1A;stroke-width:1.0416666666666667;" width="203.125" x="370.8333" y="53.7028"/><rect fill="#1B1B1A" height="8.3333" style="stroke:#1B1B1A;stroke-width:1.0416666666666667;" width="203.125" x="370.8333" y="76.7578"/><rect codeLine="52" fill="none" height="146.7794" id="SwitchValueList" rx="8.3333" ry="8.3333" style="stroke:#5E5E5E;stroke-width:1.0416666666666667;" width="203.125" x="370.8333" y="53.7028"/><ellipse cx="414.5833" cy="69.397" fill="#0066CF" rx="10.4167" ry="10.4167" style="stroke:#0086EF;stroke-width:1.0416666666666667;"/><path d="M416.4937,73.822 Q416.0665,74.0417 415.5965,74.1516 Q415.1265,74.2615 414.6077,74.2615 Q412.7645,74.2615 411.794,73.0469 Q410.8236,71.8323 410.8236,69.5374 Q410.8236,67.2363 411.794,66.0217 Q412.7645,64.8071 414.6077,64.8071 Q415.1265,64.8071 415.6026,64.917 Q416.0787,65.0269 416.4937,65.2466 L416.4937,67.2485 Q416.0299,66.8213 415.5935,66.6229 Q415.1571,66.4246 414.6932,66.4246 Q413.7044,66.4246 413.2009,67.2089 Q412.6973,67.9932 412.6973,69.5374 Q412.6973,71.0754 413.2009,71.8597 Q413.7044,72.644 414.6932,72.644 Q415.1571,72.644 415.5935,72.4457 Q416.0299,72.2473 416.4937,71.8201 Z " fill="#000000"/><text fill="#D8BC00" font-family="Open Sans,Avenir,Nunito,Arial,Helvetica,SansSerif" font-size="12.5" font-weight="bold" lengthAdjust="spacing" textLength="101.0417" x="437.5" y="74.1211">SwitchValueList</text><line style="stroke:#5E5E5E;stroke-width:1.5625;" x1="371.875" x2="572.9167" y1="85.0911" y2="85.0911"/><ellipse cx="382.2917" cy="120.461" fill="#84BE84" rx="3.125" ry="3.125" style="stroke:#038048;stroke-width:1.0416666666666667;"/><text fill="#D8BC00" font-family="Open Sans,Avenir,Nunito,Arial,Helvetica,SansSerif" font-size="11.4583" lengthAdjust="spacing" textLength="146.875" x="393.75" y="127.3722">void add(SwitchValue that)</text><line style="stroke:#5E5E5E;stroke-width:1.0416666666666667;" x1="371.875" x2="438.0208" y1="103.2969" y2="103.2969"/><text fill="#D8BC00" font-family="Open Sans,Avenir,Nunito,Arial,Helvetica,SansSerif" font-size="11.4583" lengthAdjust="spacing" textLength="62.5" x="441.1458" y="107.1065">(collection)</text><line style="stroke:#5E5E5E;stroke-width:1.0416666666666667;" x1="506.7708" x2="572.9167" y1="103.2969" y2="103.2969"/><ellipse cx="382.2917" cy="164.1174" fill="#84BE84" rx="3.125" ry="3.125" style="stroke:#038048;stroke-width:1.0416666666666667;"/><text fill="#D8BC00" font-family="Open Sans,Avenir,Nunito,Arial,Helvetica,SansSerif" font-size="11.4583" lengthAdjust="spacing" textLength="133.3333" x="393.75" y="171.0286">T get(SwitchParser&lt;T&gt;)</text><ellipse cx="382.2917" cy="183.8623" fill="#84BE84" rx="3.125" ry="3.125" style="stroke:#038048;stroke-width:1.0416666666666667;"/><text fill="#D8BC00" font-family="Open Sans,Avenir,Nunito,Arial,Helvetica,SansSerif" font-size="11.4583" lengthAdjust="spacing" textLength="170.8333" x="393.75" y="190.7735">boolean has(SwitchParser&lt;?&gt;)</text><line style="stroke:#5E5E5E;stroke-width:1.0416666666666667;" x1="371.875" x2="403.125" y1="146.9533" y2="146.9533"/><text fill="#D8BC00" font-family="Open Sans,Avenir,Nunito,Arial,Helvetica,SansSerif" font-size="11.4583" lengthAdjust="spacing" textLength="132.2917" x="406.25" y="150.7629">(command line parsing)</text><line style="stroke:#5E5E5E;stroke-width:1.0416666666666667;" x1="541.6667" x2="572.9167" y1="146.9533" y2="146.9533"/><!--MD5=[93c27d87633651f791f2437aa3a12608]
link SwitchParser to T--><path codeLine="17" d="M139.0938,859.5882 C131.2708,876.3903 124.5625,893.6924 119.7917,910.9945 C117.0833,920.8174 115.3125,924.7653 119.7917,933.9111 C139,973.1299 183.4063,1000.6507 212.7083,1015.3174 " fill="none" id="SwitchParser-to-T" style="stroke:#545454;stroke-width:1.5625;"/><polygon fill="#545454" points="217.625,1017.734,211.0426,1009.8649,212.9488,1015.4406,207.3731,1017.3468,217.625,1017.734" style="stroke:#545454;stroke-width:1.5625;"/><text fill="#A0A0A0" font-family="Open Sans,Avenir,Nunito,Arial,Helvetica,SansSerif" font-size="12.5" font-weight="bold" lengthAdjust="spacing" textLength="28.125" x="123.9583" y="927.2461">gets</text><!--MD5=[93c27d87633651f791f2437aa3a12608]
link SwitchParser to T--><path codeLine="18" d="M195.1563,859.4528 C192.4896,884.359 192.7083,909.9111 197.9167,933.9111 C202.9792,957.234 214.375,981.7236 224.1146,999.8174 " fill="none" id="SwitchParser-to-T-1" style="stroke:#545454;stroke-width:1.5625;"/><polygon fill="#545454" points="226.8125,1004.7445,225.9672,994.5201,224.3122,1000.1755,218.6568,998.5206,226.8125,1004.7445" style="stroke:#545454;stroke-width:1.5625;"/><text fill="#A0A0A0" font-family="Open Sans,Avenir,Nunito,Arial,Helvetica,SansSerif" font-size="12.5" font-weight="bold" lengthAdjust="spacing" textLength="28.125" x="202.0833" y="927.2461">gets</text><text fill="#A0A0A0" font-family="Open Sans,Avenir,Nunito,Arial,Helvetica,SansSerif" font-size="12.5" font-weight="bold" lengthAdjust="spacing" textLength="8.3333" x="180.898" y="883.452">1</text><text fill="#A0A0A0" font-family="Open Sans,Avenir,Nunito,Arial,Helvetica,SansSerif" font-size="12.5" font-weight="bold" lengthAdjust="spacing" textLength="6.25" x="212.5473" y="990.7422">*</text><!--MD5=[93c27d87633651f791f2437aa3a12608]
link SwitchParser to T--><path codeLine="19" d="M240.0729,859.7757 C240.25,912.7861 240.4271,967.1924 240.5313,999.182 " fill="none" id="SwitchParser-to-T-2" style="stroke:#545454;stroke-width:1.5625;"/><polygon fill="#545454" points="240.5521,1004.5049,244.6919,995.118,240.5372,999.2966,236.3586,995.1418,240.5521,1004.5049" style="stroke:#545454;stroke-width:1.5625;"/><text fill="#A0A0A0" font-family="Open Sans,Avenir,Nunito,Arial,Helvetica,SansSerif" font-size="12.5" font-weight="bold" lengthAdjust="spacing" textLength="28.125" x="244.7917" y="927.2461">gets</text><text fill="#A0A0A0" font-family="Open Sans,Avenir,Nunito,Arial,Helvetica,SansSerif" font-size="12.5" font-weight="bold" lengthAdjust="spacing" textLength="8.3333" x="228.2711" y="883.7926">1</text><text fill="#A0A0A0" font-family="Open Sans,Avenir,Nunito,Arial,Helvetica,SansSerif" font-size="12.5" font-weight="bold" lengthAdjust="spacing" textLength="6.25" x="229.6359" y="990.4442">*</text><!--MD5=[7dc8e43fb61509f5659b25a74e786172]
reverse link SwitchParser to T--><path codeLine="21" d="M289.3021,873.4111 C290.7292,893.807 289.8438,914.359 285.4167,933.9111 C279.6354,959.4215 266.0313,986.109 255.3229,1004.4528 " fill="none" id="SwitchParser-backto-T" style="stroke:#545454;stroke-width:1.5625;"/><polygon fill="#333333" points="288,859.6924,284.4426,866.3082,289.1812,872.1364,292.7386,865.5207,288,859.6924" style="stroke:#545454;stroke-width:1.5625;"/><text fill="#A0A0A0" font-family="Open Sans,Avenir,Nunito,Arial,Helvetica,SansSerif" font-size="12.5" font-weight="bold" lengthAdjust="spacing" textLength="84.375" x="292.7083" y="927.2461">default value</text><!--MD5=[88cf72955f12c999879a50670d12cc12]
reverse link SwitchParser to StringConverter--><path codeLine="20" d="M366.875,870.6299 C408.625,923.1715 450.1979,975.484 473.2604,1004.5049 " fill="none" id="SwitchParser-backto-StringConverter" style="stroke:#545454;stroke-width:1.5625;"/><polygon fill="#333333" points="358.2396,859.7757,358.8672,867.261,366.0181,869.5607,365.3905,862.0754,358.2396,859.7757" style="stroke:#545454;stroke-width:1.5625;"/><text fill="#A0A0A0" font-family="Open Sans,Avenir,Nunito,Arial,Helvetica,SansSerif" font-size="12.5" font-weight="bold" lengthAdjust="spacing" textLength="133.3333" x="413.5417" y="927.2461">converts values with</text><!--MD5=[3f2007f7bd3e53261220f9be614fdf8f]
reverse link SwitchParser to Quantifier--><path codeLine="22" d="M131.125,871.7028 C123.4583,884.8174 116.1146,898.0257 109.375,910.9945 C100.5208,928.0465 92.2188,947.1507 85.125,964.9007 " fill="none" id="SwitchParser-backto-Quantifier" style="stroke:#545454;stroke-width:1.5625;"/><polygon fill="#333333" points="138.2396,859.6924,131.4688,862.945,131.8671,870.446,138.6379,867.1934,138.2396,859.6924" style="stroke:#545454;stroke-width:1.5625;"/><!--MD5=[0c9e3f5173126f3c7db6b1b3bcc06f0c]
reverse link ArgumentValue to SwitchValue--><path codeLine="40" d="M239.5833,171.5257 C239.5833,208.9111 239.5833,263.0778 239.5833,305.0465 " fill="none" id="ArgumentValue-backto-SwitchValue" style="stroke:#545454;stroke-width:1.5625;"/><polygon fill="none" points="232.2917,171.5153,239.5833,150.682,246.875,171.5153,232.2917,171.5153" style="stroke:#545454;stroke-width:1.5625;"/><!--MD5=[bed40ab1af2e7451fe3dfa62bfd3b77e]
reverse link Named to SwitchValue--><path codeLine="41" d="M117.9375,168.9111 C140.8438,206.3486 174.9375,262.0882 201.2188,305.0465 " fill="none" id="Named-backto-SwitchValue" style="stroke:#545454;stroke-width:1.5625;"/><polygon fill="none" points="111.4375,172.2653,106.7917,150.682,123.8854,164.6507,111.4375,172.2653" style="stroke:#545454;stroke-width:1.5625;"/><!--MD5=[58192933d41c455d05fbc7ed14f33acf]
link SwitchValue to SwitchParser--><path codeLine="42" d="M239.5833,431.5465 C239.5833,465.7236 239.5833,509.9007 239.5833,552.8799 " fill="none" id="SwitchValue-to-SwitchParser" style="stroke:#545454;stroke-width:1.5625;"/><polygon fill="#545454" points="239.5833,558.109,243.75,548.734,239.5833,552.9007,235.4167,548.734,239.5833,558.109" style="stroke:#545454;stroke-width:1.5625;"/><text fill="#A0A0A0" font-family="Open Sans,Avenir,Nunito,Arial,Helvetica,SansSerif" font-size="12.5" font-weight="bold" lengthAdjust="spacing" textLength="98.9583" x="243.75" y="499.1211">gets value with</text><!--MD5=[2bb6ebbad9ccaadf03581ef912387f8c]
reverse link SwitchValueList to SwitchValue--><path codeLine="51" d="M393.1979,209.6924 C362.8438,240.9215 328.7813,275.984 300.4479,305.1299 " fill="none" id="SwitchValueList-backto-SwitchValue" style="stroke:#545454;stroke-width:1.5625;"/><polygon fill="#333333" points="402.9063,199.7028,395.5631,201.2845,394.1989,208.6711,401.542,207.0894,402.9063,199.7028" style="stroke:#545454;stroke-width:1.5625;"/><text fill="#A0A0A0" font-family="Open Sans,Avenir,Nunito,Arial,Helvetica,SansSerif" font-size="12.5" font-weight="bold" lengthAdjust="spacing" textLength="8.3333" x="383.05" y="224.0014">1</text><text fill="#A0A0A0" font-family="Open Sans,Avenir,Nunito,Arial,Helvetica,SansSerif" font-size="12.5" font-weight="bold" lengthAdjust="spacing" textLength="6.25" x="297.3877" y="290.9502">*</text><!--MD5=[cd7a961a6af256e51189714ad45ab891]
@startuml

    !include lexakai.theme
    
    title "Switch Parsing"
    
    interface Named
    
    enum Quantifier
    {
        ONE_OR_MORE
        OPTIONAL
        REQUIRED
        ZERO_OR_MORE
    }
    
    SwitchParser - -> T : "gets"
    SwitchParser "1" - -> "*" T : "gets"
    SwitchParser "1" - -> "*" T : "gets"
    SwitchParser o- - StringConverter : "converts values with"
    SwitchParser o- - T : "default value"
    SwitchParser o- - Quantifier
    class SwitchParser<T>
    {
        - -
        +ObjectSet<T> assignValue(SwitchValue, String delimiter)
        +T defaultValue()
        +String help()
        - -(checks)- -
        +boolean isRequired()
        - -(collection)- -
        +ObjectList<T> asList(SwitchValue)
        +ObjectSet<T> validValues()
        - -(command line parsing)- -
        +Builder<T> switchParser(Class<T> type)
        - -(conversion)- -
        +T asObject(SwitchValue)
    }
    
    ArgumentValue <|- - SwitchValue
    Named <|- - SwitchValue
    SwitchValue - -> SwitchParser : "gets value with"
    class SwitchValue
    {
        - -(constructors)- -
        +SwitchValue(String, String)
        - -(command line parsing)- -
        +T get(SwitchParser<T>)
    }
    
    SwitchValueList "1" o- - "*" SwitchValue
    class SwitchValueList
    {
        - -(collection)- -
        +void add(SwitchValue that)
        - -(command line parsing)- -
        +T get(SwitchParser<T>)
        +boolean has(SwitchParser<?>)
    }
    
@enduml

@startuml









skinparam backgroundColor #333333






skinparam  {
    defaultFontName   "Open Sans,Avenir,Nunito,Arial,Helvetica,SansSerif"
    defaultFontSize   12
    defaultTextAlignment left
    shadowing false
    RoundCorner 10
    TitleFontSize 18
}

skinparam defaultFontName       "Open Sans,Avenir,Nunito,Arial,Helvetica,SansSerif"
skinparam defaultFontSize       12
skinparam dpi                   100
skinparam shadowing             false
skinparam roundcorner           16
skinparam ParticipantPadding    40
skinparam BoxPadding            40
skinparam Padding               3
skinparam ArrowColor            #545454
skinparam stereotype {
    CBackgroundColor #0066cf
    CBorderColor #0086ef
    ABackgroundColor #C8Ac00
    ABorderColor #D8Bc00
    IBackgroundColor #008400
    IBorderColor #239c23
    EBackgroundColor #cf6300
    EBorderColor #ef8300
    NBackgroundColor #3380b9
    NBorderColor #004d86
}
skinparam title {
	FontColor	                 #c0c0c0
 	BorderColor                  #545454
	FontSize	    	         20
	BorderRoundCorner            16
	BorderThickness 	         1
	BackgroundColor              #48494b
}


skinparam legend {
	BackgroundColor #303030
	BorderColor #404040
	FontColor #a0a0a0
}

	skinparam swimlane {
	BorderColor #5e5e5e
	BorderThickness 2
	TitleBackgroundColor  #6d6d6d-#484848
	TitleFontColor #303030
}

skinparam activity {
		FontColor #C8Ac00
	BorderColor #333333
	BackgroundColor #333333-#333333
	BarColor #00FF00
	StartColor #0060a8
	EndColor #0060a8
	DiamondBackgroundColor #6d6d6d-#3a3a3a
  	DiamondBorderColor #3a3a3a
  	DiamondFontColor #fefefe
}


skinparam participant {
		FontColor #C8Ac00
	BorderColor #333333
	BackgroundColor #333333-#333333
	ParticipantBorderThickness 2
}


skinparam actor {
		FontColor #C8Ac00
	BorderColor #333333
	BackgroundColor #333333-#333333
}


skinparam arrow {
	Thickness 1.5
	Color #545454
	FontColor #a0a0a0
    FontStyle bold
    MessageAlignment center
}



skinparam sequence {
	BorderColor #303030
	TitleFontColor #303030
	BackgroundColor #333333
	StartColor #303030
	EndColor #303030
	BoxBackgroundColor #333333
	BoxBorderColor #484848
	BoxFontColor #484848
	LifeLineBorderColor #484848
	LifeLineBorderThickness 2
	LifeLineBackgroundColor #3a3a3a
	GroupBorderColor #484848
	GroupFontColor #484848
	GroupHeaderFontColor #0060a8
	GroupBackgroundColor #484848
	GroupHeaderBackgroundColor #333333
	DividerBackgroundColor #484848
    DividerBorderColor #484848
    DividerBorderThickness 2
    DividerFontColor #D8Bc00
	ReferenceBackgroundColor #333333
	ReferenceBorderColor #484848
	ReferenceFontColor #fefefe
	ReferenceHeaderBackgroundColor #484848
}


skinparam partition {
	BorderColor #303030
	FontColor #333333
	BackgroundColor #333333
}


skinparam collections {
		FontColor #C8Ac00
	BorderColor #333333
	BackgroundColor #333333-#333333
}


skinparam control {
		FontColor #C8Ac00
	BorderColor #333333
	BackgroundColor #333333-#333333
}


skinparam entity {
		FontColor #C8Ac00
	BorderColor #333333
	BackgroundColor #333333-#333333
}


skinparam boundary {
		FontColor #C8Ac00
	BorderColor #333333
	BackgroundColor #333333-#333333
}


skinparam agent {
	BackgroundColor #ff8000
	BorderColor #ff9933
	FontColor #484848
}


skinparam note {
	BorderThickness 1
	BackgroundColor #1b1b1a
	BorderColor #5e5e5e
	FontSize 11
	FontColor #a0a0a0
}


skinparam artifact {
	BorderThickness 10
	BorderColor #5e5e5e
	BackgroundColor #1b1b1a
	FontColor #D8Bc00
}


skinparam component {
		FontColor #C8Ac00
	BorderColor #333333
	BackgroundColor #333333-#333333
}


skinparam interface {
	BackgroundColor  #008400
	BorderColor  #007F00
	FontColor #484848
}


skinparam storage {
	BackgroundColor #ff8000
  	BorderColor #cc6600
	FontColor #222222
}


skinparam node {
	BackgroundColor #333333
	BorderColor #333333
	FontColor #C8Ac00
}


skinparam cloud {
	BackgroundColor #484848-black
	BorderColor #484848
	FontColor #D8Bc00
}


skinparam database {
		FontColor #C8Ac00
	BorderColor #333333
	BackgroundColor #333333-#333333
	BackgroundColor  #333333
}


skinparam class {
		FontColor #C8Ac00
	BorderColor #333333
	BackgroundColor #333333-#333333
	HeaderBackgroundColor #1b1b1a
    BackgroundColor #282828
    BorderColor #5e5e5e
 	StereotypeFontColor #a0a0a0
    StereotypeFontStyle bold
	BorderThickness 1
	AttributeFontColor #D8Bc00
	AttributeFontSize 11
    FontColor #D8Bc00
    FontStyle bold
}


skinparam object {
		FontColor #C8Ac00
	BorderColor #333333
	BackgroundColor #333333-#333333
	StereotypeFontColor #484848
	BorderThickness 1
	AttributeFontColor #fefefe
	AttributeFontSize 11
}


skinparam usecase {
		FontColor #C8Ac00
	BorderColor #333333
	BackgroundColor #333333-#333333
	BorderThickness 2
	StereotypeFontColor #303030
}


skinparam rectangle {
		FontColor #C8Ac00
	BorderColor #333333
	BackgroundColor #333333-#333333
	BackgroundColor #333333
	BorderThickness 2
	StereotypeFontColor #303030
}


skinparam package {
		FontColor #C8Ac00
	BorderColor #333333
	BackgroundColor #333333-#333333
	BackgroundColor #333333
	BorderThickness 2
}


skinparam folder {
	BackgroundColor #6d6d6d
  	BorderColor #ff8000
	FontColor #ff8000
	BorderThickness 2
}


skinparam frame {
	BackgroundColor #6d6d6d
  	BorderColor #0060a8
	FontColor #0060a8
	BorderThickness 2
}


skinparam state {
		FontColor #C8Ac00
	BorderColor #333333
	BackgroundColor #333333-#333333
	StartColor #0060a8
	EndColor #0060a8
	AttributeFontColor #fefefe
	AttributeFontSize 11
}


skinparam queue {
		FontColor #C8Ac00
	BorderColor #333333
	BackgroundColor #333333-#333333
}


skinparam card {
	BackgroundColor #0060a8
	BorderColor #004d86
	FontColor $INFO_TEXT
}


skinparam file {
	BackgroundColor #6d6d6d-#484848
	BorderColor #0060a8
	FontColor #fefefe
}


skinparam stack {
		FontColor #C8Ac00
	BorderColor #333333
	BackgroundColor #333333-#333333
}

    
    title "Switch Parsing"
    
    interface Named
    
    enum Quantifier
    {
        ONE_OR_MORE
        OPTIONAL
        REQUIRED
        ZERO_OR_MORE
    }
    
    SwitchParser - -> T : "gets"
    SwitchParser "1" - -> "*" T : "gets"
    SwitchParser "1" - -> "*" T : "gets"
    SwitchParser o- - StringConverter : "converts values with"
    SwitchParser o- - T : "default value"
    SwitchParser o- - Quantifier
    class SwitchParser<T>
    {
        - -
        +ObjectSet<T> assignValue(SwitchValue, String delimiter)
        +T defaultValue()
        +String help()
        - -(checks)- -
        +boolean isRequired()
        - -(collection)- -
        +ObjectList<T> asList(SwitchValue)
        +ObjectSet<T> validValues()
        - -(command line parsing)- -
        +Builder<T> switchParser(Class<T> type)
        - -(conversion)- -
        +T asObject(SwitchValue)
    }
    
    ArgumentValue <|- - SwitchValue
    Named <|- - SwitchValue
    SwitchValue - -> SwitchParser : "gets value with"
    class SwitchValue
    {
        - -(constructors)- -
        +SwitchValue(String, String)
        - -(command line parsing)- -
        +T get(SwitchParser<T>)
    }
    
    SwitchValueList "1" o- - "*" SwitchValue
    class SwitchValueList
    {
        - -(collection)- -
        +void add(SwitchValue that)
        - -(command line parsing)- -
        +T get(SwitchParser<T>)
        +boolean has(SwitchParser<?>)
    }
    
@enduml

PlantUML version 1.2021.01(Tue Feb 02 00:55:08 MST 2021)
(GPL source distribution)
Java Runtime: OpenJDK Runtime Environment
JVM: OpenJDK 64-Bit Server VM
Default Encoding: UTF-8
Language: en
Country: US
--></g></svg>