<?xml version="1.0" encoding="UTF-8" standalone="no"?><svg xmlns="http://www.w3.org/2000/svg" xmlns:xlink="http://www.w3.org/1999/xlink" contentScriptType="application/ecmascript" contentStyleType="text/css" height="539.5833px" preserveAspectRatio="none" style="width:1118px;height:539px;background:#333333;" version="1.1" viewBox="0 0 1118 539" width="1118.75px" zoomAndPan="magnify"><defs/><g><rect fill="#48494B" height="41.2028" rx="8.3333" ry="8.3333" style="stroke:#545454;stroke-width:1.0416666666666667;" width="548.9583" x="277.8646" y="2.0833"/><text fill="#C0C0C0" font-family="Open Sans,Avenir,Nunito,Arial,Helvetica,SansSerif" font-size="20.8333" lengthAdjust="spacing" textLength="526.0417" x="289.3229" y="30.5583">com.telenav.kivakit.core.logging.logs.text.formatters</text><!--MD5=[19efa5e18a12245025a3d142d5df0842]
cluster WideLogFormatter--><polygon fill="#333333" points="921.3542,52.6611,1052.6042,52.6611,1059.8958,79.8828,1101.5625,79.8828,1101.5625,214.1195,921.3542,214.1195,921.3542,52.6611" style="stroke:#333333;stroke-width:2.0833333333333335;"/><line style="stroke:#333333;stroke-width:2.0833333333333335;" x1="921.3542" x2="1059.8958" y1="79.8828" y2="79.8828"/><text fill="#C8AC00" font-family="Open Sans,Avenir,Nunito,Arial,Helvetica,SansSerif" font-size="12.5" font-weight="bold" lengthAdjust="spacing" textLength="118.75" x="928.6458" y="69.9544">WideLogFormatter</text><!--MD5=[d0893b8d387282b2ad03c388b89bb485]
class WideLogFormatter.TimeType--><rect codeLine="47" fill="#282828" height="87.5448" id="WideLogFormatter.TimeType" rx="8.3333" ry="8.3333" style="stroke:#5E5E5E;stroke-width:1.0416666666666667;" width="109.375" x="966.6667" y="101.6195"/><rect fill="#1B1B1A" height="31.3883" rx="8.3333" ry="8.3333" style="stroke:#1B1B1A;stroke-width:1.0416666666666667;" width="109.375" x="966.6667" y="101.6195"/><rect fill="#1B1B1A" height="8.3333" style="stroke:#1B1B1A;stroke-width:1.0416666666666667;" width="109.375" x="966.6667" y="124.6745"/><rect codeLine="47" fill="none" height="87.5448" id="WideLogFormatter.TimeType" rx="8.3333" ry="8.3333" style="stroke:#5E5E5E;stroke-width:1.0416666666666667;" width="109.375" x="966.6667" y="101.6195"/><ellipse cx="985" cy="117.3136" fill="#CF6300" rx="10.4167" ry="10.4167" style="stroke:#EF8300;stroke-width:1.0416666666666667;"/><path d="M988.0558,122.0011 L982.3796,122.0011 L982.3796,112.8886 L988.0558,112.8886 L988.0558,114.4755 L984.1801,114.4755 L984.1801,116.4408 L987.6896,116.4408 L987.6896,118.0278 L984.1801,118.0278 L984.1801,120.4142 L988.0558,120.4142 Z " fill="#000000"/><text fill="#D8BC00" font-family="Open Sans,Avenir,Nunito,Arial,Helvetica,SansSerif" font-size="12.5" font-weight="bold" lengthAdjust="spacing" textLength="63.5417" x="1002.5" y="122.0378">TimeType</text><line style="stroke:#5E5E5E;stroke-width:1.0416666666666667;" x1="967.7083" x2="1075" y1="133.0078" y2="133.0078"/><text fill="#D8BC00" font-family="Open Sans,Avenir,Nunito,Arial,Helvetica,SansSerif" font-size="11.4583" lengthAdjust="spacing" textLength="90.625" x="976.0417" y="151.3774">ABSOLUTE_TIME</text><text fill="#D8BC00" font-family="Open Sans,Avenir,Nunito,Arial,Helvetica,SansSerif" font-size="11.4583" lengthAdjust="spacing" textLength="47.9167" x="976.0417" y="171.1222">ELAPSED</text><line style="stroke:#5E5E5E;stroke-width:1.0416666666666667;" x1="967.7083" x2="1075" y1="180.8309" y2="180.8309"/><!--MD5=[651d7bd40758e07e3d540685fd3cd5ed]
class BaseColumnarFormatter--><rect codeLine="12" fill="#282828" height="48.055" id="BaseColumnarFormatter" rx="8.3333" ry="8.3333" style="stroke:#5E5E5E;stroke-width:1.0416666666666667;" width="194.7917" x="623.9583" y="281.307"/><rect fill="#1B1B1A" height="31.3883" rx="8.3333" ry="8.3333" style="stroke:#1B1B1A;stroke-width:1.0416666666666667;" width="194.7917" x="623.9583" y="281.307"/><rect fill="#1B1B1A" height="8.3333" style="stroke:#1B1B1A;stroke-width:1.0416666666666667;" width="194.7917" x="623.9583" y="304.362"/><rect codeLine="12" fill="none" height="48.055" id="BaseColumnarFormatter" rx="8.3333" ry="8.3333" style="stroke:#5E5E5E;stroke-width:1.0416666666666667;" width="194.7917" x="623.9583" y="281.307"/><ellipse cx="638.5417" cy="297.0011" fill="#C8AC00" rx="10.4167" ry="10.4167" style="stroke:#D8BC00;stroke-width:1.0416666666666667;"/><path d="M638.1348,293.7032 L637.2864,297.4325 L638.9893,297.4325 Z M637.0361,292.0553 L639.2395,292.0553 L641.6992,301.1678 L639.8987,301.1678 L639.3372,298.9156 L636.9263,298.9156 L636.377,301.1678 L634.5764,301.1678 Z " fill="#000000"/><text fill="#D8BC00" font-family="Open Sans,Avenir,Nunito,Arial,Helvetica,SansSerif" font-size="12.5" font-style="italic" font-weight="bold" lengthAdjust="spacing" textLength="157.2917" x="655.2083" y="301.7253">BaseColumnarFormatter</text><line style="stroke:#5E5E5E;stroke-width:1.0416666666666667;" x1="625" x2="817.7083" y1="312.6953" y2="312.6953"/><line style="stroke:#5E5E5E;stroke-width:1.0416666666666667;" x1="625" x2="817.7083" y1="321.0286" y2="321.0286"/><!--MD5=[ca03de30295a9a25698e97f1d925bd74]
class LogFormatter--><rect codeLine="9" fill="#282828" height="48.055" id="LogFormatter" rx="8.3333" ry="8.3333" style="stroke:#5E5E5E;stroke-width:1.0416666666666667;" width="125" x="768.2292" y="121.4111"/><rect fill="#1B1B1A" height="31.3883" rx="8.3333" ry="8.3333" style="stroke:#1B1B1A;stroke-width:1.0416666666666667;" width="125" x="768.2292" y="121.4111"/><rect fill="#1B1B1A" height="8.3333" style="stroke:#1B1B1A;stroke-width:1.0416666666666667;" width="125" x="768.2292" y="144.4661"/><rect codeLine="9" fill="none" height="48.055" id="LogFormatter" rx="8.3333" ry="8.3333" style="stroke:#5E5E5E;stroke-width:1.0416666666666667;" width="125" x="768.2292" y="121.4111"/><ellipse cx="782.8125" cy="137.1053" fill="#008400" rx="10.4167" ry="10.4167" style="stroke:#239C23;stroke-width:1.0416666666666667;"/><path d="M780.2165,134.2672 L780.2165,132.6803 L785.6425,132.6803 L785.6425,134.2672 L783.8298,134.2672 L783.8298,140.2059 L785.6425,140.2059 L785.6425,141.7928 L780.2165,141.7928 L780.2165,140.2059 L782.0292,140.2059 L782.0292,134.2672 Z " fill="#000000"/><text fill="#D8BC00" font-family="Open Sans,Avenir,Nunito,Arial,Helvetica,SansSerif" font-size="12.5" font-style="italic" font-weight="bold" lengthAdjust="spacing" textLength="87.5" x="799.4792" y="141.8294">LogFormatter</text><line style="stroke:#5E5E5E;stroke-width:1.0416666666666667;" x1="769.2708" x2="892.1875" y1="152.7995" y2="152.7995"/><line style="stroke:#5E5E5E;stroke-width:1.0416666666666667;" x1="769.2708" x2="892.1875" y1="161.1328" y2="161.1328"/><!--MD5=[aa35dd44d4a757c5c4e954792b5ba6f2]
class BaseColumnarFormatter.Column--><rect codeLine="16" fill="#282828" height="83.3781" id="BaseColumnarFormatter.Column" rx="8.3333" ry="8.3333" style="stroke:#5E5E5E;stroke-width:1.0416666666666667;" width="248.9583" x="9.375" y="263.5986"/><rect fill="#1B1B1A" height="31.3883" rx="8.3333" ry="8.3333" style="stroke:#1B1B1A;stroke-width:1.0416666666666667;" width="248.9583" x="9.375" y="263.5986"/><rect fill="#1B1B1A" height="8.3333" style="stroke:#1B1B1A;stroke-width:1.0416666666666667;" width="248.9583" x="9.375" y="286.6536"/><rect codeLine="16" fill="none" height="83.3781" id="BaseColumnarFormatter.Column" rx="8.3333" ry="8.3333" style="stroke:#5E5E5E;stroke-width:1.0416666666666667;" width="248.9583" x="9.375" y="263.5986"/><ellipse cx="23.9583" cy="279.2928" fill="#0066CF" rx="10.4167" ry="10.4167" style="stroke:#0086EF;stroke-width:1.0416666666666667;"/><path d="M25.8687,283.7179 Q25.4415,283.9376 24.9715,284.0474 Q24.5015,284.1573 23.9827,284.1573 Q22.1395,284.1573 21.169,282.9427 Q20.1986,281.7281 20.1986,279.4332 Q20.1986,277.1322 21.169,275.9176 Q22.1395,274.703 23.9827,274.703 Q24.5015,274.703 24.9776,274.8128 Q25.4537,274.9227 25.8687,275.1424 L25.8687,277.1444 Q25.4049,276.7171 24.9685,276.5188 Q24.5321,276.3204 24.0682,276.3204 Q23.0794,276.3204 22.5759,277.1047 Q22.0723,277.889 22.0723,279.4332 Q22.0723,280.9713 22.5759,281.7556 Q23.0794,282.5399 24.0682,282.5399 Q24.5321,282.5399 24.9685,282.3415 Q25.4049,282.1431 25.8687,281.7159 Z " fill="#000000"/><text fill="#D8BC00" font-family="Open Sans,Avenir,Nunito,Arial,Helvetica,SansSerif" font-size="12.5" font-weight="bold" lengthAdjust="spacing" textLength="211.4583" x="40.625" y="284.0169">BaseColumnarFormatter.Column</text><line style="stroke:#5E5E5E;stroke-width:1.5625;" x1="10.4167" x2="257.2917" y1="294.987" y2="294.987"/><polygon fill="#FFFF44" points="20.8333,325.1485,25,329.3152,20.8333,333.4819,16.6667,329.3152" style="stroke:#B38D22;stroke-width:1.0416666666666667;"/><text fill="#D8BC00" font-family="Open Sans,Avenir,Nunito,Arial,Helvetica,SansSerif" font-size="11.4583" lengthAdjust="spacing" textLength="175" x="32.2917" y="337.2681">Column(int, int, ColumnLayout)</text><line style="stroke:#5E5E5E;stroke-width:1.0416666666666667;" x1="10.4167" x2="90.1042" y1="313.1927" y2="313.1927"/><text fill="#D8BC00" font-family="Open Sans,Avenir,Nunito,Arial,Helvetica,SansSerif" font-size="11.4583" lengthAdjust="spacing" textLength="81.25" x="93.2292" y="317.0024">(constructors)</text><line style="stroke:#5E5E5E;stroke-width:1.0416666666666667;" x1="177.6042" x2="257.2917" y1="313.1927" y2="313.1927"/><!--MD5=[a9872e3be6166f3ac146ea16b20996f4]
class BaseColumnarFormatter.ColumnLayout--><rect codeLine="22" fill="#282828" height="107.2896" id="BaseColumnarFormatter.ColumnLayout" rx="8.3333" ry="8.3333" style="stroke:#5E5E5E;stroke-width:1.0416666666666667;" width="292.7083" x="294.7917" y="251.6195"/><rect fill="#1B1B1A" height="31.3883" rx="8.3333" ry="8.3333" style="stroke:#1B1B1A;stroke-width:1.0416666666666667;" width="292.7083" x="294.7917" y="251.6195"/><rect fill="#1B1B1A" height="8.3333" style="stroke:#1B1B1A;stroke-width:1.0416666666666667;" width="292.7083" x="294.7917" y="274.6745"/><rect codeLine="22" fill="none" height="107.2896" id="BaseColumnarFormatter.ColumnLayout" rx="8.3333" ry="8.3333" style="stroke:#5E5E5E;stroke-width:1.0416666666666667;" width="292.7083" x="294.7917" y="251.6195"/><ellipse cx="309.375" cy="267.3136" fill="#CF6300" rx="10.4167" ry="10.4167" style="stroke:#EF8300;stroke-width:1.0416666666666667;"/><path d="M312.4308,272.0011 L306.7546,272.0011 L306.7546,262.8886 L312.4308,262.8886 L312.4308,264.4755 L308.5551,264.4755 L308.5551,266.4408 L312.0646,266.4408 L312.0646,268.0278 L308.5551,268.0278 L308.5551,270.4142 L312.4308,270.4142 Z " fill="#000000"/><text fill="#D8BC00" font-family="Open Sans,Avenir,Nunito,Arial,Helvetica,SansSerif" font-size="12.5" font-weight="bold" lengthAdjust="spacing" textLength="255.2083" x="326.0417" y="272.0378">BaseColumnarFormatter.ColumnLayout</text><line style="stroke:#5E5E5E;stroke-width:1.0416666666666667;" x1="295.8333" x2="586.4583" y1="283.0078" y2="283.0078"/><text fill="#D8BC00" font-family="Open Sans,Avenir,Nunito,Arial,Helvetica,SansSerif" font-size="11.4583" lengthAdjust="spacing" textLength="56.25" x="304.1667" y="301.3774">CLIP_LEFT</text><text fill="#D8BC00" font-family="Open Sans,Avenir,Nunito,Arial,Helvetica,SansSerif" font-size="11.4583" lengthAdjust="spacing" textLength="64.5833" x="304.1667" y="321.1222">CLIP_RIGHT</text><text fill="#D8BC00" font-family="Open Sans,Avenir,Nunito,Arial,Helvetica,SansSerif" font-size="11.4583" lengthAdjust="spacing" textLength="31.25" x="304.1667" y="340.8671">WRAP</text><line style="stroke:#5E5E5E;stroke-width:1.0416666666666667;" x1="295.8333" x2="586.4583" y1="350.5758" y2="350.5758"/><!--MD5=[81bcda71807c8f586a6e4596bb8fffac]
class BaseColumnarFormatter.LineOutput--><rect codeLine="29" fill="#282828" height="111.4563" id="BaseColumnarFormatter.LineOutput" rx="8.3333" ry="8.3333" style="stroke:#5E5E5E;stroke-width:1.0416666666666667;" width="272.9167" x="27.6042" y="421.4111"/><rect fill="#1B1B1A" height="31.3883" rx="8.3333" ry="8.3333" style="stroke:#1B1B1A;stroke-width:1.0416666666666667;" width="272.9167" x="27.6042" y="421.4111"/><rect fill="#1B1B1A" height="8.3333" style="stroke:#1B1B1A;stroke-width:1.0416666666666667;" width="272.9167" x="27.6042" y="444.4661"/><rect codeLine="29" fill="none" height="111.4563" id="BaseColumnarFormatter.LineOutput" rx="8.3333" ry="8.3333" style="stroke:#5E5E5E;stroke-width:1.0416666666666667;" width="272.9167" x="27.6042" y="421.4111"/><ellipse cx="43.125" cy="437.1053" fill="#0066CF" rx="10.4167" ry="10.4167" style="stroke:#0086EF;stroke-width:1.0416666666666667;"/><path d="M45.0354,441.5304 Q44.6082,441.7501 44.1382,441.8599 Q43.6682,441.9698 43.1494,441.9698 Q41.3062,441.9698 40.3357,440.7552 Q39.3652,439.5406 39.3652,437.2457 Q39.3652,434.9447 40.3357,433.7301 Q41.3062,432.5155 43.1494,432.5155 Q43.6682,432.5155 44.1443,432.6253 Q44.6204,432.7352 45.0354,432.9549 L45.0354,434.9569 Q44.5715,434.5296 44.1351,434.3313 Q43.6987,434.1329 43.2349,434.1329 Q42.2461,434.1329 41.7426,434.9172 Q41.239,435.7015 41.239,437.2457 Q41.239,438.7838 41.7426,439.5681 Q42.2461,440.3524 43.2349,440.3524 Q43.6987,440.3524 44.1351,440.154 Q44.5715,439.9556 45.0354,439.5284 Z " fill="#000000"/><text fill="#D8BC00" font-family="Open Sans,Avenir,Nunito,Arial,Helvetica,SansSerif" font-size="12.5" font-weight="bold" lengthAdjust="spacing" textLength="233.3333" x="60" y="441.8294">BaseColumnarFormatter.LineOutput</text><line style="stroke:#5E5E5E;stroke-width:1.5625;" x1="28.6458" x2="299.4792" y1="452.7995" y2="452.7995"/><line style="stroke:#5E5E5E;stroke-width:1.0416666666666667;" x1="28.6458" x2="299.4792" y1="461.1328" y2="461.1328"/><polygon fill="#FFFF44" points="39.0625,467.3828,43.2292,471.5495,39.0625,475.7161,34.8958,471.5495" style="stroke:#B38D22;stroke-width:1.0416666666666667;"/><text fill="#D8BC00" font-family="Open Sans,Avenir,Nunito,Arial,Helvetica,SansSerif" font-size="11.4583" lengthAdjust="spacing" textLength="82.2917" x="50.5208" y="479.5024">String format()</text><polygon fill="#FFFF44" points="39.0625,511.0392,43.2292,515.2059,39.0625,519.3726,34.8958,515.2059" style="stroke:#B38D22;stroke-width:1.0416666666666667;"/><text fill="#D8BC00" font-family="Open Sans,Avenir,Nunito,Arial,Helvetica,SansSerif" font-size="11.4583" lengthAdjust="spacing" textLength="240.625" x="50.5208" y="523.1588">void addColumnText(Column, String value)</text><line style="stroke:#5E5E5E;stroke-width:1.0416666666666667;" x1="28.6458" x2="129.6875" y1="499.0835" y2="499.0835"/><text fill="#D8BC00" font-family="Open Sans,Avenir,Nunito,Arial,Helvetica,SansSerif" font-size="11.4583" lengthAdjust="spacing" textLength="62.5" x="132.8125" y="502.8931">(collection)</text><line style="stroke:#5E5E5E;stroke-width:1.0416666666666667;" x1="198.4375" x2="299.4792" y1="499.0835" y2="499.0835"/><!--MD5=[23a186f05b2dc9a0302ec7810856a918]
class NarrowLogFormatter--><rect codeLine="38" fill="#282828" height="48.055" id="NarrowLogFormatter" rx="8.3333" ry="8.3333" style="stroke:#5E5E5E;stroke-width:1.0416666666666667;" width="170.8333" x="635.9375" y="453.182"/><rect fill="#1B1B1A" height="31.3883" rx="8.3333" ry="8.3333" style="stroke:#1B1B1A;stroke-width:1.0416666666666667;" width="170.8333" x="635.9375" y="453.182"/><rect fill="#1B1B1A" height="8.3333" style="stroke:#1B1B1A;stroke-width:1.0416666666666667;" width="170.8333" x="635.9375" y="476.237"/><rect codeLine="38" fill="none" height="48.055" id="NarrowLogFormatter" rx="8.3333" ry="8.3333" style="stroke:#5E5E5E;stroke-width:1.0416666666666667;" width="170.8333" x="635.9375" y="453.182"/><ellipse cx="650.5208" cy="468.8761" fill="#0066CF" rx="10.4167" ry="10.4167" style="stroke:#0086EF;stroke-width:1.0416666666666667;"/><path d="M652.4312,473.3012 Q652.004,473.5209 651.534,473.6308 Q651.064,473.7406 650.5452,473.7406 Q648.702,473.7406 647.7315,472.526 Q646.7611,471.3114 646.7611,469.0165 Q646.7611,466.7155 647.7315,465.5009 Q648.702,464.2863 650.5452,464.2863 Q651.064,464.2863 651.5401,464.3962 Q652.0162,464.506 652.4312,464.7257 L652.4312,466.7277 Q651.9674,466.3005 651.531,466.1021 Q651.0946,465.9037 650.6307,465.9037 Q649.6419,465.9037 649.1384,466.688 Q648.6348,467.4723 648.6348,469.0165 Q648.6348,470.5546 649.1384,471.3389 Q649.6419,472.1232 650.6307,472.1232 Q651.0946,472.1232 651.531,471.9248 Q651.9674,471.7265 652.4312,471.2992 Z " fill="#000000"/><text fill="#D8BC00" font-family="Open Sans,Avenir,Nunito,Arial,Helvetica,SansSerif" font-size="12.5" font-weight="bold" lengthAdjust="spacing" textLength="133.3333" x="667.1875" y="473.6003">NarrowLogFormatter</text><line style="stroke:#5E5E5E;stroke-width:1.0416666666666667;" x1="636.9792" x2="805.7292" y1="484.5703" y2="484.5703"/><line style="stroke:#5E5E5E;stroke-width:1.0416666666666667;" x1="636.9792" x2="805.7292" y1="492.9036" y2="492.9036"/><!--MD5=[a4ca27efa71f9d8926f1f52156603bfa]
class SimpleLogFormatter--><rect codeLine="43" fill="#282828" height="48.055" id="SimpleLogFormatter" rx="8.3333" ry="8.3333" style="stroke:#5E5E5E;stroke-width:1.0416666666666667;" width="168.75" x="855.7292" y="281.307"/><rect fill="#1B1B1A" height="31.3883" rx="8.3333" ry="8.3333" style="stroke:#1B1B1A;stroke-width:1.0416666666666667;" width="168.75" x="855.7292" y="281.307"/><rect fill="#1B1B1A" height="8.3333" style="stroke:#1B1B1A;stroke-width:1.0416666666666667;" width="168.75" x="855.7292" y="304.362"/><rect codeLine="43" fill="none" height="48.055" id="SimpleLogFormatter" rx="8.3333" ry="8.3333" style="stroke:#5E5E5E;stroke-width:1.0416666666666667;" width="168.75" x="855.7292" y="281.307"/><ellipse cx="870.3125" cy="297.0011" fill="#0066CF" rx="10.4167" ry="10.4167" style="stroke:#0086EF;stroke-width:1.0416666666666667;"/><path d="M872.2229,301.4262 Q871.7957,301.6459 871.3257,301.7558 Q870.8557,301.8656 870.3369,301.8656 Q868.4937,301.8656 867.5232,300.651 Q866.5527,299.4364 866.5527,297.1415 Q866.5527,294.8405 867.5232,293.6259 Q868.4937,292.4113 870.3369,292.4113 Q870.8557,292.4113 871.3318,292.5212 Q871.8079,292.631 872.2229,292.8507 L872.2229,294.8527 Q871.759,294.4255 871.3226,294.2271 Q870.8862,294.0287 870.4224,294.0287 Q869.4336,294.0287 868.9301,294.813 Q868.4265,295.5973 868.4265,297.1415 Q868.4265,298.6796 868.9301,299.4639 Q869.4336,300.2482 870.4224,300.2482 Q870.8862,300.2482 871.3226,300.0498 Q871.759,299.8515 872.2229,299.4242 Z " fill="#000000"/><text fill="#D8BC00" font-family="Open Sans,Avenir,Nunito,Arial,Helvetica,SansSerif" font-size="12.5" font-weight="bold" lengthAdjust="spacing" textLength="131.25" x="886.9792" y="301.7253">SimpleLogFormatter</text><line style="stroke:#5E5E5E;stroke-width:1.0416666666666667;" x1="856.7708" x2="1023.4375" y1="312.6953" y2="312.6953"/><line style="stroke:#5E5E5E;stroke-width:1.0416666666666667;" x1="856.7708" x2="1023.4375" y1="321.0286" y2="321.0286"/><!--MD5=[2803a5db356c9b4294b77d7724e678c1]
class WideLogFormatter--><rect codeLine="54" fill="#282828" height="83.3781" id="WideLogFormatter" rx="8.3333" ry="8.3333" style="stroke:#5E5E5E;stroke-width:1.0416666666666667;" width="172.9167" x="396.3542" y="435.4736"/><rect fill="#1B1B1A" height="31.3883" rx="8.3333" ry="8.3333" style="stroke:#1B1B1A;stroke-width:1.0416666666666667;" width="172.9167" x="396.3542" y="435.4736"/><rect fill="#1B1B1A" height="8.3333" style="stroke:#1B1B1A;stroke-width:1.0416666666666667;" width="172.9167" x="396.3542" y="458.5286"/><rect codeLine="54" fill="none" height="83.3781" id="WideLogFormatter" rx="8.3333" ry="8.3333" style="stroke:#5E5E5E;stroke-width:1.0416666666666667;" width="172.9167" x="396.3542" y="435.4736"/><ellipse cx="418.4375" cy="451.1678" fill="#0066CF" rx="10.4167" ry="10.4167" style="stroke:#0086EF;stroke-width:1.0416666666666667;"/><path d="M420.3479,455.5929 Q419.9207,455.8126 419.4507,455.9224 Q418.9807,456.0323 418.4619,456.0323 Q416.6187,456.0323 415.6482,454.8177 Q414.6777,453.6031 414.6777,451.3082 Q414.6777,449.0072 415.6482,447.7926 Q416.6187,446.578 418.4619,446.578 Q418.9807,446.578 419.4568,446.6878 Q419.9329,446.7977 420.3479,447.0174 L420.3479,449.0194 Q419.884,448.5921 419.4476,448.3938 Q419.0112,448.1954 418.5474,448.1954 Q417.5586,448.1954 417.0551,448.9797 Q416.5515,449.764 416.5515,451.3082 Q416.5515,452.8463 417.0551,453.6306 Q417.5586,454.4149 418.5474,454.4149 Q419.0112,454.4149 419.4476,454.2165 Q419.884,454.0181 420.3479,453.5909 Z " fill="#000000"/><text fill="#D8BC00" font-family="Open Sans,Avenir,Nunito,Arial,Helvetica,SansSerif" font-size="12.5" font-weight="bold" lengthAdjust="spacing" textLength="118.75" x="436.7708" y="455.8919">WideLogFormatter</text><line style="stroke:#5E5E5E;stroke-width:1.5625;" x1="397.3958" x2="568.2292" y1="466.862" y2="466.862"/><ellipse cx="407.8125" cy="502.2319" fill="#84BE84" rx="3.125" ry="3.125" style="stroke:#038048;stroke-width:1.0416666666666667;"/><text fill="#D8BC00" font-family="Open Sans,Avenir,Nunito,Arial,Helvetica,SansSerif" font-size="11.4583" lengthAdjust="spacing" textLength="140.625" x="419.2708" y="509.1431">void timeType(TimeType)</text><line style="stroke:#5E5E5E;stroke-width:1.0416666666666667;" x1="397.3958" x2="463.5417" y1="485.0677" y2="485.0677"/><text fill="#D8BC00" font-family="Open Sans,Avenir,Nunito,Arial,Helvetica,SansSerif" font-size="11.4583" lengthAdjust="spacing" textLength="32.2917" x="466.6667" y="488.8774">(time)</text><line style="stroke:#5E5E5E;stroke-width:1.0416666666666667;" x1="502.0833" x2="568.2292" y1="485.0677" y2="485.0677"/><!--MD5=[d16375924b18a5610edec3f78e243ac2]
reverse link LogFormatter to BaseColumnarFormatter--><path codeLine="11" d="M802.9271,186.5257 C782.1458,216.5153 754.4583,256.4632 737.2813,281.2445 " fill="none" id="LogFormatter-backto-BaseColumnarFormatter" style="stroke:#545454;stroke-width:1.5625;"/><polygon fill="none" points="796.9688,182.3278,814.8229,169.359,808.9479,190.6299,796.9688,182.3278" style="stroke:#545454;stroke-width:1.5625;"/><!--MD5=[d9511dbd06e36d8bcd6513c67349dba7]
reverse link BaseColumnarFormatter to NarrowLogFormatter--><path codeLine="37" d="M721.3542,350.734 C721.3542,383.5778 721.3542,426.9528 721.3542,453.1299 " fill="none" id="BaseColumnarFormatter-backto-NarrowLogFormatter" style="stroke:#545454;stroke-width:1.5625;"/><polygon fill="none" points="714.0625,350.3903,721.3542,329.557,728.6458,350.3903,714.0625,350.3903" style="stroke:#545454;stroke-width:1.5625;"/><!--MD5=[c5b544acd246263baa6144448a847149]
reverse link LogFormatter to SimpleLogFormatter--><path codeLine="42" d="M858.5313,186.5257 C879.3125,216.5153 907,256.4632 924.1771,281.2445 " fill="none" id="LogFormatter-backto-SimpleLogFormatter" style="stroke:#545454;stroke-width:1.5625;"/><polygon fill="none" points="852.5104,190.6299,846.6354,169.359,864.4896,182.3278,852.5104,190.6299" style="stroke:#545454;stroke-width:1.5625;"/><!--MD5=[c05aac6adc3aaa51b7c3e80fb841ee00]
reverse link BaseColumnarFormatter to WideLogFormatter--><path codeLine="53" d="M671.7083,341.6403 C633.4167,368.9007 580.375,406.6507 540.25,435.2132 " fill="none" id="BaseColumnarFormatter-backto-WideLogFormatter" style="stroke:#545454;stroke-width:1.5625;"/><polygon fill="none" points="667.4896,335.7028,688.6875,329.557,675.9375,347.5778,667.4896,335.7028" style="stroke:#545454;stroke-width:1.5625;"/><!--MD5=[0fa32159b602bf5b5f4418cf7b72ec07]
link BaseColumnarFormatter.Column to BaseColumnarFormatter.ColumnLayout--><!--MD5=[1c749db4abfd9d8900aaa43343884fdb]
link BaseColumnarFormatter.Column to BaseColumnarFormatter.LineOutput--><!--MD5=[cd49483fe0b52f4cecd18d01478e7e02]
link BaseColumnarFormatter.LineOutput to WideLogFormatter--><!--MD5=[d92edb251833976ffea877ea6b6812ff]
@startuml

    !include lexakai.theme
    
    title "com.telenav.kivakit.core.logging.logs.text.formatters"
    
    abstract BaseColumnarFormatter
    
    interface LogFormatter
    
    LogFormatter <|- - BaseColumnarFormatter
    abstract class BaseColumnarFormatter
    {
    }
    
    class BaseColumnarFormatter.Column
    {
        - -(constructors)- -
        #Column(int, int, ColumnLayout)
    }
    
    enum BaseColumnarFormatter.ColumnLayout
    {
        CLIP_LEFT
        CLIP_RIGHT
        WRAP
    }
    
    class BaseColumnarFormatter.LineOutput
    {
        - -
        #String format()
        - -(collection)- -
        #void addColumnText(Column, String value)
    }
    
    BaseColumnarFormatter <|- - NarrowLogFormatter
    class NarrowLogFormatter
    {
    }
    
    LogFormatter <|- - SimpleLogFormatter
    class SimpleLogFormatter
    {
    }
    
    enum WideLogFormatter.TimeType
    {
        ABSOLUTE_TIME
        ELAPSED
    }
    
    BaseColumnarFormatter <|- - WideLogFormatter
    class WideLogFormatter
    {
        - -(time)- -
        +void timeType(TimeType)
    }
    
@enduml

@startuml









skinparam backgroundColor #333333






skinparam  {
    defaultFontName   "Open Sans,Avenir,Nunito,Arial,Helvetica,SansSerif"
    defaultFontSize   12
    defaultTextAlignment left
    shadowing false
    RoundCorner 10
    TitleFontSize 18
}

skinparam defaultFontName       "Open Sans,Avenir,Nunito,Arial,Helvetica,SansSerif"
skinparam defaultFontSize       12
skinparam dpi                   100
skinparam shadowing             false
skinparam roundcorner           16
skinparam ParticipantPadding    40
skinparam BoxPadding            40
skinparam Padding               3
skinparam ArrowColor            #545454
skinparam stereotype {
    CBackgroundColor #0066cf
    CBorderColor #0086ef
    ABackgroundColor #C8Ac00
    ABorderColor #D8Bc00
    IBackgroundColor #008400
    IBorderColor #239c23
    EBackgroundColor #cf6300
    EBorderColor #ef8300
    NBackgroundColor #3380b9
    NBorderColor #004d86
}
skinparam title {
	FontColor	                 #c0c0c0
 	BorderColor                  #545454
	FontSize	    	         20
	BorderRoundCorner            16
	BorderThickness 	         1
	BackgroundColor              #48494b
}


skinparam legend {
	BackgroundColor #303030
	BorderColor #404040
	FontColor #a0a0a0
}

	skinparam swimlane {
	BorderColor #5e5e5e
	BorderThickness 2
	TitleBackgroundColor  #6d6d6d-#484848
	TitleFontColor #303030
}

skinparam activity {
		FontColor #C8Ac00
	BorderColor #333333
	BackgroundColor #333333-#333333
	BarColor #00FF00
	StartColor #0060a8
	EndColor #0060a8
	DiamondBackgroundColor #6d6d6d-#3a3a3a
  	DiamondBorderColor #3a3a3a
  	DiamondFontColor #fefefe
}


skinparam participant {
		FontColor #C8Ac00
	BorderColor #333333
	BackgroundColor #333333-#333333
	ParticipantBorderThickness 2
}


skinparam actor {
		FontColor #C8Ac00
	BorderColor #333333
	BackgroundColor #333333-#333333
}


skinparam arrow {
	Thickness 1.5
	Color #545454
	FontColor #a0a0a0
    FontStyle bold
    MessageAlignment center
}



skinparam sequence {
	BorderColor #303030
	TitleFontColor #303030
	BackgroundColor #333333
	StartColor #303030
	EndColor #303030
	BoxBackgroundColor #333333
	BoxBorderColor #484848
	BoxFontColor #484848
	LifeLineBorderColor #484848
	LifeLineBorderThickness 2
	LifeLineBackgroundColor #3a3a3a
	GroupBorderColor #484848
	GroupFontColor #484848
	GroupHeaderFontColor #0060a8
	GroupBackgroundColor #484848
	GroupHeaderBackgroundColor #333333
	DividerBackgroundColor #484848
    DividerBorderColor #484848
    DividerBorderThickness 2
    DividerFontColor #D8Bc00
	ReferenceBackgroundColor #333333
	ReferenceBorderColor #484848
	ReferenceFontColor #fefefe
	ReferenceHeaderBackgroundColor #484848
}


skinparam partition {
	BorderColor #303030
	FontColor #333333
	BackgroundColor #333333
}


skinparam collections {
		FontColor #C8Ac00
	BorderColor #333333
	BackgroundColor #333333-#333333
}


skinparam control {
		FontColor #C8Ac00
	BorderColor #333333
	BackgroundColor #333333-#333333
}


skinparam entity {
		FontColor #C8Ac00
	BorderColor #333333
	BackgroundColor #333333-#333333
}


skinparam boundary {
		FontColor #C8Ac00
	BorderColor #333333
	BackgroundColor #333333-#333333
}


skinparam agent {
	BackgroundColor #ff8000
	BorderColor #ff9933
	FontColor #484848
}


skinparam note {
	BorderThickness 1
	BackgroundColor #1b1b1a
	BorderColor #5e5e5e
	FontSize 11
	FontColor #a0a0a0
}


skinparam artifact {
	BorderThickness 10
	BorderColor #5e5e5e
	BackgroundColor #1b1b1a
	FontColor #D8Bc00
}


skinparam component {
		FontColor #C8Ac00
	BorderColor #333333
	BackgroundColor #333333-#333333
}


skinparam interface {
	BackgroundColor  #008400
	BorderColor  #007F00
	FontColor #484848
}


skinparam storage {
	BackgroundColor #ff8000
  	BorderColor #cc6600
	FontColor #222222
}


skinparam node {
	BackgroundColor #333333
	BorderColor #333333
	FontColor #C8Ac00
}


skinparam cloud {
	BackgroundColor #484848-black
	BorderColor #484848
	FontColor #D8Bc00
}


skinparam database {
		FontColor #C8Ac00
	BorderColor #333333
	BackgroundColor #333333-#333333
	BackgroundColor  #333333
}


skinparam class {
		FontColor #C8Ac00
	BorderColor #333333
	BackgroundColor #333333-#333333
	HeaderBackgroundColor #1b1b1a
    BackgroundColor #282828
    BorderColor #5e5e5e
 	StereotypeFontColor #a0a0a0
    StereotypeFontStyle bold
	BorderThickness 1
	AttributeFontColor #D8Bc00
	AttributeFontSize 11
    FontColor #D8Bc00
    FontStyle bold
}


skinparam object {
		FontColor #C8Ac00
	BorderColor #333333
	BackgroundColor #333333-#333333
	StereotypeFontColor #484848
	BorderThickness 1
	AttributeFontColor #fefefe
	AttributeFontSize 11
}


skinparam usecase {
		FontColor #C8Ac00
	BorderColor #333333
	BackgroundColor #333333-#333333
	BorderThickness 2
	StereotypeFontColor #303030
}


skinparam rectangle {
		FontColor #C8Ac00
	BorderColor #333333
	BackgroundColor #333333-#333333
	BackgroundColor #333333
	BorderThickness 2
	StereotypeFontColor #303030
}


skinparam package {
		FontColor #C8Ac00
	BorderColor #333333
	BackgroundColor #333333-#333333
	BackgroundColor #333333
	BorderThickness 2
}


skinparam folder {
	BackgroundColor #6d6d6d
  	BorderColor #ff8000
	FontColor #ff8000
	BorderThickness 2
}


skinparam frame {
	BackgroundColor #6d6d6d
  	BorderColor #0060a8
	FontColor #0060a8
	BorderThickness 2
}


skinparam state {
		FontColor #C8Ac00
	BorderColor #333333
	BackgroundColor #333333-#333333
	StartColor #0060a8
	EndColor #0060a8
	AttributeFontColor #fefefe
	AttributeFontSize 11
}


skinparam queue {
		FontColor #C8Ac00
	BorderColor #333333
	BackgroundColor #333333-#333333
}


skinparam card {
	BackgroundColor #0060a8
	BorderColor #004d86
	FontColor $INFO_TEXT
}


skinparam file {
	BackgroundColor #6d6d6d-#484848
	BorderColor #0060a8
	FontColor #fefefe
}


skinparam stack {
		FontColor #C8Ac00
	BorderColor #333333
	BackgroundColor #333333-#333333
}

    
    title "com.telenav.kivakit.core.logging.logs.text.formatters"
    
    abstract BaseColumnarFormatter
    
    interface LogFormatter
    
    LogFormatter <|- - BaseColumnarFormatter
    abstract class BaseColumnarFormatter
    {
    }
    
    class BaseColumnarFormatter.Column
    {
        - -(constructors)- -
        #Column(int, int, ColumnLayout)
    }
    
    enum BaseColumnarFormatter.ColumnLayout
    {
        CLIP_LEFT
        CLIP_RIGHT
        WRAP
    }
    
    class BaseColumnarFormatter.LineOutput
    {
        - -
        #String format()
        - -(collection)- -
        #void addColumnText(Column, String value)
    }
    
    BaseColumnarFormatter <|- - NarrowLogFormatter
    class NarrowLogFormatter
    {
    }
    
    LogFormatter <|- - SimpleLogFormatter
    class SimpleLogFormatter
    {
    }
    
    enum WideLogFormatter.TimeType
    {
        ABSOLUTE_TIME
        ELAPSED
    }
    
    BaseColumnarFormatter <|- - WideLogFormatter
    class WideLogFormatter
    {
        - -(time)- -
        +void timeType(TimeType)
    }
    
@enduml

PlantUML version 1.2021.01(Tue Feb 02 00:55:08 MST 2021)
(GPL source distribution)
Java Runtime: OpenJDK Runtime Environment
JVM: OpenJDK 64-Bit Server VM
Default Encoding: UTF-8
Language: en
Country: US
--></g></svg>