<?xml version="1.0" encoding="UTF-8" standalone="no"?><svg xmlns="http://www.w3.org/2000/svg" xmlns:xlink="http://www.w3.org/1999/xlink" contentScriptType="application/ecmascript" contentStyleType="text/css" height="381.25px" preserveAspectRatio="none" style="width:455px;height:381px;background:#333333;" version="1.1" viewBox="0 0 455 381" width="455.2083px" zoomAndPan="magnify"><defs/><g><rect fill="#48494B" height="41.2028" rx="8.3333" ry="8.3333" style="stroke:#545454;stroke-width:1.0416666666666667;" width="393.75" x="23.4375" y="2.0833"/><text fill="#C0C0C0" font-family="Open Sans,Avenir,Nunito,Arial,Helvetica,SansSerif" font-size="20.8333" lengthAdjust="spacing" textLength="370.8333" x="34.8958" y="30.5583">com.telenav.kivakit.core.thread.locks</text><!--MD5=[9ba4924d606b805a358f77a7a0928ded]
class ReentrantLock--><rect fill="#282828" height="48.055" id="ReentrantLock" rx="8.3333" ry="8.3333" style="stroke:#5E5E5E;stroke-width:1.0416666666666667;" width="130.2083" x="51.0417" y="53.7028"/><rect fill="#1B1B1A" height="31.3883" rx="8.3333" ry="8.3333" style="stroke:#1B1B1A;stroke-width:1.0416666666666667;" width="130.2083" x="51.0417" y="53.7028"/><rect fill="#1B1B1A" height="8.3333" style="stroke:#1B1B1A;stroke-width:1.0416666666666667;" width="130.2083" x="51.0417" y="76.7578"/><rect fill="none" height="48.055" id="ReentrantLock" rx="8.3333" ry="8.3333" style="stroke:#5E5E5E;stroke-width:1.0416666666666667;" width="130.2083" x="51.0417" y="53.7028"/><ellipse cx="65.625" cy="69.397" fill="#0066CF" rx="10.4167" ry="10.4167" style="stroke:#0086EF;stroke-width:1.0416666666666667;"/><path d="M67.5354,73.822 Q67.1082,74.0417 66.6382,74.1516 Q66.1682,74.2615 65.6494,74.2615 Q63.8062,74.2615 62.8357,73.0469 Q61.8652,71.8323 61.8652,69.5374 Q61.8652,67.2363 62.8357,66.0217 Q63.8062,64.8071 65.6494,64.8071 Q66.1682,64.8071 66.6443,64.917 Q67.1204,65.0269 67.5354,65.2466 L67.5354,67.2485 Q67.0715,66.8213 66.6351,66.6229 Q66.1987,66.4246 65.7349,66.4246 Q64.7461,66.4246 64.2426,67.2089 Q63.739,67.9932 63.739,69.5374 Q63.739,71.0754 64.2426,71.8597 Q64.7461,72.644 65.7349,72.644 Q66.1987,72.644 66.6351,72.4457 Q67.0715,72.2473 67.5354,71.8201 Z " fill="#000000"/><text fill="#D8BC00" font-family="Open Sans,Avenir,Nunito,Arial,Helvetica,SansSerif" font-size="12.5" font-weight="bold" lengthAdjust="spacing" textLength="92.7083" x="82.2917" y="74.1211">ReentrantLock</text><line style="stroke:#5E5E5E;stroke-width:1.0416666666666667;" x1="52.0833" x2="180.2083" y1="85.0911" y2="85.0911"/><line style="stroke:#5E5E5E;stroke-width:1.0416666666666667;" x1="52.0833" x2="180.2083" y1="93.4245" y2="93.4245"/><!--MD5=[05bef9715505055a435a5b60deea392b]
class Lock--><rect codeLine="8" fill="#282828" height="111.4563" id="Lock" rx="8.3333" ry="8.3333" style="stroke:#5E5E5E;stroke-width:1.0416666666666667;" width="217.7083" x="7.2917" y="213.5986"/><rect fill="#1B1B1A" height="31.3883" rx="8.3333" ry="8.3333" style="stroke:#1B1B1A;stroke-width:1.0416666666666667;" width="217.7083" x="7.2917" y="213.5986"/><rect fill="#1B1B1A" height="8.3333" style="stroke:#1B1B1A;stroke-width:1.0416666666666667;" width="217.7083" x="7.2917" y="236.6536"/><rect codeLine="8" fill="none" height="111.4563" id="Lock" rx="8.3333" ry="8.3333" style="stroke:#5E5E5E;stroke-width:1.0416666666666667;" width="217.7083" x="7.2917" y="213.5986"/><ellipse cx="93.75" cy="229.2928" fill="#0066CF" rx="10.4167" ry="10.4167" style="stroke:#0086EF;stroke-width:1.0416666666666667;"/><path d="M95.6604,233.7179 Q95.2332,233.9376 94.7632,234.0474 Q94.2932,234.1573 93.7744,234.1573 Q91.9312,234.1573 90.9607,232.9427 Q89.9902,231.7281 89.9902,229.4332 Q89.9902,227.1322 90.9607,225.9176 Q91.9312,224.703 93.7744,224.703 Q94.2932,224.703 94.7693,224.8128 Q95.2454,224.9227 95.6604,225.1424 L95.6604,227.1444 Q95.1965,226.7171 94.7601,226.5188 Q94.3237,226.3204 93.8599,226.3204 Q92.8711,226.3204 92.3676,227.1047 Q91.864,227.889 91.864,229.4332 Q91.864,230.9713 92.3676,231.7556 Q92.8711,232.5399 93.8599,232.5399 Q94.3237,232.5399 94.7601,232.3415 Q95.1965,232.1431 95.6604,231.7159 Z " fill="#000000"/><text fill="#D8BC00" font-family="Open Sans,Avenir,Nunito,Arial,Helvetica,SansSerif" font-size="12.5" font-weight="bold" lengthAdjust="spacing" textLength="30.2083" x="116.6667" y="234.0169">Lock</text><line style="stroke:#5E5E5E;stroke-width:1.5625;" x1="8.3333" x2="223.9583" y1="244.987" y2="244.987"/><line style="stroke:#5E5E5E;stroke-width:1.0416666666666667;" x1="8.3333" x2="223.9583" y1="253.3203" y2="253.3203"/><ellipse cx="18.75" cy="264.7786" fill="#84BE84" rx="3.125" ry="3.125" style="stroke:#038048;stroke-width:1.0416666666666667;"/><text fill="#D8BC00" font-family="Open Sans,Avenir,Nunito,Arial,Helvetica,SansSerif" font-size="11.4583" lengthAdjust="spacing" textLength="185.4167" x="30.2083" y="271.6899">void whileLocked(Runnable code)</text><ellipse cx="18.75" cy="308.4351" fill="#84BE84" rx="3.125" ry="3.125" style="stroke:#038048;stroke-width:1.0416666666666667;"/><text fill="#D8BC00" font-family="Open Sans,Avenir,Nunito,Arial,Helvetica,SansSerif" font-size="11.4583" lengthAdjust="spacing" textLength="141.6667" x="30.2083" y="315.3463">T whileLocked(Code&lt;T&gt;)</text><line style="stroke:#5E5E5E;stroke-width:1.0416666666666667;" x1="8.3333" x2="80.7292" y1="291.271" y2="291.271"/><text fill="#D8BC00" font-family="Open Sans,Avenir,Nunito,Arial,Helvetica,SansSerif" font-size="11.4583" lengthAdjust="spacing" textLength="64.5833" x="83.8542" y="295.0806">(functional)</text><line style="stroke:#5E5E5E;stroke-width:1.0416666666666667;" x1="151.5625" x2="223.9583" y1="291.271" y2="291.271"/><!--MD5=[ac7e7db5ed5a20f506db77c81023c7c7]
class ReentrantReadWriteLock--><rect fill="#282828" height="48.055" id="ReentrantReadWriteLock" rx="8.3333" ry="8.3333" style="stroke:#5E5E5E;stroke-width:1.0416666666666667;" width="194.7917" x="253.125" y="53.7028"/><rect fill="#1B1B1A" height="31.3883" rx="8.3333" ry="8.3333" style="stroke:#1B1B1A;stroke-width:1.0416666666666667;" width="194.7917" x="253.125" y="53.7028"/><rect fill="#1B1B1A" height="8.3333" style="stroke:#1B1B1A;stroke-width:1.0416666666666667;" width="194.7917" x="253.125" y="76.7578"/><rect fill="none" height="48.055" id="ReentrantReadWriteLock" rx="8.3333" ry="8.3333" style="stroke:#5E5E5E;stroke-width:1.0416666666666667;" width="194.7917" x="253.125" y="53.7028"/><ellipse cx="267.7083" cy="69.397" fill="#0066CF" rx="10.4167" ry="10.4167" style="stroke:#0086EF;stroke-width:1.0416666666666667;"/><path d="M269.6187,73.822 Q269.1915,74.0417 268.7215,74.1516 Q268.2515,74.2615 267.7327,74.2615 Q265.8895,74.2615 264.919,73.0469 Q263.9486,71.8323 263.9486,69.5374 Q263.9486,67.2363 264.919,66.0217 Q265.8895,64.8071 267.7327,64.8071 Q268.2515,64.8071 268.7276,64.917 Q269.2037,65.0269 269.6187,65.2466 L269.6187,67.2485 Q269.1549,66.8213 268.7185,66.6229 Q268.2821,66.4246 267.8182,66.4246 Q266.8294,66.4246 266.3259,67.2089 Q265.8223,67.9932 265.8223,69.5374 Q265.8223,71.0754 266.3259,71.8597 Q266.8294,72.644 267.8182,72.644 Q268.2821,72.644 268.7185,72.4457 Q269.1549,72.2473 269.6187,71.8201 Z " fill="#000000"/><text fill="#D8BC00" font-family="Open Sans,Avenir,Nunito,Arial,Helvetica,SansSerif" font-size="12.5" font-weight="bold" lengthAdjust="spacing" textLength="157.2917" x="284.375" y="74.1211">ReentrantReadWriteLock</text><line style="stroke:#5E5E5E;stroke-width:1.0416666666666667;" x1="254.1667" x2="446.875" y1="85.0911" y2="85.0911"/><line style="stroke:#5E5E5E;stroke-width:1.0416666666666667;" x1="254.1667" x2="446.875" y1="93.4245" y2="93.4245"/><!--MD5=[ffba5b1808e1978a91725292ddc5fdd2]
class ReadWriteLock--><rect codeLine="17" fill="#282828" height="210.1807" id="ReadWriteLock" rx="8.3333" ry="8.3333" style="stroke:#5E5E5E;stroke-width:1.0416666666666667;" width="177.0833" x="261.9792" y="164.1195"/><rect fill="#1B1B1A" height="31.3883" rx="8.3333" ry="8.3333" style="stroke:#1B1B1A;stroke-width:1.0416666666666667;" width="177.0833" x="261.9792" y="164.1195"/><rect fill="#1B1B1A" height="8.3333" style="stroke:#1B1B1A;stroke-width:1.0416666666666667;" width="177.0833" x="261.9792" y="187.1745"/><rect codeLine="17" fill="none" height="210.1807" id="ReadWriteLock" rx="8.3333" ry="8.3333" style="stroke:#5E5E5E;stroke-width:1.0416666666666667;" width="177.0833" x="261.9792" y="164.1195"/><ellipse cx="296.7188" cy="179.8136" fill="#0066CF" rx="10.4167" ry="10.4167" style="stroke:#0086EF;stroke-width:1.0416666666666667;"/><path d="M298.6292,184.2387 Q298.2019,184.4584 297.7319,184.5683 Q297.262,184.6781 296.7432,184.6781 Q294.8999,184.6781 293.9294,183.4635 Q292.959,182.2489 292.959,179.954 Q292.959,177.653 293.9294,176.4384 Q294.8999,175.2238 296.7432,175.2238 Q297.262,175.2238 297.738,175.3337 Q298.2141,175.4435 298.6292,175.6632 L298.6292,177.6652 Q298.1653,177.238 297.7289,177.0396 Q297.2925,176.8412 296.8286,176.8412 Q295.8398,176.8412 295.3363,177.6255 Q294.8328,178.4098 294.8328,179.954 Q294.8328,181.4921 295.3363,182.2764 Q295.8398,183.0607 296.8286,183.0607 Q297.2925,183.0607 297.7289,182.8623 Q298.1653,182.664 298.6292,182.2367 Z " fill="#000000"/><text fill="#D8BC00" font-family="Open Sans,Avenir,Nunito,Arial,Helvetica,SansSerif" font-size="12.5" font-weight="bold" lengthAdjust="spacing" textLength="94.7917" x="317.8646" y="184.5378">ReadWriteLock</text><line style="stroke:#5E5E5E;stroke-width:1.5625;" x1="263.0208" x2="438.0208" y1="195.5078" y2="195.5078"/><ellipse cx="273.4375" cy="230.8777" fill="#84BE84" rx="3.125" ry="3.125" style="stroke:#038048;stroke-width:1.0416666666666667;"/><text fill="#D8BC00" font-family="Open Sans,Avenir,Nunito,Arial,Helvetica,SansSerif" font-size="11.4583" lengthAdjust="spacing" textLength="89.5833" x="284.8958" y="237.7889">ReadWriteLock()</text><line style="stroke:#5E5E5E;stroke-width:1.0416666666666667;" x1="263.0208" x2="306.7708" y1="213.7136" y2="213.7136"/><text fill="#D8BC00" font-family="Open Sans,Avenir,Nunito,Arial,Helvetica,SansSerif" font-size="11.4583" lengthAdjust="spacing" textLength="81.25" x="309.8958" y="217.5232">(constructors)</text><line style="stroke:#5E5E5E;stroke-width:1.0416666666666667;" x1="394.2708" x2="438.0208" y1="213.7136" y2="213.7136"/><ellipse cx="273.4375" cy="274.5341" fill="#84BE84" rx="3.125" ry="3.125" style="stroke:#038048;stroke-width:1.0416666666666667;"/><text fill="#D8BC00" font-family="Open Sans,Avenir,Nunito,Arial,Helvetica,SansSerif" font-size="11.4583" lengthAdjust="spacing" textLength="142.7083" x="284.8958" y="281.4453">void read(Runnable code)</text><ellipse cx="273.4375" cy="294.279" fill="#84BE84" rx="3.125" ry="3.125" style="stroke:#038048;stroke-width:1.0416666666666667;"/><text fill="#D8BC00" font-family="Open Sans,Avenir,Nunito,Arial,Helvetica,SansSerif" font-size="11.4583" lengthAdjust="spacing" textLength="138.5417" x="284.8958" y="301.1902">T read(Source&lt;T&gt; code)</text><line style="stroke:#5E5E5E;stroke-width:1.0416666666666667;" x1="263.0208" x2="330.7292" y1="257.37" y2="257.37"/><text fill="#D8BC00" font-family="Open Sans,Avenir,Nunito,Arial,Helvetica,SansSerif" font-size="11.4583" lengthAdjust="spacing" textLength="33.3333" x="333.8542" y="261.1796">(read)</text><line style="stroke:#5E5E5E;stroke-width:1.0416666666666667;" x1="370.3125" x2="438.0208" y1="257.37" y2="257.37"/><ellipse cx="273.4375" cy="337.9354" fill="#84BE84" rx="3.125" ry="3.125" style="stroke:#038048;stroke-width:1.0416666666666667;"/><text fill="#D8BC00" font-family="Open Sans,Avenir,Nunito,Arial,Helvetica,SansSerif" font-size="11.4583" lengthAdjust="spacing" textLength="144.7917" x="284.8958" y="344.8466">void write(Runnable code)</text><ellipse cx="273.4375" cy="357.6803" fill="#84BE84" rx="3.125" ry="3.125" style="stroke:#038048;stroke-width:1.0416666666666667;"/><text fill="#D8BC00" font-family="Open Sans,Avenir,Nunito,Arial,Helvetica,SansSerif" font-size="11.4583" lengthAdjust="spacing" textLength="140.625" x="284.8958" y="364.5915">T write(Source&lt;T&gt; code)</text><line style="stroke:#5E5E5E;stroke-width:1.0416666666666667;" x1="263.0208" x2="329.6875" y1="320.7713" y2="320.7713"/><text fill="#D8BC00" font-family="Open Sans,Avenir,Nunito,Arial,Helvetica,SansSerif" font-size="11.4583" lengthAdjust="spacing" textLength="35.4167" x="332.8125" y="324.5809">(write)</text><line style="stroke:#5E5E5E;stroke-width:1.0416666666666667;" x1="371.3542" x2="438.0208" y1="320.7713" y2="320.7713"/><!--MD5=[90cf93e1fd82c7ba83e738af0aaf9816]
reverse link ReentrantLock to Lock--><path codeLine="7" d="M116.1458,122.932 C116.1458,149.932 116.1458,184.682 116.1458,213.432 " fill="none" id="ReentrantLock-backto-Lock" style="stroke:#545454;stroke-width:1.5625;"/><polygon fill="none" points="108.8542,122.7861,116.1458,101.9528,123.4375,122.7861,108.8542,122.7861" style="stroke:#545454;stroke-width:1.5625;"/><!--MD5=[095669f664a5e268f07b2c9c282aa21a]
reverse link ReentrantReadWriteLock to ReadWriteLock--><path codeLine="16" d="M350.5208,122.8903 C350.5208,135.3382 350.5208,149.432 350.5208,163.8278 " fill="none" id="ReentrantReadWriteLock-backto-ReadWriteLock" style="stroke:#545454;stroke-width:1.5625;"/><polygon fill="none" points="343.2292,122.7861,350.5208,101.9528,357.8125,122.7861,343.2292,122.7861" style="stroke:#545454;stroke-width:1.5625;"/><!--MD5=[6e1923aef2223a9f0a0cdc5436b36a00]
@startuml

    !include lexakai.theme
    
    title "com.telenav.kivakit.core.thread.locks"
    
    ReentrantLock <|- - Lock
    class Lock
    {
        - -
        +void whileLocked(Runnable code)
        - -(functional)- -
        +T whileLocked(Code<T>)
    }
    
    ReentrantReadWriteLock <|- - ReadWriteLock
    class ReadWriteLock
    {
        - -(constructors)- -
        +ReadWriteLock()
        - -(read)- -
        +void read(Runnable code)
        +T read(Source<T> code)
        - -(write)- -
        +void write(Runnable code)
        +T write(Source<T> code)
    }
    
@enduml

@startuml









skinparam backgroundColor #333333






skinparam  {
    defaultFontName   "Open Sans,Avenir,Nunito,Arial,Helvetica,SansSerif"
    defaultFontSize   12
    defaultTextAlignment left
    shadowing false
    RoundCorner 10
    TitleFontSize 18
}

skinparam defaultFontName       "Open Sans,Avenir,Nunito,Arial,Helvetica,SansSerif"
skinparam defaultFontSize       12
skinparam dpi                   100
skinparam shadowing             false
skinparam roundcorner           16
skinparam ParticipantPadding    40
skinparam BoxPadding            40
skinparam Padding               3
skinparam ArrowColor            #545454
skinparam stereotype {
    CBackgroundColor #0066cf
    CBorderColor #0086ef
    ABackgroundColor #C8Ac00
    ABorderColor #D8Bc00
    IBackgroundColor #008400
    IBorderColor #239c23
    EBackgroundColor #cf6300
    EBorderColor #ef8300
    NBackgroundColor #3380b9
    NBorderColor #004d86
}
skinparam title {
	FontColor	                 #c0c0c0
 	BorderColor                  #545454
	FontSize	    	         20
	BorderRoundCorner            16
	BorderThickness 	         1
	BackgroundColor              #48494b
}


skinparam legend {
	BackgroundColor #303030
	BorderColor #404040
	FontColor #a0a0a0
}

	skinparam swimlane {
	BorderColor #5e5e5e
	BorderThickness 2
	TitleBackgroundColor  #6d6d6d-#484848
	TitleFontColor #303030
}

skinparam activity {
		FontColor #C8Ac00
	BorderColor #333333
	BackgroundColor #333333-#333333
	BarColor #00FF00
	StartColor #0060a8
	EndColor #0060a8
	DiamondBackgroundColor #6d6d6d-#3a3a3a
  	DiamondBorderColor #3a3a3a
  	DiamondFontColor #fefefe
}


skinparam participant {
		FontColor #C8Ac00
	BorderColor #333333
	BackgroundColor #333333-#333333
	ParticipantBorderThickness 2
}


skinparam actor {
		FontColor #C8Ac00
	BorderColor #333333
	BackgroundColor #333333-#333333
}


skinparam arrow {
	Thickness 1.5
	Color #545454
	FontColor #a0a0a0
    FontStyle bold
    MessageAlignment center
}



skinparam sequence {
	BorderColor #303030
	TitleFontColor #303030
	BackgroundColor #333333
	StartColor #303030
	EndColor #303030
	BoxBackgroundColor #333333
	BoxBorderColor #484848
	BoxFontColor #484848
	LifeLineBorderColor #484848
	LifeLineBorderThickness 2
	LifeLineBackgroundColor #3a3a3a
	GroupBorderColor #484848
	GroupFontColor #484848
	GroupHeaderFontColor #0060a8
	GroupBackgroundColor #484848
	GroupHeaderBackgroundColor #333333
	DividerBackgroundColor #484848
    DividerBorderColor #484848
    DividerBorderThickness 2
    DividerFontColor #D8Bc00
	ReferenceBackgroundColor #333333
	ReferenceBorderColor #484848
	ReferenceFontColor #fefefe
	ReferenceHeaderBackgroundColor #484848
}


skinparam partition {
	BorderColor #303030
	FontColor #333333
	BackgroundColor #333333
}


skinparam collections {
		FontColor #C8Ac00
	BorderColor #333333
	BackgroundColor #333333-#333333
}


skinparam control {
		FontColor #C8Ac00
	BorderColor #333333
	BackgroundColor #333333-#333333
}


skinparam entity {
		FontColor #C8Ac00
	BorderColor #333333
	BackgroundColor #333333-#333333
}


skinparam boundary {
		FontColor #C8Ac00
	BorderColor #333333
	BackgroundColor #333333-#333333
}


skinparam agent {
	BackgroundColor #ff8000
	BorderColor #ff9933
	FontColor #484848
}


skinparam note {
	BorderThickness 1
	BackgroundColor #1b1b1a
	BorderColor #5e5e5e
	FontSize 11
	FontColor #a0a0a0
}


skinparam artifact {
	BorderThickness 10
	BorderColor #5e5e5e
	BackgroundColor #1b1b1a
	FontColor #D8Bc00
}


skinparam component {
		FontColor #C8Ac00
	BorderColor #333333
	BackgroundColor #333333-#333333
}


skinparam interface {
	BackgroundColor  #008400
	BorderColor  #007F00
	FontColor #484848
}


skinparam storage {
	BackgroundColor #ff8000
  	BorderColor #cc6600
	FontColor #222222
}


skinparam node {
	BackgroundColor #333333
	BorderColor #333333
	FontColor #C8Ac00
}


skinparam cloud {
	BackgroundColor #484848-black
	BorderColor #484848
	FontColor #D8Bc00
}


skinparam database {
		FontColor #C8Ac00
	BorderColor #333333
	BackgroundColor #333333-#333333
	BackgroundColor  #333333
}


skinparam class {
		FontColor #C8Ac00
	BorderColor #333333
	BackgroundColor #333333-#333333
	HeaderBackgroundColor #1b1b1a
    BackgroundColor #282828
    BorderColor #5e5e5e
 	StereotypeFontColor #a0a0a0
    StereotypeFontStyle bold
	BorderThickness 1
	AttributeFontColor #D8Bc00
	AttributeFontSize 11
    FontColor #D8Bc00
    FontStyle bold
}


skinparam object {
		FontColor #C8Ac00
	BorderColor #333333
	BackgroundColor #333333-#333333
	StereotypeFontColor #484848
	BorderThickness 1
	AttributeFontColor #fefefe
	AttributeFontSize 11
}


skinparam usecase {
		FontColor #C8Ac00
	BorderColor #333333
	BackgroundColor #333333-#333333
	BorderThickness 2
	StereotypeFontColor #303030
}


skinparam rectangle {
		FontColor #C8Ac00
	BorderColor #333333
	BackgroundColor #333333-#333333
	BackgroundColor #333333
	BorderThickness 2
	StereotypeFontColor #303030
}


skinparam package {
		FontColor #C8Ac00
	BorderColor #333333
	BackgroundColor #333333-#333333
	BackgroundColor #333333
	BorderThickness 2
}


skinparam folder {
	BackgroundColor #6d6d6d
  	BorderColor #ff8000
	FontColor #ff8000
	BorderThickness 2
}


skinparam frame {
	BackgroundColor #6d6d6d
  	BorderColor #0060a8
	FontColor #0060a8
	BorderThickness 2
}


skinparam state {
		FontColor #C8Ac00
	BorderColor #333333
	BackgroundColor #333333-#333333
	StartColor #0060a8
	EndColor #0060a8
	AttributeFontColor #fefefe
	AttributeFontSize 11
}


skinparam queue {
		FontColor #C8Ac00
	BorderColor #333333
	BackgroundColor #333333-#333333
}


skinparam card {
	BackgroundColor #0060a8
	BorderColor #004d86
	FontColor $INFO_TEXT
}


skinparam file {
	BackgroundColor #6d6d6d-#484848
	BorderColor #0060a8
	FontColor #fefefe
}


skinparam stack {
		FontColor #C8Ac00
	BorderColor #333333
	BackgroundColor #333333-#333333
}

    
    title "com.telenav.kivakit.core.thread.locks"
    
    ReentrantLock <|- - Lock
    class Lock
    {
        - -
        +void whileLocked(Runnable code)
        - -(functional)- -
        +T whileLocked(Code<T>)
    }
    
    ReentrantReadWriteLock <|- - ReadWriteLock
    class ReadWriteLock
    {
        - -(constructors)- -
        +ReadWriteLock()
        - -(read)- -
        +void read(Runnable code)
        +T read(Source<T> code)
        - -(write)- -
        +void write(Runnable code)
        +T write(Source<T> code)
    }
    
@enduml

PlantUML version 1.2021.01(Tue Feb 02 00:55:08 MST 2021)
(GPL source distribution)
Java Runtime: OpenJDK Runtime Environment
JVM: OpenJDK 64-Bit Server VM
Default Encoding: UTF-8
Language: en
Country: US
--></g></svg>