<?xml version="1.0" encoding="UTF-8" standalone="no"?><svg xmlns="http://www.w3.org/2000/svg" xmlns:xlink="http://www.w3.org/1999/xlink" contentScriptType="application/ecmascript" contentStyleType="text/css" height="773.9583px" preserveAspectRatio="none" style="width:526px;height:773px;background:#333333;" version="1.1" viewBox="0 0 526 773" width="526.0417px" zoomAndPan="magnify"><defs/><g><rect fill="#48494B" height="41.2028" rx="8.3333" ry="8.3333" style="stroke:#545454;stroke-width:1.0416666666666667;" width="513.5417" x="2.0833" y="2.0833"/><text fill="#C0C0C0" font-family="Open Sans,Avenir,Nunito,Arial,Helvetica,SansSerif" font-size="20.8333" lengthAdjust="spacing" textLength="490.625" x="13.5417" y="30.5583">com.telenav.kivakit.core.messaging.broadcasters</text><!--MD5=[44642bf1951becf690e71f855555764a]
class Broadcaster--><rect codeLine="7" fill="#282828" height="48.055" id="Broadcaster" rx="8.3333" ry="8.3333" style="stroke:#5E5E5E;stroke-width:1.0416666666666667;" width="113.5417" x="85.9375" y="53.7028"/><rect fill="#1B1B1A" height="31.3883" rx="8.3333" ry="8.3333" style="stroke:#1B1B1A;stroke-width:1.0416666666666667;" width="113.5417" x="85.9375" y="53.7028"/><rect fill="#1B1B1A" height="8.3333" style="stroke:#1B1B1A;stroke-width:1.0416666666666667;" width="113.5417" x="85.9375" y="76.7578"/><rect codeLine="7" fill="none" height="48.055" id="Broadcaster" rx="8.3333" ry="8.3333" style="stroke:#5E5E5E;stroke-width:1.0416666666666667;" width="113.5417" x="85.9375" y="53.7028"/><ellipse cx="100.5208" cy="69.397" fill="#008400" rx="10.4167" ry="10.4167" style="stroke:#239C23;stroke-width:1.0416666666666667;"/><path d="M97.9248,66.5588 L97.9248,64.9719 L103.3508,64.9719 L103.3508,66.5588 L101.5381,66.5588 L101.5381,72.4976 L103.3508,72.4976 L103.3508,74.0845 L97.9248,74.0845 L97.9248,72.4976 L99.7375,72.4976 L99.7375,66.5588 Z " fill="#000000"/><text fill="#D8BC00" font-family="Open Sans,Avenir,Nunito,Arial,Helvetica,SansSerif" font-size="12.5" font-style="italic" font-weight="bold" lengthAdjust="spacing" textLength="76.0417" x="117.1875" y="74.1211">Broadcaster</text><line style="stroke:#5E5E5E;stroke-width:1.0416666666666667;" x1="86.9792" x2="198.4375" y1="85.0911" y2="85.0911"/><line style="stroke:#5E5E5E;stroke-width:1.0416666666666667;" x1="86.9792" x2="198.4375" y1="93.4245" y2="93.4245"/><!--MD5=[a55b2a1f62e9d2a601cfebbabb1e84b9]
class AudienceMember--><rect codeLine="11" fill="#282828" height="103.123" id="AudienceMember" rx="8.3333" ry="8.3333" style="stroke:#5E5E5E;stroke-width:1.0416666666666667;" width="236.4583" x="23.9583" y="533.9111"/><rect fill="#1B1B1A" height="31.3883" rx="8.3333" ry="8.3333" style="stroke:#1B1B1A;stroke-width:1.0416666666666667;" width="236.4583" x="23.9583" y="533.9111"/><rect fill="#1B1B1A" height="8.3333" style="stroke:#1B1B1A;stroke-width:1.0416666666666667;" width="236.4583" x="23.9583" y="556.9661"/><rect codeLine="11" fill="none" height="103.123" id="AudienceMember" rx="8.3333" ry="8.3333" style="stroke:#5E5E5E;stroke-width:1.0416666666666667;" width="236.4583" x="23.9583" y="533.9111"/><ellipse cx="79.1667" cy="549.6053" fill="#0066CF" rx="10.4167" ry="10.4167" style="stroke:#0086EF;stroke-width:1.0416666666666667;"/><path d="M81.0771,554.0304 Q80.6498,554.2501 80.1799,554.3599 Q79.7099,554.4698 79.1911,554.4698 Q77.3478,554.4698 76.3774,553.2552 Q75.4069,552.0406 75.4069,549.7457 Q75.4069,547.4447 76.3774,546.2301 Q77.3478,545.0155 79.1911,545.0155 Q79.7099,545.0155 80.186,545.1253 Q80.662,545.2352 81.0771,545.4549 L81.0771,547.4569 Q80.6132,547.0296 80.1768,546.8313 Q79.7404,546.6329 79.2765,546.6329 Q78.2878,546.6329 77.7842,547.4172 Q77.2807,548.2015 77.2807,549.7457 Q77.2807,551.2838 77.7842,552.0681 Q78.2878,552.8524 79.2765,552.8524 Q79.7404,552.8524 80.1768,552.654 Q80.6132,552.4556 81.0771,552.0284 Z " fill="#000000"/><text fill="#D8BC00" font-family="Open Sans,Avenir,Nunito,Arial,Helvetica,SansSerif" font-size="12.5" font-weight="bold" lengthAdjust="spacing" textLength="111.4583" x="102.0833" y="554.3294">AudienceMember</text><line style="stroke:#5E5E5E;stroke-width:1.5625;" x1="25" x2="259.375" y1="565.2995" y2="565.2995"/><ellipse cx="35.4167" cy="600.6694" fill="#84BE84" rx="3.125" ry="3.125" style="stroke:#038048;stroke-width:1.0416666666666667;"/><text fill="#D8BC00" font-family="Open Sans,Avenir,Nunito,Arial,Helvetica,SansSerif" font-size="11.4583" lengthAdjust="spacing" textLength="97.9167" x="46.875" y="607.5806">Listener listener()</text><ellipse cx="35.4167" cy="620.4142" fill="#84BE84" rx="3.125" ry="3.125" style="stroke:#038048;stroke-width:1.0416666666666667;"/><text fill="#D8BC00" font-family="Open Sans,Avenir,Nunito,Arial,Helvetica,SansSerif" font-size="11.4583" lengthAdjust="spacing" textLength="204.1667" x="46.875" y="627.3254">void receive(Transmittable message)</text><line style="stroke:#5E5E5E;stroke-width:1.0416666666666667;" x1="25" x2="104.6875" y1="583.5052" y2="583.5052"/><text fill="#D8BC00" font-family="Open Sans,Avenir,Nunito,Arial,Helvetica,SansSerif" font-size="11.4583" lengthAdjust="spacing" textLength="68.75" x="107.8125" y="587.3149">(messaging)</text><line style="stroke:#5E5E5E;stroke-width:1.0416666666666667;" x1="179.6875" x2="259.375" y1="583.5052" y2="583.5052"/><!--MD5=[085076096658226fe7d3ac7a26d9b629]
class Listener--><rect fill="#282828" height="48.055" id="Listener" rx="8.3333" ry="8.3333" style="stroke:#5E5E5E;stroke-width:1.0416666666666667;" width="89.5833" x="39.5833" y="719.3278"/><rect fill="#1B1B1A" height="31.3883" rx="8.3333" ry="8.3333" style="stroke:#1B1B1A;stroke-width:1.0416666666666667;" width="89.5833" x="39.5833" y="719.3278"/><rect fill="#1B1B1A" height="8.3333" style="stroke:#1B1B1A;stroke-width:1.0416666666666667;" width="89.5833" x="39.5833" y="742.3828"/><rect fill="none" height="48.055" id="Listener" rx="8.3333" ry="8.3333" style="stroke:#5E5E5E;stroke-width:1.0416666666666667;" width="89.5833" x="39.5833" y="719.3278"/><ellipse cx="54.1667" cy="735.022" fill="#0066CF" rx="10.4167" ry="10.4167" style="stroke:#0086EF;stroke-width:1.0416666666666667;"/><path d="M56.0771,739.447 Q55.6498,739.6667 55.1799,739.7766 Q54.7099,739.8865 54.1911,739.8865 Q52.3478,739.8865 51.3774,738.6719 Q50.4069,737.4573 50.4069,735.1624 Q50.4069,732.8613 51.3774,731.6467 Q52.3478,730.4321 54.1911,730.4321 Q54.7099,730.4321 55.186,730.542 Q55.662,730.6519 56.0771,730.8716 L56.0771,732.8735 Q55.6132,732.4463 55.1768,732.2479 Q54.7404,732.0496 54.2765,732.0496 Q53.2878,732.0496 52.7842,732.8339 Q52.2807,733.6182 52.2807,735.1624 Q52.2807,736.7004 52.7842,737.4847 Q53.2878,738.269 54.2765,738.269 Q54.7404,738.269 55.1768,738.0707 Q55.6132,737.8723 56.0771,737.4451 Z " fill="#000000"/><text fill="#D8BC00" font-family="Open Sans,Avenir,Nunito,Arial,Helvetica,SansSerif" font-size="12.5" font-weight="bold" lengthAdjust="spacing" textLength="52.0833" x="70.8333" y="739.7461">Listener</text><line style="stroke:#5E5E5E;stroke-width:1.0416666666666667;" x1="40.625" x2="128.125" y1="750.7161" y2="750.7161"/><line style="stroke:#5E5E5E;stroke-width:1.0416666666666667;" x1="40.625" x2="128.125" y1="759.0495" y2="759.0495"/><!--MD5=[bddb511951cf0a1d6a79f67b0c2ed87d]
class Filter--><rect fill="#282828" height="48.055" id="Filter" rx="8.3333" ry="8.3333" style="stroke:#5E5E5E;stroke-width:1.0416666666666667;" width="70.8333" x="165.625" y="719.3278"/><rect fill="#1B1B1A" height="31.3883" rx="8.3333" ry="8.3333" style="stroke:#1B1B1A;stroke-width:1.0416666666666667;" width="70.8333" x="165.625" y="719.3278"/><rect fill="#1B1B1A" height="8.3333" style="stroke:#1B1B1A;stroke-width:1.0416666666666667;" width="70.8333" x="165.625" y="742.3828"/><rect fill="none" height="48.055" id="Filter" rx="8.3333" ry="8.3333" style="stroke:#5E5E5E;stroke-width:1.0416666666666667;" width="70.8333" x="165.625" y="719.3278"/><ellipse cx="180.2083" cy="735.022" fill="#0066CF" rx="10.4167" ry="10.4167" style="stroke:#0086EF;stroke-width:1.0416666666666667;"/><path d="M182.1187,739.447 Q181.6915,739.6667 181.2215,739.7766 Q180.7515,739.8865 180.2327,739.8865 Q178.3895,739.8865 177.419,738.6719 Q176.4486,737.4573 176.4486,735.1624 Q176.4486,732.8613 177.419,731.6467 Q178.3895,730.4321 180.2327,730.4321 Q180.7515,730.4321 181.2276,730.542 Q181.7037,730.6519 182.1187,730.8716 L182.1187,732.8735 Q181.6549,732.4463 181.2185,732.2479 Q180.7821,732.0496 180.3182,732.0496 Q179.3294,732.0496 178.8259,732.8339 Q178.3223,733.6182 178.3223,735.1624 Q178.3223,736.7004 178.8259,737.4847 Q179.3294,738.269 180.3182,738.269 Q180.7821,738.269 181.2185,738.0707 Q181.6549,737.8723 182.1187,737.4451 Z " fill="#000000"/><text fill="#D8BC00" font-family="Open Sans,Avenir,Nunito,Arial,Helvetica,SansSerif" font-size="12.5" font-weight="bold" lengthAdjust="spacing" textLength="33.3333" x="196.875" y="739.7461">Filter</text><line style="stroke:#5E5E5E;stroke-width:1.0416666666666667;" x1="166.6667" x2="235.4167" y1="750.7161" y2="750.7161"/><line style="stroke:#5E5E5E;stroke-width:1.0416666666666667;" x1="166.6667" x2="235.4167" y1="759.0495" y2="759.0495"/><!--MD5=[873ba24e1a4ad5eb78e001e5b8541c33]
class Multicaster--><rect codeLine="20" fill="#282828" height="245.5037" id="Multicaster" rx="8.3333" ry="8.3333" style="stroke:#5E5E5E;stroke-width:1.0416666666666667;" width="195.8333" x="44.7917" y="185.4736"/><rect fill="#1B1B1A" height="31.3883" rx="8.3333" ry="8.3333" style="stroke:#1B1B1A;stroke-width:1.0416666666666667;" width="195.8333" x="44.7917" y="185.4736"/><rect fill="#1B1B1A" height="8.3333" style="stroke:#1B1B1A;stroke-width:1.0416666666666667;" width="195.8333" x="44.7917" y="208.5286"/><rect codeLine="20" fill="none" height="245.5037" id="Multicaster" rx="8.3333" ry="8.3333" style="stroke:#5E5E5E;stroke-width:1.0416666666666667;" width="195.8333" x="44.7917" y="185.4736"/><ellipse cx="99.4792" cy="201.1678" fill="#0066CF" rx="10.4167" ry="10.4167" style="stroke:#0086EF;stroke-width:1.0416666666666667;"/><path d="M101.3896,205.5929 Q100.9623,205.8126 100.4924,205.9224 Q100.0224,206.0323 99.5036,206.0323 Q97.6603,206.0323 96.6899,204.8177 Q95.7194,203.6031 95.7194,201.3082 Q95.7194,199.0072 96.6899,197.7926 Q97.6603,196.578 99.5036,196.578 Q100.0224,196.578 100.4985,196.6878 Q100.9745,196.7977 101.3896,197.0174 L101.3896,199.0194 Q100.9257,198.5921 100.4893,198.3938 Q100.0529,198.1954 99.589,198.1954 Q98.6003,198.1954 98.0967,198.9797 Q97.5932,199.764 97.5932,201.3082 Q97.5932,202.8463 98.0967,203.6306 Q98.6003,204.4149 99.589,204.4149 Q100.0529,204.4149 100.4893,204.2165 Q100.9257,204.0181 101.3896,203.5909 Z " fill="#000000"/><text fill="#D8BC00" font-family="Open Sans,Avenir,Nunito,Arial,Helvetica,SansSerif" font-size="12.5" font-weight="bold" lengthAdjust="spacing" textLength="71.875" x="122.3958" y="205.8919">Multicaster</text><line style="stroke:#5E5E5E;stroke-width:1.5625;" x1="45.8333" x2="239.5833" y1="216.862" y2="216.862"/><polygon fill="#FFFF44" points="56.25,247.0235,60.4167,251.1902,56.25,255.3569,52.0833,251.1902" style="stroke:#B38D22;stroke-width:1.0416666666666667;"/><text fill="#D8BC00" font-family="Open Sans,Avenir,Nunito,Arial,Helvetica,SansSerif" font-size="11.4583" lengthAdjust="spacing" textLength="69.7917" x="67.7083" y="259.1431">Multicaster()</text><polygon fill="#FFFF44" points="56.25,266.7684,60.4167,270.9351,56.25,275.1017,52.0833,270.9351" style="stroke:#B38D22;stroke-width:1.0416666666666667;"/><text fill="#D8BC00" font-family="Open Sans,Avenir,Nunito,Arial,Helvetica,SansSerif" font-size="11.4583" lengthAdjust="spacing" textLength="131.25" x="67.7083" y="278.8879">Multicaster(Multicaster)</text><polygon fill="#FFFF44" points="56.25,286.5133,60.4167,290.6799,56.25,294.8466,52.0833,290.6799" style="stroke:#B38D22;stroke-width:1.0416666666666667;"/><text fill="#D8BC00" font-family="Open Sans,Avenir,Nunito,Arial,Helvetica,SansSerif" font-size="11.4583" lengthAdjust="spacing" textLength="103.125" x="67.7083" y="298.6328">Multicaster(String)</text><ellipse cx="56.25" cy="311.4665" fill="#84BE84" rx="3.125" ry="3.125" style="stroke:#038048;stroke-width:1.0416666666666667;"/><text fill="#D8BC00" font-family="Open Sans,Avenir,Nunito,Arial,Helvetica,SansSerif" font-size="11.4583" lengthAdjust="spacing" textLength="123.9583" x="67.7083" y="318.3777">Multicaster(Class&lt;?&gt;)</text><ellipse cx="56.25" cy="331.2113" fill="#84BE84" rx="3.125" ry="3.125" style="stroke:#038048;stroke-width:1.0416666666666667;"/><text fill="#D8BC00" font-family="Open Sans,Avenir,Nunito,Arial,Helvetica,SansSerif" font-size="11.4583" lengthAdjust="spacing" textLength="163.5417" x="67.7083" y="338.1226">Multicaster(String, Class&lt;?&gt;)</text><line style="stroke:#5E5E5E;stroke-width:1.0416666666666667;" x1="45.8333" x2="98.9583" y1="235.0677" y2="235.0677"/><text fill="#D8BC00" font-family="Open Sans,Avenir,Nunito,Arial,Helvetica,SansSerif" font-size="11.4583" lengthAdjust="spacing" textLength="81.25" x="102.0833" y="238.8774">(constructors)</text><line style="stroke:#5E5E5E;stroke-width:1.0416666666666667;" x1="186.4583" x2="239.5833" y1="235.0677" y2="235.0677"/><ellipse cx="56.25" cy="374.8678" fill="#84BE84" rx="3.125" ry="3.125" style="stroke:#038048;stroke-width:1.0416666666666667;"/><text fill="#D8BC00" font-family="Open Sans,Avenir,Nunito,Arial,Helvetica,SansSerif" font-size="11.4583" lengthAdjust="spacing" textLength="90.625" x="67.7083" y="381.779">boolean isDeaf()</text><ellipse cx="56.25" cy="394.6126" fill="#84BE84" rx="3.125" ry="3.125" style="stroke:#038048;stroke-width:1.0416666666666667;"/><text fill="#D8BC00" font-family="Open Sans,Avenir,Nunito,Arial,Helvetica,SansSerif" font-size="11.4583" lengthAdjust="spacing" textLength="138.5417" x="67.7083" y="401.5238">StringList listenerChain()</text><ellipse cx="56.25" cy="414.3575" fill="#84BE84" rx="3.125" ry="3.125" style="stroke:#038048;stroke-width:1.0416666666666667;"/><text fill="#D8BC00" font-family="Open Sans,Avenir,Nunito,Arial,Helvetica,SansSerif" font-size="11.4583" lengthAdjust="spacing" textLength="111.4583" x="67.7083" y="421.2687">String listenerTree()</text><line style="stroke:#5E5E5E;stroke-width:1.0416666666666667;" x1="45.8333" x2="105.2083" y1="357.7037" y2="357.7037"/><text fill="#D8BC00" font-family="Open Sans,Avenir,Nunito,Arial,Helvetica,SansSerif" font-size="11.4583" lengthAdjust="spacing" textLength="68.75" x="108.3333" y="361.5133">(messaging)</text><line style="stroke:#5E5E5E;stroke-width:1.0416666666666667;" x1="180.2083" x2="239.5833" y1="357.7037" y2="357.7037"/><!--MD5=[b8cfd8c4119a3b0a7a46bfc5fc780f85]
class Error--><rect fill="#282828" height="48.055" id="Error" rx="8.3333" ry="8.3333" style="stroke:#5E5E5E;stroke-width:1.0416666666666667;" width="68.75" x="370.8333" y="53.7028"/><rect fill="#1B1B1A" height="31.3883" rx="8.3333" ry="8.3333" style="stroke:#1B1B1A;stroke-width:1.0416666666666667;" width="68.75" x="370.8333" y="53.7028"/><rect fill="#1B1B1A" height="8.3333" style="stroke:#1B1B1A;stroke-width:1.0416666666666667;" width="68.75" x="370.8333" y="76.7578"/><rect fill="none" height="48.055" id="Error" rx="8.3333" ry="8.3333" style="stroke:#5E5E5E;stroke-width:1.0416666666666667;" width="68.75" x="370.8333" y="53.7028"/><ellipse cx="385.4167" cy="69.397" fill="#0066CF" rx="10.4167" ry="10.4167" style="stroke:#0086EF;stroke-width:1.0416666666666667;"/><path d="M387.3271,73.822 Q386.8998,74.0417 386.4299,74.1516 Q385.9599,74.2615 385.4411,74.2615 Q383.5978,74.2615 382.6274,73.0469 Q381.6569,71.8323 381.6569,69.5374 Q381.6569,67.2363 382.6274,66.0217 Q383.5978,64.8071 385.4411,64.8071 Q385.9599,64.8071 386.436,64.917 Q386.912,65.0269 387.3271,65.2466 L387.3271,67.2485 Q386.8632,66.8213 386.4268,66.6229 Q385.9904,66.4246 385.5265,66.4246 Q384.5378,66.4246 384.0342,67.2089 Q383.5307,67.9932 383.5307,69.5374 Q383.5307,71.0754 384.0342,71.8597 Q384.5378,72.644 385.5265,72.644 Q385.9904,72.644 386.4268,72.4457 Q386.8632,72.2473 387.3271,71.8201 Z " fill="#000000"/><text fill="#D8BC00" font-family="Open Sans,Avenir,Nunito,Arial,Helvetica,SansSerif" font-size="12.5" font-weight="bold" lengthAdjust="spacing" textLength="31.25" x="402.0833" y="74.1211">Error</text><line style="stroke:#5E5E5E;stroke-width:1.0416666666666667;" x1="371.875" x2="438.5417" y1="85.0911" y2="85.0911"/><line style="stroke:#5E5E5E;stroke-width:1.0416666666666667;" x1="371.875" x2="438.5417" y1="93.4245" y2="93.4245"/><!--MD5=[fbf0f0f0be8286738698d2090c06f1a8]
class NoListenerError--><rect codeLine="35" fill="#282828" height="83.3781" id="NoListenerError" rx="8.3333" ry="8.3333" style="stroke:#5E5E5E;stroke-width:1.0416666666666667;" width="206.25" x="302.0833" y="265.682"/><rect fill="#1B1B1A" height="31.3883" rx="8.3333" ry="8.3333" style="stroke:#1B1B1A;stroke-width:1.0416666666666667;" width="206.25" x="302.0833" y="265.682"/><rect fill="#1B1B1A" height="8.3333" style="stroke:#1B1B1A;stroke-width:1.0416666666666667;" width="206.25" x="302.0833" y="288.737"/><rect codeLine="35" fill="none" height="83.3781" id="NoListenerError" rx="8.3333" ry="8.3333" style="stroke:#5E5E5E;stroke-width:1.0416666666666667;" width="206.25" x="302.0833" y="265.682"/><ellipse cx="347.3958" cy="281.3761" fill="#0066CF" rx="10.4167" ry="10.4167" style="stroke:#0086EF;stroke-width:1.0416666666666667;"/><path d="M349.3062,285.8012 Q348.879,286.0209 348.409,286.1308 Q347.939,286.2406 347.4202,286.2406 Q345.577,286.2406 344.6065,285.026 Q343.6361,283.8114 343.6361,281.5165 Q343.6361,279.2155 344.6065,278.0009 Q345.577,276.7863 347.4202,276.7863 Q347.939,276.7863 348.4151,276.8962 Q348.8912,277.006 349.3062,277.2257 L349.3062,279.2277 Q348.8424,278.8005 348.406,278.6021 Q347.9696,278.4037 347.5057,278.4037 Q346.5169,278.4037 346.0134,279.188 Q345.5098,279.9723 345.5098,281.5165 Q345.5098,283.0546 346.0134,283.8389 Q346.5169,284.6232 347.5057,284.6232 Q347.9696,284.6232 348.406,284.4248 Q348.8424,284.2265 349.3062,283.7992 Z " fill="#000000"/><text fill="#D8BC00" font-family="Open Sans,Avenir,Nunito,Arial,Helvetica,SansSerif" font-size="12.5" font-weight="bold" lengthAdjust="spacing" textLength="101.0417" x="370.3125" y="286.1003">NoListenerError</text><line style="stroke:#5E5E5E;stroke-width:1.5625;" x1="303.125" x2="507.2917" y1="297.0703" y2="297.0703"/><ellipse cx="313.5417" cy="332.4402" fill="#84BE84" rx="3.125" ry="3.125" style="stroke:#038048;stroke-width:1.0416666666666667;"/><text fill="#D8BC00" font-family="Open Sans,Avenir,Nunito,Arial,Helvetica,SansSerif" font-size="11.4583" lengthAdjust="spacing" textLength="173.9583" x="325" y="339.3514">NoListenerError(String, Object)</text><line style="stroke:#5E5E5E;stroke-width:1.0416666666666667;" x1="303.125" x2="361.4583" y1="315.2761" y2="315.2761"/><text fill="#D8BC00" font-family="Open Sans,Avenir,Nunito,Arial,Helvetica,SansSerif" font-size="11.4583" lengthAdjust="spacing" textLength="81.25" x="364.5833" y="319.0857">(constructors)</text><line style="stroke:#5E5E5E;stroke-width:1.0416666666666667;" x1="448.9583" x2="507.2917" y1="315.2761" y2="315.2761"/><!--MD5=[39a181cac5526d92d84037827ac9aa45]
reverse link AudienceMember to Listener--><path codeLine="9" d="M119.1875,648.9945 C109.9479,673.7445 99.9167,700.609 93.0104,719.1195 " fill="none" id="AudienceMember-backto-Listener" style="stroke:#545454;stroke-width:1.5625;"/><polygon fill="#333333" points="123.9271,636.2965,117.8351,640.6911,119.5486,648.0046,125.6405,643.6101,123.9271,636.2965" style="stroke:#545454;stroke-width:1.5625;"/><!--MD5=[4b4c57f4e920e4b761e40f320ffe151d]
reverse link AudienceMember to Filter--><path codeLine="10" d="M166.2292,648.9945 C175.4688,673.7445 185.5,700.609 192.4063,719.1195 " fill="none" id="AudienceMember-backto-Filter" style="stroke:#545454;stroke-width:1.5625;"/><polygon fill="#333333" points="161.4896,636.2965,159.7762,643.6101,165.8681,648.0046,167.5815,640.6911,161.4896,636.2965" style="stroke:#545454;stroke-width:1.5625;"/><!--MD5=[34fbd23c56651f111d903632f001ca95]
reverse link Broadcaster to Multicaster--><path codeLine="18" d="M142.7083,122.9111 C142.7083,141.0674 142.7083,163.0674 142.7083,185.4528 " fill="none" id="Broadcaster-backto-Multicaster" style="stroke:#545454;stroke-width:1.5625;"/><polygon fill="none" points="135.4167,122.7132,142.7083,101.8799,150,122.7132,135.4167,122.7132" style="stroke:#545454;stroke-width:1.5625;"/><!--MD5=[f5dda83dfb732df56896ad1d6cb40bd4]
reverse link Multicaster to AudienceMember--><path codeLine="19" d="M142.7083,444.2965 C142.7083,476.2757 142.7083,508.432 142.7083,533.807 " fill="none" id="Multicaster-backto-AudienceMember" style="stroke:#545454;stroke-width:1.5625;"/><polygon fill="#333333" points="142.7083,430.6195,138.5417,436.8695,142.7083,443.1195,146.875,436.8695,142.7083,430.6195" style="stroke:#545454;stroke-width:1.5625;"/><text fill="#A0A0A0" font-family="Open Sans,Avenir,Nunito,Arial,Helvetica,SansSerif" font-size="12.5" font-weight="bold" lengthAdjust="spacing" textLength="8.3333" x="130.7829" y="454.342">1</text><text fill="#A0A0A0" font-family="Open Sans,Avenir,Nunito,Arial,Helvetica,SansSerif" font-size="12.5" font-weight="bold" lengthAdjust="spacing" textLength="6.25" x="132.5635" y="519.8506">*</text><!--MD5=[ccaffa6076cd74893ffb5f5daa97ed33]
reverse link Error to NoListenerError--><path codeLine="34" d="M405.2083,122.682 C405.2083,164.0049 405.2083,225.3486 405.2083,265.5778 " fill="none" id="Error-backto-NoListenerError" style="stroke:#545454;stroke-width:1.5625;"/><polygon fill="none" points="397.9167,122.609,405.2083,101.7757,412.5,122.609,397.9167,122.609" style="stroke:#545454;stroke-width:1.5625;"/><!--MD5=[a1fe2b6342e64d52932eed070271a90a]
@startuml

    !include lexakai.theme
    
    title "com.telenav.kivakit.core.messaging.broadcasters"
    
    interface Broadcaster
    
    AudienceMember o- - Listener
    AudienceMember o- - Filter
    class AudienceMember
    {
        - -(messaging)- -
        +Listener listener()
        +void receive(Transmittable message)
    }
    
    Broadcaster <|- - Multicaster
    Multicaster "1" o- - "*" AudienceMember
    class Multicaster
    {
        - -(constructors)- -
        #Multicaster()
        #Multicaster(Multicaster)
        #Multicaster(String)
        +Multicaster(Class<?>)
        +Multicaster(String, Class<?>)
        - -(messaging)- -
        +boolean isDeaf()
        +StringList listenerChain()
        +String listenerTree()
    }
    
    Error <|- - NoListenerError
    class NoListenerError
    {
        - -(constructors)- -
        +NoListenerError(String, Object)
    }
    
@enduml

@startuml









skinparam backgroundColor #333333






skinparam  {
    defaultFontName   "Open Sans,Avenir,Nunito,Arial,Helvetica,SansSerif"
    defaultFontSize   12
    defaultTextAlignment left
    shadowing false
    RoundCorner 10
    TitleFontSize 18
}

skinparam defaultFontName       "Open Sans,Avenir,Nunito,Arial,Helvetica,SansSerif"
skinparam defaultFontSize       12
skinparam dpi                   100
skinparam shadowing             false
skinparam roundcorner           16
skinparam ParticipantPadding    40
skinparam BoxPadding            40
skinparam Padding               3
skinparam ArrowColor            #545454
skinparam stereotype {
    CBackgroundColor #0066cf
    CBorderColor #0086ef
    ABackgroundColor #C8Ac00
    ABorderColor #D8Bc00
    IBackgroundColor #008400
    IBorderColor #239c23
    EBackgroundColor #cf6300
    EBorderColor #ef8300
    NBackgroundColor #3380b9
    NBorderColor #004d86
}
skinparam title {
	FontColor	                 #c0c0c0
 	BorderColor                  #545454
	FontSize	    	         20
	BorderRoundCorner            16
	BorderThickness 	         1
	BackgroundColor              #48494b
}


skinparam legend {
	BackgroundColor #303030
	BorderColor #404040
	FontColor #a0a0a0
}

	skinparam swimlane {
	BorderColor #5e5e5e
	BorderThickness 2
	TitleBackgroundColor  #6d6d6d-#484848
	TitleFontColor #303030
}

skinparam activity {
		FontColor #C8Ac00
	BorderColor #333333
	BackgroundColor #333333-#333333
	BarColor #00FF00
	StartColor #0060a8
	EndColor #0060a8
	DiamondBackgroundColor #6d6d6d-#3a3a3a
  	DiamondBorderColor #3a3a3a
  	DiamondFontColor #fefefe
}


skinparam participant {
		FontColor #C8Ac00
	BorderColor #333333
	BackgroundColor #333333-#333333
	ParticipantBorderThickness 2
}


skinparam actor {
		FontColor #C8Ac00
	BorderColor #333333
	BackgroundColor #333333-#333333
}


skinparam arrow {
	Thickness 1.5
	Color #545454
	FontColor #a0a0a0
    FontStyle bold
    MessageAlignment center
}



skinparam sequence {
	BorderColor #303030
	TitleFontColor #303030
	BackgroundColor #333333
	StartColor #303030
	EndColor #303030
	BoxBackgroundColor #333333
	BoxBorderColor #484848
	BoxFontColor #484848
	LifeLineBorderColor #484848
	LifeLineBorderThickness 2
	LifeLineBackgroundColor #3a3a3a
	GroupBorderColor #484848
	GroupFontColor #484848
	GroupHeaderFontColor #0060a8
	GroupBackgroundColor #484848
	GroupHeaderBackgroundColor #333333
	DividerBackgroundColor #484848
    DividerBorderColor #484848
    DividerBorderThickness 2
    DividerFontColor #D8Bc00
	ReferenceBackgroundColor #333333
	ReferenceBorderColor #484848
	ReferenceFontColor #fefefe
	ReferenceHeaderBackgroundColor #484848
}


skinparam partition {
	BorderColor #303030
	FontColor #333333
	BackgroundColor #333333
}


skinparam collections {
		FontColor #C8Ac00
	BorderColor #333333
	BackgroundColor #333333-#333333
}


skinparam control {
		FontColor #C8Ac00
	BorderColor #333333
	BackgroundColor #333333-#333333
}


skinparam entity {
		FontColor #C8Ac00
	BorderColor #333333
	BackgroundColor #333333-#333333
}


skinparam boundary {
		FontColor #C8Ac00
	BorderColor #333333
	BackgroundColor #333333-#333333
}


skinparam agent {
	BackgroundColor #ff8000
	BorderColor #ff9933
	FontColor #484848
}


skinparam note {
	BorderThickness 1
	BackgroundColor #1b1b1a
	BorderColor #5e5e5e
	FontSize 11
	FontColor #a0a0a0
}


skinparam artifact {
	BorderThickness 10
	BorderColor #5e5e5e
	BackgroundColor #1b1b1a
	FontColor #D8Bc00
}


skinparam component {
		FontColor #C8Ac00
	BorderColor #333333
	BackgroundColor #333333-#333333
}


skinparam interface {
	BackgroundColor  #008400
	BorderColor  #007F00
	FontColor #484848
}


skinparam storage {
	BackgroundColor #ff8000
  	BorderColor #cc6600
	FontColor #222222
}


skinparam node {
	BackgroundColor #333333
	BorderColor #333333
	FontColor #C8Ac00
}


skinparam cloud {
	BackgroundColor #484848-black
	BorderColor #484848
	FontColor #D8Bc00
}


skinparam database {
		FontColor #C8Ac00
	BorderColor #333333
	BackgroundColor #333333-#333333
	BackgroundColor  #333333
}


skinparam class {
		FontColor #C8Ac00
	BorderColor #333333
	BackgroundColor #333333-#333333
	HeaderBackgroundColor #1b1b1a
    BackgroundColor #282828
    BorderColor #5e5e5e
 	StereotypeFontColor #a0a0a0
    StereotypeFontStyle bold
	BorderThickness 1
	AttributeFontColor #D8Bc00
	AttributeFontSize 11
    FontColor #D8Bc00
    FontStyle bold
}


skinparam object {
		FontColor #C8Ac00
	BorderColor #333333
	BackgroundColor #333333-#333333
	StereotypeFontColor #484848
	BorderThickness 1
	AttributeFontColor #fefefe
	AttributeFontSize 11
}


skinparam usecase {
		FontColor #C8Ac00
	BorderColor #333333
	BackgroundColor #333333-#333333
	BorderThickness 2
	StereotypeFontColor #303030
}


skinparam rectangle {
		FontColor #C8Ac00
	BorderColor #333333
	BackgroundColor #333333-#333333
	BackgroundColor #333333
	BorderThickness 2
	StereotypeFontColor #303030
}


skinparam package {
		FontColor #C8Ac00
	BorderColor #333333
	BackgroundColor #333333-#333333
	BackgroundColor #333333
	BorderThickness 2
}


skinparam folder {
	BackgroundColor #6d6d6d
  	BorderColor #ff8000
	FontColor #ff8000
	BorderThickness 2
}


skinparam frame {
	BackgroundColor #6d6d6d
  	BorderColor #0060a8
	FontColor #0060a8
	BorderThickness 2
}


skinparam state {
		FontColor #C8Ac00
	BorderColor #333333
	BackgroundColor #333333-#333333
	StartColor #0060a8
	EndColor #0060a8
	AttributeFontColor #fefefe
	AttributeFontSize 11
}


skinparam queue {
		FontColor #C8Ac00
	BorderColor #333333
	BackgroundColor #333333-#333333
}


skinparam card {
	BackgroundColor #0060a8
	BorderColor #004d86
	FontColor $INFO_TEXT
}


skinparam file {
	BackgroundColor #6d6d6d-#484848
	BorderColor #0060a8
	FontColor #fefefe
}


skinparam stack {
		FontColor #C8Ac00
	BorderColor #333333
	BackgroundColor #333333-#333333
}

    
    title "com.telenav.kivakit.core.messaging.broadcasters"
    
    interface Broadcaster
    
    AudienceMember o- - Listener
    AudienceMember o- - Filter
    class AudienceMember
    {
        - -(messaging)- -
        +Listener listener()
        +void receive(Transmittable message)
    }
    
    Broadcaster <|- - Multicaster
    Multicaster "1" o- - "*" AudienceMember
    class Multicaster
    {
        - -(constructors)- -
        #Multicaster()
        #Multicaster(Multicaster)
        #Multicaster(String)
        +Multicaster(Class<?>)
        +Multicaster(String, Class<?>)
        - -(messaging)- -
        +boolean isDeaf()
        +StringList listenerChain()
        +String listenerTree()
    }
    
    Error <|- - NoListenerError
    class NoListenerError
    {
        - -(constructors)- -
        +NoListenerError(String, Object)
    }
    
@enduml

PlantUML version 1.2021.01(Tue Feb 02 00:55:08 MST 2021)
(GPL source distribution)
Java Runtime: OpenJDK Runtime Environment
JVM: OpenJDK 64-Bit Server VM
Default Encoding: UTF-8
Language: en
Country: US
--></g></svg>