<?xml version="1.0" encoding="UTF-8" standalone="no"?><svg xmlns="http://www.w3.org/2000/svg" xmlns:xlink="http://www.w3.org/1999/xlink" contentScriptType="application/ecmascript" contentStyleType="text/css" height="761.4583px" preserveAspectRatio="none" style="width:932px;height:761px;background:#333333;" version="1.1" viewBox="0 0 932 761" width="932.2917px" zoomAndPan="magnify"><defs/><g><rect fill="#48494B" height="41.2028" rx="8.3333" ry="8.3333" style="stroke:#545454;stroke-width:1.0416666666666667;" width="412.5" x="252.8646" y="2.0833"/><text fill="#C0C0C0" font-family="Open Sans,Avenir,Nunito,Arial,Helvetica,SansSerif" font-size="20.8333" lengthAdjust="spacing" textLength="389.5833" x="264.3229" y="30.5583">com.telenav.kivakit.core.collections.set</text><!--MD5=[d2e71034bb579155b8dc9376a9b28591]
class BaseSet--><rect codeLine="17" fill="#282828" height="186.2691" id="BaseSet" rx="8.3333" ry="8.3333" style="stroke:#5E5E5E;stroke-width:1.0416666666666667;" width="247.9167" x="368.2292" y="217.7653"/><rect fill="#1B1B1A" height="31.3883" rx="8.3333" ry="8.3333" style="stroke:#1B1B1A;stroke-width:1.0416666666666667;" width="247.9167" x="368.2292" y="217.7653"/><rect fill="#1B1B1A" height="8.3333" style="stroke:#1B1B1A;stroke-width:1.0416666666666667;" width="247.9167" x="368.2292" y="240.8203"/><rect codeLine="17" fill="none" height="186.2691" id="BaseSet" rx="8.3333" ry="8.3333" style="stroke:#5E5E5E;stroke-width:1.0416666666666667;" width="247.9167" x="368.2292" y="217.7653"/><ellipse cx="436.9792" cy="233.4595" fill="#C8AC00" rx="10.4167" ry="10.4167" style="stroke:#D8BC00;stroke-width:1.0416666666666667;"/><path d="M436.5723,230.1615 L435.7239,233.8908 L437.4268,233.8908 Z M435.4736,228.5136 L437.677,228.5136 L440.1367,237.6261 L438.3362,237.6261 L437.7747,235.3739 L435.3638,235.3739 L434.8145,237.6261 L433.0139,237.6261 Z " fill="#000000"/><text fill="#D8BC00" font-family="Open Sans,Avenir,Nunito,Arial,Helvetica,SansSerif" font-size="12.5" font-style="italic" font-weight="bold" lengthAdjust="spacing" textLength="50" x="459.8958" y="238.1836">BaseSet</text><rect fill="#333333" height="23.055" style="stroke:#A0A0A0;stroke-width:1.0416666666666667;stroke-dasharray:2.0,2.0;" width="43.75" x="575.5208" y="214.6403"/><text fill="#A0A0A0" font-family="Open Sans,Avenir,Nunito,Arial,Helvetica,SansSerif" font-size="12.5" font-weight="bold" lengthAdjust="spacing" textLength="35.4167" x="579.6875" y="230.8919">Value</text><line style="stroke:#5E5E5E;stroke-width:1.5625;" x1="369.2708" x2="615.1042" y1="249.1536" y2="249.1536"/><polygon fill="#FFFF44" points="379.6875,279.3152,383.8542,283.4819,379.6875,287.6485,375.5208,283.4819" style="stroke:#B38D22;stroke-width:1.0416666666666667;"/><text fill="#D8BC00" font-family="Open Sans,Avenir,Nunito,Arial,Helvetica,SansSerif" font-size="11.4583" lengthAdjust="spacing" textLength="50" x="391.1458" y="291.4347">BaseSet()</text><polygon fill="#FFFF44" points="379.6875,299.0601,383.8542,303.2267,379.6875,307.3934,375.5208,303.2267" style="stroke:#B38D22;stroke-width:1.0416666666666667;"/><text fill="#D8BC00" font-family="Open Sans,Avenir,Nunito,Arial,Helvetica,SansSerif" font-size="11.4583" lengthAdjust="spacing" textLength="104.1667" x="391.1458" y="311.1796">BaseSet(Maximum)</text><polygon fill="#FFFF44" points="379.6875,318.8049,383.8542,322.9716,379.6875,327.1383,375.5208,322.9716" style="stroke:#B38D22;stroke-width:1.0416666666666667;"/><text fill="#D8BC00" font-family="Open Sans,Avenir,Nunito,Arial,Helvetica,SansSerif" font-size="11.4583" lengthAdjust="spacing" textLength="215.625" x="391.1458" y="330.9245">BaseSet(Maximum, Collection&lt;Value&gt;)</text><line style="stroke:#5E5E5E;stroke-width:1.0416666666666667;" x1="369.2708" x2="448.4375" y1="267.3594" y2="267.3594"/><text fill="#D8BC00" font-family="Open Sans,Avenir,Nunito,Arial,Helvetica,SansSerif" font-size="11.4583" lengthAdjust="spacing" textLength="81.25" x="451.5625" y="271.169">(constructors)</text><line style="stroke:#5E5E5E;stroke-width:1.0416666666666667;" x1="535.9375" x2="615.1042" y1="267.3594" y2="267.3594"/><polygon fill="#FFFF44" points="379.6875,362.4613,383.8542,366.628,379.6875,370.7947,375.5208,366.628" style="stroke:#B38D22;stroke-width:1.0416666666666667;"/><text fill="#D8BC00" font-family="Open Sans,Avenir,Nunito,Arial,Helvetica,SansSerif" font-size="11.4583" lengthAdjust="spacing" textLength="158.3333" x="391.1458" y="374.5809">Set&lt;Value&gt; newBackingSet()</text><polygon fill="#FFFF44" points="379.6875,382.2062,383.8542,386.3729,379.6875,390.5396,375.5208,386.3729" style="stroke:#B38D22;stroke-width:1.0416666666666667;"/><text fill="#D8BC00" font-family="Open Sans,Avenir,Nunito,Arial,Helvetica,SansSerif" font-size="11.4583" lengthAdjust="spacing" textLength="173.9583" x="391.1458" y="394.3258">Set&lt;Value&gt; onNewBackingSet()</text><line style="stroke:#5E5E5E;stroke-width:1.0416666666666667;" x1="369.2708" x2="465.1042" y1="350.5056" y2="350.5056"/><text fill="#D8BC00" font-family="Open Sans,Avenir,Nunito,Arial,Helvetica,SansSerif" font-size="11.4583" lengthAdjust="spacing" textLength="47.9167" x="468.2292" y="354.3152">(factory)</text><line style="stroke:#5E5E5E;stroke-width:1.0416666666666667;" x1="519.2708" x2="615.1042" y1="350.5056" y2="350.5056"/><!--MD5=[f7c4391662c945ed36d44e2e8d2e2eab]
class BaseCollection--><rect codeLine="8" fill="#282828" height="48.055" id="BaseCollection" rx="8.3333" ry="8.3333" style="stroke:#5E5E5E;stroke-width:1.0416666666666667;" width="133.3333" x="293.2292" y="53.7028"/><rect fill="#1B1B1A" height="31.3883" rx="8.3333" ry="8.3333" style="stroke:#1B1B1A;stroke-width:1.0416666666666667;" width="133.3333" x="293.2292" y="53.7028"/><rect fill="#1B1B1A" height="8.3333" style="stroke:#1B1B1A;stroke-width:1.0416666666666667;" width="133.3333" x="293.2292" y="76.7578"/><rect codeLine="8" fill="none" height="48.055" id="BaseCollection" rx="8.3333" ry="8.3333" style="stroke:#5E5E5E;stroke-width:1.0416666666666667;" width="133.3333" x="293.2292" y="53.7028"/><ellipse cx="307.8125" cy="69.397" fill="#C8AC00" rx="10.4167" ry="10.4167" style="stroke:#D8BC00;stroke-width:1.0416666666666667;"/><path d="M307.4056,66.099 L306.5572,69.8283 L308.2601,69.8283 Z M306.307,64.4511 L308.5103,64.4511 L310.9701,73.5636 L309.1695,73.5636 L308.608,71.3114 L306.1971,71.3114 L305.6478,73.5636 L303.8472,73.5636 Z " fill="#000000"/><text fill="#D8BC00" font-family="Open Sans,Avenir,Nunito,Arial,Helvetica,SansSerif" font-size="12.5" font-style="italic" font-weight="bold" lengthAdjust="spacing" textLength="95.8333" x="324.4792" y="74.1211">BaseCollection</text><line style="stroke:#5E5E5E;stroke-width:1.0416666666666667;" x1="294.2708" x2="425.5208" y1="85.0911" y2="85.0911"/><line style="stroke:#5E5E5E;stroke-width:1.0416666666666667;" x1="294.2708" x2="425.5208" y1="93.4245" y2="93.4245"/><!--MD5=[d34fc29350ee4454da9b34ad57193ac3]
class BaseMap--><rect codeLine="9" fill="#282828" height="48.055" id="BaseMap" rx="8.3333" ry="8.3333" style="stroke:#5E5E5E;stroke-width:1.0416666666666667;" width="94.7917" x="731.25" y="53.7028"/><rect fill="#1B1B1A" height="31.3883" rx="8.3333" ry="8.3333" style="stroke:#1B1B1A;stroke-width:1.0416666666666667;" width="94.7917" x="731.25" y="53.7028"/><rect fill="#1B1B1A" height="8.3333" style="stroke:#1B1B1A;stroke-width:1.0416666666666667;" width="94.7917" x="731.25" y="76.7578"/><rect codeLine="9" fill="none" height="48.055" id="BaseMap" rx="8.3333" ry="8.3333" style="stroke:#5E5E5E;stroke-width:1.0416666666666667;" width="94.7917" x="731.25" y="53.7028"/><ellipse cx="745.8333" cy="69.397" fill="#C8AC00" rx="10.4167" ry="10.4167" style="stroke:#D8BC00;stroke-width:1.0416666666666667;"/><path d="M745.4264,66.099 L744.578,69.8283 L746.2809,69.8283 Z M744.3278,64.4511 L746.5312,64.4511 L748.9909,73.5636 L747.1903,73.5636 L746.6288,71.3114 L744.2179,71.3114 L743.6686,73.5636 L741.8681,73.5636 Z " fill="#000000"/><text fill="#D8BC00" font-family="Open Sans,Avenir,Nunito,Arial,Helvetica,SansSerif" font-size="12.5" font-style="italic" font-weight="bold" lengthAdjust="spacing" textLength="57.2917" x="762.5" y="74.1211">BaseMap</text><line style="stroke:#5E5E5E;stroke-width:1.0416666666666667;" x1="732.2917" x2="825" y1="85.0911" y2="85.0911"/><line style="stroke:#5E5E5E;stroke-width:1.0416666666666667;" x1="732.2917" x2="825" y1="93.4245" y2="93.4245"/><!--MD5=[73145e46247802284b2f7aaef1fa1797]
class Set--><rect codeLine="11" fill="#282828" height="48.055" id="Set" rx="8.3333" ry="8.3333" style="stroke:#5E5E5E;stroke-width:1.0416666666666667;" width="57.2917" x="463.5417" y="53.7028"/><rect fill="#1B1B1A" height="31.3883" rx="8.3333" ry="8.3333" style="stroke:#1B1B1A;stroke-width:1.0416666666666667;" width="57.2917" x="463.5417" y="53.7028"/><rect fill="#1B1B1A" height="8.3333" style="stroke:#1B1B1A;stroke-width:1.0416666666666667;" width="57.2917" x="463.5417" y="76.7578"/><rect codeLine="11" fill="none" height="48.055" id="Set" rx="8.3333" ry="8.3333" style="stroke:#5E5E5E;stroke-width:1.0416666666666667;" width="57.2917" x="463.5417" y="53.7028"/><ellipse cx="478.125" cy="69.397" fill="#008400" rx="10.4167" ry="10.4167" style="stroke:#239C23;stroke-width:1.0416666666666667;"/><path d="M475.529,66.5588 L475.529,64.9719 L480.955,64.9719 L480.955,66.5588 L479.1423,66.5588 L479.1423,72.4976 L480.955,72.4976 L480.955,74.0845 L475.529,74.0845 L475.529,72.4976 L477.3417,72.4976 L477.3417,66.5588 Z " fill="#000000"/><text fill="#D8BC00" font-family="Open Sans,Avenir,Nunito,Arial,Helvetica,SansSerif" font-size="12.5" font-style="italic" font-weight="bold" lengthAdjust="spacing" textLength="19.7917" x="494.7917" y="74.1211">Set</text><line style="stroke:#5E5E5E;stroke-width:1.0416666666666667;" x1="464.5833" x2="519.7917" y1="85.0911" y2="85.0911"/><line style="stroke:#5E5E5E;stroke-width:1.0416666666666667;" x1="464.5833" x2="519.7917" y1="93.4245" y2="93.4245"/><!--MD5=[7970312eed74b8605bb3ff0e390ebb23]
class Copyable--><rect codeLine="12" fill="#282828" height="48.055" id="Copyable" rx="8.3333" ry="8.3333" style="stroke:#5E5E5E;stroke-width:1.0416666666666667;" width="97.9167" x="557.8125" y="53.7028"/><rect fill="#1B1B1A" height="31.3883" rx="8.3333" ry="8.3333" style="stroke:#1B1B1A;stroke-width:1.0416666666666667;" width="97.9167" x="557.8125" y="53.7028"/><rect fill="#1B1B1A" height="8.3333" style="stroke:#1B1B1A;stroke-width:1.0416666666666667;" width="97.9167" x="557.8125" y="76.7578"/><rect codeLine="12" fill="none" height="48.055" id="Copyable" rx="8.3333" ry="8.3333" style="stroke:#5E5E5E;stroke-width:1.0416666666666667;" width="97.9167" x="557.8125" y="53.7028"/><ellipse cx="572.3958" cy="69.397" fill="#008400" rx="10.4167" ry="10.4167" style="stroke:#239C23;stroke-width:1.0416666666666667;"/><path d="M569.7998,66.5588 L569.7998,64.9719 L575.2258,64.9719 L575.2258,66.5588 L573.4131,66.5588 L573.4131,72.4976 L575.2258,72.4976 L575.2258,74.0845 L569.7998,74.0845 L569.7998,72.4976 L571.6125,72.4976 L571.6125,66.5588 Z " fill="#000000"/><text fill="#D8BC00" font-family="Open Sans,Avenir,Nunito,Arial,Helvetica,SansSerif" font-size="12.5" font-style="italic" font-weight="bold" lengthAdjust="spacing" textLength="60.4167" x="589.0625" y="74.1211">Copyable</text><line style="stroke:#5E5E5E;stroke-width:1.0416666666666667;" x1="558.8542" x2="654.6875" y1="85.0911" y2="85.0911"/><line style="stroke:#5E5E5E;stroke-width:1.0416666666666667;" x1="558.8542" x2="654.6875" y1="93.4245" y2="93.4245"/><!--MD5=[0e17c17a4f20ec65acd6880486090a5a]
class ConcurrentHashSet--><rect codeLine="29" fill="#282828" height="170.6909" id="ConcurrentHashSet" rx="8.3333" ry="8.3333" style="stroke:#5E5E5E;stroke-width:1.0416666666666667;" width="315.625" x="7.2917" y="552.1403"/><rect fill="#1B1B1A" height="31.3883" rx="8.3333" ry="8.3333" style="stroke:#1B1B1A;stroke-width:1.0416666666666667;" width="315.625" x="7.2917" y="552.1403"/><rect fill="#1B1B1A" height="8.3333" style="stroke:#1B1B1A;stroke-width:1.0416666666666667;" width="315.625" x="7.2917" y="575.1953"/><rect codeLine="29" fill="none" height="170.6909" id="ConcurrentHashSet" rx="8.3333" ry="8.3333" style="stroke:#5E5E5E;stroke-width:1.0416666666666667;" width="315.625" x="7.2917" y="552.1403"/><ellipse cx="72.9167" cy="567.8345" fill="#0066CF" rx="10.4167" ry="10.4167" style="stroke:#0086EF;stroke-width:1.0416666666666667;"/><path d="M74.8271,572.2595 Q74.3998,572.4792 73.9299,572.5891 Q73.4599,572.699 72.9411,572.699 Q71.0978,572.699 70.1274,571.4844 Q69.1569,570.2698 69.1569,567.9749 Q69.1569,565.6738 70.1274,564.4592 Q71.0978,563.2446 72.9411,563.2446 Q73.4599,563.2446 73.936,563.3545 Q74.412,563.4644 74.8271,563.6841 L74.8271,565.686 Q74.3632,565.2588 73.9268,565.0604 Q73.4904,564.8621 73.0265,564.8621 Q72.0378,564.8621 71.5342,565.6464 Q71.0307,566.4307 71.0307,567.9749 Q71.0307,569.5129 71.5342,570.2972 Q72.0378,571.0815 73.0265,571.0815 Q73.4904,571.0815 73.9268,570.8832 Q74.3632,570.6848 74.8271,570.2576 Z " fill="#000000"/><text fill="#D8BC00" font-family="Open Sans,Avenir,Nunito,Arial,Helvetica,SansSerif" font-size="12.5" font-weight="bold" lengthAdjust="spacing" textLength="123.9583" x="95.8333" y="572.5586">ConcurrentHashSet</text><rect fill="#333333" height="23.055" style="stroke:#A0A0A0;stroke-width:1.0416666666666667;stroke-dasharray:2.0,2.0;" width="43.75" x="282.2917" y="549.0153"/><text fill="#A0A0A0" font-family="Open Sans,Avenir,Nunito,Arial,Helvetica,SansSerif" font-size="12.5" font-weight="bold" lengthAdjust="spacing" textLength="35.4167" x="286.4583" y="565.2669">Value</text><line style="stroke:#5E5E5E;stroke-width:1.5625;" x1="8.3333" x2="321.875" y1="583.5286" y2="583.5286"/><ellipse cx="18.75" cy="618.8985" fill="#84BE84" rx="3.125" ry="3.125" style="stroke:#038048;stroke-width:1.0416666666666667;"/><text fill="#D8BC00" font-family="Open Sans,Avenir,Nunito,Arial,Helvetica,SansSerif" font-size="11.4583" lengthAdjust="spacing" textLength="117.7083" x="30.2083" y="625.8097">ConcurrentHashSet()</text><ellipse cx="18.75" cy="638.6434" fill="#84BE84" rx="3.125" ry="3.125" style="stroke:#038048;stroke-width:1.0416666666666667;"/><text fill="#D8BC00" font-family="Open Sans,Avenir,Nunito,Arial,Helvetica,SansSerif" font-size="11.4583" lengthAdjust="spacing" textLength="171.875" x="30.2083" y="645.5546">ConcurrentHashSet(Maximum)</text><ellipse cx="18.75" cy="658.3883" fill="#84BE84" rx="3.125" ry="3.125" style="stroke:#038048;stroke-width:1.0416666666666667;"/><text fill="#D8BC00" font-family="Open Sans,Avenir,Nunito,Arial,Helvetica,SansSerif" font-size="11.4583" lengthAdjust="spacing" textLength="283.3333" x="30.2083" y="665.2995">ConcurrentHashSet(Maximum, Collection&lt;Value&gt;)</text><line style="stroke:#5E5E5E;stroke-width:1.0416666666666667;" x1="8.3333" x2="121.3542" y1="601.7344" y2="601.7344"/><text fill="#D8BC00" font-family="Open Sans,Avenir,Nunito,Arial,Helvetica,SansSerif" font-size="11.4583" lengthAdjust="spacing" textLength="81.25" x="124.4792" y="605.544">(constructors)</text><line style="stroke:#5E5E5E;stroke-width:1.0416666666666667;" x1="208.8542" x2="321.875" y1="601.7344" y2="601.7344"/><line style="stroke:#5E5E5E;stroke-width:1.0416666666666667;" x1="8.3333" x2="321.875" y1="675.0081" y2="675.0081"/><ellipse cx="18.75" cy="686.4665" fill="#84BE84" rx="3.125" ry="3.125" style="stroke:#038048;stroke-width:1.0416666666666667;"/><text fill="#D8BC00" font-family="Open Sans,Avenir,Nunito,Arial,Helvetica,SansSerif" font-size="11.4583" lengthAdjust="spacing" textLength="147.9167" x="30.2083" y="693.3777">Value get(Value prototype)</text><ellipse cx="18.75" cy="706.2113" fill="#84BE84" rx="3.125" ry="3.125" style="stroke:#038048;stroke-width:1.0416666666666667;"/><text fill="#D8BC00" font-family="Open Sans,Avenir,Nunito,Arial,Helvetica,SansSerif" font-size="11.4583" lengthAdjust="spacing" textLength="153.125" x="30.2083" y="713.1226">Value take(Value prototype)</text><!--MD5=[8c96f09a57c3fa53129c90ddd0ee0907]
class IdentitySet--><rect codeLine="41" fill="#282828" height="170.6909" id="IdentitySet" rx="8.3333" ry="8.3333" style="stroke:#5E5E5E;stroke-width:1.0416666666666667;" width="264.5833" x="359.8958" y="552.1403"/><rect fill="#1B1B1A" height="31.3883" rx="8.3333" ry="8.3333" style="stroke:#1B1B1A;stroke-width:1.0416666666666667;" width="264.5833" x="359.8958" y="552.1403"/><rect fill="#1B1B1A" height="8.3333" style="stroke:#1B1B1A;stroke-width:1.0416666666666667;" width="264.5833" x="359.8958" y="575.1953"/><rect codeLine="41" fill="none" height="170.6909" id="IdentitySet" rx="8.3333" ry="8.3333" style="stroke:#5E5E5E;stroke-width:1.0416666666666667;" width="264.5833" x="359.8958" y="552.1403"/><ellipse cx="427.0833" cy="567.8345" fill="#0066CF" rx="10.4167" ry="10.4167" style="stroke:#0086EF;stroke-width:1.0416666666666667;"/><path d="M428.9937,572.2595 Q428.5665,572.4792 428.0965,572.5891 Q427.6265,572.699 427.1077,572.699 Q425.2645,572.699 424.294,571.4844 Q423.3236,570.2698 423.3236,567.9749 Q423.3236,565.6738 424.294,564.4592 Q425.2645,563.2446 427.1077,563.2446 Q427.6265,563.2446 428.1026,563.3545 Q428.5787,563.4644 428.9937,563.6841 L428.9937,565.686 Q428.5299,565.2588 428.0935,565.0604 Q427.6571,564.8621 427.1932,564.8621 Q426.2044,564.8621 425.7009,565.6464 Q425.1973,566.4307 425.1973,567.9749 Q425.1973,569.5129 425.7009,570.2972 Q426.2044,571.0815 427.1932,571.0815 Q427.6571,571.0815 428.0935,570.8832 Q428.5299,570.6848 428.9937,570.2576 Z " fill="#000000"/><text fill="#D8BC00" font-family="Open Sans,Avenir,Nunito,Arial,Helvetica,SansSerif" font-size="12.5" font-weight="bold" lengthAdjust="spacing" textLength="69.7917" x="450" y="572.5586">IdentitySet</text><rect fill="#333333" height="23.055" style="stroke:#A0A0A0;stroke-width:1.0416666666666667;stroke-dasharray:2.0,2.0;" width="43.75" x="583.8542" y="549.0153"/><text fill="#A0A0A0" font-family="Open Sans,Avenir,Nunito,Arial,Helvetica,SansSerif" font-size="12.5" font-weight="bold" lengthAdjust="spacing" textLength="35.4167" x="588.0208" y="565.2669">Value</text><line style="stroke:#5E5E5E;stroke-width:1.5625;" x1="360.9375" x2="623.4375" y1="583.5286" y2="583.5286"/><ellipse cx="371.3542" cy="618.8985" fill="#84BE84" rx="3.125" ry="3.125" style="stroke:#038048;stroke-width:1.0416666666666667;"/><text fill="#D8BC00" font-family="Open Sans,Avenir,Nunito,Arial,Helvetica,SansSerif" font-size="11.4583" lengthAdjust="spacing" textLength="66.6667" x="382.8125" y="625.8097">IdentitySet()</text><ellipse cx="371.3542" cy="638.6434" fill="#84BE84" rx="3.125" ry="3.125" style="stroke:#038048;stroke-width:1.0416666666666667;"/><text fill="#D8BC00" font-family="Open Sans,Avenir,Nunito,Arial,Helvetica,SansSerif" font-size="11.4583" lengthAdjust="spacing" textLength="120.8333" x="382.8125" y="645.5546">IdentitySet(Maximum)</text><ellipse cx="371.3542" cy="658.3883" fill="#84BE84" rx="3.125" ry="3.125" style="stroke:#038048;stroke-width:1.0416666666666667;"/><text fill="#D8BC00" font-family="Open Sans,Avenir,Nunito,Arial,Helvetica,SansSerif" font-size="11.4583" lengthAdjust="spacing" textLength="232.2917" x="382.8125" y="665.2995">IdentitySet(Maximum, Collection&lt;Value&gt;)</text><line style="stroke:#5E5E5E;stroke-width:1.0416666666666667;" x1="360.9375" x2="448.4375" y1="601.7344" y2="601.7344"/><text fill="#D8BC00" font-family="Open Sans,Avenir,Nunito,Arial,Helvetica,SansSerif" font-size="11.4583" lengthAdjust="spacing" textLength="81.25" x="451.5625" y="605.544">(constructors)</text><line style="stroke:#5E5E5E;stroke-width:1.0416666666666667;" x1="535.9375" x2="623.4375" y1="601.7344" y2="601.7344"/><line style="stroke:#5E5E5E;stroke-width:1.0416666666666667;" x1="360.9375" x2="623.4375" y1="675.0081" y2="675.0081"/><ellipse cx="371.3542" cy="686.4665" fill="#84BE84" rx="3.125" ry="3.125" style="stroke:#038048;stroke-width:1.0416666666666667;"/><text fill="#D8BC00" font-family="Open Sans,Avenir,Nunito,Arial,Helvetica,SansSerif" font-size="11.4583" lengthAdjust="spacing" textLength="147.9167" x="382.8125" y="693.3777">Value get(Value prototype)</text><ellipse cx="371.3542" cy="706.2113" fill="#84BE84" rx="3.125" ry="3.125" style="stroke:#038048;stroke-width:1.0416666666666667;"/><text fill="#D8BC00" font-family="Open Sans,Avenir,Nunito,Arial,Helvetica,SansSerif" font-size="11.4583" lengthAdjust="spacing" textLength="153.125" x="382.8125" y="713.1226">Value take(Value prototype)</text><!--MD5=[0d23faf8d9c841cfba57787c892bb97b]
class MultiSet--><rect codeLine="53" fill="#282828" height="293.3268" id="MultiSet" rx="8.3333" ry="8.3333" style="stroke:#5E5E5E;stroke-width:1.0416666666666667;" width="251.0417" x="653.125" y="164.1195"/><rect fill="#1B1B1A" height="31.3883" rx="8.3333" ry="8.3333" style="stroke:#1B1B1A;stroke-width:1.0416666666666667;" width="251.0417" x="653.125" y="164.1195"/><rect fill="#1B1B1A" height="8.3333" style="stroke:#1B1B1A;stroke-width:1.0416666666666667;" width="251.0417" x="653.125" y="187.1745"/><rect codeLine="53" fill="none" height="293.3268" id="MultiSet" rx="8.3333" ry="8.3333" style="stroke:#5E5E5E;stroke-width:1.0416666666666667;" width="251.0417" x="653.125" y="164.1195"/><ellipse cx="706.25" cy="179.8136" fill="#0066CF" rx="10.4167" ry="10.4167" style="stroke:#0086EF;stroke-width:1.0416666666666667;"/><path d="M708.1604,184.2387 Q707.7332,184.4584 707.2632,184.5683 Q706.7932,184.6781 706.2744,184.6781 Q704.4312,184.6781 703.4607,183.4635 Q702.4902,182.2489 702.4902,179.954 Q702.4902,177.653 703.4607,176.4384 Q704.4312,175.2238 706.2744,175.2238 Q706.7932,175.2238 707.2693,175.3337 Q707.7454,175.4435 708.1604,175.6632 L708.1604,177.6652 Q707.6965,177.238 707.2601,177.0396 Q706.8237,176.8412 706.3599,176.8412 Q705.3711,176.8412 704.8676,177.6255 Q704.364,178.4098 704.364,179.954 Q704.364,181.4921 704.8676,182.2764 Q705.3711,183.0607 706.3599,183.0607 Q706.8237,183.0607 707.2601,182.8623 Q707.6965,182.664 708.1604,182.2367 Z " fill="#000000"/><text fill="#D8BC00" font-family="Open Sans,Avenir,Nunito,Arial,Helvetica,SansSerif" font-size="12.5" font-weight="bold" lengthAdjust="spacing" textLength="53.125" x="729.1667" y="184.5378">MultiSet</text><rect fill="#333333" height="23.055" style="stroke:#A0A0A0;stroke-width:1.0416666666666667;stroke-dasharray:2.0,2.0;" width="75" x="832.2917" y="160.9945"/><text fill="#A0A0A0" font-family="Open Sans,Avenir,Nunito,Arial,Helvetica,SansSerif" font-size="12.5" font-weight="bold" lengthAdjust="spacing" textLength="66.6667" x="836.4583" y="177.2461">Key, Value</text><line style="stroke:#5E5E5E;stroke-width:1.5625;" x1="654.1667" x2="903.125" y1="195.5078" y2="195.5078"/><ellipse cx="664.5833" cy="230.8777" fill="#84BE84" rx="3.125" ry="3.125" style="stroke:#038048;stroke-width:1.0416666666666667;"/><text fill="#D8BC00" font-family="Open Sans,Avenir,Nunito,Arial,Helvetica,SansSerif" font-size="11.4583" lengthAdjust="spacing" textLength="52.0833" x="676.0417" y="237.7889">MultiSet()</text><ellipse cx="664.5833" cy="250.6226" fill="#84BE84" rx="3.125" ry="3.125" style="stroke:#038048;stroke-width:1.0416666666666667;"/><text fill="#D8BC00" font-family="Open Sans,Avenir,Nunito,Arial,Helvetica,SansSerif" font-size="11.4583" lengthAdjust="spacing" textLength="166.6667" x="676.0417" y="257.5338">MultiSet(Maximum, Maximum)</text><line style="stroke:#5E5E5E;stroke-width:1.0416666666666667;" x1="654.1667" x2="734.8958" y1="213.7136" y2="213.7136"/><text fill="#D8BC00" font-family="Open Sans,Avenir,Nunito,Arial,Helvetica,SansSerif" font-size="11.4583" lengthAdjust="spacing" textLength="81.25" x="738.0208" y="217.5232">(constructors)</text><line style="stroke:#5E5E5E;stroke-width:1.0416666666666667;" x1="822.3958" x2="903.125" y1="213.7136" y2="213.7136"/><line style="stroke:#5E5E5E;stroke-width:1.0416666666666667;" x1="654.1667" x2="903.125" y1="267.2424" y2="267.2424"/><ellipse cx="664.5833" cy="278.7008" fill="#84BE84" rx="3.125" ry="3.125" style="stroke:#038048;stroke-width:1.0416666666666667;"/><text fill="#D8BC00" font-family="Open Sans,Avenir,Nunito,Arial,Helvetica,SansSerif" font-size="11.4583" lengthAdjust="spacing" textLength="162.5" x="676.0417" y="285.612">void replaceValue(Key, Value)</text><ellipse cx="664.5833" cy="298.4456" fill="#84BE84" rx="3.125" ry="3.125" style="stroke:#038048;stroke-width:1.0416666666666667;"/><text fill="#D8BC00" font-family="Open Sans,Avenir,Nunito,Arial,Helvetica,SansSerif" font-size="11.4583" lengthAdjust="spacing" textLength="150" x="676.0417" y="305.3569">ObjectSet&lt;Value&gt; set(Key)</text><ellipse cx="664.5833" cy="342.1021" fill="#84BE84" rx="3.125" ry="3.125" style="stroke:#038048;stroke-width:1.0416666666666667;"/><text fill="#D8BC00" font-family="Open Sans,Avenir,Nunito,Arial,Helvetica,SansSerif" font-size="11.4583" lengthAdjust="spacing" textLength="112.5" x="676.0417" y="349.0133">void add(Key, Value)</text><ellipse cx="664.5833" cy="361.8469" fill="#84BE84" rx="3.125" ry="3.125" style="stroke:#038048;stroke-width:1.0416666666666667;"/><text fill="#D8BC00" font-family="Open Sans,Avenir,Nunito,Arial,Helvetica,SansSerif" font-size="11.4583" lengthAdjust="spacing" textLength="156.25" x="676.0417" y="368.7581">Iterable&lt;Value&gt; flatValues()</text><ellipse cx="664.5833" cy="381.5918" fill="#84BE84" rx="3.125" ry="3.125" style="stroke:#038048;stroke-width:1.0416666666666667;"/><text fill="#D8BC00" font-family="Open Sans,Avenir,Nunito,Arial,Helvetica,SansSerif" font-size="11.4583" lengthAdjust="spacing" textLength="218.75" x="676.0417" y="388.503">Set&lt;Value&gt; getOrEmptySet(Object key)</text><ellipse cx="664.5833" cy="401.3367" fill="#84BE84" rx="3.125" ry="3.125" style="stroke:#038048;stroke-width:1.0416666666666667;"/><text fill="#D8BC00" font-family="Open Sans,Avenir,Nunito,Arial,Helvetica,SansSerif" font-size="11.4583" lengthAdjust="spacing" textLength="139.5833" x="676.0417" y="408.2479">Count maximumSetSize()</text><ellipse cx="664.5833" cy="421.0815" fill="#84BE84" rx="3.125" ry="3.125" style="stroke:#038048;stroke-width:1.0416666666666667;"/><text fill="#D8BC00" font-family="Open Sans,Avenir,Nunito,Arial,Helvetica,SansSerif" font-size="11.4583" lengthAdjust="spacing" textLength="179.1667" x="676.0417" y="427.9928">void removeFromSet(Key, Value)</text><ellipse cx="664.5833" cy="440.8264" fill="#84BE84" rx="3.125" ry="3.125" style="stroke:#038048;stroke-width:1.0416666666666667;"/><text fill="#D8BC00" font-family="Open Sans,Avenir,Nunito,Arial,Helvetica,SansSerif" font-size="11.4583" lengthAdjust="spacing" textLength="89.5833" x="676.0417" y="447.7376">int valueCount()</text><line style="stroke:#5E5E5E;stroke-width:1.0416666666666667;" x1="654.1667" x2="744.2708" y1="324.9379" y2="324.9379"/><text fill="#D8BC00" font-family="Open Sans,Avenir,Nunito,Arial,Helvetica,SansSerif" font-size="11.4583" lengthAdjust="spacing" textLength="62.5" x="747.3958" y="328.7476">(collection)</text><line style="stroke:#5E5E5E;stroke-width:1.0416666666666667;" x1="813.0208" x2="903.125" y1="324.9379" y2="324.9379"/><!--MD5=[2f9039e015adf35b8e7547ee16fa22b7]
class ObjectSet--><rect codeLine="71" fill="#282828" height="234.0922" id="ObjectSet" rx="8.3333" ry="8.3333" style="stroke:#5E5E5E;stroke-width:1.0416666666666667;" width="260.4167" x="660.9375" y="520.3695"/><rect fill="#1B1B1A" height="31.3883" rx="8.3333" ry="8.3333" style="stroke:#1B1B1A;stroke-width:1.0416666666666667;" width="260.4167" x="660.9375" y="520.3695"/><rect fill="#1B1B1A" height="8.3333" style="stroke:#1B1B1A;stroke-width:1.0416666666666667;" width="260.4167" x="660.9375" y="543.4245"/><rect codeLine="71" fill="none" height="234.0922" id="ObjectSet" rx="8.3333" ry="8.3333" style="stroke:#5E5E5E;stroke-width:1.0416666666666667;" width="260.4167" x="660.9375" y="520.3695"/><ellipse cx="730.2083" cy="536.0636" fill="#0066CF" rx="10.4167" ry="10.4167" style="stroke:#0086EF;stroke-width:1.0416666666666667;"/><path d="M732.1187,540.4887 Q731.6915,540.7084 731.2215,540.8183 Q730.7515,540.9281 730.2327,540.9281 Q728.3895,540.9281 727.419,539.7135 Q726.4486,538.4989 726.4486,536.204 Q726.4486,533.903 727.419,532.6884 Q728.3895,531.4738 730.2327,531.4738 Q730.7515,531.4738 731.2276,531.5837 Q731.7037,531.6935 732.1187,531.9132 L732.1187,533.9152 Q731.6549,533.488 731.2185,533.2896 Q730.7821,533.0912 730.3182,533.0912 Q729.3294,533.0912 728.8259,533.8755 Q728.3223,534.6598 728.3223,536.204 Q728.3223,537.7421 728.8259,538.5264 Q729.3294,539.3107 730.3182,539.3107 Q730.7821,539.3107 731.2185,539.1123 Q731.6549,538.914 732.1187,538.4867 Z " fill="#000000"/><text fill="#D8BC00" font-family="Open Sans,Avenir,Nunito,Arial,Helvetica,SansSerif" font-size="12.5" font-weight="bold" lengthAdjust="spacing" textLength="61.4583" x="753.125" y="540.7878">ObjectSet</text><rect fill="#333333" height="23.055" style="stroke:#A0A0A0;stroke-width:1.0416666666666667;stroke-dasharray:2.0,2.0;" width="43.75" x="880.7292" y="517.2445"/><text fill="#A0A0A0" font-family="Open Sans,Avenir,Nunito,Arial,Helvetica,SansSerif" font-size="12.5" font-weight="bold" lengthAdjust="spacing" textLength="35.4167" x="884.8958" y="533.4961">Value</text><line style="stroke:#5E5E5E;stroke-width:1.5625;" x1="661.9792" x2="920.3125" y1="551.7578" y2="551.7578"/><ellipse cx="672.3958" cy="587.1277" fill="#84BE84" rx="3.125" ry="3.125" style="stroke:#038048;stroke-width:1.0416666666666667;"/><text fill="#D8BC00" font-family="Open Sans,Avenir,Nunito,Arial,Helvetica,SansSerif" font-size="11.4583" lengthAdjust="spacing" textLength="61.4583" x="683.8542" y="594.0389">ObjectSet()</text><ellipse cx="672.3958" cy="606.8726" fill="#84BE84" rx="3.125" ry="3.125" style="stroke:#038048;stroke-width:1.0416666666666667;"/><text fill="#D8BC00" font-family="Open Sans,Avenir,Nunito,Arial,Helvetica,SansSerif" font-size="11.4583" lengthAdjust="spacing" textLength="166.6667" x="683.8542" y="613.7838">ObjectSet(Collection&lt;Value&gt;)</text><ellipse cx="672.3958" cy="626.6174" fill="#84BE84" rx="3.125" ry="3.125" style="stroke:#038048;stroke-width:1.0416666666666667;"/><text fill="#D8BC00" font-family="Open Sans,Avenir,Nunito,Arial,Helvetica,SansSerif" font-size="11.4583" lengthAdjust="spacing" textLength="115.625" x="683.8542" y="633.5286">ObjectSet(Maximum)</text><ellipse cx="672.3958" cy="646.3623" fill="#84BE84" rx="3.125" ry="3.125" style="stroke:#038048;stroke-width:1.0416666666666667;"/><text fill="#D8BC00" font-family="Open Sans,Avenir,Nunito,Arial,Helvetica,SansSerif" font-size="11.4583" lengthAdjust="spacing" textLength="227.0833" x="683.8542" y="653.2735">ObjectSet(Maximum, Collection&lt;Value&gt;)</text><line style="stroke:#5E5E5E;stroke-width:1.0416666666666667;" x1="661.9792" x2="747.3958" y1="569.9636" y2="569.9636"/><text fill="#D8BC00" font-family="Open Sans,Avenir,Nunito,Arial,Helvetica,SansSerif" font-size="11.4583" lengthAdjust="spacing" textLength="81.25" x="750.5208" y="573.7732">(constructors)</text><line style="stroke:#5E5E5E;stroke-width:1.0416666666666667;" x1="834.8958" x2="920.3125" y1="569.9636" y2="569.9636"/><line style="stroke:#5E5E5E;stroke-width:1.0416666666666667;" x1="661.9792" x2="920.3125" y1="662.9822" y2="662.9822"/><ellipse cx="672.3958" cy="674.4405" fill="#84BE84" rx="3.125" ry="3.125" style="stroke:#038048;stroke-width:1.0416666666666667;"/><text fill="#D8BC00" font-family="Open Sans,Avenir,Nunito,Arial,Helvetica,SansSerif" font-size="11.4583" lengthAdjust="spacing" textLength="228.125" x="683.8542" y="681.3517">ObjectSet&lt;T&gt; set(Collection&lt;T&gt; values)</text><ellipse cx="672.3958" cy="694.1854" fill="#84BE84" rx="3.125" ry="3.125" style="stroke:#038048;stroke-width:1.0416666666666667;"/><text fill="#D8BC00" font-family="Open Sans,Avenir,Nunito,Arial,Helvetica,SansSerif" font-size="11.4583" lengthAdjust="spacing" textLength="162.5" x="683.8542" y="701.0966">ObjectSet&lt;T&gt; set(T... values)</text><ellipse cx="672.3958" cy="737.8418" fill="#84BE84" rx="3.125" ry="3.125" style="stroke:#038048;stroke-width:1.0416666666666667;"/><text fill="#D8BC00" font-family="Open Sans,Avenir,Nunito,Arial,Helvetica,SansSerif" font-size="11.4583" lengthAdjust="spacing" textLength="141.6667" x="683.8542" y="744.753">ObjectSet&lt;T&gt; emptySet()</text><line style="stroke:#5E5E5E;stroke-width:1.0416666666666667;" x1="661.9792" x2="756.7708" y1="720.6777" y2="720.6777"/><text fill="#D8BC00" font-family="Open Sans,Avenir,Nunito,Arial,Helvetica,SansSerif" font-size="11.4583" lengthAdjust="spacing" textLength="62.5" x="759.8958" y="724.4873">(collection)</text><line style="stroke:#5E5E5E;stroke-width:1.0416666666666667;" x1="825.5208" x2="920.3125" y1="720.6777" y2="720.6777"/><!--MD5=[59a86f89b7887d4d69e0550502ac3d32]
reverse link BaseCollection to BaseSet--><path codeLine="14" d="M383.5417,120.0465 C399.0833,147.2028 420.0417,183.8486 439.4167,217.7028 " fill="none" id="BaseCollection-backto-BaseSet" style="stroke:#545454;stroke-width:1.5625;"/><polygon fill="none" points="377.0833,123.4215,373.0625,101.7236,389.7396,116.182,377.0833,123.4215" style="stroke:#545454;stroke-width:1.5625;"/><!--MD5=[c58f51ee3af81ce2291919ba75454419]
reverse link Copyable to BaseSet--><path codeLine="15" d="M586.0938,120.4424 C572.6563,147.557 554.5938,184.0153 537.8958,217.7028 " fill="none" id="Copyable-backto-BaseSet" style="stroke:#545454;stroke-width:1.5625;"/><polygon fill="none" points="579.5833,117.1507,595.3646,101.7236,592.6458,123.6299,579.5833,117.1507" style="stroke:#545454;stroke-width:1.5625;"/><!--MD5=[bd939bb18eee01e3c3b66a18d750e8cf]
reverse link Set to BaseSet--><path codeLine="16" d="M492.1875,122.859 C492.1875,149.7028 492.1875,185.0049 492.1875,217.7028 " fill="none" id="Set-backto-BaseSet" style="stroke:#545454;stroke-width:1.5625;"/><polygon fill="none" points="484.8958,122.557,492.1875,101.7236,499.4792,122.557,484.8958,122.557" style="stroke:#545454;stroke-width:1.5625;"/><!--MD5=[22219ef138f3ac337c71981b340de56b]
reverse link BaseSet to ConcurrentHashSet--><path codeLine="28" d="M384.1042,419.2653 C340.6458,462.3695 291.2604,511.359 250.4063,551.8903 " fill="none" id="BaseSet-backto-ConcurrentHashSet" style="stroke:#545454;stroke-width:1.5625;"/><polygon fill="none" points="378.9688,414.0778,398.8958,404.5882,389.2396,424.432,378.9688,414.0778" style="stroke:#545454;stroke-width:1.5625;"/><!--MD5=[09e6af1f7cbe4d41c244db391b31dfad]
reverse link BaseSet to IdentitySet--><path codeLine="40" d="M492.1875,425.4945 C492.1875,467.0465 492.1875,513.307 492.1875,551.8903 " fill="none" id="BaseSet-backto-IdentitySet" style="stroke:#545454;stroke-width:1.5625;"/><polygon fill="none" points="484.8958,425.4215,492.1875,404.5882,499.4792,425.4215,484.8958,425.4215" style="stroke:#545454;stroke-width:1.5625;"/><!--MD5=[aa820478fccd2ad71aafb0b7372a9fb2]
reverse link BaseMap to MultiSet--><path codeLine="52" d="M778.6458,122.859 C778.6458,135.1299 778.6458,149.1715 778.6458,163.9215 " fill="none" id="BaseMap-backto-MultiSet" style="stroke:#545454;stroke-width:1.5625;"/><polygon fill="none" points="771.3542,122.557,778.6458,101.7236,785.9375,122.557,771.3542,122.557" style="stroke:#545454;stroke-width:1.5625;"/><!--MD5=[9aea602f56e9d572cafe3606de0cefc1]
reverse link BaseSet to ObjectSet--><path codeLine="70" d="M591.7188,420.0674 C621.3125,452.182 653.8438,487.4945 683.9063,520.1195 " fill="none" id="BaseSet-backto-ObjectSet" style="stroke:#545454;stroke-width:1.5625;"/><polygon fill="none" points="586.2083,424.8486,577.4583,404.5882,596.9375,414.9632,586.2083,424.8486" style="stroke:#545454;stroke-width:1.5625;"/><!--MD5=[7a8cb913219038fd77e68f6a15ff59b2]
@startuml

    !include lexakai.theme
    
    title "com.telenav.kivakit.core.collections.set"
    
    abstract BaseSet
    abstract BaseCollection
    abstract BaseMap
    
    interface Set
    interface Copyable
    
    BaseCollection <|- - BaseSet
    Copyable <|- - BaseSet
    Set <|- - BaseSet
    abstract class BaseSet<Value>
    {
        - -(constructors)- -
        #BaseSet()
        #BaseSet(Maximum)
        #BaseSet(Maximum, Collection<Value>)
        - -(factory)- -
        #Set<Value> newBackingSet()
        #Set<Value> onNewBackingSet()
    }
    
    BaseSet <|- - ConcurrentHashSet
    class ConcurrentHashSet<Value>
    {
        - -(constructors)- -
        +ConcurrentHashSet()
        +ConcurrentHashSet(Maximum)
        +ConcurrentHashSet(Maximum, Collection<Value>)
        - -
        +Value get(Value prototype)
        +Value take(Value prototype)
    }
    
    BaseSet <|- - IdentitySet
    class IdentitySet<Value>
    {
        - -(constructors)- -
        +IdentitySet()
        +IdentitySet(Maximum)
        +IdentitySet(Maximum, Collection<Value>)
        - -
        +Value get(Value prototype)
        +Value take(Value prototype)
    }
    
    BaseMap <|- - MultiSet
    class MultiSet<Key, Value>
    {
        - -(constructors)- -
        +MultiSet()
        +MultiSet(Maximum, Maximum)
        - -
        +void replaceValue(Key, Value)
        +ObjectSet<Value> set(Key)
        - -(collection)- -
        +void add(Key, Value)
        +Iterable<Value> flatValues()
        +Set<Value> getOrEmptySet(Object key)
        +Count maximumSetSize()
        +void removeFromSet(Key, Value)
        +int valueCount()
    }
    
    BaseSet <|- - ObjectSet
    class ObjectSet<Value>
    {
        - -(constructors)- -
        +ObjectSet()
        +ObjectSet(Collection<Value>)
        +ObjectSet(Maximum)
        +ObjectSet(Maximum, Collection<Value>)
        - -
        +ObjectSet<T> set(Collection<T> values)
        +ObjectSet<T> set(T... values)
        - -(collection)- -
        +ObjectSet<T> emptySet()
    }
    
@enduml

@startuml









skinparam backgroundColor #333333






skinparam  {
    defaultFontName   "Open Sans,Avenir,Nunito,Arial,Helvetica,SansSerif"
    defaultFontSize   12
    defaultTextAlignment left
    shadowing false
    RoundCorner 10
    TitleFontSize 18
}

skinparam defaultFontName       "Open Sans,Avenir,Nunito,Arial,Helvetica,SansSerif"
skinparam defaultFontSize       12
skinparam dpi                   100
skinparam shadowing             false
skinparam roundcorner           16
skinparam ParticipantPadding    40
skinparam BoxPadding            40
skinparam Padding               3
skinparam ArrowColor            #545454
skinparam stereotype {
    CBackgroundColor #0066cf
    CBorderColor #0086ef
    ABackgroundColor #C8Ac00
    ABorderColor #D8Bc00
    IBackgroundColor #008400
    IBorderColor #239c23
    EBackgroundColor #cf6300
    EBorderColor #ef8300
    NBackgroundColor #3380b9
    NBorderColor #004d86
}
skinparam title {
	FontColor	                 #c0c0c0
 	BorderColor                  #545454
	FontSize	    	         20
	BorderRoundCorner            16
	BorderThickness 	         1
	BackgroundColor              #48494b
}


skinparam legend {
	BackgroundColor #303030
	BorderColor #404040
	FontColor #a0a0a0
}

	skinparam swimlane {
	BorderColor #5e5e5e
	BorderThickness 2
	TitleBackgroundColor  #6d6d6d-#484848
	TitleFontColor #303030
}

skinparam activity {
		FontColor #C8Ac00
	BorderColor #333333
	BackgroundColor #333333-#333333
	BarColor #00FF00
	StartColor #0060a8
	EndColor #0060a8
	DiamondBackgroundColor #6d6d6d-#3a3a3a
  	DiamondBorderColor #3a3a3a
  	DiamondFontColor #fefefe
}


skinparam participant {
		FontColor #C8Ac00
	BorderColor #333333
	BackgroundColor #333333-#333333
	ParticipantBorderThickness 2
}


skinparam actor {
		FontColor #C8Ac00
	BorderColor #333333
	BackgroundColor #333333-#333333
}


skinparam arrow {
	Thickness 1.5
	Color #545454
	FontColor #a0a0a0
    FontStyle bold
    MessageAlignment center
}



skinparam sequence {
	BorderColor #303030
	TitleFontColor #303030
	BackgroundColor #333333
	StartColor #303030
	EndColor #303030
	BoxBackgroundColor #333333
	BoxBorderColor #484848
	BoxFontColor #484848
	LifeLineBorderColor #484848
	LifeLineBorderThickness 2
	LifeLineBackgroundColor #3a3a3a
	GroupBorderColor #484848
	GroupFontColor #484848
	GroupHeaderFontColor #0060a8
	GroupBackgroundColor #484848
	GroupHeaderBackgroundColor #333333
	DividerBackgroundColor #484848
    DividerBorderColor #484848
    DividerBorderThickness 2
    DividerFontColor #D8Bc00
	ReferenceBackgroundColor #333333
	ReferenceBorderColor #484848
	ReferenceFontColor #fefefe
	ReferenceHeaderBackgroundColor #484848
}


skinparam partition {
	BorderColor #303030
	FontColor #333333
	BackgroundColor #333333
}


skinparam collections {
		FontColor #C8Ac00
	BorderColor #333333
	BackgroundColor #333333-#333333
}


skinparam control {
		FontColor #C8Ac00
	BorderColor #333333
	BackgroundColor #333333-#333333
}


skinparam entity {
		FontColor #C8Ac00
	BorderColor #333333
	BackgroundColor #333333-#333333
}


skinparam boundary {
		FontColor #C8Ac00
	BorderColor #333333
	BackgroundColor #333333-#333333
}


skinparam agent {
	BackgroundColor #ff8000
	BorderColor #ff9933
	FontColor #484848
}


skinparam note {
	BorderThickness 1
	BackgroundColor #1b1b1a
	BorderColor #5e5e5e
	FontSize 11
	FontColor #a0a0a0
}


skinparam artifact {
	BorderThickness 10
	BorderColor #5e5e5e
	BackgroundColor #1b1b1a
	FontColor #D8Bc00
}


skinparam component {
		FontColor #C8Ac00
	BorderColor #333333
	BackgroundColor #333333-#333333
}


skinparam interface {
	BackgroundColor  #008400
	BorderColor  #007F00
	FontColor #484848
}


skinparam storage {
	BackgroundColor #ff8000
  	BorderColor #cc6600
	FontColor #222222
}


skinparam node {
	BackgroundColor #333333
	BorderColor #333333
	FontColor #C8Ac00
}


skinparam cloud {
	BackgroundColor #484848-black
	BorderColor #484848
	FontColor #D8Bc00
}


skinparam database {
		FontColor #C8Ac00
	BorderColor #333333
	BackgroundColor #333333-#333333
	BackgroundColor  #333333
}


skinparam class {
		FontColor #C8Ac00
	BorderColor #333333
	BackgroundColor #333333-#333333
	HeaderBackgroundColor #1b1b1a
    BackgroundColor #282828
    BorderColor #5e5e5e
 	StereotypeFontColor #a0a0a0
    StereotypeFontStyle bold
	BorderThickness 1
	AttributeFontColor #D8Bc00
	AttributeFontSize 11
    FontColor #D8Bc00
    FontStyle bold
}


skinparam object {
		FontColor #C8Ac00
	BorderColor #333333
	BackgroundColor #333333-#333333
	StereotypeFontColor #484848
	BorderThickness 1
	AttributeFontColor #fefefe
	AttributeFontSize 11
}


skinparam usecase {
		FontColor #C8Ac00
	BorderColor #333333
	BackgroundColor #333333-#333333
	BorderThickness 2
	StereotypeFontColor #303030
}


skinparam rectangle {
		FontColor #C8Ac00
	BorderColor #333333
	BackgroundColor #333333-#333333
	BackgroundColor #333333
	BorderThickness 2
	StereotypeFontColor #303030
}


skinparam package {
		FontColor #C8Ac00
	BorderColor #333333
	BackgroundColor #333333-#333333
	BackgroundColor #333333
	BorderThickness 2
}


skinparam folder {
	BackgroundColor #6d6d6d
  	BorderColor #ff8000
	FontColor #ff8000
	BorderThickness 2
}


skinparam frame {
	BackgroundColor #6d6d6d
  	BorderColor #0060a8
	FontColor #0060a8
	BorderThickness 2
}


skinparam state {
		FontColor #C8Ac00
	BorderColor #333333
	BackgroundColor #333333-#333333
	StartColor #0060a8
	EndColor #0060a8
	AttributeFontColor #fefefe
	AttributeFontSize 11
}


skinparam queue {
		FontColor #C8Ac00
	BorderColor #333333
	BackgroundColor #333333-#333333
}


skinparam card {
	BackgroundColor #0060a8
	BorderColor #004d86
	FontColor $INFO_TEXT
}


skinparam file {
	BackgroundColor #6d6d6d-#484848
	BorderColor #0060a8
	FontColor #fefefe
}


skinparam stack {
		FontColor #C8Ac00
	BorderColor #333333
	BackgroundColor #333333-#333333
}

    
    title "com.telenav.kivakit.core.collections.set"
    
    abstract BaseSet
    abstract BaseCollection
    abstract BaseMap
    
    interface Set
    interface Copyable
    
    BaseCollection <|- - BaseSet
    Copyable <|- - BaseSet
    Set <|- - BaseSet
    abstract class BaseSet<Value>
    {
        - -(constructors)- -
        #BaseSet()
        #BaseSet(Maximum)
        #BaseSet(Maximum, Collection<Value>)
        - -(factory)- -
        #Set<Value> newBackingSet()
        #Set<Value> onNewBackingSet()
    }
    
    BaseSet <|- - ConcurrentHashSet
    class ConcurrentHashSet<Value>
    {
        - -(constructors)- -
        +ConcurrentHashSet()
        +ConcurrentHashSet(Maximum)
        +ConcurrentHashSet(Maximum, Collection<Value>)
        - -
        +Value get(Value prototype)
        +Value take(Value prototype)
    }
    
    BaseSet <|- - IdentitySet
    class IdentitySet<Value>
    {
        - -(constructors)- -
        +IdentitySet()
        +IdentitySet(Maximum)
        +IdentitySet(Maximum, Collection<Value>)
        - -
        +Value get(Value prototype)
        +Value take(Value prototype)
    }
    
    BaseMap <|- - MultiSet
    class MultiSet<Key, Value>
    {
        - -(constructors)- -
        +MultiSet()
        +MultiSet(Maximum, Maximum)
        - -
        +void replaceValue(Key, Value)
        +ObjectSet<Value> set(Key)
        - -(collection)- -
        +void add(Key, Value)
        +Iterable<Value> flatValues()
        +Set<Value> getOrEmptySet(Object key)
        +Count maximumSetSize()
        +void removeFromSet(Key, Value)
        +int valueCount()
    }
    
    BaseSet <|- - ObjectSet
    class ObjectSet<Value>
    {
        - -(constructors)- -
        +ObjectSet()
        +ObjectSet(Collection<Value>)
        +ObjectSet(Maximum)
        +ObjectSet(Maximum, Collection<Value>)
        - -
        +ObjectSet<T> set(Collection<T> values)
        +ObjectSet<T> set(T... values)
        - -(collection)- -
        +ObjectSet<T> emptySet()
    }
    
@enduml

PlantUML version 1.2021.01(Tue Feb 02 00:55:08 MST 2021)
(GPL source distribution)
Java Runtime: OpenJDK Runtime Environment
JVM: OpenJDK 64-Bit Server VM
Default Encoding: UTF-8
Language: en
Country: US
--></g></svg>