<?xml version="1.0" encoding="UTF-8" standalone="no"?><svg xmlns="http://www.w3.org/2000/svg" xmlns:xlink="http://www.w3.org/1999/xlink" contentScriptType="application/ecmascript" contentStyleType="text/css" height="655.2083px" preserveAspectRatio="none" style="width:634px;height:655px;background:#333333;" version="1.1" viewBox="0 0 634 655" width="634.375px" zoomAndPan="magnify"><defs/><g><rect fill="#48494B" height="41.2028" rx="8.3333" ry="8.3333" style="stroke:#545454;stroke-width:1.0416666666666667;" width="177.0833" x="221.6146" y="2.0833"/><text fill="#C0C0C0" font-family="Open Sans,Avenir,Nunito,Arial,Helvetica,SansSerif" font-size="20.8333" lengthAdjust="spacing" textLength="154.1667" x="233.0729" y="30.5583">diagram-locale</text><!--MD5=[7a4729d26b999f6a4650b01106c103c5]
class Comparable--><rect codeLine="7" fill="#282828" height="48.055" id="Comparable" rx="8.3333" ry="8.3333" style="stroke:#5E5E5E;stroke-width:1.0416666666666667;" width="115.625" x="7.2917" y="179.7445"/><rect fill="#1B1B1A" height="31.3883" rx="8.3333" ry="8.3333" style="stroke:#1B1B1A;stroke-width:1.0416666666666667;" width="115.625" x="7.2917" y="179.7445"/><rect fill="#1B1B1A" height="8.3333" style="stroke:#1B1B1A;stroke-width:1.0416666666666667;" width="115.625" x="7.2917" y="202.7995"/><rect codeLine="7" fill="none" height="48.055" id="Comparable" rx="8.3333" ry="8.3333" style="stroke:#5E5E5E;stroke-width:1.0416666666666667;" width="115.625" x="7.2917" y="179.7445"/><ellipse cx="21.875" cy="195.4386" fill="#008400" rx="10.4167" ry="10.4167" style="stroke:#239C23;stroke-width:1.0416666666666667;"/><path d="M19.279,192.6005 L19.279,191.0136 L24.705,191.0136 L24.705,192.6005 L22.8923,192.6005 L22.8923,198.5392 L24.705,198.5392 L24.705,200.1261 L19.279,200.1261 L19.279,198.5392 L21.0917,198.5392 L21.0917,192.6005 Z " fill="#000000"/><text fill="#D8BC00" font-family="Open Sans,Avenir,Nunito,Arial,Helvetica,SansSerif" font-size="12.5" font-style="italic" font-weight="bold" lengthAdjust="spacing" textLength="78.125" x="38.5417" y="200.1628">Comparable</text><line style="stroke:#5E5E5E;stroke-width:1.0416666666666667;" x1="8.3333" x2="121.875" y1="211.1328" y2="211.1328"/><line style="stroke:#5E5E5E;stroke-width:1.0416666666666667;" x1="8.3333" x2="121.875" y1="219.4661" y2="219.4661"/><!--MD5=[cd5c1eb4fc0ba2dbe0cdadfbd732677f]
class Locale--><rect codeLine="11" fill="#282828" height="301.6602" id="Locale" rx="8.3333" ry="8.3333" style="stroke:#5E5E5E;stroke-width:1.0416666666666667;" width="320.8333" x="306.7708" y="53.7028"/><rect fill="#1B1B1A" height="31.3883" rx="8.3333" ry="8.3333" style="stroke:#1B1B1A;stroke-width:1.0416666666666667;" width="320.8333" x="306.7708" y="53.7028"/><rect fill="#1B1B1A" height="8.3333" style="stroke:#1B1B1A;stroke-width:1.0416666666666667;" width="320.8333" x="306.7708" y="76.7578"/><rect codeLine="11" fill="none" height="301.6602" id="Locale" rx="8.3333" ry="8.3333" style="stroke:#5E5E5E;stroke-width:1.0416666666666667;" width="320.8333" x="306.7708" y="53.7028"/><ellipse cx="439.5833" cy="69.397" fill="#0066CF" rx="10.4167" ry="10.4167" style="stroke:#0086EF;stroke-width:1.0416666666666667;"/><path d="M441.4937,73.822 Q441.0665,74.0417 440.5965,74.1516 Q440.1265,74.2615 439.6077,74.2615 Q437.7645,74.2615 436.794,73.0469 Q435.8236,71.8323 435.8236,69.5374 Q435.8236,67.2363 436.794,66.0217 Q437.7645,64.8071 439.6077,64.8071 Q440.1265,64.8071 440.6026,64.917 Q441.0787,65.0269 441.4937,65.2466 L441.4937,67.2485 Q441.0299,66.8213 440.5935,66.6229 Q440.1571,66.4246 439.6932,66.4246 Q438.7044,66.4246 438.2009,67.2089 Q437.6973,67.9932 437.6973,69.5374 Q437.6973,71.0754 438.2009,71.8597 Q438.7044,72.644 439.6932,72.644 Q440.1571,72.644 440.5935,72.4457 Q441.0299,72.2473 441.4937,71.8201 Z " fill="#000000"/><text fill="#D8BC00" font-family="Open Sans,Avenir,Nunito,Arial,Helvetica,SansSerif" font-size="12.5" font-weight="bold" lengthAdjust="spacing" textLength="40.625" x="462.5" y="74.1211">Locale</text><line style="stroke:#5E5E5E;stroke-width:1.5625;" x1="307.8125" x2="626.5625" y1="85.0911" y2="85.0911"/><ellipse cx="318.2292" cy="120.461" fill="#84BE84" rx="3.125" ry="3.125" style="stroke:#038048;stroke-width:1.0416666666666667;"/><text fill="#D8BC00" font-family="Open Sans,Avenir,Nunito,Arial,Helvetica,SansSerif" font-size="11.4583" lengthAdjust="spacing" textLength="288.5417" x="329.6875" y="127.3722">Locale(LocaleRegion, Collection&lt;LocaleLanguage&gt;)</text><line style="stroke:#5E5E5E;stroke-width:1.0416666666666667;" x1="307.8125" x2="423.4375" y1="103.2969" y2="103.2969"/><text fill="#D8BC00" font-family="Open Sans,Avenir,Nunito,Arial,Helvetica,SansSerif" font-size="11.4583" lengthAdjust="spacing" textLength="81.25" x="426.5625" y="107.1065">(constructors)</text><line style="stroke:#5E5E5E;stroke-width:1.0416666666666667;" x1="510.9375" x2="626.5625" y1="103.2969" y2="103.2969"/><line style="stroke:#5E5E5E;stroke-width:1.0416666666666667;" x1="307.8125" x2="626.5625" y1="137.0809" y2="137.0809"/><ellipse cx="318.2292" cy="148.5392" fill="#84BE84" rx="3.125" ry="3.125" style="stroke:#038048;stroke-width:1.0416666666666667;"/><text fill="#D8BC00" font-family="Open Sans,Avenir,Nunito,Arial,Helvetica,SansSerif" font-size="11.4583" lengthAdjust="spacing" textLength="229.1667" x="329.6875" y="155.4504">java.util.Locale asJavaLocale(String name)</text><ellipse cx="318.2292" cy="168.2841" fill="#84BE84" rx="3.125" ry="3.125" style="stroke:#038048;stroke-width:1.0416666666666667;"/><text fill="#D8BC00" font-family="Open Sans,Avenir,Nunito,Arial,Helvetica,SansSerif" font-size="11.4583" lengthAdjust="spacing" textLength="218.75" x="329.6875" y="175.1953">LocaleLanguage language(String name)</text><ellipse cx="318.2292" cy="188.029" fill="#84BE84" rx="3.125" ry="3.125" style="stroke:#038048;stroke-width:1.0416666666666667;"/><text fill="#D8BC00" font-family="Open Sans,Avenir,Nunito,Arial,Helvetica,SansSerif" font-size="11.4583" lengthAdjust="spacing" textLength="198.9583" x="329.6875" y="194.9402">LocaleLanguage primaryLanguage()</text><ellipse cx="318.2292" cy="207.7738" fill="#84BE84" rx="3.125" ry="3.125" style="stroke:#038048;stroke-width:1.0416666666666667;"/><text fill="#D8BC00" font-family="Open Sans,Avenir,Nunito,Arial,Helvetica,SansSerif" font-size="11.4583" lengthAdjust="spacing" textLength="121.875" x="329.6875" y="214.6851">LocaleRegion region()</text><ellipse cx="318.2292" cy="251.4303" fill="#84BE84" rx="3.125" ry="3.125" style="stroke:#038048;stroke-width:1.0416666666666667;"/><text fill="#D8BC00" font-family="Open Sans,Avenir,Nunito,Arial,Helvetica,SansSerif" font-size="11.4583" lengthAdjust="spacing" textLength="97.9167" x="329.6875" y="258.3415">boolean isWorld()</text><line style="stroke:#5E5E5E;stroke-width:1.0416666666666667;" x1="307.8125" x2="440.625" y1="234.2662" y2="234.2662"/><text fill="#D8BC00" font-family="Open Sans,Avenir,Nunito,Arial,Helvetica,SansSerif" font-size="11.4583" lengthAdjust="spacing" textLength="46.875" x="443.75" y="238.0758">(checks)</text><line style="stroke:#5E5E5E;stroke-width:1.0416666666666667;" x1="493.75" x2="626.5625" y1="234.2662" y2="234.2662"/><ellipse cx="318.2292" cy="295.0867" fill="#84BE84" rx="3.125" ry="3.125" style="stroke:#038048;stroke-width:1.0416666666666667;"/><text fill="#D8BC00" font-family="Open Sans,Avenir,Nunito,Arial,Helvetica,SansSerif" font-size="11.4583" lengthAdjust="spacing" textLength="233.3333" x="329.6875" y="301.9979">ObjectList&lt;LocaleLanguage&gt; languages()</text><line style="stroke:#5E5E5E;stroke-width:1.0416666666666667;" x1="307.8125" x2="432.8125" y1="277.9226" y2="277.9226"/><text fill="#D8BC00" font-family="Open Sans,Avenir,Nunito,Arial,Helvetica,SansSerif" font-size="11.4583" lengthAdjust="spacing" textLength="62.5" x="435.9375" y="281.7322">(collection)</text><line style="stroke:#5E5E5E;stroke-width:1.0416666666666667;" x1="501.5625" x2="626.5625" y1="277.9226" y2="277.9226"/><ellipse cx="318.2292" cy="338.7431" fill="#84BE84" rx="3.125" ry="3.125" style="stroke:#038048;stroke-width:1.0416666666666667;"/><text fill="#D8BC00" font-family="Open Sans,Avenir,Nunito,Arial,Helvetica,SansSerif" font-size="11.4583" lengthAdjust="spacing" textLength="183.3333" x="329.6875" y="345.6543">StringPath path(LocaleLanguage)</text><line style="stroke:#5E5E5E;stroke-width:1.0416666666666667;" x1="307.8125" x2="447.3958" y1="321.579" y2="321.579"/><text fill="#D8BC00" font-family="Open Sans,Avenir,Nunito,Arial,Helvetica,SansSerif" font-size="11.4583" lengthAdjust="spacing" textLength="33.3333" x="450.5208" y="325.3886">(path)</text><line style="stroke:#5E5E5E;stroke-width:1.0416666666666667;" x1="486.9792" x2="626.5625" y1="321.579" y2="321.579"/><!--MD5=[1e28e874d3d17dd6df156484f741fc9b]
class LocaleRegion--><rect fill="#282828" height="48.055" id="LocaleRegion" rx="8.3333" ry="8.3333" style="stroke:#5E5E5E;stroke-width:1.0416666666666667;" width="122.9167" x="410.9375" y="529.2236"/><rect fill="#1B1B1A" height="31.3883" rx="8.3333" ry="8.3333" style="stroke:#1B1B1A;stroke-width:1.0416666666666667;" width="122.9167" x="410.9375" y="529.2236"/><rect fill="#1B1B1A" height="8.3333" style="stroke:#1B1B1A;stroke-width:1.0416666666666667;" width="122.9167" x="410.9375" y="552.2786"/><rect fill="none" height="48.055" id="LocaleRegion" rx="8.3333" ry="8.3333" style="stroke:#5E5E5E;stroke-width:1.0416666666666667;" width="122.9167" x="410.9375" y="529.2236"/><ellipse cx="425.5208" cy="544.9178" fill="#0066CF" rx="10.4167" ry="10.4167" style="stroke:#0086EF;stroke-width:1.0416666666666667;"/><path d="M427.4312,549.3429 Q427.004,549.5626 426.534,549.6724 Q426.064,549.7823 425.5452,549.7823 Q423.702,549.7823 422.7315,548.5677 Q421.7611,547.3531 421.7611,545.0582 Q421.7611,542.7572 422.7315,541.5426 Q423.702,540.328 425.5452,540.328 Q426.064,540.328 426.5401,540.4378 Q427.0162,540.5477 427.4312,540.7674 L427.4312,542.7694 Q426.9674,542.3421 426.531,542.1438 Q426.0946,541.9454 425.6307,541.9454 Q424.6419,541.9454 424.1384,542.7297 Q423.6348,543.514 423.6348,545.0582 Q423.6348,546.5963 424.1384,547.3806 Q424.6419,548.1649 425.6307,548.1649 Q426.0946,548.1649 426.531,547.9665 Q426.9674,547.7681 427.4312,547.3409 Z " fill="#000000"/><text fill="#D8BC00" font-family="Open Sans,Avenir,Nunito,Arial,Helvetica,SansSerif" font-size="12.5" font-weight="bold" lengthAdjust="spacing" textLength="85.4167" x="442.1875" y="549.6419">LocaleRegion</text><line style="stroke:#5E5E5E;stroke-width:1.0416666666666667;" x1="411.9792" x2="532.8125" y1="560.612" y2="560.612"/><line style="stroke:#5E5E5E;stroke-width:1.0416666666666667;" x1="411.9792" x2="532.8125" y1="568.9453" y2="568.9453"/><!--MD5=[b1318ddd464ee7fd6f6bb384e8a3bf51]
class LocaleLanguage--><rect codeLine="30" fill="#282828" height="190.4358" id="LocaleLanguage" rx="8.3333" ry="8.3333" style="stroke:#5E5E5E;stroke-width:1.0416666666666667;" width="319.7917" x="29.6875" y="458.3903"/><rect fill="#1B1B1A" height="31.3883" rx="8.3333" ry="8.3333" style="stroke:#1B1B1A;stroke-width:1.0416666666666667;" width="319.7917" x="29.6875" y="458.3903"/><rect fill="#1B1B1A" height="8.3333" style="stroke:#1B1B1A;stroke-width:1.0416666666666667;" width="319.7917" x="29.6875" y="481.4453"/><rect codeLine="30" fill="none" height="190.4358" id="LocaleLanguage" rx="8.3333" ry="8.3333" style="stroke:#5E5E5E;stroke-width:1.0416666666666667;" width="319.7917" x="29.6875" y="458.3903"/><ellipse cx="130.7292" cy="474.0845" fill="#0066CF" rx="10.4167" ry="10.4167" style="stroke:#0086EF;stroke-width:1.0416666666666667;"/><path d="M132.6396,478.5095 Q132.2123,478.7292 131.7424,478.8391 Q131.2724,478.949 130.7536,478.949 Q128.9103,478.949 127.9399,477.7344 Q126.9694,476.5198 126.9694,474.2249 Q126.9694,471.9238 127.9399,470.7092 Q128.9103,469.4946 130.7536,469.4946 Q131.2724,469.4946 131.7485,469.6045 Q132.2245,469.7144 132.6396,469.9341 L132.6396,471.936 Q132.1757,471.5088 131.7393,471.3104 Q131.3029,471.1121 130.839,471.1121 Q129.8503,471.1121 129.3467,471.8964 Q128.8432,472.6807 128.8432,474.2249 Q128.8432,475.7629 129.3467,476.5472 Q129.8503,477.3315 130.839,477.3315 Q131.3029,477.3315 131.7393,477.1332 Q132.1757,476.9348 132.6396,476.5076 Z " fill="#000000"/><text fill="#D8BC00" font-family="Open Sans,Avenir,Nunito,Arial,Helvetica,SansSerif" font-size="12.5" font-weight="bold" lengthAdjust="spacing" textLength="103.125" x="153.6458" y="478.8086">LocaleLanguage</text><line style="stroke:#5E5E5E;stroke-width:1.5625;" x1="30.7292" x2="348.4375" y1="489.7786" y2="489.7786"/><line style="stroke:#5E5E5E;stroke-width:1.0416666666666667;" x1="30.7292" x2="348.4375" y1="498.112" y2="498.112"/><ellipse cx="41.1458" cy="509.5703" fill="#84BE84" rx="3.125" ry="3.125" style="stroke:#038048;stroke-width:1.0416666666666667;"/><text fill="#D8BC00" font-family="Open Sans,Avenir,Nunito,Arial,Helvetica,SansSerif" font-size="11.4583" lengthAdjust="spacing" textLength="97.9167" x="52.6042" y="516.4815">String iso2Code()</text><ellipse cx="41.1458" cy="529.3152" fill="#84BE84" rx="3.125" ry="3.125" style="stroke:#038048;stroke-width:1.0416666666666667;"/><text fill="#D8BC00" font-family="Open Sans,Avenir,Nunito,Arial,Helvetica,SansSerif" font-size="11.4583" lengthAdjust="spacing" textLength="97.9167" x="52.6042" y="536.2264">String iso3Code()</text><ellipse cx="41.1458" cy="549.0601" fill="#84BE84" rx="3.125" ry="3.125" style="stroke:#038048;stroke-width:1.0416666666666667;"/><text fill="#D8BC00" font-family="Open Sans,Avenir,Nunito,Arial,Helvetica,SansSerif" font-size="11.4583" lengthAdjust="spacing" textLength="287.5" x="52.6042" y="555.9713">LocaleLanguage languageForIso2Code(String code)</text><ellipse cx="41.1458" cy="568.8049" fill="#84BE84" rx="3.125" ry="3.125" style="stroke:#038048;stroke-width:1.0416666666666667;"/><text fill="#D8BC00" font-family="Open Sans,Avenir,Nunito,Arial,Helvetica,SansSerif" font-size="11.4583" lengthAdjust="spacing" textLength="287.5" x="52.6042" y="575.7161">LocaleLanguage languageForIso3Code(String code)</text><ellipse cx="41.1458" cy="588.5498" fill="#84BE84" rx="3.125" ry="3.125" style="stroke:#038048;stroke-width:1.0416666666666667;"/><text fill="#D8BC00" font-family="Open Sans,Avenir,Nunito,Arial,Helvetica,SansSerif" font-size="11.4583" lengthAdjust="spacing" textLength="78.125" x="52.6042" y="595.461">Locale world()</text><ellipse cx="41.1458" cy="632.2062" fill="#84BE84" rx="3.125" ry="3.125" style="stroke:#038048;stroke-width:1.0416666666666667;"/><text fill="#D8BC00" font-family="Open Sans,Avenir,Nunito,Arial,Helvetica,SansSerif" font-size="11.4583" lengthAdjust="spacing" textLength="248.9583" x="52.6042" y="639.1174">ObjectList&lt;LocaleLanguage&gt; allLanguages()</text><line style="stroke:#5E5E5E;stroke-width:1.0416666666666667;" x1="30.7292" x2="155.2083" y1="615.0421" y2="615.0421"/><text fill="#D8BC00" font-family="Open Sans,Avenir,Nunito,Arial,Helvetica,SansSerif" font-size="11.4583" lengthAdjust="spacing" textLength="62.5" x="158.3333" y="618.8517">(collection)</text><line style="stroke:#5E5E5E;stroke-width:1.0416666666666667;" x1="223.9583" x2="348.4375" y1="615.0421" y2="615.0421"/><!--MD5=[53f6a92bd21ca2f2960392a061f3a1c6]
class Name--><rect fill="#282828" height="48.055" id="Name" rx="8.3333" ry="8.3333" style="stroke:#5E5E5E;stroke-width:1.0416666666666667;" width="73.9583" x="159.375" y="179.7445"/><rect fill="#1B1B1A" height="31.3883" rx="8.3333" ry="8.3333" style="stroke:#1B1B1A;stroke-width:1.0416666666666667;" width="73.9583" x="159.375" y="179.7445"/><rect fill="#1B1B1A" height="8.3333" style="stroke:#1B1B1A;stroke-width:1.0416666666666667;" width="73.9583" x="159.375" y="202.7995"/><rect fill="none" height="48.055" id="Name" rx="8.3333" ry="8.3333" style="stroke:#5E5E5E;stroke-width:1.0416666666666667;" width="73.9583" x="159.375" y="179.7445"/><ellipse cx="173.9583" cy="195.4386" fill="#0066CF" rx="10.4167" ry="10.4167" style="stroke:#0086EF;stroke-width:1.0416666666666667;"/><path d="M175.8687,199.8637 Q175.4415,200.0834 174.9715,200.1933 Q174.5015,200.3031 173.9827,200.3031 Q172.1395,200.3031 171.169,199.0885 Q170.1986,197.8739 170.1986,195.579 Q170.1986,193.278 171.169,192.0634 Q172.1395,190.8488 173.9827,190.8488 Q174.5015,190.8488 174.9776,190.9587 Q175.4537,191.0685 175.8687,191.2882 L175.8687,193.2902 Q175.4049,192.863 174.9685,192.6646 Q174.5321,192.4662 174.0682,192.4662 Q173.0794,192.4662 172.5759,193.2505 Q172.0723,194.0348 172.0723,195.579 Q172.0723,197.1171 172.5759,197.9014 Q173.0794,198.6857 174.0682,198.6857 Q174.5321,198.6857 174.9685,198.4873 Q175.4049,198.289 175.8687,197.8617 Z " fill="#000000"/><text fill="#D8BC00" font-family="Open Sans,Avenir,Nunito,Arial,Helvetica,SansSerif" font-size="12.5" font-weight="bold" lengthAdjust="spacing" textLength="36.4583" x="190.625" y="200.1628">Name</text><line style="stroke:#5E5E5E;stroke-width:1.0416666666666667;" x1="160.4167" x2="232.2917" y1="211.1328" y2="211.1328"/><line style="stroke:#5E5E5E;stroke-width:1.0416666666666667;" x1="160.4167" x2="232.2917" y1="219.4661" y2="219.4661"/><!--MD5=[9eadea0f08836bbffad921614e7c40c1]
reverse link Locale to LocaleRegion--><path codeLine="9" d="M469.6354,368.9007 C470.5833,431.432 471.5521,495.7028 472.0521,528.984 " fill="none" id="Locale-backto-LocaleRegion" style="stroke:#545454;stroke-width:1.5625;"/><polygon fill="#333333" points="469.4375,355.182,465.3675,361.4953,469.6298,367.6805,473.6998,361.3671,469.4375,355.182" style="stroke:#545454;stroke-width:1.5625;"/><!--MD5=[60d5a2905001f996be1b24ea8f0a8439]
reverse link Locale to LocaleLanguage--><path codeLine="10" d="M339.1146,365.8695 C313.8333,397.4736 288.0833,429.6715 265.2604,458.2028 " fill="none" id="Locale-backto-LocaleLanguage" style="stroke:#545454;stroke-width:1.5625;"/><polygon fill="#333333" points="347.6667,355.182,340.5068,357.4534,339.8496,364.9361,347.0095,362.6647,347.6667,355.182" style="stroke:#545454;stroke-width:1.5625;"/><text fill="#A0A0A0" font-family="Open Sans,Avenir,Nunito,Arial,Helvetica,SansSerif" font-size="12.5" font-weight="bold" lengthAdjust="spacing" textLength="8.3333" x="329.6696" y="378.7004">1</text><text fill="#A0A0A0" font-family="Open Sans,Avenir,Nunito,Arial,Helvetica,SansSerif" font-size="12.5" font-weight="bold" lengthAdjust="spacing" textLength="6.25" x="261.4179" y="444.1522">*</text><!--MD5=[62ac733bdd82a9c6f305c8606e6366ec]
reverse link Name to LocaleLanguage--><path codeLine="28" d="M195.5625,248.7965 C194.6146,301.2132 193.0208,390.1715 191.7917,458.2445 " fill="none" id="Name-backto-LocaleLanguage" style="stroke:#545454;stroke-width:1.5625;"/><polygon fill="none" points="188.2708,248.5049,195.9375,227.807,202.8542,248.7653,188.2708,248.5049" style="stroke:#545454;stroke-width:1.5625;"/><!--MD5=[8c1d2143f2c5a8826a77230b55d408e4]
reverse link Comparable to LocaleLanguage--><path codeLine="29" d="M80.5729,247.7445 C99.3854,300.0153 131.6563,389.7132 156.3229,458.2445 " fill="none" id="Comparable-backto-LocaleLanguage" style="stroke:#545454;stroke-width:1.5625;"/><polygon fill="none" points="73.5938,249.8799,73.4063,227.807,87.3125,244.9424,73.5938,249.8799" style="stroke:#545454;stroke-width:1.5625;"/><!--MD5=[eba3d7360617bfdb3d4fc4e6f5f179c6]
@startuml

    !include lexakai.theme
    
    title "diagram-locale"
    
    interface Comparable
    
    Locale o- - LocaleRegion
    Locale "1" o- - "*" LocaleLanguage
    class Locale
    {
        - -(constructors)- -
        +Locale(LocaleRegion, Collection<LocaleLanguage>)
        - -
        +java.util.Locale asJavaLocale(String name)
        +LocaleLanguage language(String name)
        +LocaleLanguage primaryLanguage()
        +LocaleRegion region()
        - -(checks)- -
        +boolean isWorld()
        - -(collection)- -
        +ObjectList<LocaleLanguage> languages()
        - -(path)- -
        +StringPath path(LocaleLanguage)
    }
    
    Name <|- - LocaleLanguage
    Comparable <|- - LocaleLanguage
    class LocaleLanguage
    {
        - -
        +String iso2Code()
        +String iso3Code()
        +LocaleLanguage languageForIso2Code(String code)
        +LocaleLanguage languageForIso3Code(String code)
        +Locale world()
        - -(collection)- -
        +ObjectList<LocaleLanguage> allLanguages()
    }
    
@enduml

@startuml









skinparam backgroundColor #333333






skinparam  {
    defaultFontName   "Open Sans,Avenir,Nunito,Arial,Helvetica,SansSerif"
    defaultFontSize   12
    defaultTextAlignment left
    shadowing false
    RoundCorner 10
    TitleFontSize 18
}

skinparam defaultFontName       "Open Sans,Avenir,Nunito,Arial,Helvetica,SansSerif"
skinparam defaultFontSize       12
skinparam dpi                   100
skinparam shadowing             false
skinparam roundcorner           16
skinparam ParticipantPadding    40
skinparam BoxPadding            40
skinparam Padding               3
skinparam ArrowColor            #545454
skinparam stereotype {
    CBackgroundColor #0066cf
    CBorderColor #0086ef
    ABackgroundColor #C8Ac00
    ABorderColor #D8Bc00
    IBackgroundColor #008400
    IBorderColor #239c23
    EBackgroundColor #cf6300
    EBorderColor #ef8300
    NBackgroundColor #3380b9
    NBorderColor #004d86
}
skinparam title {
	FontColor	                 #c0c0c0
 	BorderColor                  #545454
	FontSize	    	         20
	BorderRoundCorner            16
	BorderThickness 	         1
	BackgroundColor              #48494b
}


skinparam legend {
	BackgroundColor #303030
	BorderColor #404040
	FontColor #a0a0a0
}

	skinparam swimlane {
	BorderColor #5e5e5e
	BorderThickness 2
	TitleBackgroundColor  #6d6d6d-#484848
	TitleFontColor #303030
}

skinparam activity {
		FontColor #C8Ac00
	BorderColor #333333
	BackgroundColor #333333-#333333
	BarColor #00FF00
	StartColor #0060a8
	EndColor #0060a8
	DiamondBackgroundColor #6d6d6d-#3a3a3a
  	DiamondBorderColor #3a3a3a
  	DiamondFontColor #fefefe
}


skinparam participant {
		FontColor #C8Ac00
	BorderColor #333333
	BackgroundColor #333333-#333333
	ParticipantBorderThickness 2
}


skinparam actor {
		FontColor #C8Ac00
	BorderColor #333333
	BackgroundColor #333333-#333333
}


skinparam arrow {
	Thickness 1.5
	Color #545454
	FontColor #a0a0a0
    FontStyle bold
    MessageAlignment center
}



skinparam sequence {
	BorderColor #303030
	TitleFontColor #303030
	BackgroundColor #333333
	StartColor #303030
	EndColor #303030
	BoxBackgroundColor #333333
	BoxBorderColor #484848
	BoxFontColor #484848
	LifeLineBorderColor #484848
	LifeLineBorderThickness 2
	LifeLineBackgroundColor #3a3a3a
	GroupBorderColor #484848
	GroupFontColor #484848
	GroupHeaderFontColor #0060a8
	GroupBackgroundColor #484848
	GroupHeaderBackgroundColor #333333
	DividerBackgroundColor #484848
    DividerBorderColor #484848
    DividerBorderThickness 2
    DividerFontColor #D8Bc00
	ReferenceBackgroundColor #333333
	ReferenceBorderColor #484848
	ReferenceFontColor #fefefe
	ReferenceHeaderBackgroundColor #484848
}


skinparam partition {
	BorderColor #303030
	FontColor #333333
	BackgroundColor #333333
}


skinparam collections {
		FontColor #C8Ac00
	BorderColor #333333
	BackgroundColor #333333-#333333
}


skinparam control {
		FontColor #C8Ac00
	BorderColor #333333
	BackgroundColor #333333-#333333
}


skinparam entity {
		FontColor #C8Ac00
	BorderColor #333333
	BackgroundColor #333333-#333333
}


skinparam boundary {
		FontColor #C8Ac00
	BorderColor #333333
	BackgroundColor #333333-#333333
}


skinparam agent {
	BackgroundColor #ff8000
	BorderColor #ff9933
	FontColor #484848
}


skinparam note {
	BorderThickness 1
	BackgroundColor #1b1b1a
	BorderColor #5e5e5e
	FontSize 11
	FontColor #a0a0a0
}


skinparam artifact {
	BorderThickness 10
	BorderColor #5e5e5e
	BackgroundColor #1b1b1a
	FontColor #D8Bc00
}


skinparam component {
		FontColor #C8Ac00
	BorderColor #333333
	BackgroundColor #333333-#333333
}


skinparam interface {
	BackgroundColor  #008400
	BorderColor  #007F00
	FontColor #484848
}


skinparam storage {
	BackgroundColor #ff8000
  	BorderColor #cc6600
	FontColor #222222
}


skinparam node {
	BackgroundColor #333333
	BorderColor #333333
	FontColor #C8Ac00
}


skinparam cloud {
	BackgroundColor #484848-black
	BorderColor #484848
	FontColor #D8Bc00
}


skinparam database {
		FontColor #C8Ac00
	BorderColor #333333
	BackgroundColor #333333-#333333
	BackgroundColor  #333333
}


skinparam class {
		FontColor #C8Ac00
	BorderColor #333333
	BackgroundColor #333333-#333333
	HeaderBackgroundColor #1b1b1a
    BackgroundColor #282828
    BorderColor #5e5e5e
 	StereotypeFontColor #a0a0a0
    StereotypeFontStyle bold
	BorderThickness 1
	AttributeFontColor #D8Bc00
	AttributeFontSize 11
    FontColor #D8Bc00
    FontStyle bold
}


skinparam object {
		FontColor #C8Ac00
	BorderColor #333333
	BackgroundColor #333333-#333333
	StereotypeFontColor #484848
	BorderThickness 1
	AttributeFontColor #fefefe
	AttributeFontSize 11
}


skinparam usecase {
		FontColor #C8Ac00
	BorderColor #333333
	BackgroundColor #333333-#333333
	BorderThickness 2
	StereotypeFontColor #303030
}


skinparam rectangle {
		FontColor #C8Ac00
	BorderColor #333333
	BackgroundColor #333333-#333333
	BackgroundColor #333333
	BorderThickness 2
	StereotypeFontColor #303030
}


skinparam package {
		FontColor #C8Ac00
	BorderColor #333333
	BackgroundColor #333333-#333333
	BackgroundColor #333333
	BorderThickness 2
}


skinparam folder {
	BackgroundColor #6d6d6d
  	BorderColor #ff8000
	FontColor #ff8000
	BorderThickness 2
}


skinparam frame {
	BackgroundColor #6d6d6d
  	BorderColor #0060a8
	FontColor #0060a8
	BorderThickness 2
}


skinparam state {
		FontColor #C8Ac00
	BorderColor #333333
	BackgroundColor #333333-#333333
	StartColor #0060a8
	EndColor #0060a8
	AttributeFontColor #fefefe
	AttributeFontSize 11
}


skinparam queue {
		FontColor #C8Ac00
	BorderColor #333333
	BackgroundColor #333333-#333333
}


skinparam card {
	BackgroundColor #0060a8
	BorderColor #004d86
	FontColor $INFO_TEXT
}


skinparam file {
	BackgroundColor #6d6d6d-#484848
	BorderColor #0060a8
	FontColor #fefefe
}


skinparam stack {
		FontColor #C8Ac00
	BorderColor #333333
	BackgroundColor #333333-#333333
}

    
    title "diagram-locale"
    
    interface Comparable
    
    Locale o- - LocaleRegion
    Locale "1" o- - "*" LocaleLanguage
    class Locale
    {
        - -(constructors)- -
        +Locale(LocaleRegion, Collection<LocaleLanguage>)
        - -
        +java.util.Locale asJavaLocale(String name)
        +LocaleLanguage language(String name)
        +LocaleLanguage primaryLanguage()
        +LocaleRegion region()
        - -(checks)- -
        +boolean isWorld()
        - -(collection)- -
        +ObjectList<LocaleLanguage> languages()
        - -(path)- -
        +StringPath path(LocaleLanguage)
    }
    
    Name <|- - LocaleLanguage
    Comparable <|- - LocaleLanguage
    class LocaleLanguage
    {
        - -
        +String iso2Code()
        +String iso3Code()
        +LocaleLanguage languageForIso2Code(String code)
        +LocaleLanguage languageForIso3Code(String code)
        +Locale world()
        - -(collection)- -
        +ObjectList<LocaleLanguage> allLanguages()
    }
    
@enduml

PlantUML version 1.2021.01(Tue Feb 02 00:55:08 MST 2021)
(GPL source distribution)
Java Runtime: OpenJDK Runtime Environment
JVM: OpenJDK 64-Bit Server VM
Default Encoding: UTF-8
Language: en
Country: US
--></g></svg>