<?xml version="1.0" encoding="utf-8"?>
<svg viewBox="0 0 500 500" xmlns="http://www.w3.org/2000/svg">
  <g transform="matrix(0.618594, 0, 0, 0.618594, 24.186842, 9.317533)" style="">
    <g id="elem_Multicaster" transform="matrix(1.111033, 0, 0, 1.032032, -30.850479, -45.301212)" style="">
      <rect codeline="6" fill="#282828" height="47.9167" id="Multicaster" rx="8.3333" ry="8.3333" style="stroke:#5E5E5E;stroke-width:1.0416666666666667;" width="102.0833" x="40.1042" y="391.2028"/>
      <ellipse cx="54.6875" cy="406.8278" fill="#ADD1B2" rx="10.4167" ry="10.4167" style="stroke:#181818;stroke-width:1.0416666666666667;"/>
      <path d="M56.5979,411.2528 Q56.1707,411.4726 55.7007,411.5824 Q55.2307,411.6923 54.7119,411.6923 Q52.8687,411.6923 51.8982,410.4777 Q50.9277,409.2631 50.9277,406.9682 Q50.9277,404.6672 51.8982,403.4526 Q52.8687,402.238 54.7119,402.238 Q55.2307,402.238 55.7068,402.3478 Q56.1829,402.4577 56.5979,402.6774 L56.5979,404.6794 Q56.134,404.2521 55.6976,404.0538 Q55.2612,403.8554 54.7974,403.8554 Q53.8086,403.8554 53.3051,404.6397 Q52.8015,405.424 52.8015,406.9682 Q52.8015,408.5063 53.3051,409.2906 Q53.8086,410.0749 54.7974,410.0749 Q55.2612,410.0749 55.6976,409.8765 Q56.134,409.6781 56.5979,409.2509 Z " fill="#000000"/>
      <text lengthAdjust="spacing" textLength="64.5833" style="fill: rgb(216, 188, 0); font-family: Avenir; font-size: 11.4583px; font-weight: 700; white-space: pre;" x="71.3542" y="411.158">Multicaster</text>
      <line style="stroke:#5E5E5E;stroke-width:1.0416666666666667;" x1="41.1458" x2="141.1458" y1="422.4528" y2="422.4528"/>
      <line style="stroke:#5E5E5E;stroke-width:1.0416666666666667;" x1="41.1458" x2="141.1458" y1="430.7861" y2="430.7861"/>
    </g>
    <g id="elem_BaseRepeater" transform="matrix(1.111033, 0, 0, 1.032032, -30.850479, -45.301212)" style="">
      <rect codeline="8" fill="#282828" height="47.9167" id="BaseRepeater" rx="8.3333" ry="8.3333" style="stroke:#5E5E5E;stroke-width:1.0416666666666667;" width="113.5417" x="7.2917" y="501.6195"/>
      <ellipse cx="21.875" cy="517.2445" fill="#A9DCDF" rx="10.4167" ry="10.4167" style="stroke:#181818;stroke-width:1.0416666666666667;"/>
      <path d="M21.4681,514.2069 L20.6197,517.9362 L22.3226,517.9362 Z M20.3695,512.559 L22.5728,512.559 L25.0326,521.6715 L23.232,521.6715 L22.6705,519.4194 L20.2596,519.4194 L19.7103,521.6715 L17.9097,521.6715 Z " fill="#000000"/>
      <text lengthAdjust="spacing" textLength="76.0417" style="fill: rgb(216, 188, 0); font-family: Avenir; font-size: 11.4583px; font-style: italic; font-weight: 700; white-space: pre;" x="38.5417" y="521.575">BaseRepeater</text>
      <line style="stroke:#5E5E5E;stroke-width:1.0416666666666667;" x1="8.3333" x2="119.7917" y1="532.8695" y2="532.8695"/>
      <line style="stroke:#5E5E5E;stroke-width:1.0416666666666667;" x1="8.3333" x2="119.7917" y1="541.2028" y2="541.2028"/>
    </g>
    <g id="elem_BaseComponent" transform="matrix(1.111033, 0, 0, 1.032032, -30.850479, -45.301212)" style="">
      <rect codeline="9" fill="#282828" height="47.9167" id="BaseComponent" rx="8.3333" ry="8.3333" style="stroke:#5E5E5E;stroke-width:1.0416666666666667;" width="130.2083" x="137.5" y="722.4528"/>
      <ellipse cx="152.0833" cy="738.0778" fill="#A9DCDF" rx="10.4167" ry="10.4167" style="stroke:#181818;stroke-width:1.0416666666666667;"/>
      <path d="M151.6764,735.0403 L150.828,738.7695 L152.5309,738.7695 Z M150.5778,733.3923 L152.7812,733.3923 L155.2409,742.5049 L153.4403,742.5049 L152.8788,740.2527 L150.4679,740.2527 L149.9186,742.5049 L148.1181,742.5049 Z " fill="#000000"/>
      <text lengthAdjust="spacing" textLength="92.7083" style="fill: rgb(216, 188, 0); font-family: Avenir; font-size: 11.4583px; font-style: italic; font-weight: 700; white-space: pre;" x="168.75" y="742.408">BaseComponent</text>
      <line style="stroke:#5E5E5E;stroke-width:1.0416666666666667;" x1="138.5417" x2="266.6667" y1="753.7028" y2="753.7028"/>
      <line style="stroke:#5E5E5E;stroke-width:1.0416666666666667;" x1="138.5417" x2="266.6667" y1="762.0361" y2="762.0361"/>
    </g>
    <g id="elem_Broadcaster" transform="matrix(1.111033, 0, 0, 1.032032, -30.850479, -45.301212)" style="">
      <rect codeline="18" fill="#282828" height="47.9167" id="Broadcaster" rx="8.3333" ry="8.3333" style="stroke:#5E5E5E;stroke-width:1.0416666666666667;" width="105.2083" x="285.4167" y="280.7861"/>
      <ellipse cx="300" cy="296.4111" fill="#B4A7E5" rx="10.4167" ry="10.4167" style="stroke:#181818;stroke-width:1.0416666666666667;"/>
      <path d="M296.8831,293.573 L296.8831,291.9861 L302.3092,291.9861 L302.3092,293.573 L300.4964,293.573 L300.4964,299.5117 L302.3092,299.5117 L302.3092,301.0986 L296.8831,301.0986 L296.8831,299.5117 L298.6959,299.5117 L298.6959,293.573 Z " fill="#000000"/>
      <text lengthAdjust="spacing" textLength="67.7083" style="fill: rgb(216, 188, 0); font-family: Avenir; font-size: 11.4583px; font-style: italic; font-weight: 700; white-space: pre;" x="316.667" y="300.742">Broadcaster</text>
      <line style="stroke:#5E5E5E;stroke-width:1.0416666666666667;" x1="286.4583" x2="389.5833" y1="312.0361" y2="312.0361"/>
      <line style="stroke:#5E5E5E;stroke-width:1.0416666666666667;" x1="286.4583" x2="389.5833" y1="320.3695" y2="320.3695"/>
    </g>
    <g id="elem_Transceiver" transform="matrix(1.111033, 0, 0, 1.032032, -30.850479, -45.301212)" style="">
      <rect codeline="12" fill="#282828" height="47.9167" id="Transceiver" rx="8.3333" ry="8.3333" style="stroke:#5E5E5E;stroke-width:1.0416666666666667;" width="106.25" x="375.5208" y="170.3695"/>
      <ellipse cx="390.1042" cy="185.9945" fill="#B4A7E5" rx="10.4167" ry="10.4167" style="stroke:#181818;stroke-width:1.0416666666666667;"/>
      <path d="M386.9873,183.1563 L386.9873,181.5694 L392.4133,181.5694 L392.4133,183.1563 L390.6006,183.1563 L390.6006,189.0951 L392.4133,189.0951 L392.4133,190.682 L386.9873,190.682 L386.9873,189.0951 L388.8,189.0951 L388.8,183.1563 Z " fill="#000000"/>
      <text lengthAdjust="spacing" textLength="68.75" style="fill: rgb(216, 188, 0); font-family: Avenir; font-size: 11.4583px; font-style: italic; font-weight: 700; white-space: pre;" x="406.771" y="190.325">Transceiver</text>
      <line style="stroke:#5E5E5E;stroke-width:1.0416666666666667;" x1="376.5625" x2="480.7292" y1="201.6195" y2="201.6195"/>
      <line style="stroke:#5E5E5E;stroke-width:1.0416666666666667;" x1="376.5625" x2="480.7292" y1="209.9528" y2="209.9528"/>
    </g>
    <g id="elem_Receiver" transform="matrix(1.111033, 0, 0, 1.032032, -30.850479, -45.301212)" style="">
      <rect codeline="19" fill="#282828" height="47.9167" id="Receiver" rx="8.3333" ry="8.3333" style="stroke:#5E5E5E;stroke-width:1.0416666666666667;" width="87.5" x="522.3958" y="59.9528"/>
      <ellipse cx="536.9792" cy="75.5778" fill="#B4A7E5" rx="10.4167" ry="10.4167" style="stroke:#181818;stroke-width:1.0416666666666667;"/>
      <path d="M533.8623,72.7397 L533.8623,71.1528 L539.2883,71.1528 L539.2883,72.7397 L537.4756,72.7397 L537.4756,78.6784 L539.2883,78.6784 L539.2883,80.2653 L533.8623,80.2653 L533.8623,78.6784 L535.675,78.6784 L535.675,72.7397 Z " fill="#000000"/>
      <text lengthAdjust="spacing" textLength="50" style="fill: rgb(216, 188, 0); font-family: Avenir; font-size: 11.4583px; font-style: italic; font-weight: 700; white-space: pre;" x="553.646" y="79.9082">Receiver</text>
      <line style="stroke:#5E5E5E;stroke-width:1.0416666666666667;" x1="523.4375" x2="608.8542" y1="91.2028" y2="91.2028"/>
      <line style="stroke:#5E5E5E;stroke-width:1.0416666666666667;" x1="523.4375" x2="608.8542" y1="99.5361" y2="99.5361"/>
    </g>
    <g id="elem_Transmitter" transform="matrix(1.111033, 0, 0, 1.032032, -30.850479, -45.301212)" style="">
      <rect codeline="14" fill="#282828" height="47.9167" id="Transmitter" rx="8.3333" ry="8.3333" style="stroke:#5E5E5E;stroke-width:1.0416666666666667;" width="106.25" x="228.6458" y="59.9528"/>
      <ellipse cx="243.2292" cy="75.5778" fill="#B4A7E5" rx="10.4167" ry="10.4167" style="stroke:#181818;stroke-width:1.0416666666666667;"/>
      <path d="M240.1123,72.7397 L240.1123,71.1528 L245.5383,71.1528 L245.5383,72.7397 L243.7256,72.7397 L243.7256,78.6784 L245.5383,78.6784 L245.5383,80.2653 L240.1123,80.2653 L240.1123,78.6784 L241.925,78.6784 L241.925,72.7397 Z " fill="#000000"/>
      <text lengthAdjust="spacing" textLength="68.75" style="fill: rgb(216, 188, 0); font-family: Avenir; font-size: 11.4583px; font-style: italic; font-weight: 700; white-space: pre;" x="259.896" y="79.9082">Transmitter</text>
      <line style="stroke:#5E5E5E;stroke-width:1.0416666666666667;" x1="229.6875" x2="333.8542" y1="91.2028" y2="91.2028"/>
      <line style="stroke:#5E5E5E;stroke-width:1.0416666666666667;" x1="229.6875" x2="333.8542" y1="99.5361" y2="99.5361"/>
    </g>
    <g id="elem_NamedObject" transform="matrix(1.111033, 0, 0, 1.032032, -30.850479, -45.301212)" style="">
      <rect codeline="29" fill="#282828" height="47.9167" id="NamedObject" rx="8.3333" ry="8.3333" style="stroke:#5E5E5E;stroke-width:1.0416666666666667;" width="114.5833" x="371.3542" y="59.9528"/>
      <ellipse cx="385.9375" cy="75.5778" fill="#B4A7E5" rx="10.4167" ry="10.4167" style="stroke:#181818;stroke-width:1.0416666666666667;"/>
      <path d="M382.8206,72.7397 L382.8206,71.1528 L388.2467,71.1528 L388.2467,72.7397 L386.4339,72.7397 L386.4339,78.6784 L388.2467,78.6784 L388.2467,80.2653 L382.8206,80.2653 L382.8206,78.6784 L384.6334,78.6784 L384.6334,72.7397 Z " fill="#000000"/>
      <text lengthAdjust="spacing" textLength="77.0833" style="fill: rgb(216, 188, 0); font-family: Avenir; font-size: 11.4583px; font-style: italic; font-weight: 700; white-space: pre;" x="402.604" y="79.9082">NamedObject</text>
      <line style="stroke:#5E5E5E;stroke-width:1.0416666666666667;" x1="372.3958" x2="484.8958" y1="91.2028" y2="91.2028"/>
      <line style="stroke:#5E5E5E;stroke-width:1.0416666666666667;" x1="372.3958" x2="484.8958" y1="99.5361" y2="99.5361"/>
    </g>
    <g id="elem_Repeater" transform="matrix(1.111033, 0, 0, 1.032032, -30.850479, -45.301212)" style="">
      <rect codeline="16" fill="#282828" height="47.9167" id="Repeater" rx="8.3333" ry="8.3333" style="stroke:#5E5E5E;stroke-width:1.0416666666666667;" width="87.5" x="474.4792" y="391.2028"/>
      <ellipse cx="489.0625" cy="406.8278" fill="#B4A7E5" rx="10.4167" ry="10.4167" style="stroke:#181818;stroke-width:1.0416666666666667;"/>
      <path d="M485.9456,403.9897 L485.9456,402.4028 L491.3717,402.4028 L491.3717,403.9897 L489.5589,403.9897 L489.5589,409.9284 L491.3717,409.9284 L491.3717,411.5153 L485.9456,411.5153 L485.9456,409.9284 L487.7584,409.9284 L487.7584,403.9897 Z " fill="#000000"/>
      <text lengthAdjust="spacing" textLength="50" style="fill: rgb(216, 188, 0); font-family: Avenir; font-size: 11.4583px; font-style: italic; font-weight: 700; white-space: pre;" x="505.729" y="411.158">Repeater</text>
      <line style="stroke:#5E5E5E;stroke-width:1.0416666666666667;" x1="475.5208" x2="560.9375" y1="422.4528" y2="422.4528"/>
      <line style="stroke:#5E5E5E;stroke-width:1.0416666666666667;" x1="475.5208" x2="560.9375" y1="430.7861" y2="430.7861"/>
    </g>
    <g id="elem_Listener" transform="matrix(1.111033, 0, 0, 1.032032, -30.850479, -45.301212)" style="">
      <rect codeline="17" fill="#282828" height="47.9167" id="Listener" rx="8.3333" ry="8.3333" style="stroke:#5E5E5E;stroke-width:1.0416666666666667;" width="83.3333" x="427.6042" y="280.7861"/>
      <ellipse cx="442.1875" cy="296.4111" fill="#B4A7E5" rx="10.4167" ry="10.4167" style="stroke:#181818;stroke-width:1.0416666666666667;"/>
      <path d="M439.0706,293.573 L439.0706,291.9861 L444.4967,291.9861 L444.4967,293.573 L442.6839,293.573 L442.6839,299.5117 L444.4967,299.5117 L444.4967,301.0986 L439.0706,301.0986 L439.0706,299.5117 L440.8834,299.5117 L440.8834,293.573 Z " fill="#000000"/>
      <text lengthAdjust="spacing" textLength="45.8333" style="fill: rgb(216, 188, 0); font-family: Avenir; font-size: 11.4583px; font-style: italic; font-weight: 700; white-space: pre;" x="458.854" y="300.742">Listener</text>
      <line style="stroke:#5E5E5E;stroke-width:1.0416666666666667;" x1="428.6458" x2="509.8958" y1="312.0361" y2="312.0361"/>
      <line style="stroke:#5E5E5E;stroke-width:1.0416666666666667;" x1="428.6458" x2="509.8958" y1="320.3695" y2="320.3695"/>
    </g>
    <g id="elem_Component" transform="matrix(1.111033, 0, 0, 1.032032, -30.850479, -45.301212)" style="">
      <rect codeline="20" fill="#282828" height="47.9167" id="Component" rx="8.3333" ry="8.3333" style="stroke:#5E5E5E;stroke-width:1.0416666666666667;" width="104.1667" x="443.2292" y="612.0361"/>
      <ellipse cx="457.8125" cy="627.6611" fill="#B4A7E5" rx="10.4167" ry="10.4167" style="stroke:#181818;stroke-width:1.0416666666666667;"/>
      <path d="M454.6956,624.823 L454.6956,623.2361 L460.1217,623.2361 L460.1217,624.823 L458.3089,624.823 L458.3089,630.7617 L460.1217,630.7617 L460.1217,632.3486 L454.6956,632.3486 L454.6956,630.7617 L456.5084,630.7617 L456.5084,624.823 Z " fill="#000000"/>
      <text lengthAdjust="spacing" textLength="66.6667" style="fill: rgb(216, 188, 0); font-family: Avenir; font-size: 11.4583px; font-style: italic; font-weight: 700; white-space: pre;" x="474.479" y="631.992">Component</text>
      <line style="stroke:#5E5E5E;stroke-width:1.0416666666666667;" x1="444.2708" x2="546.3542" y1="643.2861" y2="643.2861"/>
      <line style="stroke:#5E5E5E;stroke-width:1.0416666666666667;" x1="444.2708" x2="546.3542" y1="651.6195" y2="651.6195"/>
    </g>
    <g id="elem_SettingsTrait" transform="matrix(1.111033, 0, 0, 1.032032, -30.850479, -45.301212)" style="">
      <rect codeline="27" fill="#282828" height="47.9167" id="SettingsTrait" rx="8.3333" ry="8.3333" style="stroke:#5E5E5E;stroke-width:1.0416666666666667;" width="111.4583" x="388.5417" y="501.6195"/>
      <ellipse cx="403.125" cy="517.2445" fill="#B4A7E5" rx="10.4167" ry="10.4167" style="stroke:#181818;stroke-width:1.0416666666666667;"/>
      <path d="M400.0081,514.4063 L400.0081,512.8194 L405.4342,512.8194 L405.4342,514.4063 L403.6214,514.4063 L403.6214,520.3451 L405.4342,520.3451 L405.4342,521.932 L400.0081,521.932 L400.0081,520.3451 L401.8209,520.3451 L401.8209,514.4063 Z " fill="#000000"/>
      <text lengthAdjust="spacing" textLength="73.9583" style="fill: rgb(216, 188, 0); font-family: Avenir; font-size: 11.4583px; font-style: italic; font-weight: 700; white-space: pre;" x="419.792" y="521.575">SettingsTrait</text>
      <line style="stroke:#5E5E5E;stroke-width:1.0416666666666667;" x1="389.5833" x2="498.9583" y1="532.8695" y2="532.8695"/>
      <line style="stroke:#5E5E5E;stroke-width:1.0416666666666667;" x1="389.5833" x2="498.9583" y1="541.2028" y2="541.2028"/>
    </g>
    <g id="elem_ProjectTrait" transform="matrix(1.111033, 0, 0, 1.032032, -30.850479, -45.301212)" style="">
      <rect codeline="23" fill="#282828" height="47.9167" id="ProjectTrait" rx="8.3333" ry="8.3333" style="stroke:#5E5E5E;stroke-width:1.0416666666666667;" width="106.25" x="442.1875" y="722.4528"/>
      <ellipse cx="456.7708" cy="738.0778" fill="#B4A7E5" rx="10.4167" ry="10.4167" style="stroke:#181818;stroke-width:1.0416666666666667;"/>
      <path d="M453.654,735.2397 L453.654,733.6528 L459.08,733.6528 L459.08,735.2397 L457.2673,735.2397 L457.2673,741.1784 L459.08,741.1784 L459.08,742.7653 L453.654,742.7653 L453.654,741.1784 L455.4667,741.1784 L455.4667,735.2397 Z " fill="#000000"/>
      <text lengthAdjust="spacing" textLength="68.75" style="fill: rgb(216, 188, 0); font-family: Avenir; font-size: 11.4583px; font-style: italic; font-weight: 700; white-space: pre;" x="473.438" y="742.408">ProjectTrait</text>
      <line style="stroke:#5E5E5E;stroke-width:1.0416666666666667;" x1="443.2292" x2="547.3958" y1="753.7028" y2="753.7028"/>
      <line style="stroke:#5E5E5E;stroke-width:1.0416666666666667;" x1="443.2292" x2="547.3958" y1="762.0361" y2="762.0361"/>
    </g>
    <g id="elem_PackageTrait" transform="matrix(1.111033, 0, 0, 1.032032, -30.850479, -45.301212)" style="">
      <rect codeline="24" fill="#282828" height="47.9167" id="PackageTrait" rx="8.3333" ry="8.3333" style="stroke:#5E5E5E;stroke-width:1.0416666666666667;" width="112.5" x="536.9792" y="501.6195"/>
      <ellipse cx="551.5625" cy="517.2445" fill="#B4A7E5" rx="10.4167" ry="10.4167" style="stroke:#181818;stroke-width:1.0416666666666667;"/>
      <path d="M548.4456,514.4063 L548.4456,512.8194 L553.8717,512.8194 L553.8717,514.4063 L552.0589,514.4063 L552.0589,520.3451 L553.8717,520.3451 L553.8717,521.932 L548.4456,521.932 L548.4456,520.3451 L550.2584,520.3451 L550.2584,514.4063 Z " fill="#000000"/>
      <text lengthAdjust="spacing" textLength="75" style="fill: rgb(216, 188, 0); font-family: Avenir; font-size: 11.4583px; font-style: italic; font-weight: 700; white-space: pre;" x="568.229" y="521.575">PackageTrait</text>
      <line style="stroke:#5E5E5E;stroke-width:1.0416666666666667;" x1="538.0208" x2="648.4375" y1="532.8695" y2="532.8695"/>
      <line style="stroke:#5E5E5E;stroke-width:1.0416666666666667;" x1="538.0208" x2="648.4375" y1="541.2028" y2="541.2028"/>
    </g>
    <g id="elem_RegistryTrait" transform="matrix(1.111033, 0, 0, 1.032032, -30.850479, -45.301212)" style="">
      <rect codeline="25" fill="#282828" height="47.9167" id="RegistryTrait" rx="8.3333" ry="8.3333" style="stroke:#5E5E5E;stroke-width:1.0416666666666667;" width="113.5417" x="119.7917" y="612.0361"/>
      <ellipse cx="134.375" cy="627.6611" fill="#B4A7E5" rx="10.4167" ry="10.4167" style="stroke:#181818;stroke-width:1.0416666666666667;"/>
      <path d="M131.2581,624.823 L131.2581,623.2361 L136.6842,623.2361 L136.6842,624.823 L134.8714,624.823 L134.8714,630.7617 L136.6842,630.7617 L136.6842,632.3486 L131.2581,632.3486 L131.2581,630.7617 L133.0709,630.7617 L133.0709,624.823 Z " fill="#000000"/>
      <text lengthAdjust="spacing" textLength="76.0417" style="fill: rgb(216, 188, 0); font-family: Avenir; font-size: 11.4583px; font-style: italic; font-weight: 700; white-space: pre;" x="151.042" y="631.992">RegistryTrait</text>
      <line style="stroke:#5E5E5E;stroke-width:1.0416666666666667;" x1="120.8333" x2="232.2917" y1="643.2861" y2="643.2861"/>
      <line style="stroke:#5E5E5E;stroke-width:1.0416666666666667;" x1="120.8333" x2="232.2917" y1="651.6195" y2="651.6195"/>
    </g>
    <g id="elem_LanguageTrait" transform="matrix(1.111033, 0, 0, 1.032032, -30.850479, -45.301212)" style="">
      <rect codeline="26" fill="#282828" height="47.9167" id="LanguageTrait" rx="8.3333" ry="8.3333" style="stroke:#5E5E5E;stroke-width:1.0416666666666667;" width="119.7917" x="584.375" y="612.0361"/>
      <ellipse cx="598.9583" cy="627.6611" fill="#B4A7E5" rx="10.4167" ry="10.4167" style="stroke:#181818;stroke-width:1.0416666666666667;"/>
      <path d="M595.8415,624.823 L595.8415,623.2361 L601.2675,623.2361 L601.2675,624.823 L599.4548,624.823 L599.4548,630.7617 L601.2675,630.7617 L601.2675,632.3486 L595.8415,632.3486 L595.8415,630.7617 L597.6542,630.7617 L597.6542,624.823 Z " fill="#000000"/>
      <text lengthAdjust="spacing" textLength="82.2917" style="fill: rgb(216, 188, 0); font-family: Avenir; font-size: 11.4583px; font-style: italic; font-weight: 700; white-space: pre;" x="615.625" y="631.992">LanguageTrait</text>
      <line style="stroke:#5E5E5E;stroke-width:1.0416666666666667;" x1="585.4167" x2="703.125" y1="643.2861" y2="643.2861"/>
      <line style="stroke:#5E5E5E;stroke-width:1.0416666666666667;" x1="585.4167" x2="703.125" y1="651.6195" y2="651.6195"/>
    </g>
    <g id="elem_Mixin" transform="matrix(1.111033, 0, 0, 1.032032, -30.850479, -45.301212)" style="">
      <rect codeline="31" fill="#282828" height="47.9167" id="Mixin" rx="8.3333" ry="8.3333" style="stroke:#5E5E5E;stroke-width:1.0416666666666667;" width="69.7917" x="205.2083" y="391.2028"/>
      <ellipse cx="219.7917" cy="406.8278" fill="#B4A7E5" rx="10.4167" ry="10.4167" style="stroke:#181818;stroke-width:1.0416666666666667;"/>
      <path d="M216.6748,403.9897 L216.6748,402.4028 L222.1008,402.4028 L222.1008,403.9897 L220.2881,403.9897 L220.2881,409.9284 L222.1008,409.9284 L222.1008,411.5153 L216.6748,411.5153 L216.6748,409.9284 L218.4875,409.9284 L218.4875,403.9897 Z " fill="#000000"/>
      <text lengthAdjust="spacing" textLength="32.2917" style="fill: rgb(216, 188, 0); font-family: Avenir; font-size: 11.4583px; font-style: italic; font-weight: 700; white-space: pre;" x="236.458" y="411.158">Mixin</text>
      <line style="stroke:#5E5E5E;stroke-width:1.0416666666666667;" x1="206.25" x2="273.9583" y1="422.4528" y2="422.4528"/>
      <line style="stroke:#5E5E5E;stroke-width:1.0416666666666667;" x1="206.25" x2="273.9583" y1="430.7861" y2="430.7861"/>
    </g>
    <g id="elem_RepeaterMixin" transform="matrix(1.111033, 0, 0, 1.032032, -30.850479, -45.301212)" style="">
      <rect codeline="32" fill="#282828" height="47.9167" id="RepeaterMixin" rx="8.3333" ry="8.3333" style="stroke:#5E5E5E;stroke-width:1.0416666666666667;" width="119.7917" x="232.2917" y="501.6195"/>
      <ellipse cx="246.875" cy="517.2445" fill="#B4A7E5" rx="10.4167" ry="10.4167" style="stroke:#181818;stroke-width:1.0416666666666667;"/>
      <path d="M243.7581,514.4063 L243.7581,512.8194 L249.1842,512.8194 L249.1842,514.4063 L247.3714,514.4063 L247.3714,520.3451 L249.1842,520.3451 L249.1842,521.932 L243.7581,521.932 L243.7581,520.3451 L245.5709,520.3451 L245.5709,514.4063 Z " fill="#000000"/>
      <text lengthAdjust="spacing" textLength="82.2917" style="fill: rgb(216, 188, 0); font-family: Avenir; font-size: 11.4583px; font-style: italic; font-weight: 700; white-space: pre;" x="263.542" y="521.575">RepeaterMixin</text>
      <line style="stroke:#5E5E5E;stroke-width:1.0416666666666667;" x1="233.3333" x2="351.0417" y1="532.8695" y2="532.8695"/>
      <line style="stroke:#5E5E5E;stroke-width:1.0416666666666667;" x1="233.3333" x2="351.0417" y1="541.2028" y2="541.2028"/>
    </g>
    <g id="elem_ComponentMixin" transform="matrix(1.111033, 0, 0, 1.032032, -30.850479, -45.301212)" style="">
      <rect codeline="33" fill="#282828" height="47.9167" id="ComponentMixin" rx="8.3333" ry="8.3333" style="stroke:#5E5E5E;stroke-width:1.0416666666666667;" width="136.4583" x="269.7917" y="612.0361"/>
      <ellipse cx="284.375" cy="627.6611" fill="#B4A7E5" rx="10.4167" ry="10.4167" style="stroke:#181818;stroke-width:1.0416666666666667;"/>
      <path d="M281.2581,624.823 L281.2581,623.2361 L286.6842,623.2361 L286.6842,624.823 L284.8714,624.823 L284.8714,630.7617 L286.6842,630.7617 L286.6842,632.3486 L281.2581,632.3486 L281.2581,630.7617 L283.0709,630.7617 L283.0709,624.823 Z " fill="#000000"/>
      <text lengthAdjust="spacing" textLength="98.9583" style="fill: rgb(216, 188, 0); font-family: Avenir; font-size: 11.4583px; font-style: italic; font-weight: 700; white-space: pre;" x="301.042" y="631.992">ComponentMixin</text>
      <line style="stroke:#5E5E5E;stroke-width:1.0416666666666667;" x1="270.8333" x2="405.2083" y1="643.2861" y2="643.2861"/>
      <line style="stroke:#5E5E5E;stroke-width:1.0416666666666667;" x1="270.8333" x2="405.2083" y1="651.6195" y2="651.6195"/>
    </g>
    <g id="link_ComponentMixin_Component" transform="matrix(1.111033, 0, 0, 1.032032, -30.850479, -45.301212)" style="">
      <path codeline="35" d="M406.5313,635.9945 C411.6458,635.9945 416.7708,635.9945 421.8958,635.9945 " fill="none" id="ComponentMixin-to-Component" style="stroke:#545454;stroke-width:1.5625;"/>
      <polygon fill="none" points="422.1146,628.7028,442.9479,635.9945,422.1146,643.2861,422.1146,628.7028" style="stroke:#545454;stroke-width:1.5625;"/>
    </g>
    <g id="link_Mixin_ComponentMixin" transform="matrix(1.111033, 0, 0, 1.032032, -30.850479, -45.301212)" style="">
      <path codeline="36" d="M218.3438,458.234 C207.3646,485.5674 199.1979,521.2549 214.0625,549.5361 C228.7083,577.4111 257.0313,597.9736 282.9063,611.932 " fill="none" id="Mixin-backto-ComponentMixin" style="stroke:#545454;stroke-width:1.5625;"/>
      <polygon fill="none" points="211.7083,455.1924,226.9479,439.2132,225,461.2028,211.7083,455.1924" style="stroke:#545454;stroke-width:1.5625;"/>
    </g>
    <g id="link_RepeaterMixin_ComponentMixin" transform="matrix(1.111033, 0, 0, 1.032032, -30.850479, -45.301212)" style="">
      <path codeline="37" d="M310.125,569.0257 C316.3229,583.6715 323.0313,599.5257 328.3125,612.0153 " fill="none" id="RepeaterMixin-backto-ComponentMixin" style="stroke:#545454;stroke-width:1.5625;"/>
      <polygon fill="none" points="303.3125,571.6195,301.9063,549.5986,316.7396,565.9424,303.3125,571.6195" style="stroke:#545454;stroke-width:1.5625;"/>
    </g>
    <g id="link_BaseRepeater_BaseComponent" transform="matrix(1.111033, 0, 0, 1.032032, -30.850479, -45.301212)" style="">
      <path codeline="39" d="M69.75,570.8695 C74.8438,598.2132 84.2813,633.0882 101.5625,659.9528 C117.8438,685.2653 143.9167,707.0361 165.5,722.2653 " fill="none" id="BaseRepeater-backto-BaseComponent" style="stroke:#545454;stroke-width:1.5625;"/>
      <polygon fill="none" points="62.5104,571.734,66.4271,550.0153,76.9063,569.432,62.5104,571.734" style="stroke:#545454;stroke-width:1.5625;"/>
    </g>
    <g id="link_Component_BaseComponent" transform="matrix(1.111033, 0, 0, 1.032032, -30.850479, -45.301212)" style="">
      <path codeline="40" d="M423.1354,663.7445 C374.5,681.7549 311,705.2549 264.6354,722.4111 " fill="none" id="Component-backto-BaseComponent" style="stroke:#545454;stroke-width:1.5625;"/>
      <polygon fill="none" points="420.9167,656.7965,442.9792,656.4007,425.9792,670.4736,420.9167,656.7965" style="stroke:#545454;stroke-width:1.5625;"/>
    </g>
    <g id="link_Transceiver_Listener" transform="matrix(1.111033, 0, 0, 1.032032, -30.850479, -45.301212)" style="">
      <path codeline="42" d="M444.7396,238.2757 C450.1771,252.7861 456.0417,268.4111 460.6667,280.7653 " fill="none" id="Transceiver-backto-Listener" style="stroke:#545454;stroke-width:1.5625;"/>
      <polygon fill="none" points="437.75,240.4111,437.2604,218.3486,451.4063,235.2861,437.75,240.4111" style="stroke:#545454;stroke-width:1.5625;"/>
    </g>
    <g id="link_Listener_Repeater" transform="matrix(1.111033, 0, 0, 1.032032, -30.850479, -45.301212)" style="">
      <path codeline="44" d="M488.4375,348.1924 C495.0521,362.8382 502.2188,378.6924 507.8646,391.182 " fill="none" id="Listener-backto-Repeater" style="stroke:#545454;stroke-width:1.5625;"/>
      <polygon fill="none" points="481.5938,350.7445,479.6563,328.7653,494.875,344.7445,481.5938,350.7445" style="stroke:#545454;stroke-width:1.5625;"/>
    </g>
    <g id="link_Broadcaster_Repeater" transform="matrix(1.111033, 0, 0, 1.032032, -30.850479, -45.301212)" style="">
      <path codeline="45" d="M394.1563,339.5361 C422.0833,356.3174 455.1146,376.1715 480.0625,391.182 " fill="none" id="Broadcaster-backto-Repeater" style="stroke:#545454;stroke-width:1.5625;"/>
      <polygon fill="none" points="390.3333,345.7445,376.2396,328.7653,397.8542,333.2445,390.3333,345.7445" style="stroke:#545454;stroke-width:1.5625;"/>
    </g>
    <g id="link_Receiver_Repeater" transform="matrix(1.111033, 0, 0, 1.032032, -30.850479, -45.301212)" style="">
      <path codeline="46" d="M559.7396,128.984 C549.4271,199.8174 529.5104,336.609 521.5938,390.9945 " fill="none" id="Receiver-backto-Repeater" style="stroke:#545454;stroke-width:1.5625;"/>
      <polygon fill="none" points="552.5625,127.6611,562.7813,108.0986,566.9896,129.7653,552.5625,127.6611" style="stroke:#545454;stroke-width:1.5625;"/>
    </g>
    <g id="link_Repeater_RepeaterMixin" transform="matrix(1.111033, 0, 0, 1.032032, -30.850479, -45.301212)" style="">
      <path codeline="48" d="M455.1771,446.4215 C418.7813,463.8695 373.7292,485.4528 340.2188,501.5153 " fill="none" id="Repeater-backto-RepeaterMixin" style="stroke:#545454;stroke-width:1.5625;"/>
      <polygon fill="none" points="452.4375,439.6507,474.375,437.2236,458.7396,452.7965,452.4375,439.6507" style="stroke:#545454;stroke-width:1.5625;"/>
    </g>
    <g id="link_Mixin_RepeaterMixin" transform="matrix(1.111033, 0, 0, 1.032032, -30.850479, -45.301212)" style="">
      <path codeline="49" d="M260.25,458.0986 C267.3542,472.8903 275.0833,488.9632 281.1563,501.5986 " fill="none" id="Mixin-backto-RepeaterMixin" style="stroke:#545454;stroke-width:1.5625;"/>
      <polygon fill="none" points="253.6042,461.109,251.1458,439.182,266.75,454.7965,253.6042,461.109" style="stroke:#545454;stroke-width:1.5625;"/>
    </g>
    <g id="link_Multicaster_BaseRepeater" transform="matrix(1.111033, 0, 0, 1.032032, -30.850479, -45.301212)" style="">
      <path codeline="51" d="M80.2917,459.6195 C76.6979,473.9736 72.8438,489.3903 69.8021,501.5986 " fill="none" id="Multicaster-backto-BaseRepeater" style="stroke:#545454;stroke-width:1.5625;"/>
      <polygon fill="none" points="73.2708,457.6195,85.4063,439.182,87.4271,461.1611,73.2708,457.6195" style="stroke:#545454;stroke-width:1.5625;"/>
    </g>
    <g id="link_Broadcaster_Multicaster" transform="matrix(1.111033, 0, 0, 1.032032, -30.850479, -45.301212)" style="">
      <path codeline="53" d="M266.4271,337.2028 C226.7917,354.5986 178.4479,375.807 142.5833,391.5465 " fill="none" id="Broadcaster-backto-Multicaster" style="stroke:#545454;stroke-width:1.5625;"/>
      <polygon fill="none" points="263.6563,330.4528,285.6667,328.7653,269.5208,343.807,263.6563,330.4528" style="stroke:#545454;stroke-width:1.5625;"/>
    </g>
    <g id="link_Transceiver_Broadcaster" transform="matrix(1.111033, 0, 0, 1.032032, -30.850479, -45.301212)" style="">
      <path codeline="55" d="M395.6979,234.7549 C382.7604,250.2132 368.3854,267.4111 357.2083,280.7653 " fill="none" id="Transceiver-backto-Broadcaster" style="stroke:#545454;stroke-width:1.5625;"/>
      <polygon fill="none" points="390.4688,229.6403,409.4271,218.3486,401.6563,239.0049,390.4688,229.6403" style="stroke:#545454;stroke-width:1.5625;"/>
    </g>
    <g id="link_Receiver_Transceiver" transform="matrix(1.111033, 0, 0, 1.032032, -30.850479, -45.301212)" style="">
      <path codeline="57" d="M520.5417,120.8799 C499.8438,137.1924 475.9896,155.984 457.7604,170.3486 " fill="none" id="Receiver-backto-Transceiver" style="stroke:#545454;stroke-width:1.5625;"/>
      <polygon fill="none" points="516.1042,115.0882,536.9896,107.932,525.1354,126.5465,516.1042,115.0882" style="stroke:#545454;stroke-width:1.5625;"/>
    </g>
    <g id="link_Transmitter_Transceiver" transform="matrix(1.111033, 0, 0, 1.032032, -30.850479, -45.301212)" style="">
      <path codeline="58" d="M329.8229,120.4007 C352.0833,136.807 377.8854,155.8486 397.5417,170.3486 " fill="none" id="Transmitter-backto-Transceiver" style="stroke:#545454;stroke-width:1.5625;"/>
      <polygon fill="none" points="325.3542,126.1611,312.9167,107.932,334.0104,114.4215,325.3542,126.1611" style="stroke:#545454;stroke-width:1.5625;"/>
    </g>
    <g id="link_NamedObject_Transceiver" transform="matrix(1.111033, 0, 0, 1.032032, -30.850479, -45.301212)" style="">
      <path codeline="59" d="M428.6458,128.8695 C428.6458,143.0882 428.6458,158.2861 428.6458,170.3486 " fill="none" id="NamedObject-backto-Transceiver" style="stroke:#545454;stroke-width:1.5625;"/>
      <polygon fill="none" points="421.3542,128.7653,428.6458,107.932,435.9375,128.7653,421.3542,128.7653" style="stroke:#545454;stroke-width:1.5625;"/>
    </g>
    <g id="link_Repeater_Component" transform="matrix(1.111033, 0, 0, 1.032032, -30.850479, -45.301212)" style="">
      <path codeline="61" d="M581.2188,442.4007 C607.3229,455.6403 634.9063,474.7549 650.5208,501.6195 C661.2188,520.0257 661.7604,531.4424 650.5208,549.5361 C637.8021,570.0153 584.6771,594.484 543.7813,611.9736 " fill="none" id="Repeater-backto-Component" style="stroke:#545454;stroke-width:1.5625;"/>
      <polygon fill="none" points="578.0417,448.9632,562.2083,433.5882,584.1771,435.734,578.0417,448.9632" style="stroke:#545454;stroke-width:1.5625;"/>
    </g>
    <g id="link_Repeater_Component" transform="matrix(1.111033, 0, 0, 1.032032, -30.850479, -45.301212)" style="">
      <path codeline="67" d="M582.3854,429.5778 C620.6875,442.0153 665.3229,464.3695 686.9792,501.6195 C697.6771,520.0257 698.2188,531.4424 686.9792,549.5361 C671.8229,573.9215 599.375,603.9736 547.5521,621.1507 " fill="none" id="Repeater-backto-Component-1" style="stroke:#545454;stroke-width:1.5625;"/>
      <polygon fill="none" points="580.2083,436.5465,562.2292,423.734,584.2708,422.5361,580.2083,436.5465" style="stroke:#545454;stroke-width:1.5625;"/>
    </g>
    <g id="link_Component_ProjectTrait" transform="matrix(1.111033, 0, 0, 1.032032, -30.850479, -45.301212)" style="">
      <path codeline="62" d="M495.3125,660.0153 C495.3125,672.0778 495.3125,687.2757 495.3125,701.484 " fill="none" id="Component-to-ProjectTrait" style="stroke:#545454;stroke-width:1.5625;"/>
      <polygon fill="none" points="502.6042,701.5986,495.3125,722.432,488.0208,701.5986,502.6042,701.5986" style="stroke:#545454;stroke-width:1.5625;"/>
    </g>
    <g id="link_PackageTrait_Component" transform="matrix(1.111033, 0, 0, 1.032032, -30.850479, -45.301212)" style="">
      <path codeline="63" d="M558.0729,565.5153 C543.9896,581.0986 528.25,598.5153 516.0521,612.0153 " fill="none" id="PackageTrait-backto-Component" style="stroke:#545454;stroke-width:1.5625;"/>
      <polygon fill="none" points="553.0833,560.1611,572.4688,549.5986,563.9063,569.9424,553.0833,560.1611" style="stroke:#545454;stroke-width:1.5625;"/>
    </g>
    <g id="link_RegistryTrait_Component" transform="matrix(1.111033, 0, 0, 1.032032, -30.850479, -45.301212)" style="">
      <path codeline="64" d="M225.0208,600.734 C238.8229,592.557 254.3229,585.0257 269.7917,580.7861 C328.2813,564.7653 347.9167,564.1715 406.25,580.7861 C427.9479,586.9632 449.5208,600.109 466,612.0257 " fill="none" id="RegistryTrait-backto-Component" style="stroke:#545454;stroke-width:1.5625;"/>
      <polygon fill="none" points="228.8958,606.9111,207.4167,612.0153,221.0208,594.6299,228.8958,606.9111" style="stroke:#545454;stroke-width:1.5625;"/>
    </g>
    <g id="link_Component_LanguageTrait" transform="matrix(1.111033, 0, 0, 1.032032, -30.850479, -45.301212)" style="">
      <path codeline="65" d="M547.6771,635.9945 C552.9271,635.9945 558.1667,635.9945 563.4063,635.9945 " fill="none" id="Component-to-LanguageTrait" style="stroke:#545454;stroke-width:1.5625;"/>
      <polygon fill="none" points="563.4479,628.7028,584.2813,635.9945,563.4479,643.2861,563.4479,628.7028" style="stroke:#545454;stroke-width:1.5625;"/>
    </g>
    <g id="link_SettingsTrait_Component" transform="matrix(1.111033, 0, 0, 1.032032, -30.850479, -45.301212)" style="">
      <path codeline="66" d="M464.0104,568.5153 C470.9792,583.307 478.5521,599.3799 484.5,612.0153 " fill="none" id="SettingsTrait-backto-Component" style="stroke:#545454;stroke-width:1.5625;"/>
      <polygon fill="none" points="457.375,571.5465,455.0938,549.5986,470.5729,565.3278,457.375,571.5465" style="stroke:#545454;stroke-width:1.5625;"/>
    </g>
    <g id="link_Repeater_PackageTrait" transform="matrix(1.111033, 0, 0, 1.032032, -30.850479, -45.301212)" style="">
      <path codeline="69" d="M546.1875,456.5882 C556.7083,471.7861 568.3021,488.5257 577.3438,501.5986 " fill="none" id="Repeater-backto-PackageTrait" style="stroke:#545454;stroke-width:1.5625;"/>
      <polygon fill="none" points="540,460.4528,534.1354,439.182,551.9896,452.1611,540,460.4528" style="stroke:#545454;stroke-width:1.5625;"/>
    </g>
    <g id="link_Repeater_SettingsTrait" transform="matrix(1.111033, 0, 0, 1.032032, -30.850479, -45.301212)" style="">
      <path codeline="70" d="M490.6563,456.5882 C480.2813,471.7861 468.8542,488.5257 459.9375,501.5986 " fill="none" id="Repeater-backto-SettingsTrait" style="stroke:#545454;stroke-width:1.5625;"/>
      <polygon fill="none" points="484.7708,452.2757,502.5417,439.182,496.8229,460.4945,484.7708,452.2757" style="stroke:#545454;stroke-width:1.5625;"/>
    </g>
  </g>
</svg>