<?xml version="1.0" encoding="UTF-8" standalone="no"?><svg xmlns="http://www.w3.org/2000/svg" xmlns:xlink="http://www.w3.org/1999/xlink" contentScriptType="application/ecmascript" contentStyleType="text/css" height="940.625px" preserveAspectRatio="none" style="width:1615px;height:940px;background:#333333;" version="1.1" viewBox="0 0 1615 940" width="1615.625px" zoomAndPan="magnify"><defs/><g><rect fill="#48494B" height="41.2028" rx="8.3333" ry="8.3333" style="stroke:#545454;stroke-width:1.0416666666666667;" width="167.7083" x="716.6667" y="2.0833"/><text fill="#C0C0C0" font-family="Open Sans,Avenir,Nunito,Arial,Helvetica,SansSerif" font-size="20.8333" lengthAdjust="spacing" textLength="144.7917" x="728.125" y="30.5583">Service Loader</text><!--MD5=[ef3ad5e68e8d91de2df816626e82d789]
class ServiceLoader--><rect codeLine="6" fill="#282828" height="174.8576" id="ServiceLoader" rx="8.3333" ry="8.3333" style="stroke:#5E5E5E;stroke-width:1.0416666666666667;" width="339.5833" x="196.875" y="56.8278"/><rect fill="#1B1B1A" height="31.3883" rx="8.3333" ry="8.3333" style="stroke:#1B1B1A;stroke-width:1.0416666666666667;" width="339.5833" x="196.875" y="56.8278"/><rect fill="#1B1B1A" height="8.3333" style="stroke:#1B1B1A;stroke-width:1.0416666666666667;" width="339.5833" x="196.875" y="79.8828"/><rect codeLine="6" fill="none" height="174.8576" id="ServiceLoader" rx="8.3333" ry="8.3333" style="stroke:#5E5E5E;stroke-width:1.0416666666666667;" width="339.5833" x="196.875" y="56.8278"/><ellipse cx="271.875" cy="72.522" fill="#0066CF" rx="10.4167" ry="10.4167" style="stroke:#0086EF;stroke-width:1.0416666666666667;"/><path d="M273.7854,76.947 Q273.3582,77.1667 272.8882,77.2766 Q272.4182,77.3865 271.8994,77.3865 Q270.0562,77.3865 269.0857,76.1719 Q268.1152,74.9573 268.1152,72.6624 Q268.1152,70.3613 269.0857,69.1467 Q270.0562,67.9321 271.8994,67.9321 Q272.4182,67.9321 272.8943,68.042 Q273.3704,68.1519 273.7854,68.3716 L273.7854,70.3735 Q273.3215,69.9463 272.8851,69.7479 Q272.4487,69.5496 271.9849,69.5496 Q270.9961,69.5496 270.4926,70.3339 Q269.989,71.1182 269.989,72.6624 Q269.989,74.2004 270.4926,74.9847 Q270.9961,75.769 271.9849,75.769 Q272.4487,75.769 272.8851,75.5707 Q273.3215,75.3723 273.7854,74.9451 Z " fill="#000000"/><text fill="#D8BC00" font-family="Open Sans,Avenir,Nunito,Arial,Helvetica,SansSerif" font-size="12.5" font-weight="bold" lengthAdjust="spacing" textLength="88.5417" x="294.7917" y="77.2461">ServiceLoader</text><rect fill="#333333" height="23.055" style="stroke:#A0A0A0;stroke-width:1.0416666666666667;stroke-dasharray:2.0,2.0;" width="84.375" x="455.2083" y="53.7028"/><text fill="#A0A0A0" font-family="Open Sans,Avenir,Nunito,Arial,Helvetica,SansSerif" font-size="12.5" font-weight="bold" lengthAdjust="spacing" textLength="76.0417" x="459.375" y="69.9544">ServiceType</text><line style="stroke:#5E5E5E;stroke-width:1.5625;" x1="197.9167" x2="535.4167" y1="88.2161" y2="88.2161"/><ellipse cx="208.3333" cy="99.6745" fill="#84BE84" rx="3.125" ry="3.125" style="stroke:#038048;stroke-width:1.0416666666666667;"/><text fill="#D8BC00" font-family="Open Sans,Avenir,Nunito,Arial,Helvetica,SansSerif" font-size="11.4583" lengthAdjust="spacing" text-decoration="underline" textLength="302.0833" x="219.7917" y="106.5857">load(serviceTypeClass) : ServiceLoader&lt;ServiceType&gt;</text><line style="stroke:#5E5E5E;stroke-width:1.0416666666666667;" x1="197.9167" x2="535.4167" y1="116.2944" y2="116.2944"/><rect fill="none" height="6.25" style="stroke:#C82930;stroke-width:1.0416666666666667;" width="6.25" x="205.2083" y="124.6277"/><text fill="#D8BC00" font-family="Open Sans,Avenir,Nunito,Arial,Helvetica,SansSerif" font-size="11.4583" lengthAdjust="spacing" textLength="164.5833" x="219.7917" y="134.6639">service : Class&lt;ServiceType&gt;</text><rect fill="none" height="6.25" style="stroke:#C82930;stroke-width:1.0416666666666667;" width="6.25" x="205.2083" y="144.3726"/><text fill="#D8BC00" font-family="Open Sans,Avenir,Nunito,Arial,Helvetica,SansSerif" font-size="11.4583" lengthAdjust="spacing" textLength="282.2917" x="219.7917" y="154.4088">lookupIterator : Iterator&lt;Provider&lt;ServiceType&gt;&gt;</text><rect fill="none" height="6.25" style="stroke:#C82930;stroke-width:1.0416666666666667;" width="6.25" x="205.2083" y="164.1174"/><text fill="#D8BC00" font-family="Open Sans,Avenir,Nunito,Arial,Helvetica,SansSerif" font-size="11.4583" lengthAdjust="spacing" textLength="233.3333" x="219.7917" y="174.1536">instantiatedProviders : List&lt;ServiceType&gt;</text><line style="stroke:#5E5E5E;stroke-width:1.0416666666666667;" x1="197.9167" x2="535.4167" y1="183.8623" y2="183.8623"/><ellipse cx="208.3333" cy="195.3206" fill="#84BE84" rx="3.125" ry="3.125" style="stroke:#038048;stroke-width:1.0416666666666667;"/><text fill="#D8BC00" font-family="Open Sans,Avenir,Nunito,Arial,Helvetica,SansSerif" font-size="11.4583" lengthAdjust="spacing" textLength="186.4583" x="219.7917" y="202.2319">iterator() : Iterator&lt;ServiceType&gt;</text><rect fill="#F24D5C" height="6.25" style="stroke:#C82930;stroke-width:1.0416666666666667;" width="6.25" x="205.2083" y="211.9405"/><text fill="#D8BC00" font-family="Open Sans,Avenir,Nunito,Arial,Helvetica,SansSerif" font-size="11.4583" lengthAdjust="spacing" textLength="307.2917" x="219.7917" y="221.9767">loadProvider(ServiceProvider) : Provider&lt;ServiceType&gt;</text><!--MD5=[3521822871a02163bc1090dd8c65b7f5]
class Provider--><rect codeLine="17" fill="#282828" height="87.5448" id="Provider" rx="8.3333" ry="8.3333" style="stroke:#5E5E5E;stroke-width:1.0416666666666667;" width="196.875" x="883.8542" y="655.7861"/><rect fill="#1B1B1A" height="31.3883" rx="8.3333" ry="8.3333" style="stroke:#1B1B1A;stroke-width:1.0416666666666667;" width="196.875" x="883.8542" y="655.7861"/><rect fill="#1B1B1A" height="8.3333" style="stroke:#1B1B1A;stroke-width:1.0416666666666667;" width="196.875" x="883.8542" y="678.8411"/><rect codeLine="17" fill="none" height="87.5448" id="Provider" rx="8.3333" ry="8.3333" style="stroke:#5E5E5E;stroke-width:1.0416666666666667;" width="196.875" x="883.8542" y="655.7861"/><ellipse cx="907.3438" cy="671.4803" fill="#008400" rx="10.4167" ry="10.4167" style="stroke:#239C23;stroke-width:1.0416666666666667;"/><path d="M904.7477,668.6422 L904.7477,667.0553 L910.1737,667.0553 L910.1737,668.6422 L908.361,668.6422 L908.361,674.5809 L910.1737,674.5809 L910.1737,676.1678 L904.7477,676.1678 L904.7477,674.5809 L906.5605,674.5809 L906.5605,668.6422 Z " fill="#000000"/><text fill="#D8BC00" font-family="Open Sans,Avenir,Nunito,Arial,Helvetica,SansSerif" font-size="12.5" font-style="italic" font-weight="bold" lengthAdjust="spacing" textLength="53.125" x="925.9896" y="676.2044">Provider</text><rect fill="#333333" height="23.055" style="stroke:#A0A0A0;stroke-width:1.0416666666666667;stroke-dasharray:2.0,2.0;" width="84.375" x="999.4792" y="652.6611"/><text fill="#A0A0A0" font-family="Open Sans,Avenir,Nunito,Arial,Helvetica,SansSerif" font-size="12.5" font-weight="bold" lengthAdjust="spacing" textLength="76.0417" x="1003.6458" y="668.9128">ServiceType</text><line style="stroke:#5E5E5E;stroke-width:1.0416666666666667;" x1="884.8958" x2="1079.6875" y1="687.1745" y2="687.1745"/><line style="stroke:#5E5E5E;stroke-width:1.0416666666666667;" x1="884.8958" x2="1079.6875" y1="695.5078" y2="695.5078"/><ellipse cx="895.3125" cy="706.9661" fill="#84BE84" rx="3.125" ry="3.125" style="stroke:#038048;stroke-width:1.0416666666666667;"/><text fill="#D8BC00" font-family="Open Sans,Avenir,Nunito,Arial,Helvetica,SansSerif" font-size="11.4583" font-style="italic" lengthAdjust="spacing" textLength="164.5833" x="906.7708" y="713.8774">type() : Class&lt;^ServiceType&gt;</text><ellipse cx="895.3125" cy="726.711" fill="#84BE84" rx="3.125" ry="3.125" style="stroke:#038048;stroke-width:1.0416666666666667;"/><text fill="#D8BC00" font-family="Open Sans,Avenir,Nunito,Arial,Helvetica,SansSerif" font-size="11.4583" font-style="italic" lengthAdjust="spacing" textLength="102.0833" x="906.7708" y="733.6222">get() : ServiceType</text><!--MD5=[4ac979000a4ab6ee323b821fa96b546c]
class ProviderImpl--><rect codeLine="22" fill="#282828" height="127.0345" id="ProviderImpl" rx="8.3333" ry="8.3333" style="stroke:#5E5E5E;stroke-width:1.0416666666666667;" width="226.0417" x="869.2708" y="806.8278"/><rect fill="#1B1B1A" height="31.3883" rx="8.3333" ry="8.3333" style="stroke:#1B1B1A;stroke-width:1.0416666666666667;" width="226.0417" x="869.2708" y="806.8278"/><rect fill="#1B1B1A" height="8.3333" style="stroke:#1B1B1A;stroke-width:1.0416666666666667;" width="226.0417" x="869.2708" y="829.8828"/><rect codeLine="22" fill="none" height="127.0345" id="ProviderImpl" rx="8.3333" ry="8.3333" style="stroke:#5E5E5E;stroke-width:1.0416666666666667;" width="226.0417" x="869.2708" y="806.8278"/><ellipse cx="892.7604" cy="822.522" fill="#0066CF" rx="10.4167" ry="10.4167" style="stroke:#0086EF;stroke-width:1.0416666666666667;"/><path d="M894.6708,826.947 Q894.2436,827.1667 893.7736,827.2766 Q893.3036,827.3865 892.7848,827.3865 Q890.9416,827.3865 889.9711,826.1719 Q889.0007,824.9573 889.0007,822.6624 Q889.0007,820.3613 889.9711,819.1467 Q890.9416,817.9321 892.7848,817.9321 Q893.3036,817.9321 893.7797,818.042 Q894.2558,818.1519 894.6708,818.3716 L894.6708,820.3735 Q894.2069,819.9463 893.7705,819.7479 Q893.3341,819.5496 892.8703,819.5496 Q891.8815,819.5496 891.378,820.3339 Q890.8744,821.1182 890.8744,822.6624 Q890.8744,824.2004 891.378,824.9847 Q891.8815,825.769 892.8703,825.769 Q893.3341,825.769 893.7705,825.5707 Q894.2069,825.3723 894.6708,824.9451 Z " fill="#000000"/><text fill="#D8BC00" font-family="Open Sans,Avenir,Nunito,Arial,Helvetica,SansSerif" font-size="12.5" font-weight="bold" lengthAdjust="spacing" textLength="82.2917" x="911.4063" y="827.2461">ProviderImpl</text><rect fill="#333333" height="23.055" style="stroke:#A0A0A0;stroke-width:1.0416666666666667;stroke-dasharray:2.0,2.0;" width="84.375" x="1014.0625" y="803.7028"/><text fill="#A0A0A0" font-family="Open Sans,Avenir,Nunito,Arial,Helvetica,SansSerif" font-size="12.5" font-weight="bold" lengthAdjust="spacing" textLength="76.0417" x="1018.2292" y="819.9544">ServiceType</text><line style="stroke:#5E5E5E;stroke-width:1.0416666666666667;" x1="870.3125" x2="1094.2708" y1="838.2161" y2="838.2161"/><rect fill="none" height="6.25" style="stroke:#C82930;stroke-width:1.0416666666666667;" width="6.25" x="877.6042" y="846.5495"/><text fill="#D8BC00" font-family="Open Sans,Avenir,Nunito,Arial,Helvetica,SansSerif" font-size="11.4583" lengthAdjust="spacing" textLength="164.5833" x="892.1875" y="856.5857">service : Class&lt;ServiceType&gt;</text><rect fill="none" height="6.25" style="stroke:#C82930;stroke-width:1.0416666666666667;" width="6.25" x="877.6042" y="866.2944"/><text fill="#D8BC00" font-family="Open Sans,Avenir,Nunito,Arial,Helvetica,SansSerif" font-size="11.4583" lengthAdjust="spacing" textLength="193.75" x="892.1875" y="876.3306">ctor : Constructor&lt;^ServiceType&gt;</text><line style="stroke:#5E5E5E;stroke-width:1.0416666666666667;" x1="870.3125" x2="1094.2708" y1="886.0392" y2="886.0392"/><ellipse cx="880.7292" cy="897.4976" fill="#84BE84" rx="3.125" ry="3.125" style="stroke:#038048;stroke-width:1.0416666666666667;"/><text fill="#D8BC00" font-family="Open Sans,Avenir,Nunito,Arial,Helvetica,SansSerif" font-size="11.4583" lengthAdjust="spacing" textLength="102.0833" x="892.1875" y="904.4088">get() : ServiceType</text><rect fill="#F24D5C" height="6.25" style="stroke:#C82930;stroke-width:1.0416666666666667;" width="6.25" x="877.6042" y="914.1174"/><text fill="#D8BC00" font-family="Open Sans,Avenir,Nunito,Arial,Helvetica,SansSerif" font-size="11.4583" lengthAdjust="spacing" textLength="153.125" x="892.1875" y="924.1536">newInstance() : ServiceType</text><!--MD5=[c2541c3767355c3156c4eb59d46234bb]
class LayerLookupIterator--><rect codeLine="31" fill="#282828" height="146.7794" id="LayerLookupIterator" rx="8.3333" ry="8.3333" style="stroke:#5E5E5E;stroke-width:1.0416666666666667;" width="329.1667" x="9.375" y="425.5778"/><rect fill="#1B1B1A" height="31.3883" rx="8.3333" ry="8.3333" style="stroke:#1B1B1A;stroke-width:1.0416666666666667;" width="329.1667" x="9.375" y="425.5778"/><rect fill="#1B1B1A" height="8.3333" style="stroke:#1B1B1A;stroke-width:1.0416666666666667;" width="329.1667" x="9.375" y="448.6328"/><rect codeLine="31" fill="none" height="146.7794" id="LayerLookupIterator" rx="8.3333" ry="8.3333" style="stroke:#5E5E5E;stroke-width:1.0416666666666667;" width="329.1667" x="9.375" y="425.5778"/><ellipse cx="23.9583" cy="441.272" fill="#0066CF" rx="10.4167" ry="10.4167" style="stroke:#0086EF;stroke-width:1.0416666666666667;"/><path d="M25.8687,445.697 Q25.4415,445.9167 24.9715,446.0266 Q24.5015,446.1365 23.9827,446.1365 Q22.1395,446.1365 21.169,444.9219 Q20.1986,443.7073 20.1986,441.4124 Q20.1986,439.1113 21.169,437.8967 Q22.1395,436.6821 23.9827,436.6821 Q24.5015,436.6821 24.9776,436.792 Q25.4537,436.9019 25.8687,437.1216 L25.8687,439.1235 Q25.4049,438.6963 24.9685,438.4979 Q24.5321,438.2996 24.0682,438.2996 Q23.0794,438.2996 22.5759,439.0839 Q22.0723,439.8682 22.0723,441.4124 Q22.0723,442.9504 22.5759,443.7347 Q23.0794,444.519 24.0682,444.519 Q24.5321,444.519 24.9685,444.3207 Q25.4049,444.1223 25.8687,443.6951 Z " fill="#000000"/><text fill="#D8BC00" font-family="Open Sans,Avenir,Nunito,Arial,Helvetica,SansSerif" font-size="12.5" font-weight="bold" lengthAdjust="spacing" textLength="131.25" x="40.625" y="445.9961">LayerLookupIterator</text><rect fill="#333333" height="23.055" style="stroke:#A0A0A0;stroke-width:1.0416666666666667;stroke-dasharray:2.0,2.0;" width="158.3333" x="183.3333" y="422.4528"/><text fill="#A0A0A0" font-family="Open Sans,Avenir,Nunito,Arial,Helvetica,SansSerif" font-size="12.5" font-weight="bold" lengthAdjust="spacing" textLength="150" x="187.5" y="438.7044">Provider&lt;ServiceType&gt;</text><line style="stroke:#5E5E5E;stroke-width:1.0416666666666667;" x1="10.4167" x2="337.5" y1="456.9661" y2="456.9661"/><polygon fill="none" points="20.8333,464.2578,16.6667,470.5078,25,470.5078" style="stroke:#1963A0;stroke-width:1.0416666666666667;"/><text fill="#D8BC00" font-family="Open Sans,Avenir,Nunito,Arial,Helvetica,SansSerif" font-size="11.4583" lengthAdjust="spacing" textLength="163.5417" x="32.2917" y="475.3357">stack : Deque&lt;ModuleLayer&gt;</text><polygon fill="none" points="20.8333,484.0027,16.6667,490.2527,25,490.2527" style="stroke:#1963A0;stroke-width:1.0416666666666667;"/><text fill="#D8BC00" font-family="Open Sans,Avenir,Nunito,Arial,Helvetica,SansSerif" font-size="11.4583" lengthAdjust="spacing" textLength="189.5833" x="32.2917" y="495.0806">iterator : Iterator&lt;ServiceLoader&gt;</text><polygon fill="none" points="20.8333,503.7476,16.6667,509.9976,25,509.9976" style="stroke:#1963A0;stroke-width:1.0416666666666667;"/><text fill="#D8BC00" font-family="Open Sans,Avenir,Nunito,Arial,Helvetica,SansSerif" font-size="11.4583" lengthAdjust="spacing" textLength="213.5417" x="32.2917" y="514.8254">nextProvider : Provider&lt;ServiceType&gt;</text><line style="stroke:#5E5E5E;stroke-width:1.0416666666666667;" x1="10.4167" x2="337.5" y1="524.5341" y2="524.5341"/><ellipse cx="20.8333" cy="535.9924" fill="#84BE84" rx="3.125" ry="3.125" style="stroke:#038048;stroke-width:1.0416666666666667;"/><text fill="#D8BC00" font-family="Open Sans,Avenir,Nunito,Arial,Helvetica,SansSerif" font-size="11.4583" lengthAdjust="spacing" textLength="108.3333" x="32.2917" y="542.9036">hasNext() : boolean</text><ellipse cx="20.8333" cy="555.7373" fill="#84BE84" rx="3.125" ry="3.125" style="stroke:#038048;stroke-width:1.0416666666666667;"/><text fill="#D8BC00" font-family="Open Sans,Avenir,Nunito,Arial,Helvetica,SansSerif" font-size="11.4583" lengthAdjust="spacing" textLength="175" x="32.2917" y="562.6485">next() : Provider&lt;ServiceType&gt;</text><!--MD5=[271043bc2727261ec6f06b3c8775655a]
class ModuleServicesLookupIterator--><rect codeLine="39" fill="#282828" height="166.5243" id="ModuleServicesLookupIterator" rx="8.3333" ry="8.3333" style="stroke:#5E5E5E;stroke-width:1.0416666666666667;" width="394.7917" x="784.8958" y="415.682"/><rect fill="#1B1B1A" height="31.3883" rx="8.3333" ry="8.3333" style="stroke:#1B1B1A;stroke-width:1.0416666666666667;" width="394.7917" x="784.8958" y="415.682"/><rect fill="#1B1B1A" height="8.3333" style="stroke:#1B1B1A;stroke-width:1.0416666666666667;" width="394.7917" x="784.8958" y="438.737"/><rect codeLine="39" fill="none" height="166.5243" id="ModuleServicesLookupIterator" rx="8.3333" ry="8.3333" style="stroke:#5E5E5E;stroke-width:1.0416666666666667;" width="394.7917" x="784.8958" y="415.682"/><ellipse cx="799.4792" cy="431.3761" fill="#0066CF" rx="10.4167" ry="10.4167" style="stroke:#0086EF;stroke-width:1.0416666666666667;"/><path d="M801.3896,435.8012 Q800.9623,436.0209 800.4924,436.1308 Q800.0224,436.2406 799.5036,436.2406 Q797.6603,436.2406 796.6899,435.026 Q795.7194,433.8114 795.7194,431.5165 Q795.7194,429.2155 796.6899,428.0009 Q797.6603,426.7863 799.5036,426.7863 Q800.0224,426.7863 800.4985,426.8962 Q800.9745,427.006 801.3896,427.2257 L801.3896,429.2277 Q800.9257,428.8005 800.4893,428.6021 Q800.0529,428.4037 799.589,428.4037 Q798.6003,428.4037 798.0967,429.188 Q797.5932,429.9723 797.5932,431.5165 Q797.5932,433.0546 798.0967,433.8389 Q798.6003,434.6232 799.589,434.6232 Q800.0529,434.6232 800.4893,434.4248 Q800.9257,434.2265 801.3896,433.7992 Z " fill="#000000"/><text fill="#D8BC00" font-family="Open Sans,Avenir,Nunito,Arial,Helvetica,SansSerif" font-size="12.5" font-weight="bold" lengthAdjust="spacing" textLength="196.875" x="816.1458" y="436.1003">ModuleServicesLookupIterator</text><rect fill="#333333" height="23.055" style="stroke:#A0A0A0;stroke-width:1.0416666666666667;stroke-dasharray:2.0,2.0;" width="158.3333" x="1024.4792" y="412.557"/><text fill="#A0A0A0" font-family="Open Sans,Avenir,Nunito,Arial,Helvetica,SansSerif" font-size="12.5" font-weight="bold" lengthAdjust="spacing" textLength="150" x="1028.6458" y="428.8086">Provider&lt;ServiceType&gt;</text><line style="stroke:#5E5E5E;stroke-width:1.0416666666666667;" x1="785.9375" x2="1178.6458" y1="447.0703" y2="447.0703"/><polygon fill="none" points="796.3542,454.362,792.1875,460.612,800.5208,460.612" style="stroke:#1963A0;stroke-width:1.0416666666666667;"/><text fill="#D8BC00" font-family="Open Sans,Avenir,Nunito,Arial,Helvetica,SansSerif" font-size="11.4583" lengthAdjust="spacing" textLength="158.3333" x="807.8125" y="465.4399">currentLoader : ClassLoader</text><polygon fill="none" points="796.3542,474.1069,792.1875,480.3569,800.5208,480.3569" style="stroke:#1963A0;stroke-width:1.0416666666666667;"/><text fill="#D8BC00" font-family="Open Sans,Avenir,Nunito,Arial,Helvetica,SansSerif" font-size="11.4583" lengthAdjust="spacing" textLength="189.5833" x="807.8125" y="485.1847">iterator : Iterator&lt;ServiceLoader&gt;</text><polygon fill="none" points="796.3542,493.8517,792.1875,500.1017,800.5208,500.1017" style="stroke:#1963A0;stroke-width:1.0416666666666667;"/><text fill="#D8BC00" font-family="Open Sans,Avenir,Nunito,Arial,Helvetica,SansSerif" font-size="11.4583" lengthAdjust="spacing" textLength="213.5417" x="807.8125" y="504.9296">nextProvider : Provider&lt;ServiceType&gt;</text><line style="stroke:#5E5E5E;stroke-width:1.0416666666666667;" x1="785.9375" x2="1178.6458" y1="514.6383" y2="514.6383"/><ellipse cx="796.3542" cy="526.0966" fill="#84BE84" rx="3.125" ry="3.125" style="stroke:#038048;stroke-width:1.0416666666666667;"/><text fill="#D8BC00" font-family="Open Sans,Avenir,Nunito,Arial,Helvetica,SansSerif" font-size="11.4583" lengthAdjust="spacing" textLength="108.3333" x="807.8125" y="533.0078">hasNext() : boolean</text><ellipse cx="796.3542" cy="545.8415" fill="#84BE84" rx="3.125" ry="3.125" style="stroke:#038048;stroke-width:1.0416666666666667;"/><text fill="#D8BC00" font-family="Open Sans,Avenir,Nunito,Arial,Helvetica,SansSerif" font-size="11.4583" lengthAdjust="spacing" textLength="175" x="807.8125" y="552.7527">next() : Provider&lt;ServiceType&gt;</text><rect fill="#F24D5C" height="6.25" style="stroke:#C82930;stroke-width:1.0416666666666667;" width="6.25" x="793.2292" y="562.4613"/><text fill="#D8BC00" font-family="Open Sans,Avenir,Nunito,Arial,Helvetica,SansSerif" font-size="11.4583" lengthAdjust="spacing" textLength="293.75" x="807.8125" y="572.4976">iteratorFor(ClassLoader) : Iterator&lt;ServiceProvider&gt;</text><!--MD5=[1019fea03c2af6f39681c72eab9040cb]
class LazyClassPathLookupIterator--><rect codeLine="48" fill="#282828" height="186.2691" id="LazyClassPathLookupIterator" rx="8.3333" ry="8.3333" style="stroke:#5E5E5E;stroke-width:1.0416666666666667;" width="387.5" x="1216.6667" y="405.7861"/><rect fill="#1B1B1A" height="31.3883" rx="8.3333" ry="8.3333" style="stroke:#1B1B1A;stroke-width:1.0416666666666667;" width="387.5" x="1216.6667" y="405.7861"/><rect fill="#1B1B1A" height="8.3333" style="stroke:#1B1B1A;stroke-width:1.0416666666666667;" width="387.5" x="1216.6667" y="428.8411"/><rect codeLine="48" fill="none" height="186.2691" id="LazyClassPathLookupIterator" rx="8.3333" ry="8.3333" style="stroke:#5E5E5E;stroke-width:1.0416666666666667;" width="387.5" x="1216.6667" y="405.7861"/><ellipse cx="1231.25" cy="421.4803" fill="#0066CF" rx="10.4167" ry="10.4167" style="stroke:#0086EF;stroke-width:1.0416666666666667;"/><path d="M1233.1604,425.9054 Q1232.7332,426.1251 1232.2632,426.2349 Q1231.7932,426.3448 1231.2744,426.3448 Q1229.4312,426.3448 1228.4607,425.1302 Q1227.4902,423.9156 1227.4902,421.6207 Q1227.4902,419.3197 1228.4607,418.1051 Q1229.4312,416.8905 1231.2744,416.8905 Q1231.7932,416.8905 1232.2693,417.0003 Q1232.7454,417.1102 1233.1604,417.3299 L1233.1604,419.3319 Q1232.6965,418.9046 1232.2601,418.7063 Q1231.8237,418.5079 1231.3599,418.5079 Q1230.3711,418.5079 1229.8676,419.2922 Q1229.364,420.0765 1229.364,421.6207 Q1229.364,423.1588 1229.8676,423.9431 Q1230.3711,424.7274 1231.3599,424.7274 Q1231.8237,424.7274 1232.2601,424.529 Q1232.6965,424.3306 1233.1604,423.9034 Z " fill="#000000"/><text fill="#D8BC00" font-family="Open Sans,Avenir,Nunito,Arial,Helvetica,SansSerif" font-size="12.5" font-weight="bold" lengthAdjust="spacing" textLength="189.5833" x="1247.9167" y="426.2044">LazyClassPathLookupIterator</text><rect fill="#333333" height="23.055" style="stroke:#A0A0A0;stroke-width:1.0416666666666667;stroke-dasharray:2.0,2.0;" width="158.3333" x="1448.9583" y="402.6611"/><text fill="#A0A0A0" font-family="Open Sans,Avenir,Nunito,Arial,Helvetica,SansSerif" font-size="12.5" font-weight="bold" lengthAdjust="spacing" textLength="150" x="1453.125" y="418.9128">Provider&lt;ServiceType&gt;</text><line style="stroke:#5E5E5E;stroke-width:1.0416666666666667;" x1="1217.7083" x2="1603.125" y1="437.1745" y2="437.1745"/><polygon fill="none" points="1228.125,444.4661,1223.9583,450.7161,1232.2917,450.7161" style="stroke:#1963A0;stroke-width:1.0416666666666667;"/><text fill="#D8BC00" font-family="Open Sans,Avenir,Nunito,Arial,Helvetica,SansSerif" font-size="11.4583" lengthAdjust="spacing" textLength="162.5" x="1239.5833" y="455.544">configs : Enumeration&lt;URL&gt;</text><polygon fill="none" points="1228.125,464.211,1223.9583,470.461,1232.2917,470.461" style="stroke:#1963A0;stroke-width:1.0416666666666667;"/><text fill="#D8BC00" font-family="Open Sans,Avenir,Nunito,Arial,Helvetica,SansSerif" font-size="11.4583" lengthAdjust="spacing" textLength="213.5417" x="1239.5833" y="475.2889">nextProvider : Provider&lt;ServiceType&gt;</text><line style="stroke:#5E5E5E;stroke-width:1.0416666666666667;" x1="1217.7083" x2="1603.125" y1="484.9976" y2="484.9976"/><ellipse cx="1228.125" cy="496.4559" fill="#84BE84" rx="3.125" ry="3.125" style="stroke:#038048;stroke-width:1.0416666666666667;"/><text fill="#D8BC00" font-family="Open Sans,Avenir,Nunito,Arial,Helvetica,SansSerif" font-size="11.4583" lengthAdjust="spacing" textLength="108.3333" x="1239.5833" y="503.3671">hasNext() : boolean</text><ellipse cx="1228.125" cy="516.2008" fill="#84BE84" rx="3.125" ry="3.125" style="stroke:#038048;stroke-width:1.0416666666666667;"/><text fill="#D8BC00" font-family="Open Sans,Avenir,Nunito,Arial,Helvetica,SansSerif" font-size="11.4583" lengthAdjust="spacing" textLength="175" x="1239.5833" y="523.112">next() : Provider&lt;ServiceType&gt;</text><rect fill="#F24D5C" height="6.25" style="stroke:#C82930;stroke-width:1.0416666666666667;" width="6.25" x="1225" y="532.8206"/><text fill="#D8BC00" font-family="Open Sans,Avenir,Nunito,Arial,Helvetica,SansSerif" font-size="11.4583" lengthAdjust="spacing" textLength="147.9167" x="1239.5833" y="542.8569">hasNextService() : boolean</text><rect fill="#F24D5C" height="6.25" style="stroke:#C82930;stroke-width:1.0416666666666667;" width="6.25" x="1225" y="552.5655"/><text fill="#D8BC00" font-family="Open Sans,Avenir,Nunito,Arial,Helvetica,SansSerif" font-size="11.4583" lengthAdjust="spacing" textLength="173.9583" x="1239.5833" y="562.6017">nextProviderClass() : Class&lt;?&gt;</text><rect fill="#F24D5C" height="6.25" style="stroke:#C82930;stroke-width:1.0416666666666667;" width="6.25" x="1225" y="572.3104"/><text fill="#D8BC00" font-family="Open Sans,Avenir,Nunito,Arial,Helvetica,SansSerif" font-size="11.4583" lengthAdjust="spacing" textLength="164.5833" x="1239.5833" y="582.3466">parse(URL) : Iterator&lt;String&gt;</text><!--MD5=[2ebec145519e17142ea80b6fd4363fd6]
class AnonymousLookupIterator--><rect codeLine="58" fill="#282828" height="127.0345" id="AnonymousLookupIterator" rx="8.3333" ry="8.3333" style="stroke:#5E5E5E;stroke-width:1.0416666666666667;" width="372.9167" x="375" y="435.4736"/><rect fill="#1B1B1A" height="31.3883" rx="8.3333" ry="8.3333" style="stroke:#1B1B1A;stroke-width:1.0416666666666667;" width="372.9167" x="375" y="435.4736"/><rect fill="#1B1B1A" height="8.3333" style="stroke:#1B1B1A;stroke-width:1.0416666666666667;" width="372.9167" x="375" y="458.5286"/><rect codeLine="58" fill="none" height="127.0345" id="AnonymousLookupIterator" rx="8.3333" ry="8.3333" style="stroke:#5E5E5E;stroke-width:1.0416666666666667;" width="372.9167" x="375" y="435.4736"/><ellipse cx="389.5833" cy="451.1678" fill="#0066CF" rx="10.4167" ry="10.4167" style="stroke:#0086EF;stroke-width:1.0416666666666667;"/><path d="M391.4937,455.5929 Q391.0665,455.8126 390.5965,455.9224 Q390.1265,456.0323 389.6077,456.0323 Q387.7645,456.0323 386.794,454.8177 Q385.8236,453.6031 385.8236,451.3082 Q385.8236,449.0072 386.794,447.7926 Q387.7645,446.578 389.6077,446.578 Q390.1265,446.578 390.6026,446.6878 Q391.0787,446.7977 391.4937,447.0174 L391.4937,449.0194 Q391.0299,448.5921 390.5935,448.3938 Q390.1571,448.1954 389.6932,448.1954 Q388.7044,448.1954 388.2009,448.9797 Q387.6973,449.764 387.6973,451.3082 Q387.6973,452.8463 388.2009,453.6306 Q388.7044,454.4149 389.6932,454.4149 Q390.1571,454.4149 390.5935,454.2165 Q391.0299,454.0181 391.4937,453.5909 Z " fill="#000000"/><text fill="#D8BC00" font-family="Open Sans,Avenir,Nunito,Arial,Helvetica,SansSerif" font-size="12.5" font-weight="bold" lengthAdjust="spacing" textLength="175" x="406.25" y="455.8919">AnonymousLookupIterator</text><rect fill="#333333" height="23.055" style="stroke:#A0A0A0;stroke-width:1.0416666666666667;stroke-dasharray:2.0,2.0;" width="158.3333" x="592.7083" y="432.3486"/><text fill="#A0A0A0" font-family="Open Sans,Avenir,Nunito,Arial,Helvetica,SansSerif" font-size="12.5" font-weight="bold" lengthAdjust="spacing" textLength="150" x="596.875" y="448.6003">Provider&lt;ServiceType&gt;</text><line style="stroke:#5E5E5E;stroke-width:1.0416666666666667;" x1="376.0417" x2="746.875" y1="466.862" y2="466.862"/><rect fill="none" height="6.25" style="stroke:#C82930;stroke-width:1.0416666666666667;" width="6.25" x="383.3333" y="475.1953"/><text fill="#D8BC00" font-family="Open Sans,Avenir,Nunito,Arial,Helvetica,SansSerif" font-size="11.4583" lengthAdjust="spacing" textLength="202.0833" x="397.9167" y="485.2315">first : ModuleServicesLookupIterator</text><rect fill="none" height="6.25" style="stroke:#C82930;stroke-width:1.0416666666666667;" width="6.25" x="383.3333" y="494.9402"/><text fill="#D8BC00" font-family="Open Sans,Avenir,Nunito,Arial,Helvetica,SansSerif" font-size="11.4583" lengthAdjust="spacing" textLength="212.5" x="397.9167" y="504.9764">second : LazyClassPathLookupIterator</text><line style="stroke:#5E5E5E;stroke-width:1.0416666666666667;" x1="376.0417" x2="746.875" y1="514.6851" y2="514.6851"/><ellipse cx="386.4583" cy="526.1434" fill="#84BE84" rx="3.125" ry="3.125" style="stroke:#038048;stroke-width:1.0416666666666667;"/><text fill="#D8BC00" font-family="Open Sans,Avenir,Nunito,Arial,Helvetica,SansSerif" font-size="11.4583" lengthAdjust="spacing" textLength="108.3333" x="397.9167" y="533.0546">hasNext() : boolean</text><ellipse cx="386.4583" cy="545.8883" fill="#84BE84" rx="3.125" ry="3.125" style="stroke:#038048;stroke-width:1.0416666666666667;"/><text fill="#D8BC00" font-family="Open Sans,Avenir,Nunito,Arial,Helvetica,SansSerif" font-size="11.4583" lengthAdjust="spacing" textLength="175" x="397.9167" y="552.7995">next() : Provider&lt;ServiceType&gt;</text><!--MD5=[9a61f3443f444c32de2f57530fd7977d]
class AnonymousIterator--><rect codeLine="65" fill="#282828" height="107.2896" id="AnonymousIterator" rx="8.3333" ry="8.3333" style="stroke:#5E5E5E;stroke-width:1.0416666666666667;" width="250" x="637.5" y="90.682"/><rect fill="#1B1B1A" height="31.3883" rx="8.3333" ry="8.3333" style="stroke:#1B1B1A;stroke-width:1.0416666666666667;" width="250" x="637.5" y="90.682"/><rect fill="#1B1B1A" height="8.3333" style="stroke:#1B1B1A;stroke-width:1.0416666666666667;" width="250" x="637.5" y="113.737"/><rect codeLine="65" fill="none" height="107.2896" id="AnonymousIterator" rx="8.3333" ry="8.3333" style="stroke:#5E5E5E;stroke-width:1.0416666666666667;" width="250" x="637.5" y="90.682"/><ellipse cx="652.0833" cy="106.3761" fill="#0066CF" rx="10.4167" ry="10.4167" style="stroke:#0086EF;stroke-width:1.0416666666666667;"/><path d="M653.9937,110.8012 Q653.5665,111.0209 653.0965,111.1308 Q652.6265,111.2406 652.1077,111.2406 Q650.2645,111.2406 649.294,110.026 Q648.3236,108.8114 648.3236,106.5165 Q648.3236,104.2155 649.294,103.0009 Q650.2645,101.7863 652.1077,101.7863 Q652.6265,101.7863 653.1026,101.8962 Q653.5787,102.006 653.9937,102.2257 L653.9937,104.2277 Q653.5299,103.8005 653.0935,103.6021 Q652.6571,103.4037 652.1932,103.4037 Q651.2044,103.4037 650.7009,104.188 Q650.1973,104.9723 650.1973,106.5165 Q650.1973,108.0546 650.7009,108.8389 Q651.2044,109.6232 652.1932,109.6232 Q652.6571,109.6232 653.0935,109.4248 Q653.5299,109.2265 653.9937,108.7992 Z " fill="#000000"/><text fill="#D8BC00" font-family="Open Sans,Avenir,Nunito,Arial,Helvetica,SansSerif" font-size="12.5" font-weight="bold" lengthAdjust="spacing" textLength="126.0417" x="668.75" y="111.1003">AnonymousIterator</text><rect fill="#333333" height="23.055" style="stroke:#A0A0A0;stroke-width:1.0416666666666667;stroke-dasharray:2.0,2.0;" width="84.375" x="806.25" y="87.557"/><text fill="#A0A0A0" font-family="Open Sans,Avenir,Nunito,Arial,Helvetica,SansSerif" font-size="12.5" font-weight="bold" lengthAdjust="spacing" textLength="76.0417" x="810.4167" y="103.8086">ServiceType</text><line style="stroke:#5E5E5E;stroke-width:1.0416666666666667;" x1="638.5417" x2="886.4583" y1="122.0703" y2="122.0703"/><rect fill="none" height="6.25" style="stroke:#C82930;stroke-width:1.0416666666666667;" width="6.25" x="645.8333" y="130.4036"/><text fill="#D8BC00" font-family="Open Sans,Avenir,Nunito,Arial,Helvetica,SansSerif" font-size="11.4583" lengthAdjust="spacing" textLength="55.2083" x="660.4167" y="140.4399">index : int</text><line style="stroke:#5E5E5E;stroke-width:1.0416666666666667;" x1="638.5417" x2="886.4583" y1="150.1485" y2="150.1485"/><ellipse cx="648.9583" cy="161.6069" fill="#84BE84" rx="3.125" ry="3.125" style="stroke:#038048;stroke-width:1.0416666666666667;"/><text fill="#D8BC00" font-family="Open Sans,Avenir,Nunito,Arial,Helvetica,SansSerif" font-size="11.4583" lengthAdjust="spacing" textLength="108.3333" x="660.4167" y="168.5181">hasNext() : boolean</text><ellipse cx="648.9583" cy="181.3517" fill="#84BE84" rx="3.125" ry="3.125" style="stroke:#038048;stroke-width:1.0416666666666667;"/><text fill="#D8BC00" font-family="Open Sans,Avenir,Nunito,Arial,Helvetica,SansSerif" font-size="11.4583" lengthAdjust="spacing" textLength="109.375" x="660.4167" y="188.2629">next() : ServiceType</text><polygon fill="#282828" points="366.6667,317.2445,379.1667,329.7445,366.6667,342.2445,354.1667,329.7445,366.6667,317.2445" style="stroke:#5E5E5E;stroke-width:1.5625;"/><!--MD5=[5d0866488b9d7cb27ac60634b37116cd]
reverse link Provider to ProviderImpl--><path codeLine="29" d="M982.2917,764.4424 C982.2917,778.2653 982.2917,792.859 982.2917,806.6403 " fill="none" id="Provider-backto-ProviderImpl" style="stroke:#545454;stroke-width:1.5625;stroke-dasharray:7.0,7.0;"/><polygon fill="none" points="975,764.432,982.2917,743.5986,989.5833,764.432,975,764.432" style="stroke:#545454;stroke-width:1.5625;"/><!--MD5=[a16f2e91812ded2a4e6419a9826c766d]
link ServiceLoader to switch--><path codeLine="72" d="M366.6667,231.932 C366.6667,265.3174 366.6667,299.5882 366.6667,317.0049 " fill="none" id="ServiceLoader-switch" style="stroke:#545454;stroke-width:1.5625;"/><text fill="#A0A0A0" font-family="Open Sans,Avenir,Nunito,Arial,Helvetica,SansSerif" font-size="12.5" font-weight="bold" lengthAdjust="spacing" textLength="93.75" x="370.8333" y="279.3294">lookupIterator</text><!--MD5=[b66ab9338e3abca269502388d5fe37da]
link switch to LayerLookupIterator--><path codeLine="73" d="M360.25,336.3486 C344.5,350.0153 302.2396,386.682 261.9479,421.6299 " fill="none" id="switch-to-LayerLookupIterator" style="stroke:#545454;stroke-width:1.5625;"/><polygon fill="#545454" points="257.5521,425.4528,267.3578,422.4361,261.4791,422.0315,261.8837,416.1529,257.5521,425.4528" style="stroke:#545454;stroke-width:1.5625;"/><text fill="#A0A0A0" font-family="Open Sans,Avenir,Nunito,Arial,Helvetica,SansSerif" font-size="12.5" font-weight="bold" lengthAdjust="spacing" textLength="22.9167" x="238.3036" y="411.5742">0..1</text><!--MD5=[c9f2108d0c6aca9007bd835eae8762cd]
link switch to AnonymousLookupIterator--><path codeLine="74" d="M373.1458,336.3486 C390.6458,351.359 440.4688,394.1299 484.4792,431.9007 " fill="none" id="switch-to-AnonymousLookupIterator" style="stroke:#545454;stroke-width:1.5625;"/><polygon fill="#545454" points="488.4479,435.307,484.0588,426.034,484.4998,431.9101,478.6237,432.3511,488.4479,435.307" style="stroke:#545454;stroke-width:1.5625;"/><text fill="#A0A0A0" font-family="Open Sans,Avenir,Nunito,Arial,Helvetica,SansSerif" font-size="12.5" font-weight="bold" lengthAdjust="spacing" textLength="22.9167" x="452.8257" y="421.5864">0..1</text><!--MD5=[849c683cfb64cc4de8ba7214af4e8c15]
link LayerLookupIterator to AnonymousLookupIterator--><!--MD5=[c5dda2be27f34d81f8e40d905eaea752]
link ServiceLoader to AnonymousIterator--><path codeLine="76" d="M536.5417,144.3278 C568.5625,144.3278 601.5729,144.3278 632.1354,144.3278 " fill="none" id="ServiceLoader-to-AnonymousIterator" style="stroke:#545454;stroke-width:1.5625;stroke-dasharray:7.0,7.0;"/><polygon fill="#545454" points="637.4167,144.3278,628.0417,140.1611,632.2083,144.3278,628.0417,148.4945,637.4167,144.3278" style="stroke:#545454;stroke-width:1.5625;"/><text fill="#A0A0A0" font-family="Open Sans,Avenir,Nunito,Arial,Helvetica,SansSerif" font-size="12.5" font-weight="bold" lengthAdjust="spacing" textLength="56.25" x="558.8542" y="134.5378">provides</text><!--MD5=[baeba4006bef45a0cd4becccffcf052e]
link AnonymousLookupIterator to ModuleServicesLookupIterator--><path codeLine="78" d="M748.0417,499.0153 C758.4271,499.0153 768.8229,499.0153 779.2083,499.0153 " fill="none" id="AnonymousLookupIterator-to-ModuleServicesLookupIterator" style="stroke:#545454;stroke-width:1.5625;"/><polygon fill="#545454" points="784.6458,499.0153,775.2708,494.8486,779.4375,499.0153,775.2708,503.182,784.6458,499.0153" style="stroke:#545454;stroke-width:1.5625;"/><!--MD5=[bcc477f5a61ecd165e5f3693e979e9d3]
link AnonymousLookupIterator to LazyClassPathLookupIterator--><path codeLine="79" d="M650.4167,435.4528 C689.6771,411.1611 737.5833,386.3486 784.8958,374.0153 C869.7917,351.8799 1094.6458,352.4632 1179.6875,374.0153 C1206.2917,380.7549 1233.1563,391.2549 1258.6875,403.359 " fill="none" id="AnonymousLookupIterator-to-LazyClassPathLookupIterator" style="stroke:#545454;stroke-width:1.5625;"/><polygon fill="#545454" points="1263.4375,405.6403,1256.7847,397.8305,1258.7409,403.3889,1253.1825,405.3451,1263.4375,405.6403" style="stroke:#545454;stroke-width:1.5625;"/><!--MD5=[3480343bc48d686ff928c86a55317ea6]
link ModuleServicesLookupIterator to LazyClassPathLookupIterator--><!--MD5=[46d6130a1bf33bb4de1b69cc4e7a5315]
link LayerLookupIterator to Provider--><path codeLine="82" d="M305.8958,572.5153 C322.5313,579.9424 339.5729,586.7549 356.25,592.2445 C534.5313,650.9632 752.5938,678.5778 878.6667,690.484 " fill="none" id="LayerLookupIterator-to-Provider" style="stroke:#545454;stroke-width:1.5625;"/><polygon fill="#545454" points="883.8542,690.9736,874.9144,685.9405,878.6691,690.4819,874.1277,694.2367,883.8542,690.9736" style="stroke:#545454;stroke-width:1.5625;"/><!--MD5=[633e939edbc486b09b1afd41906d7d81]
link ModuleServicesLookupIterator to Provider--><path codeLine="83" d="M982.2917,582.484 C982.2917,605.4632 982.2917,629.6715 982.2917,649.9945 " fill="none" id="ModuleServicesLookupIterator-to-Provider" style="stroke:#545454;stroke-width:1.5625;"/><polygon fill="#545454" points="982.2917,655.6195,986.4583,646.2445,982.2917,650.4111,978.125,646.2445,982.2917,655.6195" style="stroke:#545454;stroke-width:1.5625;"/><!--MD5=[a7a8bf37282b7585f3534d23145532a8]
link LazyClassPathLookupIterator to Provider--><path codeLine="84" d="M1216.3958,589.984 C1168.9896,611.9632 1120.25,634.5465 1079.6146,653.3903 " fill="none" id="LazyClassPathLookupIterator-to-Provider" style="stroke:#545454;stroke-width:1.5625;"/><polygon fill="#545454" points="1074.6979,655.6611,1084.956,655.5095,1079.4256,653.4757,1081.4593,647.9453,1074.6979,655.6611" style="stroke:#545454;stroke-width:1.5625;"/><!--MD5=[4122cbe2aa2aa9106dbe9ccc50705aa5]
@startuml

    !include ../lexakai.theme

    title "Service Loader"

    class ServiceLoader<ServiceType> {
        {static} + load(serviceTypeClass) : ServiceLoader<ServiceType>
        - - -
        - service : Class<ServiceType>
        - lookupIterator : Iterator<Provider<ServiceType>>
        - instantiatedProviders : List<ServiceType>
        - - -
        + iterator() : Iterator<ServiceType>
        - loadProvider(ServiceProvider) : Provider<ServiceType>
    }

    interface Provider<ServiceType> {
        {abstract} + type() : Class<^ServiceType>
        {abstract} + get() : ServiceType
    }

    class ProviderImpl<ServiceType> {
        - service : Class<ServiceType>
        - ctor : Constructor<^ServiceType>
        + get() : ServiceType
        - newInstance() : ServiceType
    }

    ProviderImpl .u.^ Provider

    class LayerLookupIterator<Provider<ServiceType>> {
        ~ stack : Deque<ModuleLayer>
        ~ iterator : Iterator<ServiceLoader>
        ~ nextProvider : Provider<ServiceType>
        + hasNext() : boolean
        + next() : Provider<ServiceType>
    }

    class ModuleServicesLookupIterator<Provider<ServiceType>> {
        ~ currentLoader : ClassLoader
        ~ iterator : Iterator<ServiceLoader>
        ~ nextProvider : Provider<ServiceType>
        + hasNext() : boolean
        + next() : Provider<ServiceType>
        - iteratorFor(ClassLoader) : Iterator<ServiceProvider>
    }

    class LazyClassPathLookupIterator<Provider<ServiceType>> {
        ~ configs : Enumeration<URL>
        ~ nextProvider : Provider<ServiceType>
        + hasNext() : boolean
        + next() : Provider<ServiceType>
        - hasNextService() : boolean
        - nextProviderClass() : Class<?>
        - parse(URL) : Iterator<String>
    }

    class AnonymousLookupIterator<Provider<ServiceType>> {
        - first : ModuleServicesLookupIterator
        - second : LazyClassPathLookupIterator
        + hasNext() : boolean
        + next() : Provider<ServiceType>
    }

    class AnonymousIterator<ServiceType> {
        - index : int
        + hasNext() : boolean
        + next() : ServiceType
    }

    <> switch
    ServiceLoader -d- switch : lookupIterator
    switch -d-> "0..1" LayerLookupIterator
    switch -d-> "0..1" AnonymousLookupIterator
    LayerLookupIterator -r[hidden] AnonymousLookupIterator
    ServiceLoader .r.> AnonymousIterator : provides

    AnonymousLookupIterator -r-> ModuleServicesLookupIterator
    AnonymousLookupIterator -r-> LazyClassPathLookupIterator
    ModuleServicesLookupIterator -r[hidden]- LazyClassPathLookupIterator

    LayerLookupIterator -d-> Provider
    ModuleServicesLookupIterator -d-> Provider
    LazyClassPathLookupIterator -d-> Provider

@enduml

@startuml









skinparam backgroundColor #333333






skinparam  {
    defaultFontName   "Open Sans,Avenir,Nunito,Arial,Helvetica,SansSerif"
    defaultFontSize   12
    defaultTextAlignment left
    shadowing false
    RoundCorner 10
    TitleFontSize 18
}

skinparam defaultFontName       "Open Sans,Avenir,Nunito,Arial,Helvetica,SansSerif"
skinparam defaultFontSize       12
skinparam dpi                   100
skinparam shadowing             false
skinparam roundcorner           16
skinparam ParticipantPadding    40
skinparam BoxPadding            40
skinparam Padding               3
skinparam ArrowColor            #545454
skinparam stereotype {
    CBackgroundColor #0066cf
    CBorderColor #0086ef
    ABackgroundColor #C8Ac00
    ABorderColor #D8Bc00
    IBackgroundColor #008400
    IBorderColor #239c23
    EBackgroundColor #cf6300
    EBorderColor #ef8300
    NBackgroundColor #3380b9
    NBorderColor #004d86
}
skinparam title {
	FontColor	                 #c0c0c0
 	BorderColor                  #545454
	FontSize	    	         20
	BorderRoundCorner            16
	BorderThickness 	         1
	BackgroundColor              #48494b
}


skinparam legend {
	BackgroundColor #303030
	BorderColor #404040
	FontColor #a0a0a0
}

	skinparam swimlane {
	BorderColor #5e5e5e
	BorderThickness 2
	TitleBackgroundColor  #6d6d6d-#484848
	TitleFontColor #303030
}

skinparam activity {
		FontColor #C8Ac00
	BorderColor #333333
	BackgroundColor #333333-#333333
	BarColor #00FF00
	StartColor #0060a8
	EndColor #0060a8
	DiamondBackgroundColor #6d6d6d-#3a3a3a
  	DiamondBorderColor #3a3a3a
  	DiamondFontColor #fefefe
}


skinparam participant {
		FontColor #C8Ac00
	BorderColor #333333
	BackgroundColor #333333-#333333
	ParticipantBorderThickness 2
}


skinparam actor {
		FontColor #C8Ac00
	BorderColor #333333
	BackgroundColor #333333-#333333
}


skinparam arrow {
	Thickness 1.5
	Color #545454
	FontColor #a0a0a0
    FontStyle bold
    MessageAlignment center
}



skinparam sequence {
	BorderColor #303030
	TitleFontColor #303030
	BackgroundColor #333333
	StartColor #303030
	EndColor #303030
	BoxBackgroundColor #333333
	BoxBorderColor #484848
	BoxFontColor #484848
	LifeLineBorderColor #484848
	LifeLineBorderThickness 2
	LifeLineBackgroundColor #3a3a3a
	GroupBorderColor #484848
	GroupFontColor #3380b9
	GroupHeaderFontColor #0060a8
	GroupBackgroundColor #484848
	GroupHeaderBackgroundColor #333333
	DividerBackgroundColor #484848
    DividerBorderColor #484848
    DividerBorderThickness 2
    DividerFontColor #D8Bc00
	ReferenceBackgroundColor #333333
	ReferenceBorderColor #484848
	ReferenceFontColor #fefefe
	ReferenceHeaderBackgroundColor #484848
    Participant underline
    ParticipantBackgroundColor #484848
    ParticipantBorderColor #484848
    ParticipantFontSize 14
    ActorBorderColor #484848
    ActorBackgroundColor #484848
    ActorFontSize 14
}


skinparam partition {
	BorderColor #303030
	FontColor #333333
	BackgroundColor #333333
}


skinparam collections {
		FontColor #C8Ac00
	BorderColor #333333
	BackgroundColor #333333-#333333
}


skinparam control {
		FontColor #C8Ac00
	BorderColor #333333
	BackgroundColor #333333-#333333
}


skinparam entity {
		FontColor #C8Ac00
	BorderColor #333333
	BackgroundColor #333333-#333333
}


skinparam boundary {
		FontColor #C8Ac00
	BorderColor #333333
	BackgroundColor #333333-#333333
}


skinparam agent {
	BackgroundColor #ff8000
	BorderColor #ff9933
	FontColor #484848
}


skinparam note {
	BorderThickness 1
	BackgroundColor #1b1b1a
	BorderColor #5e5e5e
	FontSize 11
	FontColor #a0a0a0
}


skinparam artifact {
	BorderThickness 10
	BorderColor #5e5e5e
	BackgroundColor #1b1b1a
	FontColor #D8Bc00
}


skinparam component {
		FontColor #C8Ac00
	BorderColor #333333
	BackgroundColor #333333-#333333
}


skinparam interface {
	BackgroundColor  #008400
	BorderColor  #007F00
	FontColor #484848
}


skinparam storage {
	BackgroundColor #ff8000
  	BorderColor #cc6600
	FontColor #222222
}


skinparam node {
	BackgroundColor #333333
	BorderColor #333333
	FontColor #C8Ac00
}


skinparam cloud {
	BackgroundColor #484848-black
	BorderColor #484848
	FontColor #D8Bc00
}


skinparam database {
		FontColor #C8Ac00
	BorderColor #333333
	BackgroundColor #333333-#333333
	BackgroundColor  #333333
}


skinparam class {
		FontColor #C8Ac00
	BorderColor #333333
	BackgroundColor #333333-#333333
	HeaderBackgroundColor #1b1b1a
    BackgroundColor #282828
    BorderColor #5e5e5e
 	StereotypeFontColor #a0a0a0
    StereotypeFontStyle bold
	BorderThickness 1
	AttributeFontColor #D8Bc00
	AttributeFontSize 11
    FontColor #D8Bc00
    FontStyle bold
}


skinparam object {
		FontColor #C8Ac00
	BorderColor #333333
	BackgroundColor #333333-#333333
	StereotypeFontColor #484848
	BorderThickness 1
	AttributeFontColor #fefefe
	AttributeFontSize 11
}


skinparam usecase {
		FontColor #C8Ac00
	BorderColor #333333
	BackgroundColor #333333-#333333
	BorderThickness 2
	StereotypeFontColor #303030
}


skinparam rectangle {
		FontColor #C8Ac00
	BorderColor #333333
	BackgroundColor #333333-#333333
	BackgroundColor #333333
	BorderThickness 2
	StereotypeFontColor #303030
}


skinparam package {
		FontColor #C8Ac00
	BorderColor #333333
	BackgroundColor #333333-#333333
	BackgroundColor #333333
	BorderColor #5e5e5e
	BorderStyle dashed
	Style rectangle
}


skinparam folder {
	BackgroundColor #6d6d6d
  	BorderColor #ff8000
	FontColor #ff8000
	BorderThickness 2
}


skinparam frame {
	BackgroundColor #6d6d6d
  	BorderColor #0060a8
	FontColor #0060a8
	BorderThickness 2
}


skinparam state {
		FontColor #C8Ac00
	BorderColor #333333
	BackgroundColor #333333-#333333
	StartColor #0060a8
	EndColor #0060a8
	AttributeFontColor #fefefe
	AttributeFontSize 11
}


skinparam queue {
		FontColor #C8Ac00
	BorderColor #333333
	BackgroundColor #333333-#333333
}


skinparam card {
	BackgroundColor #0060a8
	BorderColor #004d86
	FontColor $INFO_TEXT
}


skinparam file {
	BackgroundColor #6d6d6d-#484848
	BorderColor #0060a8
	FontColor #fefefe
}


skinparam stack {
		FontColor #C8Ac00
	BorderColor #333333
	BackgroundColor #333333-#333333
}


    title "Service Loader"

    class ServiceLoader<ServiceType> {
        {static} + load(serviceTypeClass) : ServiceLoader<ServiceType>
        - - -
        - service : Class<ServiceType>
        - lookupIterator : Iterator<Provider<ServiceType>>
        - instantiatedProviders : List<ServiceType>
        - - -
        + iterator() : Iterator<ServiceType>
        - loadProvider(ServiceProvider) : Provider<ServiceType>
    }

    interface Provider<ServiceType> {
        {abstract} + type() : Class<^ServiceType>
        {abstract} + get() : ServiceType
    }

    class ProviderImpl<ServiceType> {
        - service : Class<ServiceType>
        - ctor : Constructor<^ServiceType>
        + get() : ServiceType
        - newInstance() : ServiceType
    }

    ProviderImpl .u.^ Provider

    class LayerLookupIterator<Provider<ServiceType>> {
        ~ stack : Deque<ModuleLayer>
        ~ iterator : Iterator<ServiceLoader>
        ~ nextProvider : Provider<ServiceType>
        + hasNext() : boolean
        + next() : Provider<ServiceType>
    }

    class ModuleServicesLookupIterator<Provider<ServiceType>> {
        ~ currentLoader : ClassLoader
        ~ iterator : Iterator<ServiceLoader>
        ~ nextProvider : Provider<ServiceType>
        + hasNext() : boolean
        + next() : Provider<ServiceType>
        - iteratorFor(ClassLoader) : Iterator<ServiceProvider>
    }

    class LazyClassPathLookupIterator<Provider<ServiceType>> {
        ~ configs : Enumeration<URL>
        ~ nextProvider : Provider<ServiceType>
        + hasNext() : boolean
        + next() : Provider<ServiceType>
        - hasNextService() : boolean
        - nextProviderClass() : Class<?>
        - parse(URL) : Iterator<String>
    }

    class AnonymousLookupIterator<Provider<ServiceType>> {
        - first : ModuleServicesLookupIterator
        - second : LazyClassPathLookupIterator
        + hasNext() : boolean
        + next() : Provider<ServiceType>
    }

    class AnonymousIterator<ServiceType> {
        - index : int
        + hasNext() : boolean
        + next() : ServiceType
    }

    <> switch
    ServiceLoader -d- switch : lookupIterator
    switch -d-> "0..1" LayerLookupIterator
    switch -d-> "0..1" AnonymousLookupIterator
    LayerLookupIterator -r[hidden] AnonymousLookupIterator
    ServiceLoader .r.> AnonymousIterator : provides

    AnonymousLookupIterator -r-> ModuleServicesLookupIterator
    AnonymousLookupIterator -r-> LazyClassPathLookupIterator
    ModuleServicesLookupIterator -r[hidden]- LazyClassPathLookupIterator

    LayerLookupIterator -d-> Provider
    ModuleServicesLookupIterator -d-> Provider
    LazyClassPathLookupIterator -d-> Provider

@enduml

PlantUML version 1.2021.7(Sun May 23 05:40:07 PDT 2021)
(GPL source distribution)
Java Runtime: OpenJDK Runtime Environment
JVM: Dynamic Code Evolution 64-Bit Server VM
Default Encoding: UTF-8
Language: en
Country: US
--></g></svg>
