<?xml version="1.0" encoding="UTF-8" standalone="no"?><svg xmlns="http://www.w3.org/2000/svg" xmlns:xlink="http://www.w3.org/1999/xlink" contentScriptType="application/ecmascript" contentStyleType="text/css" height="633.3333px" preserveAspectRatio="none" style="width:687px;height:633px;background:#333333;" version="1.1" viewBox="0 0 687 633" width="687.5px" zoomAndPan="magnify"><defs/><g><rect fill="#48494B" height="41.2028" rx="8.3333" ry="8.3333" style="stroke:#545454;stroke-width:1.0416666666666667;" width="379.1667" x="146.875" y="2.0833"/><text fill="#C0C0C0" font-family="Open Sans,Avenir,Nunito,Arial,Helvetica,SansSerif" font-size="20.8333" lengthAdjust="spacing" textLength="356.25" x="158.3333" y="30.5583">com.telenav.kivakit.collections.map</text><!--MD5=[d34fc29350ee4454da9b34ad57193ac3]
class BaseMap--><rect codeLine="7" fill="#282828" height="48.055" id="BaseMap" rx="8.3333" ry="8.3333" style="stroke:#5E5E5E;stroke-width:1.0416666666666667;" width="94.7917" x="327.0833" y="130.2653"/><rect fill="#1B1B1A" height="31.3883" rx="8.3333" ry="8.3333" style="stroke:#1B1B1A;stroke-width:1.0416666666666667;" width="94.7917" x="327.0833" y="130.2653"/><rect fill="#1B1B1A" height="8.3333" style="stroke:#1B1B1A;stroke-width:1.0416666666666667;" width="94.7917" x="327.0833" y="153.3203"/><rect codeLine="7" fill="none" height="48.055" id="BaseMap" rx="8.3333" ry="8.3333" style="stroke:#5E5E5E;stroke-width:1.0416666666666667;" width="94.7917" x="327.0833" y="130.2653"/><ellipse cx="341.6667" cy="145.9595" fill="#C8AC00" rx="10.4167" ry="10.4167" style="stroke:#D8BC00;stroke-width:1.0416666666666667;"/><path d="M341.2598,142.6615 L340.4114,146.3908 L342.1143,146.3908 Z M340.1611,141.0136 L342.3645,141.0136 L344.8242,150.1261 L343.0237,150.1261 L342.4622,147.8739 L340.0513,147.8739 L339.502,150.1261 L337.7014,150.1261 Z " fill="#000000"/><text fill="#D8BC00" font-family="Open Sans,Avenir,Nunito,Arial,Helvetica,SansSerif" font-size="12.5" font-style="italic" font-weight="bold" lengthAdjust="spacing" textLength="57.2917" x="358.3333" y="150.6836">BaseMap</text><line style="stroke:#5E5E5E;stroke-width:1.0416666666666667;" x1="328.125" x2="420.8333" y1="161.6536" y2="161.6536"/><line style="stroke:#5E5E5E;stroke-width:1.0416666666666667;" x1="328.125" x2="420.8333" y1="169.987" y2="169.987"/><!--MD5=[aa1d145800c6bf867fa5df88c126224c]
class BaseIndexedMap--><rect codeLine="16" fill="#282828" height="146.7794" id="BaseIndexedMap" rx="8.3333" ry="8.3333" style="stroke:#5E5E5E;stroke-width:1.0416666666666667;" width="222.9167" x="45.3125" y="314.1195"/><rect fill="#1B1B1A" height="31.3883" rx="8.3333" ry="8.3333" style="stroke:#1B1B1A;stroke-width:1.0416666666666667;" width="222.9167" x="45.3125" y="314.1195"/><rect fill="#1B1B1A" height="8.3333" style="stroke:#1B1B1A;stroke-width:1.0416666666666667;" width="222.9167" x="45.3125" y="337.1745"/><rect codeLine="16" fill="none" height="146.7794" id="BaseIndexedMap" rx="8.3333" ry="8.3333" style="stroke:#5E5E5E;stroke-width:1.0416666666666667;" width="222.9167" x="45.3125" y="314.1195"/><ellipse cx="59.8958" cy="329.8136" fill="#C8AC00" rx="10.4167" ry="10.4167" style="stroke:#D8BC00;stroke-width:1.0416666666666667;"/><path d="M59.4889,326.5157 L58.6405,330.245 L60.3434,330.245 Z M58.3903,324.8678 L60.5937,324.8678 L63.0534,333.9803 L61.2528,333.9803 L60.6913,331.7281 L58.2804,331.7281 L57.7311,333.9803 L55.9306,333.9803 Z " fill="#000000"/><text fill="#D8BC00" font-family="Open Sans,Avenir,Nunito,Arial,Helvetica,SansSerif" font-size="12.5" font-style="italic" font-weight="bold" lengthAdjust="spacing" textLength="108.3333" x="76.5625" y="334.5378">BaseIndexedMap</text><rect fill="#333333" height="23.055" style="stroke:#A0A0A0;stroke-width:1.0416666666666667;stroke-dasharray:2.0,2.0;" width="75" x="196.3542" y="310.9945"/><text fill="#A0A0A0" font-family="Open Sans,Avenir,Nunito,Arial,Helvetica,SansSerif" font-size="12.5" font-weight="bold" lengthAdjust="spacing" textLength="66.6667" x="200.5208" y="327.2461">Key, Value</text><line style="stroke:#5E5E5E;stroke-width:1.5625;" x1="46.3542" x2="267.1875" y1="345.5078" y2="345.5078"/><polygon fill="#FFFF44" points="56.7708,375.6694,60.9375,379.836,56.7708,384.0027,52.6042,379.836" style="stroke:#B38D22;stroke-width:1.0416666666666667;"/><text fill="#D8BC00" font-family="Open Sans,Avenir,Nunito,Arial,Helvetica,SansSerif" font-size="11.4583" lengthAdjust="spacing" textLength="155.2083" x="68.2292" y="387.7889">BaseIndexedMap(Maximum)</text><line style="stroke:#5E5E5E;stroke-width:1.0416666666666667;" x1="46.3542" x2="113.0208" y1="363.7136" y2="363.7136"/><text fill="#D8BC00" font-family="Open Sans,Avenir,Nunito,Arial,Helvetica,SansSerif" font-size="11.4583" lengthAdjust="spacing" textLength="81.25" x="116.1458" y="367.5232">(constructors)</text><line style="stroke:#5E5E5E;stroke-width:1.0416666666666667;" x1="200.5208" x2="267.1875" y1="363.7136" y2="363.7136"/><ellipse cx="56.7708" cy="424.5341" fill="#84BE84" rx="3.125" ry="3.125" style="stroke:#038048;stroke-width:1.0416666666666667;"/><text fill="#D8BC00" font-family="Open Sans,Avenir,Nunito,Arial,Helvetica,SansSerif" font-size="11.4583" lengthAdjust="spacing" textLength="101.0417" x="68.2292" y="431.4453">int indexOf(Value)</text><ellipse cx="56.7708" cy="444.279" fill="#84BE84" rx="3.125" ry="3.125" style="stroke:#038048;stroke-width:1.0416666666666667;"/><text fill="#D8BC00" font-family="Open Sans,Avenir,Nunito,Arial,Helvetica,SansSerif" font-size="11.4583" lengthAdjust="spacing" textLength="175" x="68.2292" y="451.1902">void sort(Comparator&lt;Value&gt;)</text><line style="stroke:#5E5E5E;stroke-width:1.0416666666666667;" x1="46.3542" x2="122.3958" y1="407.37" y2="407.37"/><text fill="#D8BC00" font-family="Open Sans,Avenir,Nunito,Arial,Helvetica,SansSerif" font-size="11.4583" lengthAdjust="spacing" textLength="62.5" x="125.5208" y="411.1796">(collection)</text><line style="stroke:#5E5E5E;stroke-width:1.0416666666666667;" x1="191.1458" x2="267.1875" y1="407.37" y2="407.37"/><!--MD5=[93b6c7fd318afcbb262a6b60625b068e]
class Addable--><rect codeLine="10" fill="#282828" height="48.055" id="Addable" rx="8.3333" ry="8.3333" style="stroke:#5E5E5E;stroke-width:1.0416666666666667;" width="90.625" x="7.2917" y="130.2653"/><rect fill="#1B1B1A" height="31.3883" rx="8.3333" ry="8.3333" style="stroke:#1B1B1A;stroke-width:1.0416666666666667;" width="90.625" x="7.2917" y="130.2653"/><rect fill="#1B1B1A" height="8.3333" style="stroke:#1B1B1A;stroke-width:1.0416666666666667;" width="90.625" x="7.2917" y="153.3203"/><rect codeLine="10" fill="none" height="48.055" id="Addable" rx="8.3333" ry="8.3333" style="stroke:#5E5E5E;stroke-width:1.0416666666666667;" width="90.625" x="7.2917" y="130.2653"/><ellipse cx="21.875" cy="145.9595" fill="#008400" rx="10.4167" ry="10.4167" style="stroke:#239C23;stroke-width:1.0416666666666667;"/><path d="M19.279,143.1213 L19.279,141.5344 L24.705,141.5344 L24.705,143.1213 L22.8923,143.1213 L22.8923,149.0601 L24.705,149.0601 L24.705,150.647 L19.279,150.647 L19.279,149.0601 L21.0917,149.0601 L21.0917,143.1213 Z " fill="#000000"/><text fill="#D8BC00" font-family="Open Sans,Avenir,Nunito,Arial,Helvetica,SansSerif" font-size="12.5" font-style="italic" font-weight="bold" lengthAdjust="spacing" textLength="53.125" x="38.5417" y="150.6836">Addable</text><line style="stroke:#5E5E5E;stroke-width:1.0416666666666667;" x1="8.3333" x2="96.875" y1="161.6536" y2="161.6536"/><line style="stroke:#5E5E5E;stroke-width:1.0416666666666667;" x1="8.3333" x2="96.875" y1="169.987" y2="169.987"/><!--MD5=[c18f7ed30c23a7bda252089dc60b3328]
class Indexable--><rect codeLine="11" fill="#282828" height="48.055" id="Indexable" rx="8.3333" ry="8.3333" style="stroke:#5E5E5E;stroke-width:1.0416666666666667;" width="100" x="134.8958" y="130.2653"/><rect fill="#1B1B1A" height="31.3883" rx="8.3333" ry="8.3333" style="stroke:#1B1B1A;stroke-width:1.0416666666666667;" width="100" x="134.8958" y="130.2653"/><rect fill="#1B1B1A" height="8.3333" style="stroke:#1B1B1A;stroke-width:1.0416666666666667;" width="100" x="134.8958" y="153.3203"/><rect codeLine="11" fill="none" height="48.055" id="Indexable" rx="8.3333" ry="8.3333" style="stroke:#5E5E5E;stroke-width:1.0416666666666667;" width="100" x="134.8958" y="130.2653"/><ellipse cx="149.4792" cy="145.9595" fill="#008400" rx="10.4167" ry="10.4167" style="stroke:#239C23;stroke-width:1.0416666666666667;"/><path d="M146.8831,143.1213 L146.8831,141.5344 L152.3092,141.5344 L152.3092,143.1213 L150.4964,143.1213 L150.4964,149.0601 L152.3092,149.0601 L152.3092,150.647 L146.8831,150.647 L146.8831,149.0601 L148.6959,149.0601 L148.6959,143.1213 Z " fill="#000000"/><text fill="#D8BC00" font-family="Open Sans,Avenir,Nunito,Arial,Helvetica,SansSerif" font-size="12.5" font-style="italic" font-weight="bold" lengthAdjust="spacing" textLength="62.5" x="166.1458" y="150.6836">Indexable</text><line style="stroke:#5E5E5E;stroke-width:1.0416666666666667;" x1="135.9375" x2="233.8542" y1="161.6536" y2="161.6536"/><line style="stroke:#5E5E5E;stroke-width:1.0416666666666667;" x1="135.9375" x2="233.8542" y1="169.987" y2="169.987"/><!--MD5=[20e0deeddc962b8ffd4888839dcf9679]
class IndexedNameMap--><rect codeLine="26" fill="#282828" height="103.123" id="IndexedNameMap" rx="8.3333" ry="8.3333" style="stroke:#5E5E5E;stroke-width:1.0416666666666667;" width="193.75" x="59.8958" y="523.4945"/><rect fill="#1B1B1A" height="31.3883" rx="8.3333" ry="8.3333" style="stroke:#1B1B1A;stroke-width:1.0416666666666667;" width="193.75" x="59.8958" y="523.4945"/><rect fill="#1B1B1A" height="8.3333" style="stroke:#1B1B1A;stroke-width:1.0416666666666667;" width="193.75" x="59.8958" y="546.5495"/><rect codeLine="26" fill="none" height="103.123" id="IndexedNameMap" rx="8.3333" ry="8.3333" style="stroke:#5E5E5E;stroke-width:1.0416666666666667;" width="193.75" x="59.8958" y="523.4945"/><ellipse cx="84.7917" cy="539.1886" fill="#0066CF" rx="10.4167" ry="10.4167" style="stroke:#0086EF;stroke-width:1.0416666666666667;"/><path d="M86.7021,543.6137 Q86.2748,543.8334 85.8049,543.9433 Q85.3349,544.0531 84.8161,544.0531 Q82.9728,544.0531 82.0024,542.8385 Q81.0319,541.6239 81.0319,539.329 Q81.0319,537.028 82.0024,535.8134 Q82.9728,534.5988 84.8161,534.5988 Q85.3349,534.5988 85.811,534.7087 Q86.287,534.8185 86.7021,535.0382 L86.7021,537.0402 Q86.2382,536.613 85.8018,536.4146 Q85.3654,536.2162 84.9015,536.2162 Q83.9128,536.2162 83.4092,537.0005 Q82.9057,537.7848 82.9057,539.329 Q82.9057,540.8671 83.4092,541.6514 Q83.9128,542.4357 84.9015,542.4357 Q85.3654,542.4357 85.8018,542.2373 Q86.2382,542.039 86.7021,541.6117 Z " fill="#000000"/><text fill="#D8BC00" font-family="Open Sans,Avenir,Nunito,Arial,Helvetica,SansSerif" font-size="12.5" font-weight="bold" lengthAdjust="spacing" textLength="114.5833" x="103.75" y="543.9128">IndexedNameMap</text><rect fill="#333333" height="23.055" style="stroke:#A0A0A0;stroke-width:1.0416666666666667;stroke-dasharray:2.0,2.0;" width="16.6667" x="240.1042" y="520.3695"/><text fill="#A0A0A0" font-family="Open Sans,Avenir,Nunito,Arial,Helvetica,SansSerif" font-size="12.5" font-weight="bold" lengthAdjust="spacing" textLength="8.3333" x="244.2708" y="536.6211">T</text><line style="stroke:#5E5E5E;stroke-width:1.5625;" x1="60.9375" x2="252.6042" y1="554.8828" y2="554.8828"/><ellipse cx="71.3542" cy="590.2527" fill="#84BE84" rx="3.125" ry="3.125" style="stroke:#038048;stroke-width:1.0416666666666667;"/><text fill="#D8BC00" font-family="Open Sans,Avenir,Nunito,Arial,Helvetica,SansSerif" font-size="11.4583" lengthAdjust="spacing" textLength="107.2917" x="82.8125" y="597.1639">IndexedNameMap()</text><ellipse cx="71.3542" cy="609.9976" fill="#84BE84" rx="3.125" ry="3.125" style="stroke:#038048;stroke-width:1.0416666666666667;"/><text fill="#D8BC00" font-family="Open Sans,Avenir,Nunito,Arial,Helvetica,SansSerif" font-size="11.4583" lengthAdjust="spacing" textLength="161.4583" x="82.8125" y="616.9088">IndexedNameMap(Maximum)</text><line style="stroke:#5E5E5E;stroke-width:1.0416666666666667;" x1="60.9375" x2="113.0208" y1="573.0886" y2="573.0886"/><text fill="#D8BC00" font-family="Open Sans,Avenir,Nunito,Arial,Helvetica,SansSerif" font-size="11.4583" lengthAdjust="spacing" textLength="81.25" x="116.1458" y="576.8982">(constructors)</text><line style="stroke:#5E5E5E;stroke-width:1.0416666666666667;" x1="200.5208" x2="252.6042" y1="573.0886" y2="573.0886"/><!--MD5=[a53580886c909e1e81426c64d8230dd7]
class ReferenceCountMap--><rect codeLine="33" fill="#282828" height="194.6025" id="ReferenceCountMap" rx="8.3333" ry="8.3333" style="stroke:#5E5E5E;stroke-width:1.0416666666666667;" width="217.7083" x="458.3333" y="56.8278"/><rect fill="#1B1B1A" height="31.3883" rx="8.3333" ry="8.3333" style="stroke:#1B1B1A;stroke-width:1.0416666666666667;" width="217.7083" x="458.3333" y="56.8278"/><rect fill="#1B1B1A" height="8.3333" style="stroke:#1B1B1A;stroke-width:1.0416666666666667;" width="217.7083" x="458.3333" y="79.8828"/><rect codeLine="33" fill="none" height="194.6025" id="ReferenceCountMap" rx="8.3333" ry="8.3333" style="stroke:#5E5E5E;stroke-width:1.0416666666666667;" width="217.7083" x="458.3333" y="56.8278"/><ellipse cx="480.4167" cy="72.522" fill="#0066CF" rx="10.4167" ry="10.4167" style="stroke:#0086EF;stroke-width:1.0416666666666667;"/><path d="M482.3271,76.947 Q481.8998,77.1667 481.4299,77.2766 Q480.9599,77.3865 480.4411,77.3865 Q478.5978,77.3865 477.6274,76.1719 Q476.6569,74.9573 476.6569,72.6624 Q476.6569,70.3613 477.6274,69.1467 Q478.5978,67.9321 480.4411,67.9321 Q480.9599,67.9321 481.436,68.042 Q481.912,68.1519 482.3271,68.3716 L482.3271,70.3735 Q481.8632,69.9463 481.4268,69.7479 Q480.9904,69.5496 480.5265,69.5496 Q479.5378,69.5496 479.0342,70.3339 Q478.5307,71.1182 478.5307,72.6624 Q478.5307,74.2004 479.0342,74.9847 Q479.5378,75.769 480.5265,75.769 Q480.9904,75.769 481.4268,75.5707 Q481.8632,75.3723 482.3271,74.9451 Z " fill="#000000"/><text fill="#D8BC00" font-family="Open Sans,Avenir,Nunito,Arial,Helvetica,SansSerif" font-size="12.5" font-weight="bold" lengthAdjust="spacing" textLength="129.1667" x="498.75" y="77.2461">ReferenceCountMap</text><rect fill="#333333" height="23.055" style="stroke:#A0A0A0;stroke-width:1.0416666666666667;stroke-dasharray:2.0,2.0;" width="32.2917" x="646.875" y="53.7028"/><text fill="#A0A0A0" font-family="Open Sans,Avenir,Nunito,Arial,Helvetica,SansSerif" font-size="12.5" font-weight="bold" lengthAdjust="spacing" textLength="23.9583" x="651.0417" y="69.9544">Key</text><line style="stroke:#5E5E5E;stroke-width:1.5625;" x1="459.375" x2="675" y1="88.2161" y2="88.2161"/><line style="stroke:#5E5E5E;stroke-width:1.0416666666666667;" x1="459.375" x2="675" y1="96.5495" y2="96.5495"/><ellipse cx="469.7917" cy="108.0078" fill="#84BE84" rx="3.125" ry="3.125" style="stroke:#038048;stroke-width:1.0416666666666667;"/><text fill="#D8BC00" font-family="Open Sans,Avenir,Nunito,Arial,Helvetica,SansSerif" font-size="11.4583" lengthAdjust="spacing" textLength="159.375" x="481.25" y="114.919">void dereference(Key object)</text><ellipse cx="469.7917" cy="127.7527" fill="#84BE84" rx="3.125" ry="3.125" style="stroke:#038048;stroke-width:1.0416666666666667;"/><text fill="#D8BC00" font-family="Open Sans,Avenir,Nunito,Arial,Helvetica,SansSerif" font-size="11.4583" lengthAdjust="spacing" textLength="108.3333" x="481.25" y="134.6639">void reference(Key)</text><ellipse cx="469.7917" cy="171.4091" fill="#84BE84" rx="3.125" ry="3.125" style="stroke:#038048;stroke-width:1.0416666666666667;"/><text fill="#D8BC00" font-family="Open Sans,Avenir,Nunito,Arial,Helvetica,SansSerif" font-size="11.4583" lengthAdjust="spacing" textLength="185.4167" x="481.25" y="178.3203">boolean isReferenced(Key object)</text><line style="stroke:#5E5E5E;stroke-width:1.0416666666666667;" x1="459.375" x2="540.625" y1="154.245" y2="154.245"/><text fill="#D8BC00" font-family="Open Sans,Avenir,Nunito,Arial,Helvetica,SansSerif" font-size="11.4583" lengthAdjust="spacing" textLength="46.875" x="543.75" y="158.0546">(checks)</text><line style="stroke:#5E5E5E;stroke-width:1.0416666666666667;" x1="593.75" x2="675" y1="154.245" y2="154.245"/><ellipse cx="469.7917" cy="215.0655" fill="#84BE84" rx="3.125" ry="3.125" style="stroke:#038048;stroke-width:1.0416666666666667;"/><text fill="#D8BC00" font-family="Open Sans,Avenir,Nunito,Arial,Helvetica,SansSerif" font-size="11.4583" lengthAdjust="spacing" textLength="165.625" x="481.25" y="221.9767">void count(Key object, Count)</text><ellipse cx="469.7917" cy="234.8104" fill="#84BE84" rx="3.125" ry="3.125" style="stroke:#038048;stroke-width:1.0416666666666667;"/><text fill="#D8BC00" font-family="Open Sans,Avenir,Nunito,Arial,Helvetica,SansSerif" font-size="11.4583" lengthAdjust="spacing" textLength="135.4167" x="481.25" y="241.7216">Count count(Key object)</text><line style="stroke:#5E5E5E;stroke-width:1.0416666666666667;" x1="459.375" x2="532.8125" y1="197.9014" y2="197.9014"/><text fill="#D8BC00" font-family="Open Sans,Avenir,Nunito,Arial,Helvetica,SansSerif" font-size="11.4583" lengthAdjust="spacing" textLength="62.5" x="535.9375" y="201.711">(collection)</text><line style="stroke:#5E5E5E;stroke-width:1.0416666666666667;" x1="601.5625" x2="675" y1="197.9014" y2="197.9014"/><!--MD5=[ad573560371983ed76994c854666f356]
class TwoWayMap--><rect codeLine="46" fill="#282828" height="146.7794" id="TwoWayMap" rx="8.3333" ry="8.3333" style="stroke:#5E5E5E;stroke-width:1.0416666666666667;" width="194.7917" x="305.2083" y="314.1195"/><rect fill="#1B1B1A" height="31.3883" rx="8.3333" ry="8.3333" style="stroke:#1B1B1A;stroke-width:1.0416666666666667;" width="194.7917" x="305.2083" y="314.1195"/><rect fill="#1B1B1A" height="8.3333" style="stroke:#1B1B1A;stroke-width:1.0416666666666667;" width="194.7917" x="305.2083" y="337.1745"/><rect codeLine="46" fill="none" height="146.7794" id="TwoWayMap" rx="8.3333" ry="8.3333" style="stroke:#5E5E5E;stroke-width:1.0416666666666667;" width="194.7917" x="305.2083" y="314.1195"/><ellipse cx="319.7917" cy="329.8136" fill="#0066CF" rx="10.4167" ry="10.4167" style="stroke:#0086EF;stroke-width:1.0416666666666667;"/><path d="M321.7021,334.2387 Q321.2748,334.4584 320.8049,334.5683 Q320.3349,334.6781 319.8161,334.6781 Q317.9728,334.6781 317.0024,333.4635 Q316.0319,332.2489 316.0319,329.954 Q316.0319,327.653 317.0024,326.4384 Q317.9728,325.2238 319.8161,325.2238 Q320.3349,325.2238 320.811,325.3337 Q321.287,325.4435 321.7021,325.6632 L321.7021,327.6652 Q321.2382,327.238 320.8018,327.0396 Q320.3654,326.8412 319.9015,326.8412 Q318.9128,326.8412 318.4092,327.6255 Q317.9057,328.4098 317.9057,329.954 Q317.9057,331.4921 318.4092,332.2764 Q318.9128,333.0607 319.9015,333.0607 Q320.3654,333.0607 320.8018,332.8623 Q321.2382,332.664 321.7021,332.2367 Z " fill="#000000"/><text fill="#D8BC00" font-family="Open Sans,Avenir,Nunito,Arial,Helvetica,SansSerif" font-size="12.5" font-weight="bold" lengthAdjust="spacing" textLength="80.2083" x="336.4583" y="334.5378">TwoWayMap</text><rect fill="#333333" height="23.055" style="stroke:#A0A0A0;stroke-width:1.0416666666666667;stroke-dasharray:2.0,2.0;" width="75" x="428.125" y="310.9945"/><text fill="#A0A0A0" font-family="Open Sans,Avenir,Nunito,Arial,Helvetica,SansSerif" font-size="12.5" font-weight="bold" lengthAdjust="spacing" textLength="66.6667" x="432.2917" y="327.2461">Key, Value</text><line style="stroke:#5E5E5E;stroke-width:1.5625;" x1="306.25" x2="498.9583" y1="345.5078" y2="345.5078"/><ellipse cx="316.6667" cy="380.8777" fill="#84BE84" rx="3.125" ry="3.125" style="stroke:#038048;stroke-width:1.0416666666666667;"/><text fill="#D8BC00" font-family="Open Sans,Avenir,Nunito,Arial,Helvetica,SansSerif" font-size="11.4583" lengthAdjust="spacing" textLength="76.0417" x="328.125" y="387.7889">TwoWayMap()</text><ellipse cx="316.6667" cy="400.6226" fill="#84BE84" rx="3.125" ry="3.125" style="stroke:#038048;stroke-width:1.0416666666666667;"/><text fill="#D8BC00" font-family="Open Sans,Avenir,Nunito,Arial,Helvetica,SansSerif" font-size="11.4583" lengthAdjust="spacing" textLength="130.2083" x="328.125" y="407.5338">TwoWayMap(Maximum)</text><line style="stroke:#5E5E5E;stroke-width:1.0416666666666667;" x1="306.25" x2="358.8542" y1="363.7136" y2="363.7136"/><text fill="#D8BC00" font-family="Open Sans,Avenir,Nunito,Arial,Helvetica,SansSerif" font-size="11.4583" lengthAdjust="spacing" textLength="81.25" x="361.9792" y="367.5232">(constructors)</text><line style="stroke:#5E5E5E;stroke-width:1.0416666666666667;" x1="446.3542" x2="498.9583" y1="363.7136" y2="363.7136"/><ellipse cx="316.6667" cy="444.279" fill="#84BE84" rx="3.125" ry="3.125" style="stroke:#038048;stroke-width:1.0416666666666667;"/><text fill="#D8BC00" font-family="Open Sans,Avenir,Nunito,Arial,Helvetica,SansSerif" font-size="11.4583" lengthAdjust="spacing" textLength="80.2083" x="328.125" y="451.1902">Key key(Value)</text><line style="stroke:#5E5E5E;stroke-width:1.0416666666666667;" x1="306.25" x2="368.2292" y1="427.1149" y2="427.1149"/><text fill="#D8BC00" font-family="Open Sans,Avenir,Nunito,Arial,Helvetica,SansSerif" font-size="11.4583" lengthAdjust="spacing" textLength="62.5" x="371.3542" y="430.9245">(collection)</text><line style="stroke:#5E5E5E;stroke-width:1.0416666666666667;" x1="436.9792" x2="498.9583" y1="427.1149" y2="427.1149"/><!--MD5=[25f600bc9ba7b11f2e802ec0dc39e8f5]
reverse link BaseMap to BaseIndexedMap--><path codeLine="13" d="M338.1771,193.8278 C307.5104,226.4007 262.75,273.9424 225.3646,313.6507 " fill="none" id="BaseMap-backto-BaseIndexedMap" style="stroke:#545454;stroke-width:1.5625;"/><polygon fill="none" points="333.2188,188.4528,352.8125,178.2861,343.8333,198.4528,333.2188,188.4528" style="stroke:#545454;stroke-width:1.5625;"/><!--MD5=[080e58fdcf217aaf8a0c9495f36160cb]
reverse link Indexable to BaseIndexedMap--><path codeLine="14" d="M179.5313,199.3382 C175.6146,231.609 170.1979,276.1299 165.6354,313.6507 " fill="none" id="Indexable-backto-BaseIndexedMap" style="stroke:#545454;stroke-width:1.5625;"/><polygon fill="none" points="172.3438,198.0882,182.0938,178.2861,186.8229,199.8486,172.3438,198.0882" style="stroke:#545454;stroke-width:1.5625;"/><!--MD5=[67fd1f281be9921359fa1f91dc66b013]
reverse link Addable to BaseIndexedMap--><path codeLine="15" d="M71.6146,197.4736 C86.2083,229.8799 106.7188,275.4007 123.9479,313.6507 " fill="none" id="Addable-backto-BaseIndexedMap" style="stroke:#545454;stroke-width:1.5625;"/><polygon fill="none" points="64.8854,200.2757,62.9688,178.2861,78.1771,194.2861,64.8854,200.2757" style="stroke:#545454;stroke-width:1.5625;"/><!--MD5=[c84c4ca5a53fe71d27a35c10a56a32d5]
reverse link BaseIndexedMap to IndexedNameMap--><path codeLine="25" d="M156.7708,482.3799 C156.7708,496.5153 156.7708,510.609 156.7708,523.359 " fill="none" id="BaseIndexedMap-backto-IndexedNameMap" style="stroke:#545454;stroke-width:1.5625;"/><polygon fill="none" points="149.4792,481.9111,156.7708,461.0778,164.0625,481.9111,149.4792,481.9111" style="stroke:#545454;stroke-width:1.5625;"/><!--MD5=[8be06f7c21cf3b62bf2d12fa430348ea]
reverse link BaseMap to TwoWayMap--><path codeLine="45" d="M379.8438,199.3382 C383.7604,231.609 389.1771,276.1299 393.7396,313.6507 " fill="none" id="BaseMap-backto-TwoWayMap" style="stroke:#545454;stroke-width:1.5625;"/><polygon fill="none" points="372.5521,199.8486,377.2813,178.2861,387.0313,198.0882,372.5521,199.8486" style="stroke:#545454;stroke-width:1.5625;"/><!--MD5=[751157104fe29c2c1763b0e6cc70b112]
@startuml

    !include lexakai.theme
    
    title "com.telenav.kivakit.collections.map"
    
    abstract BaseMap
    abstract BaseIndexedMap
    
    interface Addable
    interface Indexable
    
    BaseMap <|- - BaseIndexedMap
    Indexable <|- - BaseIndexedMap
    Addable <|- - BaseIndexedMap
    abstract class BaseIndexedMap<Key, Value>
    {
        - -(constructors)- -
        #BaseIndexedMap(Maximum)
        - -(collection)- -
        +int indexOf(Value)
        +void sort(Comparator<Value>)
    }
    
    BaseIndexedMap <|- - IndexedNameMap
    class IndexedNameMap<T>
    {
        - -(constructors)- -
        +IndexedNameMap()
        +IndexedNameMap(Maximum)
    }
    
    class ReferenceCountMap<Key>
    {
        - -
        +void dereference(Key object)
        +void reference(Key)
        - -(checks)- -
        +boolean isReferenced(Key object)
        - -(collection)- -
        +void count(Key object, Count)
        +Count count(Key object)
    }
    
    BaseMap <|- - TwoWayMap
    class TwoWayMap<Key, Value>
    {
        - -(constructors)- -
        +TwoWayMap()
        +TwoWayMap(Maximum)
        - -(collection)- -
        +Key key(Value)
    }
    
@enduml

@startuml









skinparam backgroundColor #333333






skinparam  {
    defaultFontName   "Open Sans,Avenir,Nunito,Arial,Helvetica,SansSerif"
    defaultFontSize   12
    defaultTextAlignment left
    shadowing false
    RoundCorner 10
    TitleFontSize 18
}

skinparam defaultFontName       "Open Sans,Avenir,Nunito,Arial,Helvetica,SansSerif"
skinparam defaultFontSize       12
skinparam dpi                   100
skinparam shadowing             false
skinparam roundcorner           16
skinparam ParticipantPadding    40
skinparam BoxPadding            40
skinparam Padding               3
skinparam ArrowColor            #545454
skinparam stereotype {
    CBackgroundColor #0066cf
    CBorderColor #0086ef
    ABackgroundColor #C8Ac00
    ABorderColor #D8Bc00
    IBackgroundColor #008400
    IBorderColor #239c23
    EBackgroundColor #cf6300
    EBorderColor #ef8300
    NBackgroundColor #3380b9
    NBorderColor #004d86
}
skinparam title {
	FontColor	                 #c0c0c0
 	BorderColor                  #545454
	FontSize	    	         20
	BorderRoundCorner            16
	BorderThickness 	         1
	BackgroundColor              #48494b
}


skinparam legend {
	BackgroundColor #303030
	BorderColor #404040
	FontColor #a0a0a0
}

	skinparam swimlane {
	BorderColor #5e5e5e
	BorderThickness 2
	TitleBackgroundColor  #6d6d6d-#484848
	TitleFontColor #303030
}

skinparam activity {
		FontColor #C8Ac00
	BorderColor #333333
	BackgroundColor #333333-#333333
	BarColor #00FF00
	StartColor #0060a8
	EndColor #0060a8
	DiamondBackgroundColor #6d6d6d-#3a3a3a
  	DiamondBorderColor #3a3a3a
  	DiamondFontColor #fefefe
}


skinparam participant {
		FontColor #C8Ac00
	BorderColor #333333
	BackgroundColor #333333-#333333
	ParticipantBorderThickness 2
}


skinparam actor {
		FontColor #C8Ac00
	BorderColor #333333
	BackgroundColor #333333-#333333
}


skinparam arrow {
	Thickness 1.5
	Color #545454
	FontColor #a0a0a0
    FontStyle bold
    MessageAlignment center
}



skinparam sequence {
	BorderColor #303030
	TitleFontColor #303030
	BackgroundColor #333333
	StartColor #303030
	EndColor #303030
	BoxBackgroundColor #333333
	BoxBorderColor #484848
	BoxFontColor #484848
	LifeLineBorderColor #484848
	LifeLineBorderThickness 2
	LifeLineBackgroundColor #3a3a3a
	GroupBorderColor #484848
	GroupFontColor #484848
	GroupHeaderFontColor #0060a8
	GroupBackgroundColor #484848
	GroupHeaderBackgroundColor #333333
	DividerBackgroundColor #484848
    DividerBorderColor #484848
    DividerBorderThickness 2
    DividerFontColor #D8Bc00
	ReferenceBackgroundColor #333333
	ReferenceBorderColor #484848
	ReferenceFontColor #fefefe
	ReferenceHeaderBackgroundColor #484848
}


skinparam partition {
	BorderColor #303030
	FontColor #333333
	BackgroundColor #333333
}


skinparam collections {
		FontColor #C8Ac00
	BorderColor #333333
	BackgroundColor #333333-#333333
}


skinparam control {
		FontColor #C8Ac00
	BorderColor #333333
	BackgroundColor #333333-#333333
}


skinparam entity {
		FontColor #C8Ac00
	BorderColor #333333
	BackgroundColor #333333-#333333
}


skinparam boundary {
		FontColor #C8Ac00
	BorderColor #333333
	BackgroundColor #333333-#333333
}


skinparam agent {
	BackgroundColor #ff8000
	BorderColor #ff9933
	FontColor #484848
}


skinparam note {
	BorderThickness 1
	BackgroundColor #1b1b1a
	BorderColor #5e5e5e
	FontSize 11
	FontColor #a0a0a0
}


skinparam artifact {
	BorderThickness 10
	BorderColor #5e5e5e
	BackgroundColor #1b1b1a
	FontColor #D8Bc00
}


skinparam component {
		FontColor #C8Ac00
	BorderColor #333333
	BackgroundColor #333333-#333333
}


skinparam interface {
	BackgroundColor  #008400
	BorderColor  #007F00
	FontColor #484848
}


skinparam storage {
	BackgroundColor #ff8000
  	BorderColor #cc6600
	FontColor #222222
}


skinparam node {
	BackgroundColor #333333
	BorderColor #333333
	FontColor #C8Ac00
}


skinparam cloud {
	BackgroundColor #484848-black
	BorderColor #484848
	FontColor #D8Bc00
}


skinparam database {
		FontColor #C8Ac00
	BorderColor #333333
	BackgroundColor #333333-#333333
	BackgroundColor  #333333
}


skinparam class {
		FontColor #C8Ac00
	BorderColor #333333
	BackgroundColor #333333-#333333
	HeaderBackgroundColor #1b1b1a
    BackgroundColor #282828
    BorderColor #5e5e5e
 	StereotypeFontColor #a0a0a0
    StereotypeFontStyle bold
	BorderThickness 1
	AttributeFontColor #D8Bc00
	AttributeFontSize 11
    FontColor #D8Bc00
    FontStyle bold
}


skinparam object {
		FontColor #C8Ac00
	BorderColor #333333
	BackgroundColor #333333-#333333
	StereotypeFontColor #484848
	BorderThickness 1
	AttributeFontColor #fefefe
	AttributeFontSize 11
}


skinparam usecase {
		FontColor #C8Ac00
	BorderColor #333333
	BackgroundColor #333333-#333333
	BorderThickness 2
	StereotypeFontColor #303030
}


skinparam rectangle {
		FontColor #C8Ac00
	BorderColor #333333
	BackgroundColor #333333-#333333
	BackgroundColor #333333
	BorderThickness 2
	StereotypeFontColor #303030
}


skinparam package {
		FontColor #C8Ac00
	BorderColor #333333
	BackgroundColor #333333-#333333
	BackgroundColor #333333
	BorderThickness 2
}


skinparam folder {
	BackgroundColor #6d6d6d
  	BorderColor #ff8000
	FontColor #ff8000
	BorderThickness 2
}


skinparam frame {
	BackgroundColor #6d6d6d
  	BorderColor #0060a8
	FontColor #0060a8
	BorderThickness 2
}


skinparam state {
		FontColor #C8Ac00
	BorderColor #333333
	BackgroundColor #333333-#333333
	StartColor #0060a8
	EndColor #0060a8
	AttributeFontColor #fefefe
	AttributeFontSize 11
}


skinparam queue {
		FontColor #C8Ac00
	BorderColor #333333
	BackgroundColor #333333-#333333
}


skinparam card {
	BackgroundColor #0060a8
	BorderColor #004d86
	FontColor $INFO_TEXT
}


skinparam file {
	BackgroundColor #6d6d6d-#484848
	BorderColor #0060a8
	FontColor #fefefe
}


skinparam stack {
		FontColor #C8Ac00
	BorderColor #333333
	BackgroundColor #333333-#333333
}

    
    title "com.telenav.kivakit.collections.map"
    
    abstract BaseMap
    abstract BaseIndexedMap
    
    interface Addable
    interface Indexable
    
    BaseMap <|- - BaseIndexedMap
    Indexable <|- - BaseIndexedMap
    Addable <|- - BaseIndexedMap
    abstract class BaseIndexedMap<Key, Value>
    {
        - -(constructors)- -
        #BaseIndexedMap(Maximum)
        - -(collection)- -
        +int indexOf(Value)
        +void sort(Comparator<Value>)
    }
    
    BaseIndexedMap <|- - IndexedNameMap
    class IndexedNameMap<T>
    {
        - -(constructors)- -
        +IndexedNameMap()
        +IndexedNameMap(Maximum)
    }
    
    class ReferenceCountMap<Key>
    {
        - -
        +void dereference(Key object)
        +void reference(Key)
        - -(checks)- -
        +boolean isReferenced(Key object)
        - -(collection)- -
        +void count(Key object, Count)
        +Count count(Key object)
    }
    
    BaseMap <|- - TwoWayMap
    class TwoWayMap<Key, Value>
    {
        - -(constructors)- -
        +TwoWayMap()
        +TwoWayMap(Maximum)
        - -(collection)- -
        +Key key(Value)
    }
    
@enduml

PlantUML version 1.2021.01(Tue Feb 02 00:55:08 MST 2021)
(GPL source distribution)
Java Runtime: OpenJDK Runtime Environment
JVM: OpenJDK 64-Bit Server VM
Default Encoding: UTF-8
Language: en
Country: US
--></g></svg>