<?xml version="1.0" encoding="UTF-8" standalone="no"?><svg xmlns="http://www.w3.org/2000/svg" xmlns:xlink="http://www.w3.org/1999/xlink" contentScriptType="application/ecmascript" contentStyleType="text/css" height="396.875px" preserveAspectRatio="none" style="width:717px;height:396px;background:#333333;" version="1.1" viewBox="0 0 717 396" width="717.7083px" zoomAndPan="magnify"><defs/><g><rect fill="#48494B" height="41.2028" rx="8.3333" ry="8.3333" style="stroke:#545454;stroke-width:1.0416666666666667;" width="672.9167" x="15.1042" y="2.0833"/><text fill="#C0C0C0" font-family="Open Sans,Avenir,Nunito,Arial,Helvetica,SansSerif" font-size="20.8333" lengthAdjust="spacing" textLength="650" x="26.5625" y="30.5583">com.telenav.kivakit.core.collections.primitive.map.multi.dynamic</text><!--MD5=[4b74817909f2df5a21a89f40177dcefd]
class PrimitiveScalarMultiMap--><rect codeLine="6" fill="#282828" height="48.055" id="PrimitiveScalarMultiMap" rx="8.3333" ry="8.3333" style="stroke:#5E5E5E;stroke-width:1.0416666666666667;" width="192.7083" x="159.375" y="53.7028"/><rect fill="#1B1B1A" height="31.3883" rx="8.3333" ry="8.3333" style="stroke:#1B1B1A;stroke-width:1.0416666666666667;" width="192.7083" x="159.375" y="53.7028"/><rect fill="#1B1B1A" height="8.3333" style="stroke:#1B1B1A;stroke-width:1.0416666666666667;" width="192.7083" x="159.375" y="76.7578"/><rect codeLine="6" fill="none" height="48.055" id="PrimitiveScalarMultiMap" rx="8.3333" ry="8.3333" style="stroke:#5E5E5E;stroke-width:1.0416666666666667;" width="192.7083" x="159.375" y="53.7028"/><ellipse cx="173.9583" cy="69.397" fill="#008400" rx="10.4167" ry="10.4167" style="stroke:#239C23;stroke-width:1.0416666666666667;"/><path d="M170.8415,66.5588 L170.8415,64.9719 L176.2675,64.9719 L176.2675,66.5588 L174.4548,66.5588 L174.4548,72.4976 L176.2675,72.4976 L176.2675,74.0845 L170.8415,74.0845 L170.8415,72.4976 L172.6542,72.4976 L172.6542,66.5588 Z " fill="#000000"/><text fill="#D8BC00" font-family="Open Sans,Avenir,Nunito,Arial,Helvetica,SansSerif" font-size="12.5" font-style="italic" font-weight="bold" lengthAdjust="spacing" textLength="155.2083" x="190.625" y="74.1211">PrimitiveScalarMultiMap</text><line style="stroke:#5E5E5E;stroke-width:1.0416666666666667;" x1="160.4167" x2="351.0417" y1="85.0911" y2="85.0911"/><line style="stroke:#5E5E5E;stroke-width:1.0416666666666667;" x1="160.4167" x2="351.0417" y1="93.4245" y2="93.4245"/><!--MD5=[4a7d52b0cad6b45b436e1f956697a54c]
class IntMultiMap--><rect codeLine="7" fill="#282828" height="48.055" id="IntMultiMap" rx="8.3333" ry="8.3333" style="stroke:#5E5E5E;stroke-width:1.0416666666666667;" width="115.625" x="7.2917" y="53.7028"/><rect fill="#1B1B1A" height="31.3883" rx="8.3333" ry="8.3333" style="stroke:#1B1B1A;stroke-width:1.0416666666666667;" width="115.625" x="7.2917" y="53.7028"/><rect fill="#1B1B1A" height="8.3333" style="stroke:#1B1B1A;stroke-width:1.0416666666666667;" width="115.625" x="7.2917" y="76.7578"/><rect codeLine="7" fill="none" height="48.055" id="IntMultiMap" rx="8.3333" ry="8.3333" style="stroke:#5E5E5E;stroke-width:1.0416666666666667;" width="115.625" x="7.2917" y="53.7028"/><ellipse cx="21.875" cy="69.397" fill="#008400" rx="10.4167" ry="10.4167" style="stroke:#239C23;stroke-width:1.0416666666666667;"/><path d="M18.7581,66.5588 L18.7581,64.9719 L24.1842,64.9719 L24.1842,66.5588 L22.3714,66.5588 L22.3714,72.4976 L24.1842,72.4976 L24.1842,74.0845 L18.7581,74.0845 L18.7581,72.4976 L20.5709,72.4976 L20.5709,66.5588 Z " fill="#000000"/><text fill="#D8BC00" font-family="Open Sans,Avenir,Nunito,Arial,Helvetica,SansSerif" font-size="12.5" font-style="italic" font-weight="bold" lengthAdjust="spacing" textLength="78.125" x="38.5417" y="74.1211">IntMultiMap</text><line style="stroke:#5E5E5E;stroke-width:1.0416666666666667;" x1="8.3333" x2="121.875" y1="85.0911" y2="85.0911"/><line style="stroke:#5E5E5E;stroke-width:1.0416666666666667;" x1="8.3333" x2="121.875" y1="93.4245" y2="93.4245"/><!--MD5=[48dd5ec133c92f0a147a857e74e30812]
class LongMultiMap--><rect codeLine="8" fill="#282828" height="48.055" id="LongMultiMap" rx="8.3333" ry="8.3333" style="stroke:#5E5E5E;stroke-width:1.0416666666666667;" width="130.2083" x="580.2083" y="53.7028"/><rect fill="#1B1B1A" height="31.3883" rx="8.3333" ry="8.3333" style="stroke:#1B1B1A;stroke-width:1.0416666666666667;" width="130.2083" x="580.2083" y="53.7028"/><rect fill="#1B1B1A" height="8.3333" style="stroke:#1B1B1A;stroke-width:1.0416666666666667;" width="130.2083" x="580.2083" y="76.7578"/><rect codeLine="8" fill="none" height="48.055" id="LongMultiMap" rx="8.3333" ry="8.3333" style="stroke:#5E5E5E;stroke-width:1.0416666666666667;" width="130.2083" x="580.2083" y="53.7028"/><ellipse cx="594.7917" cy="69.397" fill="#008400" rx="10.4167" ry="10.4167" style="stroke:#239C23;stroke-width:1.0416666666666667;"/><path d="M591.6748,66.5588 L591.6748,64.9719 L597.1008,64.9719 L597.1008,66.5588 L595.2881,66.5588 L595.2881,72.4976 L597.1008,72.4976 L597.1008,74.0845 L591.6748,74.0845 L591.6748,72.4976 L593.4875,72.4976 L593.4875,66.5588 Z " fill="#000000"/><text fill="#D8BC00" font-family="Open Sans,Avenir,Nunito,Arial,Helvetica,SansSerif" font-size="12.5" font-style="italic" font-weight="bold" lengthAdjust="spacing" textLength="92.7083" x="611.4583" y="74.1211">LongMultiMap</text><line style="stroke:#5E5E5E;stroke-width:1.0416666666666667;" x1="581.25" x2="709.375" y1="85.0911" y2="85.0911"/><line style="stroke:#5E5E5E;stroke-width:1.0416666666666667;" x1="581.25" x2="709.375" y1="93.4245" y2="93.4245"/><!--MD5=[a5cc76553a2d1b24632df0d2f7f0bb23]
class PrimitiveMultiMap--><rect fill="#282828" height="48.055" id="PrimitiveMultiMap" rx="8.3333" ry="8.3333" style="stroke:#5E5E5E;stroke-width:1.0416666666666667;" width="155.2083" x="388.5417" y="53.7028"/><rect fill="#1B1B1A" height="31.3883" rx="8.3333" ry="8.3333" style="stroke:#1B1B1A;stroke-width:1.0416666666666667;" width="155.2083" x="388.5417" y="53.7028"/><rect fill="#1B1B1A" height="8.3333" style="stroke:#1B1B1A;stroke-width:1.0416666666666667;" width="155.2083" x="388.5417" y="76.7578"/><rect fill="none" height="48.055" id="PrimitiveMultiMap" rx="8.3333" ry="8.3333" style="stroke:#5E5E5E;stroke-width:1.0416666666666667;" width="155.2083" x="388.5417" y="53.7028"/><ellipse cx="403.125" cy="69.397" fill="#0066CF" rx="10.4167" ry="10.4167" style="stroke:#0086EF;stroke-width:1.0416666666666667;"/><path d="M405.0354,73.822 Q404.6082,74.0417 404.1382,74.1516 Q403.6682,74.2615 403.1494,74.2615 Q401.3062,74.2615 400.3357,73.0469 Q399.3652,71.8323 399.3652,69.5374 Q399.3652,67.2363 400.3357,66.0217 Q401.3062,64.8071 403.1494,64.8071 Q403.6682,64.8071 404.1443,64.917 Q404.6204,65.0269 405.0354,65.2466 L405.0354,67.2485 Q404.5715,66.8213 404.1351,66.6229 Q403.6987,66.4246 403.2349,66.4246 Q402.2461,66.4246 401.7426,67.2089 Q401.239,67.9932 401.239,69.5374 Q401.239,71.0754 401.7426,71.8597 Q402.2461,72.644 403.2349,72.644 Q403.6987,72.644 404.1351,72.4457 Q404.5715,72.2473 405.0354,71.8201 Z " fill="#000000"/><text fill="#D8BC00" font-family="Open Sans,Avenir,Nunito,Arial,Helvetica,SansSerif" font-size="12.5" font-weight="bold" lengthAdjust="spacing" textLength="117.7083" x="419.7917" y="74.1211">PrimitiveMultiMap</text><line style="stroke:#5E5E5E;stroke-width:1.0416666666666667;" x1="389.5833" x2="542.7083" y1="85.0911" y2="85.0911"/><line style="stroke:#5E5E5E;stroke-width:1.0416666666666667;" x1="389.5833" x2="542.7083" y1="93.4245" y2="93.4245"/><!--MD5=[f812a7756caac12083cc8aed90c40b12]
class LongToIntMultiMap--><rect codeLine="13" fill="#282828" height="225.7589" id="LongToIntMultiMap" rx="8.3333" ry="8.3333" style="stroke:#5E5E5E;stroke-width:1.0416666666666667;" width="215.625" x="123.9583" y="164.1195"/><rect fill="#1B1B1A" height="31.3883" rx="8.3333" ry="8.3333" style="stroke:#1B1B1A;stroke-width:1.0416666666666667;" width="215.625" x="123.9583" y="164.1195"/><rect fill="#1B1B1A" height="8.3333" style="stroke:#1B1B1A;stroke-width:1.0416666666666667;" width="215.625" x="123.9583" y="187.1745"/><rect codeLine="13" fill="none" height="225.7589" id="LongToIntMultiMap" rx="8.3333" ry="8.3333" style="stroke:#5E5E5E;stroke-width:1.0416666666666667;" width="215.625" x="123.9583" y="164.1195"/><ellipse cx="161.5104" cy="179.8136" fill="#0066CF" rx="10.4167" ry="10.4167" style="stroke:#0086EF;stroke-width:1.0416666666666667;"/><path d="M163.4208,184.2387 Q162.9936,184.4584 162.5236,184.5683 Q162.0536,184.6781 161.5348,184.6781 Q159.6916,184.6781 158.7211,183.4635 Q157.7507,182.2489 157.7507,179.954 Q157.7507,177.653 158.7211,176.4384 Q159.6916,175.2238 161.5348,175.2238 Q162.0536,175.2238 162.5297,175.3337 Q163.0058,175.4435 163.4208,175.6632 L163.4208,177.6652 Q162.9569,177.238 162.5205,177.0396 Q162.0841,176.8412 161.6203,176.8412 Q160.6315,176.8412 160.128,177.6255 Q159.6244,178.4098 159.6244,179.954 Q159.6244,181.4921 160.128,182.2764 Q160.6315,183.0607 161.6203,183.0607 Q162.0841,183.0607 162.5205,182.8623 Q162.9569,182.664 163.4208,182.2367 Z " fill="#000000"/><text fill="#D8BC00" font-family="Open Sans,Avenir,Nunito,Arial,Helvetica,SansSerif" font-size="12.5" font-weight="bold" lengthAdjust="spacing" textLength="127.0833" x="183.2813" y="184.5378">LongToIntMultiMap</text><line style="stroke:#5E5E5E;stroke-width:1.5625;" x1="125" x2="338.5417" y1="195.5078" y2="195.5078"/><polygon fill="#FFFF44" points="135.4167,225.6694,139.5833,229.836,135.4167,234.0027,131.25,229.836" style="stroke:#B38D22;stroke-width:1.0416666666666667;"/><text fill="#D8BC00" font-family="Open Sans,Avenir,Nunito,Arial,Helvetica,SansSerif" font-size="11.4583" lengthAdjust="spacing" textLength="115.625" x="146.875" y="237.7889">LongToIntMultiMap()</text><ellipse cx="135.4167" cy="250.6226" fill="#84BE84" rx="3.125" ry="3.125" style="stroke:#038048;stroke-width:1.0416666666666667;"/><text fill="#D8BC00" font-family="Open Sans,Avenir,Nunito,Arial,Helvetica,SansSerif" font-size="11.4583" lengthAdjust="spacing" textLength="148.9583" x="146.875" y="257.5338">LongToIntMultiMap(String)</text><line style="stroke:#5E5E5E;stroke-width:1.0416666666666667;" x1="125" x2="188.0208" y1="213.7136" y2="213.7136"/><text fill="#D8BC00" font-family="Open Sans,Avenir,Nunito,Arial,Helvetica,SansSerif" font-size="11.4583" lengthAdjust="spacing" textLength="81.25" x="191.1458" y="217.5232">(constructors)</text><line style="stroke:#5E5E5E;stroke-width:1.0416666666666667;" x1="275.5208" x2="338.5417" y1="213.7136" y2="213.7136"/><ellipse cx="135.4167" cy="294.279" fill="#84BE84" rx="3.125" ry="3.125" style="stroke:#038048;stroke-width:1.0416666666666667;"/><text fill="#D8BC00" font-family="Open Sans,Avenir,Nunito,Arial,Helvetica,SansSerif" font-size="11.4583" lengthAdjust="spacing" textLength="156.25" x="146.875" y="301.1902">void add(long key, int value)</text><ellipse cx="135.4167" cy="314.0238" fill="#84BE84" rx="3.125" ry="3.125" style="stroke:#038048;stroke-width:1.0416666666666667;"/><text fill="#D8BC00" font-family="Open Sans,Avenir,Nunito,Arial,Helvetica,SansSerif" font-size="11.4583" lengthAdjust="spacing" textLength="170.8333" x="146.875" y="320.9351">boolean containsKey(long key)</text><ellipse cx="135.4167" cy="333.7687" fill="#84BE84" rx="3.125" ry="3.125" style="stroke:#038048;stroke-width:1.0416666666666667;"/><text fill="#D8BC00" font-family="Open Sans,Avenir,Nunito,Arial,Helvetica,SansSerif" font-size="11.4583" lengthAdjust="spacing" textLength="156.25" x="146.875" y="340.6799">IntIterator iterator(long key)</text><ellipse cx="135.4167" cy="353.5136" fill="#84BE84" rx="3.125" ry="3.125" style="stroke:#038048;stroke-width:1.0416666666666667;"/><text fill="#D8BC00" font-family="Open Sans,Avenir,Nunito,Arial,Helvetica,SansSerif" font-size="11.4583" lengthAdjust="spacing" textLength="106.25" x="146.875" y="360.4248">LongIterator keys()</text><ellipse cx="135.4167" cy="373.2585" fill="#84BE84" rx="3.125" ry="3.125" style="stroke:#038048;stroke-width:1.0416666666666667;"/><text fill="#D8BC00" font-family="Open Sans,Avenir,Nunito,Arial,Helvetica,SansSerif" font-size="11.4583" lengthAdjust="spacing" textLength="183.3333" x="146.875" y="380.1697">void putAll(long key, int[] values)</text><line style="stroke:#5E5E5E;stroke-width:1.0416666666666667;" x1="125" x2="197.3958" y1="277.1149" y2="277.1149"/><text fill="#D8BC00" font-family="Open Sans,Avenir,Nunito,Arial,Helvetica,SansSerif" font-size="11.4583" lengthAdjust="spacing" textLength="62.5" x="200.5208" y="280.9245">(collection)</text><line style="stroke:#5E5E5E;stroke-width:1.0416666666666667;" x1="266.1458" x2="338.5417" y1="277.1149" y2="277.1149"/><!--MD5=[54cb38786c5431f48ed21fde5339d796]
class LongToLongMultiMap--><rect codeLine="29" fill="#282828" height="225.7589" id="LongToLongMultiMap" rx="8.3333" ry="8.3333" style="stroke:#5E5E5E;stroke-width:1.0416666666666667;" width="226.0417" x="376.0417" y="164.1195"/><rect fill="#1B1B1A" height="31.3883" rx="8.3333" ry="8.3333" style="stroke:#1B1B1A;stroke-width:1.0416666666666667;" width="226.0417" x="376.0417" y="164.1195"/><rect fill="#1B1B1A" height="8.3333" style="stroke:#1B1B1A;stroke-width:1.0416666666666667;" width="226.0417" x="376.0417" y="187.1745"/><rect codeLine="29" fill="none" height="225.7589" id="LongToLongMultiMap" rx="8.3333" ry="8.3333" style="stroke:#5E5E5E;stroke-width:1.0416666666666667;" width="226.0417" x="376.0417" y="164.1195"/><ellipse cx="411.7188" cy="179.8136" fill="#0066CF" rx="10.4167" ry="10.4167" style="stroke:#0086EF;stroke-width:1.0416666666666667;"/><path d="M413.6292,184.2387 Q413.2019,184.4584 412.7319,184.5683 Q412.262,184.6781 411.7432,184.6781 Q409.8999,184.6781 408.9294,183.4635 Q407.959,182.2489 407.959,179.954 Q407.959,177.653 408.9294,176.4384 Q409.8999,175.2238 411.7432,175.2238 Q412.262,175.2238 412.738,175.3337 Q413.2141,175.4435 413.6292,175.6632 L413.6292,177.6652 Q413.1653,177.238 412.7289,177.0396 Q412.2925,176.8412 411.8286,176.8412 Q410.8398,176.8412 410.3363,177.6255 Q409.8328,178.4098 409.8328,179.954 Q409.8328,181.4921 410.3363,182.2764 Q410.8398,183.0607 411.8286,183.0607 Q412.2925,183.0607 412.7289,182.8623 Q413.1653,182.664 413.6292,182.2367 Z " fill="#000000"/><text fill="#D8BC00" font-family="Open Sans,Avenir,Nunito,Arial,Helvetica,SansSerif" font-size="12.5" font-weight="bold" lengthAdjust="spacing" textLength="141.6667" x="433.0729" y="184.5378">LongToLongMultiMap</text><line style="stroke:#5E5E5E;stroke-width:1.5625;" x1="377.0833" x2="601.0417" y1="195.5078" y2="195.5078"/><polygon fill="#FFFF44" points="387.5,225.6694,391.6667,229.836,387.5,234.0027,383.3333,229.836" style="stroke:#B38D22;stroke-width:1.0416666666666667;"/><text fill="#D8BC00" font-family="Open Sans,Avenir,Nunito,Arial,Helvetica,SansSerif" font-size="11.4583" lengthAdjust="spacing" textLength="129.1667" x="398.9583" y="237.7889">LongToLongMultiMap()</text><ellipse cx="387.5" cy="250.6226" fill="#84BE84" rx="3.125" ry="3.125" style="stroke:#038048;stroke-width:1.0416666666666667;"/><text fill="#D8BC00" font-family="Open Sans,Avenir,Nunito,Arial,Helvetica,SansSerif" font-size="11.4583" lengthAdjust="spacing" textLength="162.5" x="398.9583" y="257.5338">LongToLongMultiMap(String)</text><line style="stroke:#5E5E5E;stroke-width:1.0416666666666667;" x1="377.0833" x2="445.3125" y1="213.7136" y2="213.7136"/><text fill="#D8BC00" font-family="Open Sans,Avenir,Nunito,Arial,Helvetica,SansSerif" font-size="11.4583" lengthAdjust="spacing" textLength="81.25" x="448.4375" y="217.5232">(constructors)</text><line style="stroke:#5E5E5E;stroke-width:1.0416666666666667;" x1="532.8125" x2="601.0417" y1="213.7136" y2="213.7136"/><ellipse cx="387.5" cy="294.279" fill="#84BE84" rx="3.125" ry="3.125" style="stroke:#038048;stroke-width:1.0416666666666667;"/><text fill="#D8BC00" font-family="Open Sans,Avenir,Nunito,Arial,Helvetica,SansSerif" font-size="11.4583" lengthAdjust="spacing" textLength="166.6667" x="398.9583" y="301.1902">void add(long key, long value)</text><ellipse cx="387.5" cy="314.0238" fill="#84BE84" rx="3.125" ry="3.125" style="stroke:#038048;stroke-width:1.0416666666666667;"/><text fill="#D8BC00" font-family="Open Sans,Avenir,Nunito,Arial,Helvetica,SansSerif" font-size="11.4583" lengthAdjust="spacing" textLength="170.8333" x="398.9583" y="320.9351">boolean containsKey(long key)</text><ellipse cx="387.5" cy="333.7687" fill="#84BE84" rx="3.125" ry="3.125" style="stroke:#038048;stroke-width:1.0416666666666667;"/><text fill="#D8BC00" font-family="Open Sans,Avenir,Nunito,Arial,Helvetica,SansSerif" font-size="11.4583" lengthAdjust="spacing" textLength="169.7917" x="398.9583" y="340.6799">LongIterator iterator(long key)</text><ellipse cx="387.5" cy="353.5136" fill="#84BE84" rx="3.125" ry="3.125" style="stroke:#038048;stroke-width:1.0416666666666667;"/><text fill="#D8BC00" font-family="Open Sans,Avenir,Nunito,Arial,Helvetica,SansSerif" font-size="11.4583" lengthAdjust="spacing" textLength="106.25" x="398.9583" y="360.4248">LongIterator keys()</text><ellipse cx="387.5" cy="373.2585" fill="#84BE84" rx="3.125" ry="3.125" style="stroke:#038048;stroke-width:1.0416666666666667;"/><text fill="#D8BC00" font-family="Open Sans,Avenir,Nunito,Arial,Helvetica,SansSerif" font-size="11.4583" lengthAdjust="spacing" textLength="193.75" x="398.9583" y="380.1697">void putAll(long key, long[] values)</text><line style="stroke:#5E5E5E;stroke-width:1.0416666666666667;" x1="377.0833" x2="454.6875" y1="277.1149" y2="277.1149"/><text fill="#D8BC00" font-family="Open Sans,Avenir,Nunito,Arial,Helvetica,SansSerif" font-size="11.4583" lengthAdjust="spacing" textLength="62.5" x="457.8125" y="280.9245">(collection)</text><line style="stroke:#5E5E5E;stroke-width:1.0416666666666667;" x1="523.4375" x2="601.0417" y1="277.1149" y2="277.1149"/><!--MD5=[abe75afdbc3ea6e7aff1c1c1d12d537a]
reverse link PrimitiveMultiMap to LongToIntMultiMap--><path codeLine="10" d="M419.25,114.7132 C400.0104,129.734 377.6354,147.5257 357.8125,164.1195 C351.8646,169.0986 345.8021,174.2445 339.6979,179.4736 " fill="none" id="PrimitiveMultiMap-backto-LongToIntMultiMap" style="stroke:#545454;stroke-width:1.5625;"/><polygon fill="none" points="414.9479,108.8174,435.875,101.807,423.8958,120.3382,414.9479,108.8174" style="stroke:#545454;stroke-width:1.5625;"/><!--MD5=[5b3d3871f42ea3109effd0d1ad5b1512]
reverse link IntMultiMap to LongToIntMultiMap--><path codeLine="11" d="M98.2917,118.0049 C109.7292,131.5465 123.1667,147.4632 137.0313,163.8903 " fill="none" id="IntMultiMap-backto-LongToIntMultiMap" style="stroke:#545454;stroke-width:1.5625;"/><polygon fill="none" points="92.4167,122.359,84.5521,101.734,103.5625,112.9424,92.4167,122.359" style="stroke:#545454;stroke-width:1.5625;"/><!--MD5=[deb2b9b86d6f9fe1788c14fdf0d7f203]
reverse link PrimitiveScalarMultiMap to LongToIntMultiMap--><path codeLine="12" d="M250.3958,122.6611 C248.875,135.1299 247.1563,149.3174 245.3854,163.8903 " fill="none" id="PrimitiveScalarMultiMap-backto-LongToIntMultiMap" style="stroke:#545454;stroke-width:1.5625;"/><polygon fill="none" points="243.1875,121.5361,252.9375,101.734,257.6667,123.2965,243.1875,121.5361" style="stroke:#545454;stroke-width:1.5625;"/><!--MD5=[9958715f31b6e54ca599fd7b793c6070]
reverse link PrimitiveMultiMap to LongToLongMultiMap--><path codeLine="26" d="M471.25,122.6611 C472.6979,135.1299 474.3438,149.3174 476.0313,163.8903 " fill="none" id="PrimitiveMultiMap-backto-LongToLongMultiMap" style="stroke:#545454;stroke-width:1.5625;"/><polygon fill="none" points="463.9792,123.2653,468.8229,101.734,478.4688,121.5882,463.9792,123.2653" style="stroke:#545454;stroke-width:1.5625;"/><!--MD5=[4d9a3dece8a4a24f432bf94c4d13e872]
reverse link LongMultiMap to LongToLongMultiMap--><path codeLine="27" d="M613.8333,118.4632 C603.1979,131.9111 590.7396,147.6507 577.875,163.8903 " fill="none" id="LongMultiMap-backto-LongToLongMultiMap" style="stroke:#545454;stroke-width:1.5625;"/><polygon fill="none" points="608.4375,113.5465,627.0833,101.734,619.875,122.5986,608.4375,113.5465" style="stroke:#545454;stroke-width:1.5625;"/><!--MD5=[677cf828ea3df87ae06e94fd094142e9]
reverse link PrimitiveScalarMultiMap to LongToLongMultiMap--><path codeLine="28" d="M299.7188,115.3486 C317.75,130.4215 338.8229,148.0674 357.8125,164.1195 C363.7604,169.1507 369.8542,174.307 376,179.5257 " fill="none" id="PrimitiveScalarMultiMap-backto-LongToLongMultiMap" style="stroke:#545454;stroke-width:1.5625;"/><polygon fill="none" points="294.8438,120.7757,283.5208,101.8382,304.1875,109.5882,294.8438,120.7757" style="stroke:#545454;stroke-width:1.5625;"/><!--MD5=[0d847d6114ebb80611befe52068689e7]
@startuml

    !include ../lexakai/lexakai.theme
    
    title "com.telenav.kivakit.core.collections.primitive.map.multi.dynamic"
    
    interface PrimitiveScalarMultiMap
    interface IntMultiMap
    interface LongMultiMap
    
    PrimitiveMultiMap <|- - LongToIntMultiMap
    IntMultiMap <|- - LongToIntMultiMap
    PrimitiveScalarMultiMap <|- - LongToIntMultiMap
    class LongToIntMultiMap
    {
        - -(constructors)- -
        #LongToIntMultiMap()
        +LongToIntMultiMap(String)
        - -(collection)- -
        +void add(long key, int value)
        +boolean containsKey(long key)
        +IntIterator iterator(long key)
        +LongIterator keys()
        +void putAll(long key, int[] values)
    }
    
    PrimitiveMultiMap <|- - LongToLongMultiMap
    LongMultiMap <|- - LongToLongMultiMap
    PrimitiveScalarMultiMap <|- - LongToLongMultiMap
    class LongToLongMultiMap
    {
        - -(constructors)- -
        #LongToLongMultiMap()
        +LongToLongMultiMap(String)
        - -(collection)- -
        +void add(long key, long value)
        +boolean containsKey(long key)
        +LongIterator iterator(long key)
        +LongIterator keys()
        +void putAll(long key, long[] values)
    }
    
@enduml

@startuml









skinparam backgroundColor #333333






skinparam  {
    defaultFontName   "Open Sans,Avenir,Nunito,Arial,Helvetica,SansSerif"
    defaultFontSize   12
    defaultTextAlignment left
    shadowing false
    RoundCorner 10
    TitleFontSize 18
}

skinparam defaultFontName       "Open Sans,Avenir,Nunito,Arial,Helvetica,SansSerif"
skinparam defaultFontSize       12
skinparam dpi                   100
skinparam shadowing             false
skinparam roundcorner           16
skinparam ParticipantPadding    40
skinparam BoxPadding            40
skinparam Padding               3
skinparam ArrowColor            #545454
skinparam stereotype {
    CBackgroundColor #0066cf
    CBorderColor #0086ef
    ABackgroundColor #C8Ac00
    ABorderColor #D8Bc00
    IBackgroundColor #008400
    IBorderColor #239c23
    EBackgroundColor #cf6300
    EBorderColor #ef8300
    NBackgroundColor #3380b9
    NBorderColor #004d86
}
skinparam title {
	FontColor	                 #c0c0c0
 	BorderColor                  #545454
	FontSize	    	         20
	BorderRoundCorner            16
	BorderThickness 	         1
	BackgroundColor              #48494b
}


skinparam legend {
	BackgroundColor #303030
	BorderColor #404040
	FontColor #a0a0a0
}

	skinparam swimlane {
	BorderColor #5e5e5e
	BorderThickness 2
	TitleBackgroundColor  #6d6d6d-#484848
	TitleFontColor #303030
}

skinparam activity {
		FontColor #C8Ac00
	BorderColor #333333
	BackgroundColor #333333-#333333
	BarColor #00FF00
	StartColor #0060a8
	EndColor #0060a8
	DiamondBackgroundColor #6d6d6d-#3a3a3a
  	DiamondBorderColor #3a3a3a
  	DiamondFontColor #fefefe
}


skinparam participant {
		FontColor #C8Ac00
	BorderColor #333333
	BackgroundColor #333333-#333333
	ParticipantBorderThickness 2
}


skinparam actor {
		FontColor #C8Ac00
	BorderColor #333333
	BackgroundColor #333333-#333333
}


skinparam arrow {
	Thickness 1.5
	Color #545454
	FontColor #a0a0a0
    FontStyle bold
    MessageAlignment center
}



skinparam sequence {
	BorderColor #303030
	TitleFontColor #303030
	BackgroundColor #333333
	StartColor #303030
	EndColor #303030
	BoxBackgroundColor #333333
	BoxBorderColor #484848
	BoxFontColor #484848
	LifeLineBorderColor #484848
	LifeLineBorderThickness 2
	LifeLineBackgroundColor #3a3a3a
	GroupBorderColor #484848
	GroupFontColor #484848
	GroupHeaderFontColor #0060a8
	GroupBackgroundColor #484848
	GroupHeaderBackgroundColor #333333
	DividerBackgroundColor #484848
    DividerBorderColor #484848
    DividerBorderThickness 2
    DividerFontColor #D8Bc00
	ReferenceBackgroundColor #333333
	ReferenceBorderColor #484848
	ReferenceFontColor #fefefe
	ReferenceHeaderBackgroundColor #484848
}


skinparam partition {
	BorderColor #303030
	FontColor #333333
	BackgroundColor #333333
}


skinparam collections {
		FontColor #C8Ac00
	BorderColor #333333
	BackgroundColor #333333-#333333
}


skinparam control {
		FontColor #C8Ac00
	BorderColor #333333
	BackgroundColor #333333-#333333
}


skinparam entity {
		FontColor #C8Ac00
	BorderColor #333333
	BackgroundColor #333333-#333333
}


skinparam boundary {
		FontColor #C8Ac00
	BorderColor #333333
	BackgroundColor #333333-#333333
}


skinparam agent {
	BackgroundColor #ff8000
	BorderColor #ff9933
	FontColor #484848
}


skinparam note {
	BorderThickness 1
	BackgroundColor #1b1b1a
	BorderColor #5e5e5e
	FontSize 11
	FontColor #a0a0a0
}


skinparam artifact {
	BorderThickness 10
	BorderColor #5e5e5e
	BackgroundColor #1b1b1a
	FontColor #D8Bc00
}


skinparam component {
		FontColor #C8Ac00
	BorderColor #333333
	BackgroundColor #333333-#333333
}


skinparam interface {
	BackgroundColor  #008400
	BorderColor  #007F00
	FontColor #484848
}


skinparam storage {
	BackgroundColor #ff8000
  	BorderColor #cc6600
	FontColor #222222
}


skinparam node {
	BackgroundColor #333333
	BorderColor #333333
	FontColor #C8Ac00
}


skinparam cloud {
	BackgroundColor #484848-black
	BorderColor #484848
	FontColor #D8Bc00
}


skinparam database {
		FontColor #C8Ac00
	BorderColor #333333
	BackgroundColor #333333-#333333
	BackgroundColor  #333333
}


skinparam class {
		FontColor #C8Ac00
	BorderColor #333333
	BackgroundColor #333333-#333333
	HeaderBackgroundColor #1b1b1a
    BackgroundColor #282828
    BorderColor #5e5e5e
 	StereotypeFontColor #a0a0a0
    StereotypeFontStyle bold
	BorderThickness 1
	AttributeFontColor #D8Bc00
	AttributeFontSize 11
    FontColor #D8Bc00
    FontStyle bold
}


skinparam object {
		FontColor #C8Ac00
	BorderColor #333333
	BackgroundColor #333333-#333333
	StereotypeFontColor #484848
	BorderThickness 1
	AttributeFontColor #fefefe
	AttributeFontSize 11
}


skinparam usecase {
		FontColor #C8Ac00
	BorderColor #333333
	BackgroundColor #333333-#333333
	BorderThickness 2
	StereotypeFontColor #303030
}


skinparam rectangle {
		FontColor #C8Ac00
	BorderColor #333333
	BackgroundColor #333333-#333333
	BackgroundColor #333333
	BorderThickness 2
	StereotypeFontColor #303030
}


skinparam package {
		FontColor #C8Ac00
	BorderColor #333333
	BackgroundColor #333333-#333333
	BackgroundColor #333333
	BorderThickness 2
}


skinparam folder {
	BackgroundColor #6d6d6d
  	BorderColor #ff8000
	FontColor #ff8000
	BorderThickness 2
}


skinparam frame {
	BackgroundColor #6d6d6d
  	BorderColor #0060a8
	FontColor #0060a8
	BorderThickness 2
}


skinparam state {
		FontColor #C8Ac00
	BorderColor #333333
	BackgroundColor #333333-#333333
	StartColor #0060a8
	EndColor #0060a8
	AttributeFontColor #fefefe
	AttributeFontSize 11
}


skinparam queue {
		FontColor #C8Ac00
	BorderColor #333333
	BackgroundColor #333333-#333333
}


skinparam card {
	BackgroundColor #0060a8
	BorderColor #004d86
	FontColor $INFO_TEXT
}


skinparam file {
	BackgroundColor #6d6d6d-#484848
	BorderColor #0060a8
	FontColor #fefefe
}


skinparam stack {
		FontColor #C8Ac00
	BorderColor #333333
	BackgroundColor #333333-#333333
}

    
    title "com.telenav.kivakit.core.collections.primitive.map.multi.dynamic"
    
    interface PrimitiveScalarMultiMap
    interface IntMultiMap
    interface LongMultiMap
    
    PrimitiveMultiMap <|- - LongToIntMultiMap
    IntMultiMap <|- - LongToIntMultiMap
    PrimitiveScalarMultiMap <|- - LongToIntMultiMap
    class LongToIntMultiMap
    {
        - -(constructors)- -
        #LongToIntMultiMap()
        +LongToIntMultiMap(String)
        - -(collection)- -
        +void add(long key, int value)
        +boolean containsKey(long key)
        +IntIterator iterator(long key)
        +LongIterator keys()
        +void putAll(long key, int[] values)
    }
    
    PrimitiveMultiMap <|- - LongToLongMultiMap
    LongMultiMap <|- - LongToLongMultiMap
    PrimitiveScalarMultiMap <|- - LongToLongMultiMap
    class LongToLongMultiMap
    {
        - -(constructors)- -
        #LongToLongMultiMap()
        +LongToLongMultiMap(String)
        - -(collection)- -
        +void add(long key, long value)
        +boolean containsKey(long key)
        +LongIterator iterator(long key)
        +LongIterator keys()
        +void putAll(long key, long[] values)
    }
    
@enduml

PlantUML version 1.2021.01(Tue Feb 02 00:55:08 MST 2021)
(GPL source distribution)
Java Runtime: Java(TM) SE Runtime Environment
JVM: Java HotSpot(TM) 64-Bit Server VM
Default Encoding: UTF-8
Language: en
Country: US
--></g></svg>