<?xml version="1.0" encoding="UTF-8" standalone="no"?><svg xmlns="http://www.w3.org/2000/svg" xmlns:xlink="http://www.w3.org/1999/xlink" contentScriptType="application/ecmascript" contentStyleType="text/css" height="365.625px" preserveAspectRatio="none" style="width:563px;height:365px;background:#333333;" version="1.1" viewBox="0 0 563 365" width="563.5417px" zoomAndPan="magnify"><defs/><g><rect fill="#48494B" height="41.2028" rx="8.3333" ry="8.3333" style="stroke:#545454;stroke-width:1.0416666666666667;" width="458.3333" x="45.3125" y="2.0833"/><text fill="#C0C0C0" font-family="Open Sans,Avenir,Nunito,Arial,Helvetica,SansSerif" font-size="20.8333" lengthAdjust="spacing" textLength="435.4167" x="56.7708" y="30.5583">com.telenav.kivakit.core.collections.batcher</text><!--MD5=[a5548e21786f7e80caab10882b0add56]
cluster Batcher--><polygon fill="#333333" points="254.1667,188.5986,314.5833,188.5986,321.875,215.8203,545.8333,215.8203,545.8333,310.4736,254.1667,310.4736,254.1667,188.5986" style="stroke:#333333;stroke-width:2.0833333333333335;"/><line style="stroke:#333333;stroke-width:2.0833333333333335;" x1="254.1667" x2="321.875" y1="215.8203" y2="215.8203"/><text fill="#C8AC00" font-family="Open Sans,Avenir,Nunito,Arial,Helvetica,SansSerif" font-size="12.5" font-weight="bold" lengthAdjust="spacing" textLength="47.9167" x="261.4583" y="205.8919">Batcher</text><!--MD5=[ed0c9d13bc9396a9a38cb4f6ccdf18fa]
class Batcher.Batch--><rect codeLine="11" fill="#282828" height="48.055" id="Batcher.Batch" rx="8.3333" ry="8.3333" style="stroke:#5E5E5E;stroke-width:1.0416666666666667;" width="72.9167" x="447.9167" y="237.557"/><rect fill="#1B1B1A" height="31.3883" rx="8.3333" ry="8.3333" style="stroke:#1B1B1A;stroke-width:1.0416666666666667;" width="72.9167" x="447.9167" y="237.557"/><rect fill="#1B1B1A" height="8.3333" style="stroke:#1B1B1A;stroke-width:1.0416666666666667;" width="72.9167" x="447.9167" y="260.612"/><rect codeLine="11" fill="none" height="48.055" id="Batcher.Batch" rx="8.3333" ry="8.3333" style="stroke:#5E5E5E;stroke-width:1.0416666666666667;" width="72.9167" x="447.9167" y="237.557"/><ellipse cx="462.5" cy="253.2511" fill="#0066CF" rx="10.4167" ry="10.4167" style="stroke:#0086EF;stroke-width:1.0416666666666667;"/><path d="M464.4104,257.6762 Q463.9832,257.8959 463.5132,258.0058 Q463.0432,258.1156 462.5244,258.1156 Q460.6812,258.1156 459.7107,256.901 Q458.7402,255.6864 458.7402,253.3915 Q458.7402,251.0905 459.7107,249.8759 Q460.6812,248.6613 462.5244,248.6613 Q463.0432,248.6613 463.5193,248.7712 Q463.9954,248.881 464.4104,249.1007 L464.4104,251.1027 Q463.9465,250.6755 463.5101,250.4771 Q463.0737,250.2787 462.6099,250.2787 Q461.6211,250.2787 461.1176,251.063 Q460.614,251.8473 460.614,253.3915 Q460.614,254.9296 461.1176,255.7139 Q461.6211,256.4982 462.6099,256.4982 Q463.0737,256.4982 463.5101,256.2998 Q463.9465,256.1015 464.4104,255.6742 Z " fill="#000000"/><text fill="#D8BC00" font-family="Open Sans,Avenir,Nunito,Arial,Helvetica,SansSerif" font-size="12.5" font-weight="bold" lengthAdjust="spacing" textLength="35.4167" x="479.1667" y="257.9753">Batch</text><line style="stroke:#5E5E5E;stroke-width:1.0416666666666667;" x1="448.9583" x2="519.7917" y1="268.9453" y2="268.9453"/><line style="stroke:#5E5E5E;stroke-width:1.0416666666666667;" x1="448.9583" x2="519.7917" y1="277.2786" y2="277.2786"/><!--MD5=[7d1515b7b28d8bb888ffab022788fc34]
class Batcher.BatchAdder--><rect codeLine="16" fill="#282828" height="48.055" id="Batcher.BatchAdder" rx="8.3333" ry="8.3333" style="stroke:#5E5E5E;stroke-width:1.0416666666666667;" width="111.4583" x="299.4792" y="237.557"/><rect fill="#1B1B1A" height="31.3883" rx="8.3333" ry="8.3333" style="stroke:#1B1B1A;stroke-width:1.0416666666666667;" width="111.4583" x="299.4792" y="237.557"/><rect fill="#1B1B1A" height="8.3333" style="stroke:#1B1B1A;stroke-width:1.0416666666666667;" width="111.4583" x="299.4792" y="260.612"/><rect codeLine="16" fill="none" height="48.055" id="Batcher.BatchAdder" rx="8.3333" ry="8.3333" style="stroke:#5E5E5E;stroke-width:1.0416666666666667;" width="111.4583" x="299.4792" y="237.557"/><ellipse cx="314.0625" cy="253.2511" fill="#0066CF" rx="10.4167" ry="10.4167" style="stroke:#0086EF;stroke-width:1.0416666666666667;"/><path d="M315.9729,257.6762 Q315.5457,257.8959 315.0757,258.0058 Q314.6057,258.1156 314.0869,258.1156 Q312.2437,258.1156 311.2732,256.901 Q310.3027,255.6864 310.3027,253.3915 Q310.3027,251.0905 311.2732,249.8759 Q312.2437,248.6613 314.0869,248.6613 Q314.6057,248.6613 315.0818,248.7712 Q315.5579,248.881 315.9729,249.1007 L315.9729,251.1027 Q315.509,250.6755 315.0726,250.4771 Q314.6362,250.2787 314.1724,250.2787 Q313.1836,250.2787 312.6801,251.063 Q312.1765,251.8473 312.1765,253.3915 Q312.1765,254.9296 312.6801,255.7139 Q313.1836,256.4982 314.1724,256.4982 Q314.6362,256.4982 315.0726,256.2998 Q315.509,256.1015 315.9729,255.6742 Z " fill="#000000"/><text fill="#D8BC00" font-family="Open Sans,Avenir,Nunito,Arial,Helvetica,SansSerif" font-size="12.5" font-weight="bold" lengthAdjust="spacing" textLength="73.9583" x="330.7292" y="257.9753">BatchAdder</text><line style="stroke:#5E5E5E;stroke-width:1.0416666666666667;" x1="300.5208" x2="409.8958" y1="268.9453" y2="268.9453"/><line style="stroke:#5E5E5E;stroke-width:1.0416666666666667;" x1="300.5208" x2="409.8958" y1="277.2786" y2="277.2786"/><!--MD5=[762aa3d0df6a9d47bd8e105afbd066b5]
class BaseRepeater--><rect codeLine="6" fill="#282828" height="48.055" id="BaseRepeater" rx="8.3333" ry="8.3333" style="stroke:#5E5E5E;stroke-width:1.0416666666666667;" width="123.9583" x="55.7292" y="53.7028"/><rect fill="#1B1B1A" height="31.3883" rx="8.3333" ry="8.3333" style="stroke:#1B1B1A;stroke-width:1.0416666666666667;" width="123.9583" x="55.7292" y="53.7028"/><rect fill="#1B1B1A" height="8.3333" style="stroke:#1B1B1A;stroke-width:1.0416666666666667;" width="123.9583" x="55.7292" y="76.7578"/><rect codeLine="6" fill="none" height="48.055" id="BaseRepeater" rx="8.3333" ry="8.3333" style="stroke:#5E5E5E;stroke-width:1.0416666666666667;" width="123.9583" x="55.7292" y="53.7028"/><ellipse cx="70.3125" cy="69.397" fill="#C8AC00" rx="10.4167" ry="10.4167" style="stroke:#D8BC00;stroke-width:1.0416666666666667;"/><path d="M70.4264,66.099 L69.578,69.8283 L71.2809,69.8283 Z M69.3278,64.4511 L71.5312,64.4511 L73.9909,73.5636 L72.1903,73.5636 L71.6288,71.3114 L69.2179,71.3114 L68.6686,73.5636 L66.8681,73.5636 Z " fill="#000000"/><text fill="#D8BC00" font-family="Open Sans,Avenir,Nunito,Arial,Helvetica,SansSerif" font-size="12.5" font-style="italic" font-weight="bold" lengthAdjust="spacing" textLength="86.4583" x="86.9792" y="74.1211">BaseRepeater</text><line style="stroke:#5E5E5E;stroke-width:1.0416666666666667;" x1="56.7708" x2="178.6458" y1="85.0911" y2="85.0911"/><line style="stroke:#5E5E5E;stroke-width:1.0416666666666667;" x1="56.7708" x2="178.6458" y1="93.4245" y2="93.4245"/><!--MD5=[93b6c7fd318afcbb262a6b60625b068e]
class Addable--><rect codeLine="8" fill="#282828" height="48.055" id="Addable" rx="8.3333" ry="8.3333" style="stroke:#5E5E5E;stroke-width:1.0416666666666667;" width="90.625" x="308.8542" y="53.7028"/><rect fill="#1B1B1A" height="31.3883" rx="8.3333" ry="8.3333" style="stroke:#1B1B1A;stroke-width:1.0416666666666667;" width="90.625" x="308.8542" y="53.7028"/><rect fill="#1B1B1A" height="8.3333" style="stroke:#1B1B1A;stroke-width:1.0416666666666667;" width="90.625" x="308.8542" y="76.7578"/><rect codeLine="8" fill="none" height="48.055" id="Addable" rx="8.3333" ry="8.3333" style="stroke:#5E5E5E;stroke-width:1.0416666666666667;" width="90.625" x="308.8542" y="53.7028"/><ellipse cx="323.4375" cy="69.397" fill="#008400" rx="10.4167" ry="10.4167" style="stroke:#239C23;stroke-width:1.0416666666666667;"/><path d="M320.3206,66.5588 L320.3206,64.9719 L325.7467,64.9719 L325.7467,66.5588 L323.9339,66.5588 L323.9339,72.4976 L325.7467,72.4976 L325.7467,74.0845 L320.3206,74.0845 L320.3206,72.4976 L322.1334,72.4976 L322.1334,66.5588 Z " fill="#000000"/><text fill="#D8BC00" font-family="Open Sans,Avenir,Nunito,Arial,Helvetica,SansSerif" font-size="12.5" font-style="italic" font-weight="bold" lengthAdjust="spacing" textLength="53.125" x="340.1042" y="74.1211">Addable</text><line style="stroke:#5E5E5E;stroke-width:1.0416666666666667;" x1="309.8958" x2="398.4375" y1="85.0911" y2="85.0911"/><line style="stroke:#5E5E5E;stroke-width:1.0416666666666667;" x1="309.8958" x2="398.4375" y1="93.4245" y2="93.4245"/><!--MD5=[ab8871ed637f40707b866ba6597734bc]
class ArrayList--><rect fill="#282828" height="48.055" id="ArrayList" rx="8.3333" ry="8.3333" style="stroke:#5E5E5E;stroke-width:1.0416666666666667;" width="95.8333" x="436.4583" y="53.7028"/><rect fill="#1B1B1A" height="31.3883" rx="8.3333" ry="8.3333" style="stroke:#1B1B1A;stroke-width:1.0416666666666667;" width="95.8333" x="436.4583" y="53.7028"/><rect fill="#1B1B1A" height="8.3333" style="stroke:#1B1B1A;stroke-width:1.0416666666666667;" width="95.8333" x="436.4583" y="76.7578"/><rect fill="none" height="48.055" id="ArrayList" rx="8.3333" ry="8.3333" style="stroke:#5E5E5E;stroke-width:1.0416666666666667;" width="95.8333" x="436.4583" y="53.7028"/><ellipse cx="451.0417" cy="69.397" fill="#0066CF" rx="10.4167" ry="10.4167" style="stroke:#0086EF;stroke-width:1.0416666666666667;"/><path d="M452.9521,73.822 Q452.5248,74.0417 452.0549,74.1516 Q451.5849,74.2615 451.0661,74.2615 Q449.2228,74.2615 448.2524,73.0469 Q447.2819,71.8323 447.2819,69.5374 Q447.2819,67.2363 448.2524,66.0217 Q449.2228,64.8071 451.0661,64.8071 Q451.5849,64.8071 452.061,64.917 Q452.537,65.0269 452.9521,65.2466 L452.9521,67.2485 Q452.4882,66.8213 452.0518,66.6229 Q451.6154,66.4246 451.1515,66.4246 Q450.1628,66.4246 449.6592,67.2089 Q449.1557,67.9932 449.1557,69.5374 Q449.1557,71.0754 449.6592,71.8597 Q450.1628,72.644 451.1515,72.644 Q451.6154,72.644 452.0518,72.4457 Q452.4882,72.2473 452.9521,71.8201 Z " fill="#000000"/><text fill="#D8BC00" font-family="Open Sans,Avenir,Nunito,Arial,Helvetica,SansSerif" font-size="12.5" font-weight="bold" lengthAdjust="spacing" textLength="58.3333" x="467.7083" y="74.1211">ArrayList</text><line style="stroke:#5E5E5E;stroke-width:1.0416666666666667;" x1="437.5" x2="531.25" y1="85.0911" y2="85.0911"/><line style="stroke:#5E5E5E;stroke-width:1.0416666666666667;" x1="437.5" x2="531.25" y1="93.4245" y2="93.4245"/><!--MD5=[8e449857f8c774f75def2d9bd1c3f50d]
class Batcher--><rect codeLine="21" fill="#282828" height="194.6025" id="Batcher" rx="8.3333" ry="8.3333" style="stroke:#5E5E5E;stroke-width:1.0416666666666667;" width="216.6667" x="9.375" y="164.1195"/><rect fill="#1B1B1A" height="31.3883" rx="8.3333" ry="8.3333" style="stroke:#1B1B1A;stroke-width:1.0416666666666667;" width="216.6667" x="9.375" y="164.1195"/><rect fill="#1B1B1A" height="8.3333" style="stroke:#1B1B1A;stroke-width:1.0416666666666667;" width="216.6667" x="9.375" y="187.1745"/><rect codeLine="21" fill="none" height="194.6025" id="Batcher" rx="8.3333" ry="8.3333" style="stroke:#5E5E5E;stroke-width:1.0416666666666667;" width="216.6667" x="9.375" y="164.1195"/><ellipse cx="55.2083" cy="179.8136" fill="#C8AC00" rx="10.4167" ry="10.4167" style="stroke:#D8BC00;stroke-width:1.0416666666666667;"/><path d="M55.3223,176.5157 L54.4739,180.245 L56.1768,180.245 Z M54.2236,174.8678 L56.427,174.8678 L58.8867,183.9803 L57.0862,183.9803 L56.5247,181.7281 L54.1138,181.7281 L53.5645,183.9803 L51.7639,183.9803 Z " fill="#000000"/><text fill="#D8BC00" font-family="Open Sans,Avenir,Nunito,Arial,Helvetica,SansSerif" font-size="12.5" font-style="italic" font-weight="bold" lengthAdjust="spacing" textLength="47.9167" x="78.125" y="184.5378">Batcher</text><rect fill="#333333" height="23.055" style="stroke:#A0A0A0;stroke-width:1.0416666666666667;stroke-dasharray:2.0,2.0;" width="60.4167" x="168.75" y="160.9945"/><text fill="#A0A0A0" font-family="Open Sans,Avenir,Nunito,Arial,Helvetica,SansSerif" font-size="12.5" font-weight="bold" lengthAdjust="spacing" textLength="52.0833" x="172.9167" y="177.2461">Element</text><line style="stroke:#5E5E5E;stroke-width:1.5625;" x1="10.4167" x2="225" y1="195.5078" y2="195.5078"/><polygon fill="#FFFF44" points="20.8333,225.6694,25,229.836,20.8333,234.0027,16.6667,229.836" style="stroke:#B38D22;stroke-width:1.0416666666666667;"/><text fill="#D8BC00" font-family="Open Sans,Avenir,Nunito,Arial,Helvetica,SansSerif" font-size="11.4583" lengthAdjust="spacing" textLength="184.375" x="32.2917" y="237.7889">Batcher(String, Maximum, Count)</text><line style="stroke:#5E5E5E;stroke-width:1.0416666666666667;" x1="10.4167" x2="73.9583" y1="213.7136" y2="213.7136"/><text fill="#D8BC00" font-family="Open Sans,Avenir,Nunito,Arial,Helvetica,SansSerif" font-size="11.4583" lengthAdjust="spacing" textLength="81.25" x="77.0833" y="217.5232">(constructors)</text><line style="stroke:#5E5E5E;stroke-width:1.0416666666666667;" x1="161.4583" x2="225" y1="213.7136" y2="213.7136"/><line style="stroke:#5E5E5E;stroke-width:1.0416666666666667;" x1="10.4167" x2="225" y1="247.4976" y2="247.4976"/><ellipse cx="20.8333" cy="258.9559" fill="#84BE84" rx="3.125" ry="3.125" style="stroke:#038048;stroke-width:1.0416666666666667;"/><text fill="#D8BC00" font-family="Open Sans,Avenir,Nunito,Arial,Helvetica,SansSerif" font-size="11.4583" lengthAdjust="spacing" textLength="108.3333" x="32.2917" y="265.8671">BatchAdder adder()</text><polygon fill="#FFFF44" points="20.8333,273.4924,25,277.6591,20.8333,281.8258,16.6667,277.6591" style="stroke:#B38D22;stroke-width:1.0416666666666667;"/><text fill="#D8BC00" font-family="Open Sans,Avenir,Nunito,Arial,Helvetica,SansSerif" font-size="11.4583" lengthAdjust="spacing" textLength="110.4167" x="32.2917" y="285.612">void onBatch(Batch)</text><ellipse cx="20.8333" cy="322.3572" fill="#84BE84" rx="3.125" ry="3.125" style="stroke:#038048;stroke-width:1.0416666666666667;"/><text fill="#D8BC00" font-family="Open Sans,Avenir,Nunito,Arial,Helvetica,SansSerif" font-size="11.4583" lengthAdjust="spacing" textLength="143.75" x="32.2917" y="329.2684">void start(Count workers)</text><ellipse cx="20.8333" cy="342.1021" fill="#84BE84" rx="3.125" ry="3.125" style="stroke:#038048;stroke-width:1.0416666666666667;"/><text fill="#D8BC00" font-family="Open Sans,Avenir,Nunito,Arial,Helvetica,SansSerif" font-size="11.4583" lengthAdjust="spacing" textLength="60.4167" x="32.2917" y="349.0133">void stop()</text><line style="stroke:#5E5E5E;stroke-width:1.0416666666666667;" x1="10.4167" x2="88.0208" y1="305.1931" y2="305.1931"/><text fill="#D8BC00" font-family="Open Sans,Avenir,Nunito,Arial,Helvetica,SansSerif" font-size="11.4583" lengthAdjust="spacing" textLength="53.125" x="91.1458" y="309.0027">(lifecycle)</text><line style="stroke:#5E5E5E;stroke-width:1.0416666666666667;" x1="147.3958" x2="225" y1="305.1931" y2="305.1931"/><!--MD5=[10b39b1464d0243bea69957d3fcebbfc]
reverse link ArrayList to Batcher.Batch--><path codeLine="10" d="M484.375,122.6507 C484.375,158.7861 484.375,208.5674 484.375,237.3486 " fill="none" id="ArrayList-backto-Batcher.Batch" style="stroke:#545454;stroke-width:1.5625;"/><polygon fill="none" points="477.0833,122.557,484.375,101.7236,491.6667,122.557,477.0833,122.557" style="stroke:#545454;stroke-width:1.5625;"/><!--MD5=[ed11c02aed1d2296bfc20f33252555a2]
reverse link Addable to Batcher.BatchAdder--><path codeLine="15" d="M354.4167,122.6507 C354.625,158.7861 354.9063,208.5674 355.0729,237.3486 " fill="none" id="Addable-backto-Batcher.BatchAdder" style="stroke:#545454;stroke-width:1.5625;"/><polygon fill="none" points="347.125,122.5986,354.3021,101.7236,361.7083,122.5153,347.125,122.5986" style="stroke:#545454;stroke-width:1.5625;"/><!--MD5=[c3c21a9c5d6602483b53cab15af90af1]
reverse link BaseRepeater to Batcher--><path codeLine="20" d="M117.7083,122.8382 C117.7083,135.3799 117.7083,149.5674 117.7083,163.932 " fill="none" id="BaseRepeater-backto-Batcher" style="stroke:#545454;stroke-width:1.5625;"/><polygon fill="none" points="110.4167,122.557,117.7083,101.7236,125,122.557,110.4167,122.557" style="stroke:#545454;stroke-width:1.5625;"/><!--MD5=[3246d6d009c7985dcd7181901dd1e1dc]
@startuml

    !include ../lexakai/lexakai.theme
    
    title "com.telenav.kivakit.core.collections.batcher"
    
    abstract BaseRepeater
    
    interface Addable
    
    ArrayList <|- - Batcher.Batch
    class Batcher.Batch
    {
    }
    
    Addable <|- - Batcher.BatchAdder
    class Batcher.BatchAdder
    {
    }
    
    BaseRepeater <|- - Batcher
    abstract class Batcher<Element>
    {
        - -(constructors)- -
        #Batcher(String, Maximum, Count)
        - -
        +BatchAdder adder()
        #void onBatch(Batch)
        - -(lifecycle)- -
        +void start(Count workers)
        +void stop()
    }
    
@enduml

@startuml









skinparam backgroundColor #333333






skinparam  {
    defaultFontName   "Open Sans,Avenir,Nunito,Arial,Helvetica,SansSerif"
    defaultFontSize   12
    defaultTextAlignment left
    shadowing false
    RoundCorner 10
    TitleFontSize 18
}

skinparam defaultFontName       "Open Sans,Avenir,Nunito,Arial,Helvetica,SansSerif"
skinparam defaultFontSize       12
skinparam dpi                   100
skinparam shadowing             false
skinparam roundcorner           16
skinparam ParticipantPadding    40
skinparam BoxPadding            40
skinparam Padding               3
skinparam ArrowColor            #545454
skinparam stereotype {
    CBackgroundColor #0066cf
    CBorderColor #0086ef
    ABackgroundColor #C8Ac00
    ABorderColor #D8Bc00
    IBackgroundColor #008400
    IBorderColor #239c23
    EBackgroundColor #cf6300
    EBorderColor #ef8300
    NBackgroundColor #3380b9
    NBorderColor #004d86
}
skinparam title {
	FontColor	                 #c0c0c0
 	BorderColor                  #545454
	FontSize	    	         20
	BorderRoundCorner            16
	BorderThickness 	         1
	BackgroundColor              #48494b
}


skinparam legend {
	BackgroundColor #303030
	BorderColor #404040
	FontColor #a0a0a0
}

	skinparam swimlane {
	BorderColor #5e5e5e
	BorderThickness 2
	TitleBackgroundColor  #6d6d6d-#484848
	TitleFontColor #303030
}

skinparam activity {
		FontColor #C8Ac00
	BorderColor #333333
	BackgroundColor #333333-#333333
	BarColor #00FF00
	StartColor #0060a8
	EndColor #0060a8
	DiamondBackgroundColor #6d6d6d-#3a3a3a
  	DiamondBorderColor #3a3a3a
  	DiamondFontColor #fefefe
}


skinparam participant {
		FontColor #C8Ac00
	BorderColor #333333
	BackgroundColor #333333-#333333
	ParticipantBorderThickness 2
}


skinparam actor {
		FontColor #C8Ac00
	BorderColor #333333
	BackgroundColor #333333-#333333
}


skinparam arrow {
	Thickness 1.5
	Color #545454
	FontColor #a0a0a0
    FontStyle bold
    MessageAlignment center
}



skinparam sequence {
	BorderColor #303030
	TitleFontColor #303030
	BackgroundColor #333333
	StartColor #303030
	EndColor #303030
	BoxBackgroundColor #333333
	BoxBorderColor #484848
	BoxFontColor #484848
	LifeLineBorderColor #484848
	LifeLineBorderThickness 2
	LifeLineBackgroundColor #3a3a3a
	GroupBorderColor #484848
	GroupFontColor #484848
	GroupHeaderFontColor #0060a8
	GroupBackgroundColor #484848
	GroupHeaderBackgroundColor #333333
	DividerBackgroundColor #484848
    DividerBorderColor #484848
    DividerBorderThickness 2
    DividerFontColor #D8Bc00
	ReferenceBackgroundColor #333333
	ReferenceBorderColor #484848
	ReferenceFontColor #fefefe
	ReferenceHeaderBackgroundColor #484848
}


skinparam partition {
	BorderColor #303030
	FontColor #333333
	BackgroundColor #333333
}


skinparam collections {
		FontColor #C8Ac00
	BorderColor #333333
	BackgroundColor #333333-#333333
}


skinparam control {
		FontColor #C8Ac00
	BorderColor #333333
	BackgroundColor #333333-#333333
}


skinparam entity {
		FontColor #C8Ac00
	BorderColor #333333
	BackgroundColor #333333-#333333
}


skinparam boundary {
		FontColor #C8Ac00
	BorderColor #333333
	BackgroundColor #333333-#333333
}


skinparam agent {
	BackgroundColor #ff8000
	BorderColor #ff9933
	FontColor #484848
}


skinparam note {
	BorderThickness 1
	BackgroundColor #1b1b1a
	BorderColor #5e5e5e
	FontSize 11
	FontColor #a0a0a0
}


skinparam artifact {
	BorderThickness 10
	BorderColor #5e5e5e
	BackgroundColor #1b1b1a
	FontColor #D8Bc00
}


skinparam component {
		FontColor #C8Ac00
	BorderColor #333333
	BackgroundColor #333333-#333333
}


skinparam interface {
	BackgroundColor  #008400
	BorderColor  #007F00
	FontColor #484848
}


skinparam storage {
	BackgroundColor #ff8000
  	BorderColor #cc6600
	FontColor #222222
}


skinparam node {
	BackgroundColor #333333
	BorderColor #333333
	FontColor #C8Ac00
}


skinparam cloud {
	BackgroundColor #484848-black
	BorderColor #484848
	FontColor #D8Bc00
}


skinparam database {
		FontColor #C8Ac00
	BorderColor #333333
	BackgroundColor #333333-#333333
	BackgroundColor  #333333
}


skinparam class {
		FontColor #C8Ac00
	BorderColor #333333
	BackgroundColor #333333-#333333
	HeaderBackgroundColor #1b1b1a
    BackgroundColor #282828
    BorderColor #5e5e5e
 	StereotypeFontColor #a0a0a0
    StereotypeFontStyle bold
	BorderThickness 1
	AttributeFontColor #D8Bc00
	AttributeFontSize 11
    FontColor #D8Bc00
    FontStyle bold
}


skinparam object {
		FontColor #C8Ac00
	BorderColor #333333
	BackgroundColor #333333-#333333
	StereotypeFontColor #484848
	BorderThickness 1
	AttributeFontColor #fefefe
	AttributeFontSize 11
}


skinparam usecase {
		FontColor #C8Ac00
	BorderColor #333333
	BackgroundColor #333333-#333333
	BorderThickness 2
	StereotypeFontColor #303030
}


skinparam rectangle {
		FontColor #C8Ac00
	BorderColor #333333
	BackgroundColor #333333-#333333
	BackgroundColor #333333
	BorderThickness 2
	StereotypeFontColor #303030
}


skinparam package {
		FontColor #C8Ac00
	BorderColor #333333
	BackgroundColor #333333-#333333
	BackgroundColor #333333
	BorderThickness 2
}


skinparam folder {
	BackgroundColor #6d6d6d
  	BorderColor #ff8000
	FontColor #ff8000
	BorderThickness 2
}


skinparam frame {
	BackgroundColor #6d6d6d
  	BorderColor #0060a8
	FontColor #0060a8
	BorderThickness 2
}


skinparam state {
		FontColor #C8Ac00
	BorderColor #333333
	BackgroundColor #333333-#333333
	StartColor #0060a8
	EndColor #0060a8
	AttributeFontColor #fefefe
	AttributeFontSize 11
}


skinparam queue {
		FontColor #C8Ac00
	BorderColor #333333
	BackgroundColor #333333-#333333
}


skinparam card {
	BackgroundColor #0060a8
	BorderColor #004d86
	FontColor $INFO_TEXT
}


skinparam file {
	BackgroundColor #6d6d6d-#484848
	BorderColor #0060a8
	FontColor #fefefe
}


skinparam stack {
		FontColor #C8Ac00
	BorderColor #333333
	BackgroundColor #333333-#333333
}

    
    title "com.telenav.kivakit.core.collections.batcher"
    
    abstract BaseRepeater
    
    interface Addable
    
    ArrayList <|- - Batcher.Batch
    class Batcher.Batch
    {
    }
    
    Addable <|- - Batcher.BatchAdder
    class Batcher.BatchAdder
    {
    }
    
    BaseRepeater <|- - Batcher
    abstract class Batcher<Element>
    {
        - -(constructors)- -
        #Batcher(String, Maximum, Count)
        - -
        +BatchAdder adder()
        #void onBatch(Batch)
        - -(lifecycle)- -
        +void start(Count workers)
        +void stop()
    }
    
@enduml

PlantUML version 1.2021.01(Tue Feb 02 00:55:08 MST 2021)
(GPL source distribution)
Java Runtime: Java(TM) SE Runtime Environment
JVM: Java HotSpot(TM) 64-Bit Server VM
Default Encoding: UTF-8
Language: en
Country: US
--></g></svg>